<svg width="540" height="301" viewBox="0 0 540 301" fill="none" xmlns="http://www.w3.org/2000/svg">
<path d="M465.538 109.176C470.027 106.164 471.225 100.083 468.213 95.5938C465.201 91.1046 459.12 89.9072 454.63 92.9192C450.141 95.9313 448.944 102.012 451.956 106.501C454.968 110.991 461.049 112.188 465.538 109.176Z" fill="#E0E0E0"/>
<path d="M431.025 111.469C436.782 111.469 441.45 106.802 441.45 101.044C441.45 95.2866 436.782 90.6191 431.025 90.6191C425.267 90.6191 420.6 95.2866 420.6 101.044C420.6 106.802 425.267 111.469 431.025 111.469Z" fill="#E0E0E0"/>
<path d="M408.695 93.6588C414.804 93.6588 419.756 88.7063 419.756 82.597C419.756 76.4877 414.804 71.5352 408.695 71.5352C402.585 71.5352 397.633 76.4877 397.633 82.597C397.633 88.7063 402.585 93.6588 408.695 93.6588Z" fill="#E0E0E0"/>
<path d="M404.157 65.8058C410.539 65.8058 415.712 60.6323 415.712 54.2505C415.712 47.8688 410.539 42.6953 404.157 42.6953C397.775 42.6953 392.602 47.8688 392.602 54.2505C392.602 60.6323 397.775 65.8058 404.157 65.8058Z" fill="#E0E0E0"/>
<path d="M418.316 41.3728C424.913 41.3728 430.261 36.0247 430.261 29.4276C430.261 22.8305 424.913 17.4824 418.316 17.4824C411.719 17.4824 406.371 22.8305 406.371 29.4276C406.371 36.0247 411.719 41.3728 418.316 41.3728Z" fill="#E0E0E0"/>
<path d="M445.508 32.6348C452.698 32.6348 458.527 26.8057 458.527 19.6152C458.527 12.4247 452.698 6.5957 445.508 6.5957C438.317 6.5957 432.488 12.4247 432.488 19.6152C432.488 26.8057 438.317 32.6348 445.508 32.6348Z" fill="#E0E0E0"/>
<path d="M490.844 84.5114C492.037 79.4281 488.884 74.34 483.801 73.1468C478.717 71.9536 473.629 75.1071 472.436 80.1904C471.243 85.2737 474.396 90.3618 479.48 91.555C484.563 92.7482 489.651 89.5947 490.844 84.5114Z" fill="#E0E0E0"/>
<path d="M486.725 62.7019C491.568 62.7019 495.495 58.7755 495.495 53.932C495.495 49.0885 491.568 45.1621 486.725 45.1621C481.882 45.1621 477.955 49.0885 477.955 53.932C477.955 58.7755 481.882 62.7019 486.725 62.7019Z" fill="#E0E0E0"/>
<path d="M472.137 37.1156C476.563 37.1156 480.151 33.5277 480.151 29.1017C480.151 24.6758 476.563 21.0879 472.137 21.0879C467.711 21.0879 464.123 24.6758 464.123 29.1017C464.123 33.5277 467.711 37.1156 472.137 37.1156Z" fill="#E0E0E0"/>
<path d="M136.303 22.384C137.191 22.1881 138.105 22.1397 139.009 22.2408C141.12 22.4464 143.127 23.2582 144.788 24.5784C146.448 25.8986 147.691 27.6709 148.368 29.6817C149.007 31.5758 149.125 33.6072 148.71 35.5627C148.24 37.7344 147.131 39.716 145.527 41.2528C143.817 42.9196 141.618 43.9932 139.252 44.3156C136.887 44.638 134.48 44.192 132.388 43.0434C130.439 41.9784 128.852 40.3578 127.828 38.3879C126.907 36.6128 126.481 34.6226 126.594 32.6262C126.691 30.8938 127.195 29.2087 128.066 27.708C129.313 25.5185 131.283 23.8305 133.637 22.9331C134.477 22.5965 135.367 22.4002 136.271 22.3522C136.271 22.4318 135.316 22.5034 133.725 23.148C131.482 24.1053 129.624 25.7863 128.448 27.9229C127.583 29.4788 127.12 31.2265 127.102 33.007C127.084 34.7874 127.511 36.5441 128.345 38.1173C128.816 39.0235 129.423 39.8527 130.143 40.5764C130.893 41.3471 131.764 41.9897 132.722 42.4784C134.701 43.5578 136.973 43.9763 139.206 43.6728C141.44 43.3693 143.518 42.3596 145.137 40.7912C146.652 39.3393 147.702 37.4695 148.153 35.4195C148.557 33.5714 148.464 31.649 147.882 29.8488C147.373 28.2692 146.497 26.8323 145.328 25.6548C143.625 23.9063 141.381 22.7845 138.961 22.4716C138.077 22.398 137.19 22.3687 136.303 22.384Z" fill="#E0E0E0"/>
<path d="M140.45 8.39459C140.45 8.39459 140.394 8.28318 140.299 8.03648L139.869 6.96213C139.479 5.96736 138.93 4.52694 138.206 2.67269L138.317 2.73635L128.242 4.16086L128.377 4.01761C128.226 5.87186 128.051 7.93302 127.868 10.1374V10.2488L127.765 10.2966C125.733 11.1459 123.824 12.2648 122.09 13.6231L121.995 13.7027L121.876 13.647L116.305 11.1163L116.575 11.0447L110.44 19.154V18.8516L114.419 23.5549L114.522 23.6742L114.459 23.8175C113.626 25.857 113.066 27.9977 112.795 30.184V30.3511L112.636 30.4068L106.882 32.5635L107.065 32.269C107.495 35.4523 107.965 38.8504 108.442 42.3441L108.18 42.0973L114.299 42.6305H114.482L114.554 42.7977C115.399 44.8194 116.51 46.7196 117.857 48.4479L117.968 48.5912L117.889 48.7583C117.093 50.5171 116.225 52.427 115.342 54.329L115.254 53.955L123.348 60.1146H122.958L127.669 56.1355L127.812 56.0161L127.987 56.0878C130.013 56.9216 132.141 57.4836 134.314 57.759C134.426 57.8465 134.06 57.56 134.569 57.9659V58.0614L134.64 58.2365L134.776 58.6025L135.046 59.3267L135.58 60.7672C135.946 61.7301 136.296 62.6851 136.654 63.64L136.32 63.4411L146.403 62.0723L146.132 62.3508C146.312 60.2923 146.493 58.2524 146.673 56.231V56.048L146.848 55.9764C148.872 55.134 150.775 54.026 152.506 52.6817L152.65 52.5703L152.817 52.6419L158.388 55.1965L158.029 55.292L164.197 47.1985V47.5646C162.86 45.973 161.539 44.3813 160.218 42.8454L160.107 42.7101L160.178 42.5589C161.017 40.5203 161.581 38.3795 161.857 36.1924V36.0332L162.009 35.9775L167.77 33.8368L167.603 34.1153C167.126 30.566 166.68 27.2156 166.258 24.0324L166.473 24.2393L160.353 23.6822H160.218L160.162 23.5628C159.35 21.5849 158.286 19.7204 156.995 18.016L156.923 17.9125L156.971 17.8011C157.902 15.7718 158.746 13.9494 159.541 12.2304L159.597 12.4532L151.528 6.25385H151.703L146.928 10.1693H146.88H146.824C145.283 9.52515 143.685 9.0295 142.049 8.68905L140.84 8.46622L140.434 8.38664C140.572 8.37579 140.71 8.37579 140.848 8.38664C141.118 8.38664 141.524 8.46622 142.073 8.56967C143.71 8.86404 145.31 9.33086 146.848 9.96235H146.745C148.026 8.87208 149.554 7.57491 151.432 5.98328L151.512 5.91165L151.607 5.97532L159.725 12.1031L159.844 12.1906L159.78 12.3259C158.984 14.0608 158.189 15.8912 157.25 17.8966V17.6818C158.629 19.4454 159.767 21.3859 160.632 23.4514L160.449 23.3161L166.569 23.8414H166.76V24.0324C167.197 27.2156 167.651 30.558 168.144 34.1074V34.3143L167.953 34.3859L162.199 36.5426L162.375 36.3277C162.094 38.5551 161.522 40.7359 160.672 42.8136L160.624 42.5271C161.924 44.0604 163.25 45.6281 164.603 47.2304L164.754 47.4054L164.611 47.5885L158.459 55.6899L158.316 55.8809L158.101 55.7774L152.53 53.2388H152.841C151.065 54.6185 149.115 55.7559 147.039 56.621L147.23 56.3663C147.055 58.3877 146.872 60.425 146.697 62.4861V62.7328H146.45L136.375 64.1096H136.129L136.041 63.8708L134.967 61.0059L134.426 59.5575L134.155 58.8333L134.02 58.4752L133.948 58.2922V58.2046V58.1569C134.457 58.5628 134.091 58.2683 134.203 58.3558C131.974 58.0756 129.793 57.5003 127.717 56.6448L128.043 56.5971L123.324 60.5762L123.133 60.7353L122.942 60.5841L114.817 54.4643L114.618 54.3211L114.721 54.0982L117.276 48.5275L117.316 48.8379C115.938 47.0624 114.803 45.1115 113.941 43.0364L114.188 43.2194L108.068 42.6783H107.837V42.4475C107.36 38.9459 106.906 35.5319 106.477 32.3645V32.1417L106.683 32.0701L112.437 29.9214L112.27 30.1442C112.548 27.9172 113.126 25.7382 113.989 23.6663V23.9289L110.042 19.162L109.914 19.0108L110.034 18.8596C112.161 16.0371 114.212 13.3446 116.185 10.782L116.289 10.6388L116.456 10.7104L122.027 13.2729H121.812C123.581 11.9012 125.527 10.7742 127.597 9.92256L127.486 10.0738C127.685 7.86936 127.876 5.8082 128.051 3.95395V3.82662H128.178L138.261 2.52148H138.341V2.59311L139.885 6.88255C140.052 7.35208 140.179 7.67836 140.275 7.99669C140.347 8.12264 140.406 8.25605 140.45 8.39459Z" fill="#E0E0E0"/>
<path fill-rule="evenodd" clip-rule="evenodd" d="M91.737 67.1486C94.8513 67.5373 97.8997 68.3402 100.801 69.536L107.462 63.9653L118.93 72.7193L115.325 80.6217C117.25 83.1026 118.839 85.8265 120.052 88.7231L128.703 89.5189L130.636 103.756L122.495 106.796C122.11 109.911 121.307 112.96 120.108 115.86L125.679 122.521L116.972 133.965L109.062 130.36C106.584 132.29 103.86 133.88 100.961 135.087L100.165 143.738L85.9116 145.672L82.8716 137.53C79.7575 137.141 76.7093 136.338 73.8073 135.143L67.1463 140.714L55.7025 132.007L59.3076 124.097C57.3804 121.619 55.7933 118.894 54.5884 115.996L45.9299 115.2L43.9961 100.947L52.1373 97.9068C52.5233 94.792 53.3263 91.7433 54.5247 88.8425L48.954 82.1815L57.6602 70.7377L65.5706 74.3427C68.0498 72.4172 70.7742 70.8303 73.672 69.6235L74.4678 60.9651L88.7209 59.0312L91.737 67.1486ZM85.8878 86.9325C82.863 87.3411 80.0273 88.6376 77.7395 90.658C75.4516 92.6784 73.8143 95.3319 73.0346 98.2829C72.255 101.234 72.368 104.35 73.3594 107.237C74.3509 110.123 76.1761 112.651 78.6044 114.501C81.0326 116.35 83.9548 117.437 87.0012 117.626C90.0477 117.814 93.0815 117.095 95.7191 115.559C98.3567 114.023 100.48 111.739 101.819 108.996C103.159 106.254 103.655 103.176 103.245 100.151C102.689 96.106 100.553 92.4461 97.3039 89.973C94.0551 87.4999 89.9586 86.4151 85.9116 86.9564L85.8878 86.9325Z" fill="#E0E0E0"/>
<path d="M539.781 300.324C539.781 300.443 418.984 300.531 270 300.531C121.015 300.531 0.21875 300.412 0.21875 300.324C0.21875 300.237 120.992 300.117 270 300.117C419.008 300.117 539.781 300.181 539.781 300.324Z" fill="#263238"/>
<path d="M442.77 64.9395H117.943C111.539 64.9395 106.348 70.1307 106.348 76.5345V283.486C106.348 289.89 111.539 295.081 117.943 295.081H442.77C449.174 295.081 454.365 289.89 454.365 283.486V76.5345C454.365 70.1307 449.174 64.9395 442.77 64.9395Z" fill="#455A64"/>
<path d="M92.748 280.215H469.797V286.191C469.797 289.948 468.305 293.551 465.648 296.208C462.992 298.864 459.389 300.357 455.632 300.357H106.914C103.157 300.357 99.5536 298.864 96.897 296.208C94.2405 293.551 92.748 289.948 92.748 286.191V280.215Z" fill="#455A64"/>
<path d="M444.053 74.082H115.691V268.436H444.053V74.082Z" fill="#263238"/>
<path d="M246.055 278.059L250.734 285.499H316.572L320.917 278.059H246.055Z" fill="#263238"/>
<path d="M435.361 80.6641H125.057C123.62 80.6641 122.455 81.8292 122.455 83.2664V265.214C122.455 266.651 123.62 267.816 125.057 267.816H435.361C436.799 267.816 437.964 266.651 437.964 265.214V83.2664C437.964 81.8292 436.799 80.6641 435.361 80.6641Z" fill="#EBEBEB"/>
<path d="M437.63 268.088H122.121L122.455 94.6484H437.63V268.088Z" fill="#FAFAFA"/>
<path d="M148.327 87.8899C148.327 88.3892 148.179 88.8773 147.901 89.2923C147.623 89.7073 147.229 90.0307 146.768 90.2214C146.306 90.4121 145.798 90.4616 145.309 90.3636C144.819 90.2656 144.37 90.0246 144.017 89.6709C143.665 89.3173 143.425 88.8671 143.329 88.3772C143.232 87.8873 143.283 87.3798 143.476 86.919C143.668 86.4582 143.992 86.0647 144.408 85.7885C144.824 85.5122 145.313 85.3656 145.812 85.3672C146.143 85.3672 146.471 85.4325 146.776 85.5594C147.082 85.6863 147.359 85.8722 147.593 86.1066C147.827 86.3409 148.012 86.6191 148.138 86.9251C148.263 87.2312 148.328 87.559 148.327 87.8899Z" fill="#263238"/>
<path d="M133.057 87.8899C133.057 88.3892 132.909 88.8773 132.631 89.2923C132.354 89.7073 131.959 90.0307 131.498 90.2214C131.037 90.4121 130.529 90.4616 130.039 90.3636C129.55 90.2656 129.1 90.0246 128.748 89.6709C128.395 89.3173 128.156 88.8671 128.059 88.3772C127.963 87.8873 128.014 87.3798 128.206 86.919C128.398 86.4582 128.723 86.0647 129.139 85.7885C129.555 85.5122 130.043 85.3656 130.542 85.3672C130.873 85.3672 131.201 85.4325 131.507 85.5594C131.812 85.6863 132.09 85.8722 132.323 86.1066C132.557 86.3409 132.742 86.6191 132.868 86.9251C132.994 87.2312 133.058 87.559 133.057 87.8899Z" fill="#263238"/>
<path d="M140.393 87.8899C140.393 88.3889 140.245 88.8766 139.968 89.2915C139.691 89.7063 139.297 90.0297 138.836 90.2206C138.375 90.4116 137.868 90.4615 137.378 90.3642C136.889 90.2668 136.439 90.0266 136.087 89.6738C135.734 89.321 135.493 88.8714 135.396 88.3821C135.299 87.8927 135.349 87.3855 135.54 86.9245C135.731 86.4635 136.054 86.0695 136.469 85.7923C136.884 85.5151 137.371 85.3672 137.87 85.3672C138.539 85.3672 139.181 85.633 139.654 86.1061C140.127 86.5792 140.393 87.2208 140.393 87.8899Z" fill="#263238"/>
<path d="M451.373 278.043C451.373 278.17 374.131 278.266 278.872 278.266C183.613 278.266 106.348 278.17 106.348 278.043C106.348 277.916 183.542 277.82 278.872 277.82C374.203 277.82 451.373 277.932 451.373 278.043Z" fill="#263238"/>
<path d="M390.646 180.754H176.246C173.728 180.754 171.313 179.754 169.533 177.973C167.752 176.193 166.752 173.778 166.752 171.26C166.752 168.741 167.752 166.325 169.532 164.544C171.312 162.762 173.727 161.76 176.246 161.758H390.646C393.165 161.76 395.58 162.762 397.36 164.544C399.141 166.325 400.141 168.741 400.141 171.26C400.141 173.778 399.14 176.193 397.36 177.973C395.579 179.754 393.164 180.754 390.646 180.754Z" fill="#EBEBEB"/>
<path d="M287.022 180.753H275.57C274.306 180.763 273.052 180.523 271.882 180.045C270.711 179.567 269.647 178.862 268.751 177.97C267.856 177.078 267.146 176.017 266.663 174.849C266.181 173.68 265.935 172.427 265.94 171.163C265.922 169.924 266.153 168.693 266.619 167.544C267.084 166.395 267.776 165.351 268.652 164.474C269.528 163.597 270.572 162.905 271.72 162.438C272.869 161.971 274.099 161.74 275.339 161.757L287.022 161.804C289.585 161.846 292.029 162.896 293.823 164.727C295.618 166.557 296.62 169.021 296.611 171.585C296.611 176.877 292.282 180.753 287.022 180.753Z" fill="#E0E0E0"/>
<mask id="mask0_8477_21729" style="mask-type:luminance" maskUnits="userSpaceOnUse" x="166" y="161" width="125" height="20">
<path d="M283.775 180.756H176.244C173.726 180.756 171.311 179.756 169.531 177.975C167.75 176.195 166.75 173.78 166.75 171.262C166.75 168.743 167.75 166.327 169.53 164.546C171.311 162.764 173.725 161.762 176.244 161.76H283.775C285.579 161.76 287.31 162.477 288.586 163.753C289.862 165.029 290.579 166.759 290.579 168.564V173.952C290.579 175.756 289.862 177.487 288.586 178.763C287.31 180.039 285.579 180.756 283.775 180.756Z" fill="white"/>
</mask>
<g mask="url(#mask0_8477_21729)">
<path d="M281.077 180.756H176.244C173.726 180.756 171.311 179.756 169.531 177.975C167.75 176.195 166.75 173.78 166.75 171.262C166.75 168.743 167.75 166.327 169.53 164.546C171.311 162.764 173.725 161.762 176.244 161.76H281.077C283.597 161.76 286.014 162.761 287.796 164.543C289.578 166.325 290.579 168.742 290.579 171.262C290.579 172.509 290.333 173.744 289.855 174.897C289.378 176.049 288.678 177.096 287.795 177.978C286.913 178.86 285.865 179.559 284.712 180.035C283.56 180.512 282.324 180.757 281.077 180.756Z" fill="#779E1C"/>
<g opacity="0.2">
<path d="M179.873 161.76L191.476 180.756H199.681L187.616 161.76H179.873Z" fill="white"/>
</g>
<g opacity="0.2">
<path d="M162.316 161.76L173.919 180.756H182.124L170.06 161.76H162.316Z" fill="white"/>
</g>
<g opacity="0.2">
<path d="M196.855 161.76L208.45 180.756H216.663L204.599 161.76H196.855Z" fill="white"/>
</g>
<g opacity="0.2">
<path d="M213.838 161.76L225.433 180.756H233.646L221.581 161.76H213.838Z" fill="white"/>
</g>
<g opacity="0.2">
<path d="M230.812 161.76L242.415 180.756H250.62L238.556 161.76H230.812Z" fill="white"/>
</g>
<g opacity="0.2">
<path d="M247.795 161.76L259.39 180.756H267.603L255.538 161.76H247.795Z" fill="white"/>
</g>
<g opacity="0.2">
<path d="M264.777 161.76L276.372 180.756H284.585L272.521 161.76H264.777Z" fill="white"/>
</g>
<g opacity="0.2">
<path d="M281.752 161.76L293.355 180.756H301.56L289.495 161.76H281.752Z" fill="white"/>
</g>
</g>
<path d="M231.57 198.955C233.584 198.955 234.754 199.958 234.754 201.693C234.754 203.428 233.6 204.558 231.57 204.558H229.724V206.945H228.371V198.955H231.57ZM229.724 203.348H231.515C232.748 203.348 233.448 202.815 233.448 201.756C233.448 200.698 232.748 200.165 231.515 200.165H229.724V203.348Z" fill="#779E1C"/>
<path d="M236.289 206.976V198.461H237.61V206.976H236.289Z" fill="#779E1C"/>
<path d="M245.203 204.432H240.603C240.68 204.871 240.913 205.268 241.26 205.549C241.607 205.83 242.043 205.976 242.489 205.96C242.809 205.962 243.126 205.899 243.422 205.776C243.717 205.653 243.984 205.472 244.208 205.243L244.909 205.991C244.584 206.331 244.192 206.598 243.757 206.775C243.322 206.952 242.855 207.035 242.386 207.018C241.973 207.046 241.559 206.985 241.171 206.841C240.783 206.696 240.43 206.471 240.136 206.18C239.841 205.889 239.612 205.538 239.464 205.152C239.315 204.765 239.251 204.352 239.274 203.938C239.254 203.527 239.32 203.117 239.467 202.733C239.614 202.348 239.84 201.999 240.13 201.707C240.419 201.415 240.767 201.187 241.15 201.037C241.533 200.886 241.943 200.817 242.354 200.835C244.535 200.851 245.33 202.235 245.203 204.432ZM244.057 203.469C244.058 203.251 244.013 203.035 243.927 202.835C243.84 202.635 243.714 202.454 243.555 202.305C243.396 202.156 243.208 202.041 243.003 201.967C242.798 201.894 242.58 201.863 242.362 201.877C241.917 201.861 241.483 202.018 241.151 202.315C240.819 202.611 240.614 203.025 240.579 203.469H244.057Z" fill="#779E1C"/>
<path d="M250.463 206.229C250.21 206.507 249.897 206.723 249.548 206.861C249.199 206.999 248.823 207.055 248.449 207.025C248.182 207.055 247.911 207.029 247.654 206.947C247.397 206.866 247.16 206.732 246.958 206.554C246.756 206.375 246.594 206.156 246.483 205.911C246.371 205.666 246.311 205.4 246.309 205.131C246.309 204.025 247.104 203.316 248.608 203.301H250.447V203.118C250.447 202.322 249.961 201.892 248.998 201.892C248.35 201.911 247.722 202.127 247.2 202.513L246.659 201.598C247.428 201.061 248.347 200.783 249.285 200.802C250.877 200.802 251.736 201.598 251.744 202.942V206.922H250.455L250.463 206.229ZM250.463 204.836V204.271H248.815C247.956 204.271 247.558 204.502 247.558 205.067C247.558 205.632 248.004 205.975 248.736 205.975C249.659 205.99 250.383 205.497 250.447 204.829L250.463 204.836Z" fill="#779E1C"/>
<path d="M257.705 201.447L257.219 202.418C256.694 202.087 256.09 201.9 255.469 201.877C254.959 201.877 254.577 202.052 254.577 202.489C254.577 203.612 257.816 202.999 257.808 205.211C257.808 206.461 256.694 207.018 255.469 207.018C254.578 207.033 253.71 206.735 253.018 206.174L253.487 205.235C254.063 205.707 254.78 205.973 255.524 205.991C256.089 205.991 256.527 205.792 256.527 205.339C256.527 204.089 253.344 204.789 253.344 202.585C253.344 201.351 254.418 200.826 255.588 200.826C256.339 200.822 257.075 201.038 257.705 201.447Z" fill="#779E1C"/>
<path d="M264.723 204.431H260.123C260.201 204.87 260.435 205.266 260.781 205.547C261.127 205.827 261.563 205.974 262.009 205.959C262.329 205.961 262.646 205.899 262.941 205.776C263.236 205.653 263.504 205.471 263.728 205.243L264.428 205.991C264.104 206.331 263.712 206.598 263.277 206.775C262.842 206.952 262.375 207.035 261.905 207.018C261.492 207.045 261.078 206.985 260.69 206.841C260.302 206.696 259.949 206.471 259.655 206.179C259.361 205.888 259.132 205.538 258.983 205.151C258.835 204.765 258.77 204.351 258.794 203.938C258.775 203.527 258.841 203.117 258.989 202.734C259.137 202.35 259.362 202.001 259.652 201.71C259.941 201.418 260.288 201.189 260.671 201.039C261.053 200.888 261.463 200.818 261.874 200.834C264.014 200.85 264.882 202.235 264.723 204.431ZM263.577 203.468C263.577 203.251 263.533 203.036 263.447 202.836C263.361 202.637 263.235 202.457 263.077 202.308C262.919 202.159 262.732 202.043 262.528 201.969C262.324 201.895 262.106 201.864 261.889 201.877C261.444 201.861 261.009 202.017 260.675 202.314C260.342 202.61 260.135 203.024 260.099 203.468H263.577Z" fill="#779E1C"/>
<path d="M276.463 206.977L274.561 200.722L272.635 206.977H271.234L268.584 198.955H270.001L271.95 205.473L273.884 198.971H275.213L277.163 205.489L279.097 198.971H280.489L277.815 206.993L276.463 206.977Z" fill="#779E1C"/>
<path d="M284.73 206.229C284.478 206.507 284.165 206.723 283.816 206.861C283.467 206.999 283.091 207.055 282.717 207.025C282.449 207.055 282.178 207.028 281.921 206.947C281.664 206.866 281.428 206.732 281.226 206.553C281.024 206.375 280.862 206.156 280.75 205.911C280.638 205.666 280.579 205.4 280.576 205.131C280.576 204.025 281.372 203.316 282.876 203.3H284.722V203.117C284.722 202.322 284.229 201.892 283.266 201.892C282.617 201.911 281.99 202.127 281.467 202.513L280.926 201.597C281.696 201.062 282.615 200.784 283.553 200.802C285.144 200.802 286.004 201.597 286.012 202.942V206.921H284.714L284.73 206.229ZM284.73 204.836V204.271H283.083C282.224 204.271 281.818 204.502 281.818 205.067C281.818 205.632 282.263 205.974 282.995 205.974C283.927 205.99 284.651 205.497 284.722 204.828L284.73 204.836Z" fill="#779E1C"/>
<path d="M289.441 199.138C289.441 199.295 289.395 199.449 289.307 199.58C289.22 199.711 289.095 199.813 288.95 199.873C288.805 199.933 288.645 199.949 288.49 199.918C288.336 199.887 288.194 199.812 288.083 199.7C287.971 199.589 287.896 199.447 287.865 199.293C287.834 199.139 287.85 198.978 287.91 198.833C287.97 198.688 288.072 198.563 288.203 198.476C288.334 198.388 288.488 198.342 288.645 198.342C288.856 198.342 289.059 198.426 289.208 198.575C289.357 198.724 289.441 198.927 289.441 199.138ZM288.025 206.976V200.849H289.33V206.945L288.025 206.976Z" fill="#779E1C"/>
<path d="M294.957 206.586C294.505 206.868 293.986 207.022 293.453 207.032C293.219 207.05 292.983 207.016 292.763 206.932C292.544 206.848 292.345 206.717 292.182 206.547C292.019 206.377 291.896 206.174 291.821 205.951C291.747 205.728 291.722 205.491 291.75 205.257V202.074H290.891V201.087H291.75V199.416H293.079V201.087H294.878V202.074H293.079V204.995C293.079 205.623 293.318 205.79 293.732 205.79C294.053 205.774 294.366 205.684 294.647 205.528L294.957 206.586Z" fill="#779E1C"/>
<path d="M302.08 198.461C301.194 199.963 300.727 201.675 300.727 203.419C300.727 205.163 301.194 206.875 302.08 208.377H300.886C299.978 206.882 299.498 205.167 299.498 203.419C299.498 201.67 299.978 199.955 300.886 198.461H302.08Z" fill="#779E1C"/>
<path d="M306.664 203.801V201.899H307.921V203.801H309.091V205.003H307.921V206.976H306.664V205.003H302.836V204.032L305.574 198.986H306.879L304.284 203.833L306.664 203.801Z" fill="#779E1C"/>
<path d="M311.741 200.173V201.899H312.839C314.582 201.899 315.704 202.926 315.704 204.335C315.704 205.966 314.534 207.024 312.736 207.024C311.718 206.998 310.73 206.68 309.887 206.109L310.42 205.011C311.023 205.533 311.787 205.834 312.585 205.863C313.627 205.863 314.256 205.321 314.256 204.414C314.256 203.507 313.627 203.101 312.6 203.101C312.115 203.101 311.009 203.149 310.492 203.205V198.963H315.362V200.18L311.741 200.173Z" fill="#779E1C"/>
<path d="M321.099 201.319C321.099 202.815 320.303 203.707 318.982 203.707C317.661 203.707 316.865 202.799 316.865 201.319C316.865 199.839 317.661 198.932 318.982 198.932C320.303 198.932 321.099 199.831 321.099 201.319ZM317.741 201.319C317.741 202.346 318.186 202.911 318.982 202.911C319.778 202.911 320.232 202.314 320.232 201.319C320.232 200.324 319.77 199.727 318.982 199.727C318.194 199.727 317.749 200.3 317.749 201.319H317.741ZM324.274 198.932H325.532L319.643 206.953H318.377L324.274 198.932ZM327.131 204.582C327.131 206.078 326.335 206.969 325.014 206.969C323.693 206.969 322.897 206.07 322.897 204.582C322.897 203.094 323.693 202.194 325.014 202.194C326.335 202.194 327.131 203.118 327.131 204.606V204.582ZM323.781 204.582C323.781 205.609 324.227 206.174 325.014 206.174C325.802 206.174 326.264 205.585 326.264 204.582C326.264 203.579 325.802 202.99 325.014 202.99C324.227 202.99 323.781 203.587 323.781 204.606V204.582Z" fill="#779E1C"/>
<path d="M330.362 198.461C331.269 199.955 331.75 201.67 331.75 203.419C331.75 205.167 331.269 206.882 330.362 208.377H329.168C330.053 206.875 330.52 205.163 330.52 203.419C330.52 201.675 330.053 199.963 329.168 198.461H330.362Z" fill="#779E1C"/>
<path d="M245.1 139.285H246.437V147.458H251.49V148.62H245.123L245.1 139.285Z" fill="black"/>
<path d="M252.086 143.948C252.048 142.959 252.306 141.981 252.828 141.14C253.349 140.299 254.11 139.632 255.013 139.227C255.916 138.821 256.92 138.695 257.895 138.864C258.87 139.033 259.773 139.489 260.487 140.175C261.201 140.86 261.694 141.743 261.902 142.711C262.111 143.678 262.025 144.686 261.657 145.605C261.289 146.524 260.654 147.311 259.835 147.867C259.016 148.422 258.049 148.72 257.06 148.723C256.416 148.75 255.774 148.646 255.171 148.418C254.569 148.19 254.019 147.843 253.554 147.397C253.089 146.95 252.72 146.415 252.467 145.822C252.215 145.23 252.085 144.592 252.086 143.948ZM260.673 143.948C260.68 143.228 260.474 142.522 260.079 141.919C259.685 141.317 259.12 140.846 258.456 140.565C257.793 140.285 257.061 140.208 256.354 140.345C255.648 140.482 254.997 140.826 254.486 141.334C253.975 141.841 253.627 142.489 253.486 143.195C253.344 143.901 253.416 144.633 253.692 145.299C253.968 145.964 254.435 146.532 255.035 146.93C255.635 147.329 256.339 147.54 257.06 147.537C257.536 147.552 258.011 147.47 258.455 147.296C258.898 147.121 259.302 146.857 259.64 146.521C259.978 146.185 260.244 145.784 260.422 145.341C260.599 144.899 260.685 144.425 260.673 143.948Z" fill="black"/>
<path d="M269.865 146.28H264.899L263.873 148.62H262.504L266.73 139.285H268.051L272.292 148.62H270.892L269.865 146.28ZM269.396 145.214L267.382 140.646L265.369 145.214H269.396Z" fill="black"/>
<path d="M273.676 139.285H277.607C280.607 139.285 282.645 141.179 282.645 143.949C282.645 146.718 280.607 148.62 277.607 148.62H273.676V139.285ZM277.528 147.458C279.835 147.458 281.316 146.042 281.316 143.949C281.316 141.856 279.835 140.447 277.528 140.447H275.005V147.458H277.528Z" fill="black"/>
<path d="M284.689 139.285H286.018V148.62H284.689V139.285Z" fill="black"/>
<path d="M296.85 139.285V148.62H295.751L290.181 141.657V148.62H288.844V139.285H289.894L295.465 146.241V139.285H296.85Z" fill="black"/>
<path d="M306.115 143.9H307.404V147.529C306.4 148.323 305.15 148.742 303.871 148.715C302.604 148.715 301.39 148.211 300.494 147.316C299.599 146.421 299.096 145.206 299.096 143.94C299.096 142.673 299.599 141.459 300.494 140.563C301.39 139.668 302.604 139.165 303.871 139.165C304.537 139.135 305.202 139.248 305.821 139.497C306.44 139.745 306.999 140.123 307.46 140.605L306.664 141.401C306.309 141.048 305.887 140.771 305.421 140.586C304.956 140.401 304.458 140.313 303.958 140.327C303.468 140.294 302.976 140.362 302.513 140.527C302.05 140.693 301.626 140.951 301.267 141.287C300.908 141.623 300.622 142.028 300.427 142.479C300.231 142.93 300.13 143.416 300.13 143.908C300.13 144.399 300.231 144.885 300.427 145.336C300.622 145.787 300.908 146.193 301.267 146.529C301.626 146.865 302.05 147.123 302.513 147.288C302.976 147.453 303.468 147.522 303.958 147.489C304.73 147.507 305.491 147.299 306.147 146.892L306.115 143.9Z" fill="black"/>
<path d="M309.289 147.775C309.287 147.655 309.309 147.536 309.354 147.425C309.399 147.314 309.465 147.213 309.55 147.128C309.635 147.044 309.736 146.977 309.847 146.932C309.958 146.887 310.077 146.865 310.196 146.867C310.314 146.867 310.431 146.891 310.539 146.937C310.647 146.983 310.745 147.05 310.827 147.135C310.909 147.22 310.972 147.32 311.015 147.43C311.057 147.54 311.076 147.657 311.072 147.775C311.076 147.893 311.057 148.011 311.015 148.122C310.973 148.233 310.909 148.334 310.828 148.42C310.746 148.506 310.649 148.575 310.54 148.622C310.432 148.67 310.315 148.696 310.196 148.698C310.076 148.698 309.957 148.674 309.846 148.627C309.734 148.581 309.634 148.512 309.549 148.426C309.465 148.34 309.398 148.239 309.354 148.127C309.309 148.015 309.287 147.895 309.289 147.775Z" fill="black"/>
<path d="M312.313 147.775C312.31 147.655 312.332 147.536 312.377 147.425C312.422 147.314 312.489 147.213 312.574 147.128C312.658 147.044 312.759 146.977 312.87 146.932C312.981 146.887 313.1 146.865 313.22 146.867C313.338 146.867 313.455 146.891 313.564 146.937C313.672 146.983 313.771 147.05 313.853 147.134C313.935 147.219 314 147.319 314.043 147.429C314.086 147.539 314.106 147.657 314.103 147.775C314.106 147.893 314.086 148.012 314.043 148.122C314 148.233 313.936 148.334 313.854 148.42C313.772 148.506 313.674 148.575 313.565 148.622C313.456 148.67 313.339 148.696 313.22 148.698C313.099 148.698 312.98 148.674 312.869 148.627C312.758 148.581 312.657 148.512 312.573 148.426C312.488 148.34 312.422 148.239 312.377 148.127C312.332 148.015 312.311 147.895 312.313 147.775Z" fill="black"/>
<path d="M315.361 147.775C315.359 147.655 315.381 147.536 315.426 147.425C315.471 147.314 315.538 147.213 315.622 147.128C315.707 147.044 315.808 146.977 315.919 146.932C316.03 146.887 316.149 146.865 316.269 146.867C316.387 146.866 316.504 146.889 316.614 146.935C316.723 146.98 316.822 147.047 316.904 147.132C316.987 147.217 317.052 147.317 317.094 147.428C317.137 147.538 317.156 147.656 317.152 147.775C317.156 147.894 317.137 148.012 317.094 148.124C317.052 148.235 316.988 148.337 316.905 148.423C316.823 148.509 316.724 148.577 316.615 148.625C316.506 148.672 316.388 148.697 316.269 148.698C316.148 148.698 316.029 148.674 315.918 148.627C315.807 148.581 315.706 148.512 315.622 148.426C315.537 148.34 315.471 148.239 315.426 148.127C315.381 148.015 315.359 147.895 315.361 147.775Z" fill="black"/>
<path d="M215.121 299.951L245.012 299.632L242.648 288.937L215.933 286.955L215.121 299.951Z" fill="#B78876"/>
<path d="M230.209 286.596L244.056 287.503C244.056 287.503 249.627 273.736 252.205 273.656L251.41 300.563L229.779 300.03L230.209 286.596Z" fill="#779E1C"/>
<path d="M242.641 295.789C242.712 296.051 242.878 296.277 243.106 296.424C243.333 296.57 243.607 296.628 243.875 296.585C244.137 296.524 244.366 296.364 244.514 296.139C244.663 295.914 244.718 295.641 244.671 295.375C244.589 295.105 244.411 294.875 244.17 294.728C243.929 294.581 243.643 294.528 243.365 294.58C243.097 294.671 242.874 294.863 242.745 295.116C242.615 295.368 242.59 295.661 242.673 295.932" fill="#E0E0E0"/>
<path d="M251.403 300.564L249.223 300.429L250.814 274.676C250.814 274.676 251.371 273.498 252.215 273.657L251.403 300.564Z" fill="#E0E0E0"/>
<path d="M243.93 287.067C244.065 287.067 244.105 287.728 244.503 288.388C244.901 289.049 245.45 289.407 245.395 289.526C245.339 289.646 244.599 289.431 244.113 288.627C243.628 287.823 243.811 287.036 243.93 287.067Z" fill="#263238"/>
<path d="M245.18 284.271C245.307 284.271 245.514 284.821 246.055 285.282C246.596 285.744 247.185 285.895 247.177 286.022C247.169 286.15 246.421 286.221 245.761 285.632C245.1 285.043 245.06 284.271 245.18 284.271Z" fill="#263238"/>
<path d="M248.609 282.77C248.609 282.897 247.972 283.056 247.256 282.698C246.539 282.34 246.285 281.719 246.396 281.663C246.508 281.608 246.874 282.006 247.463 282.292C248.051 282.579 248.601 282.642 248.609 282.77Z" fill="#263238"/>
<path d="M240.754 287.209C240.865 287.265 240.666 287.861 240.698 288.602C240.73 289.342 240.945 289.939 240.826 290.002C240.706 290.066 240.26 289.493 240.245 288.617C240.229 287.742 240.65 287.137 240.754 287.209Z" fill="#263238"/>
<path d="M237.954 287.072C238.06 287.517 238.044 287.982 237.906 288.417C237.809 288.902 237.651 289.372 237.436 289.818C237.305 290.091 237.159 290.356 236.999 290.614C236.912 290.761 236.802 290.893 236.672 291.004C236.577 291.087 236.456 291.136 236.329 291.143C236.202 291.15 236.077 291.115 235.972 291.043C235.882 290.976 235.809 290.888 235.759 290.787C235.71 290.686 235.684 290.575 235.686 290.462C235.69 290.292 235.72 290.123 235.773 289.961C235.852 289.687 235.956 289.42 236.083 289.165C236.301 288.714 236.588 288.301 236.935 287.94C237.532 287.335 238.033 287.144 238.057 287.184C238.081 287.223 237.675 287.534 237.182 288.155C236.892 288.517 236.651 288.915 236.465 289.34C236.357 289.598 236.27 289.864 236.203 290.136C236.123 290.423 236.115 290.661 236.203 290.741C236.29 290.821 236.274 290.741 236.354 290.741C236.448 290.653 236.53 290.554 236.601 290.447C236.756 290.222 236.897 289.988 237.023 289.746C237.243 289.334 237.424 288.903 237.564 288.457C237.658 287.986 237.788 287.523 237.954 287.072Z" fill="#263238"/>
<path d="M238.167 287.25C237.776 287.495 237.315 287.607 236.854 287.568C236.356 287.577 235.861 287.499 235.39 287.337C235.112 287.244 234.845 287.122 234.594 286.971C234.418 286.895 234.266 286.774 234.151 286.62C234.037 286.467 233.964 286.286 233.941 286.096C233.948 285.976 233.988 285.86 234.057 285.762C234.126 285.663 234.221 285.586 234.331 285.539C234.492 285.476 234.661 285.435 234.833 285.419C235.237 285.37 235.647 285.401 236.04 285.512C236.432 285.622 236.798 285.81 237.117 286.064C237.793 286.605 237.913 287.162 237.913 287.17C237.913 287.178 237.61 286.749 236.95 286.327C236.57 286.08 236.141 285.92 235.692 285.857C235.428 285.819 235.16 285.819 234.896 285.857C234.602 285.857 234.371 285.985 234.395 286.096C234.419 286.207 234.602 286.462 234.825 286.581C235.054 286.722 235.296 286.839 235.549 286.932C235.978 287.095 236.428 287.197 236.886 287.234C237.626 287.306 238.119 287.178 238.167 287.25Z" fill="#263238"/>
<path d="M29.2823 291.57L26.9983 300.324L1.37305 300.093C1.37305 300.093 4.88259 297.443 17.7509 297.634L19.0003 291.57H29.2823Z" fill="#B78876"/>
<path d="M55.513 172.994C54.7559 171.552 54.1402 170.041 53.6746 168.481C53.2074 166.924 53.2074 165.264 53.6746 163.706C53.9269 162.929 54.3643 162.224 54.9493 161.653C55.5344 161.082 56.2494 160.661 57.033 160.428C58.0039 160.189 59.0623 160.3 59.9854 159.902C61.0598 159.449 61.7362 158.406 62.54 157.571C63.8233 156.255 65.4989 155.393 67.3149 155.112C68.2538 154.927 69.2259 155.015 70.1162 155.366C70.5592 155.548 70.9491 155.839 71.2497 156.212C71.5502 156.585 71.7516 157.027 71.8351 157.499C72.9093 157.023 74.0409 156.688 75.2014 156.504C76.3741 156.327 77.5699 156.612 78.5359 157.3C79.0037 157.658 79.3449 158.156 79.5096 158.722C79.6742 159.287 79.6537 159.891 79.4511 160.444C79.9351 160.172 80.503 160.089 81.0443 160.213C81.5856 160.336 82.0616 160.657 82.3797 161.112C82.6818 161.578 82.8426 162.121 82.8426 162.676C82.8426 163.231 82.6818 163.774 82.3797 164.24C81.6096 165.263 80.5012 165.979 79.2521 166.261C78.131 166.537 76.9629 166.565 75.8301 166.341" fill="#263238"/>
<path d="M68.1746 207.547C70.3828 207.276 72.394 206.142 73.7689 204.393C75.1437 202.644 75.7704 200.421 75.512 198.212C75.2096 195.641 74.947 193.5 74.947 193.5C74.947 193.5 81.4249 192.148 81.1702 185.614C80.9156 179.08 79.0295 164.127 79.0295 164.127C75.2358 162.719 71.1352 162.35 67.1509 163.056C63.1667 163.763 59.4432 165.52 56.3647 168.146L55.4336 168.942L58.7681 200.05C58.8824 201.164 59.218 202.245 59.7552 203.228C60.2923 204.211 61.0202 205.077 61.8962 205.775C62.7723 206.473 63.7788 206.989 64.8568 207.293C65.9349 207.598 67.0628 207.684 68.1746 207.547Z" fill="#B78876"/>
<path d="M74.9471 193.408C71.9353 193.615 68.9299 192.922 66.3125 191.418C66.3125 191.418 68.5647 196.018 75.0665 195.095L74.9471 193.408Z" fill="#AA6550"/>
<path d="M56.5873 175.682C56.4679 175.643 52.0272 174.584 52.4013 179.041C52.7753 183.497 57.1762 182.224 57.1762 182.081C57.1762 181.937 56.5873 175.682 56.5873 175.682Z" fill="#B78876"/>
<path d="M55.6645 180.504C55.6645 180.504 55.5929 180.568 55.4655 180.64C55.2859 180.731 55.0783 180.751 54.8846 180.695C54.5809 180.538 54.3249 180.302 54.143 180.013C53.9611 179.723 53.8599 179.39 53.85 179.048C53.8089 178.667 53.8524 178.281 53.9774 177.918C54.008 177.776 54.0724 177.643 54.1652 177.531C54.258 177.418 54.3765 177.33 54.5106 177.273C54.5982 177.244 54.6933 177.245 54.7801 177.277C54.867 177.309 54.9403 177.369 54.9881 177.449C55.0597 177.568 55.0358 177.655 55.0597 177.663C55.0836 177.671 55.1552 177.584 55.0597 177.401C55.0273 177.292 54.9566 177.199 54.8607 177.138C54.7968 177.096 54.7251 177.068 54.6499 177.054C54.5747 177.04 54.4976 177.042 54.423 177.059C54.2354 177.103 54.0628 177.196 53.923 177.329C53.7832 177.462 53.6812 177.629 53.6272 177.815C53.4726 178.217 53.4153 178.651 53.4601 179.08C53.4714 179.479 53.6006 179.866 53.8314 180.192C54.0623 180.517 54.3845 180.767 54.7573 180.91C54.8795 180.938 55.0067 180.937 55.1284 180.907C55.2501 180.876 55.3629 180.818 55.4576 180.735C55.6645 180.616 55.6804 180.512 55.6645 180.504Z" fill="#AA6550"/>
<path d="M77.526 174.919C77.5374 175.161 77.4555 175.398 77.2971 175.582C77.1386 175.765 76.9158 175.881 76.6745 175.905C76.5563 175.92 76.4364 175.911 76.3218 175.878C76.2071 175.846 76.1001 175.791 76.0068 175.717C75.9135 175.643 75.8359 175.551 75.7783 175.447C75.7208 175.343 75.6846 175.228 75.6718 175.11C75.6564 174.866 75.7369 174.627 75.8961 174.442C76.0553 174.258 76.2805 174.143 76.5233 174.123C76.6417 174.107 76.762 174.116 76.8771 174.148C76.9922 174.179 77.0996 174.234 77.1932 174.308C77.2867 174.383 77.3644 174.475 77.4215 174.58C77.4787 174.685 77.5143 174.8 77.526 174.919Z" fill="#263238"/>
<path d="M78.257 173.391C78.1535 173.518 77.4134 173.033 76.4107 173.088C75.408 173.144 74.6997 173.677 74.5883 173.558C74.4768 173.438 74.636 173.287 74.9464 173.033C75.3656 172.71 75.8741 172.523 76.4027 172.499C76.9232 172.473 77.4388 172.612 77.875 172.897C78.2092 173.12 78.3127 173.335 78.257 173.391Z" fill="#263238"/>
<path d="M67.966 175.381C67.9774 175.623 67.8954 175.86 67.737 176.044C67.5786 176.227 67.3558 176.343 67.1145 176.367C66.9963 176.382 66.8764 176.373 66.7617 176.34C66.6471 176.308 66.54 176.253 66.4468 176.179C66.3535 176.105 66.2758 176.013 66.2183 175.909C66.1608 175.805 66.1246 175.69 66.1118 175.572C66.0942 175.328 66.174 175.087 66.3336 174.902C66.4932 174.717 66.7197 174.603 66.9633 174.585C67.0815 174.57 67.2014 174.58 67.316 174.612C67.4307 174.644 67.5377 174.699 67.631 174.773C67.7243 174.847 67.8019 174.939 67.8595 175.043C67.917 175.147 67.9532 175.262 67.966 175.381Z" fill="#263238"/>
<path d="M68.4036 174.083C68.2922 174.21 67.56 173.717 66.5573 173.773C65.5546 173.828 64.8383 174.369 64.7269 174.25C64.6155 174.131 64.7747 173.972 65.0851 173.725C65.5033 173.4 66.0123 173.214 66.5414 173.192C67.0648 173.161 67.5841 173.301 68.0216 173.59C68.3399 173.789 68.4593 174.019 68.4036 174.083Z" fill="#263238"/>
<path d="M72.4229 181.342C72.9345 181.146 73.4695 181.017 74.0145 180.96C74.2691 180.92 74.5079 180.857 74.5397 180.682C74.5542 180.416 74.4815 180.154 74.3328 179.933C74.0622 179.321 73.7757 178.684 73.4733 178.016C72.6853 176.4 72.0306 174.724 71.5156 173.002C72.4409 174.55 73.2393 176.171 73.9031 177.848L74.6989 179.774C74.876 180.077 74.9409 180.432 74.8819 180.777C74.8506 180.869 74.7983 180.951 74.7292 181.019C74.6601 181.087 74.5761 181.137 74.484 181.167C74.3453 181.215 74.2008 181.245 74.0543 181.255C73.5159 181.349 72.9682 181.378 72.4229 181.342Z" fill="#263238"/>
<path d="M69.5033 182.184C69.6704 182.184 69.7261 183.25 70.697 183.982C71.6679 184.714 72.8218 184.523 72.8377 184.675C72.8537 184.826 72.591 184.905 72.0976 184.937C71.4606 184.984 70.8281 184.8 70.315 184.42C69.8218 184.054 69.4883 183.513 69.3839 182.908C69.3202 182.454 69.4555 182.176 69.5033 182.184Z" fill="#263238"/>
<path d="M77.8039 171.641C77.6368 171.879 76.9365 171.68 76.1009 171.712C75.2653 171.744 74.5729 171.943 74.3978 171.712C74.3183 171.601 74.3978 171.362 74.7162 171.131C75.113 170.847 75.5888 170.694 76.077 170.693C76.5683 170.673 77.0535 170.809 77.4617 171.083C77.7641 171.298 77.8756 171.529 77.8039 171.641Z" fill="#263238"/>
<path d="M66.9163 170.519C66.8048 170.646 66.5502 170.614 66.208 170.558C65.7948 170.493 65.3769 170.461 64.9586 170.463C64.5414 170.475 64.1261 170.523 63.7171 170.606C63.3828 170.67 63.1282 170.71 63.0168 170.606C62.9054 170.503 63.0168 170.2 63.3271 169.89C63.7738 169.517 64.3368 169.311 64.9188 169.309C65.4935 169.299 66.0546 169.484 66.5104 169.834C66.9242 170.113 67.0118 170.399 66.9163 170.519Z" fill="#263238"/>
<path d="M79.4586 166.133C76.3556 167.144 73.0118 167.144 69.9088 166.133C66.4629 165.019 62.6112 164.804 61.8791 165.576C61.1469 166.348 61.4891 169.675 58.457 171.147C58.457 171.147 59.6428 177.418 57.0962 177.577C54.5496 177.736 54.6292 167.733 54.6292 167.733L60.3193 163.794L66.829 161.51L73.108 160.547L79.2278 161.454L79.4586 166.133Z" fill="#263238"/>
<path d="M89.0489 206.839L108.658 225.19L139.695 204.006L149.388 215.147L119.576 239.022C116.586 241.689 112.765 243.241 108.761 243.415C106.054 243.532 103.357 243.013 100.886 241.901C98.4153 240.788 96.2392 239.113 94.5321 237.008L84.0273 228.143L89.0489 206.839Z" fill="#779E1C"/>
<path d="M70.8311 198.953L89.0473 206.84L88.4425 211.885L96.9179 245.5L106.133 252.225L98.5015 263.438C96.7829 265.953 94.537 268.063 91.9202 269.621L73.7517 280.429C72.0466 281.051 70.169 281.003 68.4981 280.293C66.8274 279.584 65.4881 278.267 64.751 276.609L48.6836 240.152L32.5365 290.233C32.0308 291.804 30.9855 293.145 29.5858 294.019C28.186 294.893 26.522 295.243 24.8887 295.008L18.5222 294.077C18.0093 294.002 17.518 293.819 17.0801 293.542C16.6422 293.265 16.2674 292.898 15.9801 292.467C15.6927 292.036 15.4992 291.549 15.412 291.038C15.3249 290.527 15.3461 290.003 15.4742 289.501L33.5312 219.294C34.4814 215.647 36.0304 212.183 38.1151 209.044C40.0561 206.149 42.6636 203.762 45.7184 202.084C48.7733 200.405 52.1863 199.485 55.6708 199.399L70.8311 198.953Z" fill="#779E1C"/>
<path d="M77.2134 199.479L76.5369 195.826L57.2305 194.529V199.384C57.3658 200.768 59.6179 200.355 61.7189 201.222L71.1731 203.108C73.481 203.291 78.3991 202.44 77.2134 199.479Z" fill="#779E1C"/>
<path d="M97.1098 245.659C96.9093 245.246 96.7417 244.817 96.6084 244.378C96.314 243.582 95.9081 242.341 95.4227 240.829C94.4597 237.82 93.2182 233.666 92.0245 228.971C90.8308 224.276 89.8917 220.026 89.2869 216.93C88.9845 215.378 88.7617 214.121 88.6184 213.246C88.5191 212.798 88.4605 212.343 88.4434 211.885C88.5859 212.319 88.6976 212.763 88.7776 213.214C88.9845 214.145 89.2551 215.378 89.5734 216.867C90.2499 219.954 91.2287 224.204 92.4224 228.867C93.6162 233.531 94.8099 237.717 95.7092 240.749C96.1389 242.213 96.505 243.415 96.7676 244.33C96.9141 244.764 97.0285 245.208 97.1098 245.659Z" fill="#263238"/>
<path d="M54.5178 223.545C54.3201 224.4 54.054 225.239 53.722 226.052C53.149 227.691 52.4328 229.752 51.6369 232.02C50.8411 234.288 50.1249 236.35 49.5519 237.989C49.3013 238.828 48.9956 239.649 48.6367 240.448C48.7688 239.581 48.9819 238.729 49.2734 237.901C49.7349 236.31 50.4273 234.217 51.247 231.885C52.0667 229.553 52.8386 227.46 53.4434 225.948C53.733 225.118 54.0925 224.314 54.5178 223.545Z" fill="#263238"/>
<g opacity="0.2">
<path d="M48.6191 240.233C50.1736 243.75 51.7202 247.268 53.2587 250.785C53.4745 251.366 53.7895 251.904 54.1898 252.377C54.3941 252.614 54.6554 252.796 54.9492 252.904C55.2429 253.013 55.5595 253.045 55.869 252.998C57.015 252.735 57.3015 251.263 57.3413 250.093C57.6118 242.397 57.3413 234.519 54.6594 227.293C54.4684 226.768 54.1103 226.147 53.5532 226.219C52.9961 226.29 52.821 226.855 52.6858 227.333L48.9136 240.862" fill="black"/>
</g>
<g opacity="0.2">
<path d="M98.7174 240.957C99.0255 240.765 99.2762 240.494 99.4429 240.172C99.6096 239.85 99.6861 239.488 99.6644 239.126C99.609 238.403 99.4145 237.698 99.0915 237.049C96.9838 232.13 94.1482 227.556 90.6797 223.48L94.4916 237.009L98.7174 240.957Z" fill="black"/>
</g>
<path d="M38.4741 234.892C38.4264 234.892 38.6174 230.292 38.9038 224.618C39.1903 218.943 39.445 214.352 39.4928 214.352C39.5405 214.352 39.3495 218.959 39.071 224.626C38.7924 230.292 38.5219 234.899 38.4741 234.892Z" fill="#E0E0E0"/>
<path d="M42.0541 218.943C42.0913 219.064 42.1074 219.191 42.1018 219.317C42.1213 219.665 42.1213 220.013 42.1018 220.36C41.9778 222.672 41.1843 224.897 39.8178 226.766C39.6142 227.045 39.3936 227.311 39.1573 227.562C39.0766 227.659 38.9859 227.747 38.8867 227.825C38.8867 227.825 39.2289 227.403 39.6825 226.687C40.9768 224.797 41.7583 222.603 41.9506 220.32C42.0541 219.485 42.0302 218.943 42.0541 218.943Z" fill="#E0E0E0"/>
<path d="M35.5449 219.58C35.5449 219.58 35.6165 220.058 35.7598 220.806C35.958 221.788 36.2621 222.746 36.667 223.663C37.078 224.572 37.5906 225.431 38.1949 226.225C38.6645 226.838 38.9908 227.18 38.9908 227.204C38.8975 227.14 38.812 227.065 38.7361 226.981C38.5185 226.765 38.3139 226.537 38.1233 226.297C37.4824 225.513 36.9473 224.649 36.5317 223.726C36.1146 222.804 35.8229 221.829 35.6643 220.829C35.6113 220.529 35.5768 220.227 35.5608 219.922C35.545 219.809 35.5397 219.694 35.5449 219.58Z" fill="#E0E0E0"/>
<path d="M41.2364 216.223C41.2485 216.323 41.2485 216.425 41.2364 216.525C41.253 216.79 41.253 217.056 41.2364 217.321C41.158 218.212 40.9873 219.092 40.7271 219.947C40.4709 220.809 40.1241 221.641 39.6926 222.43C39.5687 222.671 39.4305 222.905 39.2787 223.13C39.2282 223.217 39.1667 223.298 39.0957 223.369C39.0957 223.369 39.2867 222.987 39.5891 222.374C39.9804 221.593 40.3077 220.781 40.568 219.947C40.8155 219.092 40.9965 218.22 41.1091 217.337C41.1318 216.963 41.1743 216.592 41.2364 216.223Z" fill="#E0E0E0"/>
<path d="M37.0334 216.764C37.0334 216.764 37.0334 217.249 37.0334 218.037C37.0578 219.055 37.1857 220.069 37.4154 221.061C37.6538 222.047 37.9897 223.007 38.4181 223.926C38.7523 224.634 38.999 225.056 38.9752 225.072C38.9008 224.985 38.8342 224.892 38.7762 224.793C38.6568 224.602 38.4977 224.332 38.3146 223.998C37.8528 223.076 37.5003 222.104 37.2642 221.101C37.0329 220.099 36.9181 219.073 36.922 218.045C36.9228 217.734 36.9414 217.423 36.9777 217.114C36.9774 216.995 36.9962 216.877 37.0334 216.764Z" fill="#E0E0E0"/>
<path d="M38.3636 215.26C38.3636 215.26 38.2919 215.546 38.2362 216.008C38.174 216.606 38.2062 217.21 38.3317 217.798C38.658 219.175 39.1275 220.242 39.1275 220.265C38.9917 220.049 38.8772 219.82 38.7853 219.581C38.5344 219.018 38.3398 218.432 38.2044 217.83C38.0672 217.224 38.051 216.597 38.1566 215.984C38.176 215.731 38.2464 215.485 38.3636 215.26Z" fill="#E0E0E0"/>
<path d="M35.9102 225.691C35.9579 225.691 36.4195 226.559 37.1835 227.514C37.9474 228.469 38.7114 229.105 38.6796 229.169C38.4838 229.066 38.3041 228.934 38.1464 228.779C37.3581 228.07 36.6914 227.237 36.1728 226.312C36.055 226.119 35.9665 225.91 35.9102 225.691Z" fill="#E0E0E0"/>
<path d="M42.1348 226.75C42.0271 226.974 41.8907 227.182 41.729 227.371C41.3664 227.85 40.9757 228.307 40.5591 228.74C40.1382 229.172 39.6889 229.576 39.2142 229.949C39.0294 230.115 38.8265 230.259 38.6094 230.379C38.7672 230.187 38.9461 230.014 39.1426 229.862C39.4768 229.551 39.9384 229.122 40.4238 228.62C40.9093 228.119 41.3231 227.649 41.6255 227.299C41.7768 227.1 41.9474 226.916 42.1348 226.75Z" fill="#E0E0E0"/>
<path d="M24.9604 286.343C24.9127 286.343 25.1037 281.743 25.3902 276.069C25.6767 270.395 25.9313 265.803 25.9791 265.803C26.0268 265.803 25.8358 270.403 25.5493 276.077C25.2629 281.751 25.0082 286.343 24.9604 286.343Z" fill="#E0E0E0"/>
<path d="M28.5413 270.385C28.5577 270.512 28.5577 270.64 28.5413 270.767C28.5656 271.114 28.5656 271.462 28.5413 271.809C28.4172 274.121 27.6237 276.347 26.2573 278.216C26.0542 278.495 25.8336 278.76 25.5967 279.011C25.5173 279.112 25.4265 279.202 25.3262 279.282C25.3262 279.282 25.6684 278.86 26.1618 278.136C26.8041 277.198 27.323 276.182 27.7057 275.112C28.0862 274.041 28.3296 272.926 28.4298 271.793C28.5413 270.934 28.5094 270.385 28.5413 270.385Z" fill="#E0E0E0"/>
<path d="M22.0312 271.029C22.0312 271.029 22.1028 271.499 22.246 272.255C22.6333 274.224 23.4663 276.077 24.6812 277.674C25.1508 278.287 25.477 278.629 25.477 278.645C25.3819 278.584 25.2961 278.509 25.2224 278.422C25.0025 278.212 24.7977 277.986 24.6096 277.746C23.3213 276.173 22.4728 274.286 22.1505 272.279C22.0975 271.976 22.063 271.67 22.0471 271.364C22.0314 271.253 22.0261 271.141 22.0312 271.029Z" fill="#E0E0E0"/>
<path d="M27.7147 267.695C27.7147 267.695 27.7147 267.799 27.7147 267.99C27.7147 268.181 27.7147 268.459 27.7147 268.786C27.5713 270.582 27.0506 272.329 26.1867 273.911C26.0196 274.213 25.8763 274.452 25.7729 274.611C25.7195 274.696 25.6583 274.776 25.5898 274.85C25.5898 274.85 25.7808 274.468 26.0833 273.855C26.475 273.057 26.8023 272.23 27.0621 271.38C27.312 270.529 27.4904 269.658 27.5953 268.778C27.6749 268.093 27.6908 267.695 27.7147 267.695Z" fill="#E0E0E0"/>
<path d="M23.5203 268.221C23.5203 268.221 23.5203 268.706 23.5203 269.486C23.5442 270.504 23.6722 271.518 23.9022 272.51C24.1347 273.503 24.4653 274.471 24.8891 275.399C25.2233 276.107 25.47 276.521 25.4461 276.537C25.4222 276.553 25.3665 276.449 25.2472 276.258C25.0759 276.004 24.9217 275.738 24.7856 275.463C24.3203 274.543 23.9676 273.57 23.7351 272.566C23.5003 271.562 23.3854 270.533 23.3929 269.502C23.3943 269.191 23.4129 268.88 23.4486 268.571C23.4531 268.451 23.4773 268.333 23.5203 268.221Z" fill="#E0E0E0"/>
<path d="M24.8901 266.709C24.8901 266.709 24.8185 266.988 24.7628 267.449C24.6969 268.05 24.7291 268.657 24.8583 269.248C25.1766 270.624 25.6541 271.683 25.6541 271.707C25.513 271.496 25.3981 271.269 25.3119 271.03C25.0622 270.467 24.8677 269.88 24.731 269.279C24.5958 268.673 24.5769 268.047 24.6753 267.433C24.6948 267.179 24.768 266.932 24.8901 266.709Z" fill="#E0E0E0"/>
<path d="M22.3984 277.135C22.4382 277.135 22.9078 278.002 23.6717 278.965C24.4357 279.928 25.1997 280.557 25.1679 280.62C24.9709 280.516 24.7911 280.382 24.6347 280.223C24.2391 279.87 23.8743 279.484 23.5444 279.069C23.2105 278.653 22.9148 278.208 22.6611 277.74C22.5391 277.555 22.4503 277.35 22.3984 277.135Z" fill="#E0E0E0"/>
<path d="M28.6215 278.191C28.5114 278.416 28.3751 278.627 28.2156 278.82C27.8523 279.296 27.4617 279.75 27.0457 280.181C26.6216 280.619 26.1668 281.025 25.6849 281.399C25.5043 281.567 25.3006 281.709 25.0801 281.82C25.2396 281.632 25.4183 281.462 25.6133 281.311C25.9475 281.001 26.4091 280.571 26.8945 280.07C27.38 279.568 27.7938 279.091 28.0883 278.748C28.2472 278.546 28.4258 278.359 28.6215 278.191Z" fill="#E0E0E0"/>
<path d="M54.4058 220.345C54.358 220.345 54.549 215.745 54.8275 210.071C55.1061 204.397 55.3767 199.805 55.4244 199.805C55.4722 199.805 55.2732 204.404 54.9947 210.079C54.7161 215.753 54.4535 220.345 54.4058 220.345Z" fill="#E0E0E0"/>
<path d="M57.9866 204.389C57.9979 204.516 57.9979 204.644 57.9866 204.771C58.0109 205.118 58.0109 205.466 57.9866 205.813C57.8626 208.125 57.069 210.351 55.7026 212.219C55.4971 212.497 55.2766 212.762 55.0421 213.015C54.9626 213.116 54.8718 213.206 54.7715 213.286C54.7715 213.286 55.1137 212.864 55.6071 212.14C56.9032 210.251 57.6824 208.056 57.8672 205.773C57.9786 204.93 57.9547 204.389 57.9866 204.389Z" fill="#E0E0E0"/>
<path d="M51.4774 205.033C51.4774 205.033 51.541 205.503 51.6922 206.259C51.8825 207.24 52.1842 208.195 52.5915 209.108C53.0068 210.019 53.5219 210.881 54.1274 211.678C54.597 212.283 54.9232 212.633 54.9232 212.649C54.8317 212.586 54.7488 212.511 54.6765 212.426C54.4576 212.212 54.2504 211.986 54.0558 211.75C53.415 210.966 52.8798 210.102 52.4642 209.179C52.0497 208.255 51.7555 207.282 51.5888 206.283C51.5331 205.893 51.5012 205.582 51.4933 205.367C51.4673 205.258 51.4619 205.145 51.4774 205.033Z" fill="#E0E0E0"/>
<path d="M57.1602 201.643C57.1602 201.643 57.1602 201.746 57.1602 201.937C57.1602 202.128 57.1602 202.407 57.1602 202.733C57.0837 203.628 56.9157 204.514 56.6588 205.375C56.4072 206.237 56.063 207.07 55.6322 207.858C55.4651 208.16 55.3219 208.399 55.2105 208.558C55.0991 208.717 55.0433 208.797 55.0354 208.789C55.0274 208.781 55.2264 208.415 55.5288 207.802C55.9209 207.006 56.2456 206.178 56.4997 205.327C56.7556 204.477 56.9366 203.606 57.0408 202.725C57.1204 202.096 57.1363 201.643 57.1602 201.643Z" fill="#E0E0E0"/>
<path d="M52.9581 202.217C52.9581 202.217 52.9581 202.71 52.9581 203.49C52.9824 204.508 53.1104 205.522 53.34 206.514C53.5714 207.506 53.9047 208.472 54.3348 209.395C54.6611 210.111 54.9158 210.525 54.8839 210.541C54.8071 210.456 54.7403 210.363 54.685 210.262C54.5197 210.005 54.3683 209.74 54.2314 209.467C53.7626 208.548 53.4098 207.575 53.1809 206.57C52.942 205.566 52.8271 204.537 52.8387 203.506C52.8387 203.116 52.8387 202.798 52.8864 202.575C52.9016 202.454 52.9255 202.334 52.9581 202.217Z" fill="#E0E0E0"/>
<path d="M54.3335 200.711C54.3335 200.711 54.2619 200.989 54.2062 201.451C54.1402 202.052 54.1725 202.659 54.3017 203.25C54.62 204.626 55.0975 205.685 55.0975 205.709C54.9527 205.5 54.8375 205.272 54.7553 205.032C54.5031 204.47 54.3085 203.883 54.1743 203.281C54.0391 202.675 54.0202 202.049 54.1186 201.435C54.1382 201.181 54.2114 200.934 54.3335 200.711Z" fill="#E0E0E0"/>
<path d="M51.8438 211.137C51.8438 211.137 52.3451 212.004 53.1171 212.967C53.889 213.93 54.645 214.559 54.6132 214.622C54.4162 214.518 54.2364 214.384 54.08 214.224C53.2855 213.515 52.618 212.676 52.1064 211.742C51.9858 211.556 51.897 211.352 51.8438 211.137Z" fill="#E0E0E0"/>
<path d="M58.0663 212.195C57.9562 212.42 57.82 212.631 57.6605 212.824C57.2972 213.3 56.9066 213.754 56.4906 214.185C56.0729 214.618 55.6291 215.024 55.1616 215.402C54.9781 215.571 54.7718 215.713 54.5488 215.824C54.7136 215.636 54.8947 215.463 55.09 215.307C55.4242 215.005 55.8858 214.575 56.3712 214.073C56.8567 213.572 57.2705 213.095 57.565 212.744C57.7124 212.544 57.8804 212.36 58.0663 212.195Z" fill="#E0E0E0"/>
<path d="M71.6597 216.651C71.6119 216.651 71.8029 212.044 72.0815 206.377C72.36 200.711 72.6306 196.111 72.6704 196.111C72.7101 196.111 72.5271 200.711 72.2486 206.385C71.97 212.059 71.6995 216.651 71.6597 216.651Z" fill="#E0E0E0"/>
<path d="M75.2411 200.695C75.2525 200.822 75.2525 200.95 75.2411 201.077C75.2411 201.324 75.2411 201.682 75.2411 202.12C75.0981 204.415 74.306 206.623 72.9571 208.486C72.7516 208.763 72.5311 209.029 72.2966 209.282C72.1295 209.465 72.034 209.561 72.0181 209.553C72.0022 209.545 72.3603 209.131 72.8617 208.407C74.1577 206.518 74.9369 204.323 75.1218 202.04C75.2332 201.236 75.2093 200.695 75.2411 200.695Z" fill="#E0E0E0"/>
<path d="M68.73 201.34C68.73 201.34 68.7936 201.809 68.9449 202.565C69.1351 203.546 69.4368 204.502 69.8441 205.414C70.2594 206.325 70.7745 207.188 71.38 207.985C71.8416 208.59 72.1759 208.94 72.1759 208.956C72.0826 208.892 71.9971 208.817 71.9212 208.733C71.77 208.582 71.5551 208.351 71.3084 208.057C70.6721 207.27 70.1373 206.406 69.7168 205.486C69.3044 204.562 69.0128 203.588 68.8494 202.589C68.7936 202.199 68.7539 201.889 68.7459 201.674C68.7218 201.564 68.7164 201.451 68.73 201.34Z" fill="#E0E0E0"/>
<path d="M74.4129 197.981C74.4229 198.078 74.4229 198.177 74.4129 198.275C74.4129 198.466 74.4129 198.745 74.4129 199.071C74.3364 199.966 74.1684 200.852 73.9115 201.713C73.6529 202.573 73.309 203.405 72.8849 204.196C72.758 204.435 72.6172 204.666 72.4632 204.888C72.3597 205.055 72.296 205.135 72.2801 205.127C72.2642 205.119 72.4791 204.753 72.7815 204.14C73.5683 202.545 74.0795 200.829 74.2935 199.063C74.3652 198.402 74.389 197.973 74.4129 197.981Z" fill="#E0E0E0"/>
<path d="M70.2508 198.523C70.2508 198.523 70.2508 199.017 70.2508 199.797C70.2824 200.815 70.413 201.828 70.6407 202.821C70.8721 203.813 71.2054 204.778 71.6355 205.702C71.9618 206.418 72.2085 206.832 72.1846 206.848C72.1078 206.763 72.041 206.669 71.9857 206.569C71.8663 206.386 71.7071 206.108 71.5241 205.773C71.0623 204.852 70.7097 203.88 70.4736 202.877C70.2408 201.872 70.1286 200.844 70.1394 199.813C70.1388 199.502 70.1547 199.191 70.1871 198.882C70.1941 198.76 70.2155 198.64 70.2508 198.523Z" fill="#E0E0E0"/>
<path d="M71.5471 197.02C71.5471 197.02 71.4755 197.298 71.4119 197.76C71.3485 198.361 71.3835 198.968 71.5153 199.558C71.8336 200.935 72.3111 201.993 72.3111 202.017C72.1739 201.804 72.0592 201.578 71.9689 201.341C71.7204 200.777 71.5259 200.191 71.388 199.59C71.2508 198.984 71.2346 198.356 71.3402 197.744C71.3573 197.49 71.4278 197.244 71.5471 197.02Z" fill="#E0E0E0"/>
<path d="M69.0898 207.443C69.1376 207.443 69.5992 208.311 70.3711 209.274C71.143 210.237 71.8911 210.865 71.8593 210.929C71.6657 210.823 71.4887 210.689 71.334 210.531C70.9355 210.179 70.5681 209.793 70.2358 209.377C69.9086 208.959 69.6158 208.514 69.3604 208.048C69.2399 207.862 69.1487 207.658 69.0898 207.443Z" fill="#E0E0E0"/>
<path d="M75.3123 208.504C75.2099 208.733 75.073 208.945 74.9064 209.133C74.5486 209.611 74.1605 210.065 73.7445 210.493C73.3268 210.926 72.883 211.333 72.4155 211.711C72.232 211.88 72.0257 212.022 71.8027 212.133C71.9658 211.946 72.1442 211.773 72.3359 211.616C72.6781 211.313 73.1318 210.883 73.6252 210.382C74.1186 209.881 74.5244 209.403 74.8189 209.053C74.9679 208.857 75.1329 208.673 75.3123 208.504Z" fill="#E0E0E0"/>
<path d="M78.7495 232.759C78.7018 232.759 78.8928 228.151 79.1713 222.485C79.4498 216.819 79.7204 212.219 79.7682 212.219C79.8159 212.219 79.6249 216.819 79.3384 222.493C79.0519 228.167 78.7973 232.759 78.7495 232.759Z" fill="#E0E0E0"/>
<path d="M82.3323 216.803C82.3487 216.93 82.3487 217.058 82.3323 217.185C82.3566 217.532 82.3566 217.88 82.3323 218.227C82.2083 220.539 81.4147 222.765 80.0483 224.634C79.8428 224.911 79.6223 225.176 79.3878 225.429C79.3083 225.53 79.2175 225.62 79.1172 225.7C79.1172 225.7 79.4594 225.278 79.9528 224.554C81.2489 222.665 82.0281 220.471 82.2129 218.187C82.3323 217.344 82.3004 216.803 82.3323 216.803Z" fill="#E0E0E0"/>
<path d="M75.8207 217.447C75.8207 217.447 75.8844 217.917 76.0356 218.673C76.2251 219.655 76.5296 220.611 76.9428 221.522C77.3528 222.434 77.8655 223.296 78.4708 224.092C78.9403 224.697 79.2666 225.047 79.2666 225.063C79.1714 225.002 79.0857 224.927 79.0119 224.84C78.8528 224.689 78.6459 224.458 78.3912 224.164C77.7504 223.381 77.2152 222.516 76.7996 221.593C76.3851 220.669 76.0909 219.696 75.9242 218.697C75.8685 218.307 75.8366 217.996 75.8287 217.782C75.8157 217.671 75.813 217.559 75.8207 217.447Z" fill="#E0E0E0"/>
<path d="M81.504 214.09C81.504 214.09 81.504 214.193 81.504 214.384C81.504 214.575 81.504 214.854 81.504 215.18C81.4267 216.075 81.2615 216.96 81.0106 217.822C80.7531 218.684 80.4064 219.516 79.976 220.305C79.8089 220.608 79.6656 220.846 79.5622 220.998C79.4587 221.149 79.3871 221.244 79.3791 221.236C79.3712 221.228 79.5701 220.862 79.8725 220.25C80.2643 219.452 80.5916 218.624 80.8514 217.775C81.104 216.924 81.285 216.053 81.3925 215.172C81.4642 214.512 81.4801 214.082 81.504 214.09Z" fill="#E0E0E0"/>
<path d="M77.3018 214.631C77.3018 214.631 77.3018 215.124 77.3018 215.904C77.3262 216.923 77.4542 217.936 77.6838 218.928C77.9187 219.919 78.2519 220.884 78.6786 221.809C79.0128 222.525 79.2595 222.939 79.2356 222.955C79.2118 222.971 79.1481 222.86 79.0367 222.677C78.8654 222.422 78.7112 222.156 78.5751 221.881C78.1098 220.961 77.7571 219.988 77.5246 218.984C77.2858 217.98 77.1709 216.952 77.1824 215.92C77.1838 215.609 77.2024 215.298 77.2381 214.989C77.2486 214.868 77.2699 214.748 77.3018 214.631Z" fill="#E0E0E0"/>
<path d="M78.6382 213.127C78.6382 213.127 78.5666 213.405 78.5109 213.867C78.4449 214.468 78.4772 215.075 78.6063 215.666C78.9247 217.042 79.4022 218.101 79.4022 218.125C79.2611 217.914 79.1462 217.687 79.06 217.448C78.8114 216.884 78.6169 216.298 78.479 215.697C78.3438 215.091 78.3249 214.465 78.4233 213.851C78.4429 213.597 78.5161 213.35 78.6382 213.127Z" fill="#E0E0E0"/>
<path d="M76.1875 223.551C76.1875 223.551 76.6889 224.418 77.4608 225.381C78.2327 226.344 78.9888 226.973 78.9569 227.036C78.76 226.932 78.5802 226.798 78.4237 226.639C78.0314 226.294 77.6668 225.919 77.3335 225.516C77.0013 225.1 76.7058 224.655 76.4501 224.187C76.3262 223.992 76.2374 223.777 76.1875 223.551Z" fill="#E0E0E0"/>
<path d="M82.412 224.611C82.3019 224.836 82.1657 225.047 82.0062 225.24C81.6429 225.716 81.2523 226.17 80.8363 226.601C80.4186 227.034 79.9748 227.44 79.5073 227.818C79.3238 227.987 79.1175 228.129 78.8945 228.24C79.062 228.055 79.2428 227.882 79.4357 227.723C79.7699 227.421 80.2315 226.991 80.7169 226.489C81.2024 225.988 81.6162 225.511 81.9107 225.16C82.0608 224.963 82.2286 224.779 82.412 224.611Z" fill="#E0E0E0"/>
<path d="M103.365 239.141C103.317 239.141 101.861 234.788 100.11 229.385C98.3594 223.981 96.9747 219.596 97.0145 219.58C97.0543 219.564 98.5106 223.933 100.269 229.337C102.028 234.74 103.405 239.125 103.365 239.141Z" fill="#E0E0E0"/>
<path d="M101.041 222.953C101.111 223.061 101.169 223.176 101.216 223.295C101.356 223.612 101.478 223.936 101.582 224.266C101.932 225.363 102.123 226.505 102.147 227.656C102.169 228.809 102.027 229.958 101.725 231.07C101.635 231.405 101.526 231.735 101.399 232.057C101.355 232.178 101.302 232.295 101.24 232.407C101.24 232.407 101.407 231.89 101.614 231.039C101.877 229.934 102 228.8 101.98 227.664C101.955 226.528 101.783 225.399 101.471 224.306C101.232 223.462 101.017 222.961 101.041 222.953Z" fill="#E0E0E0"/>
<path d="M95.1836 225.867C95.1836 225.867 95.4144 226.289 95.8202 226.942C96.3517 227.789 96.9763 228.573 97.6825 229.281C98.3882 229.988 99.1733 230.61 100.022 231.135C100.675 231.541 101.104 231.748 101.096 231.772C100.986 231.746 100.879 231.706 100.778 231.653C100.505 231.532 100.239 231.393 99.9824 231.239C99.1108 230.731 98.3083 230.114 97.5949 229.401C96.8774 228.689 96.2566 227.887 95.7486 227.013C95.5973 226.755 95.4592 226.489 95.3348 226.217C95.2681 226.108 95.2172 225.99 95.1836 225.867Z" fill="#E0E0E0"/>
<path d="M99.3056 220.742C99.3621 220.825 99.4051 220.916 99.433 221.013C99.5317 221.273 99.6167 221.539 99.6876 221.809C99.9395 222.67 100.1 223.556 100.165 224.451C100.229 225.345 100.202 226.244 100.086 227.133C100.038 227.475 99.9821 227.753 99.9423 227.928C99.9243 228.027 99.895 228.123 99.8548 228.215C99.8548 228.215 99.9025 227.793 99.9662 227.117C100.037 226.229 100.037 225.338 99.9662 224.451C99.8987 223.568 99.7576 222.692 99.5444 221.832C99.4091 221.116 99.2818 220.742 99.3056 220.742Z" fill="#E0E0E0"/>
<path d="M95.5723 222.717C95.5723 222.717 95.7394 223.17 96.0338 223.895C96.7999 225.792 97.9547 227.508 99.424 228.932C99.9811 229.473 100.363 229.776 100.347 229.8C100.243 229.75 100.146 229.686 100.061 229.609C99.8066 229.425 99.5647 229.226 99.3365 229.012C97.8151 227.614 96.6453 225.877 95.9224 223.942C95.7871 223.568 95.6916 223.266 95.6359 223.051C95.6004 222.943 95.579 222.83 95.5723 222.717Z" fill="#E0E0E0"/>
<path d="M96.2825 220.83C96.2825 220.83 96.2825 221.117 96.4258 221.57C96.5796 222.153 96.8268 222.706 97.1579 223.21C97.9537 224.387 98.7973 225.199 98.7496 225.239C98.5436 225.093 98.3565 224.922 98.1925 224.73C97.7581 224.29 97.3664 223.811 97.0226 223.297C96.6809 222.78 96.4431 222.202 96.3223 221.594C96.2556 221.345 96.2421 221.085 96.2825 220.83Z" fill="#E0E0E0"/>
<path d="M97.6992 231.445C97.6992 231.405 98.495 232.074 99.5375 232.702C100.58 233.331 101.535 233.665 101.519 233.713C101.301 233.692 101.088 233.633 100.89 233.538C100.392 233.348 99.9099 233.116 99.45 232.846C98.9927 232.575 98.5611 232.264 98.1608 231.915C97.9811 231.786 97.825 231.627 97.6992 231.445Z" fill="#E0E0E0"/>
<path d="M103.89 230.229C103.865 230.475 103.811 230.718 103.731 230.953C103.564 231.53 103.362 232.096 103.126 232.648C102.896 233.195 102.63 233.727 102.33 234.239C102.22 234.465 102.078 234.674 101.908 234.86C101.996 234.626 102.102 234.4 102.227 234.184C102.433 233.778 102.712 233.213 103.022 232.592C103.333 231.971 103.516 231.367 103.667 230.937C103.715 230.693 103.789 230.456 103.89 230.229Z" fill="#E0E0E0"/>
<path d="M129.65 216.652C129.65 216.652 126.801 220.273 123.22 224.674C119.639 229.075 116.694 232.632 116.662 232.632C116.631 232.632 119.503 229.011 123.093 224.603C126.682 220.194 129.61 216.629 129.65 216.652Z" fill="#E0E0E0"/>
<path d="M117.307 227.38C117.363 227.267 117.427 227.158 117.498 227.054C117.69 226.762 117.897 226.48 118.118 226.21C119.594 224.429 121.549 223.109 123.753 222.406C124.084 222.301 124.422 222.216 124.763 222.151C124.888 222.115 125.016 222.096 125.145 222.096C125.145 222.096 124.62 222.231 123.793 222.517C122.72 222.897 121.699 223.407 120.753 224.037C119.812 224.678 118.957 225.435 118.206 226.29C117.633 226.95 117.338 227.404 117.307 227.38Z" fill="#E0E0E0"/>
<path d="M122.934 230.722C122.934 230.722 123.164 230.3 123.491 229.608C123.913 228.702 124.234 227.751 124.446 226.774C124.656 225.797 124.755 224.798 124.74 223.798C124.74 223.002 124.661 222.557 124.692 222.557C124.726 222.663 124.75 222.772 124.764 222.883C124.81 223.186 124.839 223.492 124.852 223.798C124.905 224.81 124.824 225.824 124.613 226.814C124.389 227.802 124.038 228.757 123.57 229.655C123.437 229.932 123.283 230.198 123.109 230.451C123.062 230.549 123.004 230.64 122.934 230.722Z" fill="#E0E0E0"/>
<path d="M116.408 230.061C116.408 230.061 116.456 229.966 116.567 229.806C116.726 229.585 116.896 229.373 117.077 229.17C117.666 228.495 118.322 227.882 119.034 227.339C119.751 226.799 120.522 226.335 121.334 225.955C121.593 225.833 121.859 225.726 122.13 225.636C122.222 225.595 122.318 225.566 122.417 225.549C122.417 225.549 122.035 225.74 121.43 226.058C120.64 226.465 119.886 226.939 119.178 227.475C118.472 228.013 117.809 228.607 117.196 229.249C116.655 229.751 116.408 230.077 116.408 230.061Z" fill="#E0E0E0"/>
<path d="M120.076 232.107C120.076 232.107 120.371 231.717 120.816 231.08C121.399 230.243 121.898 229.35 122.304 228.414C122.704 227.477 123.005 226.501 123.204 225.501C123.363 224.706 123.411 224.252 123.442 224.252C123.455 224.366 123.455 224.48 123.442 224.594C123.423 224.906 123.386 225.217 123.331 225.525C123.157 226.54 122.866 227.531 122.464 228.478C122.057 229.427 121.539 230.325 120.92 231.152C120.681 231.462 120.474 231.709 120.323 231.868C120.251 231.958 120.168 232.038 120.076 232.107Z" fill="#E0E0E0"/>
<path d="M118.104 232.537C118.104 232.537 118.334 232.354 118.653 232.012C119.06 231.568 119.39 231.06 119.631 230.508C120.197 229.21 120.427 228.057 120.483 228.072C120.47 228.342 120.427 228.608 120.356 228.868C120.222 229.469 120.03 230.055 119.783 230.619C119.534 231.189 119.177 231.705 118.732 232.139C118.552 232.314 118.338 232.449 118.104 232.537Z" fill="#E0E0E0"/>
<path d="M126.26 225.589C126.212 225.589 126.363 224.587 126.315 223.361C126.268 222.135 126.045 221.157 126.093 221.141C126.188 221.342 126.252 221.557 126.284 221.777C126.396 222.301 126.463 222.834 126.483 223.369C126.502 223.901 126.475 224.433 126.403 224.961C126.389 225.176 126.341 225.389 126.26 225.589Z" fill="#E0E0E0"/>
<path d="M121.875 221.043C122.094 220.928 122.327 220.84 122.567 220.781C123.142 220.611 123.727 220.475 124.318 220.375C124.911 220.276 125.509 220.212 126.109 220.184C126.357 220.157 126.608 220.157 126.857 220.184C126.614 220.243 126.366 220.277 126.117 220.287C125.663 220.335 125.034 220.407 124.35 220.526C123.666 220.646 123.045 220.773 122.599 220.884C122.364 220.962 122.121 221.015 121.875 221.043Z" fill="#E0E0E0"/>
<path d="M76.1883 272.941C76.1406 272.941 75.9894 268.341 75.8382 262.667C75.687 256.993 75.6153 252.385 75.6631 252.385C75.7108 252.385 75.862 256.985 76.0053 262.659C76.1485 268.333 76.2361 272.941 76.1883 272.941Z" fill="#E0E0E0"/>
<path d="M78.5594 256.762C78.602 256.885 78.6261 257.014 78.631 257.144C78.6774 257.487 78.704 257.832 78.7106 258.178C78.7518 260.491 78.1275 262.767 76.9121 264.736C76.6733 265.11 76.4664 265.404 76.3152 265.595C76.2428 265.701 76.1572 265.797 76.0605 265.882C76.0605 265.882 76.3709 265.436 76.8086 264.68C77.3814 263.697 77.8228 262.643 78.1217 261.545C78.4191 260.447 78.5769 259.316 78.5912 258.178C78.5992 257.351 78.5276 256.77 78.5594 256.762Z" fill="#E0E0E0"/>
<path d="M72.1135 257.893C72.1135 257.893 72.217 258.362 72.4239 259.102C72.6896 260.067 73.0634 260.999 73.538 261.88C74.0203 262.754 74.5967 263.573 75.257 264.323C75.7743 264.896 76.1244 265.214 76.1085 265.238C76.0095 265.181 75.9184 265.112 75.8379 265.031C75.6046 264.836 75.384 264.626 75.1774 264.402C74.4788 263.67 73.8795 262.848 73.3948 261.959C72.9134 261.068 72.5496 260.119 72.3125 259.134C72.2399 258.835 72.1841 258.532 72.1453 258.227C72.1222 258.117 72.1115 258.005 72.1135 257.893Z" fill="#E0E0E0"/>
<path d="M77.5335 254.119C77.5638 254.214 77.5798 254.314 77.5812 254.414C77.5812 254.605 77.5812 254.883 77.5812 255.209C77.5754 256.108 77.4767 257.005 77.2868 257.883C77.0966 258.76 76.8138 259.613 76.4432 260.43C76.3 260.74 76.1806 260.995 76.0851 261.162C76.0438 261.253 75.9872 261.337 75.918 261.409C75.918 261.409 76.0851 261.019 76.3397 260.382C76.6751 259.56 76.9413 258.71 77.1356 257.844C77.3183 256.976 77.4328 256.095 77.4778 255.209C77.5176 254.541 77.5096 254.119 77.5335 254.119Z" fill="#E0E0E0"/>
<path d="M73.3862 254.963C73.3862 254.963 73.3862 255.448 73.4896 256.228C73.5947 257.243 73.7999 258.246 74.1024 259.221C74.4093 260.19 74.8147 261.126 75.312 262.014C75.694 262.698 75.9726 263.096 75.9487 263.112C75.8641 263.034 75.7892 262.946 75.7259 262.849C75.5906 262.674 75.4155 262.412 75.2086 262.054C74.6779 261.17 74.2532 260.227 73.9432 259.244C73.6335 258.26 73.4438 257.242 73.3782 256.212C73.3782 255.822 73.3782 255.504 73.3782 255.281C73.3693 255.175 73.3719 255.068 73.3862 254.963Z" fill="#E0E0E0"/>
<path d="M74.6034 253.371C74.6034 253.371 74.5477 253.658 74.5318 254.119C74.5073 254.722 74.5853 255.325 74.7626 255.902C75.1844 257.255 75.7733 258.289 75.7096 258.289C75.5507 258.089 75.4171 257.87 75.3117 257.637C75.0212 257.093 74.784 256.523 74.6034 255.934C74.4207 255.339 74.3558 254.715 74.4124 254.095C74.4279 253.844 74.4928 253.598 74.6034 253.371Z" fill="#E0E0E0"/>
<path d="M72.9414 263.955C72.9812 263.955 73.5144 264.751 74.35 265.682C75.1856 266.613 75.9894 267.178 75.9416 267.218C75.7379 267.133 75.5497 267.014 75.3846 266.868C74.9606 266.546 74.5664 266.186 74.2068 265.793C73.8392 265.408 73.5113 264.987 73.2279 264.536C73.0982 264.361 73.0011 264.164 72.9414 263.955Z" fill="#E0E0E0"/>
<path d="M79.2271 264.514C79.1341 264.745 79.0139 264.964 78.869 265.166C78.2152 266.175 77.4431 267.102 76.5691 267.928C76.3992 268.108 76.2066 268.266 75.9961 268.397C76.1445 268.198 76.3096 268.012 76.4895 267.84C76.7999 267.514 77.2296 267.044 77.6753 266.511C78.1209 265.978 78.4711 265.469 78.7655 265.103C78.8957 264.889 79.0506 264.691 79.2271 264.514Z" fill="#E0E0E0"/>
<path d="M93.7034 256.659C93.6556 256.659 92.1993 252.306 90.4485 246.91C88.6977 241.514 87.305 237.114 87.3528 237.098C87.4005 237.082 88.8489 241.451 90.6076 246.854C92.3664 252.258 93.7431 256.643 93.7034 256.659Z" fill="#E0E0E0"/>
<path d="M91.38 240.471C91.4477 240.58 91.5062 240.694 91.5551 240.813C91.6961 241.132 91.8183 241.459 91.9211 241.792C92.272 242.889 92.4624 244.031 92.4862 245.182C92.5079 246.332 92.3658 247.478 92.0644 248.588C91.973 248.923 91.8614 249.253 91.7302 249.575C91.6426 249.806 91.5869 249.933 91.571 249.925C91.5551 249.917 91.7381 249.408 91.945 248.556C92.2152 247.452 92.3409 246.318 92.3191 245.182C92.293 244.045 92.1219 242.917 91.8097 241.824C91.571 240.98 91.3482 240.487 91.38 240.471Z" fill="#E0E0E0"/>
<path d="M85.5224 243.385C85.5224 243.385 85.7532 243.807 86.1591 244.459C86.6874 245.306 87.3094 246.091 88.0133 246.799C88.738 247.506 89.5387 248.13 90.4008 248.661C91.0533 249.059 91.4831 249.266 91.4751 249.29C91.4672 249.314 91.3558 249.29 91.1568 249.178C90.9578 249.067 90.6793 248.948 90.361 248.757C89.4893 248.249 88.6868 247.631 87.9735 246.918C87.2559 246.207 86.6351 245.404 86.1272 244.531C85.9743 244.274 85.8361 244.008 85.7134 243.735C85.5543 243.504 85.5065 243.393 85.5224 243.385Z" fill="#E0E0E0"/>
<path d="M89.6445 238.25C89.6936 238.336 89.7336 238.426 89.7639 238.521C89.8355 238.704 89.931 238.966 90.0265 239.316C90.5217 241.048 90.6544 242.863 90.4165 244.648C90.3829 244.916 90.3351 245.182 90.2732 245.444C90.2587 245.545 90.2319 245.644 90.1936 245.739C90.2082 245.368 90.2454 244.999 90.3051 244.632C90.3756 243.748 90.3756 242.859 90.3051 241.974C90.2334 241.089 90.0924 240.211 89.8833 239.348C89.7823 238.987 89.7026 238.62 89.6445 238.25Z" fill="#E0E0E0"/>
<path d="M85.9121 240.232C85.9121 240.232 86.0713 240.694 86.3737 241.418C86.7594 242.361 87.2393 243.262 87.8062 244.108C88.3769 244.951 89.0301 245.734 89.7559 246.448C90.3209 246.997 90.7029 247.299 90.679 247.323C90.5782 247.268 90.4823 247.204 90.3926 247.132C90.2175 247.005 89.9708 246.798 89.6763 246.535C88.9196 245.836 88.2442 245.054 87.6629 244.204C87.0918 243.345 86.6218 242.424 86.2623 241.458C86.127 241.084 86.0315 240.782 85.9758 240.567C85.9352 240.46 85.9137 240.347 85.9121 240.232Z" fill="#E0E0E0"/>
<path d="M86.6214 238.346C86.6214 238.346 86.6214 238.64 86.7647 239.086C86.9116 239.671 87.1593 240.225 87.4968 240.725C88.2926 241.903 89.1362 242.715 89.0884 242.762C88.8924 242.604 88.7136 242.425 88.5552 242.229C88.1213 241.795 87.732 241.317 87.3933 240.805C87.051 240.284 86.8107 239.704 86.6851 239.094C86.6148 238.851 86.5931 238.597 86.6214 238.346Z" fill="#E0E0E0"/>
<path d="M88.0293 248.97C88.0293 248.931 88.8251 249.599 89.8756 250.22C90.9261 250.841 91.8731 251.191 91.8572 251.239C91.6375 251.207 91.4232 251.146 91.2205 251.055C90.7244 250.865 90.2453 250.634 89.7881 250.363C89.3318 250.09 88.898 249.782 88.4909 249.44C88.3184 249.303 88.1633 249.145 88.0293 248.97Z" fill="#E0E0E0"/>
<path d="M94.228 247.744C94.2044 247.991 94.151 248.234 94.0688 248.468C93.7269 249.621 93.2515 250.729 92.6522 251.771C92.534 251.99 92.3926 252.195 92.2305 252.384C92.3191 252.153 92.4256 251.93 92.5488 251.715C92.7557 251.301 93.0342 250.736 93.3048 250.124C93.5754 249.511 93.7982 248.89 93.9574 248.46C94.0218 248.213 94.1125 247.973 94.228 247.744Z" fill="#E0E0E0"/>
<path d="M39.342 263.048C39.2943 263.048 37.8379 258.694 36.0871 253.299C34.3364 247.903 32.9437 243.502 32.9914 243.486C33.0392 243.47 34.4876 247.839 36.2463 253.243C38.0051 258.647 39.3818 263.04 39.342 263.048Z" fill="#E0E0E0"/>
<path d="M37.0187 246.859C37.0863 246.968 37.1449 247.083 37.1938 247.202C37.3347 247.52 37.457 247.847 37.5598 248.18C37.9107 249.277 38.101 250.419 38.1249 251.571C38.145 252.715 38.003 253.856 37.7031 254.961C37.6117 255.296 37.5001 255.626 37.3688 255.948C37.2813 256.178 37.2256 256.306 37.2097 256.298C37.1938 256.29 37.3847 255.78 37.5917 254.929C37.8548 253.824 37.9778 252.69 37.9577 251.555C37.9317 250.418 37.7605 249.29 37.4484 248.196C37.2097 247.377 36.9868 246.875 37.0187 246.859Z" fill="#E0E0E0"/>
<path d="M31.1602 249.783C31.1602 249.783 31.3909 250.197 31.7968 250.85C32.3226 251.696 32.9419 252.481 33.6431 253.189C34.3677 253.896 35.1684 254.521 36.0305 255.051C36.6831 255.457 37.1129 255.656 37.1049 255.688C36.9942 255.662 36.8872 255.622 36.7866 255.569C36.5876 255.481 36.3091 255.338 35.9908 255.147C35.1191 254.64 34.3166 254.022 33.6033 253.309C32.8857 252.597 32.2649 251.795 31.757 250.921C31.6041 250.664 31.4659 250.398 31.3432 250.125C31.2685 250.019 31.207 249.904 31.1602 249.783Z" fill="#E0E0E0"/>
<path d="M35.2832 244.617C35.3343 244.702 35.3744 244.793 35.4026 244.888C35.4742 245.071 35.5697 245.333 35.6652 245.684C36.148 247.407 36.2726 249.211 36.0313 250.984C35.9835 251.326 35.9358 251.596 35.888 251.78C35.8728 251.878 35.8461 251.974 35.8084 252.066C35.8084 252.066 35.8562 251.636 35.9199 250.96C35.9904 250.075 35.9904 249.186 35.9199 248.302C35.8482 247.417 35.7072 246.539 35.4981 245.676C35.4067 245.327 35.3349 244.974 35.2832 244.617Z" fill="#E0E0E0"/>
<path d="M31.5508 246.623C31.5508 246.623 31.7179 247.085 32.0123 247.809C32.3964 248.752 32.8764 249.654 33.4448 250.499C34.0156 251.341 34.6687 252.125 35.3946 252.838C35.9596 253.387 36.3416 253.69 36.3177 253.714L36.0392 253.523C35.7871 253.337 35.5453 253.138 35.315 252.926C34.5545 252.231 33.8787 251.448 33.3016 250.594C32.7305 249.736 32.2605 248.815 31.9009 247.849C31.7656 247.483 31.6701 247.172 31.6144 246.957C31.5729 246.851 31.5513 246.737 31.5508 246.623Z" fill="#E0E0E0"/>
<path d="M32.2586 244.736C32.2586 244.736 32.2586 245.031 32.4018 245.476C32.55 246.063 32.7976 246.62 33.134 247.124C33.9298 248.294 34.7734 249.105 34.7256 249.153C34.5192 249.001 34.3298 248.828 34.1606 248.636C33.7266 248.201 33.3374 247.724 32.9987 247.211C32.6597 246.689 32.4196 246.109 32.2904 245.5C32.2286 245.25 32.2178 244.991 32.2586 244.736Z" fill="#E0E0E0"/>
<path d="M33.6426 255.361C33.6426 255.321 34.4384 255.99 35.4889 256.611C36.5393 257.231 37.4864 257.581 37.4704 257.629C37.2508 257.598 37.0365 257.536 36.8338 257.446C36.3377 257.256 35.8585 257.024 35.4013 256.754C34.9462 256.483 34.5149 256.174 34.1121 255.831C33.9361 255.695 33.7783 255.537 33.6426 255.361Z" fill="#E0E0E0"/>
<path d="M39.8663 254.166C39.8423 254.415 39.7889 254.661 39.7072 254.898C39.5367 255.471 39.3347 256.034 39.1024 256.585C38.8676 257.131 38.6019 257.662 38.3065 258.177C38.2005 258.403 38.058 258.61 37.8848 258.79C37.9734 258.559 38.0798 258.335 38.2031 258.121C38.41 257.707 38.6885 257.142 38.9989 256.53C39.3093 255.917 39.5003 255.296 39.6515 254.866C39.699 254.626 39.771 254.392 39.8663 254.166Z" fill="#E0E0E0"/>
<path d="M62.4761 247.323C62.4283 247.323 62.6193 242.715 62.8979 237.049C63.1764 231.383 63.447 226.783 63.4947 226.783C63.5425 226.783 63.3435 231.383 63.065 237.057C62.7864 242.731 62.5238 247.323 62.4761 247.323Z" fill="#E0E0E0"/>
<path d="M66.0569 231.367C66.0682 231.494 66.0682 231.622 66.0569 231.749C66.0813 232.096 66.0813 232.445 66.0569 232.792C65.9329 235.103 65.1393 237.329 63.7729 239.198C63.5674 239.475 63.3469 239.741 63.1124 239.994C63.0329 240.094 62.9421 240.185 62.8418 240.264C62.8418 240.264 63.184 239.835 63.6774 239.118C64.9735 237.23 65.7527 235.035 65.9375 232.752C66.0489 231.884 66.0251 231.367 66.0569 231.367Z" fill="#E0E0E0"/>
<path d="M59.547 232.012C59.547 232.012 59.6106 232.481 59.7618 233.237C59.9521 234.218 60.2538 235.174 60.6611 236.086C61.0764 236.997 61.5915 237.859 62.197 238.657C62.6586 239.262 62.9928 239.612 62.9928 239.628C62.9013 239.564 62.8184 239.489 62.7461 239.405C62.5272 239.191 62.32 238.965 62.1254 238.728C61.4875 237.94 60.9526 237.074 60.5338 236.15C60.1192 235.226 59.8276 234.253 59.6663 233.253C59.6193 232.953 59.5874 232.65 59.5708 232.346C59.5422 232.237 59.5341 232.124 59.547 232.012Z" fill="#E0E0E0"/>
<path d="M65.2283 228.645C65.2283 228.645 65.2283 228.756 65.2283 228.947C65.2283 229.138 65.2283 229.416 65.2283 229.743C65.1518 230.638 64.9838 231.524 64.727 232.385C64.4718 233.246 64.1278 234.078 63.7004 234.868C63.5716 235.106 63.4309 235.337 63.2786 235.56C63.232 235.648 63.173 235.728 63.1035 235.799C63.1035 235.799 63.2945 235.425 63.5969 234.812C63.989 234.016 64.3138 233.188 64.5678 232.337C64.8237 231.487 65.0048 230.616 65.109 229.735C65.1806 229.074 65.2045 228.645 65.2283 228.645Z" fill="#E0E0E0"/>
<path d="M61.0263 229.193C61.0263 229.193 61.0263 229.687 61.0263 230.467C61.0507 231.485 61.1787 232.498 61.4083 233.491C61.6396 234.483 61.973 235.448 62.4031 236.372C62.7294 237.088 62.9761 237.502 62.9522 237.518C62.8753 237.433 62.8086 237.339 62.7533 237.239C62.588 236.982 62.4366 236.716 62.2996 236.443C61.8313 235.524 61.4759 234.551 61.2412 233.546C61.0084 232.542 60.8961 231.514 60.907 230.483C60.907 230.093 60.907 229.766 60.9547 229.551C60.9698 229.431 60.9938 229.311 61.0263 229.193Z" fill="#E0E0E0"/>
<path d="M62.3647 227.689C62.3647 227.689 62.2931 227.968 62.2374 228.43C62.1711 229.028 62.2033 229.633 62.3329 230.22C62.6512 231.605 63.1287 232.663 63.1287 232.687C62.9829 232.476 62.8677 232.246 62.7865 232.003C62.5331 231.443 62.3384 230.859 62.2056 230.26C62.0704 229.654 62.0515 229.027 62.1499 228.414C62.1694 228.16 62.2427 227.913 62.3647 227.689Z" fill="#E0E0E0"/>
<path d="M59.9043 238.115C59.9043 238.115 60.4057 238.983 61.1776 239.946C61.9495 240.909 62.7056 241.537 62.6658 241.601C62.4737 241.492 62.2971 241.358 62.1405 241.203C61.3461 240.494 60.6786 239.654 60.1669 238.72C60.0463 238.534 59.9576 238.33 59.9043 238.115Z" fill="#E0E0E0"/>
<path d="M66.1366 239.172C66.0273 239.395 65.891 239.603 65.7308 239.793C65.0088 240.753 64.1693 241.619 63.2319 242.371C63.0497 242.543 62.8433 242.688 62.6191 242.801C62.784 242.613 62.965 242.44 63.1603 242.284C63.4945 241.981 63.9561 241.543 64.4416 241.05C64.927 240.557 65.3408 240.071 65.6353 239.721C65.7827 239.521 65.9507 239.337 66.1366 239.172Z" fill="#E0E0E0"/>
<g opacity="0.3">
<path d="M57.8359 199.805C60.9522 202.276 64.5009 204.146 68.3009 205.32C69.9081 205.907 71.6322 206.104 73.3305 205.893C74.1768 205.775 74.9751 205.429 75.6397 204.892C76.3043 204.355 76.81 203.647 77.1026 202.845C77.222 202.439 77.2061 201.898 76.8241 201.723C76.4421 201.548 76.0283 201.898 75.6383 202.168C74.5003 203.02 71.1101 203.227 69.6936 203.06C65.054 202.518 62.0378 201.388 57.8359 199.821" fill="black"/>
</g>
<path d="M87.7584 232.1C87.8151 232.222 87.8578 232.35 87.8858 232.482C87.9574 232.744 88.0768 233.118 88.1723 233.62C88.4812 235.03 88.6597 236.466 88.7055 237.909C88.9148 242.713 87.7972 247.483 85.4754 251.694C83.1536 255.905 79.7171 259.396 75.5427 261.784C74.2946 262.511 72.9843 263.126 71.6273 263.622C71.1578 263.805 70.7678 263.9 70.5131 263.988C70.3856 264.037 70.2515 264.066 70.1152 264.075C70.5896 263.848 71.0757 263.646 71.5716 263.471C72.8921 262.924 74.1691 262.277 75.3915 261.537C79.4615 259.116 82.813 255.655 85.1013 251.509C87.3896 247.363 88.5321 242.683 88.411 237.949C88.3929 236.519 88.2598 235.092 88.0131 233.683C87.8987 233.161 87.8137 232.632 87.7584 232.1Z" fill="#263238"/>
<g opacity="0.2">
<path d="M88.4129 237.326C88.4683 239.051 88.1334 240.767 87.4334 242.344C86.7335 243.922 85.6863 245.322 84.3702 246.438C82.6592 247.863 80.5503 248.762 78.7995 250.202C77.2326 251.528 76.0622 253.26 75.4173 255.208C75.091 256.219 74.9477 257.452 75.6799 258.216C76.412 258.98 77.932 258.869 79.0303 258.399C82.6194 256.879 85.174 253.513 86.5507 249.868C87.9275 246.223 88.2617 242.268 88.5005 238.377" fill="black"/>
</g>
<path d="M108.547 234.383C107.309 231.249 107.349 227.755 108.658 224.65C108.351 226.256 108.151 227.88 108.061 229.513C108.112 231.145 108.274 232.773 108.547 234.383Z" fill="#263238"/>
<path d="M110.949 233.421C109.949 232.191 109.276 230.73 108.991 229.171C108.573 227.645 108.551 226.037 108.927 224.5C108.965 226.038 109.122 227.57 109.397 229.084C109.81 230.565 110.329 232.014 110.949 233.421Z" fill="#263238"/>
<path d="M150.303 210.938C150.303 210.938 150.056 210.747 149.618 210.54C149.026 210.256 148.351 210.194 147.716 210.365L147.358 210.468L147.541 210.134C147.793 209.668 147.96 209.162 148.035 208.638C148.185 207.612 148.024 206.564 147.573 205.63C147.223 204.906 146.849 204.555 146.897 204.516C147.279 204.761 147.585 205.108 147.78 205.518C148.329 206.483 148.537 207.604 148.369 208.702C148.279 209.261 148.091 209.8 147.812 210.293L147.629 210.062C148.335 209.887 149.082 209.999 149.706 210.373C150.16 210.651 150.319 210.922 150.303 210.938Z" fill="#AA6550"/>
<path d="M155.641 207.46C156.381 205.645 163.798 202.446 162.804 201.308C161.538 199.828 155.204 205 154.639 205.398C154.073 205.796 153.5 204.977 154.034 204.603C154.79 204.125 162.676 198.928 161.451 197.44C160.766 196.644 159.445 198.029 159.445 198.029C159.445 198.029 152.41 203.449 151.853 202.732C151.296 202.016 155.307 198.69 156.739 197.671C158.172 196.652 158.275 195.562 157.32 195.284C156.668 195.101 152.211 198.125 150.811 199.175C149.41 200.226 145.638 203.154 146.37 200.162C147.102 197.17 146.553 194.591 145.94 194.018C145.327 193.445 144.293 194.106 144.46 195.045C144.548 196.079 144.495 197.121 144.301 198.141C144.129 198.965 143.862 199.766 143.505 200.528C142.762 202.263 141.559 203.762 140.027 204.865L147.866 214.097L148.869 213.42C152.744 210.786 156.381 209.775 158.482 208.566C162.39 206.306 162.199 205.948 161.872 205.526C161.037 204.451 154.901 209.274 155.641 207.46Z" fill="#B78876"/>
<path d="M145.057 192.889L147.595 209.371L157.527 209.203L157.989 206.124C157.989 206.124 163.615 206.124 164.053 201.349C164.49 196.574 159.66 196.526 159.66 196.526L160.392 192.221L145.057 192.889ZM158.227 204.444L159.397 198.333C159.397 198.333 162.795 198.277 162.533 201.022C162.27 203.768 158.188 204.421 158.188 204.421L158.227 204.444Z" fill="#455A64"/>
<path d="M152.442 170.693C152.442 170.693 152.514 170.733 152.625 170.837C152.775 171.003 152.904 171.187 153.007 171.386C153.34 172.152 153.424 173.004 153.246 173.821C152.971 174.999 152.532 176.132 151.941 177.187C151.64 177.808 151.413 178.463 151.264 179.137C151.12 179.848 151.18 180.584 151.439 181.262C152.056 182.564 152.909 183.74 153.954 184.732C154.827 185.6 155.457 186.68 155.784 187.867C155.964 188.676 155.848 189.523 155.458 190.254C155.346 190.451 155.204 190.628 155.036 190.78C154.917 190.875 154.845 190.923 154.837 190.907C155.014 190.677 155.173 190.435 155.315 190.183C155.635 189.465 155.7 188.659 155.498 187.899C155.147 186.778 154.517 185.765 153.668 184.954C152.576 183.938 151.687 182.722 151.049 181.373C150.769 180.626 150.705 179.815 150.866 179.034C151.023 178.326 151.269 177.642 151.598 176.996C152.188 175.97 152.645 174.874 152.959 173.733C153.156 172.972 153.123 172.168 152.864 171.426C152.641 170.94 152.41 170.717 152.442 170.693Z" fill="#263238"/>
<path d="M149.832 170.734C149.832 170.734 149.903 170.734 150.015 170.886C150.172 171.048 150.303 171.233 150.405 171.435C150.741 172.2 150.825 173.053 150.643 173.87C150.364 175.046 149.925 176.179 149.338 177.236C149.031 177.855 148.804 178.51 148.662 179.186C148.519 179.896 148.577 180.632 148.829 181.311C149.453 182.608 150.305 183.784 151.344 184.78C152.22 185.643 152.852 186.722 153.174 187.908C153.368 188.73 153.252 189.594 152.848 190.335C152.738 190.531 152.596 190.706 152.426 190.853C152.307 190.956 152.243 190.996 152.235 190.988C152.227 190.98 152.466 190.757 152.705 190.256C153.025 189.538 153.09 188.732 152.888 187.972C152.537 186.855 151.91 185.845 151.065 185.035C149.97 184.019 149.079 182.804 148.439 181.454C148.161 180.704 148.1 179.89 148.264 179.106C148.416 178.399 148.659 177.714 148.988 177.069C149.582 176.048 150.04 174.954 150.349 173.814C150.551 173.05 150.518 172.243 150.253 171.498C150.007 170.989 149.768 170.758 149.832 170.734Z" fill="#263238"/>
<path d="M145.988 199.637C145.988 199.637 145.988 199.398 146.33 199.136C146.559 198.976 146.821 198.869 147.097 198.824C147.372 198.778 147.654 198.795 147.922 198.873C148.688 199.155 149.373 199.62 149.92 200.226C150.21 200.577 150.574 200.86 150.987 201.053C151.4 201.245 151.851 201.343 152.307 201.34C153.246 201.221 154.034 200.544 154.87 200.202C155.268 200.006 155.7 199.89 156.143 199.86C156.534 199.854 156.923 199.932 157.281 200.09C157.793 200.314 158.22 200.696 158.498 201.181C158.682 201.523 158.705 201.738 158.682 201.746C158.658 201.754 158.578 201.563 158.363 201.268C158.058 200.86 157.645 200.545 157.169 200.361C156.846 200.241 156.503 200.187 156.159 200.202C155.765 200.249 155.383 200.365 155.029 200.544C154.208 201.089 153.305 201.497 152.355 201.754C151.799 201.825 151.235 201.698 150.763 201.396C150.356 201.146 149.982 200.846 149.649 200.504C149.153 199.923 148.533 199.461 147.835 199.151C147.599 199.073 147.35 199.042 147.102 199.063C146.854 199.083 146.614 199.154 146.394 199.271C146.116 199.454 146.02 199.653 145.988 199.637Z" fill="#FAFAFA"/>
<path d="M145.631 197.512C145.631 197.512 145.631 197.258 145.989 196.995C146.234 196.822 146.516 196.706 146.812 196.656C147.108 196.607 147.412 196.625 147.7 196.709C148.509 197.015 149.235 197.509 149.817 198.149C150.477 198.77 151.321 199.478 152.34 199.343C153.358 199.207 154.178 198.547 155.061 198.125C155.485 197.919 155.944 197.798 156.414 197.767C156.917 197.756 157.414 197.879 157.853 198.124C158.292 198.368 158.658 198.726 158.913 199.16C159.112 199.518 159.136 199.757 159.112 199.757C159.088 199.757 159.001 199.558 158.778 199.247C158.451 198.812 158.01 198.476 157.504 198.276C157.161 198.15 156.796 198.093 156.43 198.109C156.008 198.157 155.598 198.281 155.22 198.475C154.425 198.849 153.573 199.581 152.379 199.757C151.806 199.819 151.229 199.687 150.74 199.382C150.308 199.113 149.91 198.792 149.554 198.427C149.025 197.812 148.364 197.322 147.62 196.995C147.37 196.908 147.103 196.875 146.839 196.897C146.575 196.919 146.318 196.996 146.084 197.122C145.758 197.321 145.663 197.536 145.631 197.512Z" fill="#FAFAFA"/>
<path d="M71.2461 280.866L84.958 300.22L235.486 300.149L235.399 283.062L159.279 275.821L96.0357 266.414L71.2461 280.866Z" fill="#263238"/>
<path d="M95.4453 266.98L106.133 252.226L136.247 215.045C138.321 212.808 140.889 211.086 143.746 210.015C146.603 208.944 149.67 208.555 152.704 208.878C156.396 209.267 159.902 210.697 162.814 213C165.726 215.304 167.924 218.386 169.154 221.889L189.049 282.562L162.708 278.424L149.322 240.893L128.217 270.338L95.4453 266.98Z" fill="#263238"/>
<path d="M189.027 278.646H188.828H188.143L185.509 278.455L175.832 277.659L143.904 274.977L126.324 273.449C123.627 273.195 121.056 273.004 118.653 272.741C116.426 272.5 114.215 272.127 112.032 271.627C110.21 271.249 108.449 270.625 106.795 269.773C105.559 269.105 104.443 268.236 103.492 267.202C102.889 266.549 102.387 265.809 102.004 265.006C101.865 264.733 101.75 264.448 101.662 264.154C102.15 265.232 102.808 266.223 103.612 267.091C104.563 268.095 105.677 268.932 106.907 269.566C108.548 270.388 110.294 270.985 112.095 271.341C114.272 271.821 116.475 272.175 118.693 272.399C121.08 272.646 123.658 272.829 126.364 273.067L143.936 274.564L175.856 277.365L185.525 278.264L188.151 278.527L188.836 278.606L189.027 278.646Z" fill="#455A64"/>
<path d="M151.424 227.316C151.261 227.976 151.056 228.624 150.811 229.258C149.809 232.365 149.322 235.615 149.371 238.88C149.418 239.558 149.418 240.239 149.371 240.917C149.176 240.26 149.075 239.58 149.068 238.896C148.958 237.246 149.028 235.588 149.275 233.953C149.523 232.322 149.945 230.721 150.533 229.179C150.742 228.519 151.042 227.893 151.424 227.316Z" fill="#455A64"/>
<path d="M145.615 232.377C146.017 233.919 146.5 235.439 147.064 236.929C147.751 238.364 148.513 239.761 149.348 241.115C147.075 238.752 145.747 235.637 145.615 232.361V232.377Z" fill="#455A64"/>
<path d="M231.57 288.18C230.971 290.13 230.548 292.13 230.304 294.156C230.205 296.194 230.285 298.236 230.543 300.26C230.294 299.702 230.133 299.109 230.066 298.501C229.826 297.053 229.768 295.58 229.89 294.116C230.016 292.654 230.323 291.213 230.806 289.827C230.967 289.239 231.225 288.682 231.57 288.18Z" fill="#455A64"/>
<path d="M77.2628 201.221C77.2628 201.221 77.2628 201.293 77.1355 201.396C77.0031 201.558 76.8536 201.704 76.6898 201.834C76.0855 202.312 75.3894 202.662 74.6446 202.861C72.7664 203.441 70.0527 203.298 67.1719 202.861C64.7121 202.456 62.3082 201.764 60.0095 200.799C59.1262 200.433 58.4179 200.083 57.9563 199.836C57.7011 199.721 57.4629 199.571 57.248 199.391C57.248 199.335 58.3383 199.86 60.1209 200.529C62.4396 201.402 64.8386 202.044 67.2833 202.447C70.1402 202.892 72.7983 203.067 74.6207 202.59C75.5886 202.326 76.4892 201.86 77.2628 201.221Z" fill="#263238"/>
<path d="M500.403 237.026C503.737 235.307 507.668 235.084 511.369 235.697C513.367 236.023 515.436 236.62 516.796 238.084C518.157 239.548 518.388 242.206 516.852 243.496C515.847 244.173 514.636 244.477 513.43 244.355C510.533 244.355 507.31 243.814 504.995 245.557C503.673 246.552 502.79 248.207 501.214 248.7C500.423 248.883 499.593 248.804 498.851 248.474C498.109 248.143 497.494 247.58 497.1 246.87C496.346 245.417 496.181 243.73 496.638 242.159C496.828 241.071 497.266 240.042 497.919 239.151C498.572 238.261 499.422 237.533 500.403 237.026Z" fill="#779E1C"/>
<path d="M492.755 222.263C494.792 225.184 498.763 224.213 500.601 222.438C502.44 220.664 503.22 218.077 503.928 215.618C505.519 210 507.175 204.111 505.965 198.389C505.678 196.654 504.918 195.032 503.769 193.702C503.184 193.039 502.434 192.543 501.595 192.263C500.757 191.984 499.859 191.931 498.994 192.11C496.996 192.643 495.755 194.601 494.856 196.463C492.21 201.964 490.824 207.986 490.797 214.09C490.797 216.931 491.123 219.908 492.723 222.247" fill="#779E1C"/>
<path d="M487.153 226.45C489.365 223.824 489.787 219.988 488.8 216.693C487.679 213.421 485.681 210.519 483.023 208.305C480.003 205.618 476.489 203.545 472.677 202.201C471.202 201.6 469.613 201.328 468.022 201.406C467.225 201.456 466.453 201.7 465.773 202.116C465.092 202.532 464.522 203.108 464.114 203.793C463.032 205.87 464.114 208.393 465.204 210.446C467.195 214.067 469.468 217.526 472.001 220.792C474.038 223.418 476.37 226.012 479.481 227.158C482.593 228.304 485.808 228.209 487.439 226.052" fill="#779E1C"/>
<path d="M492.621 266.232C492.722 265.798 492.783 265.355 492.804 264.911C492.9 263.94 493.011 262.73 493.154 261.29C493.329 259.51 493.594 257.741 493.95 255.989C494.426 253.857 495.07 251.765 495.876 249.734C496.667 247.708 497.739 245.804 499.059 244.076C500.139 242.671 501.517 241.524 503.094 240.718C504.166 240.187 505.316 239.829 506.5 239.659C506.946 239.638 507.388 239.574 507.821 239.468C507.375 239.417 506.923 239.417 506.476 239.468C505.248 239.562 504.046 239.875 502.927 240.391C501.265 241.177 499.807 242.337 498.67 243.782C497.286 245.53 496.17 247.475 495.359 249.551C494.536 251.614 493.894 253.744 493.441 255.918C493.1 257.693 492.867 259.487 492.741 261.29C492.621 262.825 492.581 264.067 492.558 264.926C492.532 265.362 492.553 265.8 492.621 266.232Z" fill="#263238"/>
<path d="M492.867 263.455C492.891 263.249 492.891 263.04 492.867 262.834V261.083C492.867 259.555 492.867 257.351 492.947 254.621C493.082 249.17 493.552 243.305 494.459 235.036C495.31 227.261 496.464 218.213 497.642 212.324C497.905 210.987 498.167 209.785 498.438 208.727C498.709 207.668 498.876 206.761 499.067 206.021C499.258 205.281 499.369 204.764 499.48 204.318C499.539 204.118 499.573 203.913 499.584 203.705C499.495 203.892 499.423 204.086 499.369 204.286C499.234 204.724 499.067 205.281 498.86 205.965C498.653 206.65 498.406 207.605 498.136 208.655C497.865 209.706 497.571 210.907 497.284 212.244C495.779 219.203 494.648 226.238 493.894 233.317C492.987 241.602 492.581 249.154 492.541 254.613C492.541 257.351 492.541 259.555 492.637 261.083C492.684 261.8 492.716 262.38 492.748 262.842C492.763 263.05 492.803 263.256 492.867 263.455Z" fill="#263238"/>
<path d="M492.907 248.9C492.947 248.288 492.947 247.674 492.907 247.062C492.835 245.884 492.676 244.181 492.342 242.088C491.95 239.645 491.418 237.227 490.75 234.846C489.962 231.912 488.949 229.044 487.718 226.267C485.614 221.149 482.599 216.455 478.821 212.412C478.167 211.719 477.468 211.07 476.728 210.47C476.41 210.199 476.123 209.921 475.837 209.714L475.041 209.149C474.539 208.776 474.007 208.445 473.449 208.162C475.233 209.56 476.927 211.069 478.519 212.682C482.176 216.756 485.11 221.426 487.193 226.49C488.4 229.248 489.418 232.085 490.241 234.981C490.934 237.338 491.508 239.729 491.96 242.143C492.342 244.205 492.565 245.892 492.692 247.062C492.714 247.679 492.786 248.294 492.907 248.9Z" fill="#263238"/>
<path d="M478.838 274.572L480.294 294.547H505.959L507.424 274.572H478.838Z" fill="#263238"/>
<path d="M510.478 266.693H476.354V274.572H510.478V266.693Z" fill="#263238"/>
<path d="M476.354 293.783V295.964H477.961H509.921V293.783H476.354Z" fill="#455A64"/>
<path d="M479.529 299.809L477.961 295.965H508.695L506.865 299.809H479.529Z" fill="#455A64"/>
<path d="M506.944 281.098C506.91 281.163 506.87 281.224 506.825 281.281L506.443 281.791L504.947 283.709L504.875 283.788L504.811 283.701L501.143 278.623H501.349L497.736 283.741L497.617 283.9L497.498 283.749L493.208 278.647H493.455L493.216 278.942L489.38 283.717L489.253 283.876L489.134 283.709L485.513 278.592H485.728L481.271 283.669L481.191 283.764L481.128 283.661L479.735 281.313L479.377 280.693C479.336 280.62 479.299 280.546 479.266 280.47C479.266 280.47 479.329 280.533 479.417 280.669L479.815 281.266L481.279 283.573H481.136C482.282 282.236 483.77 280.494 485.521 278.432L485.632 278.305L485.736 278.448L489.388 283.542H489.142L492.97 278.727L493.2 278.432L493.328 278.281L493.447 278.425L497.728 283.542H497.49L501.143 278.448L501.246 278.297L501.349 278.448L504.947 283.581H504.819L506.371 281.711L506.785 281.234C506.832 281.182 506.885 281.136 506.944 281.098Z" fill="#E0E0E0"/>
<path d="M507.78 274.438C507.78 274.526 501.342 274.598 493.456 274.598C485.569 274.598 479.131 274.526 479.131 274.438C479.131 274.351 485.561 274.279 493.456 274.279C501.35 274.279 507.78 274.351 507.78 274.438Z" fill="#455A64"/>
<path d="M509.069 296.186C509.069 296.274 502.082 296.346 493.463 296.346C484.845 296.346 477.85 296.274 477.85 296.186C477.85 296.099 484.837 296.027 493.463 296.027C502.09 296.027 509.069 296.099 509.069 296.186Z" fill="#263238"/>
</svg>
