<svg width="148" height="51" viewBox="0 0 148 51" fill="none" xmlns="http://www.w3.org/2000/svg">
<g clip-path="url(#clip0_114_3843)">
<path d="M136.019 0.613702H11.7755C11.3226 0.613702 10.8752 0.613702 10.4235 0.616177C10.0454 0.618652 9.67031 0.625843 9.28858 0.631895C8.45928 0.641674 7.63193 0.714786 6.81372 0.850596C5.99666 0.989362 5.2052 1.25098 4.4661 1.62659C3.7279 2.00538 3.05339 2.49758 2.46704 3.08533C1.8776 3.67143 1.38626 4.34888 1.01191 5.09164C0.636529 5.83292 0.376237 6.62726 0.240026 7.44724C0.10252 8.26619 0.0285269 9.09457 0.0187105 9.92497C0.00724956 10.3044 0.00603924 10.6851 0 11.0647V39.6715C0.00603924 40.0558 0.00724956 40.4281 0.0187105 40.8125C0.0285299 41.6428 0.102523 42.4712 0.240026 43.2901C0.375861 44.1106 0.636168 44.9054 1.01191 45.6469C1.38609 46.3873 1.8775 47.062 2.46704 47.6448C3.05117 48.2352 3.72612 48.7277 4.4661 49.1036C5.20519 49.4802 5.99657 49.7434 6.81372 49.8843C7.63207 50.019 8.45933 50.0922 9.28858 50.1031C9.67031 50.1115 10.0454 50.1164 10.4235 50.1164C10.8752 50.1188 11.3227 50.1188 11.7755 50.1188H136.019C136.462 50.1188 136.913 50.1188 137.357 50.1164C137.734 50.1164 138.12 50.1115 138.496 50.1031C139.324 50.0928 140.149 50.0196 140.966 49.8843C141.786 49.7424 142.58 49.4793 143.323 49.1036C144.062 48.7275 144.736 48.235 145.32 47.6448C145.908 47.0597 146.4 46.3855 146.779 45.6469C147.152 44.9048 147.41 44.1101 147.544 43.2901C147.681 42.4711 147.758 41.6429 147.773 40.8125C147.778 40.4281 147.778 40.0558 147.778 39.6715C147.787 39.2219 147.787 38.7747 147.787 38.3178V12.4159C147.787 11.9627 147.787 11.513 147.778 11.0647C147.778 10.6851 147.778 10.3044 147.773 9.92492C147.758 9.09445 147.681 8.26625 147.544 7.44719C147.41 6.62769 147.152 5.8334 146.779 5.09159C146.017 3.60282 144.808 2.39097 143.323 1.62648C142.58 1.25178 141.786 0.990238 140.966 0.850485C140.149 0.714077 139.324 0.640939 138.496 0.631721C138.12 0.625682 137.734 0.618429 137.357 0.616016C136.913 0.613541 136.462 0.613702 136.019 0.613702Z" fill="#A6A6A6"/>
<path d="M10.4295 49.0358C10.0532 49.0358 9.68598 49.0309 9.31265 49.0225C8.53926 49.0124 7.76768 48.945 7.00423 48.8207C6.29235 48.6978 5.60273 48.4693 4.95812 48.1426C4.31942 47.8186 3.73688 47.3938 3.2328 46.8844C2.72143 46.381 2.29569 45.7972 1.97245 45.156C1.64565 44.5107 1.41949 43.819 1.30184 43.105C1.17478 42.3379 1.10604 41.5621 1.09621 40.7845C1.08838 40.5235 1.07812 39.6544 1.07812 39.6544V11.0645C1.07812 11.0645 1.08904 10.2088 1.09627 9.9574C1.10569 9.18101 1.17403 8.40647 1.3007 7.64047C1.41857 6.92452 1.64491 6.23083 1.97188 5.58341C2.29393 4.9427 2.71731 4.35844 3.2256 3.85326C3.73332 3.34329 4.31773 2.91628 4.95752 2.58782C5.60065 2.26218 6.28896 2.03525 6.9994 1.91463C7.76535 1.78909 8.53962 1.72122 9.31569 1.71158L10.4301 1.69647H137.351L138.479 1.71219C139.248 1.72135 140.015 1.78861 140.774 1.91342C141.492 2.03555 142.187 2.26407 142.838 2.59145C144.119 3.25339 145.162 4.30064 145.82 5.58643C146.142 6.22938 146.365 6.91742 146.481 7.62718C146.609 8.39946 146.681 9.18009 146.696 9.96284C146.699 10.3133 146.699 10.6898 146.699 11.0645C146.709 11.5286 146.709 11.9704 146.709 12.4157V38.3177C146.709 38.7673 146.709 39.206 146.699 39.6484C146.699 40.0508 146.699 40.4195 146.695 40.799C146.68 41.5678 146.61 42.3345 146.484 43.0929C146.368 43.8121 146.143 44.5092 145.817 45.1598C145.491 45.7939 145.068 46.3727 144.562 46.8747C144.058 47.3869 143.474 47.8142 142.834 48.1402C142.185 48.4694 141.491 48.6988 140.774 48.8207C140.011 48.9456 139.239 49.0131 138.466 49.0225C138.104 49.0309 137.725 49.0358 137.357 49.0358L136.018 49.0382L10.4295 49.0358Z" fill="black"/>
<path d="M30.5899 25.7382C30.6032 24.7052 30.877 23.6924 31.3858 22.7939C31.8947 21.8955 32.6221 21.1406 33.5003 20.5995C32.9424 19.8011 32.2064 19.144 31.3507 18.6804C30.4951 18.2168 29.5434 17.9596 28.5711 17.9291C26.4972 17.711 24.4867 19.1727 23.4299 19.1727C22.3526 19.1727 20.7255 17.9508 18.9733 17.9869C17.84 18.0236 16.7354 18.3539 15.7673 18.9455C14.7992 19.5372 14.0006 20.3701 13.4492 21.363C11.0606 25.5071 12.8423 31.5975 15.1303 34.9473C16.275 36.5876 17.6129 38.4199 19.3635 38.3549C21.0765 38.2837 21.7163 37.2602 23.7841 37.2602C25.8327 37.2602 26.433 38.3549 28.219 38.3136C30.0572 38.2837 31.2154 36.666 32.3199 35.0102C33.1424 33.8414 33.7753 32.5497 34.1952 31.1828C33.1273 30.7301 32.2159 29.9725 31.5748 29.0043C30.9337 28.0361 30.5911 26.9002 30.5899 25.7382Z" fill="white"/>
<path d="M27.2166 15.7261C28.2188 14.5204 28.7126 12.9707 28.593 11.406C27.0618 11.5672 25.6474 12.3005 24.6316 13.46C24.135 14.0264 23.7546 14.6854 23.5122 15.3992C23.2699 16.113 23.1703 16.8677 23.2191 17.6201C23.985 17.628 24.7427 17.4617 25.4351 17.1336C26.1275 16.8055 26.7367 16.3243 27.2166 15.7261Z" fill="white"/>
<path d="M52.2441 34.2023H46.3982L44.9944 38.3564H42.5183L48.0554 22.9875H50.6279L56.165 38.3564H53.6467L52.2441 34.2023ZM47.0037 32.2855H51.6375L49.3532 25.5438H49.2893L47.0037 32.2855Z" fill="white"/>
<path d="M68.1233 32.7544C68.1233 36.2365 66.2635 38.4736 63.457 38.4736C62.746 38.5109 62.039 38.3468 61.4168 38.0001C60.7946 37.6534 60.2824 37.1381 59.9388 36.5132H59.8857V42.0632H57.5906V27.1512H59.8122V29.0149H59.8544C60.2137 28.3931 60.7346 27.8805 61.3615 27.5316C61.9885 27.1828 62.698 27.0108 63.4147 27.034C66.2526 27.034 68.1233 29.282 68.1233 32.7544ZM65.7642 32.7544C65.7642 30.4858 64.5943 28.9944 62.8093 28.9944C61.0557 28.9944 59.8761 30.5173 59.8761 32.7544C59.8761 35.0121 61.0557 36.5241 62.8093 36.5241C64.5943 36.5241 65.7642 35.0435 65.7642 32.7544Z" fill="white"/>
<path d="M80.4301 32.7544C80.4301 36.2365 78.5704 38.4736 75.7638 38.4736C75.0529 38.5109 74.3458 38.3468 73.7237 38.0001C73.1015 37.6533 72.5893 37.1381 72.2457 36.5132H72.1926V42.0632H69.8975V27.1512H72.119V29.0149H72.1613C72.5206 28.3931 73.0414 27.8805 73.6684 27.5316C74.2953 27.1828 75.0049 27.0108 75.7216 27.034C78.5595 27.034 80.4301 29.282 80.4301 32.7544ZM78.0711 32.7544C78.0711 30.4858 76.9012 28.9944 75.1162 28.9944C73.3625 28.9944 72.183 30.5173 72.183 32.7544C72.183 35.0121 73.3625 36.5241 75.1162 36.5241C76.9012 36.5241 78.0711 35.0435 78.0711 32.7544Z" fill="white"/>
<path d="M88.5638 34.0742C88.7339 35.5983 90.2113 36.599 92.2303 36.599C94.1648 36.599 95.5566 35.5983 95.5566 34.224C95.5566 33.0311 94.7172 32.3169 92.7296 31.8274L90.742 31.3475C87.9258 30.6659 86.6184 29.346 86.6184 27.2044C86.6184 24.5526 88.9244 22.7313 92.1989 22.7313C95.4396 22.7313 97.6612 24.5526 97.736 27.2044H95.4191C95.2804 25.6706 94.0152 24.7448 92.1663 24.7448C90.3174 24.7448 89.0523 25.6815 89.0523 27.0448C89.0523 28.1314 89.8603 28.7707 91.8371 29.2602L93.5268 29.676C96.6734 30.4217 97.9808 31.6883 97.9808 33.9363C97.9808 36.8117 95.6953 38.6125 92.0602 38.6125C88.6591 38.6125 86.3627 36.854 86.2144 34.0741L88.5638 34.0742Z" fill="white"/>
<path d="M102.934 24.4995V27.1512H105.061V28.9726H102.934V35.1499C102.934 36.1095 103.36 36.5567 104.295 36.5567C104.547 36.5523 104.799 36.5346 105.05 36.5035V38.314C104.629 38.3927 104.202 38.4284 103.775 38.4204C101.511 38.4204 100.628 37.5683 100.628 35.3952V28.9726H99.0024V27.1512H100.628V24.4995H102.934Z" fill="white"/>
<path d="M106.292 32.7544C106.292 29.2289 108.364 27.0135 111.595 27.0135C114.837 27.0135 116.899 29.2288 116.899 32.7544C116.899 36.2896 114.848 38.4954 111.595 38.4954C108.343 38.4954 106.292 36.2896 106.292 32.7544ZM114.561 32.7544C114.561 30.336 113.455 28.9086 111.595 28.9086C109.735 28.9086 108.631 30.3468 108.631 32.7544C108.631 35.1825 109.735 36.599 111.595 36.599C113.455 36.599 114.561 35.1825 114.561 32.7544Z" fill="white"/>
<path d="M118.792 27.1513H120.981V29.0584H121.034C121.182 28.4628 121.53 27.9364 122.02 27.5677C122.51 27.199 123.111 27.0106 123.723 27.034C123.988 27.0331 124.251 27.0619 124.51 27.1198V29.2712C124.176 29.1689 123.827 29.122 123.478 29.1322C123.145 29.1186 122.812 29.1775 122.504 29.3049C122.195 29.4322 121.918 29.6249 121.691 29.8699C121.464 30.1148 121.292 30.4061 121.188 30.7237C121.083 31.0414 121.049 31.3779 121.087 31.7102V38.3564H118.792L118.792 27.1513Z" fill="white"/>
<path d="M135.092 35.0653C134.783 37.0994 132.806 38.4954 130.277 38.4954C127.024 38.4954 125.005 36.3114 125.005 32.8076C125.005 29.2929 127.035 27.0135 130.181 27.0135C133.274 27.0135 135.22 29.143 135.22 32.5405V33.3285H127.322V33.4675C127.286 33.8799 127.337 34.2953 127.473 34.6862C127.609 35.0771 127.827 35.4345 128.111 35.7347C128.396 36.0349 128.741 36.271 129.123 36.4273C129.506 36.5836 129.917 36.6566 130.33 36.6413C130.873 36.6923 131.417 36.5664 131.882 36.2824C132.347 35.9985 132.709 35.5716 132.912 35.0653L135.092 35.0653ZM127.333 31.721H132.923C132.944 31.3502 132.888 30.9792 132.758 30.6312C132.629 30.2831 132.43 29.9656 132.172 29.6986C131.914 29.4316 131.605 29.2207 131.262 29.0794C130.919 28.938 130.551 28.8692 130.181 28.8772C129.807 28.8749 129.436 28.9469 129.091 29.0889C128.745 29.2309 128.43 29.4401 128.166 29.7045C127.901 29.9689 127.691 30.2833 127.548 30.6294C127.405 30.9755 127.332 31.3465 127.333 31.721Z" fill="white"/>
<path d="M46.716 11.4193C47.1972 11.3847 47.68 11.4575 48.1297 11.6326C48.5794 11.8076 48.9847 12.0805 49.3164 12.4315C49.6481 12.7825 49.898 13.2029 50.0479 13.6624C50.1978 14.1219 50.2441 14.6091 50.1835 15.0887C50.1835 17.4479 48.9111 18.804 46.716 18.804H44.0542V11.4193H46.716ZM45.1988 17.7597H46.5881C46.932 17.7803 47.2761 17.7238 47.5954 17.5943C47.9147 17.4648 48.2012 17.2656 48.4339 17.0112C48.6667 16.7568 48.84 16.4536 48.9411 16.1236C49.0422 15.7936 49.0686 15.4452 49.0184 15.1037C49.065 14.7636 49.0359 14.4173 48.9332 14.0898C48.8306 13.7622 48.6569 13.4614 48.4246 13.2091C48.1924 12.9567 47.9073 12.7589 47.5898 12.6299C47.2723 12.5009 46.9302 12.4438 46.5881 12.4629H45.1988V17.7597Z" fill="white"/>
<path d="M51.4763 16.015C51.4413 15.6488 51.4831 15.2793 51.599 14.9302C51.7149 14.5811 51.9023 14.2601 52.1493 13.9878C52.3962 13.7156 52.6972 13.4981 53.0329 13.3492C53.3687 13.2003 53.7317 13.1234 54.0989 13.1234C54.466 13.1234 54.8291 13.2003 55.1648 13.3492C55.5006 13.4981 55.8016 13.7156 56.0485 13.9878C56.2954 14.2601 56.4829 14.5811 56.5987 14.9302C56.7146 15.2793 56.7564 15.6488 56.7215 16.015C56.7571 16.3816 56.7158 16.7517 56.6002 17.1013C56.4846 17.451 56.2973 17.7725 56.0503 18.0453C55.8033 18.3181 55.5021 18.5361 55.166 18.6853C54.83 18.8345 54.4664 18.9115 54.0989 18.9115C53.7313 18.9115 53.3678 18.8345 53.0317 18.6853C52.6956 18.5361 52.3944 18.3181 52.1474 18.0453C51.9004 17.7725 51.7131 17.451 51.5975 17.1013C51.482 16.7517 51.4406 16.3816 51.4763 16.015ZM55.5926 16.015C55.5926 14.807 55.0511 14.1006 54.1007 14.1006C53.1467 14.1006 52.61 14.807 52.61 16.015C52.61 17.2327 53.1467 17.9337 54.1007 17.9337C55.0511 17.9337 55.5926 17.2279 55.5926 16.015Z" fill="white"/>
<path d="M63.6938 18.8039H62.5553L61.4059 14.6994H61.3191L60.1745 18.8039H59.0468L57.5139 13.2309H58.6271L59.6233 17.4834H59.7054L60.8487 13.2309H61.9016L63.045 17.4834H63.1318L64.1232 13.2309H65.2207L63.6938 18.8039Z" fill="white"/>
<path d="M66.51 13.2309H67.5665V14.1162H67.6485C67.7877 13.7983 68.0223 13.5317 68.3198 13.3537C68.6173 13.1758 68.9628 13.0952 69.3081 13.1234C69.5787 13.103 69.8504 13.1439 70.1031 13.243C70.3558 13.3421 70.5829 13.4969 70.7678 13.696C70.9527 13.8951 71.0905 14.1333 71.171 14.393C71.2515 14.6526 71.2727 14.9271 71.233 15.1961V18.8038H70.1355V15.4723C70.1355 14.5767 69.7471 14.1314 68.9354 14.1314C68.7517 14.1228 68.5683 14.1541 68.3978 14.2232C68.2273 14.2923 68.0737 14.3975 67.9476 14.5317C67.8215 14.6658 67.7258 14.8257 67.6671 15.0004C67.6084 15.175 67.5881 15.3604 67.6075 15.5436V18.8039H66.51L66.51 13.2309Z" fill="white"/>
<path d="M72.9817 11.0554H74.0792V18.8039H72.9817V11.0554Z" fill="white"/>
<path d="M75.6051 16.015C75.5702 15.6488 75.612 15.2792 75.728 14.9301C75.8439 14.581 76.0313 14.26 76.2783 13.9878C76.5253 13.7155 76.8263 13.498 77.162 13.3491C77.4978 13.2002 77.8609 13.1233 78.2281 13.1233C78.5952 13.1233 78.9583 13.2002 79.2941 13.3491C79.6298 13.498 79.9309 13.7155 80.1778 13.9878C80.4248 14.26 80.6122 14.581 80.7281 14.9301C80.8441 15.2792 80.8859 15.6488 80.851 16.015C80.8865 16.3816 80.8452 16.7517 80.7296 17.1013C80.6139 17.451 80.4266 17.7725 80.1796 18.0453C79.9326 18.3181 79.6313 18.5361 79.2952 18.6853C78.9592 18.8344 78.5956 18.9115 78.2281 18.9115C77.8605 18.9115 77.497 18.8344 77.1609 18.6853C76.8248 18.5361 76.5235 18.3181 76.2765 18.0453C76.0295 17.7725 75.8422 17.451 75.7265 17.1013C75.6109 16.7517 75.5696 16.3816 75.6051 16.015ZM79.7215 16.015C79.7215 14.807 79.1799 14.1006 78.2296 14.1006C77.2756 14.1006 76.7389 14.807 76.7389 16.015C76.7389 17.2327 77.2756 17.9337 78.2296 17.9337C79.1799 17.9337 79.7215 17.2279 79.7215 16.015Z" fill="white"/>
<path d="M82.0063 17.2279C82.0063 16.2247 82.7517 15.6464 84.0748 15.5642L85.5811 15.4772V14.9961C85.5811 14.4075 85.1928 14.0752 84.4426 14.0752C83.8299 14.0752 83.4054 14.3006 83.2836 14.6946H82.221C82.3332 13.7374 83.2317 13.1234 84.4933 13.1234C85.8875 13.1234 86.6739 13.8189 86.6739 14.9961V18.8039H85.6173V18.0207H85.5305C85.3542 18.3017 85.1067 18.5307 84.8133 18.6844C84.5198 18.8381 84.1909 18.9111 83.8601 18.8957C83.6266 18.9201 83.3907 18.8951 83.1674 18.8225C82.9442 18.7498 82.7386 18.6311 82.5639 18.4739C82.3893 18.3168 82.2494 18.1247 82.1534 17.9101C82.0574 17.6955 82.0073 17.4631 82.0063 17.2279ZM85.5811 16.7517V16.2857L84.2231 16.3728C83.4573 16.4241 83.1099 16.6852 83.1099 17.1765C83.1099 17.6781 83.5441 17.9699 84.1411 17.9699C84.3161 17.9877 84.4928 17.97 84.6607 17.9179C84.8287 17.8658 84.9845 17.7804 85.1189 17.6667C85.2532 17.5531 85.3634 17.4135 85.4428 17.2563C85.5222 17.0991 85.5693 16.9275 85.5811 16.7517Z" fill="white"/>
<path d="M88.1165 16.015C88.1165 14.2541 89.0198 13.1385 90.4249 13.1385C90.7724 13.1224 91.1174 13.2059 91.4194 13.379C91.7214 13.5521 91.9679 13.8078 92.1303 14.1162H92.2123V11.0554H93.3098V18.8039H92.2581V17.9234H92.1713C91.9964 18.2297 91.7412 18.4822 91.4334 18.6536C91.1256 18.825 90.7768 18.9087 90.4249 18.8957C89.0102 18.8958 88.1165 17.7802 88.1165 16.015ZM89.2502 16.015C89.2502 17.197 89.8062 17.9083 90.7361 17.9083C91.6611 17.9083 92.2328 17.1868 92.2328 16.0198C92.2328 14.8584 91.6551 14.1265 90.7361 14.1265C89.8122 14.1265 89.2502 14.8426 89.2502 16.015Z" fill="white"/>
<path d="M97.8503 16.015C97.8153 15.6488 97.8571 15.2793 97.973 14.9302C98.0889 14.5811 98.2764 14.2601 98.5233 13.9878C98.7702 13.7156 99.0712 13.4981 99.4069 13.3492C99.7427 13.2003 100.106 13.1234 100.473 13.1234C100.84 13.1234 101.203 13.2003 101.539 13.3492C101.875 13.4981 102.176 13.7156 102.423 13.9878C102.669 14.2601 102.857 14.5811 102.973 14.9302C103.089 15.2793 103.13 15.6488 103.096 16.015C103.131 16.3816 103.09 16.7517 102.974 17.1013C102.859 17.451 102.671 17.7725 102.424 18.0453C102.177 18.3181 101.876 18.5361 101.54 18.6853C101.204 18.8345 100.84 18.9115 100.473 18.9115C100.105 18.9115 99.7418 18.8345 99.4057 18.6853C99.0697 18.5361 98.7685 18.3181 98.5215 18.0453C98.2745 17.7725 98.0872 17.451 97.9716 17.1013C97.856 16.7517 97.8147 16.3816 97.8503 16.015ZM101.967 16.015C101.967 14.807 101.425 14.1006 100.475 14.1006C99.5207 14.1006 98.984 14.807 98.984 16.015C98.984 17.2327 99.5207 17.9337 100.475 17.9337C101.425 17.9337 101.967 17.2279 101.967 16.015Z" fill="white"/>
<path d="M104.568 13.2309H105.625V14.1162H105.707C105.846 13.7983 106.08 13.5317 106.378 13.3537C106.675 13.1758 107.021 13.0952 107.366 13.1234C107.637 13.103 107.909 13.1439 108.161 13.243C108.414 13.3421 108.641 13.4969 108.826 13.696C109.011 13.8951 109.149 14.1333 109.229 14.393C109.31 14.6526 109.331 14.9271 109.291 15.1961V18.8038H108.194V15.4723C108.194 14.5767 107.805 14.1314 106.994 14.1314C106.81 14.1228 106.626 14.1541 106.456 14.2232C106.285 14.2923 106.132 14.3975 106.006 14.5317C105.88 14.6658 105.784 14.8257 105.725 15.0004C105.666 15.175 105.646 15.3604 105.666 15.5436V18.8039H104.568V13.2309Z" fill="white"/>
<path d="M115.493 11.8434V13.2563H116.698V14.1827H115.493V17.0484C115.493 17.6321 115.733 17.8878 116.279 17.8878C116.419 17.8873 116.559 17.8788 116.698 17.8624V18.7785C116.501 18.8138 116.301 18.8326 116.101 18.8347C114.88 18.8347 114.394 18.4044 114.394 17.33V14.1827H113.511V13.2563H114.394V11.8434H115.493Z" fill="white"/>
<path d="M118.197 11.0554H119.285V14.1265H119.372C119.518 13.8056 119.759 13.5375 120.062 13.3589C120.366 13.1802 120.717 13.0997 121.067 13.1282C121.337 13.1135 121.606 13.1586 121.856 13.2601C122.105 13.3616 122.33 13.5172 122.513 13.7156C122.696 13.9141 122.833 14.1505 122.914 14.4081C122.995 14.6657 123.019 14.9381 122.983 15.2058V18.8039H121.884V15.4771C121.884 14.587 121.47 14.1362 120.695 14.1362C120.506 14.1207 120.316 14.1467 120.139 14.2123C119.961 14.278 119.8 14.3817 119.667 14.5163C119.533 14.6509 119.431 14.813 119.367 14.9914C119.302 15.1698 119.278 15.3601 119.295 15.5491V18.8039H118.197L118.197 11.0554Z" fill="white"/>
<path d="M129.382 17.2992C129.233 17.8085 128.91 18.2491 128.469 18.5438C128.029 18.8386 127.499 18.9687 126.972 18.9115C126.606 18.9212 126.242 18.8508 125.905 18.7054C125.569 18.5599 125.268 18.3428 125.023 18.0691C124.779 17.7954 124.597 17.4717 124.49 17.1205C124.383 16.7692 124.353 16.3988 124.403 16.035C124.355 15.67 124.385 15.2988 124.491 14.9465C124.598 14.5942 124.779 14.2689 125.022 13.9929C125.266 13.7168 125.565 13.4963 125.901 13.3463C126.236 13.1963 126.6 13.1202 126.967 13.1234C128.515 13.1234 129.448 14.1828 129.448 15.9328V16.3166H125.521V16.3782C125.504 16.5827 125.53 16.7886 125.597 16.9826C125.664 17.1766 125.77 17.3544 125.91 17.5048C126.049 17.6551 126.218 17.7745 126.406 17.8555C126.595 17.9364 126.798 17.977 127.002 17.9748C127.265 18.0063 127.531 17.959 127.767 17.8387C128.002 17.7184 128.197 17.5305 128.325 17.2991L129.382 17.2992ZM125.521 15.5032H128.33C128.344 15.3161 128.319 15.1282 128.256 14.9516C128.193 14.775 128.094 14.6135 127.965 14.4775C127.836 14.3416 127.68 14.2341 127.507 14.1621C127.334 14.0901 127.149 14.0552 126.961 14.0595C126.772 14.0571 126.583 14.0928 126.407 14.1645C126.232 14.2362 126.072 14.3425 125.938 14.477C125.803 14.6116 125.697 14.7717 125.626 14.9479C125.554 15.1241 125.519 15.3129 125.521 15.5032Z" fill="white"/>
</g>
<defs>
<clipPath id="clip0_114_3843">
<rect width="147.944" height="49.4529" fill="white" transform="translate(0 0.613541)"/>
</clipPath>
</defs>
</svg>
