<svg width="695" height="241" viewBox="0 0 695 241" fill="none" xmlns="http://www.w3.org/2000/svg">
<path d="M106.6 141.5C106.6 139.291 108.391 137.5 110.6 137.5C112.809 137.5 114.6 139.291 114.6 141.5L114.6 215.5C114.6 217.709 112.809 219.5 110.6 219.5C108.391 219.5 106.6 217.709 106.6 215.5L106.6 141.5Z" fill="#F5F5F5"/>
<path d="M118.6 37.5C118.6 35.2909 120.391 33.5 122.6 33.5C124.809 33.5 126.6 35.2909 126.6 37.5L126.6 215.5C126.6 217.709 124.809 219.5 122.6 219.5C120.391 219.5 118.6 217.709 118.6 215.5L118.6 37.5Z" fill="#DEDEDE"/>
<path d="M130.6 99.5C130.6 97.2909 132.391 95.5 134.6 95.5C136.809 95.5 138.6 97.2909 138.6 99.5L138.6 215.5C138.6 217.709 136.809 219.5 134.6 219.5C132.391 219.5 130.6 217.709 130.6 215.5L130.6 99.5Z" fill="#F0F0F0"/>
<path d="M233.8 122.5C233.8 120.291 235.591 118.5 237.8 118.5C240.009 118.5 241.8 120.291 241.8 122.5L241.8 215.5C241.8 217.709 240.009 219.5 237.8 219.5C235.591 219.5 233.8 217.709 233.8 215.5L233.8 122.5Z" fill="#F5F5F5"/>
<path d="M245.8 59.5C245.8 57.2909 247.591 55.5 249.8 55.5C252.009 55.5 253.8 57.2909 253.8 59.5L253.8 215.5C253.8 217.709 252.009 219.5 249.8 219.5C247.591 219.5 245.8 217.709 245.8 215.5L245.8 59.5Z" fill="#DEDEDE"/>
<path d="M257.8 117.5C257.8 115.291 259.591 113.5 261.8 113.5C264.009 113.5 265.8 115.291 265.8 117.5L265.8 215.5C265.8 217.709 264.009 219.5 261.8 219.5C259.591 219.5 257.8 217.709 257.8 215.5L257.8 117.5Z" fill="#F0F0F0"/>
<path d="M361 110.5C361 108.291 362.791 106.5 365 106.5C367.209 106.5 369 108.291 369 110.5L369 215.5C369 217.709 367.209 219.5 365 219.5C362.791 219.5 361 217.709 361 215.5L361 110.5Z" fill="#F5F5F5"/>
<path d="M373 65.5C373 63.2909 374.791 61.5 377 61.5C379.209 61.5 381 63.2909 381 65.5L381 215.5C381 217.709 379.209 219.5 377 219.5C374.791 219.5 373 217.709 373 215.5L373 65.5Z" fill="#DEDEDE"/>
<path d="M385 142.5C385 140.291 386.791 138.5 389 138.5C391.209 138.5 393 140.291 393 142.5L393 215.5C393 217.709 391.209 219.5 389 219.5C386.791 219.5 385 217.709 385 215.5L385 142.5Z" fill="#F0F0F0"/>
<path d="M488.2 105.5C488.2 103.291 489.991 101.5 492.2 101.5C494.409 101.5 496.2 103.291 496.2 105.5L496.2 215.5C496.2 217.709 494.409 219.5 492.2 219.5C489.991 219.5 488.2 217.709 488.2 215.5L488.2 105.5Z" fill="#F5F5F5"/>
<path d="M500.2 80.5C500.2 78.2909 501.991 76.5 504.2 76.5C506.409 76.5 508.2 78.2909 508.2 80.5L508.2 215.5C508.2 217.709 506.409 219.5 504.2 219.5C501.991 219.5 500.2 217.709 500.2 215.5L500.2 80.5Z" fill="#DEDEDE"/>
<path d="M512.2 196.5C512.2 194.291 513.991 192.5 516.2 192.5C518.409 192.5 520.2 194.291 520.2 196.5V215.5C520.2 217.709 518.409 219.5 516.2 219.5C513.991 219.5 512.2 217.709 512.2 215.5V196.5Z" fill="#F0F0F0"/>
<path d="M615.4 100.5C615.4 98.2909 617.191 96.5 619.4 96.5C621.609 96.5 623.4 98.2909 623.4 100.5L623.4 215.5C623.4 217.709 621.609 219.5 619.4 219.5C617.191 219.5 615.4 217.709 615.4 215.5L615.4 100.5Z" fill="#F5F5F5"/>
<path d="M627.4 91.5C627.4 89.2909 629.191 87.5 631.4 87.5C633.609 87.5 635.4 89.2909 635.4 91.5L635.4 215.5C635.4 217.709 633.609 219.5 631.4 219.5C629.191 219.5 627.4 217.709 627.4 215.5L627.4 91.5Z" fill="#DEDEDE"/>
<path d="M639.4 212.5C639.4 210.291 641.191 208.5 643.4 208.5C645.609 208.5 647.4 210.291 647.4 212.5V215.5C647.4 217.709 645.609 219.5 643.4 219.5C641.191 219.5 639.4 217.709 639.4 215.5V212.5Z" fill="#F0F0F0"/>
<path d="M0 25.2163C0 23.0072 1.79086 21.2163 4 21.2163H38C40.2091 21.2163 42 23.0072 42 25.2163V33.2163C42 35.4254 40.2091 37.2163 38 37.2163H4C1.79086 37.2163 0 35.4254 0 33.2163V25.2163Z" fill="black" fill-opacity="0.06"/>
<path d="M50 29.2163H695" stroke="black" stroke-opacity="0.06" stroke-dasharray="4 4"/>
<path d="M0 61.5034C0 59.2943 1.79086 57.5034 4 57.5034H38C40.2091 57.5034 42 59.2943 42 61.5034V69.5034C42 71.7126 40.2091 73.5034 38 73.5034H4C1.79086 73.5034 0 71.7126 0 69.5034V61.5034Z" fill="black" fill-opacity="0.06"/>
<path d="M50 65.5034H695" stroke="black" stroke-opacity="0.06" stroke-dasharray="4 4"/>
<path d="M0 99.1963C0 96.9872 1.79086 95.1963 4 95.1963H38C40.2091 95.1963 42 96.9872 42 99.1963V107.196C42 109.405 40.2091 111.196 38 111.196H4C1.79086 111.196 0 109.405 0 107.196V99.1963Z" fill="black" fill-opacity="0.06"/>
<path d="M50 103.196H695" stroke="black" stroke-opacity="0.06" stroke-dasharray="4 4"/>
<path d="M0 138.125C0 135.916 1.79086 134.125 4 134.125H38C40.2091 134.125 42 135.916 42 138.125V146.125C42 148.335 40.2091 150.125 38 150.125H4C1.79086 150.125 0 148.335 0 146.125V138.125Z" fill="black" fill-opacity="0.06"/>
<path d="M50 142.125H695" stroke="black" stroke-opacity="0.06" stroke-dasharray="4 4"/>
<path d="M0 176.83C0 174.62 1.79086 172.83 4 172.83H38C40.2091 172.83 42 174.62 42 176.83V184.83C42 187.039 40.2091 188.83 38 188.83H4C1.79086 188.83 0 187.039 0 184.83V176.83Z" fill="black" fill-opacity="0.06"/>
<path d="M50 180.83H695" stroke="black" stroke-opacity="0.06" stroke-dasharray="4 4"/>
<path d="M0 215.535C0 213.326 1.79086 211.535 4 211.535H38C40.2091 211.535 42 213.326 42 215.535V223.535C42 225.744 40.2091 227.535 38 227.535H4C1.79086 227.535 0 225.744 0 223.535V215.535Z" fill="black" fill-opacity="0.06"/>
<path d="M50 219.535H695" stroke="black" stroke-opacity="0.06"/>
<path d="M101.6 228.5C101.6 226.291 103.391 224.5 105.6 224.5H139.6C141.809 224.5 143.6 226.291 143.6 228.5V236.5C143.6 238.709 141.809 240.5 139.6 240.5H105.6C103.391 240.5 101.6 238.709 101.6 236.5V228.5Z" fill="black" fill-opacity="0.06"/>
<path d="M228.8 228.5C228.8 226.291 230.591 224.5 232.8 224.5H266.8C269.009 224.5 270.8 226.291 270.8 228.5V236.5C270.8 238.709 269.009 240.5 266.8 240.5H232.8C230.591 240.5 228.8 238.709 228.8 236.5V228.5Z" fill="black" fill-opacity="0.06"/>
<path d="M356 228.5C356 226.291 357.791 224.5 360 224.5H394C396.209 224.5 398 226.291 398 228.5V236.5C398 238.709 396.209 240.5 394 240.5H360C357.791 240.5 356 238.709 356 236.5V228.5Z" fill="black" fill-opacity="0.06"/>
<path d="M483.2 228.5C483.2 226.291 484.991 224.5 487.2 224.5H521.2C523.409 224.5 525.2 226.291 525.2 228.5V236.5C525.2 238.709 523.409 240.5 521.2 240.5H487.2C484.991 240.5 483.2 238.709 483.2 236.5V228.5Z" fill="black" fill-opacity="0.06"/>
<path d="M610.4 228.5C610.4 226.291 612.191 224.5 614.4 224.5H648.4C650.609 224.5 652.4 226.291 652.4 228.5V236.5C652.4 238.709 650.609 240.5 648.4 240.5H614.4C612.191 240.5 610.4 238.709 610.4 236.5V228.5Z" fill="black" fill-opacity="0.06"/>
</svg>
