<svg width="23" height="12" viewBox="0 0 23 12" fill="none" xmlns="http://www.w3.org/2000/svg">
<path d="M16.8235 0.223628C14.8935 0.223628 13.0779 1.11242 11.5669 2.78842C11.4146 2.96618 11.2622 3.14394 11.1098 3.32169C11.0337 3.22012 10.9575 3.13124 10.8813 3.04236C10.8432 2.99157 10.8051 2.95348 10.767 2.90269C10.7289 2.8519 10.6908 2.81381 10.6528 2.76303C10.6147 2.72493 10.5766 2.67415 10.5385 2.63606C10.5004 2.59797 10.4623 2.54718 10.4115 2.50909C10.3734 2.471 10.3353 2.42021 10.2845 2.38212C10.2718 2.36942 10.2718 2.36942 10.2718 2.35672C10.2591 2.34403 10.2591 2.34403 10.2465 2.33133C9.89094 1.97581 9.51003 1.65839 9.11642 1.39175C7.9737 0.604537 6.72939 0.210938 5.40891 0.210938C2.42512 0.210938 0 2.71224 0 5.78494C0 6.35624 0.088878 6.91494 0.241242 7.43554C0.380908 7.87994 0.571363 8.31164 0.812605 8.70524C1.76488 10.2923 3.46627 11.3461 5.40891 11.3461C7.33885 11.3461 9.15451 10.4573 10.6655 8.78134C10.8178 8.60364 10.9702 8.42584 11.1225 8.24814C11.4146 8.62904 11.732 8.98454 12.0621 9.28924C12.4049 9.61934 12.7605 9.91144 13.1287 10.1653C14.2714 10.9525 15.5157 11.3461 16.8362 11.3461C19.82 11.3461 22.2451 8.84484 22.2451 5.77224C22.2324 2.71224 19.8073 0.223628 16.8235 0.223628ZM5.72633 8.70524C5.67554 8.70524 5.62476 8.71794 5.57397 8.71794C5.52318 8.71794 5.47239 8.71794 5.4216 8.71794C5.37082 8.71794 5.32003 8.71794 5.28194 8.71794C4.39315 8.66714 3.61864 8.18464 3.14885 7.44824C2.84412 6.97844 2.66636 6.40704 2.66636 5.79764C2.66636 4.18509 3.91067 2.8646 5.4343 2.8646C6.04376 2.8646 7.41503 3.05506 8.74821 4.566C8.76091 4.57869 8.76091 4.57869 8.7736 4.59139C8.799 4.62948 8.83709 4.65487 8.86248 4.69297C8.88788 4.73106 8.92597 4.76915 8.96406 4.80724C8.98945 4.83264 9.01485 4.87074 9.04024 4.89614C9.14182 5.02304 9.24339 5.16274 9.34497 5.31514C9.39576 5.39134 9.44654 5.46744 9.49733 5.54364C9.52273 5.58174 9.53542 5.60714 9.56082 5.64524C9.58621 5.68334 9.6116 5.73414 9.637 5.78494C8.21494 8.12114 6.60242 8.61634 5.72633 8.70524ZM16.8235 8.71794C16.214 8.71794 14.8174 8.51474 13.4588 6.95304C13.3572 6.82604 13.2429 6.69904 13.1414 6.55944C13.1033 6.50864 13.0779 6.47054 13.0398 6.41974C13.0144 6.39434 12.989 6.35624 12.9763 6.31814C12.9636 6.29274 12.9509 6.28004 12.9382 6.25474C12.8366 6.10234 12.7351 5.94994 12.6335 5.78494C14.2206 3.14393 16.0871 2.8519 16.8362 2.8519C18.3598 2.8519 19.6041 4.17239 19.6041 5.78494C19.6041 7.39744 18.3471 8.71794 16.8235 8.71794Z" fill="#10B346"/>
<path d="M12.6233 5.78516C12.8899 6.24226 13.1692 6.62316 13.4613 6.94056C13.1819 7.44846 12.5725 8.52766 12.0646 9.28946C11.7345 8.97206 11.4297 8.62926 11.125 8.24836C11.6964 7.44846 12.1789 6.59776 12.217 6.53426C12.2804 6.39456 12.6233 5.78516 12.6233 5.78516Z" fill="url(#paint0_linear_11860_34584)"/>
<path d="M9.62315 5.78656C9.33112 5.30406 9.0391 4.89776 8.73438 4.56767C9.11529 4.009 9.76283 3.03134 10.2453 2.3457C10.55 2.63773 10.842 2.96785 11.1214 3.32337C10.55 4.12328 10.0294 5.03746 10.004 5.10096C9.99137 5.11366 9.62315 5.78656 9.62315 5.78656Z" fill="url(#paint1_linear_11860_34584)"/>
<defs>
<linearGradient id="paint0_linear_11860_34584" x1="13.3318" y1="8.39006" x2="11.8189" y2="7.09336" gradientUnits="userSpaceOnUse">
<stop offset="0.3325" stop-color="#10B346"/>
<stop offset="1" stop-color="#0DA43F"/>
</linearGradient>
<linearGradient id="paint1_linear_11860_34584" x1="10.9891" y1="4.90345" x2="9.49569" y2="3.57153" gradientUnits="userSpaceOnUse">
<stop stop-color="#0DA43F"/>
<stop offset="0.6675" stop-color="#10B346"/>
</linearGradient>
</defs>
</svg>
