<svg width="302" height="228" viewBox="0 0 302 228" fill="none" xmlns="http://www.w3.org/2000/svg">
<path d="M285.628 142.98C285.448 136.366 285.961 125.087 280.163 120.443C275.069 116.365 271.108 121.899 269.678 126.363C266.215 137.192 267.841 149.133 267.851 160.311C267.851 160.481 267.851 160.65 267.851 160.841C267.581 169.07 266.591 177.971 267.491 186.184C267.491 186.184 266.607 177.955 260.147 181.482C253.686 185.009 263.377 203.516 263.377 203.516C263.377 203.516 255.741 197.934 252.214 202.637C248.688 207.339 256.62 212.623 256.62 212.623C256.62 212.623 249.275 210.569 249.275 212.623C249.275 214.678 251.626 216.441 258.383 217.326H294.804C294.804 217.326 300.682 214.09 299.507 210.569C298.331 207.048 292.157 209.076 292.157 209.076C292.157 209.076 301.561 197.617 300.973 192.623C300.386 187.63 288.339 193.507 288.339 193.507C288.339 193.507 297.738 169.71 295.975 159.136C294.587 150.806 288.122 156.488 284.6 159.708C285.429 154.172 285.773 148.575 285.628 142.98Z" fill="#263238" stroke="white" stroke-linecap="round" stroke-linejoin="round"/>
<path opacity="0.5" d="M285.628 142.98C285.448 136.366 285.961 125.087 280.163 120.443C275.069 116.365 271.108 121.899 269.678 126.363C266.215 137.192 267.841 149.133 267.851 160.311C267.851 160.481 267.851 160.65 267.851 160.841C267.581 169.07 266.591 177.971 267.491 186.184C267.491 186.184 266.607 177.955 260.147 181.482C253.686 185.009 263.377 203.516 263.377 203.516C263.377 203.516 255.741 197.934 252.214 202.637C248.688 207.339 256.62 212.623 256.62 212.623C256.62 212.623 249.275 210.569 249.275 212.623C249.275 214.678 251.626 216.441 258.383 217.326H294.804C294.804 217.326 300.682 214.09 299.507 210.569C298.331 207.048 292.157 209.076 292.157 209.076C292.157 209.076 301.561 197.617 300.973 192.623C300.386 187.63 288.339 193.507 288.339 193.507C288.339 193.507 297.738 169.71 295.975 159.136C294.587 150.806 288.122 156.488 284.6 159.708C285.429 154.172 285.773 148.575 285.628 142.98Z" fill="white"/>
<path d="M273.941 217.008L276.589 136.218" stroke="white" stroke-linecap="round" stroke-linejoin="round"/>
<path d="M275.413 183.224L289.218 170.298" stroke="white" stroke-linecap="round" stroke-linejoin="round"/>
<path d="M281.874 177.346L284.812 169.123" stroke="white" stroke-linecap="round" stroke-linejoin="round"/>
<path d="M263.954 193.211L274.529 204.67" stroke="white" stroke-linecap="round" stroke-linejoin="round"/>
<path d="M292.157 199.676L274.529 208.784" stroke="white" stroke-linecap="round" stroke-linejoin="round"/>
<path d="M282.758 204.961L289.218 204.67" stroke="white" stroke-linecap="round" stroke-linejoin="round"/>
<path d="M273.941 217.008L276.589 136.218" stroke="#263238" stroke-linecap="round" stroke-linejoin="round"/>
<path d="M275.413 183.224L289.218 170.298" stroke="#263238" stroke-linecap="round" stroke-linejoin="round"/>
<path d="M281.874 177.346L284.812 169.123" stroke="#263238" stroke-linecap="round" stroke-linejoin="round"/>
<path d="M263.954 193.211L274.529 204.67" stroke="#263238" stroke-linecap="round" stroke-linejoin="round"/>
<path d="M292.157 199.676L274.529 208.784" stroke="#263238" stroke-linecap="round" stroke-linejoin="round"/>
<path d="M282.758 204.961L289.218 204.67" stroke="#263238" stroke-linecap="round" stroke-linejoin="round"/>
<g opacity="0.8">
<path d="M273.941 217.008L276.589 136.218" stroke="white" stroke-linecap="round" stroke-linejoin="round"/>
<path d="M275.413 183.224L289.218 170.298" stroke="white" stroke-linecap="round" stroke-linejoin="round"/>
<path d="M281.874 177.346L284.812 169.123" stroke="white" stroke-linecap="round" stroke-linejoin="round"/>
<path d="M263.954 193.211L274.529 204.67" stroke="white" stroke-linecap="round" stroke-linejoin="round"/>
<path d="M292.157 199.676L274.529 208.784" stroke="white" stroke-linecap="round" stroke-linejoin="round"/>
<path d="M282.758 204.961L289.218 204.67" stroke="white" stroke-linecap="round" stroke-linejoin="round"/>
</g>
<path d="M223.477 200.683C223.477 208.896 229.985 215.557 229.985 215.557C229.985 215.557 236.493 208.896 236.493 200.683C236.493 192.47 229.985 185.808 229.985 185.808C229.985 185.808 223.477 192.464 223.477 200.683Z" fill="#263238"/>
<path d="M218.965 213.354C222.142 216.918 227.512 217.305 227.512 217.305C227.512 217.305 227.771 211.909 224.615 208.345C221.459 204.781 216.069 204.395 216.069 204.395C216.069 204.395 215.804 209.79 218.965 213.354Z" fill="#263238"/>
<path d="M235.55 208.223C232.23 211.639 232.251 217.04 232.251 217.04C232.251 217.04 237.647 216.897 240.962 213.476C244.277 210.055 244.266 204.659 244.266 204.659C244.266 204.659 238.865 204.802 235.55 208.223Z" fill="#263238"/>
<g opacity="0.5">
<path d="M223.477 200.683C223.477 208.896 229.985 215.557 229.985 215.557C229.985 215.557 236.493 208.896 236.493 200.683C236.493 192.47 229.985 185.808 229.985 185.808C229.985 185.808 223.477 192.464 223.477 200.683Z" fill="white"/>
<path d="M229.985 215.557V185.808" stroke="white" stroke-linecap="round" stroke-linejoin="round"/>
<path d="M229.985 196.383L226.342 193.2" stroke="white" stroke-linecap="round" stroke-linejoin="round"/>
<path d="M230.043 201.297L234.555 194.762" stroke="white" stroke-linecap="round" stroke-linejoin="round"/>
<path d="M229.985 204.13L224.605 199.332" stroke="white" stroke-linecap="round" stroke-linejoin="round"/>
<path d="M230.043 207.948L235.365 203.208" stroke="white" stroke-linecap="round" stroke-linejoin="round"/>
<path d="M230.043 211.247L225.875 207.948" stroke="white" stroke-linecap="round" stroke-linejoin="round"/>
<path d="M218.965 213.354C222.142 216.918 227.512 217.305 227.512 217.305C227.512 217.305 227.771 211.909 224.615 208.345C221.459 204.781 216.069 204.395 216.069 204.395C216.069 204.395 215.804 209.79 218.965 213.354Z" fill="white"/>
<path d="M227.512 217.305L216.069 204.395" stroke="white" stroke-linecap="round" stroke-linejoin="round"/>
<path d="M220.136 208.986L217.329 209.007" stroke="white" stroke-linecap="round" stroke-linejoin="round"/>
<path d="M222.052 211.093L221.496 206.523" stroke="white" stroke-linecap="round" stroke-linejoin="round"/>
<path d="M223.117 212.348L218.939 212.332" stroke="white" stroke-linecap="round" stroke-linejoin="round"/>
<path d="M224.61 213.979L225.092 209.875" stroke="white" stroke-linecap="round" stroke-linejoin="round"/>
<path d="M225.881 215.409L222.804 215.584" stroke="white" stroke-linecap="round" stroke-linejoin="round"/>
<path d="M235.55 208.223C232.23 211.639 232.251 217.04 232.251 217.04C232.251 217.04 237.647 216.897 240.962 213.476C244.277 210.055 244.266 204.659 244.266 204.659C244.266 204.659 238.865 204.802 235.55 208.223Z" fill="white"/>
<path d="M232.251 217.04L244.266 204.659" stroke="white" stroke-linecap="round" stroke-linejoin="round"/>
<path d="M239.993 209.06L239.765 206.264" stroke="white" stroke-linecap="round" stroke-linejoin="round"/>
<path d="M238.033 211.13L242.55 210.23" stroke="white" stroke-linecap="round" stroke-linejoin="round"/>
<path d="M236.863 212.285L236.567 208.117" stroke="white" stroke-linecap="round" stroke-linejoin="round"/>
<path d="M235.344 213.894L239.474 214.074" stroke="white" stroke-linecap="round" stroke-linejoin="round"/>
<path d="M234.015 215.266L233.612 212.216" stroke="white" stroke-linecap="round" stroke-linejoin="round"/>
</g>
<path d="M229.985 215.557V185.808" stroke="#263238" stroke-linecap="round" stroke-linejoin="round"/>
<path d="M229.985 196.383L226.342 193.2" stroke="#263238" stroke-linecap="round" stroke-linejoin="round"/>
<path d="M230.043 201.297L234.555 194.762" stroke="#263238" stroke-linecap="round" stroke-linejoin="round"/>
<path d="M229.985 204.13L224.605 199.332" stroke="#263238" stroke-linecap="round" stroke-linejoin="round"/>
<path d="M230.043 207.948L235.365 203.208" stroke="#263238" stroke-linecap="round" stroke-linejoin="round"/>
<path d="M230.043 211.247L225.875 207.948" stroke="#263238" stroke-linecap="round" stroke-linejoin="round"/>
<g opacity="0.7">
<path d="M229.985 215.557V185.808" stroke="white" stroke-linecap="round" stroke-linejoin="round"/>
<path d="M229.985 196.383L226.342 193.2" stroke="white" stroke-linecap="round" stroke-linejoin="round"/>
<path d="M230.043 201.297L234.555 194.762" stroke="white" stroke-linecap="round" stroke-linejoin="round"/>
<path d="M229.985 204.13L224.605 199.332" stroke="white" stroke-linecap="round" stroke-linejoin="round"/>
<path d="M230.043 207.948L235.365 203.208" stroke="white" stroke-linecap="round" stroke-linejoin="round"/>
<path d="M230.043 211.247L225.875 207.948" stroke="white" stroke-linecap="round" stroke-linejoin="round"/>
</g>
<path d="M227.512 217.305L216.069 204.395" stroke="#263238" stroke-linecap="round" stroke-linejoin="round"/>
<path d="M220.136 208.986L217.329 209.007" stroke="#263238" stroke-linecap="round" stroke-linejoin="round"/>
<path d="M222.052 211.093L221.496 206.523" stroke="#263238" stroke-linecap="round" stroke-linejoin="round"/>
<path d="M223.117 212.348L218.939 212.332" stroke="#263238" stroke-linecap="round" stroke-linejoin="round"/>
<path d="M224.61 213.979L225.092 209.875" stroke="#263238" stroke-linecap="round" stroke-linejoin="round"/>
<path d="M225.881 215.409L222.804 215.584" stroke="#263238" stroke-linecap="round" stroke-linejoin="round"/>
<g opacity="0.7">
<path d="M227.512 217.305L216.069 204.395" stroke="white" stroke-linecap="round" stroke-linejoin="round"/>
<path d="M220.136 208.986L217.329 209.007" stroke="white" stroke-linecap="round" stroke-linejoin="round"/>
<path d="M222.052 211.093L221.496 206.523" stroke="white" stroke-linecap="round" stroke-linejoin="round"/>
<path d="M223.117 212.348L218.939 212.332" stroke="white" stroke-linecap="round" stroke-linejoin="round"/>
<path d="M224.61 213.979L225.092 209.875" stroke="white" stroke-linecap="round" stroke-linejoin="round"/>
<path d="M225.881 215.409L222.804 215.584" stroke="white" stroke-linecap="round" stroke-linejoin="round"/>
</g>
<path d="M232.251 217.04L244.266 204.659" stroke="#263238" stroke-linecap="round" stroke-linejoin="round"/>
<path d="M239.993 209.06L239.765 206.264" stroke="#263238" stroke-linecap="round" stroke-linejoin="round"/>
<path d="M238.033 211.13L242.55 210.23" stroke="#263238" stroke-linecap="round" stroke-linejoin="round"/>
<path d="M236.863 212.285L236.567 208.117" stroke="#263238" stroke-linecap="round" stroke-linejoin="round"/>
<path d="M235.344 213.894L239.474 214.074" stroke="#263238" stroke-linecap="round" stroke-linejoin="round"/>
<path d="M234.015 215.266L233.612 212.216" stroke="#263238" stroke-linecap="round" stroke-linejoin="round"/>
<g opacity="0.7">
<path d="M232.251 217.04L244.266 204.659" stroke="white" stroke-linecap="round" stroke-linejoin="round"/>
<path d="M239.993 209.06L239.765 206.264" stroke="white" stroke-linecap="round" stroke-linejoin="round"/>
<path d="M238.033 211.13L242.55 210.23" stroke="white" stroke-linecap="round" stroke-linejoin="round"/>
<path d="M236.863 212.285L236.567 208.117" stroke="white" stroke-linecap="round" stroke-linejoin="round"/>
<path d="M235.344 213.894L239.474 214.074" stroke="white" stroke-linecap="round" stroke-linejoin="round"/>
<path d="M234.015 215.266L233.612 212.216" stroke="white" stroke-linecap="round" stroke-linejoin="round"/>
</g>
<path d="M16.3722 142.98C16.547 136.366 16.0386 125.087 21.837 120.443C26.9311 116.366 30.892 121.899 32.3164 126.363C35.7848 137.192 34.1539 149.133 34.1486 160.311C34.1486 160.481 34.1486 160.65 34.1486 160.841C34.4239 169.07 35.4089 177.971 34.514 186.184C34.514 186.184 35.393 177.955 41.8585 181.482C48.3241 185.009 38.6231 203.516 38.6231 203.516C38.6231 203.516 46.2642 197.934 49.7909 202.637C53.3176 207.339 45.3958 212.602 45.3958 212.602C45.3958 212.602 52.7404 210.548 52.7404 212.602C52.7404 214.657 50.3893 216.42 43.6325 217.305H7.19549C7.19549 217.305 1.31771 214.069 2.49326 210.548C3.66882 207.026 9.83784 209.076 9.83784 209.076C9.83784 209.076 0.438683 197.617 1.02646 192.623C1.61424 187.63 13.6611 193.507 13.6611 193.507C13.6611 193.507 4.2566 169.71 6.01993 159.152C7.4073 150.822 13.8782 156.504 17.3942 159.723C16.5662 154.183 16.2242 148.58 16.3722 142.98Z" fill="#263238" stroke="white" stroke-linecap="round" stroke-linejoin="round"/>
<path opacity="0.5" d="M16.3722 142.98C16.547 136.366 16.0386 125.087 21.837 120.443C26.9311 116.366 30.892 121.899 32.3164 126.363C35.7848 137.192 34.1539 149.133 34.1486 160.311C34.1486 160.481 34.1486 160.65 34.1486 160.841C34.4239 169.07 35.4089 177.971 34.514 186.184C34.514 186.184 35.393 177.955 41.8585 181.482C48.3241 185.009 38.6231 203.516 38.6231 203.516C38.6231 203.516 46.2642 197.934 49.7909 202.637C53.3176 207.339 45.3958 212.602 45.3958 212.602C45.3958 212.602 52.7404 210.548 52.7404 212.602C52.7404 214.657 50.3893 216.42 43.6325 217.305H7.19549C7.19549 217.305 1.31771 214.069 2.49326 210.548C3.66882 207.026 9.83784 209.076 9.83784 209.076C9.83784 209.076 0.438683 197.617 1.02646 192.623C1.61424 187.63 13.6611 193.507 13.6611 193.507C13.6611 193.507 4.2566 169.71 6.01993 159.152C7.4073 150.822 13.8782 156.504 17.3942 159.723C16.5662 154.183 16.2242 148.58 16.3722 142.98Z" fill="white"/>
<path d="M28.0537 217.008L25.4114 136.218" stroke="white" stroke-linecap="round" stroke-linejoin="round"/>
<path d="M26.587 183.224L12.7769 170.298" stroke="white" stroke-linecap="round" stroke-linejoin="round"/>
<path d="M20.1213 177.346L17.1824 169.123" stroke="white" stroke-linecap="round" stroke-linejoin="round"/>
<path d="M38.0408 193.211L27.4661 204.67" stroke="white" stroke-linecap="round" stroke-linejoin="round"/>
<path d="M9.83789 199.676L27.466 208.784" stroke="white" stroke-linecap="round" stroke-linejoin="round"/>
<path d="M19.2424 204.961L12.7769 204.67" stroke="white" stroke-linecap="round" stroke-linejoin="round"/>
<path d="M28.0537 217.008L25.4114 136.218" stroke="#263238" stroke-linecap="round" stroke-linejoin="round"/>
<path d="M26.587 183.224L12.7769 170.298" stroke="#263238" stroke-linecap="round" stroke-linejoin="round"/>
<path d="M20.1213 177.346L17.1824 169.123" stroke="#263238" stroke-linecap="round" stroke-linejoin="round"/>
<path d="M38.0408 193.211L27.4661 204.67" stroke="#263238" stroke-linecap="round" stroke-linejoin="round"/>
<path d="M9.83789 199.676L27.466 208.784" stroke="#263238" stroke-linecap="round" stroke-linejoin="round"/>
<path d="M19.2424 204.961L12.7769 204.67" stroke="#263238" stroke-linecap="round" stroke-linejoin="round"/>
<g opacity="0.8">
<path d="M28.0537 217.008L25.4114 136.218" stroke="white" stroke-linecap="round" stroke-linejoin="round"/>
<path d="M26.587 183.224L12.7769 170.298" stroke="white" stroke-linecap="round" stroke-linejoin="round"/>
<path d="M20.1213 177.346L17.1824 169.123" stroke="white" stroke-linecap="round" stroke-linejoin="round"/>
<path d="M38.0408 193.211L27.4661 204.67" stroke="white" stroke-linecap="round" stroke-linejoin="round"/>
<path d="M9.83789 199.676L27.466 208.784" stroke="white" stroke-linecap="round" stroke-linejoin="round"/>
<path d="M19.2424 204.961L12.7769 204.67" stroke="white" stroke-linecap="round" stroke-linejoin="round"/>
</g>
<path d="M79.5822 200.683C79.5822 208.896 73.0742 215.557 73.0742 215.557C73.0742 215.557 66.5769 208.896 66.5769 200.683C66.5769 192.47 73.0848 185.808 73.0848 185.808C73.0848 185.808 79.5822 192.464 79.5822 200.683Z" fill="#263238"/>
<path d="M84.0886 213.354C80.9115 216.918 75.542 217.305 75.542 217.305C75.542 217.305 75.2826 211.909 78.4439 208.345C81.6052 204.781 86.9905 204.395 86.9905 204.395C86.9905 204.395 87.2288 209.79 84.0886 213.354Z" fill="#263238"/>
<path d="M67.509 208.223C70.8239 211.639 70.808 217.04 70.808 217.04C70.808 217.04 65.4121 216.897 62.0919 213.476C58.7718 210.055 58.793 204.659 58.793 204.659C58.793 204.659 64.1889 204.802 67.509 208.223Z" fill="#263238"/>
<g opacity="0.5">
<path d="M79.5822 200.683C79.5822 208.896 73.0742 215.557 73.0742 215.557C73.0742 215.557 66.5769 208.896 66.5769 200.683C66.5769 192.47 73.0848 185.808 73.0848 185.808C73.0848 185.808 79.5822 192.464 79.5822 200.683Z" fill="white"/>
<path d="M73.0745 215.557V185.808" stroke="white" stroke-linecap="round" stroke-linejoin="round"/>
<path d="M73.0745 196.383L76.7176 193.2" stroke="white" stroke-linecap="round" stroke-linejoin="round"/>
<path d="M73.016 201.297L68.5044 194.762" stroke="white" stroke-linecap="round" stroke-linejoin="round"/>
<path d="M73.0745 204.13L78.4545 199.332" stroke="white" stroke-linecap="round" stroke-linejoin="round"/>
<path d="M73.0161 207.948L67.6943 203.208" stroke="white" stroke-linecap="round" stroke-linejoin="round"/>
<path d="M73.0161 211.247L77.1782 207.948" stroke="white" stroke-linecap="round" stroke-linejoin="round"/>
<path d="M84.0886 213.354C80.9115 216.918 75.542 217.305 75.542 217.305C75.542 217.305 75.2826 211.909 78.4439 208.345C81.6052 204.781 86.9905 204.395 86.9905 204.395C86.9905 204.395 87.2288 209.79 84.0886 213.354Z" fill="white"/>
<path d="M75.542 217.305L86.9904 204.395" stroke="white" stroke-linecap="round" stroke-linejoin="round"/>
<path d="M82.9236 208.986L85.7248 209.007" stroke="white" stroke-linecap="round" stroke-linejoin="round"/>
<path d="M81.0068 211.093L81.5628 206.523" stroke="white" stroke-linecap="round" stroke-linejoin="round"/>
<path d="M79.937 212.348L84.1203 212.332" stroke="white" stroke-linecap="round" stroke-linejoin="round"/>
<path d="M78.4438 213.979L77.9619 209.875" stroke="white" stroke-linecap="round" stroke-linejoin="round"/>
<path d="M77.1782 215.409L80.2548 215.584" stroke="white" stroke-linecap="round" stroke-linejoin="round"/>
<path d="M67.509 208.223C70.8239 211.639 70.808 217.04 70.808 217.04C70.808 217.04 65.4121 216.897 62.0919 213.476C58.7718 210.055 58.793 204.659 58.793 204.659C58.793 204.659 64.1889 204.802 67.509 208.223Z" fill="white"/>
<path d="M70.808 217.04L58.793 204.659" stroke="white" stroke-linecap="round" stroke-linejoin="round"/>
<path d="M63.0608 209.06L63.2938 206.264" stroke="white" stroke-linecap="round" stroke-linejoin="round"/>
<path d="M65.0254 211.13L60.5085 210.23" stroke="white" stroke-linecap="round" stroke-linejoin="round"/>
<path d="M66.1904 212.285L66.4923 208.117" stroke="white" stroke-linecap="round" stroke-linejoin="round"/>
<path d="M67.7102 213.894L63.5798 214.074" stroke="white" stroke-linecap="round" stroke-linejoin="round"/>
<path d="M69.0447 215.266L69.4418 212.216" stroke="white" stroke-linecap="round" stroke-linejoin="round"/>
</g>
<path d="M73.0745 215.557V185.808" stroke="#263238" stroke-linecap="round" stroke-linejoin="round"/>
<path d="M73.0745 196.383L76.7176 193.2" stroke="#263238" stroke-linecap="round" stroke-linejoin="round"/>
<path d="M73.016 201.297L68.5044 194.762" stroke="#263238" stroke-linecap="round" stroke-linejoin="round"/>
<path d="M73.0745 204.13L78.4545 199.332" stroke="#263238" stroke-linecap="round" stroke-linejoin="round"/>
<path d="M73.0161 207.948L67.6943 203.208" stroke="#263238" stroke-linecap="round" stroke-linejoin="round"/>
<path d="M73.0161 211.247L77.1782 207.948" stroke="#263238" stroke-linecap="round" stroke-linejoin="round"/>
<g opacity="0.7">
<path d="M73.0742 215.557V185.808" stroke="white" stroke-linecap="round" stroke-linejoin="round"/>
<path d="M73.0742 196.383L76.7174 193.2" stroke="white" stroke-linecap="round" stroke-linejoin="round"/>
<path d="M73.016 201.297L68.5044 194.762" stroke="white" stroke-linecap="round" stroke-linejoin="round"/>
<path d="M73.0742 204.13L78.4542 199.332" stroke="white" stroke-linecap="round" stroke-linejoin="round"/>
<path d="M73.0161 207.948L67.6943 203.208" stroke="white" stroke-linecap="round" stroke-linejoin="round"/>
<path d="M73.0161 211.247L77.1782 207.948" stroke="white" stroke-linecap="round" stroke-linejoin="round"/>
</g>
<path d="M75.542 217.305L86.9904 204.395" stroke="#263238" stroke-linecap="round" stroke-linejoin="round"/>
<path d="M82.9236 208.986L85.7248 209.007" stroke="#263238" stroke-linecap="round" stroke-linejoin="round"/>
<path d="M81.0068 211.093L81.5628 206.523" stroke="#263238" stroke-linecap="round" stroke-linejoin="round"/>
<path d="M79.937 212.348L84.1203 212.332" stroke="#263238" stroke-linecap="round" stroke-linejoin="round"/>
<path d="M78.4438 213.979L77.9619 209.875" stroke="#263238" stroke-linecap="round" stroke-linejoin="round"/>
<path d="M77.1782 215.409L80.2548 215.584" stroke="#263238" stroke-linecap="round" stroke-linejoin="round"/>
<g opacity="0.7">
<path d="M75.542 217.305L86.9904 204.395" stroke="white" stroke-linecap="round" stroke-linejoin="round"/>
<path d="M82.9236 208.986L85.7248 209.007" stroke="white" stroke-linecap="round" stroke-linejoin="round"/>
<path d="M81.0066 211.093L81.5626 206.523" stroke="white" stroke-linecap="round" stroke-linejoin="round"/>
<path d="M79.937 212.348L84.1203 212.332" stroke="white" stroke-linecap="round" stroke-linejoin="round"/>
<path d="M78.4438 213.979L77.9619 209.875" stroke="white" stroke-linecap="round" stroke-linejoin="round"/>
<path d="M77.1782 215.409L80.2548 215.584" stroke="white" stroke-linecap="round" stroke-linejoin="round"/>
</g>
<path d="M70.808 217.04L58.793 204.659" stroke="#263238" stroke-linecap="round" stroke-linejoin="round"/>
<path d="M63.0608 209.06L63.2938 206.264" stroke="#263238" stroke-linecap="round" stroke-linejoin="round"/>
<path d="M65.0254 211.13L60.5085 210.23" stroke="#263238" stroke-linecap="round" stroke-linejoin="round"/>
<path d="M66.1904 212.285L66.4923 208.117" stroke="#263238" stroke-linecap="round" stroke-linejoin="round"/>
<path d="M67.7102 213.894L63.5798 214.074" stroke="#263238" stroke-linecap="round" stroke-linejoin="round"/>
<path d="M69.0447 215.266L69.4418 212.216" stroke="#263238" stroke-linecap="round" stroke-linejoin="round"/>
<g opacity="0.7">
<path d="M70.808 217.04L58.793 204.659" stroke="white" stroke-linecap="round" stroke-linejoin="round"/>
<path d="M63.0608 209.06L63.2938 206.264" stroke="white" stroke-linecap="round" stroke-linejoin="round"/>
<path d="M65.0254 211.13L60.5085 210.23" stroke="white" stroke-linecap="round" stroke-linejoin="round"/>
<path d="M66.1904 212.285L66.4923 208.117" stroke="white" stroke-linecap="round" stroke-linejoin="round"/>
<path d="M67.7102 213.894L63.5798 214.074" stroke="white" stroke-linecap="round" stroke-linejoin="round"/>
<path d="M69.0447 215.266L69.4418 212.216" stroke="white" stroke-linecap="round" stroke-linejoin="round"/>
</g>
<path d="M226.167 59.9282H83.019C82.9761 59.9289 82.9336 59.921 82.8937 59.9051C82.8539 59.8892 82.8177 59.8655 82.7871 59.8355C82.7566 59.8054 82.7323 59.7696 82.7158 59.73C82.6992 59.6905 82.6907 59.648 82.6907 59.6052C82.6907 59.5181 82.7253 59.4346 82.7868 59.373C82.8484 59.3114 82.9319 59.2769 83.019 59.2769H226.167C226.21 59.2768 226.252 59.2854 226.292 59.3019C226.331 59.3185 226.367 59.3428 226.397 59.3733C226.427 59.4039 226.451 59.4401 226.467 59.4799C226.483 59.5197 226.491 59.5623 226.49 59.6052C226.49 59.6908 226.456 59.773 226.395 59.8336C226.335 59.8941 226.253 59.9282 226.167 59.9282Z" fill="#263238"/>
<g opacity="0.3">
<path d="M226.167 59.9282H83.019C82.9761 59.9289 82.9336 59.921 82.8937 59.9051C82.8539 59.8892 82.8177 59.8655 82.7871 59.8355C82.7566 59.8054 82.7323 59.7696 82.7158 59.73C82.6992 59.6905 82.6907 59.648 82.6907 59.6052C82.6907 59.5181 82.7253 59.4346 82.7868 59.373C82.8484 59.3114 82.9319 59.2769 83.019 59.2769H226.167C226.21 59.2768 226.252 59.2854 226.292 59.3019C226.331 59.3185 226.367 59.3428 226.397 59.3733C226.427 59.4039 226.451 59.4401 226.467 59.4799C226.483 59.5197 226.491 59.5623 226.49 59.6052C226.49 59.6908 226.456 59.773 226.395 59.8336C226.335 59.8941 226.253 59.9282 226.167 59.9282Z" fill="white"/>
</g>
<path d="M225.881 116.704H82.7331C82.6902 116.705 82.6477 116.697 82.6079 116.681C82.5681 116.665 82.5318 116.642 82.5013 116.612C82.4707 116.582 82.4464 116.546 82.4299 116.506C82.4133 116.467 82.4048 116.424 82.4048 116.381C82.4048 116.294 82.4394 116.211 82.5009 116.149C82.5625 116.088 82.646 116.053 82.7331 116.053H225.881C225.924 116.053 225.966 116.062 226.006 116.078C226.045 116.095 226.081 116.119 226.111 116.15C226.141 116.18 226.165 116.216 226.181 116.256C226.197 116.296 226.205 116.339 226.204 116.381C226.204 116.424 226.196 116.466 226.179 116.505C226.163 116.544 226.139 116.58 226.109 116.61C226.079 116.64 226.044 116.664 226.005 116.68C225.965 116.696 225.923 116.704 225.881 116.704Z" fill="#263238"/>
<g opacity="0.3">
<path d="M225.881 116.704H82.7331C82.6902 116.705 82.6477 116.697 82.6079 116.681C82.5681 116.665 82.5318 116.642 82.5013 116.612C82.4707 116.582 82.4464 116.546 82.4299 116.506C82.4133 116.467 82.4048 116.424 82.4048 116.381C82.4048 116.294 82.4394 116.211 82.5009 116.149C82.5625 116.088 82.646 116.053 82.7331 116.053H225.881C225.924 116.053 225.966 116.062 226.006 116.078C226.045 116.095 226.081 116.119 226.111 116.15C226.141 116.18 226.165 116.216 226.181 116.256C226.197 116.296 226.205 116.339 226.204 116.381C226.204 116.424 226.196 116.466 226.179 116.505C226.163 116.544 226.139 116.58 226.109 116.61C226.079 116.64 226.044 116.664 226.005 116.68C225.965 116.696 225.923 116.704 225.881 116.704Z" fill="white"/>
</g>
<path d="M225.881 163.118H82.7331C82.646 163.118 82.5625 163.083 82.5009 163.022C82.4394 162.96 82.4048 162.876 82.4048 162.789C82.4048 162.747 82.4133 162.704 82.4299 162.665C82.4464 162.625 82.4707 162.589 82.5013 162.559C82.5318 162.529 82.5681 162.505 82.6079 162.489C82.6477 162.474 82.6902 162.466 82.7331 162.466H225.881C225.923 162.466 225.965 162.475 226.005 162.491C226.044 162.507 226.079 162.531 226.109 162.561C226.139 162.591 226.163 162.627 226.179 162.666C226.196 162.705 226.204 162.747 226.204 162.789C226.205 162.832 226.197 162.875 226.181 162.915C226.165 162.954 226.141 162.991 226.111 163.021C226.081 163.052 226.045 163.076 226.006 163.093C225.966 163.109 225.924 163.118 225.881 163.118Z" fill="#263238"/>
<g opacity="0.3">
<path d="M225.881 163.118H82.7331C82.646 163.118 82.5625 163.083 82.5009 163.022C82.4394 162.96 82.4048 162.876 82.4048 162.789C82.4048 162.747 82.4133 162.704 82.4299 162.665C82.4464 162.625 82.4707 162.589 82.5013 162.559C82.5318 162.529 82.5681 162.505 82.6079 162.489C82.6477 162.474 82.6902 162.466 82.7331 162.466H225.881C225.923 162.466 225.965 162.475 226.005 162.491C226.044 162.507 226.079 162.531 226.109 162.561C226.139 162.591 226.163 162.627 226.179 162.666C226.196 162.705 226.204 162.747 226.204 162.789C226.205 162.832 226.197 162.875 226.181 162.915C226.165 162.954 226.141 162.991 226.111 163.021C226.081 163.052 226.045 163.076 226.006 163.093C225.966 163.109 225.924 163.118 225.881 163.118Z" fill="white"/>
</g>
<path d="M113.165 170.971V219.274" stroke="#263238" stroke-width="0.265171" stroke-miterlimit="10"/>
<path d="M120.065 170.971V219.274" stroke="#263238" stroke-width="0.265171" stroke-miterlimit="10"/>
<path d="M126.965 170.971V219.274" stroke="#263238" stroke-width="0.265171" stroke-miterlimit="10"/>
<path d="M133.865 170.971V219.274" stroke="#263238" stroke-width="0.265171" stroke-miterlimit="10"/>
<path d="M140.764 170.971V219.274" stroke="#263238" stroke-width="0.265171" stroke-miterlimit="10"/>
<path d="M147.664 170.971V219.274" stroke="#263238" stroke-width="0.265171" stroke-miterlimit="10"/>
<path d="M154.564 170.971V219.274" stroke="#263238" stroke-width="0.265171" stroke-miterlimit="10"/>
<path d="M161.464 170.971V219.274" stroke="#263238" stroke-width="0.265171" stroke-miterlimit="10"/>
<path d="M168.363 170.971V219.274" stroke="#263238" stroke-width="0.265171" stroke-miterlimit="10"/>
<path d="M175.263 170.971V219.274" stroke="#263238" stroke-width="0.265171" stroke-miterlimit="10"/>
<path d="M182.163 170.971V219.274" stroke="#263238" stroke-width="0.265171" stroke-miterlimit="10"/>
<path d="M189.063 170.971V219.274" stroke="#263238" stroke-width="0.265171" stroke-miterlimit="10"/>
<path d="M113.509 175.456H188.718" stroke="#263238" stroke-width="0.265171" stroke-miterlimit="10"/>
<path d="M113.509 182.011H188.718" stroke="#263238" stroke-width="0.265171" stroke-miterlimit="10"/>
<path d="M113.509 188.567H188.718" stroke="#263238" stroke-width="0.265171" stroke-miterlimit="10"/>
<path d="M113.509 195.122H188.718" stroke="#263238" stroke-width="0.265171" stroke-miterlimit="10"/>
<path d="M113.509 201.678H188.718" stroke="#263238" stroke-width="0.265171" stroke-miterlimit="10"/>
<path d="M113.509 208.234H188.718" stroke="#263238" stroke-width="0.265171" stroke-miterlimit="10"/>
<path d="M113.509 214.789H188.718" stroke="#263238" stroke-width="0.265171" stroke-miterlimit="10"/>
<path d="M129.31 187.916L119.218 219.031H140.356L130.258 187.916C130.226 187.815 130.163 187.728 130.078 187.666C129.992 187.603 129.89 187.57 129.784 187.57C129.679 187.57 129.576 187.603 129.491 187.666C129.406 187.728 129.343 187.815 129.31 187.916Z" fill="#263238" stroke="#263238" stroke-width="1.06068" stroke-miterlimit="10"/>
<path d="M148.554 177.611L135.119 219.031H162.951L149.501 177.611C149.469 177.511 149.406 177.423 149.321 177.361C149.236 177.299 149.133 177.265 149.027 177.265C148.922 177.265 148.819 177.299 148.734 177.361C148.649 177.423 148.586 177.511 148.554 177.611Z" fill="#263238" stroke="#263238" stroke-width="1.06068" stroke-miterlimit="10"/>
<path d="M166.261 195.032L158.472 219.031H174.993L167.188 195.032C167.151 194.939 167.087 194.859 167.005 194.803C166.922 194.747 166.824 194.717 166.724 194.717C166.624 194.717 166.527 194.747 166.444 194.803C166.361 194.859 166.298 194.939 166.261 195.032Z" fill="#263238" stroke="#263238" stroke-width="1.06068" stroke-miterlimit="10"/>
<path d="M176.931 203.272L171.821 219.031H182.989L177.879 203.272C177.847 203.172 177.784 203.084 177.698 203.022C177.613 202.96 177.511 202.926 177.405 202.926C177.3 202.926 177.197 202.96 177.112 203.022C177.027 203.084 176.963 203.172 176.931 203.272Z" fill="#263238" stroke="#263238" stroke-width="1.06068" stroke-miterlimit="10"/>
<path d="M112.254 155.704C109.227 155.704 106.267 154.806 103.749 153.124C101.232 151.442 99.2695 149.051 98.1109 146.254C96.9522 143.457 96.649 140.379 97.2397 137.409C97.8304 134.439 99.2884 131.712 101.429 129.571C103.57 127.43 106.298 125.972 109.268 125.381C112.237 124.79 115.315 125.093 118.113 126.252C120.91 127.411 123.301 129.373 124.983 131.89C126.665 134.408 127.563 137.368 127.563 140.396C127.559 144.454 125.945 148.346 123.075 151.216C120.205 154.086 116.313 155.7 112.254 155.704ZM112.254 129.583C110.116 129.584 108.026 130.219 106.248 131.407C104.471 132.596 103.086 134.285 102.268 136.261C101.451 138.237 101.237 140.411 101.655 142.508C102.073 144.605 103.103 146.532 104.615 148.043C106.128 149.555 108.055 150.584 110.152 151.001C112.249 151.418 114.423 151.204 116.399 150.385C118.374 149.566 120.063 148.18 121.251 146.402C122.439 144.624 123.073 142.534 123.073 140.396C123.07 137.528 121.929 134.778 119.901 132.751C117.872 130.723 115.122 129.584 112.254 129.583Z" fill="#263238" stroke="#263238" stroke-width="1.06068" stroke-miterlimit="10"/>
<path d="M112.254 155.704C110.188 155.711 108.142 155.296 106.242 154.484C104.342 153.673 102.627 152.483 101.203 150.986L104.449 147.878C105.455 148.935 106.666 149.776 108.008 150.349C109.35 150.921 110.795 151.214 112.254 151.209C113.674 151.209 115.08 150.929 116.392 150.385C117.704 149.842 118.896 149.046 119.9 148.042C120.904 147.037 121.701 145.845 122.244 144.534C122.787 143.222 123.067 141.816 123.067 140.396C123.067 138.976 122.787 137.57 122.244 136.258C121.701 134.946 120.904 133.754 119.9 132.75C118.896 131.746 117.704 130.949 116.392 130.406C115.08 129.862 113.674 129.583 112.254 129.583V125.087C114.265 125.087 116.255 125.483 118.113 126.252C119.97 127.021 121.658 128.149 123.079 129.571C124.501 130.992 125.628 132.68 126.398 134.537C127.167 136.395 127.563 138.385 127.563 140.396C127.563 142.406 127.167 144.397 126.398 146.254C125.628 148.111 124.501 149.799 123.079 151.22C121.658 152.642 119.97 153.77 118.113 154.539C116.255 155.308 114.265 155.704 112.254 155.704Z" fill="#263238" stroke="#263238" stroke-width="1.06068" stroke-miterlimit="10"/>
<path d="M150.01 155.704C146.982 155.705 144.022 154.808 141.503 153.127C138.985 151.445 137.022 149.055 135.863 146.258C134.703 143.46 134.399 140.382 134.989 137.412C135.579 134.442 137.037 131.714 139.178 129.573C141.319 127.431 144.046 125.973 147.016 125.381C149.986 124.79 153.064 125.093 155.862 126.252C158.659 127.41 161.051 129.372 162.733 131.89C164.415 134.408 165.313 137.368 165.313 140.396C165.309 144.453 163.696 148.344 160.827 151.214C157.958 154.084 154.068 155.699 150.01 155.704ZM150.01 129.583C147.872 129.585 145.782 130.221 144.005 131.41C142.229 132.599 140.844 134.289 140.027 136.265C139.211 138.241 138.998 140.415 139.416 142.512C139.835 144.608 140.866 146.534 142.378 148.045C143.891 149.556 145.818 150.585 147.915 151.002C150.012 151.418 152.186 151.203 154.161 150.384C156.136 149.566 157.824 148.18 159.012 146.402C160.2 144.624 160.833 142.534 160.833 140.396C160.829 137.527 159.687 134.778 157.658 132.751C155.629 130.723 152.878 129.584 150.01 129.583Z" fill="#263238" stroke="#263238" stroke-width="1.06068" stroke-miterlimit="10"/>
<path d="M155.967 154.497L154.22 150.361C156.516 149.388 158.406 147.651 159.568 145.444C160.731 143.238 161.096 140.697 160.6 138.253C160.105 135.808 158.78 133.61 156.851 132.03C154.921 130.45 152.504 129.585 150.01 129.583V125.087C153.542 125.087 156.965 126.309 159.7 128.545C162.434 130.782 164.311 133.894 165.012 137.356C165.713 140.818 165.196 144.416 163.547 147.54C161.899 150.664 159.221 153.122 155.967 154.497Z" fill="#263238" stroke="#263238" stroke-width="1.06068" stroke-miterlimit="10"/>
<path d="M187.76 155.704C184.732 155.704 181.772 154.806 179.255 153.124C176.737 151.442 174.775 149.051 173.616 146.254C172.458 143.457 172.155 140.379 172.745 137.409C173.336 134.439 174.794 131.712 176.935 129.571C179.076 127.43 181.804 125.972 184.773 125.381C187.743 124.79 190.821 125.093 193.618 126.252C196.416 127.411 198.806 129.373 200.489 131.891C202.171 134.408 203.069 137.368 203.069 140.396C203.064 144.454 201.45 148.346 198.58 151.216C195.71 154.086 191.819 155.7 187.76 155.704ZM187.76 129.583C185.621 129.583 183.531 130.217 181.753 131.405C179.974 132.593 178.588 134.282 177.77 136.258C176.952 138.233 176.737 140.408 177.155 142.505C177.572 144.603 178.602 146.529 180.114 148.042C181.626 149.554 183.553 150.584 185.65 151.001C187.748 151.418 189.922 151.204 191.898 150.385C193.874 149.567 195.562 148.181 196.751 146.403C197.939 144.625 198.573 142.534 198.573 140.396C198.57 137.529 197.43 134.78 195.403 132.753C193.376 130.726 190.627 129.585 187.76 129.583Z" fill="#263238" stroke="#263238" stroke-width="1.06068" stroke-miterlimit="10"/>
<path d="M198.361 138.24C197.859 135.8 196.532 133.608 194.603 132.031C192.674 130.454 190.262 129.59 187.771 129.583V125.087C191.299 125.096 194.716 126.319 197.448 128.552C200.18 130.785 202.06 133.89 202.772 137.345L198.361 138.24Z" fill="#263238" stroke="#263238" stroke-width="1.06068" stroke-miterlimit="10"/>
<path d="M118.36 108.137H190.254" stroke="#263238" stroke-width="1.06068" stroke-miterlimit="10"/>
<path d="M118.36 108.137V106.606" stroke="#263238" stroke-width="1.06068" stroke-miterlimit="10"/>
<path d="M132.737 108.137V106.606" stroke="#263238" stroke-width="1.06068" stroke-miterlimit="10"/>
<path d="M147.119 108.137V106.606" stroke="#263238" stroke-width="1.06068" stroke-miterlimit="10"/>
<path d="M161.495 108.137V106.606" stroke="#263238" stroke-width="1.06068" stroke-miterlimit="10"/>
<path d="M175.872 108.137V106.606" stroke="#263238" stroke-width="1.06068" stroke-miterlimit="10"/>
<path d="M190.254 108.137V106.606" stroke="#263238" stroke-width="1.06068" stroke-miterlimit="10"/>
<path d="M130.724 87.702H120.372V99.9606H130.724V87.702Z" fill="#263238" stroke="#263238" stroke-width="1.06068" stroke-miterlimit="10"/>
<path d="M145.101 73.3994H134.749V102.005H145.101V73.3994Z" fill="#263238" stroke="#263238" stroke-width="1.06068" stroke-miterlimit="10"/>
<path d="M159.483 53.3779H149.131V85.2556H159.483V53.3779Z" fill="#263238" stroke="#263238" stroke-width="1.06068" stroke-miterlimit="10"/>
<path d="M173.86 83.2116H163.508V89.3436H173.86V83.2116Z" fill="#263238" stroke="#263238" stroke-width="1.06068" stroke-miterlimit="10"/>
<path d="M188.237 79.5314H177.884V95.4702H188.237V79.5314Z" fill="#263238" stroke="#263238" stroke-width="1.06068" stroke-miterlimit="10"/>
<path d="M130.724 99.9659H120.372V108.142H130.724V99.9659Z" fill="#263238" stroke="#263238" stroke-width="1.06068" stroke-miterlimit="10"/>
<path d="M145.101 102.01H134.749V108.142H145.101V102.01Z" fill="#263238" stroke="#263238" stroke-width="1.06068" stroke-miterlimit="10"/>
<path d="M159.483 85.2503H149.131V108.137H159.483V85.2503Z" fill="#263238" stroke="#263238" stroke-width="1.06068" stroke-miterlimit="10"/>
<path d="M173.86 89.3383H163.508V108.137H173.86V89.3383Z" fill="#263238" stroke="#263238" stroke-width="1.06068" stroke-miterlimit="10"/>
<path d="M188.237 95.4702H177.884V108.137H188.237V95.4702Z" fill="#263238" stroke="#263238" stroke-width="1.06068" stroke-miterlimit="10"/>
<path d="M209.412 47.5901C209.288 47.591 209.165 47.561 209.055 47.5027C208.945 47.4445 208.851 47.3599 208.782 47.2565L186.51 14.7751L163.915 38.8687L140.843 23.8301L118.524 29.0089L95.8544 47.4207C95.6971 47.5485 95.4955 47.6085 95.2939 47.5877C95.0923 47.5668 94.9073 47.4667 94.7795 47.3095C94.6517 47.1522 94.5916 46.9505 94.6125 46.7489C94.6333 46.5474 94.7334 46.3623 94.8907 46.2345L117.835 27.6003L141.135 22.1938L163.682 36.8936L186.701 12.3446L210.042 46.3934C210.121 46.5076 210.168 46.6414 210.177 46.7801C210.185 46.9188 210.156 47.0573 210.091 47.1805C210.027 47.3037 209.93 47.407 209.812 47.4792C209.693 47.5514 209.556 47.5897 209.417 47.5901H209.412Z" fill="#263238"/>
<path d="M97.2896 46.8276C97.2896 47.2015 97.1788 47.567 96.971 47.8779C96.7633 48.1887 96.4681 48.431 96.1226 48.5741C95.7772 48.7172 95.3971 48.7546 95.0304 48.6817C94.6637 48.6087 94.3269 48.4287 94.0625 48.1643C93.7981 47.8999 93.6181 47.5631 93.5451 47.1964C93.4722 46.8297 93.5096 46.4496 93.6527 46.1042C93.7958 45.7587 94.0381 45.4635 94.3489 45.2558C94.6598 45.048 95.0253 44.9372 95.3992 44.9372C95.9006 44.9372 96.3814 45.1363 96.7359 45.4909C97.0905 45.8454 97.2896 46.3262 97.2896 46.8276Z" fill="#263238"/>
<path d="M118.179 30.195C119.224 30.195 120.07 29.3487 120.07 28.3046C120.07 27.2606 119.224 26.4142 118.179 26.4142C117.135 26.4142 116.289 27.2606 116.289 28.3046C116.289 29.3487 117.135 30.195 118.179 30.195Z" fill="#263238"/>
<path d="M140.986 24.8997C142.03 24.8997 142.877 24.0534 142.877 23.0093C142.877 21.9653 142.03 21.1189 140.986 21.1189C139.942 21.1189 139.096 21.9653 139.096 23.0093C139.096 24.0534 139.942 24.8997 140.986 24.8997Z" fill="#263238"/>
<path d="M163.793 39.769C164.837 39.769 165.684 38.9226 165.684 37.8785C165.684 36.8345 164.837 35.9881 163.793 35.9881C162.749 35.9881 161.903 36.8345 161.903 37.8785C161.903 38.9226 162.749 39.769 163.793 39.769Z" fill="#263238"/>
<path d="M188.491 13.5625C188.491 13.9364 188.38 14.3019 188.172 14.6128C187.964 14.9236 187.669 15.1659 187.324 15.309C186.978 15.4521 186.598 15.4895 186.231 15.4166C185.865 15.3437 185.528 15.1636 185.263 14.8992C184.999 14.6348 184.819 14.298 184.746 13.9313C184.673 13.5646 184.711 13.1845 184.854 12.8391C184.997 12.4936 185.239 12.1984 185.55 11.9907C185.861 11.7829 186.226 11.6721 186.6 11.6721C187.102 11.6721 187.582 11.8712 187.937 12.2258C188.291 12.5803 188.491 13.0611 188.491 13.5625Z" fill="#263238"/>
<path d="M211.297 46.8276C211.297 47.2015 211.187 47.567 210.979 47.8779C210.771 48.1887 210.476 48.431 210.13 48.5741C209.785 48.7172 209.405 48.7546 209.038 48.6817C208.672 48.6087 208.335 48.4287 208.07 48.1643C207.806 47.8999 207.626 47.5631 207.553 47.1964C207.48 46.8297 207.517 46.4496 207.661 46.1042C207.804 45.7587 208.046 45.4635 208.357 45.2558C208.668 45.048 209.033 44.9372 209.407 44.9372C209.908 44.9372 210.389 45.1363 210.744 45.4909C211.098 45.8454 211.297 46.3262 211.297 46.8276Z" fill="#263238"/>
<path d="M250.176 227.006C270.361 227.006 286.724 224.808 286.724 222.097C286.724 219.386 270.361 217.188 250.176 217.188C229.991 217.188 213.627 219.386 213.627 222.097C213.627 224.808 229.991 227.006 250.176 227.006Z" fill="#263238"/>
<path opacity="0.7" d="M250.176 227.006C270.361 227.006 286.724 224.808 286.724 222.097C286.724 219.386 270.361 217.188 250.176 217.188C229.991 217.188 213.627 219.386 213.627 222.097C213.627 224.808 229.991 227.006 250.176 227.006Z" fill="white"/>
<path d="M49.9392 227.006C68.5654 227.006 83.6649 224.808 83.6649 222.097C83.6649 219.386 68.5654 217.188 49.9392 217.188C31.3129 217.188 16.2134 219.386 16.2134 222.097C16.2134 224.808 31.3129 227.006 49.9392 227.006Z" fill="#263238"/>
<path opacity="0.7" d="M49.9392 227.006C68.5654 227.006 83.6649 224.808 83.6649 222.097C83.6649 219.386 68.5654 217.188 49.9392 217.188C31.3129 217.188 16.2134 219.386 16.2134 222.097C16.2134 224.808 31.3129 227.006 49.9392 227.006Z" fill="white"/>
<path d="M239.861 49.1681C239.861 49.1681 253.745 47.8231 254.539 50.1372C255.333 52.4512 255.069 57.7359 255.069 57.7359C255.768 57.9177 256.45 58.1605 257.107 58.4614C257.293 58.6414 259.347 59.9864 257.43 62.1945C256.93 62.7545 256.323 63.2098 255.646 63.5343C254.8 63.9084 253.997 64.3699 253.247 64.911L250.462 68.0723L250.991 72.1444C250.991 72.1444 252.236 73.0446 253.755 76.1847C253.755 76.1847 257.346 78.3029 259.453 79.5049C261.186 80.4155 262.989 81.1875 264.844 81.8136C264.844 81.8136 265.807 82.1261 265.739 82.8198C265.67 83.5134 260.941 99.2352 260.941 99.2352L258.452 107.178C258.405 108.154 258.278 109.125 258.071 110.08C257.716 111.79 256.382 112.913 255 112.563L255.137 118.388C255.137 118.388 248.645 121.634 237.938 121.084C237.938 121.084 232.897 120.596 229.169 117.838L229.1 104.229L211.923 100.903C211.923 100.903 209.746 100.443 210.863 98.4833C211.981 96.524 215.735 91.6629 215.735 91.6629L227.803 76.8996C227.803 76.8996 228.634 75.92 228.942 75.6076C229.249 75.2951 230.001 75.078 232.982 74.8291C235.963 74.5803 239.305 74.0031 239.305 74.0031C239.305 74.0031 241.115 72.4463 241.375 72.4463C241.634 72.4463 241.687 70.1163 241.687 70.1163C240.772 69.4555 240.01 68.6038 239.455 67.6202C238.9 66.6365 238.565 65.5442 238.473 64.4186C238.214 60.6377 239.871 51.7787 239.871 51.7787L239.861 49.1681Z" fill="white"/>
<path d="M229.381 117.785C229.381 117.785 227.92 139.495 227.92 149.885C227.92 160.274 228.571 168.688 228.894 175.985C229.217 183.282 227.92 188.307 229.053 193.656C230.186 199.004 232.786 214.572 232.786 214.572L235.841 216.415C235.841 216.415 236.371 204.029 237.483 199.655C238.595 195.281 238.944 176.795 239.601 171.119C240.258 165.442 242.36 145.341 242.36 145.341C242.36 145.341 250.467 166.417 252.421 174.688C254.375 182.959 261.015 201.599 262.482 206.137C263.949 210.675 266.21 217.4 266.21 217.4C266.897 217.601 267.619 217.655 268.328 217.559C268.635 217.534 268.93 217.432 269.185 217.261C269.441 217.091 269.649 216.858 269.79 216.584C269.79 216.584 267.634 203.007 266.687 196.409C265.516 188.249 263.61 175.985 262.45 171.447C261.291 166.909 259.533 159.771 259.533 156.366C259.533 152.961 255.159 118.77 255.159 118.77C255.159 118.77 239.919 125.405 229.381 117.785Z" fill="#263238"/>
<path d="M242.349 145.341L235.847 137.759" stroke="white" stroke-width="0.530341" stroke-miterlimit="10" stroke-linecap="round"/>
<path d="M234.184 138.315L239.537 143.297" stroke="white" stroke-width="0.530341" stroke-miterlimit="10" stroke-linecap="round"/>
<path d="M245.627 138.871C246.998 135.402 249.545 132.527 252.823 130.748" stroke="white" stroke-width="0.530341" stroke-miterlimit="10" stroke-linecap="round"/>
<path d="M253.189 120.602C253.189 120.602 252.453 123.366 253.374 125.029C254.296 126.691 255.222 126.691 255.222 126.691C255.222 126.691 256.88 135.73 256.88 140.899C256.88 146.067 255.773 146.618 256.88 152.336C257.986 158.055 258.728 159.903 258.728 163.224C258.728 166.544 260.2 168.763 261.492 170.791C262.784 172.819 263.155 178.734 263.155 181.122C263.155 183.51 263.891 186.105 264.632 188.503C264.632 188.503 264.807 193.883 265.739 195.144C266.671 196.404 266.845 200.683 266.845 200.683" stroke="white" stroke-width="0.530341" stroke-miterlimit="10" stroke-linecap="round"/>
<path d="M241.015 144.589C241.015 144.589 241.38 148.826 240.088 156.213C238.796 163.6 237.875 165.622 237.69 174.111C237.504 182.599 238.246 184.077 237.875 188.503C237.504 192.93 235.291 199.925 235.291 203.103C235.291 206.28 235.63 216.436 235.63 216.436" stroke="white" stroke-width="0.530341" stroke-miterlimit="10" stroke-linecap="round"/>
<path d="M236.953 121.708L237.324 123.186L239.723 123.737L239.352 121.894" stroke="white" stroke-width="0.530341" stroke-miterlimit="10" stroke-linecap="round"/>
<path d="M239.733 123.737C239.733 123.737 244.16 123.551 246.374 122.815L245.844 121.338" stroke="white" stroke-width="0.530341" stroke-miterlimit="10" stroke-linecap="round"/>
<path d="M247.841 120.967L248.37 122.815C248.37 122.815 251.913 122.614 252.442 122.084" stroke="white" stroke-width="0.530341" stroke-miterlimit="10" stroke-linecap="round"/>
<path d="M237.324 123.186C236.1 123.147 234.901 122.83 233.818 122.259L232.156 121.338L232.685 120.046" stroke="white" stroke-width="0.530341" stroke-miterlimit="10" stroke-linecap="round"/>
<path d="M232.786 214.572C232.786 214.572 224.843 219.756 223.704 222.187C222.566 224.617 227.109 223.648 230.35 222.351C233.591 221.054 235.645 216.415 235.645 216.415L232.786 214.572Z" fill="white" stroke="#263238" stroke-width="1.06068" stroke-miterlimit="10" stroke-linecap="round"/>
<path d="M266.464 217.469C266.865 219.69 267.653 221.823 268.794 223.77C270.542 226.487 273.84 228.817 273.84 224.543C273.84 220.27 269.768 216.6 269.768 216.6C269.768 216.6 267.746 217.696 266.464 217.469Z" fill="white" stroke="#263238" stroke-width="1.06068" stroke-miterlimit="10" stroke-linecap="round"/>
<path d="M239.813 52.1017C239.813 52.1017 238.092 62.777 238.674 65.4247C240.003 71.3501 244.669 71.096 247.586 69.9628C250.313 68.9037 253.035 65.1599 253.385 64.6675C253.409 64.6327 253.445 64.6067 253.485 64.5933C253.919 64.4715 256.615 63.6137 257.801 61.5326C259.098 59.261 256.668 58.2919 256.668 58.2919" fill="white"/>
<mask id="mask0_7915_34439" style="mask-type:luminance" maskUnits="userSpaceOnUse" x="238" y="52" width="21" height="19">
<path d="M239.813 52.1017C239.813 52.1017 238.092 62.777 238.674 65.4247C240.003 71.3501 244.669 71.096 247.586 69.9628C250.313 68.9037 253.035 65.1599 253.385 64.6675C253.409 64.6327 253.445 64.6067 253.485 64.5933C253.919 64.4715 256.615 63.6137 257.801 61.5326C259.098 59.261 256.668 58.2919 256.668 58.2919" fill="white"/>
</mask>
<g mask="url(#mask0_7915_34439)">
<g style="mix-blend-mode:multiply" opacity="0.5">
<path d="M250.854 67.4157L253.427 64.588C253.427 64.588 256.472 63.6508 257.801 61.5062C258.579 60.2512 258.15 59.1551 257.679 58.8585C257.033 58.5089 256.367 58.1994 255.683 57.9318L254.82 59.8329L254.084 59.9599C254.084 59.9599 254.391 58.0007 253.501 56.841C252.612 55.6813 252.41 52.3241 252.41 52.3241C252.41 52.3241 251.166 59.0174 251.012 61.8186C250.973 63.3775 250.486 64.8922 249.609 66.1819C249.609 66.1819 249.768 67.8923 250.075 69.6027C250.112 69.8039 250.149 70.1057 250.186 70.4817L250.61 69.8039L250.843 70.4499C250.578 69.3379 250.456 68.1571 250.854 67.4157Z" fill="#263238"/>
</g>
</g>
<path d="M239.813 52.1017C239.813 52.1017 238.092 62.777 238.674 65.4247C240.003 71.3501 244.669 71.096 247.586 69.9628C250.313 68.9037 253.035 65.1599 253.385 64.6675C253.409 64.6327 253.445 64.6067 253.485 64.5933C253.919 64.4715 256.615 63.6137 257.801 61.5326C259.098 59.261 256.668 58.2919 256.668 58.2919" stroke="#263238" stroke-width="1.06068" stroke-miterlimit="10" stroke-linecap="round"/>
<path d="M246.4 57.5294C246.3 57.953 246.4 58.3343 246.596 58.3819C246.792 58.4296 247.057 58.1331 247.157 57.7147C247.258 57.2964 247.157 56.9151 246.961 56.8622C246.766 56.8092 246.501 57.1111 246.4 57.5294Z" fill="#263238"/>
<path d="M241.852 56.4227C241.751 56.8463 241.852 57.2276 242.048 57.2752C242.243 57.3229 242.508 57.0263 242.609 56.608C242.709 56.1897 242.609 55.8031 242.413 55.7555C242.217 55.7078 241.947 55.999 241.852 56.4227Z" fill="#263238"/>
<path d="M249.223 55.676C248.972 55.2357 248.616 54.8651 248.186 54.5978C247.756 54.3305 247.266 54.175 246.76 54.1457" stroke="#263238" stroke-width="1.06068" stroke-miterlimit="10" stroke-linecap="round"/>
<path d="M243.276 54.2251C242.859 54.0429 242.397 53.992 241.95 54.079C241.504 54.166 241.094 54.3869 240.777 54.7123" stroke="#263238" stroke-width="1.06068" stroke-miterlimit="10" stroke-linecap="round"/>
<path d="M243.583 56.1526C243.593 56.862 243.54 57.5708 243.424 58.2707C243.249 59.1551 242.561 59.3298 242.736 60.0129C242.91 60.696 243.795 60.7648 243.795 60.7648" stroke="#263238" stroke-width="1.06068" stroke-miterlimit="10" stroke-linecap="round"/>
<path d="M244.716 63.5237C245.091 63.6431 245.487 63.6798 245.878 63.6313C246.268 63.5829 246.643 63.4504 246.977 63.243" stroke="#263238" stroke-width="1.06068" stroke-miterlimit="10" stroke-linecap="round"/>
<path d="M253.104 44.6459C253.104 44.6459 249.54 41.5641 246.135 41.5641C242.73 41.5641 239.972 43.5127 237.864 43.6822C235.757 43.8516 234.3 41.8977 233.003 44.4924C231.706 47.0871 236.572 51.4663 239.813 52.1123C243.054 52.7583 247.592 51.7893 248.889 51.6251C250.132 51.5399 251.379 51.5399 252.622 51.6251C252.622 51.6251 251.648 54.707 252.622 55.6813C253.596 56.6557 253.755 57.3017 253.755 57.9477C253.811 58.6607 253.919 59.3687 254.078 60.0658L255.053 60.3941L255.54 58.6096C256.854 57.2079 257.753 55.4678 258.135 53.5844C258.616 50.6667 256.186 47.7596 256.186 47.7596L253.104 44.6459Z" fill="#263238"/>
<path d="M239.453 50.7832C239.453 50.7832 244.997 51.8422 249.339 50.0365C253.681 48.2308 249.938 44.6459 249.938 44.6459" stroke="white" stroke-width="0.530341" stroke-miterlimit="10" stroke-linecap="round"/>
<path d="M250.854 44.3441C251.304 44.3441 255.047 47.1877 254.295 49.2846C253.544 51.3816 252.05 51.5351 252.05 51.5351" stroke="white" stroke-width="0.530341" stroke-miterlimit="10" stroke-linecap="round"/>
<path d="M250.239 108.666L245.558 106.199C244.355 106.132 243.159 105.976 241.979 105.733C240.888 105.42 229.694 104.35 229.694 104.35L229.524 106.998C229.524 106.998 242.291 108.714 244.934 109.026C247.576 109.339 249.916 110.583 250.382 111.361C250.848 112.14 251.786 112.918 251.32 115.068C250.854 117.218 247.74 120.363 247.74 120.363C247.592 120.141 255.228 119.59 255.153 118.775C254.989 117.154 254.126 112.42 254.126 112.42L250.239 108.666Z" fill="#263238"/>
<path opacity="0.5" d="M250.239 108.666L245.558 106.199C244.355 106.132 243.159 105.976 241.979 105.733C240.888 105.42 229.694 104.35 229.694 104.35L229.524 106.998C229.524 106.998 242.291 108.714 244.934 109.026C247.576 109.339 249.916 110.583 250.382 111.361C250.848 112.14 251.786 112.918 251.32 115.068C250.854 117.218 247.74 120.363 247.74 120.363C247.618 120.125 255.243 119.585 255.153 118.775C254.905 116.71 254.126 112.42 254.126 112.42L250.239 108.666Z" fill="white"/>
<path d="M265.68 82.7615C265.267 80.8234 262.186 81.0829 260.327 80.0079C258.468 78.933 253.973 76.4442 253.973 76.4442L251.796 73.1717C251.403 72.2894 251.086 71.3753 250.848 70.4393L250.615 69.7933L250.192 70.4711C250.462 73.3729 250.721 80.8022 250.721 80.8022L251.653 85.4727C251.653 85.4727 255.238 100.882 256.17 104.308C257.102 107.734 257.102 110.064 256.482 111.155C255.863 112.246 256.069 112.743 256.069 112.743C256.069 112.743 258.5 110.864 258.352 109C258.156 106.807 265.972 84.0747 265.68 82.7615Z" fill="#263238"/>
<path opacity="0.5" d="M265.68 82.7615C265.469 80.7917 262.186 81.0829 260.327 80.0079C258.468 78.933 253.973 76.4442 253.973 76.4442L251.796 73.1717C251.403 72.2894 251.086 71.3753 250.848 70.4393L250.615 69.7933L250.192 70.4711C250.462 73.3729 250.721 80.8022 250.721 80.8022L251.653 85.4727C251.653 85.4727 255.238 100.882 256.17 104.308C257.102 107.734 257.102 110.064 256.482 111.155C255.863 112.246 256.069 112.743 256.069 112.743C256.069 112.743 258.569 110.858 258.352 109C258.103 107.003 265.871 84.3978 265.68 82.7615Z" fill="white"/>
<path d="M252.077 80.8181C252.077 80.8181 251.102 72.065 250.615 69.7933C250.128 67.5216 250.456 66.2296 248.349 66.2296C246.241 66.2296 243.647 65.9013 244.113 67.0398C244.578 68.1783 247.819 67.1986 248.349 67.6858C248.878 68.173 248.508 69.3061 248.508 69.3061C248.508 69.3061 244.271 69.6345 244.271 70.7677C244.271 71.9008 244.435 75.0039 245.246 75.3057C246.056 75.6076 246.379 73.8495 246.379 73.8495C246.379 73.8495 246.543 77.5562 247.353 78.8748C247.869 79.6891 248.467 80.4485 249.138 81.1411L252.077 80.8181Z" fill="white" stroke="#263238" stroke-width="1.06068" stroke-miterlimit="10" stroke-linecap="round"/>
<path d="M249.159 83.2487C249.159 83.2487 248.672 103.371 249.482 106.596C250.292 109.82 254.672 114.216 256.938 112.108C259.204 110.001 258.076 105.462 258.076 103.355C258.076 101.247 252.887 85.6845 252.887 84.546C252.81 83.6006 252.59 82.6723 252.236 81.7925" stroke="#263238" stroke-width="1.06068" stroke-miterlimit="10" stroke-linecap="round"/>
<path d="M249.482 85.6845L252.723 85.3562" stroke="#263238" stroke-width="1.06068" stroke-miterlimit="10" stroke-linecap="round"/>
<path d="M228.756 95.7456L229.381 77.8422C229.381 77.8422 228.603 77.3762 228.29 79.0866C227.978 80.797 227.824 84.2283 227.824 84.2283C227.824 84.2283 224.086 81.8931 225.023 83.291C225.96 84.689 227.512 87.8079 227.512 87.8079L221.729 93.5639L224.377 94.6548L228.756 95.7456Z" fill="#263238"/>
<path opacity="0.5" d="M228.756 95.7456L229.381 77.8422C229.381 77.8422 228.603 77.3762 228.29 79.0866C227.978 80.797 227.824 84.2283 227.824 84.2283C227.824 84.2283 224.086 81.8931 225.023 83.291C225.96 84.689 227.512 87.8079 227.512 87.8079L221.729 93.5639L224.377 94.6548L228.756 95.7456Z" fill="white"/>
<path d="M236.509 81.8401C236.509 81.8401 236.212 82.8992 237.457 82.8992C238.701 82.8992 240.888 82.0149 240.888 82.0149L240.729 80.2568C240.729 80.2568 237.737 81.713 236.509 81.8401Z" fill="#263238"/>
<path opacity="0.5" d="M236.509 81.8401C236.509 81.8401 236.212 82.8992 237.457 82.8992C238.701 82.8992 240.888 82.0149 240.888 82.0149L240.729 80.2568C240.729 80.2568 237.737 81.713 236.509 81.8401Z" fill="white"/>
<path d="M241.852 69.9998C241.852 69.9998 240.231 79.5314 241.206 81.6495C242.18 83.7676 243.636 83.2699 244.769 82.3008C245.903 81.3318 247.364 78.8959 247.364 78.8959" stroke="#263238" stroke-width="1.06068" stroke-miterlimit="10" stroke-linecap="round"/>
<path d="M229.053 104.488L229.381 117.785C229.381 117.785 233.088 121.348 240.242 121.348C247.396 121.348 255.159 118.754 255.159 118.754V114.051" stroke="#263238" stroke-width="1.06068" stroke-miterlimit="10" stroke-linecap="round"/>
<path d="M250.944 71.9008C250.944 71.9008 253.861 74.8186 253.861 77.5774C253.861 80.3363 253.374 80.9823 253.374 80.9823" stroke="#263238" stroke-width="1.06068" stroke-miterlimit="10" stroke-linecap="round"/>
<path d="M253.533 75.957C253.533 75.957 257.912 78.5464 260.343 80.0079C262.773 81.4694 265.696 81.4641 265.696 82.7615C265.696 84.0588 258.887 106.108 258.887 106.108" stroke="#263238" stroke-width="1.06068" stroke-miterlimit="10" stroke-linecap="round"/>
<path d="M256.292 83.2487L254.671 89.7354" stroke="#263238" stroke-width="1.06068" stroke-miterlimit="10" stroke-linecap="round"/>
<path d="M229.095 87.056L226.474 81.5595" stroke="#263238" stroke-width="0.530341" stroke-miterlimit="10" stroke-linecap="round"/>
<path d="M229.095 88.6287L225.166 86.2723" stroke="#263238" stroke-width="0.530341" stroke-miterlimit="10" stroke-linecap="round"/>
<path d="M241.915 100.924L241.131 104.854" stroke="#263238" stroke-width="0.530341" stroke-miterlimit="10" stroke-linecap="round"/>
<path d="M263.112 82.6079C263.112 82.6079 259.188 83.3916 255.524 87.8397" stroke="#263238" stroke-width="0.530341" stroke-miterlimit="10" stroke-linecap="round"/>
<path d="M260.496 82.3696C260.496 82.3696 259.437 82.1049 255.789 85.245" stroke="#263238" stroke-width="0.530341" stroke-miterlimit="10" stroke-linecap="round"/>
<path d="M241.915 83.6564L240.348 95.9521L241.656 96.2169L242.704 92.293" stroke="#263238" stroke-width="0.530341" stroke-miterlimit="10" stroke-linecap="round"/>
<path d="M242.963 115.841C238.251 119.77 231.711 119.506 231.711 119.506" stroke="#263238" stroke-width="0.530341" stroke-miterlimit="10" stroke-linecap="round"/>
<path d="M223.048 94.4853C223.048 94.4853 219.844 91.5517 215.306 95.2849" stroke="#263238" stroke-width="0.530341" stroke-miterlimit="10" stroke-linecap="round"/>
<path d="M241.539 72.388C241.539 72.388 240.242 72.711 238.78 74.9827C237.319 77.2544 235.54 81.1412 236.837 81.4642C238.134 81.7872 240.544 80.331 240.544 80.331" stroke="#263238" stroke-width="1.06068" stroke-miterlimit="10" stroke-linecap="round"/>
<path d="M246.564 80.9823L248.185 82.4385" stroke="#263238" stroke-width="1.06068" stroke-miterlimit="10" stroke-linecap="round"/>
<path d="M239.267 74.0084C239.267 74.0084 233.268 74.8186 230.837 74.9827C228.407 75.1469 228.878 76.0418 228.084 76.6031C226.802 77.498 212.102 96.1321 211.139 97.9167C210.175 99.7012 210.329 100.511 211.949 100.999C213.569 101.486 229.709 104.324 229.709 104.324L243.97 105.785L245.103 102.216C245.103 102.216 248.418 102.656 249 102.656" stroke="#263238" stroke-width="1.06068" stroke-miterlimit="10" stroke-linecap="round"/>
<path d="M243.483 100.903C240.335 99.9902 237.293 98.7478 234.406 97.1965" stroke="#263238" stroke-width="1.06068" stroke-miterlimit="10" stroke-linecap="round"/>
<path d="M233.109 96.8682C233.109 96.8682 228.343 95.0996 225.764 94.7765C223.186 94.4535 219.235 94.3476 219.235 94.3476" stroke="#263238" stroke-width="1.06068" stroke-miterlimit="10" stroke-linecap="round"/>
<path d="M228.73 94.7607L229.217 81.9513" stroke="#263238" stroke-width="1.06068" stroke-miterlimit="10" stroke-linecap="round"/>
<path d="M243.97 105.785C245.082 106.345 246.248 106.792 247.449 107.12" stroke="#263238" stroke-width="1.06068" stroke-miterlimit="10" stroke-linecap="round"/>
<path d="M31.8028 95.4649L33.7144 85.0173L45.8142 80.2515C45.8142 80.2515 46.402 77.0055 46.9951 76.8626C47.5881 76.7196 48.1706 75.3852 48.1706 75.3852L47.8794 72.711C47.8794 72.711 48.9861 68.4748 54.5515 71.7738C54.5515 71.7738 52.8676 72.8964 53.1588 73.3624C53.45 73.8283 52.8358 75.311 53.5718 75.311C54.3079 75.311 55.7958 76.2483 56.5478 77.0055C57.0741 77.5709 57.5391 78.1904 57.9351 78.8536L64.1995 79.2137C64.8416 79.219 65.4804 79.3062 66.1005 79.4731C66.2064 76.4125 65.8304 74.0772 65.0891 72.2609C62.3938 65.7054 57.4798 63.3648 56.7755 60.0817C56.0712 56.7987 56.426 56.4545 56.426 56.4545C57.1421 55.7263 57.6664 54.832 57.952 53.8515C58.2375 52.8709 58.2754 51.8349 58.0622 50.8361C57.3633 47.3254 54.668 44.863 44.9511 44.3971C35.2342 43.9311 36.6427 50.5979 36.6427 50.5979L36.7592 51.0638C36.7592 51.0638 30.5531 53.182 31.7287 61.0137C32.9043 68.8455 36.2933 72.2503 36.1768 74.7074C36.0603 77.1644 32.4277 78.1017 27.2754 83.7094C22.123 89.3171 21.0746 97.7525 23.1821 103.254C24.2411 105.96 26.3116 108.216 28.9116 109.9L31.8028 95.4649Z" fill="#263238"/>
<path d="M39.9153 96.4975V98.8592L35.4302 112.717C38.2328 113.459 41.172 113.52 44.0033 112.897C45.6015 112.481 47.129 111.829 48.536 110.964L39.9153 96.4975Z" fill="#263238"/>
<path d="M52.8091 73.2776L53.3387 75.6605C53.3387 75.6605 54.9273 74.0719 58.0303 78.8959C58.0303 78.8959 64.48 78.7424 66.238 79.6214C66.238 79.6214 66.6034 79.7273 67.7948 80.9929C68.9863 82.2585 73.4661 86.2882 73.4661 86.2882C73.4661 86.2882 79.2168 91.6258 79.7887 92.0389C80.3606 92.4519 82.5052 94.5012 84.1097 95.2161L88.4095 85.4251L90.3264 80.5798L91.3854 76.5925H91.7243L91.7985 73.3782L91.539 69.5444C91.5812 69.3495 91.6703 69.1677 91.7985 69.0149C92.2424 68.3996 92.584 67.7165 92.8098 66.9921C92.8098 66.632 92.4445 64.5033 92.4445 64.5033C92.4445 64.5033 92.2644 63.9738 92.6563 63.9102C93.0481 63.8467 94.4938 64.3498 94.6738 65.3612L95.2033 65.1811C95.6419 64.1334 96.1885 63.1342 96.8343 62.1999C97.6921 61.0878 98.5711 60.3889 99.1166 60.7489C99.2662 60.8522 99.3741 61.0055 99.4207 61.1812C99.4673 61.357 99.4496 61.5436 99.3707 61.7074L97.6656 64.8422C97.6656 64.8422 96.9137 65.8536 97.8457 66.2137C97.8457 66.2137 99.8632 67.511 99.9956 68.6495C100.128 69.788 99.3972 70.7677 98.7512 71.6043C98.1052 72.441 96.9667 74.252 96.9667 74.252L95.6428 75.4222L95.1133 77.4397L95.7382 78.2181L94.8062 82.2585L94.1337 85.2874L93.7948 87.1248L91.6767 94.3794L89.5585 100.702C89.5585 100.702 88.4677 104.324 85.8254 104.223C83.183 104.123 80.2865 102.693 79.3492 102.227C78.4119 101.761 70.6861 97.726 70.6861 97.726L69.0975 96.9741C69.3095 97.6973 69.4007 98.4505 69.3676 99.2034C69.3411 100.601 67.8372 103.683 67.3977 104.382L67.1382 109.847C67.0357 110.795 67.0535 111.752 67.1912 112.696C67.4242 114.12 68.6156 122.18 68.8751 123.186C68.8751 123.186 66.3016 125.516 58.634 126.623C50.9664 127.729 47.3762 125.934 47.3762 125.934L43.9607 123.927L48.1705 115.608C48.1705 115.608 49.2295 113.135 49.1236 112.484C49.0177 111.833 47.2067 109.026 47.2067 109.026L40.5611 97.1965L40.2487 97.3024L39.2161 100.755L35.4829 112.463L30.5689 127.078C30.5689 127.078 29.2239 130.785 28.6679 131.881L27.1163 136.609C27.2025 137.454 27.4112 138.282 27.7359 139.066L23.8333 136.541L24.5269 132.834L25.3901 127.306L26.4491 121.295L27.3811 116.323L28.8691 109.693L29.3986 107.861L30.4577 102.682L32.3216 93.2886L33.9102 85.245L45.0303 80.8234L45.724 80.2939C45.8783 79.2702 46.2542 78.2925 46.8255 77.4291C47.2219 76.8611 47.6941 76.3498 48.2287 75.9094C48.2287 75.9094 48.1758 75.2157 48.1387 74.5591C48.1016 73.9025 47.9322 72.6951 47.9322 72.6951C47.9322 72.6951 51.3688 74.1725 52.8091 73.2776Z" fill="white"/>
<path d="M37.9136 51.9958C37.9136 51.9958 39.9734 47.4366 44.0932 47.4366C48.2129 47.4366 56.7437 55.5278 56.7437 55.5278" stroke="white" stroke-width="0.530341" stroke-miterlimit="10" stroke-linecap="round"/>
<path d="M39.677 52.716C39.677 52.716 42.1764 50.0683 45.2688 51.0956C48.3613 52.1229 48.8008 55.8031 48.8008 55.8031" stroke="white" stroke-width="0.530341" stroke-miterlimit="10" stroke-linecap="round"/>
<path d="M37.6172 53.1714C37.6172 53.1714 33.9422 55.2312 33.6457 59.0597C33.3492 62.8882 38.7927 67.4422 39.5288 72.5945C40.2648 77.7469 36.4416 78.9171 30.262 83.1851C24.0824 87.4532 25.115 97.0112 26.4388 99.071" stroke="white" stroke-width="0.530341" stroke-miterlimit="10" stroke-linecap="round"/>
<path d="M27.1748 100.252C27.1748 100.252 28.0538 102.163 29.3777 102.751" stroke="white" stroke-width="0.530341" stroke-miterlimit="10" stroke-linecap="round"/>
<path d="M38.0618 63.1742C37.8877 63.5479 37.8097 63.9591 37.8346 64.3705C37.8596 64.782 37.9868 65.1807 38.2047 65.5306C38.9408 66.8544 44.5591 73.4736 44.0931 76.566C43.6271 79.6585 40.7094 81.5648 40.7094 81.5648" stroke="white" stroke-width="0.530341" stroke-miterlimit="10" stroke-linecap="round"/>
<path d="M40.8525 53.1714C40.8525 53.1714 37.4688 54.6435 37.617 58.0272C37.7653 61.4109 38.5014 62.2952 38.5014 62.2952" stroke="white" stroke-width="0.530341" stroke-miterlimit="10" stroke-linecap="round"/>
<path d="M56.7437 64.3656C57.795 66.7458 59.2377 68.933 61.0117 70.8365C63.6593 73.4841 63.9506 77.3126 63.9506 77.3126" stroke="white" stroke-width="0.530341" stroke-miterlimit="10" stroke-linecap="round"/>
<path d="M59.8308 72.7375C59.8308 72.7375 61.1546 75.83 61.1546 77.7416" stroke="white" stroke-width="0.530341" stroke-miterlimit="10" stroke-linecap="round"/>
<path d="M52.5075 73.5583L48.3507 77.3021C48.3507 77.3021 47.9059 78.4353 47.0692 80.2515C46.2326 82.0678 46.3703 85.5468 46.3703 85.5468L48.9332 90.6462C48.9332 90.6462 44.0033 84.9908 43.7226 84.2919C43.442 83.5929 38.2843 84.8532 37.31 85.2715C36.3357 85.6898 35.0754 86.5265 35.356 87.7815C35.6367 89.0364 36.8917 90.7045 36.3304 90.9851C35.7691 91.2658 34.2387 90.5668 34.2387 91.4034C34.2387 92.2401 36.055 95.4491 35.2184 96.5611C34.3817 97.6731 29.0811 115.667 29.0811 115.667C29.0811 115.667 32.4277 112.876 31.5911 113.993C30.7544 115.111 26.7141 124.171 26.7141 124.171L25.1785 129.466L28.8057 110.647L31.8717 94.7607L33.7145 85.0173C35.4937 84.4242 45.8143 80.2515 45.8143 80.2515C45.8143 80.2515 46.6297 76.8202 48.1707 75.3852L47.8794 72.711C47.8794 72.711 50.6912 73.696 52.5075 73.5583Z" fill="#263238"/>
<path opacity="0.5" d="M52.5075 73.5583L48.3507 77.3021C48.3507 77.3021 47.9059 78.4353 47.0692 80.2515C46.2326 82.0678 46.3703 85.5468 46.3703 85.5468L48.9332 90.6462C48.9332 90.6462 44.0033 84.9908 43.7226 84.2919C43.442 83.5929 38.2843 84.8532 37.31 85.2715C36.3357 85.6898 35.0754 86.5265 35.356 87.7815C35.6367 89.0364 36.8917 90.7045 36.3304 90.9851C35.7691 91.2658 34.2387 90.5668 34.2387 91.4034C34.2387 92.2401 36.055 95.4491 35.2184 96.5611C34.3817 97.6731 29.0811 115.667 29.0811 115.667C29.0811 115.667 32.4277 112.876 31.5911 113.993C30.7544 115.111 26.7141 124.171 26.7141 124.171L25.1785 129.466L28.8057 110.647L31.8717 94.7607L33.7145 85.0173C35.4937 84.4242 45.8143 80.2515 45.8143 80.2515C45.8143 80.2515 46.0367 77.0744 48.176 75.9623L47.8794 72.711C47.8794 72.711 50.6912 73.696 52.5075 73.5583Z" fill="white"/>
<path d="M67.9802 92.3778C67.9802 92.3778 70.4902 88.1998 70.7709 89.1741C71.0515 90.1485 70.0719 93.4898 70.0719 93.4898C70.0719 93.4898 72.7195 92.5155 72.4442 93.3521C72.1688 94.1888 71.6075 94.6071 71.7452 95.0254C71.8829 95.4438 80.9484 100.183 82.0657 100.739C83.183 101.295 85.8307 98.0914 87.0857 99.0658C88.3407 100.04 87.0857 103.381 84.5757 103.387C82.0657 103.392 74.8165 100.21 74.8165 100.21L69.1081 96.8894" fill="#263238"/>
<path opacity="0.5" d="M67.9802 92.3778C67.9802 92.3778 70.4902 88.1998 70.7709 89.1741C71.0515 90.1485 70.0719 93.4898 70.0719 93.4898C70.0719 93.4898 72.7195 92.5155 72.4442 93.3521C72.1688 94.1888 71.6075 94.6071 71.7452 95.0254C71.8829 95.4438 80.9484 100.183 82.0657 100.739C83.183 101.295 85.8307 98.0914 87.0857 99.0658C88.3407 100.04 87.0857 103.381 84.5757 103.387C82.0657 103.392 74.8165 100.21 74.8165 100.21L69.1293 96.9" fill="white"/>
<path d="M52.9258 109.249C52.9258 109.249 69.2247 100.607 66.5771 103.81C63.9294 107.014 55.1551 110.647 52.9258 109.249Z" fill="#263238"/>
<path opacity="0.5" d="M52.9258 109.249C52.9258 109.249 69.2247 100.607 66.5771 103.81C63.9294 107.014 55.1551 110.647 52.9258 109.249Z" fill="white"/>
<path d="M47.8794 72.7375C47.8794 72.7375 47.9959 74.9615 48.3507 77.3021C48.7055 79.6426 48.5837 79.6426 50.8077 82.4491C53.0317 85.2556 55.3722 87.6014 55.7217 87.1354" stroke="#263238" stroke-width="1.06068" stroke-miterlimit="10" stroke-linecap="round"/>
<path d="M55.8382 86.3147C55.8382 86.3147 56.0712 82.2161 55.2558 79.5261C54.4403 76.8361 53.2647 75.8935 53.2647 75.2899C53.2251 74.6609 53.1473 74.0349 53.0317 73.4153" stroke="#263238" stroke-width="1.06068" stroke-miterlimit="10" stroke-linecap="round"/>
<path d="M47.8794 76.1318C46.9441 76.974 46.2898 78.083 46.0049 79.309C45.6554 81.1782 45.3059 83.4023 45.3059 83.4023L48.9332 90.6621C49.249 89.3979 49.7204 88.1777 50.3364 87.0295C50.6416 86.4629 51.0368 85.9496 51.5067 85.5098" stroke="#263238" stroke-width="1.06068" stroke-miterlimit="10" stroke-linecap="round"/>
<path d="M56.659 84.3236C56.9151 84.2595 57.1814 84.2471 57.4424 84.2871C57.7033 84.3271 57.9537 84.4187 58.1788 84.5566C59.116 85.0279 60.9906 87.4849 60.9906 87.4849C60.9906 87.4849 59.7038 81.3953 57.4798 78.2393C55.2558 75.0833 53.7307 75.311 53.7307 75.311" stroke="#263238" stroke-width="1.06068" stroke-miterlimit="10" stroke-linecap="round"/>
<path d="M44.9509 80.6964L33.7143 85.0173C33.7143 85.0173 29.621 107.374 28.096 113.342C26.5709 119.31 24.0027 136.17 24.0027 136.17L27.0422 136.752L28.1012 133.713" stroke="#263238" stroke-linecap="round" stroke-linejoin="round"/>
<path d="M28.6838 131.965C28.6838 131.965 29.3828 130.906 31.2574 125.082C33.1319 119.257 38.1412 104.959 38.9832 102.137C39.8252 99.3146 40.5029 97.456 40.5029 97.456" stroke="#263238" stroke-width="1.06068" stroke-miterlimit="10" stroke-linecap="round"/>
<path d="M38.512 94.0193C38.512 94.0193 47.9906 110.964 48.8113 111.695C49.6321 112.426 48.4618 114.385 48.2235 115.439" stroke="#263238" stroke-width="1.06068" stroke-miterlimit="10" stroke-linecap="round"/>
<path d="M47.175 117.568L44.1355 123.89C44.1355 123.89 46.1265 126.935 54.5514 126.935C59.5651 126.95 64.507 125.743 68.9493 123.419C68.9493 123.419 66.9583 112.886 67.0748 111.012C67.1912 109.137 67.4295 104.223 67.4295 104.223C67.4295 104.223 69.5477 101.046 69.2988 98.6051C69.0499 96.1639 68.012 93.3362 68.012 92.8703C68.012 92.4043 67.779 87.3684 67.779 87.3684" stroke="#263238" stroke-width="1.06068" stroke-miterlimit="10" stroke-linecap="round"/>
<path d="M54.5354 107.162L62.9232 102.015" stroke="#263238" stroke-width="0.530341" stroke-miterlimit="10" stroke-linecap="round"/>
<path d="M58.9519 105.547L63.5112 102.9" stroke="#263238" stroke-width="0.530341" stroke-miterlimit="10" stroke-linecap="round"/>
<path d="M84.0514 95.3273L82.3411 99.5159" stroke="#263238" stroke-width="0.530341" stroke-miterlimit="10" stroke-linecap="round"/>
<path d="M83.3685 97.1594L81.7534 98.7798" stroke="#263238" stroke-width="0.530341" stroke-miterlimit="10" stroke-linecap="round"/>
<path d="M35.5571 112.023C35.5571 112.023 32.7612 115.259 30.8496 116.583" stroke="#263238" stroke-width="0.530341" stroke-miterlimit="10" stroke-linecap="round"/>
<path d="M33.942 112.902C33.942 112.902 29.0862 116.726 27.9106 117.61" stroke="#263238" stroke-width="0.530341" stroke-miterlimit="10" stroke-linecap="round"/>
<path d="M34.8052 85.6845C36.269 87.7542 37.5956 89.9176 38.7767 92.1607" stroke="#263238" stroke-width="0.530341" stroke-miterlimit="10" stroke-linecap="round"/>
<path d="M39.2373 93.188L40.2646 94.9513" stroke="#263238" stroke-width="0.530341" stroke-miterlimit="10" stroke-linecap="round"/>
<path d="M68.012 92.8703L69.2987 86.3147" stroke="#263238" stroke-width="0.530341" stroke-miterlimit="10" stroke-linecap="round"/>
<path d="M68.4834 93.3362L70.4691 90.5297" stroke="#263238" stroke-width="0.530341" stroke-miterlimit="10" stroke-linecap="round"/>
<path d="M40.5028 97.4348L34.8845 94.39" stroke="#263238" stroke-width="0.530341" stroke-miterlimit="10" stroke-linecap="round"/>
<path d="M55.6052 87.7179C55.6052 87.7179 57.7233 91.9542 58.417 94.9778" stroke="#263238" stroke-width="0.530341" stroke-miterlimit="10" stroke-linecap="round"/>
<path d="M90.3689 80.3416C90.9292 80.3003 91.492 80.3728 92.0234 80.5548C92.5549 80.7368 93.044 81.0245 93.4614 81.4006" stroke="#263238" stroke-width="0.530341" stroke-miterlimit="10" stroke-linecap="round"/>
<path d="M26.0361 133.263L27.487 133.803" stroke="#263238" stroke-width="0.530341" stroke-miterlimit="10" stroke-linecap="round"/>
<path d="M23.9658 136.382C23.984 138.395 23.8778 140.408 23.648 142.408C23.2985 144.87 23.415 150.488 23.881 152.241C24.347 153.994 24.5853 154.359 25.0513 153.3C25.5173 152.241 26.9258 146.046 26.9258 146.046C26.9258 146.046 27.1588 150.139 28.2126 149.789C29.2664 149.44 28.6839 147.449 28.6839 145.691C28.6839 143.933 28.8004 143.35 28.6839 141.947C28.5674 140.544 27.0053 137.075 27.0053 137.075" fill="white"/>
<path d="M23.9658 136.382C23.984 138.395 23.8778 140.408 23.648 142.408C23.2985 144.87 23.415 150.488 23.881 152.241C24.347 153.994 24.5853 154.359 25.0513 153.3C25.5173 152.241 26.9258 146.046 26.9258 146.046C26.9258 146.046 27.1588 150.139 28.2126 149.789C29.2664 149.44 28.6839 147.449 28.6839 145.691C28.6839 143.933 28.8004 143.35 28.6839 141.947C28.5674 140.544 27.0053 137.075 27.0053 137.075" stroke="#263238" stroke-miterlimit="10" stroke-linecap="round"/>
<path d="M91.7351 76.5025C91.6819 75.467 91.6819 74.4296 91.7351 73.3941C91.8304 72.4198 91.4439 70.9636 91.5392 69.6874C91.6345 68.4112 92.9001 67.94 92.7041 66.2878C92.5082 64.6357 92.1217 64.4398 92.4129 64.0532C92.7041 63.6667 94.531 64.2438 94.6475 65.3135C94.7513 66.4142 94.7513 67.5223 94.6475 68.6231C94.5522 68.9143 95.23 70.7412 94.8434 71.5355C94.622 71.9657 94.4582 72.4233 94.3563 72.8964" stroke="#263238" stroke-width="0.880843" stroke-miterlimit="10" stroke-linecap="round"/>
<path d="M95.0393 65.2288C95.0393 65.2288 97.2739 60.7595 98.5395 60.6589C99.8051 60.5583 99.4132 61.718 99.0214 62.311C98.6295 62.9041 97.3692 65.0328 97.2739 65.9119C97.1786 66.7909 96.0083 69.698 96.0083 69.698" stroke="#263238" stroke-width="0.880843" stroke-miterlimit="10" stroke-linecap="round"/>
<path d="M97.2897 65.9119C97.2897 65.9119 100.695 67.9506 99.9374 69.6186C99.1801 71.2866 98.7671 71.9538 98.1846 71.7367C97.6682 71.4728 97.2064 71.1134 96.8237 70.6776" stroke="#263238" stroke-width="0.880843" stroke-miterlimit="10" stroke-linecap="round"/>
<path d="M98.5396 71.742C98.5396 71.742 97.6606 73.1982 96.9828 74.0772C96.593 74.5849 96.1309 75.0327 95.6113 75.4063L95.1982 76.8414" stroke="#263238" stroke-width="0.880843" stroke-miterlimit="10" stroke-linecap="round"/>
<path d="M57.7126 78.8218C57.7126 78.8218 65.788 78.7053 66.8417 79.9921C67.8955 81.2788 80.6572 92.9867 82.1981 94.0405C83.7391 95.0943 84.0727 95.3273 84.0727 95.3273C84.0727 95.3273 90.39 81.03 90.39 80.3416C90.39 79.6532 91.449 76.4813 91.449 76.4813C91.449 76.4813 93.44 76.7143 93.9113 76.7143C94.3826 76.7143 95.6641 78.2393 95.6641 78.2393C95.6641 78.2393 93.9113 85.3774 93.9113 86.1823C93.9113 86.9872 90.6335 98.1232 89.1085 101.539C87.5834 104.954 85.4812 104.462 82.0869 103.408C78.6926 102.354 69.447 97.0906 69.447 97.0906" stroke="#263238" stroke-width="1.06068" stroke-miterlimit="10" stroke-linecap="round"/>
<path d="M44.1355 123.89C44.1355 123.89 39.4492 135.614 38.1836 143.594C36.918 151.574 37.4581 170.235 37.0928 172.231C36.7274 174.227 31.6545 183.648 31.6545 188.18C31.6545 192.713 28.938 216.092 28.938 216.092L30.749 217.177C30.749 217.177 37.1033 197.585 39.4492 192.528C41.795 187.471 45.0675 175.493 45.973 173.136C46.8785 170.78 53.2275 151.929 53.5876 149.572C53.9477 147.216 56.1241 141.418 56.1241 141.418C56.1241 141.418 60.8369 170.235 61.7424 176.218C62.6479 182.202 68.9916 214.641 68.9916 214.641C69.4083 214.743 69.834 214.803 70.2625 214.821C70.7921 214.821 70.988 213.916 70.988 213.916C70.988 213.916 73.5244 190.897 72.799 184.733C72.0735 178.569 69.9024 170.965 69.9024 168.784C69.9024 166.602 73.1644 147.761 73.1644 141.248C73.1644 134.735 68.9281 123.429 68.9281 123.429C68.9281 123.429 53.8947 131.012 44.1355 123.89Z" fill="#263238"/>
<path d="M69.8337 169.98C69.8337 169.98 68.2186 176.896 66.0105 180.571" stroke="white" stroke-width="0.530341" stroke-miterlimit="10" stroke-linecap="round"/>
<path d="M69.3941 177.044C69.3941 177.044 68.0703 182.043 65.4226 184.4" stroke="white" stroke-width="0.530341" stroke-miterlimit="10" stroke-linecap="round"/>
<path d="M38.0618 174.836C38.0618 174.836 39.0891 180.868 40.2646 183.367" stroke="white" stroke-width="0.530341" stroke-miterlimit="10" stroke-linecap="round"/>
<path d="M37.7651 178.368C37.7651 178.368 38.6495 182.636 40.2645 185.136" stroke="white" stroke-width="0.530341" stroke-miterlimit="10" stroke-linecap="round"/>
<path d="M56.5955 141.444L62.4785 136.588" stroke="white" stroke-width="0.530341" stroke-miterlimit="10" stroke-linecap="round"/>
<path d="M59.3914 139.384L66.307 136.292" stroke="white" stroke-width="0.530341" stroke-miterlimit="10" stroke-linecap="round"/>
<path d="M44.2361 131.145C44.2361 131.145 48.8006 134.084 51.4483 136.588" stroke="white" stroke-width="0.530341" stroke-miterlimit="10" stroke-linecap="round"/>
<path d="M29.1288 216.076C29.1288 216.076 22.2449 221.901 22.2449 224.792C22.2449 227.683 24.9614 227.509 27.8632 224.792C30.765 222.076 30.9133 216.478 30.9133 216.478L29.1288 216.076Z" fill="white" stroke="#263238" stroke-width="1.06068" stroke-miterlimit="10" stroke-linecap="round"/>
<path d="M68.9917 214.641C68.9917 214.641 71.3481 220.439 73.8899 222.981C76.4316 225.523 77.8772 226.423 77.8772 223.701C77.8772 220.979 76.2463 217.903 70.9933 213.916C70.988 213.916 72.4389 215.001 68.9917 214.641Z" fill="white" stroke="#263238" stroke-width="1.06068" stroke-miterlimit="10" stroke-linecap="round"/>
<path d="M44.6757 54.1457C44.2044 53.971 43.7596 53.7591 43.2989 53.5632C42.8382 53.3673 41.9962 53.2614 41.6785 54.707C41.2072 56.8251 44.485 58.5726 43.4313 60.3253C42.7757 61.3916 41.7904 62.2151 40.6248 62.6711C40.435 62.7364 40.2373 62.7756 40.037 62.7876C39.0997 62.9041 37.58 62.7876 38.046 64.4239C38.5119 66.0601 40.037 67.4687 40.9743 67.4687H41.9115C41.9115 67.4687 42.9706 70.6459 46.9421 72.3827C50.9135 74.1196 53.6141 74.0243 54.5514 71.8002C55.4887 69.5762 56.193 67.7017 56.193 64.7734C56.193 61.8451 55.1339 56.931 55.1339 56.931C55.1339 56.931 54.1966 58.2231 50.5693 56.5815C48.1706 55.496 45.9254 54.617 44.6757 54.1457Z" fill="white"/>
<mask id="mask1_7915_34439" style="mask-type:luminance" maskUnits="userSpaceOnUse" x="37" y="53" width="20" height="21">
<path d="M44.6757 54.1457C44.2044 53.971 43.7596 53.7591 43.2989 53.5632C42.8382 53.3673 41.9962 53.2614 41.6785 54.707C41.2072 56.8251 44.485 58.5726 43.4313 60.3253C42.7757 61.3916 41.7904 62.2151 40.6248 62.6711C40.435 62.7364 40.2373 62.7756 40.037 62.7876C39.0997 62.9041 37.58 62.7876 38.046 64.4239C38.5119 66.0601 40.037 67.4687 40.9743 67.4687H41.9115C41.9115 67.4687 42.9706 70.6459 46.9421 72.3827C50.9135 74.1196 53.6141 74.0243 54.5514 71.8002C55.4887 69.5762 56.193 67.7017 56.193 64.7734C56.193 61.8451 55.1339 56.931 55.1339 56.931C55.1339 56.931 54.1966 58.2231 50.5693 56.5815C48.1706 55.496 45.9254 54.617 44.6757 54.1457Z" fill="white"/>
</mask>
<g mask="url(#mask1_7915_34439)">
<g style="mix-blend-mode:multiply" opacity="0.5">
<path d="M50.5748 56.5815C50.5748 56.5815 44.9776 56.2691 44.141 56.4068C43.3043 56.5445 44.2786 59.0544 44.0033 61.5644C43.7279 64.0744 43.8603 68.12 44.9776 69.375C46.2961 70.669 47.6932 71.8804 49.1609 73.0023C49.1609 73.0023 44.8664 72.3086 43.3043 70.4923C41.7422 68.676 41.4933 67.7017 41.4933 67.7017C41.4933 67.7017 37.866 65.5836 37.5854 63.9367C37.3047 62.2899 39.7035 63.1636 40.8526 62.3481C41.4986 61.9033 44.1727 61.0667 43.5002 58.8373C42.8277 56.608 41.7422 56.1897 41.6998 54.6964C41.6681 53.6374 42.6 53.3302 43.1719 53.2349C43.4298 53.1915 43.6947 53.2304 43.9292 53.3461L50.5748 56.5815Z" fill="#263238"/>
</g>
</g>
<path d="M44.6757 54.1457C44.2044 53.971 43.7596 53.7591 43.2989 53.5632C42.8382 53.3673 41.9962 53.2614 41.6785 54.707C41.2072 56.8251 44.485 58.5726 43.4313 60.3253C42.7757 61.3916 41.7904 62.2151 40.6248 62.6711C40.435 62.7364 40.2373 62.7756 40.037 62.7876C39.0997 62.9041 37.58 62.7876 38.046 64.4239C38.5119 66.0601 40.037 67.4687 40.9743 67.4687H41.9115C41.9115 67.4687 42.9706 70.6459 46.9421 72.3827C50.9135 74.1196 53.6141 74.0243 54.5514 71.8002C55.4887 69.5762 56.193 67.7017 56.193 64.7734C56.193 61.8451 55.1339 56.931 55.1339 56.931C55.1339 56.931 54.1966 58.2231 50.5693 56.5815C48.1706 55.496 45.9254 54.617 44.6757 54.1457Z" stroke="#263238" stroke-width="1.06068" stroke-miterlimit="10" stroke-linecap="round"/>
<path d="M48.8114 61.0826C48.8855 61.5274 48.7637 61.9192 48.536 61.9563C48.3083 61.9933 48.0754 61.6597 48.0065 61.2149C47.9377 60.7701 48.0595 60.373 48.2819 60.3359C48.5043 60.2988 48.7373 60.6589 48.8114 61.0826Z" fill="#263238"/>
<path d="M53.6566 60.2724C53.7255 60.7172 53.6037 61.109 53.3813 61.1461C53.1589 61.1832 52.9206 60.8496 52.8517 60.4048C52.7829 59.96 52.8994 59.5681 53.1218 59.531C53.3442 59.494 53.5825 59.8276 53.6566 60.2724Z" fill="#263238"/>
<path d="M46.0049 58.9221C46.3012 58.4816 46.7031 58.1224 47.1739 57.8773C47.6447 57.6322 48.1695 57.5089 48.7002 57.5188" stroke="#263238" stroke-width="1.06068" stroke-miterlimit="10" stroke-linecap="round"/>
<path d="M52.3274 57.8683C52.7772 57.7111 53.2642 57.6942 53.7237 57.82C54.1833 57.9458 54.5938 58.2082 54.9009 58.5726" stroke="#263238" stroke-width="1.06068" stroke-miterlimit="10" stroke-linecap="round"/>
<path d="M51.8615 59.8593C51.7968 60.5993 51.7968 61.3434 51.8615 62.0834C51.978 63.0206 52.6769 63.2536 52.4439 63.9579C52.2109 64.6622 51.2737 64.6569 51.2737 64.6569" stroke="#263238" stroke-width="1.06068" stroke-miterlimit="10" stroke-linecap="round"/>
<path d="M50.1032 67.4687C49.7022 67.5634 49.2854 67.5704 48.8814 67.489C48.4774 67.4077 48.0958 67.24 47.7627 66.9974" stroke="#263238" stroke-width="1.06068" stroke-miterlimit="10" stroke-linecap="round"/>
</svg>
