<svg width="580" height="580" viewBox="0 0 580 580" fill="none" xmlns="http://www.w3.org/2000/svg">
<rect width="580" height="580" fill="#323232"/>
<path opacity="0.4" d="M358.333 261.368V302.983L347.195 293.417C341.865 288.838 333.255 288.838 327.925 293.417L299.498 317.812C294.168 322.39 285.558 322.39 280.228 317.812L277.905 315.898C273.053 311.662 265.332 311.252 259.865 314.942L226.245 337.492L225.493 338.038C222.965 332.572 221.667 326.08 221.667 318.632V261.368C221.667 236.495 236.495 221.667 261.368 221.667H318.632C343.505 221.667 358.333 236.495 358.333 261.368Z" fill="#5D5C5C"/>
<path d="M269.5 278.93C278.482 278.93 285.763 271.649 285.763 262.667C285.763 253.685 278.482 246.403 269.5 246.403C260.518 246.403 253.237 253.685 253.237 262.667C253.237 271.649 260.518 278.93 269.5 278.93Z" fill="#5D5C5C"/>
<path d="M358.333 302.984V318.632C358.333 343.505 343.505 358.334 318.632 358.334H261.368C243.943 358.334 231.37 351.022 225.493 338.039L226.245 337.492L259.865 314.942C265.332 311.252 273.053 311.662 277.905 315.899L280.228 317.812C285.558 322.39 294.168 322.39 299.498 317.812L327.925 293.417C333.255 288.839 341.865 288.839 347.195 293.417L358.333 302.984Z" fill="#5D5C5C"/>
</svg>
