<svg width="200" height="146" viewBox="0 0 200 146" fill="none" xmlns="http://www.w3.org/2000/svg">
<path d="M200.002 141.99H11.2109V145.047H200.002V141.99Z" fill="#324450"/>
<path d="M192.346 96.8846C191.39 88.5415 188.261 88.9051 187.285 80.562C186.309 72.2189 189.414 71.8554 188.438 63.5123C187.462 55.1692 184.353 55.5328 183.372 47.1897C182.391 38.8467 185.505 38.4831 184.525 30.14C183.544 21.797 180.439 22.1605 179.463 13.8223L178.985 15.511C178.028 22.2084 175.292 22.5528 174.627 30.341C173.909 38.7127 177.019 38.9806 176.311 47.3572C175.603 55.7337 172.484 55.4658 171.757 63.8424C171.029 72.2189 174.149 72.482 173.441 80.8586C172.733 89.2352 169.613 88.9912 168.891 97.3438C168.588 100.063 168.835 102.816 169.618 105.438C170.264 106.935 172.991 112.475 178.488 114.083C178.836 114.184 179.191 114.264 179.55 114.322V142.298H180.808V114.422C185.859 114.456 189.218 109.476 191.768 105.309L191.801 105.256C192.555 102.533 192.741 99.683 192.346 96.8846ZM186.663 93.5837L180.42 105.17V113.886H179.884V105.18L172.933 93.7655C172.896 93.7018 172.885 93.6262 172.903 93.5546C172.921 93.4831 172.966 93.4214 173.029 93.3828C173.093 93.346 173.169 93.3359 173.241 93.3547C173.313 93.3735 173.374 93.4197 173.412 93.4832L179.904 104.137V71.2813C179.855 71.2647 179.812 71.2349 179.779 71.1952L174.225 64.0194C174.203 63.9914 174.187 63.9595 174.178 63.9254C174.169 63.8912 174.166 63.8556 174.171 63.8205C174.175 63.7854 174.186 63.7515 174.204 63.7208C174.222 63.6901 174.245 63.6631 174.273 63.6415C174.301 63.6198 174.333 63.6038 174.367 63.5945C174.401 63.5852 174.437 63.5827 174.472 63.5871C174.507 63.5916 174.541 63.6029 174.571 63.6204C174.602 63.6379 174.629 63.6614 174.651 63.6893L179.913 70.468V39.2294L176.177 31.757C176.149 31.6915 176.148 31.6179 176.174 31.5518C176.2 31.4857 176.251 31.4323 176.316 31.403C176.376 31.3768 176.445 31.374 176.507 31.3952C176.57 31.4164 176.623 31.4601 176.655 31.5178L179.908 38.0286V27.1406C179.908 27.0695 179.937 27.0014 179.987 26.9511C180.037 26.9009 180.105 26.8727 180.176 26.8727C180.247 26.8727 180.315 26.9009 180.366 26.9511C180.416 27.0014 180.444 27.0695 180.444 27.1406V37.732L182.616 32.2402C182.629 32.2072 182.648 32.1771 182.673 32.1515C182.697 32.126 182.726 32.1055 182.759 32.0913C182.791 32.0771 182.826 32.0694 182.862 32.0687C182.897 32.0679 182.932 32.0742 182.965 32.0871C182.998 32.1 183.028 32.1192 183.054 32.1437C183.079 32.1682 183.1 32.1976 183.114 32.23C183.128 32.2624 183.136 32.2973 183.137 32.3327C183.137 32.3681 183.131 32.4033 183.118 32.4363L180.444 39.2007V70.0997L185.529 64.0672C185.552 64.0402 185.58 64.0179 185.611 64.0016C185.642 63.9853 185.676 63.9753 185.711 63.9722C185.746 63.9691 185.782 63.9729 185.815 63.9835C185.849 63.9941 185.88 64.0111 185.907 64.0337C185.934 64.0564 185.957 64.0841 185.973 64.1153C185.989 64.1465 185.999 64.1807 186.002 64.2158C186.005 64.2509 186.002 64.2862 185.991 64.3198C185.98 64.3535 185.963 64.3847 185.941 64.4117L180.444 70.9369V104.036L186.213 93.3254C186.248 93.2632 186.305 93.2173 186.373 93.1975C186.442 93.1778 186.515 93.1859 186.577 93.2201C186.607 93.2382 186.632 93.262 186.653 93.2902C186.673 93.3183 186.688 93.3502 186.696 93.384C186.704 93.4178 186.705 93.4528 186.699 93.4871C186.694 93.5214 186.681 93.5542 186.663 93.5837Z" fill="#324450"/>
<path d="M195.867 142.289L194.375 141.811C193.605 141.576 193.351 140.878 192.586 139.481C191.82 138.084 189.773 140.18 188.237 140.18C186.702 140.18 188.491 138.548 187.725 137.151C186.96 135.754 184.912 137.386 183.123 136.917C181.334 136.448 183.889 132.257 181.334 132.492C180.856 132.535 180.506 132.913 180.239 133.496C179.995 132.913 179.674 132.54 179.244 132.492C176.914 132.257 179.244 136.453 177.612 136.917C175.981 137.381 174.12 135.754 173.422 137.151C172.723 138.548 174.35 140.18 172.943 140.18C171.537 140.18 169.681 138.084 168.982 139.481C168.284 140.878 168.049 141.576 167.351 141.811L165.992 142.289H195.867Z" fill="#324450"/>
<path d="M63.832 73.9657V73.9418H63.8033V73.9179C63.1383 73.8509 56.2543 73.2625 49.9731 76.5251C52.7466 73.039 54.0248 68.5954 53.5275 64.1684C52.0158 49.0035 37.7025 40.3208 36.6022 39.675V39.6367H36.5352V39.7085C35.4301 40.3543 21.1216 49.037 19.6051 64.2019C19.2811 67.1374 19.7331 70.1067 20.9159 72.8128C12.8598 67.9955 3.46433 68.8087 2.59845 68.8901H2.50277V68.9188C2.07701 69.8755 -3.30006 82.8303 3.15816 93.7949C8.93708 103.616 21.0546 101.023 24.3459 100.1C27.111 103.004 32.1532 109.61 34.392 120.895H31.2538L32.7703 142.26H39.8313L41.3478 120.924H37.6499C39.3439 113.278 42.4001 105.999 46.6722 99.4351C49.9635 100.258 58.8854 101.645 63.2818 94.1728C68.5249 85.2509 64.1573 74.7647 63.832 73.9657ZM36.3439 73.8844L28.881 63.5178C28.8652 63.4965 28.8537 63.4722 28.8473 63.4465C28.8409 63.4207 28.8397 63.3939 28.8437 63.3677C28.8477 63.3414 28.8569 63.3162 28.8707 63.2936C28.8845 63.2709 28.9026 63.2512 28.9241 63.2355C28.9679 63.2033 29.0227 63.1897 29.0765 63.1978C29.1303 63.2059 29.1787 63.2349 29.2111 63.2786L36.3343 73.1955V62.7045L28.8715 52.3427C28.8392 52.2989 28.8257 52.2441 28.8337 52.1903C28.8418 52.1365 28.8708 52.0881 28.9145 52.0556C28.9593 52.0251 29.0142 52.0131 29.0676 52.022C29.1211 52.0309 29.1691 52.0601 29.2015 52.1035L36.3439 62.03V46.7216C36.3533 46.6683 36.3829 46.6206 36.4265 46.5885C36.4702 46.5564 36.5245 46.5424 36.5783 46.5494C36.6219 46.5553 36.6623 46.5753 36.6934 46.6064C36.7246 46.6376 36.7446 46.678 36.7505 46.7216V61.499L44.5004 51.6681C44.5334 51.6266 44.5812 51.5994 44.6338 51.5923C44.6864 51.5851 44.7397 51.5986 44.7826 51.6299C44.8234 51.6636 44.8497 51.7117 44.8559 51.7643C44.8622 51.8169 44.8479 51.8698 44.8161 51.9121L36.7409 62.1927V72.7172L44.4908 62.8863C44.5072 62.8649 44.5277 62.847 44.5511 62.8336C44.5745 62.8203 44.6004 62.8118 44.6272 62.8087C44.654 62.8055 44.6811 62.8078 44.707 62.8154C44.7329 62.823 44.757 62.8357 44.7778 62.8528C44.7986 62.8692 44.8159 62.8894 44.8288 62.9124C44.8417 62.9355 44.8499 62.9608 44.853 62.987C44.8561 63.0132 44.8541 63.0398 44.8469 63.0652C44.8397 63.0906 44.8276 63.1143 44.8113 63.1351L36.7409 73.3726V82.2514L44.4908 72.4254C44.5238 72.3838 44.5716 72.3566 44.6242 72.3495C44.6768 72.3423 44.7301 72.3558 44.773 72.3871C44.8139 72.4208 44.8401 72.4689 44.8464 72.5215C44.8526 72.5741 44.8383 72.627 44.8065 72.6693L36.7409 82.9068V83.1029H36.0855L28.8667 73.0568C28.8344 73.013 28.8209 72.9582 28.8289 72.9044C28.837 72.8506 28.8661 72.8022 28.9097 72.7698C28.9545 72.7393 29.0094 72.7272 29.0628 72.7361C29.1163 72.745 29.1643 72.7742 29.1968 72.8176L36.3343 82.7633V73.8653L36.3439 73.8844ZM24.4655 99.1863L23.7336 98.1817L13.2091 95.254C13.1697 95.2383 13.1374 95.2086 13.1185 95.1707C13.0996 95.1327 13.0954 95.0891 13.1066 95.0482C13.1179 95.0073 13.1439 94.972 13.1795 94.9491C13.2152 94.9261 13.2581 94.9172 13.3 94.9239L23.4083 97.7368L19.0215 91.7378L8.52088 88.8101C8.47726 88.7978 8.44024 88.7688 8.41786 88.7294C8.39547 88.69 8.38951 88.6434 8.40129 88.5996C8.41354 88.5572 8.44201 88.5214 8.48053 88.4999C8.51905 88.4784 8.56449 88.473 8.60699 88.4848L18.6962 91.2977L13.5105 84.1984L2.98595 81.2707C2.96533 81.2657 2.94593 81.2566 2.92891 81.244C2.91189 81.2313 2.89759 81.2153 2.88687 81.197C2.87616 81.1787 2.86924 81.1585 2.86653 81.1374C2.86383 81.1164 2.86539 81.095 2.87113 81.0746C2.87669 81.0532 2.88644 81.0331 2.89981 81.0154C2.91318 80.9978 2.92992 80.983 2.94905 80.9719C2.96817 80.9608 2.98932 80.9535 3.01125 80.9506C3.03319 80.9477 3.05548 80.9492 3.07684 80.955L13.166 83.7679L5.89454 73.7887C5.86814 73.7519 5.85735 73.7061 5.86451 73.6613C5.87168 73.6165 5.89622 73.5763 5.93281 73.5495C5.96742 73.5239 6.01061 73.5125 6.05338 73.5179C6.09615 73.5232 6.13521 73.5448 6.16243 73.5783L13.7114 83.9018L13.6396 73.6739C13.6355 73.6516 13.6361 73.6286 13.6411 73.6064C13.6462 73.5843 13.6558 73.5634 13.6692 73.545C13.6826 73.5267 13.6997 73.5112 13.7193 73.4997C13.7388 73.4881 13.7606 73.4807 13.7831 73.4778C13.8052 73.4737 13.8278 73.474 13.8497 73.4788C13.8715 73.4836 13.8922 73.4928 13.9105 73.5057C13.9288 73.5186 13.9443 73.5351 13.9561 73.5541C13.9679 73.5732 13.9758 73.5944 13.9793 73.6165C13.9841 73.6354 13.9841 73.6551 13.9793 73.6739L14.0797 84.3515L19.2607 91.446L19.1889 81.2133C19.1848 81.1909 19.1853 81.168 19.1904 81.1458C19.1955 81.1236 19.2051 81.1027 19.2185 81.0844C19.2319 81.066 19.249 81.0506 19.2685 81.0391C19.2881 81.0275 19.3099 81.0201 19.3324 81.0172C19.3544 81.0131 19.3771 81.0134 19.3989 81.0182C19.4208 81.023 19.4415 81.0321 19.4598 81.0451C19.4781 81.058 19.4936 81.0745 19.5054 81.0935C19.5172 81.1126 19.5251 81.1338 19.5286 81.1559C19.5334 81.1747 19.5334 81.1945 19.5286 81.2133L19.6051 91.9005L23.9106 97.8803L23.834 87.6476C23.8364 87.6032 23.8555 87.5612 23.8874 87.5302C23.9193 87.4992 23.9618 87.4813 24.0063 87.4802C24.0507 87.4802 24.0933 87.4978 24.1247 87.5292C24.1561 87.5606 24.1737 87.6032 24.1737 87.6476L24.2502 98.33L24.8769 99.1863H24.4655ZM25.6615 99.1863C27.1923 96.8566 31.6126 89.2071 28.9719 81.8448C31.0245 83.1995 33.221 84.3226 35.521 85.1935V118.413C33.0956 108.233 28.527 102.148 25.7476 99.1863H25.6615ZM37.1428 116.365V85.3466C39.3319 84.5489 41.4309 83.5227 43.4049 82.2849C39.1903 89.0397 43.8832 96.8422 45.1557 98.684C41.6145 104.143 38.9134 110.103 37.1428 116.365ZM63.4158 83.9832L54.8957 86.3751L50.6859 92.1157L58.8711 89.8291C58.889 89.824 58.9077 89.8226 58.9262 89.825C58.9446 89.8274 58.9624 89.8334 58.9785 89.8428C58.9946 89.8522 59.0086 89.8647 59.0197 89.8796C59.0308 89.8945 59.0389 89.9115 59.0433 89.9295C59.0522 89.9644 59.0472 90.0013 59.0293 90.0326C59.0115 90.0638 58.9822 90.0869 58.9476 90.0969L50.4228 92.4889L46.8684 97.3541L55.0536 95.0722C55.0884 95.0633 55.1254 95.0683 55.1566 95.0862C55.1879 95.104 55.2109 95.1333 55.221 95.1679C55.23 95.2033 55.2252 95.241 55.2074 95.273C55.1896 95.305 55.1602 95.329 55.1253 95.3401L46.6053 97.732L46.1556 98.3443C46.0742 98.2965 45.9929 98.2534 45.9212 98.2008L46.1747 97.8516L46.2369 89.1832C46.2381 89.1468 46.2531 89.1122 46.2789 89.0865C46.3046 89.0607 46.3392 89.0457 46.3756 89.0445C46.4124 89.0445 46.4477 89.0591 46.4737 89.0851C46.4997 89.1112 46.5144 89.1464 46.5144 89.1832L46.457 97.4832L50.0114 92.6228L50.0736 83.9545C50.0736 83.9177 50.0882 83.8824 50.1142 83.8564C50.1402 83.8304 50.1755 83.8157 50.2123 83.8157C50.2487 83.8169 50.2833 83.8319 50.3091 83.8577C50.3348 83.8835 50.3498 83.918 50.351 83.9545L50.2888 92.2593L54.4939 86.5186L54.556 77.8455C54.562 77.8137 54.5789 77.785 54.6038 77.7643C54.6287 77.7437 54.66 77.7324 54.6924 77.7324C54.7247 77.7324 54.7561 77.7437 54.781 77.7643C54.8058 77.785 54.8227 77.8137 54.8287 77.8455L54.7426 86.112L60.866 77.7354C60.8878 77.7067 60.9201 77.6876 60.9558 77.6822C60.9915 77.6769 61.028 77.6857 61.0573 77.7067C61.0718 77.7168 61.0841 77.7296 61.0936 77.7444C61.1031 77.7592 61.1096 77.7758 61.1127 77.7931C61.1158 77.8104 61.1155 77.8282 61.1118 77.8454C61.108 77.8626 61.1009 77.8789 61.0908 77.8933L55.1732 85.9924L63.3536 83.7201C63.3884 83.7112 63.4254 83.7162 63.4566 83.734C63.4879 83.7519 63.511 83.7812 63.521 83.8157C63.5316 83.8481 63.5291 83.8833 63.5138 83.9138C63.4986 83.9443 63.4719 83.9675 63.4397 83.9784L63.4158 83.9832Z" fill="#324450"/>
<path d="M145.111 44.7267L143.843 40.9283L141.173 37.2734L139.643 41.5359L143.14 46.1332L145.111 44.7267Z" fill="white"/>
<path d="M143.092 46.4625L139.375 41.5782L141.097 36.7656L144.073 40.8558L145.393 44.8217L143.092 46.4625ZM139.896 41.4969L143.178 45.8024L144.814 44.6351L143.614 41.0424L141.222 37.775L139.896 41.4969Z" fill="#324450"/>
<path d="M164.007 56.5331L153.368 56.9063C152.975 56.9215 152.586 56.8236 152.247 56.6244C151.908 56.4251 151.633 56.1328 151.455 55.7821L145.111 44.7266C145.111 44.7266 143.284 45.712 143.14 46.133C142.997 46.554 147.379 57.1837 149.259 61.9198C149.416 62.3187 149.695 62.6583 150.055 62.8908C150.415 63.1234 150.84 63.2372 151.268 63.2162L163.165 62.7378" fill="#779E1C"/>
<path d="M151.18 63.4636C150.721 63.4659 150.271 63.3304 149.889 63.0746C149.507 62.8188 149.21 62.4544 149.037 62.0285C148.655 61.0717 148.171 59.8566 147.64 58.541C143.493 48.1935 142.823 46.3517 142.914 46.0743C143.067 45.5959 144.421 44.8448 144.995 44.5339L145.201 44.4238L151.659 55.6803C151.817 55.9919 152.061 56.252 152.362 56.4299C152.662 56.6079 153.008 56.6963 153.357 56.6849L163.996 56.3117V56.7901L153.357 57.1633C152.919 57.1773 152.485 57.0671 152.107 56.8453C151.729 56.6235 151.421 56.2992 151.219 55.9099L145 45.0697C144.402 45.3665 143.851 45.7484 143.364 46.2034C143.493 46.9545 146.234 53.805 148.066 58.364C148.592 59.6796 149.08 60.8899 149.463 61.8515C149.602 62.2044 149.847 62.505 150.166 62.7109C150.484 62.9169 150.859 63.0178 151.238 62.9996L163.135 62.5212V62.9996L151.238 63.478L151.18 63.4636Z" fill="#324450"/>
<path d="M145.826 46.5397L144.16 47.2305L144.298 47.5619L145.964 46.8711L145.826 46.5397Z" fill="#324450"/>
<path d="M149.837 65.3301H49.2324V141.379H149.837V65.3301Z" fill="#779E1C"/>
<path d="M149.836 141.604H49.2314C49.1679 141.604 49.1071 141.579 49.0622 141.534C49.0174 141.489 48.9922 141.429 48.9922 141.365V65.3017C48.9922 65.2383 49.0174 65.1774 49.0622 65.1326C49.1071 65.0877 49.1679 65.0625 49.2314 65.0625H149.836C149.899 65.0649 149.958 65.0908 150.003 65.1352C150.047 65.1795 150.073 65.239 150.075 65.3017V141.365C150.075 141.429 150.05 141.489 150.005 141.534C149.96 141.579 149.9 141.604 149.836 141.604ZM49.4801 141.126H149.606V65.5409H49.4801V141.126Z" fill="#324450"/>
<path d="M49.2324 65.3299L93.8468 21.7585C95.2041 20.6086 96.9217 19.9713 98.7005 19.9573C100.479 19.9433 102.207 20.5536 103.582 21.6819L149.837 65.3299H49.2324Z" fill="#779E1C"/>
<path d="M149.837 65.5693H49.232C49.1847 65.5697 49.1383 65.5558 49.099 65.5293C49.0597 65.5028 49.0294 65.4651 49.012 65.421C48.9941 65.3768 48.9895 65.3283 48.9989 65.2816C49.0082 65.2348 49.0311 65.1918 49.0646 65.1579L93.679 21.5912C95.0774 20.4016 96.8489 19.7405 98.6847 19.723C100.521 19.7055 102.304 20.3328 103.725 21.4955L149.99 65.1579C150.025 65.1905 150.05 65.2333 150.06 65.2804C150.07 65.3275 150.066 65.3766 150.047 65.421C150.03 65.4632 150.001 65.4996 149.964 65.5259C149.926 65.5522 149.882 65.5672 149.837 65.5693ZM49.8205 65.0909H149.234L103.419 21.8543C102.087 20.7649 100.416 20.1772 98.6951 20.1939C96.9747 20.2105 95.3146 20.8303 94.0043 21.9452L49.8205 65.0909Z" fill="#324450"/>
<path d="M141.493 29.0293H57.5742V99.8497H141.493V29.0293Z" fill="white"/>
<path d="M141.494 100.084H57.5751C57.5117 100.084 57.4509 100.059 57.406 100.014C57.3611 99.9694 57.3359 99.9086 57.3359 99.8451V29.0439C57.3359 28.9804 57.3611 28.9196 57.406 28.8747C57.4509 28.8299 57.5117 28.8047 57.5751 28.8047H141.494C141.557 28.8047 141.618 28.8299 141.663 28.8747C141.708 28.9196 141.733 28.9804 141.733 29.0439V99.8451C141.733 99.9086 141.708 99.9694 141.663 100.014C141.618 100.059 141.557 100.084 141.494 100.084ZM57.8143 99.6059H141.255V29.2831H57.8143V99.6059Z" fill="#324450"/>
<path d="M137.815 95.5397H61.2736C61.2254 95.5397 61.1791 95.5205 61.145 95.4865C61.1109 95.4524 61.0918 95.4061 61.0918 95.3579V33.5168C61.093 33.4695 61.1127 33.4245 61.1467 33.3914C61.1807 33.3583 61.2262 33.3398 61.2736 33.3398H137.815C137.862 33.3422 137.905 33.3615 137.938 33.3943C137.971 33.427 137.99 33.4706 137.992 33.5168V95.3579C137.992 95.4053 137.974 95.4508 137.941 95.4848C137.908 95.5187 137.863 95.5384 137.815 95.5397ZM61.441 95.2H137.634V33.6986H61.441V95.2Z" fill="#779E1C"/>
<path d="M135.371 93.8611H63.6991C63.5722 93.8611 63.4505 93.8107 63.3608 93.721C63.2711 93.6313 63.2207 93.5096 63.2207 93.3827V35.4979C63.2207 35.371 63.2711 35.2494 63.3608 35.1596C63.4505 35.0699 63.5722 35.0195 63.6991 35.0195H135.371C135.498 35.0195 135.62 35.0699 135.709 35.1596C135.799 35.2494 135.849 35.371 135.849 35.4979V93.3827C135.849 93.5096 135.799 93.6313 135.709 93.721C135.62 93.8107 135.498 93.8611 135.371 93.8611ZM64.1775 92.9043H134.893V35.9763H64.1775V92.9043Z" fill="#779E1C"/>
<path d="M96.7493 55.7866C97.1033 56.3463 97.4717 56.6286 97.8544 56.6286V56.6717C97.6056 56.6717 97.2803 56.8917 96.8976 57.3318C96.8976 57.4514 96.8545 57.5088 96.7636 57.5088C96.7636 57.284 96.6201 57.0926 96.3235 56.9348C96.0343 56.7975 95.7149 56.7366 95.3955 56.7578H85.5359L84.6078 57.1118L84.4739 57.2457H84.4021C84.3254 57.1967 84.2591 57.1329 84.2074 57.0581C84.1556 56.9832 84.1193 56.8987 84.1005 56.8096C84.0818 56.7205 84.0811 56.6285 84.0984 56.5391C84.1157 56.4497 84.1506 56.3647 84.2012 56.2889C84.253 56.2084 84.3216 56.1399 84.4021 56.088H84.4882C84.7709 56.2948 85.099 56.4309 85.445 56.4851L85.5359 56.576H95.6921C96.3953 56.4516 96.7493 56.2076 96.7493 55.7866ZM98.3423 55.4805C98.7298 55.4805 99.0408 55.7579 99.2656 56.3176V56.4085H99.1364C98.5145 56.2076 98.2084 55.9732 98.2084 55.7005V55.6096L98.3423 55.4805ZM99.0886 56.9156H99.1795L99.2656 57.0065C99.2656 57.2505 99.0168 57.528 98.5145 57.8437H98.4715C98.3184 57.8437 98.2275 57.8006 98.2084 57.7145V57.5375C98.4176 57.2342 98.7308 57.0181 99.0886 56.93V56.9156ZM100.768 55.4805L100.859 55.6096V55.7005C100.859 55.9062 100.591 56.1406 100.065 56.4085H99.7966V56.3176C99.7966 56.0737 100.031 55.8106 100.505 55.5235L100.768 55.4805ZM99.8875 56.9156C100.098 56.9289 100.298 57.0075 100.462 57.1405C100.725 57.2936 100.859 57.4562 100.859 57.6189V57.7098C100.83 57.7959 100.739 57.8389 100.591 57.8389H100.548C100.274 57.6991 100.045 57.4852 99.8875 57.2218L99.7966 57.0878V57.0017L99.8875 56.9156ZM102.313 55.7675C102.313 56.1885 102.667 56.4516 103.375 56.5664H113.531C113.722 56.424 113.953 56.3453 114.191 56.3416L114.588 56.0785H114.679C114.774 56.1413 114.852 56.2266 114.905 56.3268C114.959 56.4269 114.987 56.5388 114.987 56.6525C114.987 56.7662 114.959 56.8781 114.905 56.9783C114.852 57.0784 114.774 57.1637 114.679 57.2266H114.588C114.242 56.9917 113.851 56.829 113.44 56.7482H103.681C102.964 56.7482 102.504 56.9587 102.313 57.3701V57.4993C101.945 57.0209 101.638 56.7482 101.385 56.7482C101.385 56.6908 101.327 56.6621 101.213 56.6621C101.213 56.6047 101.313 56.576 101.519 56.576C101.865 56.4196 102.135 56.1323 102.27 55.7771L102.313 55.7675Z" fill="#779E1C"/>
<path d="M49.2324 65.7656L99.5348 103.788L149.832 65.7656V141.81H49.2324V65.7656Z" fill="#779E1C"/>
<path d="M149.836 142.048H49.2314C49.1679 142.048 49.1071 142.023 49.0622 141.978C49.0174 141.933 48.9922 141.872 48.9922 141.809V65.7454C48.9948 65.7019 49.0084 65.6597 49.0318 65.6229C49.0551 65.5861 49.0873 65.5557 49.1256 65.5347C49.1638 65.5137 49.2067 65.5027 49.2503 65.5027C49.2938 65.5028 49.3367 65.5138 49.3749 65.5349L99.5338 103.447L149.688 65.5397C149.737 65.5006 149.8 65.4827 149.863 65.4898C149.926 65.497 149.983 65.5287 150.023 65.578C150.056 65.6202 150.075 65.6724 150.075 65.7263V141.79C150.079 141.821 150.076 141.853 150.067 141.883C150.058 141.914 150.043 141.942 150.023 141.966C150.003 141.991 149.978 142.011 149.95 142.026C149.922 142.041 149.892 142.05 149.86 142.053L149.836 142.048ZM49.4706 141.57H149.597V66.2429L99.6773 103.978C99.6356 104.008 99.5853 104.025 99.5338 104.025C99.4822 104.025 99.4319 104.008 99.3902 103.978L49.4801 66.2429L49.4706 141.57Z" fill="#324450"/>
<path d="M49.2324 141.81L92.5408 98.502H106.524L149.832 141.81H49.2324Z" fill="#779E1C"/>
<path d="M149.837 142.048H49.2319C49.1853 142.048 49.1399 142.034 49.1009 142.009C49.0619 141.983 49.031 141.947 49.0118 141.905C48.9926 141.861 48.9873 141.812 48.9967 141.765C49.0062 141.718 49.0298 141.675 49.0644 141.642L92.3728 98.3335C92.3941 98.3105 92.4201 98.2923 92.4489 98.2799C92.4777 98.2675 92.5088 98.2614 92.5402 98.2617H106.523C106.555 98.2614 106.586 98.2675 106.615 98.2799C106.644 98.2923 106.67 98.3105 106.691 98.3335L150.004 141.642C150.037 141.676 150.059 141.719 150.068 141.766C150.077 141.812 150.073 141.861 150.057 141.905C150.037 141.947 150.007 141.983 149.968 142.009C149.929 142.034 149.883 142.048 149.837 142.048ZM49.8107 141.57H149.258L106.409 98.7401H92.6407L49.8107 141.57Z" fill="#324450"/>
<path d="M161.184 51.218L161.045 55.2508L165.853 54.4854L166.02 47.4531L161.184 51.218Z" fill="white"/>
<path d="M160.797 55.5326L160.945 51.0979L166.274 46.9551L166.088 54.6906L160.797 55.5326ZM161.419 51.3371L161.294 54.9681L165.6 54.2792L165.748 47.9501L161.419 51.3371Z" fill="#324450"/>
<path d="M157.118 140.844C157.018 140.562 156.936 140.275 156.874 139.983L156.601 137.959L153.061 137.395L150.11 139.495L148.234 140.528H148.196C147.735 140.715 147.294 140.949 146.88 141.226C146.569 141.499 146.723 141.805 147.655 141.805H156.927C156.927 141.805 157.376 141.542 157.118 140.844Z" fill="white"/>
<path d="M156.975 142.049H147.642C146.996 142.049 146.613 141.906 146.508 141.624C146.475 141.519 146.477 141.407 146.513 141.303C146.549 141.2 146.618 141.111 146.709 141.049C147.142 140.755 147.605 140.508 148.091 140.313H148.144L149.981 139.303L152.99 137.16L156.817 137.772L157.109 139.968C157.173 140.242 157.251 140.512 157.343 140.777C157.454 140.988 157.485 141.232 157.431 141.464C157.376 141.696 157.24 141.9 157.047 142.04L156.975 142.049ZM146.962 141.48C147.182 141.551 147.412 141.582 147.642 141.571H156.832C156.903 141.499 157.028 141.308 156.884 140.93C156.779 140.638 156.692 140.339 156.626 140.035L156.377 138.17L153.11 137.643L150.239 139.691L148.264 140.762C147.831 140.934 147.417 141.151 147.029 141.408C147.004 141.427 146.983 141.452 146.967 141.48H146.962Z" fill="#324450"/>
<path d="M157.176 141.125H147.025C146.968 141.159 146.915 141.199 146.867 141.245C146.556 141.517 146.709 141.823 147.642 141.823H156.913C157.02 141.745 157.102 141.638 157.149 141.514C157.196 141.389 157.205 141.254 157.176 141.125Z" fill="white"/>
<path d="M156.975 142.05H147.642C146.996 142.05 146.613 141.906 146.508 141.624C146.475 141.52 146.477 141.407 146.513 141.304C146.549 141.2 146.618 141.111 146.709 141.05C146.767 141 146.83 140.955 146.895 140.916L146.953 140.873H157.382L157.415 141.079C157.454 141.258 157.439 141.445 157.371 141.616C157.302 141.786 157.185 141.933 157.033 142.036L156.975 142.05ZM146.962 141.481C147.182 141.552 147.412 141.582 147.642 141.571H156.827C156.885 141.511 156.923 141.434 156.937 141.351H147.096L147.025 141.409C146.999 141.428 146.978 141.453 146.962 141.481Z" fill="#324450"/>
<path d="M172.737 140.844C172.637 140.562 172.554 140.274 172.488 139.983L172.22 137.959L168.68 137.395L165.729 139.495L163.853 140.528H163.815C163.352 140.715 162.91 140.949 162.495 141.226C162.184 141.499 162.342 141.805 163.27 141.805H172.541C172.541 141.805 173.005 141.542 172.737 140.844Z" fill="white"/>
<path d="M172.607 142.049H163.269C162.623 142.049 162.245 141.906 162.135 141.624C162.102 141.519 162.104 141.407 162.14 141.303C162.176 141.2 162.245 141.111 162.336 141.049C162.769 140.755 163.232 140.508 163.718 140.313H163.776L165.608 139.303L168.622 137.16L172.449 137.772L172.741 139.968C172.803 140.242 172.879 140.512 172.97 140.777C173.083 140.987 173.115 141.232 173.061 141.464C173.006 141.697 172.869 141.901 172.674 142.04L172.607 142.049ZM162.594 141.48C162.811 141.553 163.04 141.584 163.269 141.571H172.459C172.53 141.499 172.659 141.308 172.511 140.93C172.41 140.637 172.325 140.338 172.258 140.035L172.004 138.17L168.737 137.643L165.866 139.691L163.891 140.762C163.458 140.934 163.044 141.151 162.656 141.408C162.632 141.429 162.611 141.453 162.594 141.48Z" fill="#324450"/>
<path d="M172.809 141.125H162.657C162.6 141.161 162.546 141.201 162.495 141.245C162.184 141.517 162.342 141.823 163.27 141.823H172.541C172.649 141.746 172.731 141.638 172.779 141.514C172.826 141.39 172.837 141.255 172.809 141.125Z" fill="white"/>
<path d="M172.607 142.05H163.269C162.623 142.05 162.245 141.906 162.135 141.624C162.102 141.52 162.104 141.407 162.14 141.304C162.176 141.2 162.245 141.111 162.336 141.05C162.394 141 162.456 140.955 162.522 140.916L162.585 140.873H173.013L173.042 141.079C173.083 141.258 173.068 141.445 173.001 141.615C172.933 141.786 172.816 141.932 172.664 142.036L172.607 142.05ZM162.594 141.481C162.811 141.554 163.04 141.585 163.269 141.571H172.459C172.516 141.51 172.554 141.434 172.569 141.351H162.728L162.652 141.409C162.627 141.429 162.606 141.454 162.589 141.481H162.594Z" fill="#324450"/>
<path d="M155.816 81.5801L155.39 86.8423C155.39 86.8423 152.448 107.777 152.587 110.183C152.726 112.589 153.065 137.417 153.065 137.417L156.605 137.982L160.585 110.441L166.173 82.4555L155.816 81.5801Z" fill="#324450"/>
<path d="M156.793 138.255L152.813 137.595V137.394C152.813 137.145 152.497 112.551 152.358 110.174C152.22 107.796 155.042 87.6418 155.162 86.7854L155.602 81.3223L166.447 82.2121L166.394 82.4752L160.802 110.466L156.793 138.255ZM153.291 137.188L156.391 137.667L160.333 110.365L165.873 82.6187L156.042 81.8054L155.635 86.8046C155.607 87.0294 152.698 107.758 152.832 110.112C152.966 112.465 153.253 134.815 153.291 137.188Z" fill="#324450"/>
<path d="M155.535 136.874L155.205 136.821C155.205 136.745 156.736 128.952 156.736 124.756C156.736 120.561 156.736 116.552 157.76 112.61C158.769 108.745 160.152 100.775 160.152 100.693L160.506 100.756C160.506 100.837 159.128 108.816 158.114 112.715C157.099 116.614 157.119 120.556 157.119 124.771C157.119 128.985 155.55 136.821 155.535 136.874Z" fill="#324450"/>
<path d="M163.002 80.2902C165.341 79.0704 167.852 78.2523 168.56 79.8836C169.996 83.1414 168.278 88.0975 168.278 88.0975L169.555 110.936L172.096 137.974L168.101 137.936C168.101 137.936 162.939 114.667 162.093 113.251C161.246 111.835 159.902 91.9198 159.902 91.9198L157.223 89.4609" fill="#324450"/>
<path d="M172.378 138.213L167.929 138.17L167.886 137.984C166.107 129.951 162.562 114.466 161.907 113.371C161.065 111.969 159.854 94.4839 159.692 92.0298L157.061 89.6378L157.381 89.2838L160.156 91.7954V91.891C160.692 99.8753 161.71 112.112 162.313 113.117C163.141 114.5 167.781 135.329 168.307 137.687L171.847 137.72L169.331 110.931L168.03 88.0257V87.9778C168.03 87.93 169.68 83.0696 168.317 79.9409C168.256 79.784 168.16 79.6426 168.038 79.5268C167.916 79.4111 167.769 79.3238 167.609 79.2712C166.738 78.9602 165.174 79.3764 163.088 80.4624L162.868 80.0366C165.102 78.8693 166.753 78.4627 167.772 78.8215C167.993 78.8958 168.196 79.0172 168.366 79.1775C168.536 79.3377 168.67 79.5329 168.757 79.7496C170.135 82.9261 168.676 87.5521 168.494 88.0879L169.79 110.883L172.378 138.213Z" fill="#324450"/>
<path d="M170.351 136.686C170.351 136.59 169.312 126.903 167.796 120.005C166.648 114.776 166.734 114.46 166.839 113.986C166.902 113.769 166.93 113.543 166.921 113.317V112.36C166.949 110.733 166.992 108.275 166.576 106.902C165.94 104.773 165.619 101.735 165.533 97.6113H165.892C165.954 101.702 166.294 104.706 166.921 106.806C167.351 108.241 167.308 110.724 167.279 112.37V113.326C167.287 113.585 167.257 113.843 167.188 114.092C167.083 114.484 166.997 114.79 168.145 119.938C169.666 126.855 170.695 136.562 170.709 136.681L170.351 136.686Z" fill="#324450"/>
<path d="M165.915 94.9672H165.557V93.7138C165.7 86.9446 165.6 86.1936 165.557 86.1122L165.719 86.05L165.557 85.9687L165.762 85.873C165.944 85.9161 166.064 85.9448 165.896 93.7234C165.925 94.1491 165.92 94.5653 165.915 94.9672Z" fill="#324450"/>
<path d="M158.074 89.7422C158.048 89.7416 158.022 89.7357 157.998 89.7251C157.974 89.7144 157.953 89.6991 157.935 89.68L157.107 88.7232C157.086 88.7007 157.071 88.6725 157.065 88.642C157.06 88.6115 157.062 88.5799 157.074 88.551L157.619 86.9101L157.729 84.5182C157.73 84.4945 157.735 84.4712 157.745 84.4496C157.755 84.4281 157.769 84.4087 157.786 84.3926C157.804 84.3766 157.824 84.3642 157.846 84.3562C157.869 84.3482 157.892 84.3447 157.916 84.346C157.962 84.3484 158.006 84.3686 158.038 84.4025C158.07 84.4363 158.088 84.4812 158.088 84.5278L157.973 86.9197C157.978 86.9369 157.978 86.9551 157.973 86.9723L157.452 88.5366L158.217 89.4312C158.25 89.4643 158.268 89.509 158.268 89.5556C158.268 89.6022 158.25 89.6468 158.217 89.68C158.2 89.7004 158.177 89.7165 158.153 89.7273C158.128 89.7381 158.101 89.7431 158.074 89.7422Z" fill="#324450"/>
<path d="M160.499 87.1872C157.825 87.1872 156.739 86.1348 156.672 86.0822C156.656 86.0662 156.643 86.0471 156.634 86.0262C156.626 86.0053 156.621 85.9828 156.621 85.9602C156.621 85.9375 156.626 85.9151 156.634 85.8941C156.643 85.8732 156.656 85.8542 156.672 85.8382C156.705 85.8055 156.75 85.7871 156.796 85.7871C156.843 85.7871 156.887 85.8055 156.921 85.8382C156.921 85.8382 158.308 87.1585 161.767 86.7567C161.789 86.7533 161.812 86.7545 161.834 86.7602C161.857 86.7658 161.878 86.7758 161.896 86.7897C161.914 86.8035 161.929 86.8208 161.941 86.8406C161.952 86.8604 161.96 86.8823 161.963 86.905C161.97 86.9513 161.958 86.9984 161.93 87.0361C161.902 87.0737 161.861 87.0988 161.814 87.1059C161.378 87.1595 160.939 87.1867 160.499 87.1872Z" fill="#324450"/>
<path d="M165.326 84.7621C168.024 84.2359 168.197 83.4752 169.12 82.8485C169.129 81.8312 168.939 80.822 168.56 79.8778C167.852 78.2465 165.341 79.0645 163.001 80.2844L161.901 82.0783L155.84 81.6L155.648 83.9919C158.764 85.0297 162.086 85.2941 165.326 84.7621Z" fill="#324450"/>
<path d="M156.419 83.2266L156.361 84.1738L157.902 84.5278L158.017 83.2888L156.419 83.2266Z" fill="white"/>
<path d="M158.074 84.7517L156.189 84.3164L156.266 83.0391L158.227 83.1156L158.074 84.7517ZM156.563 84.0341L157.754 84.3068L157.835 83.46L156.606 83.4122L156.563 84.0341Z" fill="#324450"/>
<path d="M167.16 84.6276L166.896 82.2787L167.681 82.0156L168.073 84.1062" fill="#779E1C"/>
<path d="M166.919 84.6576L166.637 82.1126L167.861 81.7012L168.306 84.0644L167.837 84.1505L167.493 82.3326L167.153 82.4427L167.393 84.605L166.919 84.6576Z" fill="#324450"/>
<path d="M161.145 85.4178L160.619 82.6719H161.925L162.451 85.0255" fill="#779E1C"/>
<path d="M160.906 85.4598L160.332 82.4316H162.121L162.686 84.9719L162.217 85.0723L161.734 82.91H160.911L161.38 85.3689L160.906 85.4598Z" fill="#324450"/>
<path d="M159.702 55.2705C159.702 55.2705 157.162 58.1408 156.147 59.332C155.133 60.5232 155.133 73.2052 155.133 75.0757C155.133 76.9462 154.119 82.0075 155.813 83.0217C157.506 84.0359 167.83 83.701 168.844 82.0076C169.858 80.3141 170.533 60.0018 170.365 58.1504C170.198 56.299 168.667 54.8017 167.495 54.2563C166.323 53.711 159.702 55.2705 159.702 55.2705Z" fill="white"/>
<path d="M160.408 83.8299C158.375 83.8299 156.409 83.6577 155.686 83.2271C154.251 82.3708 154.557 79.1561 154.773 76.8072C154.835 76.104 154.892 75.5012 154.892 75.0754C154.892 69.6027 155.031 60.2454 155.964 59.1786C156.968 58.0066 159.494 55.1411 159.523 55.1123L159.571 55.0549H159.647C160.331 54.8923 166.345 53.4906 167.584 54.0551C168.957 54.6866 170.43 56.2892 170.602 58.1405C170.775 59.9919 170.091 80.4095 169.048 82.1412C168.34 83.3276 164.297 83.6816 162.594 83.7821C161.901 83.8108 161.145 83.8299 160.408 83.8299ZM159.829 55.4951C159.466 55.9065 157.251 58.4228 156.327 59.4992C155.739 60.188 155.371 66.1583 155.371 75.085C155.371 75.5347 155.313 76.147 155.251 76.8598C155.06 78.9551 154.773 82.1221 155.935 82.8253C156.677 83.2702 159.528 83.4759 162.566 83.3037C165.804 83.1171 168.244 82.5526 168.636 81.8972C169.593 80.2803 170.291 60.0206 170.124 58.1836C169.957 56.3466 168.392 54.9497 167.383 54.4857C166.584 54.103 162.456 54.8732 159.829 55.4951Z" fill="#324450"/>
<mask id="mask0_8225_30792" style="mask-type:luminance" maskUnits="userSpaceOnUse" x="154" y="54" width="17" height="30">
<mask id="mask1_8225_30792" style="mask-type:luminance" maskUnits="userSpaceOnUse" x="154" y="54" width="17" height="30">
<path d="M159.702 55.2705C159.702 55.2705 157.162 58.1408 156.147 59.332C155.133 60.5232 155.133 73.2052 155.133 75.0757C155.133 76.9462 154.119 82.0075 155.813 83.0217C157.506 84.0359 167.83 83.701 168.844 82.0076C169.858 80.3141 170.533 60.0018 170.365 58.1504C170.198 56.299 168.667 54.8017 167.495 54.2563C166.323 53.711 159.702 55.2705 159.702 55.2705Z" fill="white"/>
</mask>
<g mask="url(#mask1_8225_30792)">
<path d="M160.41 83.8299C158.377 83.8299 156.411 83.6577 155.688 83.2271C154.253 82.3708 154.559 79.1561 154.775 76.8072C154.837 76.104 154.894 75.5012 154.894 75.0754C154.894 69.6027 155.033 60.2454 155.966 59.1786C156.97 58.0066 159.496 55.1411 159.525 55.1123L159.573 55.0549H159.649C160.333 54.8923 166.347 53.4906 167.586 54.0551C168.959 54.6866 170.432 56.2892 170.604 58.1405C170.777 59.9919 170.093 80.4095 169.05 82.1412C168.342 83.3276 164.299 83.6816 162.596 83.7821C161.903 83.8108 161.147 83.8299 160.41 83.8299ZM159.831 55.4951C159.468 55.9065 157.253 58.4228 156.329 59.4992C155.741 60.188 155.373 66.1583 155.373 75.085C155.373 75.5347 155.315 76.147 155.253 76.8598C155.062 78.9551 154.775 82.1221 155.937 82.8253C156.679 83.2702 159.53 83.4759 162.567 83.3037C165.806 83.1171 168.246 82.5526 168.638 81.8972C169.595 80.2803 170.293 60.0206 170.126 58.1836C169.959 56.3466 168.394 54.9497 167.385 54.4857C166.586 54.103 162.457 54.8732 159.831 55.4951Z" fill="white"/>
</g>
</mask>
<g mask="url(#mask0_8225_30792)">
<path d="M167.486 54.2578C167.346 54.1996 167.197 54.1672 167.046 54.1621L166.314 54.5448C166.314 54.5448 168.342 56.1139 168.706 58.5106C169.046 60.7744 169.016 63.0786 168.615 65.3324C168.246 67.8248 162.343 65.3324 163.453 66.2557C164.563 67.179 168.715 68.7481 168.892 69.5757C169.069 70.4033 166.864 71.7907 166.022 71.8816C165.18 71.9724 166.577 73.819 167.409 75.3881C168.242 76.9572 167.959 79.1674 166.022 80.6504C164.084 82.1334 159.65 82.8797 157.727 82.9562C157.1 82.9801 156.708 83.1189 156.598 83.3054C159.549 83.9608 167.921 83.5351 168.83 82.0186C169.849 80.3251 170.519 60.0128 170.351 58.1614C170.184 56.3101 168.667 54.8031 167.486 54.2578Z" fill="#779E1C"/>
</g>
<path d="M164.9 68.1527C162.173 67.3012 159.791 64.9141 159.791 64.9141C160.393 67.7389 162.036 70.2338 164.393 71.9033" fill="white"/>
<path d="M164.393 72.0803C164.355 72.0817 164.318 72.0699 164.288 72.0468C161.901 70.3418 160.235 67.8093 159.614 64.9427C159.607 64.9055 159.613 64.867 159.63 64.8332C159.648 64.7995 159.676 64.7724 159.71 64.7562C159.743 64.7379 159.78 64.7308 159.817 64.736C159.855 64.7412 159.889 64.7584 159.916 64.7849C159.916 64.8088 162.307 67.1768 164.958 67.9805C165.002 67.9958 165.039 68.0278 165.061 68.0697C165.082 68.1117 165.086 68.1603 165.073 68.2053C165.067 68.228 165.056 68.2492 165.041 68.2677C165.027 68.2861 165.009 68.3014 164.988 68.3126C164.968 68.3238 164.945 68.3307 164.922 68.3328C164.898 68.3349 164.875 68.3322 164.852 68.3249C163.094 67.6925 161.48 66.7168 160.102 65.4546C160.798 67.9983 162.349 70.2248 164.494 71.7598C164.513 71.7727 164.529 71.7893 164.542 71.8087C164.554 71.8281 164.563 71.8498 164.567 71.8726C164.571 71.8954 164.57 71.9187 164.565 71.9412C164.56 71.9638 164.55 71.985 164.537 72.0037C164.521 72.0273 164.5 72.0467 164.475 72.06C164.45 72.0734 164.422 72.0803 164.393 72.0803Z" fill="#324450"/>
<path d="M166.978 52.3945L158.855 54.2555L158.348 56.6235L167.485 54.2555L166.978 52.3945Z" fill="white"/>
<path d="M158.031 56.9535L158.653 54.0545L167.164 52.1074L167.795 54.4276L158.031 56.9535ZM159.055 54.4563L158.663 56.2981L167.192 54.0832L166.81 52.6767L159.055 54.4563Z" fill="#324450"/>
<path d="M143.564 41.6203L141.378 40.3574C141.378 40.3574 140.531 40.2474 140.899 41.1994L143.081 42.8833" fill="white"/>
<path d="M143.077 43.1338C143.025 43.1349 142.974 43.118 142.933 43.086L140.747 41.3972C140.712 41.3718 140.686 41.3369 140.67 41.2968C140.595 41.1552 140.558 40.9964 140.563 40.8361C140.568 40.6758 140.615 40.5196 140.699 40.3831C140.789 40.2882 140.9 40.2158 141.023 40.1718C141.146 40.1277 141.277 40.1133 141.407 40.1295C141.439 40.134 141.469 40.1437 141.498 40.1582L143.684 41.4259C143.715 41.4375 143.743 41.4552 143.766 41.4779C143.789 41.5006 143.808 41.5279 143.821 41.5581C143.833 41.5883 143.839 41.6207 143.839 41.6533C143.838 41.686 143.831 41.7182 143.818 41.7479C143.804 41.7777 143.785 41.8044 143.761 41.8264C143.737 41.8484 143.708 41.8652 143.677 41.8759C143.646 41.8865 143.614 41.8907 143.581 41.8882C143.549 41.8857 143.517 41.8765 143.488 41.8613L143.445 41.8374L141.331 40.6031C141.244 40.5948 141.159 40.6206 141.091 40.6749C141.043 40.7371 141.053 40.8806 141.115 41.0624L143.244 42.708C143.269 42.7264 143.29 42.7496 143.306 42.7762C143.322 42.8029 143.332 42.8324 143.337 42.8631C143.341 42.8938 143.34 42.9251 143.332 42.9551C143.324 42.9852 143.311 43.0134 143.292 43.0381C143.266 43.0703 143.234 43.0958 143.196 43.1125C143.159 43.1291 143.118 43.1365 143.077 43.1338Z" fill="#324450"/>
<path d="M143.244 44.917C143.144 44.6554 142.992 44.4164 142.799 44.2137L142.392 43.7736L140.173 41.0229C140.173 41.0229 139.484 40.5445 139.637 41.5587L141.015 44.2329L138.565 41.9414C138.565 41.9414 138.087 41.5587 138.087 42.0897C138.087 42.6207 140.307 44.9983 140.307 44.9983L137.857 43.8502C137.857 43.8502 137.322 44.2329 137.704 44.6156C138.087 44.9983 140.154 45.7637 140.154 45.7637L138.317 45.6872C138.317 45.6872 137.781 46.1655 138.163 46.2995C138.546 46.4334 140.689 46.9118 140.689 46.9118C140.962 47.1419 141.273 47.3232 141.608 47.4476L142.144 48.4427L144.201 47.4094L143.244 44.917Z" fill="white"/>
<path d="M142.168 48.6641C142.125 48.6637 142.083 48.652 142.046 48.6301C142.009 48.6083 141.979 48.5771 141.958 48.5397L141.479 47.6212C141.162 47.5004 140.867 47.3292 140.604 47.1141C140.173 47.0184 138.48 46.6357 138.116 46.5065C138.045 46.481 137.982 46.4377 137.933 46.3808C137.883 46.3238 137.849 46.2551 137.834 46.1812C137.786 45.8751 138.107 45.5737 138.203 45.4876C138.25 45.4497 138.309 45.4294 138.37 45.4302H138.82C138.377 45.262 137.96 45.0334 137.581 44.7508C137.509 44.6861 137.453 44.6059 137.418 44.5164C137.382 44.4268 137.368 44.3303 137.375 44.2342C137.419 43.9872 137.558 43.7673 137.762 43.6219C137.796 43.5962 137.836 43.5803 137.879 43.5761C137.921 43.5719 137.963 43.5794 138.002 43.5979L139.375 44.2438C138.671 43.4353 137.892 42.4546 137.892 42.0527C137.88 41.9577 137.897 41.8614 137.94 41.7761C137.984 41.6908 138.052 41.6205 138.136 41.5744C138.241 41.5448 138.353 41.5434 138.46 41.5702C138.566 41.5971 138.664 41.6513 138.743 41.7274L140.178 43.0861L139.432 41.6509C139.427 41.6272 139.427 41.6028 139.432 41.5791C139.432 41.4213 139.336 40.9333 139.647 40.7324C139.759 40.6807 139.882 40.6605 140.005 40.674C140.127 40.6875 140.243 40.7342 140.341 40.8089C140.361 40.8223 140.378 40.8384 140.394 40.8568L142.613 43.6123C142.629 43.6329 142.642 43.6554 142.652 43.6793L143.001 44.0572C143.207 44.2833 143.37 44.5462 143.479 44.8322L144.46 47.3054C144.483 47.3608 144.484 47.4229 144.462 47.479C144.441 47.5351 144.399 47.5808 144.345 47.6068L142.288 48.6449C142.25 48.6586 142.209 48.6651 142.168 48.6641ZM138.308 46.0712C138.705 46.2099 140.197 46.5496 140.762 46.6596C140.823 46.6721 140.876 46.7083 140.91 46.7601C141.153 46.9538 141.426 47.1058 141.719 47.2098C141.771 47.2295 141.815 47.2667 141.843 47.315L142.269 48.1091L143.924 47.2767L143.02 45.0044C142.925 44.774 142.791 44.5619 142.623 44.3777L142.211 43.9376C142.187 43.9097 142.17 43.8771 142.159 43.8419L140.016 41.1869C139.969 41.1623 139.919 41.1446 139.867 41.1342C139.848 41.2434 139.848 41.3551 139.867 41.4643L141.226 44.1098C141.252 44.1591 141.259 44.2161 141.247 44.2704C141.235 44.3248 141.204 44.373 141.159 44.4064C141.116 44.4431 141.062 44.4633 141.006 44.4633C140.95 44.4633 140.895 44.4431 140.853 44.4064L138.403 42.1102L138.346 42.0719C138.346 42.3685 139.48 43.7271 140.499 44.8178C140.521 44.8401 140.539 44.8665 140.551 44.8957C140.563 44.9248 140.57 44.9561 140.57 44.9877C140.57 45.0192 140.563 45.0505 140.551 45.0796C140.539 45.1088 140.521 45.1352 140.499 45.1575C140.465 45.1911 140.421 45.2134 140.374 45.2211C140.327 45.2288 140.279 45.2216 140.236 45.2005L137.93 44.1194C137.882 44.168 137.849 44.2295 137.834 44.2964C137.84 44.3476 137.863 44.3951 137.901 44.4303C138.646 44.8812 139.438 45.2471 140.264 45.5211C140.318 45.5414 140.362 45.5798 140.39 45.6296C140.418 45.6795 140.428 45.7376 140.417 45.7937C140.406 45.8494 140.375 45.8992 140.331 45.9343C140.286 45.9694 140.23 45.9874 140.173 45.9851L138.437 45.9133C138.387 45.9599 138.344 46.013 138.308 46.0712Z" fill="#324450"/>
<path d="M166.853 63.1478L151.176 66.8888C150.548 66.9986 149.901 66.8875 149.346 66.5744C148.79 66.2613 148.36 65.7656 148.129 65.1714L142.168 48.4278L144.225 47.3945L150.999 58.4453C151.196 58.8051 151.502 59.0923 151.874 59.2646C152.247 59.4368 152.664 59.485 153.066 59.402L162.447 56.747" fill="white"/>
<path d="M150.712 67.1438C150.106 67.144 149.515 66.9614 149.014 66.62C148.514 66.2786 148.129 65.7943 147.908 65.2303L141.871 48.3193L144.311 47.0898L151.204 58.3319C151.372 58.6526 151.64 58.91 151.967 59.0654C152.294 59.2207 152.663 59.2655 153.018 59.193L162.38 56.5332L162.509 57.0116L153.128 59.6666C152.672 59.7605 152.199 59.7051 151.777 59.5086C151.356 59.3121 151.009 58.9851 150.788 58.5759L144.134 47.7213L142.464 48.5633L148.353 65.0628C148.565 65.604 148.958 66.0553 149.464 66.3404C149.971 66.6254 150.56 66.7268 151.133 66.6272L166.795 62.8862L166.905 63.3646L151.233 67.1103C151.061 67.1358 150.886 67.147 150.712 67.1438Z" fill="#324450"/>
<mask id="mask2_8225_30792" style="mask-type:luminance" maskUnits="userSpaceOnUse" x="142" y="47" width="25" height="20">
<mask id="mask3_8225_30792" style="mask-type:luminance" maskUnits="userSpaceOnUse" x="142" y="47" width="25" height="20">
<path d="M166.853 63.1478L151.176 66.8888C150.548 66.9986 149.901 66.8875 149.346 66.5744C148.79 66.2613 148.36 65.7656 148.129 65.1714L142.168 48.4278L144.225 47.3945L150.999 58.4453C151.196 58.8051 151.502 59.0923 151.874 59.2646C152.247 59.4368 152.664 59.485 153.066 59.402L162.447 56.747" fill="white"/>
</mask>
<g mask="url(#mask3_8225_30792)">
<path d="M150.712 67.1419C150.106 67.142 149.515 66.9595 149.014 66.6181C148.514 66.2767 148.129 65.7923 147.908 65.2283L141.871 48.3173L144.311 47.0879L151.204 58.33C151.372 58.6507 151.64 58.9081 151.967 59.0634C152.294 59.2187 152.663 59.2635 153.018 59.1911L162.38 56.5312L162.509 57.0096L153.128 59.6647C152.672 59.7585 152.199 59.7031 151.777 59.5066C151.356 59.3102 151.009 58.9831 150.788 58.574L144.134 47.7194L142.464 48.5613L148.353 65.0609C148.565 65.6021 148.958 66.0534 149.464 66.3384C149.971 66.6235 150.56 66.7248 151.133 66.6252L166.795 62.8842L166.905 63.3626L151.233 67.1084C151.061 67.1338 150.886 67.145 150.712 67.1419Z" fill="white"/>
</g>
</mask>
<g mask="url(#mask2_8225_30792)">
<path d="M144.369 55.0977C144.369 55.0977 149.253 64.3162 151.1 64.962C152.947 65.6078 156.817 64.2253 156.817 64.2253C156.817 64.2253 151.468 63.7469 153.31 63.5795C155.152 63.412 157.276 63.8569 160.783 63.0293C164.289 62.2017 166.045 60.6374 165.117 62.1969C164.189 63.7565 159.027 64.7802 157.185 65.426C155.343 66.0718 151.282 67.086 150.086 66.8995C149.708 66.8161 149.354 66.6485 149.05 66.4091C148.746 66.1697 148.5 65.8647 148.33 65.5169L144.369 55.0977Z" fill="#779E1C"/>
</g>
<path d="M145.299 49.2618L142.912 50.457L143.073 50.7778L145.46 49.5826L145.299 49.2618Z" fill="#324450"/>
<path d="M168.513 44.5671C168.735 44.5308 168.963 44.5676 169.162 44.672C169.362 44.7764 169.522 44.9427 169.618 45.146C169.75 45.414 169.812 45.7107 169.799 46.009C169.787 46.3073 169.7 46.5977 169.546 46.8538C168.8 48.1646 167.025 48.6286 167.025 48.6286C167.025 48.6286 165.341 51.0588 163.677 51.7142C162.012 52.3696 159.304 52.5179 158.534 49.0974C158.199 47.5953 159.189 41.4432 159.189 41.4432C159.219 40.9947 159.338 40.5566 159.538 40.1542C159.738 39.7518 160.017 39.3932 160.357 39.0991C161.466 38.2524 164.05 38.0945 165.528 38.5681C167.006 39.0417 167.92 40.4147 168.327 41.4719C168.589 42.2521 168.696 43.076 168.642 43.8974L168.484 44.5862L168.513 44.5671Z" fill="white"/>
<path d="M161.786 52.3269C161.214 52.3365 160.648 52.2033 160.14 51.9394C159.212 51.461 158.585 50.5043 158.284 49.1504C157.939 47.6196 158.891 41.6493 158.935 41.3958C158.965 40.9162 159.092 40.4478 159.308 40.0186C159.525 39.5895 159.825 39.2085 160.193 38.8986C161.389 37.9897 164.072 37.8461 165.584 38.3341C167.373 38.9082 168.239 40.6495 168.526 41.3719C168.804 42.1866 168.918 43.0483 168.861 43.9073L168.77 44.3235C168.996 44.3379 169.213 44.4125 169.4 44.5396C169.587 44.6666 169.736 44.8415 169.832 45.0459C169.978 45.3463 170.048 45.6784 170.035 46.0123C170.021 46.3462 169.925 46.6716 169.756 46.9594C169.052 48.1841 167.55 48.7055 167.168 48.8251C166.871 49.2413 165.331 51.3079 163.742 51.9251C163.119 52.1751 162.457 52.3113 161.786 52.3269ZM163.537 38.535C162.374 38.535 161.145 38.7742 160.485 39.2765C159.853 39.8276 159.465 40.6071 159.408 41.4436C159.408 41.5297 158.423 47.6052 158.748 49.0452C159.021 50.2603 159.566 51.0927 160.365 51.5184C161.561 52.1547 163.006 51.7146 163.57 51.4945C165.163 50.8726 166.809 48.519 166.828 48.495L166.876 48.4233L166.962 48.3994C166.962 48.3994 168.651 47.921 169.354 46.7346C169.49 46.5125 169.568 46.2592 169.579 45.9988C169.59 45.7383 169.534 45.4794 169.416 45.2468C169.339 45.0913 169.215 44.9646 169.061 44.8854C168.906 44.8061 168.731 44.7785 168.56 44.8067L168.167 44.8689L168.407 43.8355C168.447 43.0625 168.343 42.2888 168.1 41.5536C167.833 40.8935 167.048 39.3004 165.45 38.7886C164.829 38.6066 164.184 38.5211 163.537 38.535Z" fill="#324450"/>
<path d="M162.968 44.5633C162.91 44.8073 162.968 45.0417 163.083 45.0417C163.197 45.0417 163.351 44.8981 163.408 44.6542C163.465 44.4102 163.408 44.1758 163.293 44.1758C163.178 44.1758 163.025 44.3193 162.968 44.5633Z" fill="#324450"/>
<path d="M160.37 44.0761C160.313 44.3153 160.37 44.5545 160.485 44.5545C160.6 44.5545 160.753 44.4109 160.81 44.1717C160.868 43.9326 160.81 43.6934 160.695 43.6934C160.581 43.6934 160.428 43.8321 160.37 44.0761Z" fill="#324450"/>
<path d="M164.596 43.6982C164.558 43.6982 164.52 43.6874 164.488 43.6671C164.456 43.6468 164.43 43.6178 164.414 43.5834C164.285 43.3621 164.102 43.1764 163.884 43.0428C163.665 42.9092 163.417 42.8319 163.161 42.8179C163.134 42.8161 163.107 42.809 163.083 42.7969C163.059 42.7849 163.037 42.7681 163.019 42.7477C163.001 42.7272 162.988 42.7035 162.979 42.6778C162.971 42.6521 162.967 42.6249 162.969 42.5979C162.975 42.5433 163.002 42.4932 163.044 42.4576C163.086 42.422 163.139 42.4038 163.194 42.4065C163.521 42.4258 163.838 42.527 164.115 42.7009C164.393 42.8748 164.622 43.1158 164.782 43.4016C164.795 43.4248 164.803 43.4503 164.806 43.4766C164.808 43.5029 164.806 43.5295 164.798 43.5548C164.791 43.5801 164.778 43.6037 164.762 43.6242C164.745 43.6447 164.724 43.6617 164.701 43.6742C164.669 43.6919 164.632 43.7002 164.596 43.6982Z" fill="#324450"/>
<path d="M159.725 43.1428C159.669 43.1425 159.616 43.1202 159.576 43.0806C159.557 43.0615 159.542 43.0388 159.531 43.0137C159.521 42.9887 159.516 42.9618 159.516 42.9347C159.516 42.9076 159.521 42.8808 159.531 42.8557C159.542 42.8307 159.557 42.8079 159.576 42.7888C159.789 42.5699 160.064 42.422 160.363 42.3654C160.663 42.3089 160.973 42.3465 161.251 42.4731C161.274 42.4865 161.295 42.5045 161.312 42.5259C161.328 42.5474 161.341 42.572 161.348 42.5982C161.355 42.6245 161.357 42.6519 161.353 42.6789C161.35 42.7058 161.341 42.7318 161.327 42.7553C161.303 42.7995 161.263 42.8329 161.215 42.8488C161.167 42.8648 161.115 42.8621 161.069 42.8414C160.866 42.7544 160.642 42.7311 160.426 42.7747C160.209 42.8183 160.012 42.9267 159.859 43.0854C159.823 43.1206 159.775 43.1411 159.725 43.1428Z" fill="#324450"/>
<path d="M161.471 46.6339C161.293 46.6295 161.122 46.5707 160.979 46.4655C160.836 46.3602 160.729 46.2136 160.672 46.0455C160.591 45.725 160.806 45.5001 160.997 45.304C161.149 45.1788 161.262 45.0128 161.323 44.8256C161.423 44.3472 161.547 43.467 161.547 43.4622C161.551 43.4352 161.56 43.4092 161.574 43.3857C161.588 43.3622 161.606 43.3416 161.628 43.3252C161.65 43.3087 161.675 43.2967 161.701 43.2899C161.727 43.283 161.755 43.2814 161.782 43.2852C161.809 43.289 161.835 43.298 161.858 43.3118C161.882 43.3257 161.902 43.344 161.919 43.3657C161.935 43.3875 161.947 43.4123 161.954 43.4387C161.961 43.4651 161.963 43.4926 161.959 43.5196C161.959 43.5579 161.83 44.3998 161.724 44.9069C161.653 45.1732 161.503 45.4118 161.294 45.591C161.126 45.7632 161.05 45.8494 161.069 45.9355C161.131 46.1794 161.5 46.2129 161.5 46.2177C161.527 46.2195 161.553 46.2267 161.577 46.2387C161.602 46.2508 161.623 46.2675 161.641 46.288C161.659 46.3084 161.672 46.3322 161.681 46.3579C161.689 46.3836 161.693 46.4107 161.691 46.4378C161.69 46.4648 161.683 46.4913 161.672 46.5158C161.66 46.5403 161.644 46.5623 161.624 46.5805C161.604 46.5987 161.581 46.6128 161.555 46.622C161.53 46.6311 161.503 46.6352 161.476 46.6339H161.471Z" fill="#324450"/>
<path d="M162.523 48.3191C162.324 48.3193 162.125 48.2903 161.935 48.233C161.909 48.2248 161.885 48.2117 161.864 48.1943C161.844 48.1769 161.827 48.1556 161.814 48.1316C161.802 48.1076 161.794 48.0814 161.792 48.0545C161.789 48.0275 161.792 48.0004 161.801 47.9747C161.818 47.9223 161.856 47.8789 161.905 47.8538C161.954 47.8288 162.011 47.824 162.064 47.8407C162.248 47.8998 162.443 47.9188 162.635 47.8966C162.827 47.8743 163.013 47.8112 163.178 47.7115C163.2 47.6952 163.225 47.6833 163.251 47.6765C163.277 47.6697 163.305 47.6682 163.332 47.6719C163.358 47.6757 163.384 47.6847 163.408 47.6985C163.431 47.7123 163.451 47.7305 163.468 47.7522C163.484 47.7739 163.496 47.7986 163.503 47.8248C163.51 47.8511 163.511 47.8785 163.507 47.9053C163.504 47.9322 163.495 47.9581 163.481 47.9815C163.467 48.0048 163.449 48.0253 163.427 48.0416C163.163 48.2278 162.846 48.325 162.523 48.3191Z" fill="#324450"/>
<path d="M166.838 37.1331C166.838 37.1331 164.781 35.3535 162.814 35.3535C160.848 35.3535 159.265 36.4777 158.031 36.5686C156.796 36.6595 155.973 35.5401 155.222 37.047C154.471 38.5539 157.279 41.0655 159.15 41.4434C161.02 41.8213 163.637 41.2568 164.388 41.1611C165.103 41.1085 165.821 41.1085 166.536 41.1611C166.536 41.1611 165.977 42.9359 166.536 43.5004C166.735 43.6568 166.896 43.8548 167.009 44.0805C167.123 44.3062 167.185 44.554 167.192 44.8064C167.225 45.2153 167.288 45.6214 167.378 46.0215L167.938 46.2081L168.22 45.1796C168.978 44.3712 169.495 43.3671 169.713 42.2806C169.995 40.6014 168.593 38.9319 168.593 38.9319L166.838 37.1331Z" fill="#324450"/>
<path d="M161.137 40.9464C160.403 40.9465 159.671 40.889 158.946 40.7742C158.92 40.7695 158.897 40.7549 158.882 40.7334C158.867 40.712 158.86 40.6854 158.865 40.6594C158.866 40.6464 158.87 40.6337 158.876 40.6222C158.882 40.6107 158.891 40.6006 158.901 40.5925C158.911 40.5844 158.923 40.5785 158.936 40.5752C158.948 40.5719 158.962 40.5713 158.975 40.5733C159.003 40.5733 162.17 41.1617 164.615 40.1475C165.28 39.8749 165.658 39.5065 165.744 39.0472C165.911 38.167 164.94 37.2198 164.93 37.2102C164.92 37.2008 164.912 37.1894 164.906 37.1766C164.901 37.1638 164.898 37.15 164.898 37.1361C164.898 37.1221 164.901 37.1083 164.906 37.0956C164.912 37.0828 164.92 37.0714 164.93 37.0619C164.951 37.0435 164.977 37.0332 165.005 37.0332C165.032 37.0332 165.059 37.0435 165.079 37.0619C165.122 37.1002 166.141 38.0953 165.949 39.0855C165.868 39.3847 165.71 39.6576 165.491 39.8773C165.272 40.0971 165 40.2561 164.701 40.3389C163.562 40.7655 162.353 40.9717 161.137 40.9464Z" fill="white"/>
<path d="M166.207 41.206C166.182 41.2062 166.157 41.1971 166.137 41.1804C166.118 41.1636 166.105 41.1404 166.102 41.1151C166.099 41.0879 166.107 41.0607 166.124 41.0393C166.141 41.0178 166.166 41.0038 166.193 41.0003C166.226 41.0003 167.001 40.8998 167.403 39.7756C167.453 39.5771 167.457 39.3698 167.416 39.1694C167.375 38.9689 167.288 38.7804 167.164 38.6179C166.752 37.9698 166.185 37.4353 165.513 37.0631C165.486 37.0631 165.459 37.052 165.439 37.0323C165.419 37.0126 165.408 36.9858 165.408 36.9579C165.408 36.9312 165.419 36.9057 165.438 36.8868C165.456 36.868 165.482 36.8574 165.509 36.8574C165.729 36.8574 166.662 37.5367 167.217 38.3261C167.398 38.5288 167.528 38.773 167.594 39.0374C167.66 39.3017 167.66 39.5781 167.594 39.8426C167.145 41.1007 166.25 41.206 166.212 41.206H166.207Z" fill="white"/>
<path d="M69.1136 63.2727V72H68.0568V63.2727H69.1136ZM78.1531 63.2727V72H77.1303L72.3746 65.1477H72.2894V72H71.2326V63.2727H72.2553L77.0281 70.142H77.1133V63.2727H78.1531ZM80.6257 63.2727L83.2166 70.6193H83.3189L85.9098 63.2727H87.0178L83.8132 72H82.7223L79.5178 63.2727H80.6257ZM89.4339 63.2727V72H88.3771V63.2727H89.4339ZM91.0756 64.2102V63.2727H97.6211V64.2102H94.8768V72H93.82V64.2102H91.0756ZM98.5906 72H97.4826L100.687 63.2727H101.778L104.983 72H103.875L101.267 64.6534H101.199L98.5906 72ZM98.9996 68.5909H103.466V69.5284H98.9996V68.5909ZM104.845 64.2102V63.2727H111.391V64.2102H108.646V72H107.589V64.2102H104.845ZM114.078 63.2727V72H113.022V63.2727H114.078ZM123.561 67.6364C123.561 68.5568 123.395 69.3523 123.062 70.0227C122.73 70.6932 122.274 71.2102 121.695 71.5739C121.115 71.9375 120.453 72.1193 119.709 72.1193C118.964 72.1193 118.303 71.9375 117.723 71.5739C117.143 71.2102 116.688 70.6932 116.355 70.0227C116.023 69.3523 115.857 68.5568 115.857 67.6364C115.857 66.7159 116.023 65.9205 116.355 65.25C116.688 64.5795 117.143 64.0625 117.723 63.6989C118.303 63.3352 118.964 63.1534 119.709 63.1534C120.453 63.1534 121.115 63.3352 121.695 63.6989C122.274 64.0625 122.73 64.5795 123.062 65.25C123.395 65.9205 123.561 66.7159 123.561 67.6364ZM122.538 67.6364C122.538 66.8807 122.412 66.2429 122.159 65.723C121.909 65.2031 121.57 64.8097 121.141 64.5426C120.714 64.2756 120.237 64.142 119.709 64.142C119.18 64.142 118.702 64.2756 118.273 64.5426C117.847 64.8097 117.507 65.2031 117.254 65.723C117.004 66.2429 116.879 66.8807 116.879 67.6364C116.879 68.392 117.004 69.0298 117.254 69.5497C117.507 70.0696 117.847 70.4631 118.273 70.7301C118.702 70.9972 119.18 71.1307 119.709 71.1307C120.237 71.1307 120.714 70.9972 121.141 70.7301C121.57 70.4631 121.909 70.0696 122.159 69.5497C122.412 69.0298 122.538 68.392 122.538 67.6364ZM132.259 63.2727V72H131.236L126.48 65.1477H126.395V72H125.338V63.2727H126.361L131.134 70.142H131.219V63.2727H132.259Z" fill="#324450"/>
</svg>
