<svg width="355" height="277" viewBox="0 0 355 277" fill="none" xmlns="http://www.w3.org/2000/svg">
<path d="M294.275 182.902C294.906 186.733 302.485 199.211 305.28 206.232C304.633 205.318 303.883 204.239 303.14 203.243C302.557 202.082 302.038 200.784 301.455 199.787C300.552 198.242 299.602 196.734 298.572 195.299C296.993 193.02 295.186 190.962 293.189 189.164C290.88 187.007 288.071 185.669 285.107 185.316C284.308 185.252 279.748 184.858 280.81 186.961C281.005 187.283 281.265 187.547 281.569 187.729C284.372 189.695 287.471 190.746 290.426 192.3C294.85 194.668 300.696 200.976 303.132 203.718L304.37 205.592C300.017 200.948 292.909 198.279 290.473 199.586C287.463 201.158 293.94 202.767 299.434 204.395C301.893 205.035 304.179 206.349 306.095 208.225C307.149 209.852 308.339 211.681 309.529 213.555C309.673 213.847 309.816 214.122 309.96 214.396C309.117 213.274 308.163 212.268 307.117 211.397C304.306 209.194 296.567 207.859 295.752 210.84C294.938 213.82 300.424 212.458 305.144 213.317C307.699 213.858 310.046 215.284 311.869 217.404L312.18 217.788C312.715 218.702 313.227 219.497 313.706 220.302C314.832 222.185 315.902 223.958 316.9 225.668C315.312 223.286 313.429 221.183 311.31 219.424C307.189 216.188 301.686 215.502 299.682 217.239C297.677 218.976 306.925 220.548 311.47 222.377C314.088 223.517 316.409 225.406 318.21 227.862C319.703 230.285 321.181 232.643 322.77 235.111C320.238 232.545 317.527 230.218 314.664 228.155C310.008 224.662 305.184 225.138 303.898 227.24C302.613 229.343 306.55 229.48 313.873 231.281C317.736 232.219 321.315 234.299 324.256 237.315L326.356 240.514C327.155 241.767 328.153 243.047 329.167 244.308C327.929 243.668 326.101 242.754 324.072 241.758C321.804 240.691 319.612 239.426 317.515 237.973C315.119 236.254 311.861 234.435 308.994 235.898C308.776 235.978 308.576 236.112 308.408 236.289C308.239 236.465 308.106 236.682 308.016 236.922C307.927 237.163 307.884 237.424 307.89 237.685C307.896 237.947 307.951 238.204 308.051 238.439C308.368 239.101 308.864 239.627 309.465 239.938C312.66 241.94 316.597 242.471 320.087 243.358C323.29 244.178 326.537 244.755 329.806 245.085C330.757 246.228 331.747 247.353 332.729 248.413L331.26 248.724C329.527 249.099 321.077 246.42 316.884 245.826C312.691 245.232 309.297 248.386 313.849 250.214C318.402 252.042 329.734 249.428 329.734 249.428L333.009 248.724C336.898 252.92 340.5 256.129 340.5 256.129L342.017 254.959C342.017 254.959 338.879 253.971 333.608 248.267C333.484 247.138 333.468 245.998 333.56 244.866C333.895 238.467 338.503 231.244 334.965 225.055C334.111 223.556 332.266 222.733 331.244 224.379C330.509 225.567 330.549 227.569 330.781 228.95C331.579 233.475 332.817 237.488 332.514 242.206C332.514 242.416 332.514 245.579 332.705 247.298C331.987 246.484 331.244 245.597 330.461 244.619C329.816 242.841 329.298 241.007 328.912 239.134C327.897 234.152 328.912 228.868 328.185 223.794C327.953 222.24 325.837 218.556 324.799 221.755C324.344 223.172 324.927 225.86 325.006 227.368C325.246 231.638 325.613 236.099 327.083 240.085L326.452 239.17C325.188 235.193 324.205 231.106 323.513 226.948C322.387 220.082 322.579 214.241 320.646 212.412C318.713 210.584 318.817 218.226 320.646 226.262C321.484 229.925 322.847 233.403 324.679 236.556C322.619 233.539 320.566 230.44 318.609 227.414C316.793 224.119 315.659 220.391 315.295 216.517C314.952 210.419 314.632 205.437 312.172 202.411C309.713 199.385 309.601 201.652 311.541 208.536C312.875 213.253 314.472 219.598 316.333 223.867C314.808 221.499 313.378 219.25 312.092 217.212C311.238 215.1 309.162 209.642 308.515 204.925C307.716 198.928 306.694 195.783 305.32 197.374C304.37 198.489 306.119 205.766 308.666 211.69C307.588 209.944 306.782 208.6 306.27 207.805C306.057 207.439 305.818 207.055 305.552 206.653C304.313 201.812 302.806 197.067 301.039 192.446C297.949 184.365 293.596 178.724 294.275 182.902Z" fill="#3399CC"/>
<g opacity="0.6">
<path d="M294.275 182.902C294.906 186.732 302.485 199.211 305.28 206.232C304.633 205.318 303.883 204.239 303.14 203.243C302.557 202.082 302.038 200.783 301.455 199.787C300.552 198.242 299.602 196.734 298.572 195.298C296.993 193.02 295.186 190.961 293.189 189.164C290.88 187.007 288.071 185.669 285.107 185.315C284.308 185.251 279.748 184.858 280.81 186.961C281.005 187.283 281.265 187.547 281.569 187.729C284.372 189.694 287.471 190.746 290.426 192.3C294.85 194.667 300.696 200.975 303.132 203.718L304.37 205.592C300.017 200.948 292.909 198.279 290.473 199.586C287.463 201.158 293.94 202.767 299.434 204.394C301.893 205.035 304.179 206.349 306.095 208.225C307.149 209.852 308.339 211.681 309.529 213.555C309.673 213.847 309.816 214.121 309.96 214.396C309.117 213.274 308.163 212.268 307.117 211.397C304.306 209.194 296.567 207.859 295.752 210.84C294.938 213.82 300.424 212.458 305.144 213.317C307.699 213.857 310.046 215.284 311.869 217.403L312.18 217.787C312.715 218.702 313.227 219.497 313.706 220.301C314.832 222.185 315.902 223.958 316.9 225.668C315.312 223.286 313.429 221.182 311.31 219.424C307.189 216.188 301.686 215.502 299.682 217.239C297.677 218.976 306.925 220.548 311.47 222.377C314.088 223.517 316.409 225.405 318.21 227.862C319.703 230.284 321.181 232.643 322.77 235.111C320.238 232.544 317.527 230.218 314.664 228.154C310.008 224.662 305.184 225.137 303.898 227.24C302.613 229.343 306.55 229.48 313.873 231.281C317.736 232.218 321.315 234.299 324.256 237.314L326.356 240.514C327.155 241.767 328.153 243.046 329.167 244.308C327.929 243.668 326.101 242.754 324.072 241.757C321.804 240.691 319.612 239.426 317.515 237.973C315.119 236.254 311.861 234.435 308.994 235.897C308.776 235.978 308.576 236.112 308.408 236.288C308.239 236.465 308.106 236.681 308.016 236.922C307.927 237.163 307.884 237.423 307.89 237.685C307.896 237.947 307.951 238.204 308.051 238.439C308.368 239.101 308.864 239.627 309.465 239.938C312.66 241.94 316.597 242.47 320.087 243.357C323.29 244.177 326.537 244.755 329.806 245.085C330.757 246.228 331.747 247.352 332.729 248.413L331.26 248.724C329.527 249.098 321.077 246.42 316.884 245.826C312.691 245.231 309.297 248.385 313.849 250.214C318.402 252.042 329.734 249.427 329.734 249.427L333.009 248.724C336.898 252.92 340.5 256.129 340.5 256.129L342.017 254.958C342.017 254.958 338.879 253.971 333.608 248.266C333.484 247.138 333.468 245.998 333.56 244.866C333.895 238.466 338.503 231.244 334.965 225.055C334.111 223.556 332.266 222.733 331.244 224.379C330.509 225.567 330.549 227.569 330.781 228.95C331.579 233.475 332.817 237.488 332.514 242.205C332.514 242.416 332.514 245.579 332.705 247.297C331.987 246.484 331.244 245.597 330.461 244.619C329.816 242.841 329.298 241.007 328.912 239.134C327.897 234.151 328.912 228.867 328.185 223.794C327.953 222.239 325.837 218.555 324.799 221.755C324.344 223.172 324.927 225.86 325.006 227.368C325.246 231.637 325.613 236.099 327.083 240.084L326.452 239.17C325.188 235.193 324.205 231.105 323.513 226.948C322.387 220.082 322.579 214.24 320.646 212.412C318.713 210.584 318.817 218.226 320.646 226.262C321.484 229.925 322.847 233.403 324.679 236.556C322.619 233.539 320.566 230.44 318.609 227.414C316.793 224.118 315.659 220.391 315.295 216.517C314.952 210.419 314.632 205.437 312.172 202.411C309.713 199.385 309.601 201.652 311.541 208.536C312.875 213.253 314.472 219.597 316.333 223.867C314.808 221.499 313.378 219.25 312.092 217.211C311.238 215.1 309.162 209.642 308.515 204.925C307.716 198.928 306.694 195.783 305.32 197.373C304.37 198.489 306.119 205.766 308.666 211.69C307.588 209.944 306.782 208.6 306.27 207.804C306.057 207.439 305.818 207.055 305.552 206.652C304.313 201.812 302.806 197.067 301.039 192.446C297.949 184.365 293.596 178.724 294.275 182.902Z" fill="white"/>
</g>
<path d="M350.882 165.084C349.029 168.348 347.001 183.368 344.796 190.682C344.908 189.475 344.988 188.14 345.044 186.833C345.323 185.535 345.731 184.191 345.914 182.993C346.186 181.165 346.402 179.337 346.529 177.508C346.76 174.611 346.69 171.693 346.322 168.814C345.942 165.439 344.713 162.262 342.784 159.672C342.281 159.023 339.182 155.102 338.687 157.469C338.632 157.856 338.662 158.252 338.775 158.621C339.613 162.278 341.226 165.468 342.416 168.952C344.189 174.162 344.621 183.341 344.732 187.235C344.669 187.866 344.589 188.661 344.501 189.566C344.149 182.774 340.587 175.241 338.056 174.245C334.925 173.02 338.647 179.291 341.65 184.804C343.042 187.208 343.905 189.961 344.165 192.83C343.95 194.851 343.702 197.109 343.439 199.403C343.367 199.732 343.303 200.043 343.247 200.363C343.309 198.882 343.223 197.397 342.991 195.938C342.281 192.126 337.481 185.05 335.093 186.568C332.705 188.086 337.489 191.431 340.404 195.774C341.928 198.183 342.764 201.073 342.8 204.047C342.8 204.221 342.8 204.395 342.8 204.568C342.664 205.62 342.528 206.634 342.392 207.594C342.073 209.843 341.785 211.964 341.506 213.994C341.791 211.02 341.7 208.015 341.234 205.071C340.188 199.476 336.618 194.631 334.119 194.311C331.619 193.991 337.369 202.42 339.565 207.338C340.783 210.221 341.333 213.413 341.163 216.608C340.787 219.534 340.436 222.413 340.1 225.458C339.809 221.597 339.248 217.77 338.423 214.012C337.153 207.814 333.368 204.34 331.148 204.87C328.927 205.4 331.723 208.582 335.939 215.667C338.162 219.39 339.494 223.714 339.805 228.209C339.669 229.489 339.533 230.806 339.397 232.177C339.246 233.74 339.166 235.431 339.15 237.15C338.631 235.706 337.864 233.594 336.994 231.281C335.995 228.718 335.17 226.072 334.526 223.364C333.807 220.21 332.561 216.334 329.606 215.136C329.4 215.023 329.175 214.963 328.947 214.958C328.718 214.953 328.491 215.004 328.282 215.108C328.072 215.212 327.884 215.366 327.731 215.56C327.578 215.755 327.463 215.984 327.394 216.233C327.223 216.963 327.263 217.735 327.506 218.437C328.592 222.386 331.148 225.896 333.136 229.297C334.967 232.417 336.973 235.398 339.142 238.22C339.142 239.801 339.182 241.392 339.254 242.937L338 242.023C336.514 240.926 332.018 232.314 329.343 228.584C326.667 224.854 322.307 224.443 324.495 229.361C326.683 234.28 336.474 241.328 336.474 241.328L339.27 243.412C339.565 249.519 340.236 254.684 340.236 254.684L342.041 255.032C342.041 255.032 340.364 251.841 339.981 243.559C340.571 242.641 341.249 241.8 342.001 241.054C346.09 236.684 353.781 235.093 354.947 227.807C355.226 226.052 354.396 224.004 352.655 224.388C351.409 224.662 350.259 226.152 349.588 227.313C347.424 231.199 345.914 235.102 342.864 238.284C342.728 238.43 340.835 240.734 339.933 242.123C339.933 240.971 339.893 239.737 339.933 238.412C340.54 236.611 341.272 234.869 342.121 233.201C344.389 228.794 348.31 225.778 350.834 221.517C351.633 220.21 352.287 215.877 349.612 217.376C348.422 218.044 347.216 220.448 346.418 221.6C344.022 224.882 341.626 228.41 340.252 232.451C340.252 232.067 340.316 231.683 340.34 231.299C341.824 227.422 343.576 223.686 345.579 220.128C348.901 214.268 352.551 210.182 352.256 207.329C351.96 204.477 347.464 210.072 343.894 217.385C342.297 220.701 341.19 224.297 340.619 228.026C340.947 224.205 341.322 220.347 341.706 216.636C342.371 212.814 343.798 209.219 345.874 206.132C349.293 201.442 352.064 197.584 352.104 193.452C352.144 189.32 350.698 190.865 347.959 197.383C346.082 201.853 343.423 207.713 342.177 212.257C342.504 209.34 342.824 206.58 343.127 204.093C343.774 201.89 345.523 196.295 347.919 192.373C350.938 187.382 352.104 184.301 350.147 184.383C348.789 184.438 345.643 191.057 343.95 197.383C344.221 195.271 344.445 193.662 344.589 192.711C344.653 192.285 344.708 191.818 344.756 191.313C346.763 186.8 348.518 182.147 350.011 177.38C352.663 169.034 352.894 161.537 350.882 165.084Z" fill="#3399CC"/>
<g opacity="0.6">
<path d="M350.882 165.084C349.029 168.348 347.001 183.368 344.796 190.682C344.908 189.475 344.988 188.14 345.044 186.833C345.323 185.535 345.731 184.191 345.914 182.993C346.186 181.165 346.402 179.336 346.529 177.508C346.76 174.611 346.69 171.693 346.322 168.814C345.942 165.439 344.713 162.262 342.784 159.672C342.281 159.023 339.182 155.101 338.687 157.469C338.632 157.855 338.662 158.251 338.775 158.621C339.613 162.278 341.226 165.468 342.416 168.951C344.189 174.162 344.621 183.341 344.732 187.235C344.669 187.866 344.589 188.661 344.501 189.566C344.149 182.774 340.587 175.241 338.056 174.244C334.925 173.019 338.647 179.291 341.65 184.803C343.042 187.207 343.905 189.961 344.165 192.83C343.95 194.85 343.702 197.108 343.439 199.403C343.367 199.732 343.303 200.043 343.247 200.363C343.309 198.882 343.223 197.397 342.991 195.938C342.281 192.126 337.481 185.05 335.093 186.568C332.705 188.085 337.489 191.431 340.404 195.774C341.928 198.183 342.764 201.073 342.8 204.047C342.8 204.221 342.8 204.394 342.8 204.568C342.664 205.619 342.528 206.634 342.392 207.594C342.073 209.843 341.785 211.964 341.506 213.993C341.791 211.02 341.7 208.015 341.234 205.071C340.188 199.476 336.618 194.631 334.119 194.311C331.619 193.991 337.369 202.42 339.565 207.338C340.783 210.22 341.333 213.412 341.163 216.608C340.787 219.533 340.436 222.413 340.1 225.457C339.809 221.597 339.248 217.77 338.423 214.012C337.153 207.814 333.368 204.34 331.148 204.87C328.927 205.4 331.723 208.581 335.939 215.666C338.162 219.39 339.494 223.714 339.805 228.209C339.669 229.489 339.533 230.805 339.397 232.177C339.246 233.74 339.166 235.431 339.15 237.15C338.631 235.705 337.864 233.594 336.994 231.281C335.995 228.718 335.17 226.071 334.526 223.364C333.807 220.21 332.561 216.334 329.606 215.136C329.4 215.023 329.175 214.962 328.947 214.957C328.718 214.952 328.491 215.004 328.282 215.108C328.072 215.212 327.884 215.366 327.731 215.56C327.578 215.754 327.463 215.984 327.394 216.233C327.223 216.962 327.263 217.735 327.506 218.436C328.592 222.386 331.148 225.896 333.136 229.297C334.967 232.417 336.973 235.397 339.142 238.219C339.142 239.801 339.182 241.392 339.254 242.937L338 242.023C336.514 240.925 332.018 232.314 329.343 228.584C326.667 224.854 322.307 224.443 324.495 229.361C326.683 234.279 336.474 241.328 336.474 241.328L339.27 243.412C339.565 249.519 340.236 254.684 340.236 254.684L342.041 255.031C342.041 255.031 340.364 251.841 339.981 243.558C340.571 242.64 341.249 241.8 342.001 241.053C346.09 236.684 353.781 235.093 354.947 227.807C355.226 226.052 354.396 224.004 352.655 224.388C351.409 224.662 350.259 226.152 349.588 227.313C347.424 231.198 345.914 235.102 342.864 238.283C342.728 238.43 340.835 240.734 339.933 242.123C339.933 240.971 339.893 239.737 339.933 238.411C340.54 236.611 341.272 234.868 342.121 233.201C344.389 228.794 348.31 225.777 350.834 221.517C351.633 220.21 352.287 215.877 349.612 217.376C348.422 218.043 347.216 220.448 346.418 221.599C344.022 224.881 341.626 228.41 340.252 232.451C340.252 232.067 340.316 231.683 340.34 231.299C341.824 227.422 343.576 223.686 345.579 220.128C348.901 214.268 352.551 210.181 352.256 207.329C351.96 204.477 347.464 210.072 343.894 217.385C342.297 220.701 341.19 224.297 340.619 228.026C340.947 224.205 341.322 220.347 341.706 216.635C342.371 212.814 343.798 209.219 345.874 206.131C349.293 201.442 352.064 197.584 352.104 193.452C352.144 189.319 350.698 190.864 347.959 197.383C346.082 201.853 343.423 207.713 342.177 212.256C342.504 209.34 342.824 206.579 343.127 204.093C343.774 201.89 345.523 196.295 347.919 192.373C350.938 187.381 352.104 184.301 350.147 184.383C348.789 184.438 345.643 191.056 343.95 197.383C344.221 195.271 344.445 193.662 344.589 192.711C344.653 192.284 344.708 191.818 344.756 191.312C346.763 186.8 348.518 182.146 350.011 177.38C352.663 169.034 352.894 161.537 350.882 165.084Z" fill="white"/>
</g>
<path d="M10.2555 197.922C10.6309 200.793 15.9738 210.364 17.8745 215.685C17.4193 214.944 16.8922 214.158 16.3571 213.39C15.9498 212.476 15.5984 211.516 15.1831 210.748C14.5522 209.569 13.8813 208.417 13.1546 207.311C12.031 205.558 10.731 203.962 9.2812 202.557C7.6153 200.873 5.55548 199.783 3.35532 199.421C2.78829 199.348 -0.637858 198.9 0.104874 200.5C0.238879 200.751 0.429163 200.956 0.655932 201.094C2.70044 202.658 4.97655 203.544 7.14884 204.833C10.3913 206.698 14.5842 211.635 16.3412 213.729L17.2117 215.164C14.089 211.553 8.84994 209.35 6.9971 210.218C4.713 211.297 9.50482 212.714 13.5619 214.112C15.381 214.664 17.0539 215.719 18.4336 217.184C19.1843 218.427 20.0308 219.844 20.8295 221.28C20.9253 221.499 21.0291 221.709 21.133 221.92C20.5336 221.054 19.8474 220.271 19.0885 219.589C17.0439 217.852 11.3018 216.599 10.6149 218.793C9.9281 220.987 14.065 220.155 17.5631 220.951C19.4568 221.44 21.1739 222.582 22.4827 224.223C22.5545 224.333 22.6264 224.425 22.7063 224.525C23.0816 225.183 23.441 225.832 23.7765 226.445C24.5751 227.889 25.3178 229.242 26.0606 230.55C24.9353 228.73 23.5909 227.102 22.0674 225.714C19.0725 223.163 14.9755 222.468 13.4421 223.702C11.9087 224.937 18.761 226.445 22.1073 227.926C24.0316 228.854 25.7167 230.33 27.0029 232.213C28.0492 234.042 29.0954 235.87 30.1975 237.772C28.3717 235.763 26.4059 233.929 24.3195 232.287C20.9333 229.544 17.3235 229.718 16.3332 231.272C15.3429 232.826 18.2579 233.036 23.6726 234.618C26.5253 235.447 29.1383 237.118 31.2517 239.463C31.7229 240.258 32.218 241.072 32.7372 241.922C33.3596 242.932 34.026 243.905 34.7337 244.838C33.8233 244.326 32.4896 243.577 30.9961 242.772C29.3335 241.899 27.7316 240.881 26.2043 239.728C24.4393 238.366 22.0754 236.903 19.8951 237.9C19.7303 237.946 19.5764 238.034 19.4438 238.155C19.3113 238.276 19.2034 238.429 19.1275 238.603C19.0515 238.777 19.0095 238.968 19.0041 239.162C18.9988 239.356 19.0303 239.549 19.0964 239.728C19.3244 240.267 19.7042 240.701 20.1746 240.962C22.4906 242.562 25.4296 243.083 28.0172 243.86C30.3798 244.576 32.7808 245.114 35.2049 245.469C35.8918 246.383 36.6025 247.224 37.3053 248.047L36.2032 248.239C34.8935 248.459 28.6641 246.182 25.5574 245.588C22.4507 244.994 19.8312 247.252 23.1615 248.769C26.4918 250.287 35.0292 248.705 35.0292 248.705L37.497 248.294C40.2923 251.549 42.8958 254.063 42.8958 254.063L44.0538 253.24C44.0538 253.24 41.7458 252.399 37.9522 247.974C37.8903 247.127 37.9091 246.275 38.0082 245.433C38.4155 240.67 42.0013 235.431 39.5495 230.696C38.9505 229.553 37.6008 228.868 36.7862 230.074C36.2813 231.098 36.1195 232.297 36.331 233.448C36.7942 236.848 37.6328 239.847 37.2974 243.385C37.2974 243.549 37.2175 245.908 37.2974 247.188C36.7862 246.566 36.2512 245.881 35.7001 245.122C35.2648 243.768 34.923 242.377 34.6778 240.962C34.0549 237.214 34.9494 233.301 34.5261 229.498C34.3903 228.328 32.9288 225.512 32.0503 227.862C31.675 228.904 32.0503 230.934 32.0503 232.058C31.9931 235.299 32.4087 238.527 33.2802 241.611C33.1285 241.383 32.9767 241.154 32.833 240.917C32.0035 237.921 31.3839 234.855 30.9801 231.747C30.3173 226.591 30.6048 222.24 29.2072 220.777C27.8096 219.314 27.6978 225.064 28.8398 231.107C29.3777 233.871 30.3085 236.515 31.5951 238.933C30.1336 236.602 28.6801 234.234 27.2984 231.93C26.0245 229.417 25.273 226.602 25.1022 223.702C24.9984 219.131 24.8786 215.42 23.1216 213.079C21.3646 210.739 21.2208 212.421 22.4986 217.65C23.3771 221.216 24.4074 225.997 25.6932 229.251C24.623 227.423 23.6087 225.704 22.7063 224.141C21.5684 221.173 20.7633 218.052 20.3104 214.853C19.8551 210.355 19.1843 207.969 18.1141 209.121C17.3794 209.916 18.4735 215.401 20.2545 219.908C19.4558 218.565 18.9207 217.541 18.5933 216.928C18.4442 216.654 18.2765 216.349 18.0902 216.014C17.2864 212.353 16.2835 208.753 15.0873 205.236C12.9869 199.083 9.85622 194.75 10.2555 197.922Z" fill="#3399CC"/>
<path opacity="0.6" d="M10.2555 197.922C10.6309 200.793 15.9738 210.364 17.8745 215.685C17.4193 214.944 16.8922 214.158 16.3571 213.39C15.9498 212.476 15.5984 211.516 15.1831 210.748C14.5522 209.569 13.8813 208.417 13.1546 207.311C12.031 205.558 10.731 203.962 9.2812 202.557C7.6153 200.873 5.55548 199.783 3.35532 199.421C2.78829 199.348 -0.637858 198.9 0.104874 200.5C0.238879 200.751 0.429163 200.956 0.655932 201.094C2.70044 202.658 4.97655 203.544 7.14884 204.833C10.3913 206.698 14.5842 211.635 16.3412 213.729L17.2117 215.164C14.089 211.553 8.84994 209.35 6.9971 210.218C4.713 211.297 9.50482 212.714 13.5619 214.112C15.381 214.664 17.0539 215.719 18.4336 217.184C19.1843 218.427 20.0308 219.844 20.8295 221.28C20.9253 221.499 21.0291 221.709 21.133 221.92C20.5336 221.054 19.8474 220.271 19.0885 219.589C17.0439 217.852 11.3018 216.599 10.6149 218.793C9.9281 220.987 14.065 220.155 17.5631 220.951C19.4568 221.44 21.1739 222.582 22.4827 224.223C22.5545 224.333 22.6264 224.425 22.7063 224.525C23.0816 225.183 23.441 225.832 23.7765 226.445C24.5751 227.889 25.3178 229.242 26.0606 230.55C24.9353 228.73 23.5909 227.102 22.0674 225.714C19.0725 223.163 14.9755 222.468 13.4421 223.702C11.9087 224.937 18.761 226.445 22.1073 227.926C24.0316 228.854 25.7167 230.33 27.0029 232.213C28.0492 234.042 29.0954 235.87 30.1975 237.772C28.3717 235.763 26.4059 233.929 24.3195 232.287C20.9333 229.544 17.3235 229.718 16.3332 231.272C15.3429 232.826 18.2579 233.036 23.6726 234.618C26.5253 235.447 29.1383 237.118 31.2517 239.463C31.7229 240.258 32.218 241.072 32.7372 241.922C33.3596 242.932 34.026 243.905 34.7337 244.838C33.8233 244.326 32.4896 243.577 30.9961 242.772C29.3335 241.899 27.7316 240.881 26.2043 239.728C24.4393 238.366 22.0754 236.903 19.8951 237.9C19.7303 237.946 19.5764 238.034 19.4438 238.155C19.3113 238.276 19.2034 238.429 19.1275 238.603C19.0515 238.777 19.0095 238.968 19.0041 239.162C18.9988 239.356 19.0303 239.549 19.0964 239.728C19.3244 240.267 19.7042 240.701 20.1746 240.962C22.4906 242.562 25.4296 243.083 28.0172 243.86C30.3798 244.576 32.7808 245.114 35.2049 245.469C35.8918 246.383 36.6025 247.224 37.3053 248.047L36.2032 248.239C34.8935 248.459 28.6641 246.182 25.5574 245.588C22.4507 244.994 19.8312 247.252 23.1615 248.769C26.4918 250.287 35.0292 248.705 35.0292 248.705L37.497 248.294C40.2923 251.549 42.8958 254.063 42.8958 254.063L44.0538 253.24C44.0538 253.24 41.7458 252.399 37.9522 247.974C37.8903 247.127 37.9091 246.275 38.0082 245.433C38.4155 240.67 42.0013 235.431 39.5495 230.696C38.9505 229.553 37.6008 228.868 36.7862 230.074C36.2813 231.098 36.1195 232.297 36.331 233.448C36.7942 236.848 37.6328 239.847 37.2974 243.385C37.2974 243.549 37.2175 245.908 37.2974 247.188C36.7862 246.566 36.2512 245.881 35.7001 245.122C35.2648 243.768 34.923 242.377 34.6778 240.962C34.0549 237.214 34.9494 233.301 34.5261 229.498C34.3903 228.328 32.9288 225.512 32.0503 227.862C31.675 228.904 32.0503 230.934 32.0503 232.058C31.9931 235.299 32.4087 238.527 33.2802 241.611C33.1285 241.383 32.9767 241.154 32.833 240.917C32.0035 237.921 31.3839 234.855 30.9801 231.747C30.3173 226.591 30.6048 222.24 29.2072 220.777C27.8096 219.314 27.6978 225.064 28.8398 231.107C29.3777 233.871 30.3085 236.515 31.5951 238.933C30.1336 236.602 28.6801 234.234 27.2984 231.93C26.0245 229.417 25.273 226.602 25.1022 223.702C24.9984 219.131 24.8786 215.42 23.1216 213.079C21.3646 210.739 21.2208 212.421 22.4986 217.65C23.3771 221.216 24.4074 225.997 25.6932 229.251C24.623 227.423 23.6087 225.704 22.7063 224.141C21.5684 221.173 20.7633 218.052 20.3104 214.853C19.8551 210.355 19.1843 207.969 18.1141 209.121C17.3794 209.916 18.4735 215.401 20.2545 219.908C19.4558 218.565 18.9207 217.541 18.5933 216.928C18.4442 216.654 18.2765 216.349 18.0902 216.014C17.2864 212.353 16.2835 208.753 15.0873 205.236C12.9869 199.083 9.85622 194.75 10.2555 197.922Z" fill="white"/>
<path d="M68.0934 195.655C65.961 197.227 60.5542 206.744 57.1041 210.931C57.5035 210.145 57.9028 209.267 58.3021 208.399C58.8372 207.603 59.4761 206.836 59.8994 206.086C60.5782 204.934 61.2171 203.755 61.8001 202.539C62.7291 200.647 63.4608 198.638 63.9804 196.551C64.6387 194.118 64.6554 191.517 64.0283 189.073C63.8606 188.451 62.7984 184.694 61.8321 186.138C61.6889 186.38 61.6035 186.661 61.5845 186.952C61.1772 189.695 61.4168 192.437 61.289 195.262C61.1053 199.431 58.941 205.83 57.9667 208.536C57.759 208.938 57.4955 209.45 57.168 210.035C58.7653 205.291 58.342 198.919 56.8885 197.346C55.0836 195.408 55.9381 201.003 56.5052 205.793C56.8091 207.921 56.6584 210.101 56.0659 212.147C55.3791 213.436 54.6044 214.89 53.8138 216.361L53.4224 216.947C53.8933 215.967 54.2606 214.927 54.5166 213.847C55.0516 211.004 53.7179 204.504 51.6495 204.706C49.581 204.907 51.9929 208.856 52.7995 212.833C53.1981 215.009 52.9972 217.274 52.2245 219.314L52.0807 219.671C51.7053 220.338 51.346 220.978 50.9946 221.581C50.1959 223.008 49.3973 224.324 48.6625 225.65C49.6523 223.728 50.3946 221.652 50.8668 219.488C51.6654 215.31 50.5234 210.757 48.9101 209.66C47.2969 208.563 48.9101 216.325 49.1258 220.439C49.1806 222.829 48.6994 225.196 47.7281 227.313C46.6899 229.142 45.6836 230.97 44.6374 232.963C45.4647 230.229 46.0977 227.422 46.5302 224.571C47.3288 219.908 45.6836 216.215 44.0225 215.804C42.3613 215.392 43.4155 218.546 44.3898 224.836C44.9074 228.152 44.6568 231.566 43.6631 234.737C43.2238 235.559 42.7846 236.41 42.3214 237.296C41.8582 238.183 41.2991 239.426 40.8199 240.597C40.8199 239.426 40.8998 237.726 40.9238 235.843C40.9338 233.746 41.0806 231.653 41.363 229.581C41.7224 227.185 41.9141 224.095 40.221 222.267C40.1116 222.116 39.9743 221.994 39.819 221.91C39.6637 221.826 39.4941 221.783 39.3225 221.783C39.1508 221.783 38.9813 221.826 38.826 221.91C38.6707 221.994 38.5334 222.116 38.424 222.267C38.1113 222.701 37.9318 223.241 37.9129 223.803C37.5934 226.884 38.3921 230.202 38.8313 233.183C39.2424 235.964 39.8107 238.713 40.5324 241.41C40.1092 242.48 39.7338 243.586 39.3425 244.656L38.7355 243.586C38.0247 242.315 37.266 234.874 36.4514 231.391C35.6368 227.908 32.7617 226.107 32.9374 230.221C33.1131 234.334 37.8889 242.58 37.8889 242.58L39.2386 244.976C37.8011 249.227 36.8427 252.984 36.8427 252.984L37.9688 253.852C37.9688 253.852 37.6893 251.11 39.6459 245.323C40.3036 244.867 41.0059 244.502 41.7384 244.235C45.7316 242.699 51.322 244.308 54.1013 239.765C54.7641 238.668 54.7482 237.022 53.4624 236.629C52.4385 236.52 51.4153 236.845 50.5873 237.543C48.0716 239.426 46.0031 241.557 43.0721 242.644C42.9363 242.699 41.0356 243.604 40.0453 244.226C40.3328 243.44 40.6602 242.59 41.0356 241.703C41.9284 240.699 42.8927 239.781 43.9187 238.96C46.642 236.757 50.1241 236.081 52.9832 234.06C53.8537 233.448 55.4829 230.733 53.2627 230.815C52.2724 230.815 50.8109 232.067 49.9324 232.561C47.3285 233.837 44.9289 235.601 42.8325 237.781C42.9523 237.534 43.0721 237.278 43.1999 237.031C45.2359 234.897 47.4178 232.953 49.7247 231.217C53.5582 228.401 57.1361 226.902 57.7111 224.818C58.2861 222.733 53.7179 225.01 49.3414 228.703C47.3628 230.4 45.6437 232.46 44.2541 234.801C45.5 232.314 46.7937 229.818 48.0476 227.432C49.5331 225.073 51.4733 223.136 53.7179 221.773C57.3118 219.781 60.2268 218.117 61.3609 215.374C62.4949 212.632 61.0973 213.125 57.4875 216.599C55.0117 218.985 51.6335 222.029 49.565 224.69C50.5713 222.861 51.5297 221.033 52.4002 219.47C54.2889 217.07 56.4357 214.953 58.7893 213.171C62.1835 210.84 63.8047 209.148 62.447 208.518C61.5046 208.079 57.5913 211.48 54.7402 215.191L56.4253 212.238C56.585 211.964 56.7527 211.663 56.9204 211.324C59.4923 208.975 61.933 206.444 64.228 203.746C68.2611 198.964 70.4254 193.945 68.0934 195.655Z" fill="#3399CC"/>
<path opacity="0.6" d="M68.0934 195.655C65.961 197.227 60.5542 206.744 57.1041 210.931C57.5035 210.145 57.9028 209.267 58.3021 208.399C58.8372 207.603 59.4761 206.836 59.8994 206.086C60.5782 204.934 61.2171 203.755 61.8001 202.539C62.7291 200.647 63.4608 198.638 63.9804 196.551C64.6387 194.118 64.6554 191.517 64.0283 189.073C63.8606 188.451 62.7984 184.694 61.8321 186.138C61.6889 186.38 61.6035 186.661 61.5845 186.952C61.1772 189.695 61.4168 192.437 61.289 195.262C61.1053 199.431 58.941 205.83 57.9667 208.536C57.759 208.938 57.4955 209.45 57.168 210.035C58.7653 205.291 58.342 198.919 56.8885 197.346C55.0836 195.408 55.9381 201.003 56.5052 205.793C56.8091 207.921 56.6584 210.101 56.0659 212.147C55.3791 213.436 54.6044 214.89 53.8138 216.361L53.4224 216.947C53.8933 215.967 54.2606 214.927 54.5166 213.847C55.0516 211.004 53.7179 204.504 51.6495 204.706C49.581 204.907 51.9929 208.856 52.7995 212.833C53.1981 215.009 52.9972 217.274 52.2245 219.314L52.0807 219.671C51.7053 220.338 51.346 220.978 50.9946 221.581C50.1959 223.008 49.3973 224.324 48.6625 225.65C49.6523 223.728 50.3946 221.652 50.8668 219.488C51.6654 215.31 50.5234 210.757 48.9101 209.66C47.2969 208.563 48.9101 216.325 49.1258 220.439C49.1806 222.829 48.6994 225.196 47.7281 227.313C46.6899 229.142 45.6836 230.97 44.6374 232.963C45.4647 230.229 46.0977 227.422 46.5302 224.571C47.3288 219.908 45.6836 216.215 44.0225 215.804C42.3613 215.392 43.4155 218.546 44.3898 224.836C44.9074 228.152 44.6568 231.566 43.6631 234.737C43.2238 235.559 42.7846 236.41 42.3214 237.296C41.8582 238.183 41.2991 239.426 40.8199 240.597C40.8199 239.426 40.8998 237.726 40.9238 235.843C40.9338 233.746 41.0806 231.653 41.363 229.581C41.7224 227.185 41.9141 224.095 40.221 222.267C40.1116 222.116 39.9743 221.994 39.819 221.91C39.6637 221.826 39.4941 221.783 39.3225 221.783C39.1508 221.783 38.9813 221.826 38.826 221.91C38.6707 221.994 38.5334 222.116 38.424 222.267C38.1113 222.701 37.9318 223.241 37.9129 223.803C37.5934 226.884 38.3921 230.202 38.8313 233.183C39.2424 235.964 39.8107 238.713 40.5324 241.41C40.1092 242.48 39.7338 243.586 39.3425 244.656L38.7355 243.586C38.0247 242.315 37.266 234.874 36.4514 231.391C35.6368 227.908 32.7617 226.107 32.9374 230.221C33.1131 234.334 37.8889 242.58 37.8889 242.58L39.2386 244.976C37.8011 249.227 36.8427 252.984 36.8427 252.984L37.9688 253.852C37.9688 253.852 37.6893 251.11 39.6459 245.323C40.3036 244.867 41.0059 244.502 41.7384 244.235C45.7316 242.699 51.322 244.308 54.1013 239.765C54.7641 238.668 54.7482 237.022 53.4624 236.629C52.4385 236.52 51.4153 236.845 50.5873 237.543C48.0716 239.426 46.0031 241.557 43.0721 242.644C42.9363 242.699 41.0356 243.604 40.0453 244.226C40.3328 243.44 40.6602 242.59 41.0356 241.703C41.9284 240.699 42.8927 239.781 43.9187 238.96C46.642 236.757 50.1241 236.081 52.9832 234.06C53.8537 233.448 55.4829 230.733 53.2627 230.815C52.2724 230.815 50.8109 232.067 49.9324 232.561C47.3285 233.837 44.9289 235.601 42.8325 237.781C42.9523 237.534 43.0721 237.278 43.1999 237.031C45.2359 234.897 47.4178 232.953 49.7247 231.217C53.5582 228.401 57.1361 226.902 57.7111 224.818C58.2861 222.733 53.7179 225.01 49.3414 228.703C47.3628 230.4 45.6437 232.46 44.2541 234.801C45.5 232.314 46.7937 229.818 48.0476 227.432C49.5331 225.073 51.4733 223.136 53.7179 221.773C57.3118 219.781 60.2268 218.117 61.3609 215.374C62.4949 212.632 61.0973 213.125 57.4875 216.599C55.0117 218.985 51.6335 222.029 49.565 224.69C50.5713 222.861 51.5297 221.033 52.4002 219.47C54.2889 217.07 56.4357 214.953 58.7893 213.171C62.1835 210.84 63.8047 209.148 62.447 208.518C61.5046 208.079 57.5913 211.48 54.7402 215.191L56.4253 212.238C56.585 211.964 56.7527 211.663 56.9204 211.324C59.4923 208.975 61.933 206.444 64.228 203.746C68.2611 198.964 70.4254 193.945 68.0934 195.655Z" fill="white"/>
<path d="M91.5067 195.902C89.3664 197.484 83.9596 207 80.5095 211.178C80.9088 210.401 81.3081 209.523 81.7074 208.646C82.2425 207.86 82.8814 207.083 83.3047 206.342C83.9835 205.19 84.6224 204.011 85.2055 202.795C86.133 200.903 86.8647 198.893 87.3857 196.807C88.0429 194.374 88.0623 191.774 87.4416 189.329C87.2659 188.707 86.2038 184.95 85.2374 186.385C85.0952 186.631 85.01 186.914 84.9898 187.208C84.5905 189.951 84.8221 192.693 84.6943 195.509C84.5106 199.687 82.3463 206.086 81.372 208.792C81.1644 209.194 80.9008 209.706 80.5734 210.291C82.1706 205.538 81.7553 199.166 80.2938 197.602C78.4889 195.664 79.3435 201.259 79.9105 206.05C80.2193 208.174 80.0685 210.352 79.4712 212.394C78.7844 213.692 78.0097 215.137 77.2191 216.618C77.0833 216.81 76.9555 217.011 76.8278 217.203C77.2711 216.219 77.6116 215.179 77.842 214.104C78.3851 211.26 77.0434 204.761 74.9749 204.962C72.9065 205.163 75.3183 209.112 76.125 213.089C76.5245 215.262 76.3236 217.524 75.5499 219.561L75.4062 219.927C75.0308 220.585 74.6714 221.234 74.32 221.838C73.5214 223.255 72.7228 224.58 71.988 225.906C72.9791 223.981 73.7216 221.903 74.1923 219.735C74.9909 215.566 73.8489 211.014 72.2356 209.917C70.6224 208.82 72.2755 216.581 72.4512 220.695C72.5061 223.086 72.0249 225.452 71.0536 227.57C70.0154 229.398 69.0091 231.226 67.9629 233.219C68.7996 230.488 69.4432 227.685 69.8876 224.836C70.6862 220.174 69.0411 216.48 67.3799 216.069C65.7187 215.658 66.7729 218.812 67.7553 225.101C68.2661 228.419 68.0129 231.831 67.0205 235.002C66.5813 235.825 66.142 236.675 65.6788 237.562C65.2156 238.448 64.6565 239.692 64.1774 240.853C64.1774 239.692 64.2572 237.991 64.2812 236.099C64.2915 234.005 64.4384 231.915 64.7204 229.846C65.0798 227.451 65.2715 224.361 63.5784 222.532C63.469 222.381 63.3317 222.259 63.1764 222.175C63.0211 222.092 62.8516 222.048 62.6799 222.048C62.5083 222.048 62.3387 222.092 62.1834 222.175C62.0281 222.259 61.8909 222.381 61.7815 222.532C61.4687 222.966 61.2892 223.506 61.2703 224.068C60.9509 227.14 61.7495 230.468 62.1888 233.448C62.6003 236.211 63.1685 238.942 63.8899 241.621C63.4666 242.699 63.0912 243.796 62.6999 244.875L62.0929 243.796C61.3821 242.526 60.6234 235.093 59.8088 231.61C58.9942 228.127 56.1191 226.326 56.2948 230.44C56.4705 234.554 61.2464 242.791 61.2464 242.791L62.5961 245.186C61.1585 249.446 60.2002 253.203 60.2002 253.203L61.3262 254.072C61.3262 254.072 61.0467 251.329 63.0034 245.543C63.6503 245.122 64.336 244.785 65.0479 244.537C69.0411 243.001 74.6315 244.619 77.4108 240.076C78.0736 238.97 78.0577 237.287 76.7719 236.94C75.7477 236.827 74.7231 237.152 73.8968 237.854C71.3811 239.737 69.3126 241.868 66.3816 242.955C66.2458 243.001 64.3451 243.915 63.3548 244.537C63.6423 243.742 63.9697 242.901 64.3451 242.005C65.2398 241.003 66.204 240.086 67.2282 239.262C69.9595 237.059 73.4336 236.382 76.2927 234.362C77.1712 233.75 78.7924 231.034 76.5722 231.108C75.5819 231.108 74.1204 232.369 73.2419 232.854C70.6393 234.136 68.2402 235.903 66.142 238.083L66.5094 237.324C68.5578 235.205 70.7503 233.276 73.0662 231.555C76.8996 228.731 80.4775 227.24 81.0525 225.156C81.6276 223.072 77.0594 225.348 72.6828 229.041C70.7043 230.738 68.9852 232.799 67.5955 235.139C68.8414 232.652 70.1352 230.157 71.389 227.762C72.8671 225.397 74.7986 223.452 77.0354 222.075C80.6293 220.082 83.5443 218.419 84.6784 215.63C85.8124 212.842 84.4148 213.372 80.805 216.855C78.3292 219.232 74.951 222.286 72.8825 224.946C73.8888 223.072 74.8471 221.289 75.7177 219.717C77.6091 217.322 79.7556 215.209 82.1068 213.427C85.501 211.087 87.1222 209.405 85.7645 208.774C84.8221 208.335 80.9088 211.736 78.0577 215.447C78.8563 214.104 79.3994 213.089 79.7428 212.495C79.9025 212.22 80.0702 211.919 80.2379 211.58C82.8116 209.234 85.2548 206.706 87.5534 204.011C91.6584 199.221 93.8228 194.202 91.5067 195.902Z" fill="#3399CC"/>
<path opacity="0.6" d="M91.5067 195.902C89.3664 197.484 83.9596 207 80.5095 211.178C80.9088 210.401 81.3081 209.523 81.7074 208.646C82.2425 207.86 82.8814 207.083 83.3047 206.342C83.9835 205.19 84.6224 204.011 85.2055 202.795C86.133 200.903 86.8647 198.893 87.3857 196.807C88.0429 194.374 88.0623 191.774 87.4416 189.329C87.2659 188.707 86.2038 184.95 85.2374 186.385C85.0952 186.631 85.01 186.914 84.9898 187.208C84.5905 189.951 84.8221 192.693 84.6943 195.509C84.5106 199.687 82.3463 206.086 81.372 208.792C81.1644 209.194 80.9008 209.706 80.5734 210.291C82.1706 205.538 81.7553 199.166 80.2938 197.602C78.4889 195.664 79.3435 201.259 79.9105 206.05C80.2193 208.174 80.0685 210.352 79.4712 212.394C78.7844 213.692 78.0097 215.137 77.2191 216.618C77.0833 216.81 76.9555 217.011 76.8278 217.203C77.2711 216.219 77.6116 215.179 77.842 214.104C78.3851 211.26 77.0434 204.761 74.9749 204.962C72.9065 205.163 75.3183 209.112 76.125 213.089C76.5245 215.262 76.3236 217.524 75.5499 219.561L75.4062 219.927C75.0308 220.585 74.6714 221.234 74.32 221.838C73.5214 223.255 72.7228 224.58 71.988 225.906C72.9791 223.981 73.7216 221.903 74.1923 219.735C74.9909 215.566 73.8489 211.014 72.2356 209.917C70.6224 208.82 72.2755 216.581 72.4512 220.695C72.5061 223.086 72.0249 225.452 71.0536 227.57C70.0154 229.398 69.0091 231.226 67.9629 233.219C68.7996 230.488 69.4432 227.685 69.8876 224.836C70.6862 220.174 69.0411 216.48 67.3799 216.069C65.7187 215.658 66.7729 218.812 67.7553 225.101C68.2661 228.419 68.0129 231.831 67.0205 235.002C66.5813 235.825 66.142 236.675 65.6788 237.562C65.2156 238.448 64.6565 239.692 64.1774 240.853C64.1774 239.692 64.2572 237.991 64.2812 236.099C64.2915 234.005 64.4384 231.915 64.7204 229.846C65.0798 227.451 65.2715 224.361 63.5784 222.532C63.469 222.381 63.3317 222.259 63.1764 222.175C63.0211 222.092 62.8516 222.048 62.6799 222.048C62.5083 222.048 62.3387 222.092 62.1834 222.175C62.0281 222.259 61.8909 222.381 61.7815 222.532C61.4687 222.966 61.2892 223.506 61.2703 224.068C60.9509 227.14 61.7495 230.468 62.1888 233.448C62.6003 236.211 63.1685 238.942 63.8899 241.621C63.4666 242.699 63.0912 243.796 62.6999 244.875L62.0929 243.796C61.3821 242.526 60.6234 235.093 59.8088 231.61C58.9942 228.127 56.1191 226.326 56.2948 230.44C56.4705 234.554 61.2464 242.791 61.2464 242.791L62.5961 245.186C61.1585 249.446 60.2002 253.203 60.2002 253.203L61.3262 254.072C61.3262 254.072 61.0467 251.329 63.0034 245.543C63.6503 245.122 64.336 244.785 65.0479 244.537C69.0411 243.001 74.6315 244.619 77.4108 240.076C78.0736 238.97 78.0577 237.287 76.7719 236.94C75.7477 236.827 74.7231 237.152 73.8968 237.854C71.3811 239.737 69.3126 241.868 66.3816 242.955C66.2458 243.001 64.3451 243.915 63.3548 244.537C63.6423 243.742 63.9697 242.901 64.3451 242.005C65.2398 241.003 66.204 240.086 67.2282 239.262C69.9595 237.059 73.4336 236.382 76.2927 234.362C77.1712 233.75 78.7924 231.034 76.5722 231.108C75.5819 231.108 74.1204 232.369 73.2419 232.854C70.6393 234.136 68.2402 235.903 66.142 238.083L66.5094 237.324C68.5578 235.205 70.7503 233.276 73.0662 231.555C76.8996 228.731 80.4775 227.24 81.0525 225.156C81.6276 223.072 77.0594 225.348 72.6828 229.041C70.7043 230.738 68.9852 232.799 67.5955 235.139C68.8414 232.652 70.1352 230.157 71.389 227.762C72.8671 225.397 74.7986 223.452 77.0354 222.075C80.6293 220.082 83.5443 218.419 84.6784 215.63C85.8124 212.842 84.4148 213.372 80.805 216.855C78.3292 219.232 74.951 222.286 72.8825 224.946C73.8888 223.072 74.8471 221.289 75.7177 219.717C77.6091 217.322 79.7556 215.209 82.1068 213.427C85.501 211.087 87.1222 209.405 85.7645 208.774C84.8221 208.335 80.9088 211.736 78.0577 215.447C78.8563 214.104 79.3994 213.089 79.7428 212.495C79.9025 212.22 80.0702 211.919 80.2379 211.58C82.8116 209.234 85.2548 206.706 87.5534 204.011C91.6584 199.221 93.8228 194.202 91.5067 195.902Z" fill="white"/>
<path d="M339.987 22.7547C339.987 22.7547 336.929 12.6987 328.128 12.2507C319.327 11.8027 320.86 21.4475 314.742 24.0712C308.625 26.6949 306.325 19.2534 300.966 21.0086C295.607 22.7639 299.057 27.5725 294.465 29.3278C289.873 31.083 290.256 26.2652 283.372 30.242C276.488 34.2187 274.954 35.4986 273.421 35.9374C271.888 36.3762 258.119 38.9999 258.119 38.9999H353.38C353.38 38.9999 356.064 29.3643 350.705 25.4242C345.346 21.484 345.73 26.2652 339.987 22.7547Z" fill="#3399CC"/>
<path opacity="0.7" d="M339.987 22.7547C339.987 22.7547 336.929 12.6987 328.128 12.2507C319.327 11.8027 320.86 21.4475 314.742 24.0712C308.625 26.6949 306.325 19.2534 300.966 21.0086C295.607 22.7639 299.057 27.5725 294.465 29.3278C289.873 31.083 290.256 26.2652 283.372 30.242C276.488 34.2187 274.954 35.4986 273.421 35.9374C271.888 36.3762 258.119 38.9999 258.119 38.9999H353.38C353.38 38.9999 356.064 29.3643 350.705 25.4242C345.346 21.484 345.73 26.2652 339.987 22.7547Z" fill="white"/>
<path d="M164.94 6.48193C164.94 6.48193 163.079 0.375139 157.752 0.0825982C152.425 -0.209943 153.352 5.65002 149.638 7.24986C145.924 8.84969 144.535 4.32445 141.284 5.42147C138.034 6.5185 140.126 9.40734 137.347 10.4678C134.568 11.5283 134.791 8.63942 130.614 10.998C126.437 13.3566 125.519 14.1886 124.585 14.4537C123.65 14.7188 115.312 16.2821 115.312 16.2821H173.062C173.062 16.2821 174.659 10.4404 171.465 8.05434C168.27 5.6683 168.414 8.60285 164.94 6.48193Z" fill="#3399CC"/>
<path opacity="0.8" d="M164.94 6.48193C164.94 6.48193 163.079 0.375139 157.752 0.0825982C152.425 -0.209943 153.352 5.65002 149.638 7.24986C145.924 8.84969 144.535 4.32445 141.284 5.42147C138.034 6.5185 140.126 9.40734 137.347 10.4678C134.568 11.5283 134.791 8.63942 130.614 10.998C126.437 13.3566 125.519 14.1886 124.585 14.4537C123.65 14.7188 115.312 16.2821 115.312 16.2821H173.062C173.062 16.2821 174.659 10.4404 171.465 8.05434C168.27 5.6683 168.414 8.60285 164.94 6.48193Z" fill="white"/>
<path d="M67.7949 113.817C67.7949 113.817 65.2952 105.589 58.1154 105.242C50.9357 104.894 52.1736 112.747 47.1821 114.896C42.1906 117.044 40.3058 110.956 35.9373 112.391C31.5688 113.826 34.34 117.748 30.6264 119.183C26.9127 120.619 27.1922 116.678 21.5698 119.896C15.9474 123.114 14.7016 124.184 13.4477 124.55C12.1938 124.915 0.957031 127.045 0.957031 127.045H78.7282C78.7282 127.045 80.9085 119.183 76.54 115.965C72.1714 112.747 72.4749 116.697 67.7949 113.817Z" fill="#3399CC"/>
<g opacity="0.7">
<path d="M67.7949 113.817C67.7949 113.817 65.2952 105.59 58.1154 105.242C50.9357 104.895 52.1736 112.748 47.1821 114.896C42.1906 117.045 40.3058 110.956 35.9373 112.391C31.5688 113.827 34.34 117.749 30.6264 119.184C26.9127 120.619 27.1922 116.679 21.5698 119.897C15.9474 123.115 14.7016 124.184 13.4477 124.55C12.1938 124.916 0.957031 127.046 0.957031 127.046H78.7282C78.7282 127.046 80.9085 119.184 76.54 115.966C72.1714 112.748 72.4749 116.697 67.7949 113.817Z" fill="white"/>
</g>
<path d="M160.176 277C206.956 277 244.879 273.922 244.879 270.125C244.879 266.329 206.956 263.251 160.176 263.251C113.396 263.251 75.4727 266.329 75.4727 270.125C75.4727 273.922 113.396 277 160.176 277Z" fill="#3399CC"/>
<path d="M239.545 265.555C266.067 265.555 287.567 264.016 287.567 262.118C287.567 260.219 266.067 258.68 239.545 258.68C213.024 258.68 191.523 260.219 191.523 262.118C191.523 264.016 213.024 265.555 239.545 265.555Z" fill="#3399CC"/>
<g opacity="0.6">
<path d="M160.176 277C206.956 277 244.879 273.922 244.879 270.125C244.879 266.329 206.956 263.251 160.176 263.251C113.396 263.251 75.4727 266.329 75.4727 270.125C75.4727 273.922 113.396 277 160.176 277Z" fill="white"/>
<path d="M239.545 265.555C266.067 265.555 287.567 264.016 287.567 262.117C287.567 260.219 266.067 258.68 239.545 258.68C213.024 258.68 191.523 260.219 191.523 262.117C191.523 264.016 213.024 265.555 239.545 265.555Z" fill="white"/>
</g>
<path d="M159.559 167.617L174.453 155.404" stroke="#092B00" stroke-width="0.835087" stroke-linecap="round" stroke-linejoin="round"/>
<path d="M206.64 252.462L205.801 263.295C205.801 263.295 201.56 265.426 201.568 266.139C201.576 266.852 202.367 267.83 205.825 267.83C209.283 267.83 210.409 266.331 210.409 265.206C210.409 264.082 217.773 254.711 217.773 254.711C217.953 254.149 218.003 253.542 217.918 252.951C217.833 252.36 217.615 251.804 217.286 251.338C216.135 249.839 212.206 249.656 212.206 249.656L206.64 252.462Z" fill="#3399CC"/>
<path d="M201.576 266.861C201.576 266.861 207.334 266.431 208.876 265.426C210.417 264.42 215.904 254.858 216.343 254.099C216.63 253.479 216.781 252.789 216.782 252.088" stroke="#092B00" stroke-width="0.417543" stroke-linecap="round" stroke-linejoin="round"/>
<path d="M214.02 249.812C214.02 249.812 218.692 250.827 218.244 253.121C217.797 255.416 210.466 265.591 209.356 266.834C208.245 268.077 201.369 268.105 201.577 266.834C201.785 265.563 205.802 263.269 205.802 263.269L207.135 254.127" stroke="#092B00" stroke-width="0.835087" stroke-linecap="round" stroke-linejoin="round"/>
<path d="M115.627 261.267L101.874 268.955C101.874 268.955 100.077 270.454 103.679 270.454C107.281 270.454 126.264 270.637 126.264 270.637C126.264 270.637 128.397 271.204 128.884 270.08C129.683 268.251 130.034 267.081 129.539 266.514C129.044 265.947 115.627 261.267 115.627 261.267Z" fill="#3399CC"/>
<path d="M103.168 268.689H127.566" stroke="#092B00" stroke-width="0.417543" stroke-linecap="round" stroke-linejoin="round"/>
<path d="M114.701 262.244C114.701 262.244 100.693 269.119 100.917 269.878C101.14 270.636 115.14 270.646 120.475 270.646C125.81 270.646 129.596 270.902 129.596 269.375" stroke="#092B00" stroke-width="0.835087" stroke-linecap="round" stroke-linejoin="round"/>
<path d="M214.018 249.812L167.785 211.132L166.188 172.197C164.484 173.913 162.561 175.322 160.485 176.375C157.626 177.627 141.062 187.208 141.062 187.208C141.062 187.208 148.402 216.983 149.736 219.534C151.069 222.084 207.094 254.136 207.094 254.136L214.018 249.812Z" fill="#092B00"/>
<path d="M129.588 267.848C129.588 267.848 127.807 267.336 125.81 266.824C123.814 266.312 114.693 262.253 114.693 262.253C114.513 261.423 114.437 260.567 114.47 259.712C114.493 259.16 114.625 258.622 114.856 258.138C115.087 257.654 115.411 257.235 115.803 256.914C115.803 256.914 81.1185 203.983 80.232 202.456C79.3455 200.929 80.0084 198.379 86.0141 193.04C92.0198 187.701 131.313 160.248 131.313 160.248C129.803 158.2 132.646 156.938 132.646 156.938L136.208 158.209L159.553 167.625L168.889 160.504C168.889 160.504 170.446 167.113 164.664 172.205C158.882 177.297 106.02 204.202 106.02 204.202L105.141 204.266L128.925 263.743C128.925 263.743 130.522 266.998 129.588 267.848Z" fill="#092B00"/>
<path d="M100.094 197.501L104.486 203.791L102.729 195.49" stroke="white" stroke-width="0.835087" stroke-linecap="round" stroke-linejoin="round"/>
<path d="M143.389 187.692C143.389 187.692 152.397 203.791 155.696 207.064" stroke="white" stroke-width="0.835087" stroke-linecap="round" stroke-linejoin="round"/>
<path d="M144.705 187.19C147.188 189.678 149.831 191.948 152.612 193.983" stroke="white" stroke-width="0.835087" stroke-linecap="round" stroke-linejoin="round"/>
<g style="mix-blend-mode:multiply">
<path d="M160.503 101.96L129.309 126.295L136.129 158.475L159.281 167.361L190.173 142.166L186.443 109.794L160.503 101.96Z" fill="#3399CC"/>
</g>
<path d="M129.477 126.295L131.457 136.352" stroke="#092B00" stroke-width="0.835087" stroke-linecap="round" stroke-linejoin="round"/>
<path d="M133.102 143.693L136.216 158.201L159.56 167.617L156.669 143.693" stroke="#092B00" stroke-width="0.835087" stroke-linecap="round" stroke-linejoin="round"/>
<path d="M156.445 141.662L155.559 135.556" stroke="#092B00" stroke-width="0.835087" stroke-linecap="round" stroke-linejoin="round"/>
<path d="M184.014 147.77L190.235 142.422L187.12 112.144" stroke="#092B00" stroke-width="0.835087" stroke-linecap="round" stroke-linejoin="round"/>
<path d="M158.666 133.773L175.565 119.265" stroke="#092B00" stroke-width="0.835087" stroke-linecap="round" stroke-linejoin="round"/>
<path d="M174.678 106.284L160.67 101.96L129.986 125.884" stroke="#092B00" stroke-width="0.835087" stroke-linecap="round" stroke-linejoin="round"/>
<path d="M130.211 126.899L134.883 128.425" stroke="#092B00" stroke-width="0.835087" stroke-linecap="round" stroke-linejoin="round"/>
<path d="M142.885 130.464L155.559 134.532" stroke="#092B00" stroke-width="0.835087" stroke-linecap="round" stroke-linejoin="round"/>
<path d="M172.449 105.781L153.33 122.575" stroke="#092B00" stroke-width="0.417543" stroke-linecap="round" stroke-linejoin="round"/>
<path d="M151.771 124.102L144.879 130.208" stroke="#092B00" stroke-width="0.417543" stroke-linecap="round" stroke-linejoin="round"/>
<path d="M172.929 91.739C172.929 91.739 177.785 137.586 177.785 139.624C177.785 141.663 173.336 142.678 173.336 145.219C173.212 147.303 172.838 149.358 172.226 151.326C172.226 151.326 171.34 152.35 171.34 153.154C171.34 153.959 172.897 153.666 174.231 152.907C175.565 152.149 176.004 149.342 176.004 149.342C175.699 151.024 175.477 152.724 175.341 154.434L174.455 155.449C174.455 155.449 171.787 158.246 173.56 158.502C175.333 158.758 183.567 155.193 184.014 152.907C184.461 150.622 182.896 139.67 182.896 139.67C182.896 139.67 189.349 88.0091 189.349 83.173C189.38 81.8215 189.058 80.4902 188.423 79.3499C187.788 78.2097 186.87 77.3126 185.787 76.7737" fill="white"/>
<mask id="mask0_102_1457" style="mask-type:luminance" maskUnits="userSpaceOnUse" x="171" y="76" width="19" height="83">
<path d="M172.929 91.739C172.929 91.739 177.785 137.586 177.785 139.624C177.785 141.663 173.336 142.678 173.336 145.219C173.212 147.303 172.838 149.358 172.226 151.326C172.226 151.326 171.34 152.35 171.34 153.154C171.34 153.959 172.897 153.666 174.231 152.907C175.565 152.149 176.004 149.342 176.004 149.342C175.699 151.024 175.477 152.724 175.341 154.434L174.455 155.449C174.455 155.449 171.787 158.246 173.56 158.502C175.333 158.758 183.567 155.193 184.014 152.907C184.461 150.622 182.896 139.67 182.896 139.67C182.896 139.67 189.349 88.0091 189.349 83.173C189.38 81.8215 189.058 80.4902 188.423 79.3499C187.788 78.2097 186.87 77.3126 185.787 76.7737" fill="white"/>
</mask>
<g mask="url(#mask0_102_1457)">
<g style="mix-blend-mode:multiply" opacity="0.3">
<path d="M189.315 89.6095C188.38 85.5414 187.366 78.1547 187.366 78.1547L183.133 76.6829L177.543 84.3712L181.959 81.263V142.267C181.959 145.375 178.565 157.415 178.565 157.415C178.565 157.415 185.585 155.724 184.451 148.41C183.317 141.097 181.959 142.267 183.996 127.503C186.032 112.739 190.281 93.7051 189.315 89.6095Z" fill="#3399CC"/>
</g>
</g>
<path d="M172.929 91.739C172.929 91.739 177.785 137.586 177.785 139.624C177.785 141.663 173.336 142.678 173.336 145.219C173.212 147.303 172.838 149.358 172.226 151.326C172.226 151.326 171.34 152.35 171.34 153.154C171.34 153.959 172.897 153.666 174.231 152.907C175.565 152.149 176.004 149.342 176.004 149.342C175.699 151.024 175.477 152.724 175.341 154.434L174.455 155.449C174.455 155.449 171.787 158.246 173.56 158.502C175.333 158.758 183.567 155.193 184.014 152.907C184.461 150.622 182.896 139.67 182.896 139.67C182.896 139.67 189.349 88.0091 189.349 83.173C189.38 81.8215 189.058 80.4902 188.423 79.3499C187.788 78.2097 186.87 77.3126 185.787 76.7737" stroke="#092B00" stroke-width="0.835087" stroke-linecap="round" stroke-linejoin="round"/>
<path d="M178.304 152.478C178.546 153.564 178.467 154.712 178.08 155.741C177.643 156.559 177.129 157.319 176.547 158.009" stroke="#092B00" stroke-width="0.417543" stroke-linecap="round" stroke-linejoin="round"/>
<path d="M180.964 152.478C180.833 153.507 180.611 154.517 180.301 155.495" stroke="#092B00" stroke-width="0.417543" stroke-linecap="round" stroke-linejoin="round"/>
<path d="M182.944 151.719C182.81 152.747 182.588 153.758 182.281 154.736" stroke="#092B00" stroke-width="0.417543" stroke-linecap="round" stroke-linejoin="round"/>
<path d="M111.124 56.4425C110.868 53.8096 106.268 48.8364 99.8792 47.3737C93.4901 45.911 86.5819 45.911 84.0262 48.2879C83.0679 49.1564 82.429 51.1767 82.0137 53.3525C82.4689 52.2372 83.3873 49.9791 84.3377 49.0741C89.0417 44.5854 90.3514 47.2457 91.1341 51.1676C91.9168 55.0895 90.8706 65.7947 90.8706 65.7947C90.8706 65.7947 80.1528 69.3874 81.7182 63.0978C81.4883 62.2015 81.328 61.2838 81.239 60.3552C81.239 60.8215 81.239 61.1048 81.239 61.1048L80.7279 64.9079L76.3833 65.8221L61.2891 65.2736C61.2891 65.2736 68.9719 70.7587 73.3165 70.7587C76.1241 70.6263 78.8143 69.4338 80.9675 67.3671L108.92 69.8079C108.92 69.8079 111.38 59.0754 111.124 56.4425Z" fill="#3399CC"/>
<path d="M78.5383 65.5656L61.2559 65.2639C61.2559 65.2639 66.0477 70.4382 72.4368 70.4382C78.8259 70.4382 80.9502 67.3939 80.9502 67.3939L108.903 69.8348C108.903 69.8348 112.552 61.8722 110.691 54.8787C108.831 47.8851 92.0593 45.5356 87.3952 46.8246C81.6291 48.4245 81.2457 54.001 81.2457 57.0453C81.2036 59.2905 81.0248 61.5296 80.7106 63.7463" stroke="#092B00" stroke-width="0.835087" stroke-linecap="round" stroke-linejoin="round"/>
<mask id="mask1_102_1457" style="mask-type:luminance" maskUnits="userSpaceOnUse" x="77" y="68" width="34" height="40">
<path d="M79.871 68.3086C79.871 68.3086 76.94 76.2255 78.2737 77.4505C79.6074 78.6755 80.3981 79.2789 80.3981 79.2789C80.3981 79.2789 81.1967 89.9292 82.5224 91.7576C83.8482 93.586 92.3616 90.5417 92.3616 90.5417C92.3616 90.5417 109.62 110.316 110.179 106.659C110.738 103.002 108.582 89.2893 108.582 87.79C108.582 86.2907 104.86 82.3048 104.86 82.3048" fill="white"/>
</mask>
<g mask="url(#mask1_102_1457)">
<g style="mix-blend-mode:multiply" opacity="0.3">
<path d="M94.6967 68.7554L83.4119 68.9839C83.4119 68.9839 80.2174 74.4233 81.016 76.014C81.6341 77.1138 82.4511 78.0491 83.4119 78.7566C83.4119 78.7566 82.6133 86.0153 83.6116 88.511C84.6099 91.0068 92.5244 89.864 92.5244 89.864C90.773 91.0495 88.804 91.7507 86.7742 91.9118C83.0126 92.3597 81.8306 91.4547 81.2317 88.959C80.6327 86.4632 80.433 79.296 80.433 79.296L77.6777 76.014L79.6584 69.8889L81.8386 67.4023L94.6967 68.7554Z" fill="#3399CC"/>
</g>
</g>
<path d="M79.8729 68.3076C79.8729 68.3076 76.9419 76.2245 78.2756 77.4495C79.6094 78.6745 80.4 79.2779 80.4 79.2779C80.4 79.2779 81.1986 89.9282 82.5244 91.7566C83.8501 93.585 92.3636 90.5407 92.3636 90.5407C92.3636 90.5407 109.622 110.315 110.181 106.658C110.74 103.001 108.584 89.2883 108.584 87.789C108.584 86.2897 104.862 82.3039 104.862 82.3039" stroke="#092B00" stroke-width="0.835087" stroke-linecap="round" stroke-linejoin="round"/>
<path d="M95.2949 68.6096C95.2949 68.6096 95.822 71.3522 97.4193 71.6539C99.0166 71.9556 100.342 68.9113 100.342 68.9113L95.2949 68.6096Z" fill="#092B00"/>
<path d="M108.822 69.8352C108.822 69.8352 110.419 75.3203 108.55 78.3555C106.682 81.3906 105.899 81.3997 105.899 81.3997C104.302 84.444 100.045 77.7429 100.045 77.7429C100.045 77.7429 103.239 77.5784 104.038 75.1466C104.837 72.7149 103.719 69.1587 103.719 69.1587L108.822 69.8352Z" fill="#092B00"/>
<path d="M104.03 69.835C104.03 69.835 104.829 74.0951 104.03 76.2343C103.231 78.3735 100.037 77.7519 100.037 77.7519L98.4395 82.3228" stroke="#092B00" stroke-width="0.835087" stroke-linecap="round" stroke-linejoin="round"/>
<path d="M82.293 81.0338C82.293 81.0338 85.3757 81.7926 87.3483 77.761" stroke="#092B00" stroke-width="0.626315" stroke-linecap="round" stroke-linejoin="round"/>
<path d="M137.027 100.836L130.492 103.591L134.183 115.06L140.718 112.305L137.027 100.836Z" fill="#092B00"/>
<path d="M135.885 103.401L132.76 104.719L134.471 110.037L137.596 108.72L135.885 103.401Z" fill="white"/>
<path d="M133.58 99.0861L132.201 99.6675L133.325 103.159L134.704 102.578L133.58 99.0861Z" fill="white" stroke="#092B00" stroke-width="0.417543" stroke-linecap="round" stroke-linejoin="round"/>
<path d="M126.736 149.206L132.654 156.93" stroke="#092B00" stroke-width="0.835087" stroke-linecap="round" stroke-linejoin="round"/>
<mask id="mask2_102_1457" style="mask-type:luminance" maskUnits="userSpaceOnUse" x="160" y="0" width="165" height="250">
<path d="M161.7 69.7984L163.194 70.4567L184.501 74.9179C184.501 74.9179 187.975 77.0114 189.197 79.242C190.419 81.4726 189.317 89.6089 189.317 89.6089L187.089 108.752L190.659 143.071L184.43 148.419L184.669 151.81C184.837 151.865 184.629 156.336 175.389 158.21C175.389 158.21 173.472 159.307 172.913 158.822C171.5 157.606 172.634 157.707 172.634 157.707L168.896 160.45C169.095 162.607 168.893 164.787 168.305 166.849C167.331 170.506 166.66 171.219 166.66 171.219L168.361 205.236L172.458 211.918L225.967 249.099H324.614V0H160.494V69.2773L161.7 69.7984Z" fill="white"/>
</mask>
<g mask="url(#mask2_102_1457)">
<path d="M187.528 53.8909L181.658 57.7671L178.344 51.1392L184.206 47.2722L187.528 53.8909Z" stroke="#092B00" stroke-width="0.835087" stroke-linecap="round" stroke-linejoin="round"/>
<path d="M185.548 46.3489L176.308 52.4557L170.805 40.7906L180.045 34.6838L185.548 46.3489Z" stroke="#092B00" stroke-width="0.835087" stroke-linecap="round" stroke-linejoin="round"/>
<path d="M274.512 194.563C302.257 162.803 302.257 111.31 274.512 79.55C246.766 47.79 201.782 47.79 174.037 79.55C146.291 111.31 146.291 162.803 174.037 194.563C201.782 226.323 246.766 226.323 274.512 194.563Z" fill="white"/>
<path d="M224.898 41.7783C208.676 41.7729 192.818 47.2742 179.328 57.5863C165.838 67.8985 155.322 82.5584 149.111 99.7119C142.9 116.865 141.273 135.742 144.435 153.954C147.596 172.167 155.405 188.897 166.874 202.029C178.343 215.161 192.956 224.104 208.865 227.729C224.774 231.353 241.266 229.496 256.253 222.391C271.24 215.287 284.05 203.254 293.062 187.815C302.075 172.377 306.886 154.225 306.886 135.657C306.886 110.763 298.248 86.8891 282.873 69.2843C267.498 51.6795 246.644 41.7856 224.898 41.7783ZM224.898 216.983C210.839 216.983 197.097 212.211 185.408 203.271C173.72 194.331 164.609 181.623 159.229 166.756C153.85 151.889 152.442 135.53 155.185 119.747C157.927 103.964 164.697 89.4665 174.637 78.0877C184.578 66.7089 197.243 58.9598 211.031 55.8204C224.819 52.681 239.11 54.2922 252.098 60.4504C265.086 66.6086 276.187 77.0371 283.997 90.4171C291.807 103.797 295.976 119.528 295.976 135.62C295.976 146.305 294.138 156.885 290.566 166.756C286.994 176.628 281.758 185.597 275.158 193.152C268.557 200.708 260.722 206.701 252.098 210.79C243.474 214.878 234.232 216.983 224.898 216.983Z" fill="#092B00" stroke="#092B00" stroke-width="0.835087" stroke-linecap="round" stroke-linejoin="round"/>
<path d="M275.22 64.8433C267.047 57.2202 257.633 51.5306 247.524 48.1045" stroke="white" stroke-width="1.67017" stroke-linecap="round" stroke-linejoin="round"/>
<path d="M239.957 46.0021C237.052 45.3712 234.12 44.9225 231.172 44.6582" stroke="white" stroke-width="1.67017" stroke-linecap="round" stroke-linejoin="round"/>
<path d="M284.713 185.845C294.294 170.869 299.326 152.711 299.037 134.151C298.749 115.59 293.156 97.6492 283.115 83.072" stroke="white" stroke-width="0.835087" stroke-linecap="round" stroke-linejoin="round"/>
<path d="M274.346 198.909C276.675 196.528 278.868 193.979 280.911 191.276" stroke="white" stroke-width="0.835087" stroke-linecap="round" stroke-linejoin="round"/>
<path d="M194.748 213.234C207.213 219.571 220.96 221.856 234.484 219.84C248.008 217.825 260.786 211.586 271.417 201.807" stroke="white" stroke-width="0.835087" stroke-linecap="round" stroke-linejoin="round"/>
<path d="M184.166 206.606C186.385 208.271 188.68 209.797 191.043 211.177" stroke="white" stroke-width="0.835087" stroke-linecap="round" stroke-linejoin="round"/>
<path d="M176.213 199.695C178.084 201.558 180.035 203.313 182.059 204.952" stroke="white" stroke-width="0.835087" stroke-linecap="round" stroke-linejoin="round"/>
<path d="M204.388 54.0557C191.785 58.2098 180.37 66.1142 171.306 76.9633C162.242 87.8125 155.852 101.219 152.789 115.815C149.725 130.412 150.097 145.677 153.867 160.056C157.636 174.434 164.669 187.412 174.247 197.666" stroke="white" stroke-width="0.835087" stroke-linecap="round" stroke-linejoin="round"/>
<path d="M277.334 75.6306C268.659 65.7126 257.973 58.4074 246.231 54.3668C234.489 50.3262 222.056 49.676 210.041 52.4741" stroke="white" stroke-width="0.835087" stroke-linecap="round" stroke-linejoin="round"/>
<path d="M235.525 165.724H214.186V172.343H235.525V165.724Z" fill="#3399CC"/>
<path d="M230.853 135.656C230.853 134.061 230.364 132.516 229.471 131.291C228.578 130.067 227.337 129.24 225.966 128.955L225.335 84.2786H224.448L223.825 128.955C222.468 129.234 221.237 130.045 220.344 131.248C219.451 132.451 218.95 133.972 218.929 135.551C218.907 137.13 219.365 138.668 220.225 139.903C221.085 141.138 222.292 141.992 223.642 142.321L223.418 158.173H226.373L226.149 142.321C227.48 141.991 228.672 141.15 229.528 139.938C230.384 138.725 230.851 137.215 230.853 135.656ZM224.896 139.313C224.264 139.313 223.646 139.098 223.121 138.697C222.595 138.295 222.186 137.724 221.944 137.055C221.702 136.387 221.639 135.652 221.762 134.943C221.886 134.233 222.19 133.582 222.637 133.07C223.084 132.559 223.653 132.211 224.272 132.07C224.892 131.928 225.534 132.001 226.118 132.278C226.702 132.554 227.201 133.023 227.552 133.624C227.903 134.226 228.09 134.933 228.09 135.656C228.09 136.136 228.008 136.612 227.847 137.055C227.686 137.499 227.451 137.902 227.155 138.242C226.858 138.581 226.506 138.851 226.118 139.034C225.731 139.218 225.315 139.313 224.896 139.313Z" fill="#092B00"/>
<path d="M224.896 139.414C226.709 139.414 228.178 137.732 228.178 135.657C228.178 133.582 226.709 131.9 224.896 131.9C223.083 131.9 221.614 133.582 221.614 135.657C221.614 137.732 223.083 139.414 224.896 139.414Z" fill="#3399CC"/>
<path d="M224.897 58.8923V72.4315" stroke="#092B00" stroke-width="3.34035" stroke-linecap="round" stroke-linejoin="round"/>
<path d="M224.897 199.348V212.887" stroke="#092B00" stroke-width="3.34035" stroke-linecap="round" stroke-linejoin="round"/>
<path d="M191.266 69.2131L197.176 80.933" stroke="#092B00" stroke-width="3.34035" stroke-linecap="round" stroke-linejoin="round"/>
<path d="M252.617 190.846L258.527 202.575" stroke="#092B00" stroke-width="3.34035" stroke-linecap="round" stroke-linejoin="round"/>
<path d="M166.643 97.3882L176.881 104.162" stroke="#092B00" stroke-width="3.34035" stroke-linecap="round" stroke-linejoin="round"/>
<path d="M272.903 167.616L283.149 174.391" stroke="#092B00" stroke-width="3.34035" stroke-linecap="round" stroke-linejoin="round"/>
<path d="M292.156 135.894H280.328" stroke="#092B00" stroke-width="3.34035" stroke-linecap="round" stroke-linejoin="round"/>
<path d="M169.457 135.894H157.629" stroke="#092B00" stroke-width="3.34035" stroke-linecap="round" stroke-linejoin="round"/>
<path d="M292.156 135.894H280.328" stroke="#092B00" stroke-width="3.34035" stroke-linecap="round" stroke-linejoin="round"/>
<path d="M169.457 135.894H157.629" stroke="#092B00" stroke-width="3.34035" stroke-linecap="round" stroke-linejoin="round"/>
<path d="M283.149 97.3882L272.903 104.162" stroke="#092B00" stroke-width="3.34035" stroke-linecap="round" stroke-linejoin="round"/>
<path d="M176.881 167.616L166.643 174.391" stroke="#092B00" stroke-width="3.34035" stroke-linecap="round" stroke-linejoin="round"/>
<path d="M258.527 69.2131L252.617 80.933" stroke="#092B00" stroke-width="3.34035" stroke-linecap="round" stroke-linejoin="round"/>
<path d="M197.176 190.846L191.266 202.575" stroke="#092B00" stroke-width="3.34035" stroke-linecap="round" stroke-linejoin="round"/>
<path d="M228.282 38.8252H221.51V45.6816H228.282V38.8252Z" stroke="#092B00" stroke-width="0.835087" stroke-linecap="round" stroke-linejoin="round"/>
<path d="M230.229 20.5056H219.559V38.4329H230.229V20.5056Z" stroke="#092B00" stroke-width="0.835087" stroke-linecap="round" stroke-linejoin="round"/>
<path d="M232.452 7.88892H217.006V20.1025H232.452V7.88892Z" fill="#3399CC"/>
<path d="M232.618 7.88892H217.172V20.1025H232.618V7.88892Z" stroke="#092B00" stroke-width="0.835087" stroke-linecap="round" stroke-linejoin="round"/>
<path d="M218.891 15.486V8.16333" stroke="#092B00" stroke-width="0.835087" stroke-linecap="round" stroke-linejoin="round"/>
<path d="M218.891 20.3314V17.1775" stroke="#092B00" stroke-width="0.835087" stroke-linecap="round" stroke-linejoin="round"/>
<path d="M220.854 20.3312V8.16333" stroke="#092B00" stroke-width="0.835087" stroke-linecap="round" stroke-linejoin="round"/>
<path d="M222.821 11.2076V8.16333" stroke="#092B00" stroke-width="0.835087" stroke-linecap="round" stroke-linejoin="round"/>
<path d="M222.821 20.3308V12.6699" stroke="#092B00" stroke-width="0.835087" stroke-linecap="round" stroke-linejoin="round"/>
<path d="M226.071 20.3312V8.16333" stroke="#092B00" stroke-width="0.835087" stroke-linecap="round" stroke-linejoin="round"/>
</g>
<g style="mix-blend-mode:multiply" opacity="0.3">
<path d="M112.119 104.803L117.861 105.26L117.67 102.764C117.67 102.764 112.518 102.307 112.119 104.803Z" fill="#3399CC"/>
</g>
<mask id="mask3_102_1457" style="mask-type:luminance" maskUnits="userSpaceOnUse" x="89" y="103" width="20" height="58">
<path d="M99.5298 103.486C99.5298 103.486 90.1938 112.143 90.1938 114.456C90.1938 116.769 89.5229 159.754 89.9701 160.769C90.4174 161.784 108.019 147.769 108.019 147.769L106.238 129.193" fill="white"/>
</mask>
<g mask="url(#mask3_102_1457)">
<g style="mix-blend-mode:multiply" opacity="0.3">
<path d="M96.2989 156.664L108.023 147.769L93.0485 154.305C93.0485 154.305 91.6908 119.337 92.7131 116.622C93.7353 113.907 100.18 108.852 100.18 108.852C100.18 108.852 99.797 106.036 101.873 104.966C103.298 104.357 104.866 104.357 106.29 104.966L107.767 105.606C106.066 104.509 103.319 102.288 99.0942 97.7717H98.9983L100.021 98.8962L99.5733 103.467L95.085 107.663C94.0707 108.833 90.2373 114.41 90.2373 114.41L90.0137 160.723L96.1073 156.234L96.2989 156.664Z" fill="#3399CC"/>
</g>
</g>
<path d="M99.5337 103.486C99.5337 103.486 90.1977 112.143 90.1977 114.456C90.1977 116.769 89.5268 159.754 89.9741 160.769C90.4213 161.784 108.023 147.769 108.023 147.769L106.242 129.193" stroke="#092B00" stroke-width="0.835087" stroke-linecap="round" stroke-linejoin="round"/>
<path d="M101.316 124.614L120.212 141.919" stroke="#092B00" stroke-width="0.835087" stroke-linecap="round" stroke-linejoin="round"/>
<mask id="mask4_102_1457" style="mask-type:luminance" maskUnits="userSpaceOnUse" x="114" y="65" width="70" height="33">
<path d="M114.109 85.4751C114.109 85.4751 132.438 65.5366 134.658 65.5366C136.879 65.5366 173.56 73.9289 176.227 74.4408C178.895 74.9528 183.343 75.9675 183.343 75.9675C183.343 75.9675 175.564 87.1664 172.897 90.9785C170.23 94.7907 168.904 97.0853 168.904 97.0853L138.891 81.3155" fill="white"/>
</mask>
<g mask="url(#mask4_102_1457)">
<g style="mix-blend-mode:multiply" opacity="0.3">
<path d="M183.135 76.6806L171.754 72.6764L134.658 65.5366L125.258 77.3388C125.258 77.3388 133.404 71.5154 135.776 71.5154C138.148 71.5154 173.927 83.1622 177.305 84.2501L183.135 76.6806Z" fill="#3399CC"/>
</g>
</g>
<path d="M114.109 85.4771C114.109 85.4771 132.438 65.5386 134.658 65.5386C136.879 65.5386 173.56 73.9308 176.227 74.4428C178.895 74.9547 183.343 75.9695 183.343 75.9695C183.343 75.9695 175.564 87.1683 172.897 90.9805C170.23 94.7927 168.904 97.0873 168.904 97.0873L138.891 81.3175" stroke="#092B00" stroke-width="0.835087" stroke-linecap="round" stroke-linejoin="round"/>
<path d="M143.994 85.1665L151.557 108.067" stroke="#092B00" stroke-width="0.835087" stroke-linecap="round" stroke-linejoin="round"/>
<path d="M120.874 119.522L119.093 121.56L110.428 108.835" stroke="#092B00" stroke-width="0.835087" stroke-linecap="round" stroke-linejoin="round"/>
<path d="M135.473 86.0708L144.266 84.3064L136.79 90.3401" stroke="#092B00" stroke-width="0.417543" stroke-linecap="round" stroke-linejoin="round"/>
<path d="M106.202 129.194L95.0371 127.32" stroke="#092B00" stroke-width="0.417543" stroke-linecap="round" stroke-linejoin="round"/>
<path d="M99.9818 98.9065C99.1793 101.18 99.1002 103.704 99.7582 106.037C100.868 109.849 104.646 116.468 104.646 116.468L109.533 108.579" stroke="#092B00" stroke-width="0.835087" stroke-linecap="round" stroke-linejoin="round"/>
<path d="M111.091 105.525C111.091 105.525 113.543 102.983 115.763 102.983H119.541C119.541 102.983 118.878 93.0554 115.763 87.7074C112.649 82.3594 108.424 85.1659 108.424 85.1659" stroke="#092B00" stroke-width="0.835087" stroke-linecap="round" stroke-linejoin="round"/>
<path d="M107.089 149.296L133.771 135.044L135.991 126.14L145.104 123.872C145.104 123.872 146.885 121.834 146.661 123.872C146.438 125.911 143.994 126.67 143.107 128.708C142.221 130.747 142.213 134.815 141.103 136.598C139.993 138.381 135.991 140.419 135.991 140.419C135.991 140.419 105.979 169.171 103.758 170.697C101.538 172.224 97.0898 157.716 97.0898 157.716" fill="white"/>
<mask id="mask5_102_1457" style="mask-type:luminance" maskUnits="userSpaceOnUse" x="97" y="122" width="50" height="49">
<path d="M107.093 149.298L133.775 135.045L135.995 126.141L145.108 123.874C145.108 123.874 146.889 121.835 146.665 123.874C146.441 125.913 143.998 126.671 143.111 128.71C142.225 130.749 142.217 134.817 141.107 136.6C139.996 138.382 135.995 140.421 135.995 140.421C135.995 140.421 105.983 169.172 103.762 170.699C101.542 172.226 97.0938 157.717 97.0938 157.717" fill="white"/>
</mask>
<g mask="url(#mask5_102_1457)">
<g style="mix-blend-mode:multiply" opacity="0.3">
<path d="M96.3027 156.665C97.333 158.558 101.542 166.392 101.837 169.464C102.181 172.965 104.896 169.464 104.896 169.464L129.334 146.161C129.334 146.161 105.231 163.631 103.235 162.854C101.238 162.077 100.839 156.254 100.839 156.254L108.027 147.77L96.3027 156.665Z" fill="#3399CC"/>
</g>
</g>
<path d="M107.089 149.296L133.771 135.044L135.991 126.14L145.104 123.872C145.104 123.872 146.885 121.834 146.661 123.872C146.438 125.911 143.994 126.67 143.107 128.708C142.221 130.747 142.213 134.815 141.103 136.598C139.993 138.381 135.991 140.419 135.991 140.419C135.991 140.419 105.979 169.171 103.758 170.697C101.538 172.224 97.0898 157.716 97.0898 157.716" stroke="#092B00" stroke-width="0.835087" stroke-linecap="round" stroke-linejoin="round"/>
<path d="M145.105 123.873C145.105 123.873 140.752 126.844 141.191 127.849" stroke="#092B00" stroke-width="0.417543" stroke-linecap="round" stroke-linejoin="round"/>
<path d="M141.632 124.806L138.334 126.817" stroke="#092B00" stroke-width="0.417543" stroke-linecap="round" stroke-linejoin="round"/>
</svg>
