<svg width="73" height="16" viewBox="0 0 73 16" fill="none" xmlns="http://www.w3.org/2000/svg">
<path d="M0.191406 12.4998V1.05736H2.2802V10.6567H7.17971V12.4998H0.191406ZM12.217 12.6841C11.3979 12.6841 10.6504 12.4947 9.97461 12.1158C9.30901 11.737 8.7766 11.2199 8.3773 10.5646C7.9882 9.90921 7.79361 9.16181 7.79361 8.32221C7.79361 7.48251 7.9882 6.73511 8.3773 6.07971C8.7766 5.42443 9.30901 4.90735 9.97461 4.52849C10.6401 4.14964 11.3876 3.96021 12.217 3.96021C13.0361 3.96021 13.7785 4.14964 14.4441 4.52849C15.1096 4.90735 15.6369 5.42443 16.026 6.07971C16.4254 6.72481 16.625 7.47231 16.625 8.32221C16.625 9.16181 16.4254 9.90921 16.026 10.5646C15.6267 11.2199 15.0943 11.737 14.4287 12.1158C13.7631 12.4947 13.0259 12.6841 12.217 12.6841ZM12.217 10.841C12.6675 10.841 13.0617 10.7335 13.3996 10.5185C13.7478 10.3035 14.0191 10.0065 14.2137 9.62771C14.4185 9.23861 14.5208 8.80341 14.5208 8.32221C14.5208 7.83071 14.4185 7.40061 14.2137 7.03201C14.0191 6.65311 13.7478 6.35621 13.3996 6.14121C13.0617 5.91592 12.6675 5.80329 12.217 5.80329C11.7562 5.80329 11.3518 5.91592 11.0036 6.14121C10.6555 6.35621 10.379 6.65311 10.1743 7.03201C9.9797 7.40061 9.8824 7.83071 9.8824 8.32221C9.8824 8.80341 9.9797 9.23861 10.1743 9.62771C10.379 10.0065 10.6555 10.3035 11.0036 10.5185C11.3518 10.7335 11.7562 10.841 12.217 10.841ZM22.006 12.6841C21.1868 12.6841 20.4393 12.4947 19.7635 12.1158C19.098 11.737 18.5655 11.2199 18.1662 10.5646C17.7771 9.90921 17.5826 9.16181 17.5826 8.32221C17.5826 7.48251 17.7771 6.73511 18.1662 6.07971C18.5655 5.42443 19.098 4.90735 19.7635 4.52849C20.4291 4.14964 21.1766 3.96021 22.006 3.96021C22.8251 3.96021 23.5675 4.14964 24.233 4.52849C24.8986 4.90735 25.4259 5.42443 25.815 6.07971C26.2143 6.72481 26.414 7.47231 26.414 8.32221C26.414 9.16181 26.2143 9.90921 25.815 10.5646C25.4157 11.2199 24.8832 11.737 24.2177 12.1158C23.5521 12.4947 22.8149 12.6841 22.006 12.6841ZM22.006 10.841C22.4565 10.841 22.8507 10.7335 23.1886 10.5185C23.5367 10.3035 23.8081 10.0065 24.0026 9.62771C24.2074 9.23861 24.3098 8.80341 24.3098 8.32221C24.3098 7.83071 24.2074 7.40061 24.0026 7.03201C23.8081 6.65311 23.5367 6.35621 23.1886 6.14121C22.8507 5.91592 22.4565 5.80329 22.006 5.80329C21.5452 5.80329 21.1407 5.91592 20.7926 6.14121C20.4445 6.35621 20.168 6.65311 19.9632 7.03201C19.7687 7.40061 19.6714 7.83071 19.6714 8.32221C19.6714 8.80341 19.7687 9.23861 19.9632 9.62771C20.168 10.0065 20.4445 10.3035 20.7926 10.5185C21.1407 10.7335 21.5452 10.841 22.006 10.841ZM27.7094 12.4998V0.873047H29.7215V8.49111L28.9535 8.26071L32.8854 4.14452H35.3889L32.3018 7.50811L35.4504 12.4998H33.1465L30.4126 8.16861L31.6106 7.92281L29.0917 10.626L29.7215 9.39731V12.4998H27.7094Z" fill="white"/>
<path d="M37.3104 12.4998V5.94152H35.8359V4.14452H37.3104V3.86805C37.3104 3.23322 37.4384 2.69565 37.6944 2.25536C37.9606 1.80483 38.3292 1.46181 38.8002 1.22631C39.2712 0.990797 39.8293 0.873047 40.4743 0.873047C40.5972 0.873047 40.7303 0.883287 40.8737 0.903767C41.0273 0.914007 41.1552 0.929367 41.2576 0.949847V2.68541C41.1552 2.66493 41.058 2.65469 40.9658 2.65469C40.8839 2.64445 40.8071 2.63934 40.7354 2.63934C40.2849 2.63934 39.9368 2.74173 39.691 2.94651C39.4453 3.14106 39.3224 3.44824 39.3224 3.86805V4.14452H42.9778V5.94152H39.3224V12.4998H37.3104ZM42.2253 12.4998V4.14452H44.2526V12.4998H42.2253ZM45.6967 12.4998V4.14452H47.5859V5.78793L47.4323 5.49611C47.6269 4.99438 47.9443 4.61553 48.3846 4.35954C48.8351 4.09332 49.3573 3.96021 49.9512 3.96021C50.5655 3.96021 51.1082 4.09332 51.5792 4.35954C52.0605 4.62577 52.4342 4.9995 52.7004 5.48075C52.9667 5.95176 53.0998 6.49961 53.0998 7.12421V12.4998H51.0878V7.60031C51.0878 7.23171 51.0161 6.91421 50.8727 6.64801C50.7294 6.38181 50.5297 6.17701 50.2737 6.03371C50.028 5.88008 49.7362 5.80329 49.3983 5.80329C49.0706 5.80329 48.7788 5.88008 48.5228 6.03371C48.2668 6.17701 48.0672 6.38181 47.9238 6.64801C47.7805 6.91421 47.7088 7.23171 47.7088 7.60031V12.4998H45.6967ZM54.5708 12.4998V4.14452H56.5828V12.4998H54.5708ZM54.5708 3.20762V1.05736H56.5828V3.20762H54.5708ZM62.0192 12.592C61.0771 12.592 60.345 12.336 59.8228 11.824C59.3109 11.3018 59.0549 10.5697 59.0549 9.62771V5.94152H57.6111V4.14452H57.7647C58.1743 4.14452 58.4917 4.037 58.717 3.82198C58.9422 3.60695 59.0549 3.29465 59.0549 2.88508V2.24H61.0669V4.14452H62.9868V5.94152H61.0669V9.52021C61.0669 9.79661 61.113 10.0321 61.2051 10.2267C61.3075 10.4212 61.4611 10.5697 61.6659 10.6721C61.8809 10.7745 62.1523 10.8257 62.4799 10.8257C62.5516 10.8257 62.6335 10.8205 62.7257 10.8103C62.8281 10.8001 62.9253 10.7898 63.0175 10.7796V12.4998C62.8741 12.5203 62.7103 12.5408 62.526 12.5612C62.3417 12.5817 62.1727 12.592 62.0192 12.592ZM65.338 15.8788C65.1128 15.8788 64.8926 15.8583 64.6776 15.8173C64.4626 15.7866 64.268 15.7252 64.0939 15.633V13.9589C64.2271 13.9896 64.3858 14.0203 64.5701 14.0511C64.7646 14.0818 64.9438 14.0971 65.1076 14.0971C65.5684 14.0971 65.9012 13.9896 66.106 13.7746C66.321 13.5698 66.5104 13.2933 66.6743 12.9452L67.2272 11.6551L67.1965 13.3445L63.5564 4.14452H65.722L68.2716 10.9332H67.5036L70.0379 4.14452H72.2189L68.5788 13.3445C68.3637 13.877 68.1026 14.3326 67.7955 14.7115C67.4883 15.0904 67.1299 15.3771 66.7203 15.5716C66.321 15.7764 65.8602 15.8788 65.338 15.8788Z" fill="#10B346"/>
<path d="M42.2734 1.08789V3.23815H44.2854V1.08789H42.2734Z" fill="#10B346"/>
</svg>
