<svg width="100" height="16" viewBox="0 0 100 16" fill="none" xmlns="http://www.w3.org/2000/svg">
<path d="M16.8235 1.22363C14.8935 1.22363 13.0779 2.11242 11.5669 3.78842C11.4146 3.96618 11.2622 4.14394 11.1098 4.32169C11.0337 4.22012 10.9575 4.13124 10.8813 4.04236C10.8432 3.99157 10.8051 3.95348 10.767 3.90269C10.7289 3.8519 10.6908 3.81381 10.6528 3.76303C10.6147 3.72493 10.5766 3.67415 10.5385 3.63606C10.5004 3.59797 10.4623 3.54718 10.4115 3.50909C10.3734 3.471 10.3353 3.42021 10.2845 3.38212C10.2718 3.36942 10.2718 3.36942 10.2718 3.35672C10.2591 3.34403 10.2591 3.34403 10.2465 3.33133C9.89094 2.97581 9.51003 2.65839 9.11642 2.39175C7.9737 1.60454 6.72939 1.21094 5.40891 1.21094C2.42512 1.21094 0 3.71224 0 6.78494C0 7.35624 0.088878 7.91494 0.241242 8.43554C0.380908 8.87994 0.571363 9.31164 0.812605 9.70524C1.76488 11.2923 3.46627 12.3461 5.40891 12.3461C7.33885 12.3461 9.15451 11.4573 10.6655 9.78134C10.8178 9.60364 10.9702 9.42584 11.1225 9.24814C11.4146 9.62904 11.732 9.98454 12.0621 10.2892C12.4049 10.6193 12.7605 10.9114 13.1287 11.1653C14.2714 11.9525 15.5157 12.3461 16.8362 12.3461C19.82 12.3461 22.2451 9.84484 22.2451 6.77224C22.2324 3.71224 19.8073 1.22363 16.8235 1.22363ZM5.72633 9.70524C5.67554 9.70524 5.62476 9.71794 5.57397 9.71794C5.52318 9.71794 5.47239 9.71794 5.4216 9.71794C5.37082 9.71794 5.32003 9.71794 5.28194 9.71794C4.39315 9.66714 3.61864 9.18464 3.14885 8.44824C2.84412 7.97844 2.66636 7.40704 2.66636 6.79764C2.66636 5.18509 3.91067 3.8646 5.4343 3.8646C6.04376 3.8646 7.41503 4.05506 8.74821 5.566C8.76091 5.57869 8.76091 5.57869 8.7736 5.59139C8.799 5.62948 8.83709 5.65487 8.86248 5.69297C8.88788 5.73106 8.92597 5.76915 8.96406 5.80724C8.98945 5.83264 9.01485 5.87074 9.04024 5.89614C9.14182 6.02304 9.24339 6.16274 9.34497 6.31514C9.39576 6.39134 9.44654 6.46744 9.49733 6.54364C9.52273 6.58174 9.53542 6.60714 9.56082 6.64524C9.58621 6.68334 9.6116 6.73414 9.637 6.78494C8.21494 9.12114 6.60242 9.61634 5.72633 9.70524ZM16.8235 9.71794C16.214 9.71794 14.8174 9.51474 13.4588 7.95304C13.3572 7.82604 13.2429 7.69904 13.1414 7.55944C13.1033 7.50864 13.0779 7.47054 13.0398 7.41974C13.0144 7.39434 12.989 7.35624 12.9763 7.31814C12.9636 7.29274 12.9509 7.28004 12.9382 7.25474C12.8366 7.10234 12.7351 6.94994 12.6335 6.78494C14.2206 4.14393 16.0871 3.8519 16.8362 3.8519C18.3598 3.8519 19.6041 5.17239 19.6041 6.78494C19.6041 8.39744 18.3471 9.71794 16.8235 9.71794Z" fill="#10B346"/>
<path d="M12.6233 6.78516C12.8899 7.24226 13.1692 7.62316 13.4613 7.94056C13.1819 8.44846 12.5725 9.52766 12.0646 10.2895C11.7345 9.97206 11.4297 9.62926 11.125 9.24836C11.6964 8.44846 12.1789 7.59776 12.217 7.53426C12.2804 7.39456 12.6233 6.78516 12.6233 6.78516Z" fill="url(#paint0_linear_11860_34576)"/>
<path d="M9.62315 6.78656C9.33112 6.30406 9.0391 5.89776 8.73438 5.56767C9.11529 5.009 9.76283 4.03134 10.2453 3.3457C10.55 3.63773 10.842 3.96785 11.1214 4.32337C10.55 5.12328 10.0294 6.03746 10.004 6.10096C9.99137 6.11366 9.62315 6.78656 9.62315 6.78656Z" fill="url(#paint1_linear_11860_34576)"/>
<path d="M27.1914 12.4998V1.05736H29.2802V10.6567H34.1797V12.4998H27.1914ZM39.217 12.6841C38.3979 12.6841 37.6504 12.4947 36.9746 12.1158C36.309 11.737 35.7766 11.2199 35.3773 10.5646C34.9882 9.90921 34.7936 9.16181 34.7936 8.32221C34.7936 7.48251 34.9882 6.73511 35.3773 6.07971C35.7766 5.42443 36.309 4.90735 36.9746 4.52849C37.6401 4.14964 38.3876 3.96021 39.217 3.96021C40.0361 3.96021 40.7785 4.14964 41.4441 4.52849C42.1096 4.90735 42.6369 5.42443 43.026 6.07971C43.4254 6.72481 43.625 7.47231 43.625 8.32221C43.625 9.16181 43.4254 9.90921 43.026 10.5646C42.6267 11.2199 42.0943 11.737 41.4287 12.1158C40.7631 12.4947 40.0259 12.6841 39.217 12.6841ZM39.217 10.841C39.6675 10.841 40.0617 10.7335 40.3996 10.5185C40.7478 10.3035 41.0191 10.0065 41.2137 9.62771C41.4185 9.23861 41.5208 8.80341 41.5208 8.32221C41.5208 7.83071 41.4185 7.40061 41.2137 7.03201C41.0191 6.65311 40.7478 6.35621 40.3996 6.14121C40.0617 5.91592 39.6675 5.80329 39.217 5.80329C38.7562 5.80329 38.3518 5.91592 38.0036 6.14121C37.6555 6.35621 37.379 6.65311 37.1743 7.03201C36.9797 7.40061 36.8824 7.83071 36.8824 8.32221C36.8824 8.80341 36.9797 9.23861 37.1743 9.62771C37.379 10.0065 37.6555 10.3035 38.0036 10.5185C38.3518 10.7335 38.7562 10.841 39.217 10.841ZM49.006 12.6841C48.1868 12.6841 47.4393 12.4947 46.7635 12.1158C46.098 11.737 45.5655 11.2199 45.1662 10.5646C44.7771 9.90921 44.5826 9.16181 44.5826 8.32221C44.5826 7.48251 44.7771 6.73511 45.1662 6.07971C45.5655 5.42443 46.098 4.90735 46.7635 4.52849C47.4291 4.14964 48.1766 3.96021 49.006 3.96021C49.8251 3.96021 50.5675 4.14964 51.233 4.52849C51.8986 4.90735 52.4259 5.42443 52.815 6.07971C53.2143 6.72481 53.414 7.47231 53.414 8.32221C53.414 9.16181 53.2143 9.90921 52.815 10.5646C52.4157 11.2199 51.8832 11.737 51.2177 12.1158C50.5521 12.4947 49.8149 12.6841 49.006 12.6841ZM49.006 10.841C49.4565 10.841 49.8507 10.7335 50.1886 10.5185C50.5367 10.3035 50.8081 10.0065 51.0026 9.62771C51.2074 9.23861 51.3098 8.80341 51.3098 8.32221C51.3098 7.83071 51.2074 7.40061 51.0026 7.03201C50.8081 6.65311 50.5367 6.35621 50.1886 6.14121C49.8507 5.91592 49.4565 5.80329 49.006 5.80329C48.5452 5.80329 48.1407 5.91592 47.7926 6.14121C47.4445 6.35621 47.168 6.65311 46.9632 7.03201C46.7687 7.40061 46.6714 7.83071 46.6714 8.32221C46.6714 8.80341 46.7687 9.23861 46.9632 9.62771C47.168 10.0065 47.4445 10.3035 47.7926 10.5185C48.1407 10.7335 48.5452 10.841 49.006 10.841ZM54.7094 12.4998V0.873047H56.7215V8.49111L55.9535 8.26071L59.8854 4.14452H62.3889L59.3018 7.50811L62.4504 12.4998H60.1465L57.4126 8.16861L58.6106 7.92281L56.0917 10.626L56.7215 9.39731V12.4998H54.7094Z" fill="white"/>
<path d="M64.3104 12.4998V5.94152H62.8359V4.14452H64.3104V3.86805C64.3104 3.23322 64.4384 2.69565 64.6944 2.25536C64.9606 1.80483 65.3292 1.46181 65.8002 1.22631C66.2712 0.990797 66.8293 0.873047 67.4743 0.873047C67.5972 0.873047 67.7303 0.883287 67.8737 0.903767C68.0273 0.914007 68.1552 0.929367 68.2576 0.949847V2.68541C68.1552 2.66493 68.058 2.65469 67.9658 2.65469C67.8839 2.64445 67.8071 2.63934 67.7354 2.63934C67.2849 2.63934 66.9368 2.74173 66.691 2.94651C66.4453 3.14106 66.3224 3.44824 66.3224 3.86805V4.14452H69.9778V5.94152H66.3224V12.4998H64.3104ZM69.2253 12.4998V4.14452H71.2526V12.4998H69.2253ZM72.6967 12.4998V4.14452H74.5859V5.78793L74.4323 5.49611C74.6269 4.99438 74.9443 4.61553 75.3846 4.35954C75.8351 4.09332 76.3573 3.96021 76.9512 3.96021C77.5655 3.96021 78.1082 4.09332 78.5792 4.35954C79.0605 4.62577 79.4342 4.9995 79.7004 5.48075C79.9667 5.95176 80.0998 6.49961 80.0998 7.12421V12.4998H78.0878V7.60031C78.0878 7.23171 78.0161 6.91421 77.8727 6.64801C77.7294 6.38181 77.5297 6.17701 77.2737 6.03371C77.028 5.88008 76.7362 5.80329 76.3983 5.80329C76.0706 5.80329 75.7788 5.88008 75.5228 6.03371C75.2668 6.17701 75.0672 6.38181 74.9238 6.64801C74.7805 6.91421 74.7088 7.23171 74.7088 7.60031V12.4998H72.6967ZM81.5708 12.4998V4.14452H83.5828V12.4998H81.5708ZM81.5708 3.20762V1.05736H83.5828V3.20762H81.5708ZM89.0192 12.592C88.0771 12.592 87.345 12.336 86.8228 11.824C86.3109 11.3018 86.0549 10.5697 86.0549 9.62771V5.94152H84.6111V4.14452H84.7647C85.1743 4.14452 85.4917 4.037 85.717 3.82198C85.9422 3.60695 86.0549 3.29465 86.0549 2.88508V2.24H88.0669V4.14452H89.9868V5.94152H88.0669V9.52021C88.0669 9.79661 88.113 10.0321 88.2051 10.2267C88.3075 10.4212 88.4611 10.5697 88.6659 10.6721C88.8809 10.7745 89.1523 10.8257 89.4799 10.8257C89.5516 10.8257 89.6335 10.8205 89.7257 10.8103C89.8281 10.8001 89.9253 10.7898 90.0175 10.7796V12.4998C89.8741 12.5203 89.7103 12.5408 89.526 12.5612C89.3417 12.5817 89.1727 12.592 89.0192 12.592ZM92.338 15.8788C92.1128 15.8788 91.8926 15.8583 91.6776 15.8173C91.4626 15.7866 91.268 15.7252 91.0939 15.633V13.9589C91.2271 13.9896 91.3858 14.0203 91.5701 14.0511C91.7646 14.0818 91.9438 14.0971 92.1076 14.0971C92.5684 14.0971 92.9012 13.9896 93.106 13.7746C93.321 13.5698 93.5104 13.2933 93.6743 12.9452L94.2272 11.6551L94.1965 13.3445L90.5564 4.14452H92.722L95.2716 10.9332H94.5036L97.0379 4.14452H99.2189L95.5788 13.3445C95.3637 13.877 95.1026 14.3326 94.7955 14.7115C94.4883 15.0904 94.1299 15.3771 93.7203 15.5716C93.321 15.7764 92.8602 15.8788 92.338 15.8788Z" fill="#10B346"/>
<path d="M69.2734 1.08789V3.23815H71.2854V1.08789H69.2734Z" fill="#10B346"/>
<defs>
<linearGradient id="paint0_linear_11860_34576" x1="13.3318" y1="9.39006" x2="11.8189" y2="8.09336" gradientUnits="userSpaceOnUse">
<stop offset="0.3325" stop-color="#10B346"/>
<stop offset="1" stop-color="#0DA43F"/>
</linearGradient>
<linearGradient id="paint1_linear_11860_34576" x1="10.9891" y1="5.90345" x2="9.49569" y2="4.57153" gradientUnits="userSpaceOnUse">
<stop stop-color="#0DA43F"/>
<stop offset="0.6675" stop-color="#10B346"/>
</linearGradient>
</defs>
</svg>
