<svg width="100" height="22" viewBox="0 0 100 22" fill="none" xmlns="http://www.w3.org/2000/svg">
<path d="M0 0.280762H3.01609V13.4203H13.7239L16.8909 13.7236L16.77 16.3247H0V0.280762Z" fill="#10B346"/>
<path d="M36.7798 0.280762H39.7121V8.99391H39.8517L43.5101 5.3355H47.1266V5.51703L43.0633 9.46866L47.4618 16.1013V16.2828H43.9988L41.0107 11.4794L39.7121 12.7501V16.2828H36.7798V0.280762Z" fill="#10B346"/>
<path d="M52.7932 16.2813H49.8609V7.83345H47.8921V5.33401H49.8609V4.25883C49.8609 3.58859 49.9587 3.00212 50.1681 2.48548C50.3636 1.96884 50.6568 1.53597 51.0338 1.18689C51.4109 0.837802 51.8437 0.572498 52.3464 0.377011C52.8491 0.195487 53.4076 0.0977436 54.022 0.0977436C54.3152 0.0977436 54.5526 0.111707 54.7341 0.139634C54.9157 0.16756 55.0832 0.209451 55.2508 0.279267L55.0693 3.03005C54.9715 2.98816 54.8458 2.94627 54.7062 2.91834C54.5666 2.89042 54.399 2.87645 54.1896 2.87645C53.7567 2.87645 53.4216 3.01609 53.1563 3.29536C52.9049 3.57462 52.7793 3.95163 52.7793 4.44035V5.33401H59.8587V16.2813H56.9264V7.83345H52.7932V16.2813ZM58.3786 3.74218C58.1272 3.74218 57.8899 3.70029 57.6525 3.60255C57.4151 3.50481 57.2196 3.36517 57.0521 3.19761C56.8845 3.03005 56.7449 2.83456 56.6471 2.61115C56.5494 2.38774 56.5075 2.1364 56.5075 1.87109C56.5075 1.60579 56.5494 1.35445 56.6471 1.13103C56.7449 0.907619 56.8845 0.712132 57.0521 0.544571C57.2196 0.377011 57.4291 0.237377 57.6525 0.139634C57.8899 0.0418901 58.1272 0 58.3786 0C58.8952 0 59.3421 0.181524 59.7191 0.544571C60.0961 0.907619 60.2776 1.35445 60.2776 1.87109C60.2776 2.38774 60.0961 2.83456 59.7191 3.19761C59.3421 3.56066 58.8952 3.74218 58.3786 3.74218Z" fill="#10B346"/>
<path d="M64.8563 6.75753H65.0379C65.387 6.21295 65.8477 5.76613 66.4202 5.44497C67.0067 5.12381 67.663 4.97021 68.403 4.97021C69.0872 4.97021 69.6877 5.08192 70.2183 5.30534C70.7349 5.52875 71.1678 5.84991 71.5029 6.25484C71.838 6.65978 72.0894 7.16246 72.2569 7.73496C72.4245 8.30746 72.5083 8.94977 72.5083 9.64794V16.2805H69.576V9.99703C69.576 9.20111 69.3944 8.62862 69.0454 8.23764C68.6963 7.86063 68.1796 7.66514 67.5094 7.66514C67.1044 7.66514 66.7554 7.74892 66.4482 7.91648C66.141 8.08405 65.8757 8.32142 65.6662 8.61465C65.4568 8.90788 65.2892 9.243 65.1775 9.64794C65.0658 10.0389 65.0099 10.4578 65.0099 10.9046V16.2666H62.0776V5.33326H64.8284V6.75753H64.8563Z" fill="#10B346"/>
<path d="M76.1553 3.85302C75.9039 3.85302 75.6666 3.81113 75.4292 3.71339C75.1918 3.61565 74.9963 3.47601 74.8288 3.30845C74.6612 3.14089 74.5216 2.9454 74.4238 2.72199C74.3261 2.49858 74.2842 2.24724 74.2842 1.98193C74.2842 1.71663 74.3261 1.46529 74.4238 1.24187C74.5216 1.01846 74.6612 0.822972 74.8288 0.655411C74.9963 0.487851 75.2058 0.348217 75.4292 0.250474C75.6666 0.15273 75.9039 0.11084 76.1553 0.11084C76.6719 0.11084 77.1187 0.292364 77.4958 0.655411C77.8728 1.01846 78.0543 1.46529 78.0543 1.98193C78.0543 2.49858 77.8728 2.9454 77.4958 3.30845C77.1187 3.6715 76.6719 3.85302 76.1553 3.85302ZM74.7031 16.2804V5.33314H77.6354V16.2804H74.7031Z" fill="#10B346"/>
<path d="M81.1291 7.8321H79.2021V5.33265H81.1291V1.98145H84.0614V5.33265H86.7424V7.8321H84.0614V12.2026C84.0614 12.4679 84.0893 12.7053 84.1452 12.9287C84.201 13.1521 84.2988 13.3337 84.4524 13.4873C84.6618 13.7386 84.9551 13.8503 85.346 13.8503C85.5974 13.8503 85.8068 13.8224 85.9465 13.7665C86.1001 13.7107 86.2397 13.6409 86.3654 13.5571L87.1892 16.1263C86.8401 16.2939 86.4771 16.4196 86.0861 16.4894C85.6951 16.5732 85.2623 16.6151 84.7735 16.6151C84.229 16.6151 83.7263 16.5313 83.2934 16.3498C82.8605 16.1682 82.4835 15.9309 82.1903 15.6376C81.4921 14.9534 81.1431 13.976 81.1431 12.7193V7.8321H81.1291Z" fill="#10B346"/>
<path d="M92.418 15.7375L87.8101 5.3208H91.1333L93.926 11.9674H94.0796L96.7326 5.33476H100L93.1441 21.1134H89.9883L92.418 15.7375Z" fill="#10B346"/>
<path d="M29.0726 4.2322C26.9462 4.2322 24.9489 5.20538 23.2908 7.0468C23.1236 7.23762 22.9563 7.43321 22.7939 7.63834C22.7126 7.53339 22.6266 7.42844 22.5406 7.32349C22.4976 7.27101 22.4546 7.22331 22.4116 7.17083C22.3686 7.11836 22.3256 7.07065 22.2778 7.02295C22.2348 6.97524 22.1918 6.92754 22.144 6.87983C22.101 6.83213 22.0532 6.78442 22.0102 6.73672C21.9672 6.68901 21.9194 6.64608 21.8764 6.59837C21.8717 6.58883 21.8621 6.58406 21.8573 6.57929C21.8526 6.57452 21.843 6.56498 21.8334 6.56021C21.4368 6.16902 21.0211 5.82555 20.5911 5.52501C19.3296 4.66154 17.9582 4.22266 16.5104 4.22266C13.2277 4.2322 10.5566 6.98001 10.5566 10.3575C10.5566 10.992 10.6522 11.6026 10.8242 12.1799C10.9771 12.676 11.1826 13.1435 11.4454 13.5776C12.4966 15.3189 14.3697 16.4829 16.5056 16.4829C18.632 16.4829 20.6293 15.5097 22.2874 13.6635C22.4546 13.4727 22.6219 13.2771 22.7843 13.072C23.1092 13.4918 23.4581 13.8734 23.8164 14.2216C24.1891 14.5794 24.581 14.9038 24.9871 15.1805C26.2438 16.044 27.62 16.4829 29.0678 16.4829C32.3505 16.4829 35.0168 13.7351 35.0168 10.3623C35.0216 6.98001 32.3553 4.2322 29.0726 4.2322ZM16.8497 13.5585C16.7875 13.5633 16.7302 13.5681 16.6776 13.5729C16.6155 13.5776 16.5582 13.5776 16.5104 13.5776C16.4578 13.5776 16.4053 13.5776 16.3527 13.5729C15.3779 13.5204 14.5226 12.9813 14.0018 12.1751C13.6625 11.6551 13.4666 11.0302 13.4666 10.3528C13.4666 8.57813 14.8332 7.13267 16.5104 7.13267C17.1841 7.13267 18.6893 7.34257 20.1658 9.00271C20.1754 9.01225 20.1849 9.02179 20.1945 9.0361C20.2279 9.07427 20.2566 9.10766 20.29 9.14582C20.3235 9.18876 20.3617 9.23169 20.3952 9.27463C20.4238 9.30802 20.4477 9.34141 20.4764 9.37481C20.5911 9.51792 20.701 9.67058 20.8157 9.83755C20.873 9.91865 20.9256 9.99974 20.9829 10.0856C21.0068 10.1238 21.0307 10.1619 21.0546 10.2001C21.0832 10.2478 21.1167 10.2955 21.1454 10.348C19.5972 12.9145 17.8101 13.4679 16.8497 13.5585ZM29.0726 13.5776C28.394 13.5776 26.865 13.3582 25.3646 11.6313C25.2499 11.4977 25.1305 11.3546 25.0158 11.2019C24.9776 11.1494 24.9393 11.1017 24.9011 11.0493C24.8772 11.0159 24.8485 10.9777 24.8247 10.9443C24.8103 10.9205 24.796 10.8966 24.7769 10.8727C24.667 10.7105 24.5523 10.5388 24.4472 10.3575C26.196 7.45706 28.2555 7.13744 29.0773 7.13744C30.7545 7.13744 32.1211 8.5829 32.1211 10.3575C32.1211 12.1322 30.7498 13.5776 29.0726 13.5776Z" fill="#10B346"/>
<path d="M18.963 11.2396C18.6142 12.1126 17.7588 12.728 16.7602 12.728C15.4509 12.728 14.3901 11.6689 14.3901 10.3618C14.3901 9.05466 15.4509 7.99561 16.7602 7.99561C16.9656 7.99561 17.1711 8.02423 17.3622 8.07193C16.9943 8.41064 16.7602 8.89246 16.7602 9.43153C16.7602 10.4524 17.5868 11.2777 18.6094 11.2777C18.7288 11.2729 18.8483 11.2586 18.963 11.2396Z" fill="#10B346"/>
<path d="M31.108 11.2396C30.7592 12.1126 29.9039 12.728 28.9052 12.728C27.5959 12.728 26.5352 11.6689 26.5352 10.3618C26.5352 9.05466 27.5959 7.99561 28.9052 7.99561C29.1107 7.99561 29.3161 8.02423 29.5073 8.07193C29.1393 8.41064 28.9052 8.89246 28.9052 9.43153C28.9052 10.4524 29.7318 11.2777 30.7544 11.2777C30.8786 11.2729 30.9933 11.2586 31.108 11.2396Z" fill="#10B346"/>
</svg>
