<svg width="576" height="461" viewBox="0 0 576 461" fill="none" xmlns="http://www.w3.org/2000/svg">
<g opacity="0.2">
<path d="M137.409 141.44C130.559 138.219 119.23 143.456 115.618 151.121C108.723 165.751 131.024 186.94 139.134 184.666C148.196 182.124 149.985 147.354 137.409 141.44Z" stroke="white" stroke-width="3" stroke-miterlimit="10" stroke-linecap="round" stroke-dasharray="20.91 20.91 20.91 20.91 20.91 20.91"/>
<path d="M103.147 174.579C100.702 173.165 74.8072 158.185 60.1524 170.04C49.8626 178.364 49.7642 196.157 57.4968 206.157C72.8118 225.962 120.302 217.083 125.23 202.911C128.548 193.367 112.969 180.26 103.147 174.579Z" stroke="white" stroke-width="3" stroke-miterlimit="10" stroke-linecap="round" stroke-dasharray="20.91 20.91 20.91 20.91 20.91 20.91"/>
<path d="M209.213 103.426C219.21 88.0174 236.912 76.4674 267.851 77.5732C305.354 78.9157 339.892 97.9724 360.771 128.472C371.064 143.505 384.466 160.315 398.678 170.726C405.785 175.932 413.128 179.562 420.412 180.545C427.716 181.53 434.929 179.848 441.732 174.487C447.795 169.708 455.806 167.943 463.276 170.04C468.008 171.367 472.887 174.074 476.666 179.289C480.448 184.508 483.16 192.283 483.471 203.799C484.092 226.845 475.093 264.739 446.078 326.691C446.06 326.715 446.035 326.75 446.002 326.795C445.932 326.889 445.828 327.029 445.693 327.212C445.423 327.578 445.028 328.12 444.524 328.821C443.518 330.225 442.081 332.269 440.357 334.834C436.91 339.964 432.312 347.182 427.714 355.533C419.485 370.483 413.213 390.567 411.738 407.454C407.967 407.278 403.845 407.112 399.404 406.955C371.984 405.984 332.404 405.376 288.397 405.376C238.369 405.376 194.061 406.163 166.837 407.374C165.988 407.412 165.154 407.451 164.338 407.489C147.322 386.447 121.898 357.776 108.491 330.587C101.768 316.952 98.1088 303.769 99.9932 292.158C101.87 280.597 109.26 270.493 124.864 263.016C124.869 263.014 124.874 263.013 124.88 263.012C124.916 263 124.97 262.984 125.041 262.962C125.182 262.917 125.392 262.85 125.664 262.76C126.208 262.58 127.005 262.309 128.019 261.943C130.045 261.213 132.937 260.105 136.406 258.594C147.377 253.813 164.158 244.979 177.577 231.255C191.005 217.521 201.084 198.866 198.563 174.482L198.562 174.462L198.558 174.441L198.557 174.44C198.556 174.44 198.557 174.438 198.557 174.436C198.556 174.432 198.554 174.425 198.553 174.417C198.55 174.4 198.545 174.375 198.539 174.341C198.527 174.273 198.508 174.171 198.485 174.037C198.439 173.768 198.373 173.369 198.294 172.851C198.135 171.814 197.923 170.299 197.711 168.393C197.286 164.579 196.861 159.198 196.861 152.938C196.861 138.282 199.188 118.876 209.213 103.426Z" fill="#535B53" stroke="white"/>
</g>
<path opacity="0.15" d="M546.926 450.946C546.926 453.423 431.001 455.432 288 455.432C207.313 455.432 135.248 454.793 87.7606 453.79C76.8229 453.559 67.1907 453.309 59.0574 453.043C53.7001 452.868 48.9931 452.685 44.9917 452.497C34.6966 452.015 29.0737 451.492 29.0737 450.946C29.0737 450.251 38.2 449.592 54.4887 449.006C61.1594 448.764 69.0305 448.536 77.9682 448.323C124.996 447.194 201.551 446.46 288 446.46C364.042 446.46 432.429 447.027 479.8 447.932C521.51 448.729 546.926 449.786 546.926 450.946Z" fill="#040C2B"/>
<path d="M479.721 224.484L462.759 256.27C462.116 257.474 460.619 257.929 459.415 257.287L431.308 242.288C430.104 241.645 429.649 240.148 430.291 238.944L450.375 201.308C451.018 200.104 452.515 199.649 453.719 200.291L475.83 212.091L475.899 212.312L479.721 224.484Z" fill="white" fill-opacity="0.13"/>
<path opacity="0.1" d="M479.721 224.484L473.465 221.146C472.485 220.623 472.115 219.404 472.638 218.424L475.899 212.312L479.721 224.484Z" fill="black"/>
<path d="M452.242 230.692L452.774 229.694C453.235 228.83 453.82 228.178 454.529 227.736C455.239 227.295 456.275 226.976 457.639 226.779C458.944 226.609 459.859 226.393 460.386 226.131C460.912 225.869 461.315 225.477 461.593 224.955C461.905 224.371 461.927 223.811 461.659 223.274C461.39 222.739 460.869 222.264 460.096 221.851C458.747 221.131 456.974 220.752 454.777 220.711L454.883 216.973C457.488 216.919 459.915 217.492 462.163 218.691C464.016 219.68 465.251 220.911 465.868 222.384C466.486 223.857 466.399 225.336 465.607 226.82C465.079 227.809 464.398 228.543 463.565 229.023C462.731 229.502 461.445 229.856 459.706 230.083C458.502 230.261 457.697 230.455 457.29 230.665C456.883 230.876 456.536 231.251 456.248 231.79L455.816 232.599L452.242 230.692ZM449.348 235.075C449.751 234.319 450.258 233.857 450.869 233.686C451.48 233.515 452.172 233.636 452.946 234.049C453.692 234.447 454.164 234.953 454.362 235.567C454.56 236.181 454.463 236.857 454.069 237.594C453.69 238.305 453.184 238.754 452.553 238.942C451.921 239.131 451.236 239.028 450.499 238.635C449.743 238.232 449.265 237.719 449.065 237.099C448.865 236.478 448.959 235.803 449.348 235.075Z" fill="#CDD7FB" fill-opacity="0.3"/>
<path d="M140.238 290.325L120.188 321.091C119.428 322.257 117.868 322.586 116.702 321.826L89.4962 304.096C88.3309 303.336 88.0018 301.776 88.7613 300.61L112.503 264.181C113.262 263.016 114.823 262.687 115.988 263.446L137.39 277.394L137.441 277.625L140.238 290.325Z" fill="#313131"/>
<path opacity="0.1" d="M140.238 290.325L134.183 286.379C133.235 285.76 132.967 284.49 133.585 283.541L137.441 277.625L140.238 290.325Z" fill="black"/>
<path d="M118.462 304.688L114.835 302.324L115.044 294.387L107.867 297.783L104.464 295.566L114.47 291.078L114.546 280.791L118.05 283.075L117.765 290.569L124.445 287.243L127.867 289.473L118.322 293.837L118.462 304.688Z" fill="#CDD7FB" fill-opacity="0.3"/>
<path d="M296.27 117.686L311.063 151.299C311.623 152.572 311.045 154.058 309.772 154.619L280.05 167.7C278.776 168.26 277.29 167.682 276.73 166.409L259.214 126.61C258.654 125.337 259.232 123.851 260.505 123.29L283.886 113L284.107 113.084L296.27 117.686Z" fill="white" fill-opacity="0.13"/>
<path opacity="0.1" d="M296.27 117.687L289.655 120.598C288.618 121.054 287.408 120.584 286.952 119.547L284.107 113.083L296.27 117.687Z" fill="black"/>
<path d="M294.624 147.34L292.108 148.447L288.428 146.641L287.274 150.575L284.914 151.613L286.64 146.183L281.796 143.93L284.227 142.86L287.667 144.604L288.663 140.908L291.037 139.863L289.43 145.061L294.624 147.34Z" fill="#CDD7FB" fill-opacity="0.3"/>
<path d="M292.408 124.382L269.434 134.493C269.159 134.614 268.839 134.489 268.718 134.215C268.597 133.94 268.722 133.62 268.996 133.499L291.971 123.387C292.245 123.267 292.566 123.391 292.687 123.666C292.807 123.94 292.683 124.261 292.408 124.382Z" fill="#CDD7FB" fill-opacity="0.3"/>
<path d="M293.541 126.864L270.567 136.975C270.292 137.096 269.971 136.971 269.851 136.696C269.73 136.422 269.855 136.101 270.129 135.98L293.104 125.869C293.378 125.748 293.699 125.873 293.82 126.147C293.94 126.422 293.816 126.743 293.541 126.864Z" fill="#CDD7FB" fill-opacity="0.3"/>
<path d="M294.674 129.345L271.7 139.456C271.425 139.577 271.105 139.453 270.984 139.178C270.863 138.903 270.988 138.583 271.262 138.462L294.237 128.351C294.511 128.23 294.832 128.355 294.953 128.629C295.073 128.904 294.949 129.224 294.674 129.345Z" fill="#CDD7FB" fill-opacity="0.3"/>
<path d="M295.807 131.827L272.833 141.938C272.558 142.059 272.238 141.934 272.117 141.66C271.996 141.385 272.121 141.064 272.395 140.944L295.37 130.832C295.644 130.711 295.965 130.836 296.086 131.111C296.206 131.385 296.082 131.706 295.807 131.827Z" fill="#CDD7FB" fill-opacity="0.3"/>
<path d="M296.753 134.401L273.779 144.513C273.504 144.633 273.184 144.509 273.063 144.234C272.942 143.96 273.067 143.639 273.341 143.518L296.316 133.407C296.59 133.286 296.911 133.411 297.032 133.685C297.152 133.96 297.028 134.281 296.753 134.401Z" fill="#CDD7FB" fill-opacity="0.3"/>
<path d="M454.055 199.01H121.945V440H454.055V199.01Z" fill="#121212"/>
<path d="M453.472 199.593V439.417H122.528V199.593H453.472Z" stroke="white" stroke-opacity="0.43" stroke-width="1.16535"/>
<path d="M454.05 168.757H122.069V199.076H288.059H454.05V168.757Z" fill="#121212"/>
<path d="M453.467 169.34V198.493H122.652V169.34H453.467Z" stroke="white" stroke-opacity="0.43" stroke-width="1.16535"/>
<path d="M137.423 177.941C140.094 177.941 142.234 179.997 142.234 182.502C142.233 185.007 140.094 187.062 137.423 187.062C134.753 187.061 132.613 185.006 132.613 182.502C132.613 179.997 134.752 177.942 137.423 177.941Z" stroke="white" stroke-opacity="0.43" stroke-width="0.582676"/>
<path d="M152.304 177.941C154.974 177.941 157.114 179.997 157.114 182.502C157.114 185.007 154.974 187.062 152.304 187.062C149.633 187.061 147.493 185.006 147.493 182.502C147.493 179.997 149.633 177.942 152.304 177.941Z" stroke="white" stroke-opacity="0.43" stroke-width="0.582676"/>
<path d="M167.184 177.941C169.855 177.941 171.994 179.997 171.994 182.502C171.994 185.007 169.854 187.062 167.184 187.062C164.513 187.061 162.374 185.006 162.373 182.502C162.373 179.997 164.513 177.942 167.184 177.941Z" stroke="white" stroke-opacity="0.43" stroke-width="0.582676"/>
<path d="M444.062 211.696H131.938V427.314H444.062V211.696Z" fill="#1F211F"/>
<path d="M443.479 212.279V426.731H132.521V212.279H443.479Z" stroke="white" stroke-opacity="0.43" stroke-width="1.16535"/>
<path d="M318.667 295.71V355.756C318.667 358.03 316.823 359.874 314.548 359.874H261.452C259.177 359.874 257.333 358.03 257.333 355.756V284.658C257.333 282.384 259.177 280.54 261.452 280.54H303.221L303.497 280.811L318.667 295.71Z" fill="#10B346"/>
<g opacity="0.15">
<path d="M318.667 295.71H306.849C304.998 295.71 303.497 294.209 303.497 292.357V280.811L318.667 295.71Z" fill="black"/>
<path d="M317.241 295.127H306.849C305.32 295.127 304.08 293.887 304.08 292.358V282.199L317.241 295.127Z" stroke="white" stroke-opacity="0.43" stroke-width="1.16535"/>
</g>
<path d="M302.728 330.352C302.263 330.352 301.854 330.052 301.705 329.611C301.316 328.463 300.045 327.331 298.087 326.419C295.411 325.172 291.828 324.486 288 324.486C284.172 324.486 280.589 325.172 277.913 326.419C275.955 327.331 274.684 328.463 274.295 329.611C274.146 330.052 273.737 330.352 273.272 330.352C272.537 330.352 272.015 329.633 272.247 328.936C272.823 327.203 274.463 325.65 277.004 324.467C279.959 323.091 283.864 322.333 288 322.333C292.136 322.333 296.041 323.091 298.996 324.467C301.537 325.65 303.177 327.203 303.753 328.936C303.985 329.633 303.463 330.352 302.728 330.352Z" fill="white"/>
<path d="M288 322.916C292.073 322.916 295.89 323.663 298.75 324.995C301.22 326.145 302.695 327.602 303.2 329.12C303.305 329.437 303.068 329.769 302.728 329.769C302.519 329.769 302.328 329.634 302.257 329.424C301.79 328.045 300.335 326.823 298.333 325.89C295.56 324.599 291.889 323.903 288 323.903C284.111 323.903 280.44 324.599 277.667 325.89C275.665 326.823 274.21 328.045 273.743 329.424C273.672 329.634 273.481 329.769 273.271 329.769C272.932 329.769 272.694 329.437 272.8 329.12C273.304 327.603 274.78 326.145 277.25 324.995C280.11 323.663 283.927 322.916 288 322.916Z" stroke="white" stroke-opacity="0.43" stroke-width="1.16535"/>
<path d="M280.089 318.996C282.556 318.996 284.556 316.996 284.556 314.529C284.556 312.062 282.556 310.062 280.089 310.062C277.622 310.062 275.622 312.062 275.622 314.529C275.622 316.996 277.622 318.996 280.089 318.996Z" fill="white"/>
<path d="M280.088 310.645C282.234 310.645 283.973 312.384 283.973 314.529C283.973 316.674 282.234 318.414 280.088 318.414C277.943 318.414 276.205 316.674 276.205 314.529C276.205 312.384 277.943 310.645 280.088 310.645Z" stroke="white" stroke-opacity="0.43" stroke-width="1.16535"/>
<path d="M295.911 318.996C298.378 318.996 300.378 316.996 300.378 314.529C300.378 312.062 298.378 310.062 295.911 310.062C293.444 310.062 291.444 312.062 291.444 314.529C291.444 316.996 293.444 318.996 295.911 318.996Z" fill="white"/>
<path d="M295.911 310.645C298.056 310.645 299.796 312.384 299.796 314.529C299.796 316.674 298.056 318.414 295.911 318.414C293.766 318.414 292.027 316.674 292.027 314.529C292.027 312.384 293.766 310.645 295.911 310.645Z" stroke="white" stroke-opacity="0.43" stroke-width="1.16535"/>
<path d="M434.385 324.485H441.363C446.617 324.485 450.876 320.225 450.876 314.971C450.876 309.717 446.617 305.458 441.363 305.458H434.385C429.13 305.458 424.871 309.717 424.871 314.971C424.871 320.225 429.13 324.485 434.385 324.485Z" fill="#4E5247"/>
<path d="M434.857 322.95H440.891C440.891 322.95 440.351 327.809 434.857 330.223C434.857 330.223 437.747 325.967 434.857 322.95Z" fill="#4E5247"/>
<path d="M436.387 316.863V316.287C436.387 315.789 436.493 315.355 436.706 314.987C436.919 314.618 437.308 314.227 437.873 313.811C438.418 313.422 438.778 313.106 438.952 312.861C439.126 312.618 439.213 312.345 439.213 312.044C439.213 311.707 439.088 311.45 438.839 311.273C438.59 311.097 438.242 311.009 437.796 311.009C437.017 311.009 436.13 311.263 435.133 311.772L434.285 310.067C435.442 309.418 436.669 309.093 437.967 309.093C439.036 309.093 439.886 309.35 440.517 309.864C441.147 310.378 441.462 311.063 441.462 311.92C441.462 312.491 441.333 312.983 441.073 313.399C440.814 313.814 440.321 314.281 439.594 314.8C439.096 315.169 438.781 315.449 438.648 315.641C438.516 315.833 438.45 316.085 438.45 316.396V316.863H436.387ZM436.137 319.526C436.137 319.09 436.254 318.76 436.488 318.537C436.721 318.314 437.061 318.202 437.508 318.202C437.938 318.202 438.272 318.316 438.508 318.545C438.744 318.773 438.862 319.1 438.862 319.526C438.862 319.936 438.743 320.259 438.504 320.495C438.265 320.731 437.933 320.849 437.508 320.849C437.072 320.849 436.734 320.734 436.496 320.503C436.257 320.272 436.137 319.946 436.137 319.526Z" fill="#747A7D"/>
<path opacity="0.67" d="M415.502 443.848L418.765 445.118L417.813 449.721L412.238 447.975L415.502 443.848Z" fill="#050505"/>
<path d="M370.02 433.649C370.02 433.649 361.318 432.618 359.414 437.3C359.414 437.3 359.278 448.968 364.717 449.761C364.717 449.761 369.34 450.237 372.331 448.174L389.735 446.19L401.565 445.396L370.02 433.649Z" fill="#1C2225"/>
<path d="M422.3 439.245C422.3 439.245 426.867 446.591 424.164 449.511C423.746 449.963 424.329 450.512 425.21 450.51L443.58 450.476C443.58 450.476 454.049 452.381 456.089 444.364C456.089 444.364 457.313 435.872 443.987 434.443C430.662 433.014 443.851 433.967 443.851 433.967C443.851 433.967 428.351 435.078 422.3 439.245Z" fill="#1C2225"/>
<path d="M429.575 439.602L429.524 440.072L428.487 449.761L409.111 448.055L415.488 439.709L415.57 439.602C429.575 439.92 429.575 439.602 429.575 439.602Z" fill="#DE995F"/>
<path opacity="0.38" d="M429.575 439.602L429.524 440.072L419.309 440.356L415.488 439.709L415.57 439.602C429.575 439.92 429.575 439.602 429.575 439.602Z" fill="#050505"/>
<path d="M459.306 422.88L436.743 427.263L407.14 433.014L383.625 427.541L346.494 418.898C344.797 406.148 371.515 413.489 371.515 413.489L388.91 415.44H388.913L399.117 416.585L422.232 419.76L429.575 416.854L438.277 413.41C461.732 411.386 459.306 422.88 459.306 422.88Z" fill="#1C2225"/>
<path opacity="0.3" d="M436.743 427.263L407.14 433.014L383.625 427.541L377.226 423.728L388.91 415.441H388.913L399.117 416.585L422.232 419.76L429.575 416.854L436.743 427.263Z" fill="#1C2225"/>
<path d="M374.099 437.38L406.052 429.046C406.052 429.046 428.895 420.554 432.838 421.03C432.838 421.03 461.12 406.505 459.216 424.284C459.216 424.284 462.48 438.253 412.035 440.396L374.099 437.38Z" fill="#2E3539"/>
<path opacity="0.13" d="M396.058 431.625L399.593 430.594C402.268 432.377 407.297 433.861 410.607 435.356C414.352 437.048 418.901 438.61 423.252 439.642C420.397 439.986 417.541 440.33 414.686 440.674L396.058 431.625Z" fill="black"/>
<path d="M420.805 439.88C420.805 439.88 411.491 447.301 417.745 449.761C417.745 449.761 381.6 445.704 352.686 429.552C350.495 428.328 348.94 426.766 348.21 425.048C345.562 418.82 341.903 404.651 370.428 416.744C370.428 416.744 392.586 424.272 399.888 430.749C401.287 431.989 402.946 433.121 404.872 434.091C409.443 436.393 417.191 439.988 420.805 439.88Z" fill="#2E3539"/>
<path d="M398.709 357.504L415.57 357.534L421.009 367.773C421.009 367.773 410.403 383.805 395.174 369.519C395.851 367.218 398.1 363.843 398.778 361.542C399.865 359.161 399.729 359.32 398.709 357.504Z" fill="#CC8B5B"/>
<path d="M442.454 374.253L438.685 404.441L380.626 403.886C380.626 403.886 384.611 388.513 383.816 386.017C383.768 385.865 383.702 385.761 383.617 385.71L367.572 385.155C367.572 385.155 367.695 382.953 368.219 380.047C369.105 375.144 371.138 368.237 375.663 366.543C376.408 366.264 378.586 365.392 378.586 365.392C378.586 365.392 398.37 360.194 398.777 361.542C398.777 361.542 397.69 377.337 419.173 364.241C419.173 364.241 444.048 370.415 442.454 374.253Z" fill="#767776"/>
<path d="M430.662 405.949L431.852 415.953L445.255 411.885C448.294 410.963 450.376 409.223 450.75 407.236C451.084 405.468 450.872 402.95 449.29 399.441L446.299 386.186C446.299 386.186 447.727 377.019 440.792 371.86C440.792 371.86 438.277 387.059 433.79 389.599L432.838 402.298L430.662 405.949Z" fill="#767776"/>
<path opacity="0.1" d="M393.071 368.964L383.816 386.017C383.768 385.865 383.702 385.761 383.617 385.71L367.572 385.155C367.572 385.155 367.695 382.953 368.219 380.047L384.505 364.836C384.505 364.836 391.44 368.883 393.071 368.964Z" fill="black"/>
<path d="M396.085 358.822C395.688 361.476 395.218 362.29 393.815 366.503L391.639 370.63L385.52 366.503L387.152 364.836L386.336 357.296L388.401 352.245C389.135 350.45 390.956 349.305 392.885 349.512C395.046 349.745 397.158 351.644 396.085 358.822Z" fill="#DE995F"/>
<path opacity="0.13" d="M379.674 384.44L383.92 387.194L382.597 395.671L393.815 370.472L389.803 369.392L379.674 384.44Z" fill="black"/>
<path d="M385.248 364.836C385.248 364.836 392.183 368.884 393.815 368.963L380.761 393.012C380.761 393.012 372.371 403.405 363.756 395.589C358.449 390.774 360.159 384.358 367.92 380.857C368.029 380.808 368.14 380.759 368.252 380.71L385.248 364.836Z" fill="#767776"/>
<path opacity="0.13" d="M398.641 361.304C398.641 361.304 406.711 372.952 417.293 360.779L414.006 355.987L400.613 357.508L398.641 361.304Z" fill="black"/>
<path d="M395.174 341.026C395.174 341.026 410.675 332.533 416.929 339.994C416.929 339.994 429.846 353.09 409.723 364.836C409.723 364.836 396.67 370.63 395.174 341.026Z" fill="#DE995F"/>
<path d="M396.855 353.403L392.815 346.644C391.888 345.092 391.468 343.453 391.588 341.812C391.963 336.672 395.1 326.802 414.346 331.105C414.346 331.105 431.206 338.486 421.824 347.931L418.697 354.756C418.697 354.756 419.105 342.454 414.346 341.819C414.346 341.819 403.468 344.2 396.398 344.042C396.398 344.042 396.194 352.494 396.855 353.403Z" fill="black"/>
<path d="M400.613 351.979C402.641 351.979 404.284 351.019 404.284 349.836C404.284 348.652 402.641 347.693 400.613 347.693C398.585 347.693 396.942 348.652 396.942 349.836C396.942 351.019 398.585 351.979 400.613 351.979Z" stroke="black" stroke-width="0.862975" stroke-miterlimit="10"/>
<path d="M411.763 351.661C413.79 351.661 415.434 350.702 415.434 349.518C415.434 348.334 413.79 347.375 411.763 347.375C409.735 347.375 408.091 348.334 408.091 349.518C408.091 350.702 409.735 351.661 411.763 351.661Z" stroke="black" stroke-width="0.862975" stroke-miterlimit="10"/>
<path d="M404.244 349.518C404.244 349.518 405.916 350.629 408.091 349.518" stroke="black" stroke-width="0.862975" stroke-miterlimit="10"/>
<path d="M396.942 349.836L395.106 348.605" stroke="black" stroke-width="0.862975" stroke-miterlimit="10"/>
<path d="M415.434 349.518L420.057 348.963" stroke="black" stroke-width="0.862975" stroke-miterlimit="10"/>
<path opacity="0.13" d="M431.818 405.592C431.818 405.592 435.897 402.418 440.792 402.1C440.792 402.1 439.704 401.386 436.713 402.1C436.713 402.1 439.433 400.433 442.56 401.068C442.56 401.068 436.033 398.608 431.818 405.592Z" fill="black"/>
<path d="M377.873 395.772L432.36 395.094C433.147 395.084 433.79 395.719 433.79 396.505V419.167C433.79 419.941 433.167 420.57 432.394 420.579L378.995 421.173C378.235 421.182 377.605 420.588 377.569 419.83L376.481 397.252C376.442 396.453 377.074 395.782 377.873 395.772Z" fill="#10B346"/>
<path opacity="0.13" d="M378.926 419.879C378.926 419.879 369.819 414.196 353.228 412.497C353.228 412.497 361.522 411.942 379.742 418.212L378.926 419.879Z" fill="black"/>
<path opacity="0.13" d="M433.858 420.593C433.858 420.593 450.318 412.168 456.875 416.678C456.875 416.678 453.437 411.704 431.818 420.117L433.858 420.593Z" fill="black"/>
<path opacity="0.13" d="M433.722 389.56C433.722 389.56 442.832 382.734 442.56 379.242C442.56 379.242 440.112 382.337 439.432 382.893C439.432 382.893 442.832 378.686 441.472 377.02C441.472 377.02 439.574 382.303 438.144 382.4L433.722 389.56Z" fill="black"/>
<path opacity="0.13" d="M433.654 389.52C433.654 389.52 440.452 376.186 439.093 375.472C439.093 375.472 438.821 378.091 433.654 389.52Z" fill="black"/>
</svg>
