<svg width="436" height="400" viewBox="0 0 436 400" fill="none" xmlns="http://www.w3.org/2000/svg">
<path d="M330.179 50.3781V59.8461C330.179 60.6851 329.846 61.4897 329.252 62.083C328.659 62.6763 327.854 63.0096 327.015 63.0096H74.9013C74.0623 63.0096 73.2576 62.6763 72.6644 62.083C72.0711 61.4897 71.7378 60.6851 71.7378 59.8461V14.1101C71.7378 13.2711 72.0711 12.4665 72.6644 11.8732C73.2576 11.2799 74.0623 10.9467 74.9013 10.9467H327.015C327.854 10.9467 328.659 11.2799 329.252 11.8732C329.846 12.4665 330.179 13.2711 330.179 14.1101V26.7417" fill="white"/>
<path d="M330.179 50.3781V59.8461C330.179 60.6851 329.846 61.4897 329.252 62.083C328.659 62.6763 327.854 63.0096 327.015 63.0096H74.9013C74.0623 63.0096 73.2576 62.6763 72.6644 62.083C72.0711 61.4897 71.7378 60.6851 71.7378 59.8461V14.1101C71.7378 13.2711 72.0711 12.4665 72.6644 11.8732C73.2576 11.2799 74.0623 10.9467 74.9013 10.9467H327.015C327.854 10.9467 328.659 11.2799 329.252 11.8732C329.846 12.4665 330.179 13.2711 330.179 14.1101V26.7417" stroke="#2E353A" stroke-miterlimit="10"/>
<path d="M330.179 34.3474V46.5863" stroke="#2E353A" stroke-miterlimit="10"/>
<path d="M75.9556 42.458H318.882" stroke="#2E353A" stroke-linecap="round" stroke-linejoin="round"/>
<path d="M75.9556 47.1808H318.882" stroke="#2E353A" stroke-linecap="round" stroke-linejoin="round"/>
<path d="M75.9556 51.9037H318.882" stroke="#2E353A" stroke-linecap="round" stroke-linejoin="round"/>
<path d="M75.9556 56.6265H318.882" stroke="#2E353A" stroke-linecap="round" stroke-linejoin="round"/>
<path d="M94.6001 17.9915H117.507" stroke="#2E353A" stroke-linecap="round" stroke-linejoin="round"/>
<path d="M94.6001 22.7144H152.844" stroke="#2E353A" stroke-linecap="round" stroke-linejoin="round"/>
<path d="M94.6001 27.4371H123.722" stroke="#2E353A" stroke-linecap="round" stroke-linejoin="round"/>
<path d="M90.1352 14.054H77.6944C76.5173 14.054 75.563 15.0082 75.563 16.1854V30.9483C75.563 32.1255 76.5173 33.0797 77.6944 33.0797H90.1352C91.3124 33.0797 92.2666 32.1255 92.2666 30.9483V16.1854C92.2666 15.0082 91.3124 14.054 90.1352 14.054Z" fill="#779E1C"/>
<path d="M330.179 287.965V323.077C330.179 323.916 329.846 324.721 329.252 325.314C328.659 325.908 327.854 326.241 327.015 326.241H74.9013C74.0623 326.241 73.2576 325.908 72.6644 325.314C72.0711 324.721 71.7378 323.916 71.7378 323.077V270.992C71.7378 270.577 71.8197 270.166 71.9788 269.783C72.1379 269.4 72.3711 269.052 72.665 268.759C72.9589 268.466 73.3078 268.234 73.6915 268.076C74.0753 267.919 74.4864 267.838 74.9013 267.84H327.015C327.43 267.838 327.842 267.919 328.225 268.076C328.609 268.234 328.958 268.466 329.252 268.759C329.546 269.052 329.779 269.4 329.938 269.783C330.097 270.166 330.179 270.577 330.179 270.992V281.649" fill="white"/>
<path d="M330.179 287.965V323.077C330.179 323.916 329.846 324.721 329.252 325.314C328.659 325.908 327.854 326.241 327.015 326.241H74.9013C74.0623 326.241 73.2576 325.908 72.6644 325.314C72.0711 324.721 71.7378 323.916 71.7378 323.077V270.992C71.7378 270.577 71.8197 270.166 71.9788 269.783C72.1379 269.4 72.3711 269.052 72.665 268.759C72.9589 268.466 73.3078 268.234 73.6915 268.076C74.0753 267.919 74.4864 267.838 74.9013 267.84H327.015C327.43 267.838 327.842 267.919 328.225 268.076C328.609 268.234 328.958 268.466 329.252 268.759C329.546 269.052 329.779 269.4 329.938 269.783C330.097 270.166 330.179 270.577 330.179 270.992V281.649" stroke="#2E353A" stroke-miterlimit="10"/>
<path d="M75.9556 299.34H318.882" stroke="#2E353A" stroke-linecap="round" stroke-linejoin="round"/>
<path d="M75.9556 304.063H318.882" stroke="#2E353A" stroke-linecap="round" stroke-linejoin="round"/>
<path d="M75.9556 308.786H318.882" stroke="#2E353A" stroke-linecap="round" stroke-linejoin="round"/>
<path d="M75.9556 313.508H318.882" stroke="#2E353A" stroke-linecap="round" stroke-linejoin="round"/>
<path d="M94.6001 274.873H117.507" stroke="#2E353A" stroke-linecap="round" stroke-linejoin="round"/>
<path d="M94.6001 279.596H152.844" stroke="#2E353A" stroke-linecap="round" stroke-linejoin="round"/>
<path d="M94.6001 284.319H123.722" stroke="#2E353A" stroke-linecap="round" stroke-linejoin="round"/>
<path d="M90.1352 270.947H77.6944C76.5173 270.947 75.563 271.901 75.563 273.078V287.841C75.563 289.019 76.5173 289.973 77.6944 289.973H90.1352C91.3124 289.973 92.2666 289.019 92.2666 287.841V273.078C92.2666 271.901 91.3124 270.947 90.1352 270.947Z" fill="#779E1C"/>
<path d="M71.7378 166.44V100.141C71.7378 99.7264 71.8197 99.3156 71.9788 98.9324C72.1379 98.5492 72.3711 98.2012 72.665 97.9083C72.9589 97.6155 73.3078 97.3835 73.6915 97.2258C74.0753 97.068 74.4864 96.9876 74.9013 96.989H327.016C327.43 96.9876 327.842 97.068 328.225 97.2258C328.609 97.3835 328.958 97.6155 329.252 97.9083C329.546 98.2012 329.779 98.5492 329.938 98.9324C330.097 99.3156 330.179 99.7264 330.179 100.141V236.811C330.179 237.226 330.097 237.636 329.938 238.02C329.779 238.403 329.546 238.751 329.252 239.044C328.958 239.337 328.609 239.568 328.225 239.726C327.842 239.884 327.43 239.964 327.016 239.963H74.9013C74.4864 239.964 74.0753 239.884 73.6915 239.726C73.3078 239.568 72.9589 239.337 72.665 239.044C72.3711 238.751 72.1379 238.403 71.9788 238.02C71.8197 237.636 71.7378 237.226 71.7378 236.811V193.868" fill="white"/>
<path d="M71.7378 166.44V100.141C71.7378 99.7264 71.8197 99.3156 71.9788 98.9324C72.1379 98.5492 72.3711 98.2012 72.665 97.9083C72.9589 97.6155 73.3078 97.3835 73.6915 97.2258C74.0753 97.068 74.4864 96.9876 74.9013 96.989H327.016C327.43 96.9876 327.842 97.068 328.225 97.2258C328.609 97.3835 328.958 97.6155 329.252 97.9083C329.546 98.2012 329.779 98.5492 329.938 98.9324C330.097 99.3156 330.179 99.7264 330.179 100.141V236.811C330.179 237.226 330.097 237.636 329.938 238.02C329.779 238.403 329.546 238.751 329.252 239.044C328.958 239.337 328.609 239.568 328.225 239.726C327.842 239.884 327.43 239.964 327.016 239.963H74.9013C74.4864 239.964 74.0753 239.884 73.6915 239.726C73.3078 239.568 72.9589 239.337 72.665 239.044C72.3711 238.751 72.1379 238.403 71.9788 238.02C71.8197 237.636 71.7378 237.226 71.7378 236.811V193.868" stroke="#2E353A" stroke-miterlimit="10"/>
<path d="M71.7378 186.273V172.767" stroke="#2E353A" stroke-miterlimit="10"/>
<path d="M94.6001 104.023H117.507" stroke="#2E353A" stroke-linecap="round" stroke-linejoin="round"/>
<path d="M94.6001 108.745H152.844" stroke="#2E353A" stroke-linecap="round" stroke-linejoin="round"/>
<path d="M94.6001 113.468H123.722" stroke="#2E353A" stroke-linecap="round" stroke-linejoin="round"/>
<path d="M90.1352 100.096H77.6944C76.5173 100.096 75.563 101.051 75.563 102.228V116.991C75.563 118.168 76.5173 119.122 77.6944 119.122H90.1352C91.3124 119.122 92.2666 118.168 92.2666 116.991V102.228C92.2666 101.051 91.3124 100.096 90.1352 100.096Z" fill="#779E1C"/>
<path d="M108.365 250.328C108.365 249.046 107.985 247.792 107.272 246.726C106.56 245.66 105.547 244.829 104.362 244.338C103.178 243.847 101.874 243.719 100.616 243.969C99.3583 244.219 98.2029 244.837 97.2961 245.743C96.3893 246.65 95.7718 247.806 95.5216 249.063C95.2714 250.321 95.3998 251.625 95.8905 252.81C96.3813 253.994 97.2124 255.007 98.2787 255.72C99.345 256.432 100.599 256.812 101.881 256.812C103.601 256.812 105.25 256.129 106.466 254.913C107.682 253.697 108.365 252.048 108.365 250.328Z" fill="#779E1C"/>
<path d="M119.885 256.812C123.466 256.812 126.369 253.909 126.369 250.328C126.369 246.747 123.466 243.844 119.885 243.844C116.304 243.844 113.401 246.747 113.401 250.328C113.401 253.909 116.304 256.812 119.885 256.812Z" fill="#779E1C"/>
<path d="M144.386 250.328C144.386 249.046 144.006 247.792 143.293 246.726C142.581 245.66 141.568 244.829 140.383 244.338C139.199 243.847 137.895 243.719 136.637 243.969C135.379 244.219 134.224 244.837 133.317 245.743C132.41 246.65 131.793 247.806 131.543 249.063C131.292 250.321 131.421 251.625 131.912 252.81C132.402 253.994 133.233 255.007 134.3 255.72C135.366 256.432 136.62 256.812 137.902 256.812C139.622 256.812 141.271 256.129 142.487 254.913C143.703 253.697 144.386 252.048 144.386 250.328Z" fill="#779E1C"/>
<path d="M108.365 71.6474C108.365 70.3649 107.985 69.1113 107.272 68.045C106.56 66.9787 105.547 66.1477 104.362 65.6569C103.178 65.1661 101.874 65.0377 100.616 65.2879C99.3583 65.5381 98.2029 66.1556 97.2961 67.0624C96.3893 67.9693 95.7718 69.1246 95.5216 70.3824C95.2714 71.6402 95.3998 72.9439 95.8905 74.1287C96.3813 75.3135 97.2124 76.3261 98.2787 77.0386C99.345 77.7511 100.599 78.1314 101.881 78.1314C103.601 78.1314 105.25 77.4482 106.466 76.2323C107.682 75.0163 108.365 73.367 108.365 71.6474Z" fill="#779E1C"/>
<path d="M126.381 71.6473C126.383 70.3622 126.004 69.1053 125.291 68.0357C124.579 66.9661 123.565 66.1318 122.379 65.6385C121.192 65.1452 119.886 65.015 118.625 65.2643C117.364 65.5137 116.206 66.1314 115.297 67.0393C114.387 67.9472 113.767 69.1046 113.516 70.3648C113.264 71.6251 113.392 72.9316 113.883 74.1191C114.375 75.3067 115.207 76.3217 116.276 77.0359C117.344 77.7501 118.6 78.1314 119.885 78.1314C120.738 78.1328 121.582 77.9662 122.37 77.641C123.158 77.3158 123.874 76.8384 124.478 76.2362C125.081 75.634 125.559 74.9187 125.886 74.1312C126.213 73.3438 126.381 72.4998 126.381 71.6473Z" fill="#779E1C"/>
<path d="M144.386 71.6474C144.386 70.3649 144.006 69.1113 143.293 68.045C142.581 66.9787 141.568 66.1477 140.383 65.6569C139.199 65.1661 137.895 65.0377 136.637 65.2879C135.379 65.5381 134.224 66.1556 133.317 67.0624C132.41 67.9693 131.793 69.1246 131.543 70.3824C131.292 71.6402 131.421 72.9439 131.912 74.1287C132.402 75.3135 133.233 76.3261 134.3 77.0386C135.366 77.7511 136.62 78.1314 137.902 78.1314C139.622 78.1314 141.271 77.4482 142.487 76.2323C143.703 75.0163 144.386 73.367 144.386 71.6474Z" fill="#779E1C"/>
<path d="M108.365 336.786C108.365 335.503 107.985 334.25 107.272 333.183C106.56 332.117 105.547 331.286 104.362 330.795C103.178 330.305 101.874 330.176 100.616 330.426C99.3583 330.677 98.2029 331.294 97.2961 332.201C96.3893 333.108 95.7718 334.263 95.5216 335.521C95.2714 336.779 95.3998 338.082 95.8905 339.267C96.3813 340.452 97.2124 341.465 98.2787 342.177C99.345 342.89 100.599 343.27 101.881 343.27C103.601 343.27 105.25 342.587 106.466 341.371C107.682 340.155 108.365 338.505 108.365 336.786Z" fill="#779E1C"/>
<path d="M126.381 336.786C126.383 335.501 126.004 334.244 125.291 333.174C124.579 332.105 123.565 331.27 122.379 330.777C121.192 330.284 119.886 330.153 118.625 330.403C117.364 330.652 116.206 331.27 115.297 332.178C114.387 333.086 113.767 334.243 113.516 335.503C113.264 336.764 113.392 338.07 113.883 339.258C114.375 340.445 115.207 341.46 116.276 342.174C117.344 342.889 118.6 343.27 119.885 343.27C120.738 343.271 121.582 343.105 122.37 342.779C123.158 342.454 123.874 341.977 124.478 341.375C125.081 340.772 125.559 340.057 125.886 339.27C126.213 338.482 126.381 337.638 126.381 336.786Z" fill="#779E1C"/>
<path d="M144.386 336.786C144.386 335.503 144.006 334.25 143.293 333.183C142.581 332.117 141.568 331.286 140.383 330.795C139.199 330.305 137.895 330.176 136.637 330.426C135.379 330.677 134.224 331.294 133.317 332.201C132.41 333.108 131.793 334.263 131.543 335.521C131.292 336.779 131.421 338.082 131.912 339.267C132.402 340.452 133.233 341.465 134.3 342.177C135.366 342.89 136.62 343.27 137.902 343.27C139.622 343.27 141.271 342.587 142.487 341.371C143.703 340.155 144.386 338.505 144.386 336.786Z" fill="#779E1C"/>
<path d="M317.513 120.682H93.4331V227.152H317.513V120.682Z" fill="white"/>
<path opacity="0.5" d="M317.513 120.682H93.4331V227.152H317.513V120.682Z" fill="white"/>
<path d="M317.513 120.682H93.4331V227.152H317.513V120.682Z" stroke="#2E353A" stroke-miterlimit="10"/>
<path d="M93.4331 227.152L317.513 120.682" stroke="#2E353A" stroke-miterlimit="10"/>
<path opacity="0.3" d="M202.641 400C235.168 400 261.536 393.47 261.536 385.416C261.536 377.362 235.168 370.833 202.641 370.833C170.115 370.833 143.747 377.362 143.747 385.416C143.747 393.47 170.115 400 202.641 400Z" fill="white"/>
<path d="M202.641 400C235.168 400 261.536 393.47 261.536 385.416C261.536 377.362 235.168 370.833 202.641 370.833C170.115 370.833 143.747 377.362 143.747 385.416C143.747 393.47 170.115 400 202.641 400Z" fill="#779E1C"/>
<path opacity="0.5" d="M202.641 400C235.168 400 261.536 393.47 261.536 385.416C261.536 377.362 235.168 370.833 202.641 370.833C170.115 370.833 143.747 377.362 143.747 385.416C143.747 393.47 170.115 400 202.641 400Z" fill="white"/>
<path d="M149.692 161.336C149.692 161.336 161.976 175.078 167.305 184.052C172.633 193.026 180.486 194.99 182.449 194.99C184.412 194.99 196.191 179.845 197.033 178.723C197.874 177.602 188.339 172.273 188.339 172.273L179.364 174.517C179.364 174.517 166.463 170.59 161.976 165.542C157.489 160.494 149.188 153.763 149.692 161.336Z" fill="white" stroke="#2E353A" stroke-linecap="round" stroke-linejoin="round"/>
<path d="M199.556 140.302C199.556 140.302 195.91 152.361 193.386 159.372C190.862 166.384 189.74 168.908 187.777 170.03C186.378 170.934 185.144 172.072 184.131 173.395C186.937 177.104 190.592 180.085 194.788 182.089C201.239 184.893 204.043 184.052 204.043 184.052C204.043 184.052 205.726 154.044 204.604 146.472C203.482 138.9 202.922 135.534 199.556 140.302Z" fill="white" stroke="#2E353A" stroke-linecap="round" stroke-linejoin="round"/>
<path d="M209.181 375.465C209.181 375.465 209.742 376.587 205.535 379.111C201.329 381.635 192.074 386.403 191.513 389.208C190.952 392.012 195.72 392.012 203.853 392.012C211.986 392.012 222.923 386.964 226.008 386.123C229.093 385.281 227.691 381.074 226.289 377.99C224.886 374.905 212.266 372.885 209.181 375.465Z" fill="white" stroke="#2E353A" stroke-linecap="round" stroke-linejoin="round"/>
<path d="M226.008 386.067C228.162 385.483 228.129 383.251 227.433 380.906C224.898 382.567 218.627 385.91 206.938 387.749C198.939 389.017 194.317 389.006 191.681 388.692C191.612 388.84 191.556 388.994 191.513 389.152C190.952 391.956 195.72 391.956 203.853 391.956C211.986 391.956 222.923 386.908 226.008 386.067Z" fill="white" stroke="#2E353A" stroke-linecap="round" stroke-linejoin="round"/>
<path d="M201.048 359.985C201.048 359.985 196.841 363.35 191.793 368.118C186.745 372.885 184.782 374.007 188.989 375.129C193.195 376.251 196.841 374.007 201.329 372.605C204.242 371.66 207.06 370.439 209.742 368.959C209.742 368.959 212.827 364.472 210.583 359.704C208.34 354.936 201.048 359.985 201.048 359.985Z" fill="white" stroke="#2E353A" stroke-linecap="round" stroke-linejoin="round"/>
<path d="M209.742 368.959C210.299 368.084 210.723 367.132 210.999 366.132C207.633 367.613 202.574 369.8 198.524 371.483C194.868 372.87 190.924 373.325 187.048 372.807C186.286 373.929 186.768 374.534 188.989 375.129C193.196 376.251 196.842 374.007 201.329 372.605C204.243 371.66 207.06 370.439 209.742 368.959Z" fill="white" stroke="#2E353A" stroke-linecap="round" stroke-linejoin="round"/>
<path d="M227.882 258.652C235.455 246.593 236.576 236.216 239.1 226.961C240.562 220.96 240.465 214.685 238.82 208.732L193.387 210.975C193.387 210.975 186.095 232.29 186.095 233.411C186.095 234.533 159.542 286.843 157.859 295.2C156.177 303.558 161.786 311.186 164.31 313.71C166.834 316.234 201.049 359.985 201.049 359.985C202.175 360.016 203.298 360.11 204.414 360.265C205.437 360.413 206.467 360.506 207.499 360.545L208.341 367.837C207.739 368.41 207.276 369.111 206.984 369.888C206.693 370.665 206.581 371.498 206.658 372.324C206.936 374.153 207.825 375.834 209.182 377.092C209.182 377.092 211.706 375.409 218.998 377.653C226.289 379.897 227.692 380.738 227.972 378.494C228.253 376.251 220.4 359.985 220.4 350.73C220.4 341.475 217.876 328.574 213.108 319.6C210.501 314.508 207.092 309.868 203.012 305.857L203.292 302.492C203.292 302.492 220.31 270.711 227.882 258.652ZM187.307 298.285C186.746 305.577 186.465 310.906 186.465 310.906L180.015 294.359L190.111 279.215C190.111 279.215 187.868 290.994 187.307 298.285Z" fill="#2E353A" stroke="#2E353A" stroke-linecap="round" stroke-linejoin="round"/>
<path d="M198.435 132.729C198.89 144.514 198.609 156.316 197.593 168.066C195.911 187.978 193.667 209.293 193.387 210.975C193.106 212.658 205.166 213.219 218.908 213.499C232.65 213.78 239.1 212.378 239.661 210.414C240.222 208.451 238.539 157.409 232.089 139.741C225.638 122.072 215.262 115.061 211.616 113.939C207.97 112.817 197.593 122.633 198.435 132.729Z" fill="#779E1C" stroke="#2E353A" stroke-linecap="round" stroke-linejoin="round"/>
<path d="M198.323 122.353C196.969 124.432 195.876 126.67 195.07 129.016C193.836 132.741 195.227 138.159 194.296 140.952C193.364 143.746 194.913 144.318 195.687 142.5C196.461 140.683 198.02 134.906 198.02 134.906L202.821 137.699C202.821 137.699 206.187 133.672 206.849 133.975C207.51 134.278 211.661 142.198 212.121 140.492C212.581 138.787 215.385 125.606 214.454 117.854C213.523 110.103 208.554 109.172 205.3 109.015C202.047 108.857 198.323 122.353 198.323 122.353Z" fill="white" stroke="#2E353A" stroke-linecap="round" stroke-linejoin="round"/>
<path d="M188.888 119.582C188.888 119.582 195.877 122.678 198.21 126.178C199.895 128.886 201.325 131.744 202.484 134.715C202.484 134.715 206.758 121.13 207.14 114.915C207.521 108.701 197.044 95.5081 197.044 95.5081C197.044 95.5081 192.781 89.686 189.673 100.164C187.811 106.472 187.541 113.144 188.888 119.582Z" fill="white" stroke="#2E353A" stroke-linecap="round" stroke-linejoin="round"/>
<path d="M157.713 95.2725C157.713 95.2725 168.583 107.309 168.583 108.858C168.911 111.495 169.844 114.021 171.309 116.239C172.857 118.572 184.12 127.109 188.002 127.109C191.883 127.109 198.479 118.135 199.646 114.68C200.813 111.225 198.098 104.583 198.098 104.583C198.098 104.583 199.22 102.643 200.039 97.202C200.857 91.7612 200.813 86.7244 197.705 84.7836C194.598 82.8429 188.731 82.0576 182.561 82.0576C176.391 82.0576 172.083 79.7355 168.202 82.8317C164.32 85.9279 157.713 95.2725 157.713 95.2725Z" fill="white" stroke="#2E353A" stroke-linecap="round" stroke-linejoin="round"/>
<path d="M179.846 84.4021C179.846 84.4021 172.083 82.8429 170.524 87.1169C168.965 91.391 171.646 94.8798 162.761 96.0914C153.876 97.3029 141.447 90.2692 141.447 82.1137C141.447 73.9582 151.543 68.136 154.258 70.0767C156.973 72.0174 159.306 74.7434 160.854 69.3027C162.402 63.8619 170.176 60.3282 174.058 60.3282C177.939 60.3282 178.713 65.769 179.88 65.769C181.046 65.769 185.702 63.043 189.976 63.043C194.25 63.043 199.68 66.9245 202.013 75.4726C204.346 84.0207 205.502 96.0465 203.135 98.3798C200.768 100.713 199.646 99.9279 199.646 99.9279C199.646 99.9279 200.039 90.6169 198.524 88.2836C197.01 85.9502 192.702 93.7244 192.702 93.7244C189.872 93.1943 187.21 91.9942 184.939 90.2243C181.787 87.5095 181.394 84.4021 179.846 84.4021Z" fill="#2E353A" stroke="#2E353A" stroke-linecap="round" stroke-linejoin="round"/>
<path d="M178.411 101.555C179.028 102.777 179.095 103.989 178.557 104.258C178.018 104.527 177.087 103.753 176.47 102.531C175.853 101.308 175.786 100.096 176.313 99.827C176.84 99.5578 177.783 100.332 178.411 101.555Z" fill="#2E353A"/>
<path d="M171.119 104.808C171.736 106.031 171.803 107.242 171.276 107.511C170.749 107.781 169.806 107.007 169.178 105.784C168.55 104.561 168.494 103.361 169.032 103.08C169.571 102.8 170.502 103.585 171.119 104.808Z" fill="#2E353A"/>
<path d="M164.881 100.029L171.085 101.734" stroke="#2E353A" stroke-linecap="round" stroke-linejoin="round"/>
<path d="M172.633 98.3799C172.633 98.3799 170.457 92.6363 177.905 92.0193" stroke="#2E353A" stroke-linecap="round" stroke-linejoin="round"/>
<path d="M142.805 163.949C142.805 163.949 147.292 161.336 149.693 161.336C152.093 161.336 152.284 163.714 151.42 163.949C150.556 164.185 143.669 167.999 142.367 167.764C141.066 167.528 141.245 165.374 141.728 164.398" fill="white"/>
<path d="M142.805 163.949C142.805 163.949 147.292 161.336 149.693 161.336C152.093 161.336 152.284 163.714 151.42 163.949C150.556 164.185 143.669 167.999 142.367 167.764C141.066 167.528 141.245 165.374 141.728 164.398" stroke="#2E353A" stroke-linecap="round" stroke-linejoin="round"/>
<path d="M135.647 158.812C135.647 158.812 141.503 155.749 144.565 155.749C147.628 155.749 147.931 158.531 146.809 158.812C145.687 159.092 136.769 163.546 135.097 163.299C133.426 163.052 133.706 160.505 134.256 159.395" fill="white"/>
<path d="M135.647 158.812C135.647 158.812 141.503 155.749 144.565 155.749C147.628 155.749 147.931 158.531 146.809 158.812C145.687 159.092 136.769 163.546 135.097 163.299C133.426 163.052 133.706 160.505 134.256 159.395" stroke="#2E353A" stroke-linecap="round" stroke-linejoin="round"/>
<path d="M139.854 161.335C139.854 161.335 145.71 158.273 148.772 158.273C151.835 158.273 152.138 161.055 151.016 161.335C149.894 161.616 140.976 166.069 139.304 165.823C137.633 165.576 137.913 163.029 138.463 161.919" fill="white"/>
<path d="M139.854 161.335C139.854 161.335 145.71 158.273 148.772 158.273C151.835 158.273 152.138 161.055 151.016 161.335C149.894 161.616 140.976 166.069 139.304 165.823C137.633 165.576 137.913 163.029 138.463 161.919" stroke="#2E353A" stroke-linecap="round" stroke-linejoin="round"/>
<path d="M136.455 148.154C135.379 150.471 134.162 152.719 132.809 154.885C132.165 155.787 131.893 156.902 132.05 157.998C132.206 159.095 132.78 160.089 133.65 160.775C135.333 161.896 144.307 156.568 144.307 156.568L136.455 148.154Z" fill="white" stroke="#2E353A" stroke-linecap="round" stroke-linejoin="round"/>
<path d="M135.333 143.106C135.333 143.106 138.418 140.021 140.942 140.021C143.466 140.021 145.71 146.472 143.747 148.154C141.783 149.837 138.979 145.35 138.979 145.35L135.333 143.106Z" fill="white" stroke="#2E353A" stroke-linecap="round" stroke-linejoin="round"/>
<path d="M159.732 164.42L142.3 145.417C141.407 144.451 140.227 143.798 138.934 143.555L131.407 142.04C131.204 141.994 130.991 142.015 130.801 142.101C130.611 142.187 130.455 142.333 130.356 142.516C130.257 142.699 130.22 142.91 130.252 143.115C130.284 143.321 130.382 143.511 130.532 143.656L149.602 163.018L159.732 164.42Z" fill="#2E353A"/>
<path d="M214.14 180.687C214.14 180.687 213.579 185.174 200.678 180.126C187.777 175.078 164.5 163.018 164.5 163.018C164.5 163.018 163.939 156.007 162.817 153.483C161.695 150.959 155.245 148.154 153.562 146.191C151.88 144.228 151.599 141.984 150.197 140.863C148.795 139.741 147.112 141.424 147.112 144.228C147.112 147.033 147.392 148.715 149.636 149.837C150.809 150.4 151.934 151.056 153.001 151.8C151.514 153.764 149.714 155.47 147.673 156.848C144.588 158.811 140.101 162.177 140.942 163.86C141.783 165.542 147.112 164.981 147.112 164.981C147.112 164.981 147.112 168.908 149.636 170.31C151.484 171.139 153.554 171.336 155.526 170.871C155.526 170.871 154.123 174.236 151.319 173.395C148.514 172.554 151.319 176.199 154.123 176.199C156.928 176.199 159.171 168.627 159.171 168.627C159.171 168.627 167.024 174.517 177.962 182.089C188.899 189.661 207.97 198.355 219.468 201.16C230.967 203.964 230.406 185.735 230.406 185.735L214.14 180.687Z" fill="white" stroke="#2E353A" stroke-linecap="round" stroke-linejoin="round"/>
<path d="M223.956 129.645C223.956 129.645 217.225 127.681 215.262 135.534C213.299 143.387 215.262 159.653 215.823 167.225C216.384 174.797 212.458 177.882 212.458 179.284C212.458 180.687 215.823 184.893 221.151 187.417C226.48 189.941 233.772 188.82 233.772 188.82C233.772 188.82 237.979 165.542 233.491 148.154C229.004 130.766 226.48 130.766 223.956 129.645Z" fill="white" stroke="#2E353A" stroke-linecap="round" stroke-linejoin="round"/>
<path d="M134.212 156.287C134.212 156.287 140.101 153.203 143.186 153.203C146.271 153.203 146.551 156.007 145.43 156.287C144.308 156.568 135.333 161.055 133.651 160.775C131.968 160.494 132.248 157.97 132.809 156.848" fill="white"/>
<path d="M134.212 156.287C134.212 156.287 140.101 153.203 143.186 153.203C146.271 153.203 146.551 156.007 145.43 156.287C144.308 156.568 135.333 161.055 133.651 160.775C131.968 160.494 132.248 157.97 132.809 156.848" stroke="#2E353A" stroke-linecap="round" stroke-linejoin="round"/>
<path d="M162.817 146.191C162.817 146.191 168.146 149.276 168.707 154.605" stroke="#2E353A" stroke-linecap="round" stroke-linejoin="round"/>
<path d="M168.707 146.752C169.828 147.632 170.755 148.734 171.431 149.988C172.107 151.243 172.516 152.624 172.633 154.044" stroke="#2E353A" stroke-linecap="round" stroke-linejoin="round"/>
<path d="M136.174 137.497C135.482 137.572 134.842 137.899 134.376 138.417C133.91 138.934 133.652 139.605 133.65 140.302" stroke="#2E353A" stroke-linecap="round" stroke-linejoin="round"/>
<path d="M132.248 136.936C131.674 137.391 131.275 138.032 131.122 138.748C130.968 139.465 131.069 140.212 131.407 140.863" stroke="#2E353A" stroke-linecap="round" stroke-linejoin="round"/>
<path d="M197.346 226.322L202.338 229.956L190.111 279.215" stroke="white" stroke-width="0.75" stroke-linecap="round" stroke-linejoin="round"/>
<path d="M228.23 216.326C228.23 216.326 223.687 223.596 225.504 227.69C226.111 228.911 227.008 229.964 228.117 230.756C229.226 231.548 230.513 232.056 231.865 232.233" stroke="white" stroke-width="0.75" stroke-linecap="round" stroke-linejoin="round"/>
<path d="M227.332 249.397C218.986 265.36 195.506 304.825 195.506 307.619C195.506 310.805 201.407 307.17 201.867 308.987C202.327 310.805 201.407 313.071 201.867 314.888C202.327 316.705 206.41 316.245 210.034 322.606C213.657 328.967 215.037 356.26 219.12 362.991C223.204 369.722 223.664 372.066 224.124 374.344L224.572 376.587" stroke="white" stroke-width="0.75" stroke-linecap="round" stroke-linejoin="round"/>
<path d="M234.613 220.354C234.346 228.286 232.832 236.126 230.126 243.586C229.823 244.383 229.441 245.247 229.004 246.166" stroke="white" stroke-width="0.75" stroke-linecap="round" stroke-linejoin="round"/>
<path d="M234.613 214.06C234.613 214.06 234.613 214.991 234.613 216.618" stroke="white" stroke-width="0.75" stroke-linecap="round" stroke-linejoin="round"/>
<path d="M204.784 350.842L206.411 354.858" stroke="white" stroke-width="0.75" stroke-linecap="round" stroke-linejoin="round"/>
<path d="M186.88 313.071C186.88 313.071 187.789 318.523 190.964 321.249C193.095 323.077 199.332 337.593 203.191 346.949" stroke="white" stroke-width="0.75" stroke-linecap="round" stroke-linejoin="round"/>
<path d="M170.232 84.5031C170.232 84.5031 167.563 88.2499 163.288 84.5031C159.014 80.7563 165.151 71.1649 173.968 71.1649C182.785 71.1649 180.374 76.5046 188.641 76.5046C196.909 76.5046 198.255 70.8956 198.255 70.8956" stroke="white" stroke-width="0.75" stroke-linecap="round" stroke-linejoin="round"/>
<path d="M179.846 84.4022C183.43 85.2573 187.15 85.3831 190.784 84.7724C196.393 83.6506 201.721 75.1698 201.721 74.3621" stroke="white" stroke-width="0.75" stroke-linecap="round" stroke-linejoin="round"/>
<path d="M156.883 76.7627C156.883 76.7627 148.335 79.9711 149.939 86.3766C151.543 92.7821 159.283 96.4728 164.354 93.0513C169.425 89.6298 169.694 85.8381 169.694 85.8381" stroke="white" stroke-width="0.75" stroke-linecap="round" stroke-linejoin="round"/>
<path d="M172.633 104.213C173.236 105.466 173.503 106.854 173.407 108.241C173.25 110.574 172.286 113.21 173.564 113.85C174.843 114.489 176.93 112.728 176.93 112.728" stroke="#2E353A" stroke-linecap="round" stroke-linejoin="round"/>
<path d="M181.619 113.053C183.082 111.805 184.154 110.161 184.705 108.318C185.257 106.475 185.264 104.512 184.726 102.665" stroke="#2E353A" stroke-linecap="round" stroke-linejoin="round"/>
<path d="M185.029 104.83C185.029 104.83 182.55 101.577 181.473 103.282C180.396 104.987 184.412 108.555 184.412 108.555C185.008 107.41 185.224 106.106 185.029 104.83Z" fill="#779E1C" stroke="#2E353A" stroke-linecap="round" stroke-linejoin="round"/>
<path d="M359.324 284.409C359.324 284.409 360.995 280.123 361.074 279.843C361.893 276.545 361.545 269.691 358.314 267.683C357.768 267.361 357.161 267.159 356.531 267.089C355.902 267.019 355.265 267.083 354.662 267.277C354.059 267.471 353.504 267.79 353.033 268.214C352.563 268.638 352.187 269.156 351.931 269.736C350.753 272.147 351.583 275.345 352.728 277.588C354.074 280.269 359.313 284.409 359.324 284.409Z" fill="#779E1C"/>
<path d="M434.642 315.83C431.983 313.104 425.219 314.238 422.167 315.752C421.909 315.887 418.028 318.399 418.084 318.444H418.151C417.029 318.613 415.908 318.814 414.685 319.05C412.441 319.51 409.794 320.048 407.012 320.823C404.004 321.629 401.045 322.606 398.149 323.75C394.904 325.025 391.777 326.583 388.805 328.406L388.704 328.473C389.433 327.632 391.374 325.198 391.508 324.996C393.314 322.124 395.121 315.494 392.686 312.577C392.265 312.1 391.747 311.717 391.167 311.455C390.587 311.194 389.957 311.058 389.321 311.058C388.684 311.058 388.055 311.194 387.475 311.455C386.894 311.717 386.376 312.1 385.955 312.577C384.082 314.507 383.869 317.805 384.25 320.318C384.688 323.145 388.076 328.339 388.345 328.754C385.369 330.687 382.524 332.815 379.83 335.126C378.249 336.46 376.7 337.863 375.175 339.276C375.781 338.525 376.297 337.852 376.375 337.751C378.181 334.879 379.987 328.249 377.553 325.332C377.132 324.855 376.614 324.472 376.034 324.21C375.454 323.948 374.824 323.813 374.188 323.813C373.551 323.813 372.922 323.948 372.341 324.21C371.761 324.472 371.243 324.855 370.822 325.332C368.949 327.262 368.736 330.56 369.117 333.073C369.499 335.585 372.314 340.106 373.066 341.284L371.361 342.933C368.579 345.581 365.808 348.239 363.014 350.786C362.027 351.683 361.029 352.525 360.03 353.366C360.569 352.693 361.006 352.132 361.074 352.031C362.88 349.159 364.686 342.541 362.196 339.624C361.774 339.146 361.257 338.764 360.676 338.502C360.096 338.24 359.467 338.105 358.83 338.105C358.194 338.105 357.564 338.24 356.984 338.502C356.404 338.764 355.886 339.146 355.465 339.624C353.591 341.542 353.378 344.852 353.76 347.353C354.141 349.855 356.676 353.949 357.574 355.363C356.519 356.193 355.476 357.034 354.421 357.786C353.681 358.291 353.019 358.829 352.256 359.289L350.013 360.703C348.577 361.555 347.096 362.441 345.66 363.227C344.673 363.788 343.719 364.292 342.766 364.82C343.753 363.945 345.66 362.195 345.795 362.026C347.673 359.697 348.917 356.923 349.407 353.972C349.697 353.691 349.95 353.375 350.159 353.03C350.499 352.496 350.723 351.897 350.816 351.271C350.909 350.645 350.868 350.006 350.696 349.397C350.525 348.788 350.226 348.222 349.82 347.736C349.414 347.25 348.91 346.856 348.341 346.579C345.727 345.379 341.7 347.095 338.896 349.081C339.008 347.151 338.963 345.962 338.963 345.962L338.223 346.029L338.761 344.751C339.12 343.954 339.389 343.057 339.715 342.204C340.421 340.207 341.038 338.154 341.622 336.068C342.934 336.707 347.635 338.928 350.181 339.029C352.728 339.13 355.97 338.525 357.663 336.449C358.082 335.974 358.395 335.416 358.582 334.812C358.77 334.208 358.827 333.57 358.751 332.942C358.675 332.314 358.467 331.709 358.14 331.167C357.813 330.625 357.376 330.158 356.856 329.797C353.681 327.699 347.309 330.257 344.662 332.377C344.494 332.512 342.766 334.251 341.835 335.226C342.171 333.97 342.519 332.725 342.811 331.435C343.686 327.733 344.449 323.964 345.223 320.217C345.458 319.095 345.705 317.917 345.952 316.773C346.423 316.997 351.954 319.757 354.803 319.869C357.338 319.959 360.591 319.364 362.285 317.289C362.704 316.814 363.017 316.256 363.204 315.652C363.392 315.047 363.449 314.41 363.373 313.782C363.297 313.153 363.088 312.548 362.762 312.006C362.435 311.464 361.997 310.997 361.478 310.637C358.303 308.539 351.931 311.096 349.284 313.217C349.082 313.385 346.603 315.887 345.997 316.582C346.546 314.058 347.119 311.545 347.769 309.088C348.638 305.769 349.721 302.509 351.011 299.329C351.224 299.441 356.99 302.346 359.907 302.447C362.442 302.537 365.696 301.954 367.401 299.867C367.819 299.392 368.131 298.833 368.318 298.228C368.504 297.623 368.561 296.986 368.483 296.357C368.406 295.729 368.196 295.124 367.869 294.583C367.541 294.041 367.103 293.575 366.582 293.215C363.407 291.128 357.035 293.675 354.388 295.806C354.186 295.975 351.516 298.667 351.022 299.172C351.101 298.992 351.168 298.79 351.236 298.611C352.622 295.46 354.285 292.438 356.205 289.58C357.248 287.987 358.337 286.518 359.425 285.093C360.434 285.744 365.112 288.66 367.737 289.053C370.362 289.446 373.548 289.199 375.467 287.314C375.939 286.888 376.316 286.365 376.571 285.782C376.826 285.199 376.954 284.568 376.947 283.931C376.939 283.294 376.796 282.667 376.528 282.089C376.259 281.512 375.87 280.999 375.388 280.583C372.46 278.16 365.853 280 362.981 281.817C362.824 281.918 361.354 283.107 360.289 283.982L361.78 282.109C363.62 279.865 365.438 277.981 367.064 276.298C367.995 275.356 368.859 274.514 369.678 273.74C371.002 273.853 376.409 274.268 378.832 273.415C381.255 272.563 384.06 270.869 384.89 268.311C385.108 267.717 385.199 267.084 385.156 266.453C385.113 265.822 384.936 265.207 384.639 264.648C384.341 264.09 383.929 263.601 383.429 263.213C382.929 262.826 382.352 262.548 381.737 262.399C378.013 261.591 372.999 266.269 371.293 269.208C371.148 269.466 369.297 273.696 369.364 273.696H369.442C368.646 274.425 367.805 275.221 366.896 276.107C365.224 277.756 363.362 279.641 361.466 281.817C359.403 284.148 357.477 286.598 355.7 289.154C353.69 292.001 351.941 295.023 350.473 298.184L350.417 298.308C350.562 297.186 350.843 294.09 350.832 293.821C350.764 290.455 348.588 283.904 344.965 282.816C344.354 282.651 343.716 282.616 343.092 282.715C342.467 282.813 341.871 283.043 341.341 283.388C340.812 283.733 340.361 284.187 340.019 284.718C339.677 285.25 339.451 285.848 339.356 286.473C338.851 289.109 340.477 291.981 342.205 293.866C344.123 295.986 349.811 298.454 350.271 298.644C348.853 301.9 347.654 305.247 346.681 308.662C346.109 310.648 345.559 312.667 345.088 314.697C345.178 313.733 345.245 312.869 345.245 312.757C345.167 309.391 343.002 302.84 339.378 301.752C338.768 301.587 338.13 301.552 337.505 301.651C336.881 301.75 336.284 301.979 335.755 302.324C335.225 302.67 334.774 303.123 334.432 303.654C334.09 304.186 333.864 304.784 333.769 305.409C333.264 308.045 334.891 310.917 336.607 312.802C338.324 314.686 343.147 316.907 344.46 317.48C344.269 318.254 344.078 319.039 343.899 319.813C343.046 323.56 342.205 327.307 341.263 330.952C340.937 332.242 340.567 333.499 340.197 334.755C340.276 333.903 340.332 333.174 340.332 333.073C340.253 329.707 338.088 323.156 334.465 322.068C333.854 321.902 333.216 321.868 332.592 321.967C331.967 322.065 331.371 322.295 330.841 322.64C330.312 322.985 329.861 323.439 329.519 323.97C329.177 324.502 328.951 325.1 328.856 325.725C328.362 328.361 329.977 331.233 331.705 333.117C333.433 335.002 337.774 337.01 339.3 337.694C338.884 338.962 338.469 340.241 338.009 341.452C337.673 342.283 337.415 343.102 337.033 343.909L335.99 346.254C335.183 346.388 334.251 346.568 333.208 346.804C332.928 343.382 331.649 339.198 329.046 337.964C328.468 337.707 327.841 337.576 327.208 337.579C326.575 337.582 325.95 337.719 325.374 337.981C324.797 338.242 324.283 338.623 323.864 339.098C323.445 339.572 323.132 340.13 322.944 340.735C322.046 343.27 323.235 346.344 324.638 348.475C324.84 348.782 325.069 349.071 325.322 349.339C320.862 351.159 316.854 353.931 313.577 357.461C304.153 367.983 304.86 383.98 304.86 383.98C304.86 383.98 318.21 383.083 327.7 374.871C330.617 373.502 334.431 371.663 338.694 369.352C340.309 368.499 342.059 367.546 343.764 366.547C344.224 367.119 347.982 371.764 350.495 373.031C352.739 374.153 355.958 375.006 358.348 373.828C358.927 373.572 359.446 373.196 359.87 372.726C360.293 372.255 360.613 371.7 360.807 371.097C361.001 370.494 361.065 369.857 360.995 369.227C360.925 368.598 360.722 367.99 360.401 367.445C358.393 364.214 351.538 363.866 348.252 364.685C348.05 364.741 346.008 365.493 344.718 365.998C345.425 365.594 346.12 365.201 346.849 364.764C348.285 363.922 349.71 363.047 351.236 362.094L353.412 360.635C354.152 360.164 354.881 359.57 355.655 359.042C357.338 357.763 359.021 356.384 360.625 354.97C361.365 356.227 364.058 360.669 366.133 362.161C368.208 363.653 371.237 364.943 373.806 364.135C374.417 363.97 374.985 363.677 375.474 363.277C375.964 362.876 376.363 362.377 376.646 361.811C376.929 361.246 377.089 360.626 377.116 359.995C377.142 359.363 377.035 358.732 376.801 358.145C375.298 354.645 368.579 353.254 365.202 353.568C364.989 353.568 362.588 354.084 361.264 354.387C362.24 353.523 363.216 352.671 364.181 351.762C366.941 349.159 369.656 346.433 372.382 343.719C373.212 342.888 374.053 342.069 374.894 341.251C375.152 341.699 378.26 347.05 380.571 348.711C382.635 350.191 385.675 351.504 388.233 350.696C388.843 350.531 389.412 350.238 389.901 349.838C390.39 349.437 390.789 348.938 391.072 348.372C391.355 347.806 391.515 347.187 391.542 346.555C391.569 345.924 391.462 345.293 391.228 344.706C389.736 341.206 383.016 339.815 379.628 340.129C379.37 340.129 375.915 340.88 375.051 341.105C376.891 339.299 378.753 337.515 380.66 335.821C383.215 333.533 385.917 331.416 388.749 329.483C388.872 329.685 392.114 335.294 394.447 336.988C396.512 338.468 399.552 339.77 402.109 338.973C402.721 338.808 403.291 338.515 403.781 338.114C404.272 337.713 404.672 337.212 404.955 336.645C405.237 336.078 405.397 335.458 405.423 334.824C405.449 334.191 405.34 333.56 405.105 332.972C403.613 329.472 396.893 328.092 393.505 328.406C393.247 328.406 389.523 329.202 388.861 329.393C389.029 329.281 389.186 329.146 389.354 329.045C392.247 327.18 395.299 325.573 398.475 324.244C400.225 323.492 401.93 322.875 403.613 322.303C404.095 323.425 406.395 328.428 408.358 330.156C410.321 331.883 413.125 333.521 415.762 332.96C416.385 332.863 416.98 332.635 417.509 332.291C418.038 331.948 418.489 331.497 418.832 330.968C419.175 330.438 419.402 329.843 419.5 329.22C419.597 328.597 419.562 327.96 419.396 327.351C418.275 323.717 411.768 321.597 408.369 321.54C408.19 321.54 406.305 321.709 404.936 321.855L407.18 321.125C409.94 320.295 412.508 319.701 414.786 319.196C416.087 318.915 417.276 318.691 418.376 318.489C419.43 319.319 423.682 322.629 426.228 323.268C428.775 323.907 431.994 324.031 434.081 322.359C434.564 321.98 434.963 321.505 435.255 320.964C435.547 320.423 435.725 319.829 435.777 319.217C435.83 318.605 435.756 317.988 435.561 317.406C435.366 316.823 435.053 316.287 434.642 315.83ZM337.594 367.433C335.605 368.443 333.735 369.355 331.985 370.171C334.905 365.938 336.911 361.143 337.875 356.092L339.457 356.417C339.614 359.278 341.88 364.36 342.183 365.022C340.623 365.919 339.075 366.738 337.594 367.478V367.433Z" fill="#779E1C"/>
<path d="M407.831 318.938C410.343 316.638 413.832 310.737 412.251 307.282C411.973 306.713 411.579 306.209 411.094 305.803C410.608 305.397 410.042 305.099 409.433 304.927C408.824 304.756 408.185 304.715 407.559 304.808C406.933 304.9 406.333 305.124 405.8 305.465C403.478 306.822 402.435 309.952 402.109 312.476C401.762 315.438 403.848 321.776 403.859 321.787C403.871 321.798 407.617 319.14 407.831 318.938Z" fill="#779E1C"/>
<path d="M297.882 290.691C297.882 290.691 278.498 310.401 278.363 334.71C278.228 359.02 297.434 378.898 297.434 378.898C297.434 378.898 316.818 359.233 316.919 334.879C317.02 310.524 297.882 290.691 297.882 290.691Z" fill="#779E1C"/>
<path d="M255.299 346.411C255.299 346.411 255.175 362.419 264.969 372.594C274.762 382.769 290.77 383.262 290.77 383.262C290.77 383.262 290.883 367.254 281.089 357.079C271.296 346.904 255.299 346.411 255.299 346.411Z" fill="#779E1C"/>
<g opacity="0.5">
<path d="M359.324 284.409C359.324 284.409 360.995 280.123 361.074 279.843C361.893 276.545 361.545 269.691 358.314 267.683C357.768 267.361 357.161 267.159 356.531 267.089C355.902 267.019 355.265 267.083 354.662 267.277C354.059 267.471 353.504 267.79 353.033 268.214C352.563 268.638 352.187 269.156 351.931 269.736C350.753 272.147 351.583 275.345 352.728 277.588C354.074 280.269 359.313 284.409 359.324 284.409Z" fill="white"/>
<path d="M434.642 315.83C431.983 313.104 425.219 314.238 422.167 315.752C421.909 315.887 418.028 318.399 418.084 318.444H418.151C417.029 318.613 415.908 318.814 414.685 319.05C412.441 319.51 409.794 320.048 407.012 320.823C404.004 321.629 401.045 322.606 398.149 323.75C394.904 325.025 391.777 326.583 388.805 328.406L388.704 328.473C389.433 327.632 391.374 325.198 391.508 324.996C393.314 322.124 395.121 315.494 392.686 312.577C392.265 312.1 391.747 311.717 391.167 311.455C390.587 311.194 389.957 311.058 389.321 311.058C388.684 311.058 388.055 311.194 387.475 311.455C386.894 311.717 386.376 312.1 385.955 312.577C384.082 314.507 383.869 317.805 384.25 320.318C384.688 323.145 388.076 328.339 388.345 328.754C385.369 330.687 382.524 332.815 379.83 335.126C378.249 336.46 376.7 337.863 375.175 339.276C375.781 338.525 376.297 337.852 376.375 337.751C378.181 334.879 379.987 328.249 377.553 325.332C377.132 324.855 376.614 324.472 376.034 324.21C375.454 323.948 374.824 323.813 374.188 323.813C373.551 323.813 372.922 323.948 372.341 324.21C371.761 324.472 371.243 324.855 370.822 325.332C368.949 327.262 368.736 330.56 369.117 333.073C369.499 335.585 372.314 340.106 373.066 341.284L371.361 342.933C368.579 345.581 365.808 348.239 363.014 350.786C362.027 351.683 361.029 352.525 360.03 353.366C360.569 352.693 361.006 352.132 361.074 352.031C362.88 349.159 364.686 342.541 362.196 339.624C361.774 339.146 361.257 338.764 360.676 338.502C360.096 338.24 359.467 338.105 358.83 338.105C358.194 338.105 357.564 338.24 356.984 338.502C356.404 338.764 355.886 339.146 355.465 339.624C353.591 341.542 353.378 344.852 353.76 347.353C354.141 349.855 356.676 353.949 357.574 355.363C356.519 356.193 355.476 357.034 354.421 357.786C353.681 358.291 353.019 358.829 352.256 359.289L350.013 360.703C348.577 361.555 347.096 362.441 345.66 363.227C344.673 363.788 343.719 364.292 342.766 364.82C343.753 363.945 345.66 362.195 345.795 362.026C347.673 359.697 348.917 356.923 349.407 353.972C349.697 353.691 349.95 353.375 350.159 353.03C350.499 352.496 350.723 351.897 350.816 351.271C350.909 350.645 350.868 350.006 350.696 349.397C350.525 348.788 350.226 348.222 349.82 347.736C349.414 347.25 348.91 346.856 348.341 346.579C345.727 345.379 341.7 347.095 338.896 349.081C339.008 347.151 338.963 345.962 338.963 345.962L338.223 346.029L338.761 344.751C339.12 343.954 339.389 343.057 339.715 342.204C340.421 340.207 341.038 338.154 341.622 336.068C342.934 336.707 347.635 338.928 350.181 339.029C352.728 339.13 355.97 338.525 357.663 336.449C358.082 335.974 358.395 335.416 358.582 334.812C358.77 334.208 358.827 333.57 358.751 332.942C358.675 332.314 358.467 331.709 358.14 331.167C357.813 330.625 357.376 330.158 356.856 329.797C353.681 327.699 347.309 330.257 344.662 332.377C344.494 332.512 342.766 334.251 341.835 335.226C342.171 333.97 342.519 332.725 342.811 331.435C343.686 327.733 344.449 323.964 345.223 320.217C345.458 319.095 345.705 317.917 345.952 316.773C346.423 316.997 351.954 319.757 354.803 319.869C357.338 319.959 360.591 319.364 362.285 317.289C362.704 316.814 363.017 316.256 363.204 315.652C363.392 315.047 363.449 314.41 363.373 313.782C363.297 313.153 363.088 312.548 362.762 312.006C362.435 311.464 361.997 310.997 361.478 310.637C358.303 308.539 351.931 311.096 349.284 313.217C349.082 313.385 346.603 315.887 345.997 316.582C346.546 314.058 347.119 311.545 347.769 309.088C348.638 305.769 349.721 302.509 351.011 299.329C351.224 299.441 356.99 302.346 359.907 302.447C362.442 302.537 365.696 301.954 367.401 299.867C367.819 299.392 368.131 298.833 368.318 298.228C368.504 297.623 368.561 296.986 368.483 296.357C368.406 295.729 368.196 295.124 367.869 294.583C367.541 294.041 367.103 293.575 366.582 293.215C363.407 291.128 357.035 293.675 354.388 295.806C354.186 295.975 351.516 298.667 351.022 299.172C351.101 298.992 351.168 298.79 351.236 298.611C352.622 295.46 354.285 292.438 356.205 289.58C357.248 287.987 358.337 286.518 359.425 285.093C360.434 285.744 365.112 288.66 367.737 289.053C370.362 289.446 373.548 289.199 375.467 287.314C375.939 286.888 376.316 286.365 376.571 285.782C376.826 285.199 376.954 284.568 376.947 283.931C376.939 283.294 376.796 282.667 376.528 282.089C376.259 281.512 375.87 280.999 375.388 280.583C372.46 278.16 365.853 280 362.981 281.817C362.824 281.918 361.354 283.107 360.289 283.982L361.78 282.109C363.62 279.865 365.438 277.981 367.064 276.298C367.995 275.356 368.859 274.514 369.678 273.74C371.002 273.853 376.409 274.268 378.832 273.415C381.255 272.563 384.06 270.869 384.89 268.311C385.108 267.717 385.199 267.084 385.156 266.453C385.113 265.822 384.936 265.207 384.639 264.648C384.341 264.09 383.929 263.601 383.429 263.213C382.929 262.826 382.352 262.548 381.737 262.399C378.013 261.591 372.999 266.269 371.293 269.208C371.148 269.466 369.297 273.696 369.364 273.696H369.442C368.646 274.425 367.805 275.221 366.896 276.107C365.224 277.756 363.362 279.641 361.466 281.817C359.403 284.148 357.477 286.598 355.7 289.154C353.69 292.001 351.941 295.023 350.473 298.184L350.417 298.308C350.562 297.186 350.843 294.09 350.832 293.821C350.764 290.455 348.588 283.904 344.965 282.816C344.354 282.651 343.716 282.616 343.092 282.715C342.467 282.813 341.871 283.043 341.341 283.388C340.812 283.733 340.361 284.187 340.019 284.718C339.677 285.25 339.451 285.848 339.356 286.473C338.851 289.109 340.477 291.981 342.205 293.866C344.123 295.986 349.811 298.454 350.271 298.644C348.853 301.9 347.654 305.247 346.681 308.662C346.109 310.648 345.559 312.667 345.088 314.697C345.178 313.733 345.245 312.869 345.245 312.757C345.167 309.391 343.002 302.84 339.378 301.752C338.768 301.587 338.13 301.552 337.505 301.651C336.881 301.75 336.284 301.979 335.755 302.324C335.225 302.67 334.774 303.123 334.432 303.654C334.09 304.186 333.864 304.784 333.769 305.409C333.264 308.045 334.891 310.917 336.607 312.802C338.324 314.686 343.147 316.907 344.46 317.48C344.269 318.254 344.078 319.039 343.899 319.813C343.046 323.56 342.205 327.307 341.263 330.952C340.937 332.242 340.567 333.499 340.197 334.755C340.276 333.903 340.332 333.174 340.332 333.073C340.253 329.707 338.088 323.156 334.465 322.068C333.854 321.902 333.216 321.868 332.592 321.967C331.967 322.065 331.371 322.295 330.841 322.64C330.312 322.985 329.861 323.439 329.519 323.97C329.177 324.502 328.951 325.1 328.856 325.725C328.362 328.361 329.977 331.233 331.705 333.117C333.433 335.002 337.774 337.01 339.3 337.694C338.884 338.962 338.469 340.241 338.009 341.452C337.673 342.283 337.415 343.102 337.033 343.909L335.99 346.254C335.183 346.388 334.251 346.568 333.208 346.804C332.928 343.382 331.649 339.198 329.046 337.964C328.468 337.707 327.841 337.576 327.208 337.579C326.575 337.582 325.95 337.719 325.374 337.981C324.797 338.242 324.283 338.623 323.864 339.098C323.445 339.572 323.132 340.13 322.944 340.735C322.046 343.27 323.235 346.344 324.638 348.475C324.84 348.782 325.069 349.071 325.322 349.339C320.862 351.159 316.854 353.931 313.577 357.461C304.153 367.983 304.86 383.98 304.86 383.98C304.86 383.98 318.21 383.083 327.7 374.871C330.617 373.502 334.431 371.663 338.694 369.352C340.309 368.499 342.059 367.546 343.764 366.547C344.224 367.119 347.982 371.764 350.495 373.031C352.739 374.153 355.958 375.006 358.348 373.828C358.927 373.572 359.446 373.196 359.87 372.726C360.293 372.255 360.613 371.7 360.807 371.097C361.001 370.494 361.065 369.857 360.995 369.227C360.925 368.598 360.722 367.99 360.401 367.445C358.393 364.214 351.538 363.866 348.252 364.685C348.05 364.741 346.008 365.493 344.718 365.998C345.425 365.594 346.12 365.201 346.849 364.764C348.285 363.922 349.71 363.047 351.236 362.094L353.412 360.635C354.152 360.164 354.881 359.57 355.655 359.042C357.338 357.763 359.021 356.384 360.625 354.97C361.365 356.227 364.058 360.669 366.133 362.161C368.208 363.653 371.237 364.943 373.806 364.135C374.417 363.97 374.985 363.677 375.474 363.277C375.964 362.876 376.363 362.377 376.646 361.811C376.929 361.246 377.089 360.626 377.116 359.995C377.142 359.363 377.035 358.732 376.801 358.145C375.298 354.645 368.579 353.254 365.202 353.568C364.989 353.568 362.588 354.084 361.264 354.387C362.24 353.523 363.216 352.671 364.181 351.762C366.941 349.159 369.656 346.433 372.382 343.719C373.212 342.888 374.053 342.069 374.894 341.251C375.152 341.699 378.26 347.05 380.571 348.711C382.635 350.191 385.675 351.504 388.233 350.696C388.843 350.531 389.412 350.238 389.901 349.838C390.39 349.437 390.789 348.938 391.072 348.372C391.355 347.806 391.515 347.187 391.542 346.555C391.569 345.924 391.462 345.293 391.228 344.706C389.736 341.206 383.016 339.815 379.628 340.129C379.37 340.129 375.915 340.88 375.051 341.105C376.891 339.299 378.753 337.515 380.66 335.821C383.215 333.533 385.917 331.416 388.749 329.483C388.872 329.685 392.114 335.294 394.447 336.988C396.512 338.468 399.552 339.77 402.109 338.973C402.721 338.808 403.291 338.515 403.781 338.114C404.272 337.713 404.672 337.212 404.955 336.645C405.237 336.078 405.397 335.458 405.423 334.824C405.449 334.191 405.34 333.56 405.105 332.972C403.613 329.472 396.893 328.092 393.505 328.406C393.247 328.406 389.523 329.202 388.861 329.393C389.029 329.281 389.186 329.146 389.354 329.045C392.247 327.18 395.299 325.573 398.475 324.244C400.225 323.492 401.93 322.875 403.613 322.303C404.095 323.425 406.395 328.428 408.358 330.156C410.321 331.883 413.125 333.521 415.762 332.96C416.385 332.863 416.98 332.635 417.509 332.291C418.038 331.948 418.489 331.497 418.832 330.968C419.175 330.438 419.402 329.843 419.5 329.22C419.597 328.597 419.562 327.96 419.396 327.351C418.275 323.717 411.768 321.597 408.369 321.54C408.19 321.54 406.305 321.709 404.936 321.855L407.18 321.125C409.94 320.295 412.508 319.701 414.786 319.196C416.087 318.915 417.276 318.691 418.376 318.489C419.43 319.319 423.682 322.629 426.228 323.268C428.775 323.907 431.994 324.031 434.081 322.359C434.564 321.98 434.963 321.505 435.255 320.964C435.547 320.423 435.725 319.829 435.777 319.217C435.83 318.605 435.756 317.988 435.561 317.406C435.366 316.823 435.053 316.287 434.642 315.83ZM337.594 367.433C335.605 368.443 333.735 369.355 331.985 370.171C334.905 365.938 336.911 361.143 337.875 356.092L339.457 356.417C339.614 359.278 341.88 364.36 342.183 365.022C340.623 365.919 339.075 366.738 337.594 367.478V367.433Z" fill="white"/>
<path d="M407.831 318.938C410.343 316.638 413.832 310.737 412.251 307.282C411.973 306.713 411.579 306.209 411.094 305.803C410.608 305.397 410.042 305.099 409.433 304.927C408.824 304.756 408.185 304.715 407.559 304.808C406.933 304.9 406.333 305.124 405.8 305.465C403.478 306.822 402.435 309.952 402.109 312.476C401.762 315.438 403.848 321.776 403.859 321.787C403.871 321.798 407.617 319.14 407.831 318.938Z" fill="white"/>
<path d="M297.882 290.691C297.882 290.691 278.498 310.401 278.363 334.71C278.228 359.02 297.434 378.898 297.434 378.898C297.434 378.898 316.818 359.233 316.919 334.879C317.02 310.524 297.882 290.691 297.882 290.691Z" fill="white"/>
<path d="M255.299 346.411C255.299 346.411 255.175 362.419 264.969 372.594C274.762 382.769 290.77 383.262 290.77 383.262C290.77 383.262 290.883 367.254 281.089 357.079C271.296 346.904 255.299 346.411 255.299 346.411Z" fill="white"/>
</g>
<path d="M310.088 356.788L309.46 356.002L298.062 364.943L298.152 345.255L313.992 331.233L313.319 330.481L298.152 343.898L298.253 322.281L308.921 313.037L308.259 312.274L298.253 320.935L298.387 290.691H297.378L297.187 335.249L284.634 316.896L283.804 317.468L297.097 336.909L297.176 336.853L297.097 355.363L282.054 341.834L281.37 342.585L297.086 356.72L297.097 356.709L296.996 378.898H298.006L298.062 366.222L310.088 356.788Z" fill="white"/>
<path d="M339.277 346.321L338.526 345.648L321.755 364.405L323.28 352.289L322.282 352.155L320.577 365.706H320.588L313.835 373.244L312.567 362.06L311.569 362.172L312.937 374.254L304.434 383.767L305.174 384.44L310.009 379.044L318.76 379.56L318.816 378.562L310.873 378.079L318.131 369.969L330.292 369.98V368.97L319.029 368.959L327.005 360.041L335.093 360.142L335.104 359.132L327.902 359.042L339.277 346.321Z" fill="white"/>
<path d="M287.282 369.004L286.283 368.869L285.206 376.756L277.668 368.925L278.588 356.788L277.578 356.709L276.725 367.949L268.424 359.323L269.131 351.268L268.121 351.179L267.493 358.358L255.658 346.063L254.94 346.759L272.384 364.887L260.414 362.453L260.212 363.44L273.596 366.155V366.143L280.618 373.435L269.355 373.873L269.4 374.882L281.549 374.411L290.4 383.61L291.129 382.914L286.104 377.687L287.282 369.004Z" fill="white"/>
</svg>
