<svg width="201" height="124" viewBox="0 0 201 124" fill="none" xmlns="http://www.w3.org/2000/svg">
<path d="M28.625 86.6299C11.214 90.5371 0.5 95.8599 0.5 101.726C0.5 113.718 45.2715 123.439 100.5 123.439C155.728 123.439 200.5 113.718 200.5 101.726C200.5 95.8599 189.786 90.5371 172.375 86.6299V96.0951C172.375 102.68 168.25 108.077 163.156 108.077H37.8438C32.75 108.077 28.625 102.677 28.625 96.0951V86.6299Z" fill="black" fill-opacity="0.06"/>
<path d="M130.541 48.9293C130.541 43.9509 133.647 39.841 137.5 39.8379H172.375V96.0953C172.375 102.68 168.25 108.078 163.156 108.078H37.8437C32.75 108.078 28.625 102.677 28.625 96.0953V39.8379H63.5C67.3531 39.8379 70.4594 43.9416 70.4594 48.92V48.9882C70.4594 53.9666 73.6 57.9865 77.45 57.9865H123.55C127.4 57.9865 130.541 53.9294 130.541 48.951V48.9293Z" fill="black" fill-opacity="0.04" stroke="#D9D9D9"/>
<path d="M172.375 40.1806L140.669 4.50363C139.147 2.07182 136.925 0.601562 134.584 0.601562H66.4156C64.075 0.601562 61.8531 2.07182 60.3312 4.50053L28.625 40.1837" stroke="#D9D9D9"/>
</svg>
