<svg width="318" height="300" viewBox="0 0 318 300" fill="none" xmlns="http://www.w3.org/2000/svg">
<path d="M137.213 300C203.994 300 258.131 296.716 258.131 292.665C258.131 288.614 203.994 285.33 137.213 285.33C70.4324 285.33 16.2957 288.614 16.2957 292.665C16.2957 296.716 70.4324 300 137.213 300Z" fill="#779E1C"/>
<path opacity="0.8" d="M137.213 300C203.994 300 258.131 296.716 258.131 292.665C258.131 288.614 203.994 285.33 137.213 285.33C70.4324 285.33 16.2957 288.614 16.2957 292.665C16.2957 296.716 70.4324 300 137.213 300Z" fill="white"/>
<path d="M228.082 13.7444H106.499C98.105 13.7444 91.3003 20.3704 91.3003 28.5439V278.483C91.3003 286.657 98.105 293.283 106.499 293.283H228.082C236.476 293.283 243.28 286.657 243.28 278.483V28.5439C243.28 20.3704 236.476 13.7444 228.082 13.7444Z" fill="#263238"/>
<path d="M236.521 44.4412H98.0501V262.588H236.521V44.4412Z" fill="white" stroke="#263238" stroke-width="0.957031" stroke-miterlimit="10"/>
<path d="M188.513 132.774C200.234 121.361 200.234 102.856 188.513 91.4424C176.792 80.0289 157.788 80.0289 146.066 91.4424C134.345 102.856 134.345 121.361 146.066 132.774C157.788 144.187 176.792 144.187 188.513 132.774Z" fill="#779E1C"/>
<path d="M206.696 248.869H127.894C127.716 248.87 127.54 248.837 127.376 248.772C127.212 248.706 127.063 248.61 126.937 248.488C126.811 248.367 126.712 248.222 126.643 248.062C126.575 247.903 126.54 247.732 126.54 247.559C126.539 247.386 126.574 247.214 126.641 247.054C126.709 246.894 126.808 246.748 126.934 246.625C127.06 246.503 127.21 246.406 127.374 246.34C127.539 246.274 127.716 246.241 127.894 246.242H206.696C206.873 246.242 207.049 246.276 207.212 246.342C207.376 246.408 207.525 246.506 207.65 246.628C207.775 246.75 207.874 246.896 207.941 247.056C208.008 247.215 208.042 247.387 208.041 247.559C208.041 247.907 207.899 248.24 207.647 248.486C207.395 248.731 207.053 248.869 206.696 248.869Z" fill="#779E1C"/>
<path d="M209.26 157.763H125.319C123.587 157.763 122.182 159.131 122.182 160.817V170.453C122.182 172.14 123.587 173.507 125.319 173.507H209.26C210.993 173.507 212.397 172.14 212.397 170.453V160.817C212.397 159.131 210.993 157.763 209.26 157.763Z" fill="#779E1C"/>
<path d="M209.26 187.21H125.319C123.587 187.21 122.182 188.578 122.182 190.265V199.9C122.182 201.587 123.587 202.954 125.319 202.954H209.26C210.993 202.954 212.397 201.587 212.397 199.9V190.265C212.397 188.578 210.993 187.21 209.26 187.21Z" fill="#779E1C"/>
<path d="M182.236 126.687L173.404 121.736V117.645C174.683 116.139 175.61 114.379 176.119 112.489C176.423 112.594 176.743 112.648 177.065 112.649C178.16 112.649 178.857 109.343 178.974 106.982C180.249 104.354 178.512 102.815 178.512 102.815C178.512 102.815 179.232 102.115 179.709 99.3041C180.186 96.4934 178.027 97.6664 176.346 95.0919C174.664 92.5174 173.459 89.7144 167.937 89.7144C166.415 89.6657 164.913 90.0639 163.627 90.8572C162.341 91.6505 161.33 92.8022 160.724 94.1627C159.35 94.1675 157.98 94.3234 156.641 94.6273C154.952 95.0919 154.474 100.477 155.914 102.587C156.558 103.74 156.902 105.029 156.915 106.342C156.532 105.885 156.133 105.763 155.914 106.799C155.437 109.137 157.361 112.413 157.361 112.413L158.354 112.138C158.855 114.159 159.82 116.042 161.178 117.645V121.736L152.347 126.687C151.315 127.266 150.459 128.1 149.863 129.104C149.267 130.108 148.953 131.247 148.952 132.407V135.24C154.204 139.191 160.654 141.335 167.291 141.335C173.929 141.335 180.378 139.191 185.631 135.24V132.407C185.631 131.247 185.318 130.107 184.722 129.103C184.126 128.099 183.268 127.265 182.236 126.687Z" fill="#263238"/>
<path d="M133.61 199.04C133.408 199.037 133.214 198.958 133.071 198.819C132.994 198.752 132.932 198.669 132.89 198.577C132.849 198.486 132.827 198.386 132.828 198.285C132.831 198.148 132.871 198.014 132.945 197.897L134.353 195.703L131.608 195.787C131.504 195.793 131.401 195.778 131.304 195.743C131.207 195.708 131.118 195.652 131.045 195.581C130.917 195.442 130.847 195.262 130.847 195.075C130.847 194.888 130.917 194.708 131.045 194.568C131.117 194.495 131.205 194.438 131.302 194.401C131.399 194.364 131.504 194.348 131.608 194.355L134.314 194.454L132.922 192.268C132.846 192.149 132.806 192.012 132.805 191.872C132.804 191.772 132.825 191.672 132.867 191.58C132.909 191.488 132.97 191.406 133.047 191.339C133.191 191.2 133.384 191.121 133.587 191.118C133.72 191.119 133.85 191.157 133.963 191.227C134.075 191.297 134.164 191.396 134.221 191.514L135.558 193.868L136.88 191.529C136.943 191.405 137.039 191.299 137.159 191.224C137.279 191.149 137.418 191.107 137.561 191.103C137.66 191.103 137.757 191.124 137.847 191.163C137.938 191.203 138.018 191.26 138.085 191.331C138.228 191.476 138.307 191.671 138.304 191.872C138.303 192.003 138.268 192.131 138.202 192.245L136.786 194.454L139.532 194.355C139.636 194.348 139.741 194.364 139.838 194.401C139.935 194.438 140.023 194.495 140.095 194.568C140.228 194.703 140.302 194.884 140.298 195.071C140.298 195.26 140.225 195.442 140.095 195.581C140.021 195.652 139.933 195.708 139.836 195.743C139.739 195.778 139.635 195.793 139.532 195.787L136.771 195.703L138.147 197.874C138.224 197.995 138.265 198.135 138.265 198.278C138.265 198.48 138.182 198.674 138.036 198.816C137.889 198.959 137.69 199.04 137.482 199.04C137.348 199.038 137.218 198.998 137.106 198.925C136.995 198.852 136.908 198.749 136.857 198.628L135.55 196.343L134.252 198.628C134.194 198.748 134.104 198.849 133.991 198.922C133.877 198.994 133.746 199.035 133.61 199.04Z" fill="#263238"/>
<path d="M146.299 199.04C146.096 199.037 145.903 198.958 145.759 198.819C145.682 198.752 145.621 198.669 145.579 198.577C145.537 198.486 145.516 198.386 145.517 198.285C145.519 198.148 145.559 198.014 145.634 197.897L147.042 195.703L144.304 195.787C144.2 195.792 144.095 195.776 143.997 195.741C143.899 195.705 143.809 195.651 143.733 195.582C143.629 195.477 143.56 195.345 143.534 195.202C143.509 195.059 143.528 194.911 143.59 194.779C143.651 194.647 143.752 194.536 143.88 194.46C144.007 194.384 144.155 194.348 144.304 194.355L147.003 194.454L145.61 192.268C145.535 192.149 145.494 192.012 145.493 191.872C145.492 191.772 145.514 191.672 145.555 191.58C145.597 191.488 145.659 191.406 145.736 191.339C145.879 191.2 146.073 191.121 146.275 191.118C146.409 191.119 146.539 191.157 146.651 191.227C146.763 191.297 146.853 191.396 146.909 191.514L148.247 193.868L149.569 191.529C149.631 191.405 149.728 191.299 149.848 191.224C149.968 191.149 150.106 191.107 150.249 191.103C150.348 191.102 150.446 191.123 150.536 191.162C150.627 191.201 150.707 191.259 150.773 191.331C150.846 191.402 150.903 191.487 150.942 191.58C150.981 191.672 151.001 191.772 151 191.872C150.997 192.004 150.959 192.132 150.89 192.245L149.475 194.454L152.228 194.37C152.331 194.364 152.434 194.379 152.53 194.416C152.627 194.453 152.713 194.51 152.783 194.584C152.917 194.719 152.99 194.899 152.987 195.086C152.986 195.275 152.914 195.457 152.783 195.597C152.711 195.668 152.624 195.723 152.529 195.758C152.433 195.793 152.33 195.809 152.228 195.802L149.459 195.719L150.836 197.889C150.913 198.011 150.954 198.15 150.953 198.293C150.953 198.495 150.871 198.689 150.724 198.832C150.577 198.975 150.378 199.055 150.171 199.055C150.037 199.053 149.906 199.013 149.795 198.94C149.684 198.867 149.597 198.764 149.545 198.643L148.239 196.358L146.94 198.643C146.88 198.76 146.789 198.859 146.676 198.928C146.563 198.998 146.433 199.037 146.299 199.04Z" fill="#263238"/>
<path d="M158.993 199.04C158.788 199.039 158.592 198.959 158.446 198.819C158.369 198.752 158.308 198.669 158.266 198.577C158.224 198.486 158.203 198.386 158.203 198.285C158.206 198.148 158.246 198.014 158.321 197.897L159.729 195.703L156.991 195.787C156.844 195.793 156.698 195.756 156.572 195.68C156.446 195.605 156.346 195.495 156.285 195.364C156.224 195.234 156.204 195.088 156.228 194.946C156.252 194.805 156.319 194.673 156.42 194.568C156.494 194.495 156.583 194.438 156.682 194.401C156.78 194.364 156.886 194.349 156.991 194.355L159.69 194.454L158.297 192.268C158.222 192.149 158.181 192.012 158.18 191.872C158.182 191.772 158.205 191.674 158.247 191.582C158.288 191.491 158.348 191.408 158.422 191.339C158.568 191.198 158.765 191.119 158.97 191.118C159.102 191.12 159.231 191.159 159.341 191.229C159.452 191.299 159.54 191.398 159.596 191.514L160.933 193.868L162.255 191.529C162.318 191.405 162.415 191.299 162.535 191.224C162.655 191.149 162.793 191.107 162.936 191.103C163.035 191.102 163.133 191.123 163.223 191.162C163.314 191.201 163.394 191.259 163.46 191.331C163.533 191.402 163.59 191.487 163.629 191.58C163.668 191.672 163.687 191.772 163.687 191.872C163.684 192.004 163.646 192.132 163.577 192.245L162.162 194.454L164.915 194.355C165.016 194.345 165.118 194.357 165.215 194.389C165.311 194.42 165.399 194.472 165.473 194.54C165.548 194.608 165.606 194.69 165.645 194.782C165.683 194.874 165.701 194.972 165.697 195.071C165.699 195.259 165.629 195.441 165.502 195.582C165.428 195.653 165.34 195.708 165.243 195.743C165.146 195.778 165.042 195.793 164.938 195.787L162.177 195.703L163.546 197.874C163.623 197.995 163.664 198.135 163.663 198.278C163.661 198.378 163.638 198.476 163.597 198.568C163.555 198.659 163.495 198.742 163.421 198.811C163.353 198.882 163.271 198.939 163.179 198.979C163.088 199.018 162.989 199.039 162.889 199.04C162.756 199.037 162.627 198.997 162.517 198.924C162.407 198.851 162.321 198.748 162.271 198.628L160.957 196.343L159.658 198.628C159.6 198.752 159.506 198.856 159.388 198.929C159.27 199.002 159.133 199.04 158.993 199.04Z" fill="#263238"/>
<path d="M171.683 199.04C171.478 199.039 171.281 198.959 171.135 198.819C170.988 198.678 170.904 198.486 170.901 198.285C170.898 198.148 170.936 198.014 171.01 197.897L172.418 195.703L169.68 195.787C169.576 195.792 169.471 195.776 169.373 195.741C169.275 195.705 169.186 195.651 169.109 195.582C168.982 195.442 168.911 195.262 168.911 195.075C168.911 194.888 168.982 194.708 169.109 194.568C169.185 194.497 169.274 194.442 169.373 194.405C169.471 194.369 169.575 194.352 169.68 194.355L172.387 194.454L171.002 192.268C170.927 192.149 170.886 192.012 170.885 191.872C170.887 191.772 170.91 191.674 170.952 191.582C170.993 191.491 171.053 191.408 171.127 191.339C171.273 191.198 171.47 191.119 171.675 191.118C171.808 191.119 171.939 191.157 172.051 191.227C172.163 191.297 172.252 191.396 172.309 191.514L173.638 193.868L174.96 191.529C175.023 191.405 175.12 191.299 175.24 191.224C175.36 191.149 175.498 191.107 175.641 191.103C175.74 191.102 175.838 191.123 175.928 191.162C176.019 191.201 176.099 191.259 176.165 191.331C176.238 191.402 176.295 191.487 176.334 191.58C176.373 191.672 176.392 191.772 176.392 191.872C176.389 192.004 176.351 192.132 176.282 192.245L174.867 194.454L177.62 194.355C177.721 194.345 177.823 194.357 177.92 194.389C178.016 194.42 178.104 194.472 178.178 194.54C178.253 194.608 178.311 194.69 178.35 194.782C178.388 194.874 178.406 194.972 178.402 195.071C178.404 195.259 178.334 195.441 178.207 195.582C178.133 195.653 178.045 195.708 177.948 195.743C177.851 195.778 177.747 195.793 177.643 195.787L174.882 195.703L176.251 197.874C176.328 197.995 176.369 198.135 176.368 198.278C176.369 198.378 176.348 198.478 176.306 198.57C176.264 198.662 176.203 198.744 176.126 198.811C176.058 198.882 175.976 198.939 175.884 198.979C175.793 199.018 175.694 199.039 175.594 199.04C175.461 199.037 175.332 198.997 175.222 198.924C175.112 198.851 175.026 198.748 174.976 198.628L173.662 196.343L172.363 198.628C172.304 198.754 172.207 198.86 172.086 198.933C171.966 199.006 171.825 199.043 171.683 199.04Z" fill="#263238"/>
<path d="M184.37 199.04C184.165 199.039 183.969 198.959 183.823 198.819C183.702 198.699 183.624 198.544 183.603 198.377C183.582 198.211 183.618 198.042 183.705 197.897L185.106 195.703L182.368 195.787C182.263 195.792 182.159 195.776 182.061 195.741C181.963 195.705 181.873 195.651 181.797 195.582C181.669 195.442 181.599 195.262 181.599 195.075C181.599 194.888 181.669 194.708 181.797 194.568C181.872 194.497 181.962 194.442 182.06 194.405C182.158 194.369 182.263 194.352 182.368 194.355L185.074 194.454L183.682 192.268C183.606 192.149 183.566 192.012 183.565 191.872C183.568 191.671 183.652 191.48 183.799 191.339C183.945 191.198 184.142 191.119 184.347 191.118C184.48 191.119 184.611 191.157 184.723 191.227C184.835 191.297 184.924 191.396 184.981 191.514L186.31 193.868L187.632 191.529C187.695 191.405 187.792 191.299 187.912 191.224C188.031 191.149 188.17 191.107 188.313 191.103C188.413 191.102 188.512 191.122 188.604 191.162C188.696 191.201 188.778 191.259 188.845 191.331C188.988 191.476 189.067 191.671 189.064 191.872C189.061 192.004 189.023 192.132 188.954 192.245L187.538 194.454L190.292 194.355C190.393 194.345 190.495 194.357 190.592 194.389C190.688 194.42 190.776 194.472 190.85 194.54C190.924 194.608 190.983 194.69 191.021 194.782C191.06 194.874 191.078 194.972 191.074 195.071C191.076 195.259 191.006 195.441 190.879 195.582C190.805 195.653 190.717 195.708 190.62 195.743C190.522 195.778 190.419 195.793 190.315 195.787L187.554 195.703L188.923 197.874C189 197.995 189.041 198.135 189.04 198.278C189.041 198.378 189.02 198.478 188.978 198.57C188.936 198.662 188.875 198.744 188.798 198.811C188.73 198.882 188.648 198.939 188.556 198.979C188.465 199.018 188.366 199.039 188.266 199.04C188.133 199.037 188.003 198.997 187.894 198.924C187.784 198.851 187.698 198.748 187.648 198.628L186.334 196.343L185.035 198.628C184.977 198.752 184.883 198.856 184.765 198.929C184.647 199.002 184.51 199.04 184.37 199.04Z" fill="#263238"/>
<path d="M197.059 199.04C196.856 199.037 196.663 198.958 196.519 198.819C196.442 198.752 196.381 198.669 196.339 198.578C196.297 198.486 196.276 198.386 196.276 198.286C196.279 198.148 196.319 198.014 196.394 197.897L197.794 195.703L195.056 195.787C194.955 195.795 194.854 195.781 194.759 195.749C194.664 195.716 194.577 195.664 194.503 195.597C194.429 195.53 194.371 195.448 194.332 195.358C194.292 195.267 194.273 195.17 194.274 195.071C194.273 194.978 194.292 194.886 194.328 194.799C194.364 194.713 194.418 194.635 194.485 194.568C194.557 194.495 194.645 194.438 194.742 194.401C194.84 194.364 194.944 194.348 195.048 194.355L197.755 194.454L196.363 192.268C196.287 192.149 196.246 192.012 196.245 191.872C196.248 191.671 196.332 191.48 196.48 191.339C196.626 191.198 196.822 191.119 197.027 191.118C197.161 191.119 197.291 191.157 197.403 191.227C197.515 191.297 197.605 191.396 197.661 191.514L198.991 193.868L200.321 191.529C200.383 191.406 200.478 191.301 200.596 191.226C200.715 191.151 200.852 191.108 200.993 191.103C201.093 191.102 201.193 191.122 201.284 191.162C201.376 191.201 201.458 191.259 201.525 191.331C201.669 191.476 201.748 191.671 201.744 191.872C201.744 192.003 201.709 192.131 201.643 192.245L200.227 194.454L202.972 194.355C203.077 194.348 203.181 194.364 203.278 194.401C203.376 194.438 203.464 194.495 203.536 194.568C203.669 194.703 203.742 194.884 203.739 195.071C203.738 195.26 203.666 195.442 203.536 195.582C203.462 195.653 203.374 195.708 203.277 195.743C203.18 195.778 203.076 195.793 202.972 195.787L200.211 195.703L201.58 197.874C201.657 197.995 201.698 198.135 201.697 198.278C201.694 198.479 201.61 198.67 201.463 198.811C201.32 198.953 201.127 199.035 200.923 199.04C200.79 199.037 200.66 198.997 200.551 198.924C200.441 198.851 200.355 198.748 200.305 198.628L198.991 196.343L197.692 198.628C197.636 198.747 197.547 198.848 197.435 198.921C197.323 198.994 197.193 199.035 197.059 199.04Z" fill="#263238"/>
<g style="mix-blend-mode:multiply">
<path d="M236.521 44.7305H98.0501V53.1776H236.521V44.7305Z" fill="#779E1C"/>
</g>
<path d="M182.344 29.1685H152.228C151.685 29.1685 151.164 28.9582 150.779 28.584C150.395 28.2097 150.179 27.7021 150.179 27.1729C150.179 26.6436 150.395 26.136 150.779 25.7617C151.164 25.3875 151.685 25.1772 152.228 25.1772H182.344C182.888 25.1772 183.409 25.3875 183.794 25.7617C184.178 26.136 184.394 26.6436 184.394 27.1729C184.394 27.7021 184.178 28.2097 183.794 28.584C183.409 28.9582 182.888 29.1685 182.344 29.1685Z" fill="#779E1C" stroke="#263238" stroke-width="0.957031" stroke-linecap="round" stroke-linejoin="round"/>
<path d="M175.5 274.911C175.502 273.329 175.021 271.782 174.119 270.465C173.217 269.149 171.934 268.123 170.433 267.516C168.932 266.91 167.28 266.751 165.686 267.059C164.092 267.368 162.628 268.13 161.479 269.249C160.33 270.368 159.547 271.793 159.231 273.345C158.914 274.898 159.077 276.506 159.7 277.968C160.322 279.43 161.376 280.679 162.728 281.557C164.08 282.435 165.669 282.903 167.294 282.902C169.47 282.9 171.556 282.057 173.094 280.559C174.633 279.061 175.498 277.03 175.5 274.911Z" fill="#779E1C"/>
<path d="M171.457 270.859H163.134V278.963H171.457V270.859Z" fill="#779E1C" stroke="#263238" stroke-width="0.957031" stroke-linecap="round" stroke-linejoin="round"/>
<path d="M266.433 182.944C266.433 182.944 255.528 155.965 265.236 152.759C275.342 149.415 274.896 167.231 274.505 175.914C273.684 194.469 271.58 197.919 270.007 193.387L266.433 182.944ZM263.155 203.99C266.151 207.798 266.996 203.853 261.591 186.037C259.056 177.658 253.549 160.711 245.101 167.071C236.989 173.164 256.295 195.253 256.295 195.253L263.155 203.99ZM257.366 219.452C260.222 221.92 260.276 218.804 253.494 205.94C250.311 199.915 243.576 187.72 238.061 193.753C232.765 199.572 250.811 213.716 250.811 213.716L257.366 219.452ZM251.109 237.839C253.964 240.314 254.018 237.192 247.237 224.334C244.053 218.309 237.318 206.107 231.803 212.147C226.539 217.982 244.53 232.126 244.53 232.126L251.109 237.839ZM269.178 200.41C264.61 202.146 268.24 204.035 287.318 203.982C296.267 203.982 314.54 203.586 310.644 193.905C306.913 184.605 279.738 196.449 279.738 196.449L269.178 200.41ZM263.976 212.78C259.142 213.595 262.318 216.154 281.029 219.795C289.798 221.508 307.781 224.669 305.943 214.463C304.183 204.622 275.131 210.974 275.131 210.974L263.976 212.78ZM258.157 227.884C254.042 228.463 256.67 230.694 272.401 234.198C279.777 235.843 294.914 238.928 293.6 230.222C292.348 221.844 267.629 226.581 267.629 226.581L258.157 227.884ZM253.737 241.876C249.708 242.874 252.564 244.824 268.599 246.682C276.109 247.55 291.495 249.059 289.25 240.535C287.084 232.355 263.022 239.598 263.022 239.598L253.737 241.876ZM277.313 185.229C274.967 190.348 279.84 189.571 296.408 175.495C304.167 168.891 319.734 155.074 307.406 148.196C295.571 141.585 282.844 173.484 282.844 173.484L277.313 185.229ZM254.347 260.103C251.867 261.512 254.3 262.061 265.674 259.852C271.009 258.823 281.858 256.538 278.19 252.029C274.638 247.688 260.089 256.828 260.089 256.828L254.347 260.103Z" fill="#779E1C"/>
<path opacity="0.3" d="M266.433 182.944C266.433 182.944 255.528 155.965 265.236 152.759C275.342 149.415 274.896 167.231 274.505 175.914C273.684 194.469 271.58 197.919 270.007 193.387L266.433 182.944ZM263.155 203.99C266.151 207.798 266.996 203.853 261.591 186.037C259.056 177.658 253.549 160.711 245.101 167.071C236.989 173.164 256.295 195.253 256.295 195.253L263.155 203.99ZM257.366 219.452C260.222 221.92 260.276 218.804 253.494 205.94C250.311 199.915 243.576 187.72 238.061 193.753C232.765 199.572 250.811 213.716 250.811 213.716L257.366 219.452ZM251.109 237.839C253.964 240.314 254.018 237.192 247.237 224.334C244.053 218.309 237.318 206.107 231.803 212.147C226.539 217.982 244.53 232.126 244.53 232.126L251.109 237.839ZM269.178 200.41C264.61 202.146 268.24 204.035 287.318 203.982C296.267 203.982 314.54 203.586 310.644 193.905C306.913 184.605 279.738 196.449 279.738 196.449L269.178 200.41ZM263.976 212.78C259.142 213.595 262.318 216.154 281.029 219.795C289.798 221.508 307.781 224.669 305.943 214.463C304.183 204.622 275.131 210.974 275.131 210.974L263.976 212.78ZM258.157 227.884C254.042 228.463 256.67 230.694 272.401 234.198C279.777 235.843 294.914 238.928 293.6 230.222C292.348 221.844 267.629 226.581 267.629 226.581L258.157 227.884ZM253.737 241.876C249.708 242.874 252.564 244.824 268.599 246.682C276.109 247.55 291.495 249.059 289.25 240.535C287.084 232.355 263.022 239.598 263.022 239.598L253.737 241.876ZM277.313 185.229C274.967 190.348 279.84 189.571 296.408 175.495C304.167 168.891 319.734 155.074 307.406 148.196C295.571 141.585 282.844 173.484 282.844 173.484L277.313 185.229ZM254.347 260.103C251.867 261.512 254.3 262.061 265.674 259.852C271.009 258.823 281.858 256.538 278.19 252.029C274.638 247.688 260.089 256.828 260.089 256.828L254.347 260.103Z" fill="white"/>
<path d="M271.242 195.504L269.341 164.71L271.242 195.504ZM265.227 205.665L253.212 179.182L265.227 205.665ZM296.234 197.965L267.44 201.986L296.234 197.965ZM259 219.939L243.41 200.463L259 219.939ZM261.738 213.968L283.218 215.019L261.738 213.968ZM256.653 228.904L273.08 230.489L256.653 228.904ZM252.687 238.395L244.529 226.444L252.687 238.395ZM251.749 242.615L271.062 242.79L251.749 242.615ZM247.838 277.896C247.967 277.886 248.087 277.827 248.172 277.732C248.257 277.636 248.3 277.512 248.291 277.386C247.063 259.425 254.197 230.009 265.641 205.863C272.955 190.432 301.624 160.101 301.929 159.797C302.021 159.707 302.073 159.585 302.073 159.458C302.073 159.331 302.021 159.209 301.929 159.119C301.884 159.075 301.83 159.039 301.771 159.016C301.712 158.992 301.649 158.979 301.585 158.979C301.521 158.979 301.458 158.992 301.398 159.016C301.339 159.039 301.286 159.075 301.241 159.119C300.951 159.423 272.165 189.868 264.789 205.437C253.133 230.169 246.093 259.052 247.345 277.447C247.355 277.568 247.411 277.681 247.502 277.764C247.593 277.847 247.713 277.894 247.838 277.896ZM271.234 195.977C271.364 195.969 271.485 195.912 271.571 195.818C271.657 195.724 271.702 195.6 271.696 195.474L269.826 164.664C269.823 164.601 269.807 164.54 269.78 164.483C269.752 164.426 269.713 164.375 269.665 164.334C269.617 164.292 269.561 164.26 269.5 164.239C269.439 164.219 269.374 164.21 269.31 164.214C269.181 164.222 269.06 164.279 268.973 164.374C268.887 164.468 268.842 164.591 268.848 164.717L270.749 195.512C270.755 195.633 270.809 195.748 270.899 195.831C270.99 195.915 271.11 195.962 271.234 195.961V195.977ZM265.399 206.1C265.516 206.048 265.608 205.954 265.655 205.837C265.701 205.72 265.699 205.59 265.649 205.475L253.626 178.991C253.574 178.876 253.478 178.786 253.357 178.74C253.237 178.694 253.103 178.697 252.985 178.747C252.866 178.798 252.774 178.892 252.727 179.009C252.68 179.126 252.683 179.257 252.734 179.372L264.75 205.856C264.787 205.941 264.849 206.013 264.929 206.065C265.008 206.116 265.1 206.144 265.195 206.145C265.276 206.149 265.357 206.134 265.43 206.1H265.399ZM267.48 202.443L296.258 198.437C296.327 198.436 296.396 198.42 296.459 198.391C296.521 198.362 296.577 198.32 296.622 198.269C296.668 198.217 296.701 198.157 296.721 198.092C296.74 198.027 296.745 197.959 296.736 197.892C296.726 197.825 296.703 197.761 296.666 197.703C296.629 197.646 296.58 197.597 296.522 197.559C296.465 197.521 296.399 197.496 296.331 197.484C296.262 197.473 296.192 197.476 296.125 197.492L267.347 201.499C267.218 201.507 267.098 201.565 267.013 201.659C266.928 201.753 266.885 201.876 266.893 202.002C266.901 202.127 266.96 202.244 267.057 202.327C267.154 202.409 267.28 202.452 267.409 202.443H267.48ZM259.274 220.32C259.376 220.242 259.442 220.128 259.459 220.002C259.475 219.877 259.439 219.75 259.36 219.65L243.762 200.136C243.682 200.035 243.565 199.969 243.435 199.952C243.305 199.936 243.174 199.97 243.07 200.048C242.966 200.126 242.898 200.24 242.882 200.367C242.865 200.493 242.9 200.621 242.98 200.722L258.609 220.267C258.654 220.324 258.712 220.37 258.779 220.402C258.845 220.433 258.918 220.45 258.992 220.45C259.109 220.444 259.22 220.398 259.305 220.32H259.274ZM283.648 215.042C283.653 214.916 283.606 214.793 283.518 214.7C283.43 214.608 283.308 214.553 283.179 214.547L261.738 213.488C261.617 213.496 261.504 213.547 261.42 213.631C261.335 213.715 261.285 213.826 261.279 213.944C261.274 214.061 261.312 214.176 261.388 214.268C261.464 214.36 261.572 214.421 261.691 214.44L283.171 215.499C283.301 215.503 283.426 215.457 283.522 215.372C283.617 215.286 283.673 215.168 283.68 215.042H283.648ZM273.534 230.534C273.542 230.472 273.536 230.408 273.518 230.348C273.5 230.287 273.47 230.231 273.429 230.182C273.388 230.133 273.338 230.092 273.28 230.062C273.223 230.033 273.16 230.014 273.096 230.009L256.669 228.432C256.605 228.426 256.541 228.432 256.48 228.45C256.418 228.468 256.361 228.498 256.312 228.537C256.262 228.577 256.221 228.626 256.191 228.681C256.161 228.736 256.143 228.797 256.137 228.859C256.126 228.984 256.166 229.108 256.248 229.205C256.33 229.301 256.447 229.363 256.575 229.377L273.002 230.961H273.049C273.175 230.969 273.3 230.93 273.396 230.85C273.493 230.77 273.553 230.657 273.565 230.534H273.534ZM252.922 238.791C253.031 238.721 253.107 238.612 253.133 238.488C253.159 238.364 253.134 238.235 253.063 238.128L244.943 226.178C244.869 226.075 244.757 226.004 244.63 225.979C244.503 225.955 244.371 225.98 244.263 226.048C244.154 226.118 244.078 226.227 244.052 226.351C244.026 226.475 244.051 226.605 244.122 226.711L252.242 238.662C252.288 238.727 252.35 238.78 252.422 238.817C252.494 238.855 252.575 238.874 252.656 238.875C252.762 238.88 252.867 238.851 252.953 238.791H252.922ZM271.555 242.79C271.553 242.665 271.502 242.545 271.411 242.455C271.321 242.366 271.199 242.314 271.07 242.31L251.757 242.135C251.628 242.135 251.505 242.185 251.414 242.273C251.323 242.362 251.272 242.482 251.272 242.607C251.27 242.67 251.281 242.733 251.304 242.791C251.328 242.85 251.363 242.903 251.408 242.948C251.454 242.993 251.508 243.029 251.568 243.052C251.628 243.076 251.692 243.088 251.757 243.087L271.07 243.262C271.136 243.265 271.202 243.255 271.264 243.233C271.326 243.211 271.383 243.177 271.431 243.133C271.479 243.089 271.518 243.035 271.544 242.977C271.571 242.918 271.585 242.854 271.586 242.79H271.555ZM245.64 270.911C245.679 270.827 248.972 261.992 258.875 259.882C259.003 259.855 259.114 259.779 259.184 259.672C259.254 259.565 259.278 259.435 259.25 259.311C259.219 259.189 259.14 259.084 259.031 259.017C258.922 258.95 258.79 258.927 258.664 258.953C248.221 261.177 244.756 270.508 244.717 270.599C244.676 270.719 244.686 270.85 244.742 270.964C244.799 271.077 244.899 271.165 245.022 271.208H245.178C245.282 271.217 245.386 271.193 245.475 271.139C245.564 271.086 245.632 271.006 245.671 270.911H245.64ZM247.838 277.896C247.967 277.886 248.087 277.827 248.172 277.732C248.257 277.636 248.3 277.512 248.291 277.386C247.063 259.425 254.197 230.009 265.641 205.863C272.955 190.432 301.624 160.101 301.929 159.797C302.021 159.707 302.073 159.585 302.073 159.458C302.073 159.331 302.021 159.209 301.929 159.119C301.884 159.075 301.83 159.039 301.771 159.016C301.712 158.992 301.649 158.979 301.585 158.979C301.521 158.979 301.458 158.992 301.398 159.016C301.339 159.039 301.286 159.075 301.241 159.119C300.951 159.423 272.165 189.868 264.789 205.437C253.133 230.169 246.093 259.052 247.345 277.447C247.355 277.568 247.411 277.681 247.502 277.764C247.593 277.847 247.713 277.894 247.838 277.896ZM271.234 195.977C271.364 195.969 271.485 195.912 271.571 195.818C271.657 195.724 271.702 195.6 271.696 195.474L269.826 164.664C269.823 164.601 269.807 164.54 269.78 164.483C269.752 164.426 269.713 164.375 269.665 164.334C269.617 164.292 269.561 164.26 269.5 164.239C269.439 164.219 269.374 164.21 269.31 164.214C269.181 164.222 269.06 164.279 268.973 164.374C268.887 164.468 268.842 164.591 268.848 164.717L270.749 195.512C270.755 195.633 270.809 195.748 270.899 195.831C270.99 195.915 271.11 195.962 271.234 195.961V195.977ZM265.399 206.1C265.516 206.048 265.608 205.954 265.655 205.837C265.701 205.72 265.699 205.59 265.649 205.475L253.626 178.991C253.574 178.876 253.478 178.786 253.357 178.74C253.237 178.694 253.103 178.697 252.985 178.747C252.866 178.798 252.774 178.892 252.727 179.009C252.68 179.126 252.683 179.257 252.734 179.372L264.75 205.856C264.787 205.941 264.849 206.013 264.929 206.065C265.008 206.116 265.1 206.144 265.195 206.145C265.276 206.149 265.357 206.134 265.43 206.1H265.399ZM267.48 202.443L296.258 198.437C296.327 198.436 296.396 198.42 296.459 198.391C296.521 198.362 296.577 198.32 296.622 198.269C296.668 198.217 296.701 198.157 296.721 198.092C296.74 198.027 296.745 197.959 296.736 197.892C296.726 197.825 296.703 197.761 296.666 197.703C296.629 197.646 296.58 197.597 296.522 197.559C296.465 197.521 296.399 197.496 296.331 197.484C296.262 197.473 296.192 197.476 296.125 197.492L267.347 201.499C267.218 201.507 267.098 201.565 267.013 201.659C266.928 201.753 266.885 201.876 266.893 202.002C266.901 202.127 266.96 202.244 267.057 202.327C267.154 202.409 267.28 202.452 267.409 202.443H267.48ZM259.274 220.32C259.376 220.242 259.442 220.128 259.459 220.002C259.475 219.877 259.439 219.75 259.36 219.65L243.762 200.136C243.723 200.086 243.673 200.044 243.617 200.012C243.561 199.981 243.499 199.96 243.435 199.952C243.37 199.944 243.305 199.948 243.243 199.965C243.18 199.981 243.121 200.009 243.07 200.048C243.019 200.086 242.975 200.134 242.943 200.189C242.911 200.244 242.89 200.304 242.882 200.367C242.873 200.429 242.878 200.493 242.894 200.554C242.911 200.615 242.94 200.672 242.98 200.722L258.609 220.267C258.654 220.324 258.712 220.37 258.779 220.402C258.845 220.433 258.918 220.45 258.992 220.45C259.109 220.444 259.22 220.398 259.305 220.32H259.274ZM283.648 215.042C283.653 214.916 283.606 214.793 283.518 214.7C283.43 214.608 283.308 214.553 283.179 214.547L261.738 213.488C261.617 213.496 261.504 213.547 261.42 213.631C261.335 213.715 261.285 213.826 261.279 213.944C261.274 214.061 261.312 214.176 261.388 214.268C261.464 214.36 261.572 214.421 261.691 214.44L283.171 215.499C283.301 215.503 283.426 215.457 283.522 215.372C283.617 215.286 283.673 215.168 283.68 215.042H283.648ZM273.534 230.534C273.542 230.472 273.536 230.408 273.518 230.348C273.5 230.287 273.47 230.231 273.429 230.182C273.388 230.133 273.338 230.092 273.28 230.062C273.223 230.033 273.16 230.014 273.096 230.009L256.669 228.432C256.605 228.426 256.541 228.432 256.48 228.45C256.418 228.468 256.361 228.498 256.312 228.537C256.262 228.577 256.221 228.626 256.191 228.681C256.161 228.736 256.143 228.797 256.137 228.859C256.126 228.984 256.166 229.108 256.248 229.205C256.33 229.301 256.447 229.363 256.575 229.377L273.002 230.961H273.049C273.175 230.969 273.3 230.93 273.396 230.85C273.493 230.77 273.553 230.657 273.565 230.534H273.534ZM252.922 238.791C253.031 238.721 253.107 238.612 253.133 238.488C253.159 238.364 253.134 238.235 253.063 238.128L244.943 226.178C244.869 226.075 244.757 226.004 244.63 225.979C244.503 225.955 244.371 225.98 244.263 226.048C244.154 226.118 244.078 226.227 244.052 226.351C244.026 226.475 244.051 226.605 244.122 226.711L252.242 238.662C252.288 238.727 252.35 238.78 252.422 238.817C252.494 238.855 252.575 238.874 252.656 238.875C252.762 238.88 252.867 238.851 252.953 238.791H252.922ZM271.555 242.79C271.553 242.665 271.502 242.545 271.411 242.455C271.321 242.366 271.199 242.314 271.07 242.31L251.757 242.135C251.628 242.135 251.505 242.185 251.414 242.273C251.323 242.362 251.272 242.482 251.272 242.607C251.27 242.67 251.281 242.733 251.304 242.791C251.328 242.85 251.363 242.903 251.408 242.948C251.454 242.993 251.508 243.029 251.568 243.052C251.628 243.076 251.692 243.088 251.757 243.087L271.07 243.262C271.136 243.265 271.202 243.255 271.264 243.233C271.326 243.211 271.383 243.177 271.431 243.133C271.479 243.089 271.518 243.035 271.544 242.977C271.571 242.918 271.585 242.854 271.586 242.79H271.555ZM245.64 270.911C245.679 270.827 248.972 261.992 258.875 259.882C259.003 259.855 259.114 259.779 259.184 259.672C259.254 259.565 259.278 259.435 259.25 259.311C259.219 259.189 259.14 259.084 259.031 259.017C258.922 258.95 258.79 258.927 258.664 258.953C248.221 261.177 244.756 270.508 244.717 270.599C244.676 270.719 244.686 270.85 244.742 270.964C244.799 271.077 244.899 271.165 245.022 271.208H245.178C245.282 271.217 245.386 271.193 245.475 271.139C245.564 271.086 245.632 271.006 245.671 270.911H245.64Z" fill="#779E1C"/>
<path opacity="0.2" d="M271.242 195.504L269.341 164.71L271.242 195.504ZM265.227 205.665L253.212 179.182L265.227 205.665ZM296.234 197.965L267.44 201.986L296.234 197.965ZM259 219.939L243.41 200.463L259 219.939ZM261.738 213.968L283.218 215.019L261.738 213.968ZM256.653 228.904L273.08 230.489L256.653 228.904ZM252.687 238.395L244.529 226.444L252.687 238.395ZM251.749 242.615L271.062 242.79L251.749 242.615ZM247.838 277.896C247.967 277.886 248.087 277.827 248.172 277.732C248.257 277.636 248.3 277.512 248.291 277.386C247.063 259.425 254.197 230.009 265.641 205.863C272.955 190.432 301.624 160.101 301.929 159.797C302.021 159.707 302.073 159.585 302.073 159.458C302.073 159.331 302.021 159.209 301.929 159.119C301.884 159.075 301.83 159.039 301.771 159.016C301.712 158.992 301.649 158.979 301.585 158.979C301.521 158.979 301.458 158.992 301.398 159.016C301.339 159.039 301.286 159.075 301.241 159.119C300.951 159.423 272.165 189.868 264.789 205.437C253.133 230.169 246.093 259.052 247.345 277.447C247.355 277.568 247.411 277.681 247.502 277.764C247.593 277.847 247.713 277.894 247.838 277.896ZM271.234 195.977C271.364 195.969 271.485 195.912 271.571 195.818C271.657 195.724 271.702 195.6 271.696 195.474L269.826 164.664C269.823 164.601 269.807 164.54 269.78 164.483C269.752 164.426 269.713 164.375 269.665 164.334C269.617 164.292 269.561 164.26 269.5 164.239C269.439 164.219 269.374 164.21 269.31 164.214C269.181 164.222 269.06 164.279 268.973 164.374C268.887 164.468 268.842 164.591 268.848 164.717L270.749 195.512C270.755 195.633 270.809 195.748 270.899 195.831C270.99 195.915 271.11 195.962 271.234 195.961V195.977ZM265.399 206.1C265.516 206.048 265.608 205.954 265.655 205.837C265.701 205.72 265.699 205.59 265.649 205.475L253.626 178.991C253.574 178.876 253.478 178.786 253.357 178.74C253.237 178.694 253.103 178.697 252.985 178.747C252.866 178.798 252.774 178.892 252.727 179.009C252.68 179.126 252.683 179.257 252.734 179.372L264.75 205.856C264.787 205.941 264.849 206.013 264.929 206.065C265.008 206.116 265.1 206.144 265.195 206.145C265.276 206.149 265.357 206.134 265.43 206.1H265.399ZM267.48 202.443L296.258 198.437C296.327 198.436 296.396 198.42 296.459 198.391C296.521 198.362 296.577 198.32 296.622 198.269C296.668 198.217 296.701 198.157 296.721 198.092C296.74 198.027 296.745 197.959 296.736 197.892C296.726 197.825 296.703 197.761 296.666 197.703C296.629 197.646 296.58 197.597 296.522 197.559C296.465 197.521 296.399 197.496 296.331 197.484C296.262 197.473 296.192 197.476 296.125 197.492L267.347 201.499C267.218 201.507 267.098 201.565 267.013 201.659C266.928 201.753 266.885 201.876 266.893 202.002C266.901 202.127 266.96 202.244 267.057 202.327C267.154 202.409 267.28 202.452 267.409 202.443H267.48ZM259.274 220.32C259.376 220.242 259.442 220.128 259.459 220.002C259.475 219.877 259.439 219.75 259.36 219.65L243.762 200.136C243.682 200.035 243.565 199.969 243.435 199.952C243.305 199.936 243.174 199.97 243.07 200.048C242.966 200.126 242.898 200.24 242.882 200.367C242.865 200.493 242.9 200.621 242.98 200.722L258.609 220.267C258.654 220.324 258.712 220.37 258.779 220.402C258.845 220.433 258.918 220.45 258.992 220.45C259.109 220.444 259.22 220.398 259.305 220.32H259.274ZM283.648 215.042C283.653 214.916 283.606 214.793 283.518 214.7C283.43 214.608 283.308 214.553 283.179 214.547L261.738 213.488C261.617 213.496 261.504 213.547 261.42 213.631C261.335 213.715 261.285 213.826 261.279 213.944C261.274 214.061 261.312 214.176 261.388 214.268C261.464 214.36 261.572 214.421 261.691 214.44L283.171 215.499C283.301 215.503 283.426 215.457 283.522 215.372C283.617 215.286 283.673 215.168 283.68 215.042H283.648ZM273.534 230.534C273.542 230.472 273.536 230.408 273.518 230.348C273.5 230.287 273.47 230.231 273.429 230.182C273.388 230.133 273.338 230.092 273.28 230.062C273.223 230.033 273.16 230.014 273.096 230.009L256.669 228.432C256.605 228.426 256.541 228.432 256.48 228.45C256.418 228.468 256.361 228.498 256.312 228.537C256.262 228.577 256.221 228.626 256.191 228.681C256.161 228.736 256.143 228.797 256.137 228.859C256.126 228.984 256.166 229.108 256.248 229.205C256.33 229.301 256.447 229.363 256.575 229.377L273.002 230.961H273.049C273.175 230.969 273.3 230.93 273.396 230.85C273.493 230.77 273.553 230.657 273.565 230.534H273.534ZM252.922 238.791C253.031 238.721 253.107 238.612 253.133 238.488C253.159 238.364 253.134 238.235 253.063 238.128L244.943 226.178C244.869 226.075 244.757 226.004 244.63 225.979C244.503 225.955 244.371 225.98 244.263 226.048C244.154 226.118 244.078 226.227 244.052 226.351C244.026 226.475 244.051 226.605 244.122 226.711L252.242 238.662C252.288 238.727 252.35 238.78 252.422 238.817C252.494 238.855 252.575 238.874 252.656 238.875C252.762 238.88 252.867 238.851 252.953 238.791H252.922ZM271.555 242.79C271.553 242.665 271.502 242.545 271.411 242.455C271.321 242.366 271.199 242.314 271.07 242.31L251.757 242.135C251.628 242.135 251.505 242.185 251.414 242.273C251.323 242.362 251.272 242.482 251.272 242.607C251.27 242.67 251.281 242.733 251.304 242.791C251.328 242.85 251.363 242.903 251.408 242.948C251.454 242.993 251.508 243.029 251.568 243.052C251.628 243.076 251.692 243.088 251.757 243.087L271.07 243.262C271.136 243.265 271.202 243.255 271.264 243.233C271.326 243.211 271.383 243.177 271.431 243.133C271.479 243.089 271.518 243.035 271.544 242.977C271.571 242.918 271.585 242.854 271.586 242.79H271.555ZM245.64 270.911C245.679 270.827 248.972 261.992 258.875 259.882C259.003 259.855 259.114 259.779 259.184 259.672C259.254 259.565 259.278 259.435 259.25 259.311C259.219 259.189 259.14 259.084 259.031 259.017C258.922 258.95 258.79 258.927 258.664 258.953C248.221 261.177 244.756 270.508 244.717 270.599C244.676 270.719 244.686 270.85 244.742 270.964C244.799 271.077 244.899 271.165 245.022 271.208H245.178C245.282 271.217 245.386 271.193 245.475 271.139C245.564 271.086 245.632 271.006 245.671 270.911H245.64ZM247.838 277.896C247.967 277.886 248.087 277.827 248.172 277.732C248.257 277.636 248.3 277.512 248.291 277.386C247.063 259.425 254.197 230.009 265.641 205.863C272.955 190.432 301.624 160.101 301.929 159.797C302.021 159.707 302.073 159.585 302.073 159.458C302.073 159.331 302.021 159.209 301.929 159.119C301.884 159.075 301.83 159.039 301.771 159.016C301.712 158.992 301.649 158.979 301.585 158.979C301.521 158.979 301.458 158.992 301.398 159.016C301.339 159.039 301.286 159.075 301.241 159.119C300.951 159.423 272.165 189.868 264.789 205.437C253.133 230.169 246.093 259.052 247.345 277.447C247.355 277.568 247.411 277.681 247.502 277.764C247.593 277.847 247.713 277.894 247.838 277.896ZM271.234 195.977C271.364 195.969 271.485 195.912 271.571 195.818C271.657 195.724 271.702 195.6 271.696 195.474L269.826 164.664C269.823 164.601 269.807 164.54 269.78 164.483C269.752 164.426 269.713 164.375 269.665 164.334C269.617 164.292 269.561 164.26 269.5 164.239C269.439 164.219 269.374 164.21 269.31 164.214C269.181 164.222 269.06 164.279 268.973 164.374C268.887 164.468 268.842 164.591 268.848 164.717L270.749 195.512C270.755 195.633 270.809 195.748 270.899 195.831C270.99 195.915 271.11 195.962 271.234 195.961V195.977ZM265.399 206.1C265.516 206.048 265.608 205.954 265.655 205.837C265.701 205.72 265.699 205.59 265.649 205.475L253.626 178.991C253.574 178.876 253.478 178.786 253.357 178.74C253.237 178.694 253.103 178.697 252.985 178.747C252.866 178.798 252.774 178.892 252.727 179.009C252.68 179.126 252.683 179.257 252.734 179.372L264.75 205.856C264.787 205.941 264.849 206.013 264.929 206.065C265.008 206.116 265.1 206.144 265.195 206.145C265.276 206.149 265.357 206.134 265.43 206.1H265.399ZM267.48 202.443L296.258 198.437C296.327 198.436 296.396 198.42 296.459 198.391C296.521 198.362 296.577 198.32 296.622 198.269C296.668 198.217 296.701 198.157 296.721 198.092C296.74 198.027 296.745 197.959 296.736 197.892C296.726 197.825 296.703 197.761 296.666 197.703C296.629 197.646 296.58 197.597 296.522 197.559C296.465 197.521 296.399 197.496 296.331 197.484C296.262 197.473 296.192 197.476 296.125 197.492L267.347 201.499C267.218 201.507 267.098 201.565 267.013 201.659C266.928 201.753 266.885 201.876 266.893 202.002C266.901 202.127 266.96 202.244 267.057 202.327C267.154 202.409 267.28 202.452 267.409 202.443H267.48ZM259.274 220.32C259.376 220.242 259.442 220.128 259.459 220.002C259.475 219.877 259.439 219.75 259.36 219.65L243.762 200.136C243.723 200.086 243.673 200.044 243.617 200.012C243.561 199.981 243.499 199.96 243.435 199.952C243.37 199.944 243.305 199.948 243.243 199.965C243.18 199.981 243.121 200.009 243.07 200.048C243.019 200.086 242.975 200.134 242.943 200.189C242.911 200.244 242.89 200.304 242.882 200.367C242.873 200.429 242.878 200.493 242.894 200.554C242.911 200.615 242.94 200.672 242.98 200.722L258.609 220.267C258.654 220.324 258.712 220.37 258.779 220.402C258.845 220.433 258.918 220.45 258.992 220.45C259.109 220.444 259.22 220.398 259.305 220.32H259.274ZM283.648 215.042C283.653 214.916 283.606 214.793 283.518 214.7C283.43 214.608 283.308 214.553 283.179 214.547L261.738 213.488C261.617 213.496 261.504 213.547 261.42 213.631C261.335 213.715 261.285 213.826 261.279 213.944C261.274 214.061 261.312 214.176 261.388 214.268C261.464 214.36 261.572 214.421 261.691 214.44L283.171 215.499C283.301 215.503 283.426 215.457 283.522 215.372C283.617 215.286 283.673 215.168 283.68 215.042H283.648ZM273.534 230.534C273.542 230.472 273.536 230.408 273.518 230.348C273.5 230.287 273.47 230.231 273.429 230.182C273.388 230.133 273.338 230.092 273.28 230.062C273.223 230.033 273.16 230.014 273.096 230.009L256.669 228.432C256.605 228.426 256.541 228.432 256.48 228.45C256.418 228.468 256.361 228.498 256.312 228.537C256.262 228.577 256.221 228.626 256.191 228.681C256.161 228.736 256.143 228.797 256.137 228.859C256.126 228.984 256.166 229.108 256.248 229.205C256.33 229.301 256.447 229.363 256.575 229.377L273.002 230.961H273.049C273.175 230.969 273.3 230.93 273.396 230.85C273.493 230.77 273.553 230.657 273.565 230.534H273.534ZM252.922 238.791C253.031 238.721 253.107 238.612 253.133 238.488C253.159 238.364 253.134 238.235 253.063 238.128L244.943 226.178C244.869 226.075 244.757 226.004 244.63 225.979C244.503 225.955 244.371 225.98 244.263 226.048C244.154 226.118 244.078 226.227 244.052 226.351C244.026 226.475 244.051 226.605 244.122 226.711L252.242 238.662C252.288 238.727 252.35 238.78 252.422 238.817C252.494 238.855 252.575 238.874 252.656 238.875C252.762 238.88 252.867 238.851 252.953 238.791H252.922ZM271.555 242.79C271.553 242.665 271.502 242.545 271.411 242.455C271.321 242.366 271.199 242.314 271.07 242.31L251.757 242.135C251.628 242.135 251.505 242.185 251.414 242.273C251.323 242.362 251.272 242.482 251.272 242.607C251.27 242.67 251.281 242.733 251.304 242.791C251.328 242.85 251.363 242.903 251.408 242.948C251.454 242.993 251.508 243.029 251.568 243.052C251.628 243.076 251.692 243.088 251.757 243.087L271.07 243.262C271.136 243.265 271.202 243.255 271.264 243.233C271.326 243.211 271.383 243.177 271.431 243.133C271.479 243.089 271.518 243.035 271.544 242.977C271.571 242.918 271.585 242.854 271.586 242.79H271.555ZM245.64 270.911C245.679 270.827 248.972 261.992 258.875 259.882C259.003 259.855 259.114 259.779 259.184 259.672C259.254 259.565 259.278 259.435 259.25 259.311C259.219 259.189 259.14 259.084 259.031 259.017C258.922 258.95 258.79 258.927 258.664 258.953C248.221 261.177 244.756 270.508 244.717 270.599C244.676 270.719 244.686 270.85 244.742 270.964C244.799 271.077 244.899 271.165 245.022 271.208H245.178C245.282 271.217 245.386 271.193 245.475 271.139C245.564 271.086 245.632 271.006 245.671 270.911H245.64Z" fill="black"/>
<path d="M260.613 264.468H238.468V268.931H240.4L244.397 293.282H254.683L258.681 268.931H260.613V264.468Z" fill="#779E1C"/>
<path opacity="0.3" d="M260.613 264.468H238.468V268.931H240.4L244.397 293.282H254.683L258.681 268.931H260.613V264.468Z" fill="white"/>
<path d="M61.2353 129.499L35.4764 121.311L33.1844 115.415L27.9513 115.255L18.455 113.503L19.597 115.415L31.5496 123.862L34.4986 125.294L61.4387 138.997L61.2353 129.499Z" fill="white" stroke="#263238" stroke-width="0.71843" stroke-miterlimit="10"/>
<path d="M33.1854 115.415L30.7292 113.983L25.8246 115.735L26.6381 116.687L33.1854 115.415Z" fill="white" stroke="#263238" stroke-width="0.71843" stroke-linejoin="round"/>
<path d="M61.2353 129.499L35.4764 121.311L33.1844 115.415L27.9513 115.255L18.455 113.503L19.597 115.415L31.5496 123.862L34.4986 125.294L61.4387 138.997L61.2353 129.499Z" fill="white"/>
<mask id="mask0_96_1725" style="mask-type:luminance" maskUnits="userSpaceOnUse" x="18" y="113" width="44" height="26">
<path d="M61.2353 129.499L35.4764 121.311L33.1844 115.415L27.9513 115.255L18.455 113.503L19.597 115.415L31.5496 123.862L34.4986 125.294L61.4387 138.997L61.2353 129.499Z" fill="white"/>
</mask>
<g mask="url(#mask0_96_1725)">
<path opacity="0.5" d="M61.2353 129.499L35.4764 121.311L33.1844 115.415L27.9513 115.255L18.455 113.503L19.597 115.415L31.5496 123.862L34.4986 125.294L61.4387 138.997L61.2353 129.499Z" fill="#779E1C" stroke="#263238" stroke-width="0.71843" stroke-miterlimit="10"/>
</g>
<path d="M61.2353 129.499L35.4764 121.311L33.1844 115.415L27.9513 115.255L18.455 113.503L19.597 115.415L31.5495 123.862L34.4986 125.294L61.4387 138.997L61.2353 129.499Z" stroke="#263238" stroke-width="0.71843" stroke-miterlimit="10"/>
<path d="M33.1854 115.415L30.7292 113.983L25.8246 115.735L26.6381 116.687L33.1854 115.415Z" fill="white"/>
<mask id="mask1_96_1725" style="mask-type:luminance" maskUnits="userSpaceOnUse" x="25" y="113" width="9" height="4">
<path d="M33.1845 115.415L30.7283 113.984L25.8237 115.735L26.6372 116.687L33.1845 115.415Z" fill="white"/>
</mask>
<g mask="url(#mask1_96_1725)">
<path opacity="0.5" d="M33.1845 115.415L30.7283 113.984L25.8237 115.735L26.6372 116.687L33.1845 115.415Z" fill="#779E1C" stroke="#263238" stroke-width="0.71843" stroke-linejoin="round"/>
</g>
<path d="M33.1854 115.415L30.7292 113.983L25.8246 115.735L26.6381 116.687L33.1854 115.415Z" stroke="#263238" stroke-width="0.71843" stroke-linejoin="round"/>
<path d="M66.7035 76.3554C66.7035 76.3554 66.3046 79.783 67.298 81.9843C68.2914 84.1855 73.8062 91.6424 73.8062 91.6424L63.512 99.6782C63.512 99.6782 59.241 91.2997 58.4275 89.9439C57.614 88.5881 56.6362 82.7536 59.2879 78.5719C61.9397 74.3903 65.757 73.263 66.7035 76.3554Z" fill="white"/>
<mask id="mask2_96_1725" style="mask-type:luminance" maskUnits="userSpaceOnUse" x="57" y="74" width="17" height="26">
<path d="M66.7047 76.3559C66.7047 76.3559 66.3057 79.7835 67.2992 81.9848C68.2926 84.186 73.8074 91.6429 73.8074 91.6429L63.5132 99.6787C63.5132 99.6787 59.2422 91.3002 58.4286 89.9444C57.6151 88.5886 56.6373 82.7541 59.2891 78.5724C61.9409 74.3908 65.7582 73.2635 66.7047 76.3559Z" fill="white"/>
</mask>
<g mask="url(#mask2_96_1725)">
<g style="mix-blend-mode:multiply" opacity="0.5">
<path d="M61.4158 87.3706L65.8824 96.389L63.5044 99.6871L59.0143 91.8798L61.4158 87.3706Z" fill="#779E1C"/>
</g>
</g>
<path d="M66.7035 76.3554C66.7035 76.3554 66.3046 79.783 67.298 81.9843C68.2914 84.1855 73.8062 91.6424 73.8062 91.6424L63.512 99.6782C63.512 99.6782 59.241 91.2997 58.4275 89.9439C57.614 88.5881 56.6362 82.7536 59.2879 78.5719C61.9397 74.3903 65.757 73.263 66.7035 76.3554Z" stroke="#263238" stroke-width="0.71843" stroke-miterlimit="10"/>
<path d="M69.8957 70.0792C69.2621 66.2708 64.7799 58.5245 57.6694 58.8215C53.0542 59.0196 50.8953 59.926 48.8927 61.0304C47.2604 61.9669 45.7389 63.0755 44.3558 64.3361C40.8827 68.3959 39.6624 69.508 40.3351 72.6156C40.2799 73.8552 40.4794 75.093 40.9218 76.2565C41.9856 79.0214 42.7131 80.8266 43.6361 82.1443C43.3545 83.4316 42.6192 86.8287 42.5801 87.6056C42.541 88.3825 44.9268 87.8417 46.1315 87.5447C48.3686 92.4195 52.4675 95.8013 53.7426 96.1898C55.9641 96.8677 59.4764 93.3106 61.3381 90.5533C63.1998 87.796 61.7918 84.696 61.7996 83.462C61.8074 82.2281 65.9845 79.5165 67.5334 78.6558C69.0822 77.7951 70.5215 73.8801 69.8957 70.0792Z" fill="white"/>
<mask id="mask3_96_1725" style="mask-type:luminance" maskUnits="userSpaceOnUse" x="40" y="58" width="31" height="39">
<path d="M69.8949 70.0785C69.2613 66.2701 64.7791 58.5237 57.6686 58.8208C53.0534 59.0188 50.8945 59.9252 48.8919 61.0297C47.2596 61.9661 45.7381 63.0747 44.355 64.3354C40.8819 68.3952 39.6616 69.5072 40.3343 72.6149C40.2791 73.8545 40.4786 75.0923 40.921 76.2558C41.9848 79.0207 42.7123 80.8259 43.6353 82.1436C43.3537 83.4309 42.6184 86.828 42.5793 87.6049C42.5402 88.3818 44.926 87.841 46.1307 87.5439C48.3679 92.4187 52.4668 95.8006 53.7418 96.1891C55.9633 96.867 59.4756 93.3099 61.3373 90.5526C63.199 87.7953 61.791 84.6952 61.7988 83.4613C61.8066 82.2274 65.9837 79.5158 67.5326 78.6551C69.0814 77.7944 70.5207 73.8793 69.8949 70.0785Z" fill="white"/>
</mask>
<g mask="url(#mask3_96_1725)">
<g style="mix-blend-mode:multiply" opacity="0.5">
<path d="M40.3651 72.6151C40.3099 73.8546 40.5094 75.0924 40.9518 76.2559C42.0156 79.0208 42.7431 80.826 43.6661 82.1438C43.3845 83.431 42.6492 86.8281 42.6101 87.605C42.571 88.382 44.9568 87.8412 46.1614 87.5441C48.3986 92.4189 52.4975 95.8008 53.7726 96.1892C55.9941 96.8671 59.5063 93.3101 61.3681 90.5528C61.8332 89.8644 62.1351 89.0838 62.252 88.2677C62.1503 87.9097 62.0799 87.6888 62.0799 87.6888C62.0799 87.6888 61.0317 91.6115 58.951 91.1012C56.8702 90.5908 53.6865 86.5311 51.9109 85.1296C50.1352 83.7281 50.8627 81.8848 50.5107 79.7978C50.1587 77.7108 44.902 75.8751 44.55 74.6792C44.198 73.4834 45.4261 68.5324 45.4261 68.5324C45.4261 68.5324 47.4208 65.9427 46.9906 67.0091C46.6865 67.9337 46.5762 68.9084 46.6663 69.8753C46.7563 70.8422 47.0448 71.7816 47.5147 72.6379C47.8444 73.3136 48.3675 73.8822 49.0211 74.2754C49.6747 74.6686 50.4309 74.8696 51.199 74.8544L53.1077 65.6457L49.0792 62.4009L44.3858 64.3051C40.8814 68.3953 39.6846 69.5074 40.3651 72.6151Z" fill="#779E1C"/>
</g>
</g>
<path d="M69.8957 70.0792C69.2621 66.2708 64.7799 58.5245 57.6694 58.8215C53.0542 59.0196 50.8953 59.926 48.8927 61.0304C47.2604 61.9669 45.7389 63.0755 44.3558 64.3361C40.8827 68.3959 39.6624 69.508 40.3351 72.6156C40.2799 73.8552 40.4794 75.093 40.9218 76.2565C41.9856 79.0214 42.7131 80.8266 43.6361 82.1443C43.3545 83.4316 42.6192 86.8287 42.5801 87.6056C42.541 88.3825 44.9268 87.8417 46.1315 87.5447C48.3686 92.4195 52.4675 95.8014 53.7426 96.1898C55.9641 96.8677 59.4764 93.3106 61.3381 90.5533C63.1998 87.796 61.7918 84.696 61.7996 83.462C61.8074 82.2281 65.9845 79.5165 67.5334 78.6558C69.0822 77.7951 70.5215 73.8801 69.8957 70.0792Z" stroke="#263238" stroke-width="0.715596" stroke-miterlimit="10"/>
<path d="M44.6067 79.8438L45.3889 82.0222C45.3889 82.0222 47.0707 82.563 49.1202 80.3846" stroke="#263238" stroke-width="0.715596" stroke-miterlimit="10" stroke-linecap="round"/>
<path d="M50.3859 90.0196C50.3859 90.0196 52.2476 89.8368 52.9986 87.2927" stroke="#263238" stroke-width="0.715596" stroke-miterlimit="10" stroke-linecap="round"/>
<path d="M43.2994 78.0236C43.2994 78.0236 43.8548 76.386 47.2106 76.386" stroke="#263238" stroke-width="0.715596" stroke-miterlimit="10" stroke-linecap="round"/>
<path d="M60.5011 55.7899C58.0627 55.4485 55.6037 55.2653 53.1403 55.2415C53.1403 55.2415 45.7717 51.1056 38.6925 55.5157C31.6132 59.9259 35.016 67.6494 35.016 69.5764C35.016 71.5035 32.7475 71.5111 34.1633 73.9942C35.5792 76.4773 40.3664 75.1062 40.3664 75.1062C40.417 74.1697 40.6712 73.2543 41.1121 72.4205C41.5531 71.5867 42.1708 70.8536 42.9243 70.2696C45.4744 68.3425 47.5082 67.9236 48.353 68.4796C48.353 68.4796 47.7898 72.6155 48.6346 74.2684C48.6346 74.2684 51.4663 75.6471 52.319 75.6471C53.1716 75.6471 51.7636 76.8124 54.5874 77.8483C55.1019 78.0282 55.6522 78.0895 56.1951 78.0274C56.738 77.9653 57.2587 77.7815 57.7164 77.4903C58.131 75.8146 59.0383 73.2934 60.728 73.8799C63.2077 74.7406 65.4683 80.6818 62.1125 82.7079C66.1489 83.4238 71.0378 76.4697 71.3272 70.1324C71.6167 63.7952 64.6939 56.5059 60.5011 55.7899Z" fill="#263238"/>
<path d="M48.4767 65.7603C48.4767 65.7603 50.5574 64.6711 53.1075 67.0019C55.6576 69.3326 60.6169 72.4479 67.1877 70.7341" stroke="white" stroke-width="0.357798" stroke-linecap="round" stroke-linejoin="round"/>
<path d="M48.1882 63.8938C48.1882 63.8938 49.6197 61.7153 52.0133 61.7153C54.4069 61.7153 59.9999 64.983 64.4664 64.983" stroke="white" stroke-width="0.357798" stroke-linecap="round" stroke-linejoin="round"/>
<path d="M46.5607 68.0908C46.5607 68.0908 43.8464 64.8307 41.2963 67.4738C38.7462 70.1168 40.3655 72.6152 40.3655 72.6152" stroke="white" stroke-width="0.357798" stroke-linecap="round" stroke-linejoin="round"/>
<path d="M35.7125 70.2697C37.268 68.9038 38.2349 67.0153 38.4191 64.9836C38.7398 61.5636 43.5349 58.6083 46.5621 61.4113" stroke="white" stroke-width="0.357798" stroke-linecap="round" stroke-linejoin="round"/>
<path d="M40.6547 57.831C40.6547 57.831 45.4498 53.3218 49.4392 59.0725" stroke="white" stroke-width="0.357798" stroke-linecap="round" stroke-linejoin="round"/>
<path d="M79.6811 279.535C79.6811 279.535 82.6301 283.998 82.3016 286.87L81.9809 289.741C81.9809 289.741 71.1626 292.628 68.8706 292.628C66.5787 292.628 54.4462 291.508 54.4462 291.508L53.9221 289.482C53.8854 289.333 53.9027 289.175 53.9711 289.036C54.0395 288.898 54.1548 288.786 54.2976 288.72L65.1159 283.808L68.5264 280.174L79.6811 279.535Z" fill="white" stroke="#263238" stroke-width="0.71843" stroke-miterlimit="10"/>
<path d="M70.5133 290.381C73.4467 290.602 79.0162 288.858 82.2468 287.746L82.02 289.741C82.02 289.741 71.1625 292.628 68.8706 292.628C66.5787 292.628 54.4462 291.508 54.4462 291.508L54.0707 290.061C56.0107 290.069 66.6334 290.092 70.5133 290.381Z" fill="#779E1C" stroke="#263238" stroke-width="0.71843" stroke-miterlimit="10"/>
<path d="M65.1327 283.808L49.3863 290.48C49.3863 290.48 48.0409 293.763 49.3863 294.418C50.7317 295.073 80.0655 294.418 80.0655 294.418C80.0655 294.418 82.0915 289.231 78.8922 285.75C75.6928 282.269 65.1327 283.808 65.1327 283.808Z" fill="white" stroke="#263238" stroke-width="0.71843" stroke-miterlimit="10"/>
<path d="M80.065 294.418C80.065 294.418 50.7313 295.073 49.3858 294.418C48.7366 294.098 48.7131 293.177 48.8617 292.301H80.5813C80.4776 293.021 80.3048 293.73 80.065 294.418Z" fill="#779E1C" stroke="#263238" stroke-width="0.71843" stroke-miterlimit="10"/>
<path d="M57.6846 167.872C57.6846 167.872 53.57 185.627 52.0134 196.733C50.4567 207.838 49.5415 230.087 49.8701 232.638C50.1986 235.19 66.5786 277.943 66.5786 277.943L68.2135 281.752L79.681 279.52C79.681 279.52 74.44 263.251 72.4766 254.316C70.5132 245.381 66.2188 230.704 66.2188 228.152C66.2188 225.6 76.3878 176.868 77.1153 173.669C77.8427 170.47 81.1438 165.557 81.1438 165.557L59.1865 165.123L57.6846 167.872Z" fill="#779E1C" stroke="#263238" stroke-width="0.71843" stroke-miterlimit="10"/>
<path d="M57.6858 167.871C57.6858 167.871 55.2765 184.087 56.27 195.36C57.2634 206.633 59.3989 230.634 59.3989 234.206C59.3989 237.779 65.3204 259.113 65.6568 265.816C66.1809 275.497 65.4456 280.288 65.4456 280.288L65.0936 283.8C65.0936 283.8 72.0007 284.759 73.5104 285.178C75.2541 285.616 77.0536 285.806 78.8531 285.742C78.8531 285.742 81.364 274.979 81.364 265.809C81.364 256.638 79.2755 237.763 78.2351 230.116C77.1947 222.469 80.4723 192.969 82.334 187.462C84.1957 181.955 88.2633 170.293 85.5255 164.337C82.7877 158.381 57.6858 167.871 57.6858 167.871Z" fill="#779E1C" stroke="#263238" stroke-width="0.71843" stroke-miterlimit="10"/>
<path d="M88.5687 161.352L88.3184 168.603C88.3184 168.603 83.8596 169.464 77.8521 170.477C72.8927 171.314 60.4395 170.256 56.2468 169.86C55.8647 169.827 55.5114 169.648 55.2639 169.363C55.0163 169.077 54.8944 168.709 54.9248 168.336L55.3316 161.786L88.5687 161.352Z" fill="#263238"/>
<path d="M71.1397 89.0674C71.1397 89.0674 64.0996 96.4786 61.4478 101.087C58.7961 105.695 57.7479 112.756 56.7544 118.316C55.761 123.876 58.4519 136.932 57.6931 142.926L55.2917 161.808C55.2917 161.808 54.7754 163.088 56.5041 164.489C58.2329 165.891 66.6732 166.401 74.3 166.774C77.0847 166.912 85.3998 165.167 86.7609 165.084C88.4036 164.985 88.4584 162.951 88.5288 161.351C88.8573 153.833 90.2497 133.794 91.1649 125.065C93.0501 107.264 82.7324 90.0804 71.1397 89.0674Z" fill="white" stroke="#263238" stroke-width="0.71843" stroke-miterlimit="10"/>
<g style="mix-blend-mode:multiply">
<path d="M90.3026 135.188C90.6155 131.235 90.9284 127.647 91.2022 125.065C91.2804 124.304 91.3273 123.542 91.3664 122.78L72.6632 125.827L56.5961 120.495C56.5979 123.732 56.7859 126.967 57.1593 130.184L72.9213 134.48L90.3026 135.188Z" fill="#779E1C"/>
</g>
<g style="mix-blend-mode:multiply">
<path d="M70.4432 89.8145C69.3793 90.9646 67.2673 93.303 65.257 95.7861L77.1313 107.539L81.0424 106.015L70.4432 89.8145Z" fill="#779E1C"/>
</g>
<path d="M71.1399 89.0674C71.1399 89.0674 64.0998 96.4786 61.448 101.087C60.6617 102.487 60.0248 103.962 59.5472 105.489L73.7056 89.5625C72.8692 89.3157 72.0098 89.1499 71.1399 89.0674Z" fill="#263238"/>
<g style="mix-blend-mode:multiply">
<path d="M57.3014 115.316L72.6645 120.237L91.3207 118.15C91.0283 113.624 89.9958 109.173 88.2622 104.965L73.2198 110.837L59.7732 104.904C58.6737 108.307 57.8473 111.788 57.3014 115.316Z" fill="#779E1C"/>
</g>
<g style="mix-blend-mode:multiply">
<path d="M83.7481 153.833C75.956 155.107 67.9608 154.471 60.4844 151.983L56.7375 150.733L55.572 159.874L59.843 161.039C67.9624 163.249 76.4485 163.886 84.8197 162.913L88.2694 162.509C88.4489 162.139 88.55 161.737 88.5666 161.328C88.6605 159.295 88.8248 156.339 89.036 152.95L83.7481 153.833Z" fill="#779E1C"/>
</g>
<g style="mix-blend-mode:multiply">
<path d="M85.8377 141.388C78.0454 142.667 70.0482 142.028 62.5741 139.529L57.8025 137.937C57.9208 139.597 57.8973 141.263 57.7321 142.919L57.1767 147.313L61.9327 148.608C70.0489 150.821 78.5324 151.46 86.9016 150.49L89.2483 150.215C89.4438 147.169 89.6707 143.924 89.9132 140.717L85.8377 141.388Z" fill="#779E1C"/>
</g>
<path d="M12.4487 109.178L27.5735 121.019L28.2254 120.229L13.1006 108.388L12.4487 109.178Z" fill="#263238"/>
<path d="M78.4235 97.2866C78.4235 97.2866 83.9695 100.966 84.0947 109.656C84.1494 113.465 83.7427 117.022 82.8431 123.26C81.9436 129.498 76.3584 149.812 72.0092 152.28C67.66 154.748 60.9093 150.087 60.9093 150.087L28.2589 128.98L20.3661 122.773L16.455 115.582L17.6831 113.297L27.3124 120.488L22.1261 115.818L23.1431 114.562L25.0204 115.834L30.496 117.829L31.6929 125.446L33.3825 126.573L64.6171 137.686C64.6171 137.686 64.226 121.318 64.5154 118.187C64.8048 115.057 65.2037 107.189 68.6456 101.484" fill="white"/>
<mask id="mask4_96_1725" style="mask-type:luminance" maskUnits="userSpaceOnUse" x="16" y="97" width="69" height="57">
<path d="M78.4218 97.2869C78.4218 97.2869 83.9679 100.966 84.093 109.657C84.1478 113.465 83.741 117.022 82.8415 123.26C81.9419 129.499 76.3568 149.813 72.0075 152.281C67.6583 154.748 60.9076 150.087 60.9076 150.087L28.2572 128.981L20.3645 122.773L16.4533 115.583L17.6814 113.297L27.3107 120.488L22.1245 115.819L23.1414 114.562L25.0188 115.834L30.4944 117.83L31.6912 125.446L33.3808 126.574L64.6154 137.687C64.6154 137.687 64.2243 121.318 64.5137 118.188C64.8032 115.057 65.2021 107.189 68.6439 101.484" fill="white"/>
</mask>
<g mask="url(#mask4_96_1725)">
<g style="mix-blend-mode:multiply" opacity="0.5">
<path d="M64.3952 125.317C64.3952 130.969 64.5907 137.687 64.5907 137.687L33.3874 126.62L31.6978 125.493L30.501 117.876L25.0253 115.88L23.1558 114.585L22.1389 115.842L27.3095 120.488L17.6802 113.298L16.5146 115.545L20.4258 122.735L28.3186 128.981L30.3054 130.268L73.4456 143.804L64.3952 125.317Z" fill="#779E1C"/>
</g>
</g>
<path d="M78.4235 97.2866C78.4235 97.2866 83.9695 100.966 84.0947 109.656C84.1494 113.465 83.7427 117.022 82.8431 123.26C81.9436 129.498 76.3584 149.812 72.0092 152.28C67.66 154.748 60.9093 150.087 60.9093 150.087L28.2589 128.98L20.3661 122.773L16.455 115.582L17.6831 113.297L27.3124 120.488L22.1261 115.818L23.1431 114.562L25.0204 115.834L30.496 117.829L31.6929 125.446L33.3825 126.573L64.6171 137.686C64.6171 137.686 64.226 121.318 64.5154 118.187C64.8048 115.057 65.2037 107.189 68.6456 101.484" stroke="#263238" stroke-width="0.71843" stroke-miterlimit="10"/>
<path d="M64.6155 137.687L76.5367 146.065L79.6266 140.733C79.6266 140.733 81.7621 139.096 82.075 137.862C82.3878 136.628 81.9889 134.625 82.3096 133.391C82.6303 132.157 84.2261 130.999 84.3747 128.013C84.5233 125.027 84.3747 122.537 84.3747 122.537C84.3747 122.537 86.9561 112.201 86.6745 107.707C86.3929 103.213 81.942 95.2683 78.375 95.0932C74.808 94.918 70.1694 95.4435 66.5711 100.745C62.9728 106.046 63.7081 121.524 63.1449 122.491C62.5817 123.458 63.3639 128.234 63.3639 128.234C63.0513 128.461 62.7919 128.75 62.6031 129.083C62.4143 129.415 62.3003 129.783 62.2688 130.161C62.2062 131.403 63.5829 134.457 63.5829 134.457L64.6155 137.687Z" fill="white" stroke="#263238" stroke-width="0.71843" stroke-miterlimit="10"/>
<g style="mix-blend-mode:multiply">
<path d="M63.4579 118.515C63.4825 119.844 63.3803 121.172 63.1529 122.483C62.6522 123.351 63.2233 127.274 63.3484 128.074C70.0536 130.102 77.1437 130.623 84.0854 129.597C84.2346 129.068 84.3237 128.524 84.3514 127.975C84.5078 124.997 84.3514 122.498 84.3514 122.498C84.3514 122.498 84.5782 121.577 84.8911 120.175C77.702 120.62 70.4844 120.061 63.4579 118.515Z" fill="#779E1C"/>
</g>
<g style="mix-blend-mode:multiply">
<path d="M66.086 101.59C64.9674 103.776 64.3416 107.059 63.9818 110.388C71.083 113.027 78.7393 113.934 86.2833 113.031C86.5843 111.269 86.7178 109.484 86.6822 107.699C86.5468 106.288 86.2043 104.903 85.6653 103.586C79.0782 103.736 72.4985 103.065 66.086 101.59Z" fill="#779E1C"/>
</g>
<path d="M63.5828 134.541L64.5919 137.687L76.5132 146.065L79.603 140.733C79.603 140.733 81.7385 139.096 82.0514 137.862C82.1072 137.647 82.1413 137.428 82.153 137.207C75.8709 137.101 69.629 136.205 63.5828 134.541Z" fill="#263238"/>
<path d="M72.2107 285.08C72.2107 285.08 72.4766 278.484 73.7751 268.841C75.0736 259.198 71.9525 245.503 71.4284 243.218C70.9043 240.933 71.6944 235.86 71.1703 234.078C70.6462 232.295 68.1118 224.694 69.6058 215.873C71.0999 207.053 72.3124 183.738 72.3124 183.738C72.3124 183.738 68.5498 180.76 67.4469 176.883C66.3439 173.006 67.1887 171.787 67.1887 171.787" stroke="#263238" stroke-width="0.71843" stroke-miterlimit="10"/>
<path d="M73.9544 172.145L72.5073 179.945" stroke="#263238" stroke-width="0.71843" stroke-miterlimit="10"/>
</svg>
