<svg width="351" height="301" viewBox="0 0 351 301" fill="none" xmlns="http://www.w3.org/2000/svg">
<path fill-rule="evenodd" clip-rule="evenodd" d="M176.499 24.5752L299.61 115.949L252.586 263.795H100.413L53.3892 115.949L176.499 24.5752Z" stroke="black" stroke-opacity="0.06"/>
<path fill-rule="evenodd" clip-rule="evenodd" d="M176.5 43.4658L282.023 121.786L241.717 248.511H111.283L70.9771 121.786L176.5 43.4658Z" stroke="black" stroke-opacity="0.06"/>
<path fill-rule="evenodd" clip-rule="evenodd" d="M176.5 62.3574L264.436 127.624L230.847 233.228H122.152L88.564 127.624L176.5 62.3574Z" stroke="black" stroke-opacity="0.06"/>
<path fill-rule="evenodd" clip-rule="evenodd" d="M176.5 81.249L246.849 133.463L219.978 217.946H133.022L106.151 133.463L176.5 81.249Z" stroke="black" stroke-opacity="0.06"/>
<path fill-rule="evenodd" clip-rule="evenodd" d="M176.499 100.14L229.261 139.3L209.108 202.662H143.891L123.738 139.3L176.499 100.14Z" stroke="black" stroke-opacity="0.06"/>
<path fill-rule="evenodd" clip-rule="evenodd" d="M176.501 119.03L211.675 145.137L198.239 187.379H154.762L141.326 145.137L176.501 119.03Z" stroke="black" stroke-opacity="0.06"/>
<path fill-rule="evenodd" clip-rule="evenodd" d="M176.5 137.921L194.087 150.974L187.37 172.095H165.631L158.913 150.974L176.5 137.921Z" stroke="black" stroke-opacity="0.06"/>
<path d="M176.5 156.812V24.5752" stroke="black" stroke-opacity="0.06"/>
<path d="M176.5 156.812L299.61 115.948" stroke="black" stroke-opacity="0.06"/>
<path d="M176.5 156.812L252.586 263.795" stroke="black" stroke-opacity="0.06"/>
<path d="M176.499 156.812L100.413 263.795" stroke="black" stroke-opacity="0.06"/>
<path d="M176.499 156.812L53.3892 115.948" stroke="black" stroke-opacity="0.06" stroke-dasharray="4 4"/>
<ellipse cx="176.808" cy="112.166" rx="1.84922" ry="1.8891" fill="#D9D9D9"/>
<ellipse cx="285.145" cy="121.168" rx="1.84922" ry="1.8891" fill="#D9D9D9"/>
<ellipse cx="231.59" cy="234.155" rx="1.84922" ry="1.8891" fill="#D9D9D9"/>
<ellipse cx="143.83" cy="203.095" rx="1.84922" ry="1.8891" fill="#D9D9D9"/>
<ellipse cx="90.6315" cy="128.523" rx="1.84922" ry="1.8891" fill="#D9D9D9"/>
<path opacity="0.2" fill-rule="evenodd" clip-rule="evenodd" d="M176.5 103.918L238.055 136.381L222.152 221.002L123.24 231.7L78.0122 124.122L176.5 103.918Z" fill="black" fill-opacity="0.02"/>
<path fill-rule="evenodd" clip-rule="evenodd" d="M176.5 103.918L238.055 136.381L222.152 221.002L123.24 231.7L78.0122 124.122L176.5 103.918Z" fill="black" fill-opacity="0.02" stroke="#D9D9D9"/>
<ellipse cx="176.808" cy="104.232" rx="1.84922" ry="1.8891" fill="#D9D9D9"/>
<ellipse cx="238.363" cy="136.695" rx="1.84922" ry="1.8891" fill="#D9D9D9"/>
<ellipse cx="222.46" cy="221.315" rx="1.84922" ry="1.8891" fill="#D9D9D9"/>
<ellipse cx="123.547" cy="232.014" rx="1.84922" ry="1.8891" fill="#D9D9D9"/>
<ellipse cx="78.3199" cy="124.436" rx="1.84922" ry="1.8891" fill="#D9D9D9"/>
<path opacity="0.2" d="M176.542 111.353C176.497 111.35 176.452 111.352 176.407 111.36L90.23 127.717C90.0621 127.748 89.9221 127.864 89.8588 128.023C89.7955 128.181 89.8177 128.361 89.9176 128.5L143.425 202.758C143.484 202.84 143.566 202.902 143.662 202.936L231.114 234.31C231.356 234.397 231.624 234.286 231.734 234.054L285.289 121.066C285.359 120.918 285.353 120.745 285.271 120.603C285.189 120.461 285.042 120.368 284.879 120.354L176.542 111.353Z" fill="black" fill-opacity="0.02" stroke="#D9D9D9" stroke-linejoin="round"/>
<path fill-rule="evenodd" clip-rule="evenodd" d="M176.5 111.852L284.837 120.852L231.283 233.839L143.83 202.781L90.3232 128.208L176.5 111.852Z" fill="black" fill-opacity="0.02" stroke="#D9D9D9"/>
<path fill-rule="evenodd" clip-rule="evenodd" d="M176.5 60.1533L253.859 131.624L203.314 194.595L165.713 172.24L160.165 150.83L176.5 60.1533Z" fill="black" fill-opacity="0.02" stroke="#D9D9D9"/>
<g filter="url(#filter0_ddd_0_1)">
<circle cx="177" cy="60.5" r="2" fill="#D9D9D9"/>
</g>
<ellipse cx="203.46" cy="194.315" rx="1.84922" ry="1.8891" fill="#D9D9D9"/>
<ellipse cx="165.547" cy="172.014" rx="1.84922" ry="1.8891" fill="#D9D9D9"/>
<ellipse cx="160.32" cy="150.436" rx="1.84922" ry="1.8891" fill="#D9D9D9"/>
<ellipse cx="253.363" cy="131.695" rx="1.84922" ry="1.8891" fill="#D9D9D9"/>
<path d="M135 5C135 2.79086 136.791 1 139 1H211C213.209 1 215 2.79086 215 5V17C215 19.2091 213.209 21 211 21H139C136.791 21 135 19.2091 135 17V5Z" fill="black" fill-opacity="0.06"/>
<path d="M0 100C0 97.7909 1.79086 96 4 96H50C52.2091 96 54 97.7909 54 100V112C54 114.209 52.2091 116 50 116H4C1.79086 116 0 114.209 0 112V100Z" fill="black" fill-opacity="0.06"/>
<path d="M297 94C297 91.7909 298.791 90 301 90H347C349.209 90 351 91.7909 351 94V106C351 108.209 349.209 110 347 110H301C298.791 110 297 108.209 297 106V94Z" fill="black" fill-opacity="0.06"/>
<path d="M35 274C35 271.791 36.7909 270 39 270H111C113.209 270 115 271.791 115 274V286C115 288.209 113.209 290 111 290H39C36.7909 290 35 288.209 35 286V274Z" fill="black" fill-opacity="0.06"/>
<path d="M219 274C219 271.791 220.791 270 223 270H295C297.209 270 299 271.791 299 274V286C299 288.209 297.209 290 295 290H223C220.791 290 219 288.209 219 286V274Z" fill="black" fill-opacity="0.06"/>
<defs>
<filter id="filter0_ddd_0_1" x="170" y="54.5" width="14" height="14" filterUnits="userSpaceOnUse" color-interpolation-filters="sRGB">
<feFlood flood-opacity="0" result="BackgroundImageFix"/>
<feColorMatrix in="SourceAlpha" type="matrix" values="0 0 0 0 0 0 0 0 0 0 0 0 0 0 0 0 0 0 127 0" result="hardAlpha"/>
<feOffset dy="2"/>
<feGaussianBlur stdDeviation="2"/>
<feComposite in2="hardAlpha" operator="out"/>
<feColorMatrix type="matrix" values="0 0 0 0 0 0 0 0 0 0 0 0 0 0 0 0 0 0 0.02 0"/>
<feBlend mode="normal" in2="BackgroundImageFix" result="effect1_dropShadow_0_1"/>
<feColorMatrix in="SourceAlpha" type="matrix" values="0 0 0 0 0 0 0 0 0 0 0 0 0 0 0 0 0 0 127 0" result="hardAlpha"/>
<feMorphology radius="1" operator="erode" in="SourceAlpha" result="effect2_dropShadow_0_1"/>
<feOffset dy="1"/>
<feGaussianBlur stdDeviation="3"/>
<feComposite in2="hardAlpha" operator="out"/>
<feColorMatrix type="matrix" values="0 0 0 0 0 0 0 0 0 0 0 0 0 0 0 0 0 0 0.02 0"/>
<feBlend mode="normal" in2="effect1_dropShadow_0_1" result="effect2_dropShadow_0_1"/>
<feColorMatrix in="SourceAlpha" type="matrix" values="0 0 0 0 0 0 0 0 0 0 0 0 0 0 0 0 0 0 127 0" result="hardAlpha"/>
<feOffset dy="1"/>
<feGaussianBlur stdDeviation="1"/>
<feComposite in2="hardAlpha" operator="out"/>
<feColorMatrix type="matrix" values="0 0 0 0 0 0 0 0 0 0 0 0 0 0 0 0 0 0 0.03 0"/>
<feBlend mode="normal" in2="effect2_dropShadow_0_1" result="effect3_dropShadow_0_1"/>
<feBlend mode="normal" in="SourceGraphic" in2="effect3_dropShadow_0_1" result="shape"/>
</filter>
</defs>
</svg>
