<svg width="412" height="400" viewBox="0 0 412 400" fill="none" xmlns="http://www.w3.org/2000/svg">
<path d="M355.44 24.4618H40.1429C34.6549 24.4618 30.2061 28.9107 30.2061 34.3987V256.972C30.2061 262.46 34.6549 266.909 40.1429 266.909H355.44C360.928 266.909 365.377 262.46 365.377 256.972V34.3987C365.377 28.9107 360.928 24.4618 355.44 24.4618Z" fill="white" stroke="#2E353A" stroke-width="1.50103" stroke-miterlimit="10"/>
<path d="M359.098 47.7487H36.4746V252.044H359.098V47.7487Z" fill="white" stroke="#2E353A" stroke-width="1.50103" stroke-miterlimit="10"/>
<path d="M53.3516 208.811H149.337" stroke="#2E353A" stroke-linecap="round" stroke-linejoin="round"/>
<path d="M69.2422 218.342H149.337" stroke="#2E353A" stroke-linecap="round" stroke-linejoin="round"/>
<path d="M53.3516 218.342H60.9719" stroke="#2E353A" stroke-linecap="round" stroke-linejoin="round"/>
<path d="M53.3516 227.873H149.337" stroke="#2E353A" stroke-linecap="round" stroke-linejoin="round"/>
<path d="M142.336 237.415H149.336" stroke="#2E353A" stroke-linecap="round" stroke-linejoin="round"/>
<path d="M53.3516 237.415H134.076" stroke="#2E353A" stroke-linecap="round" stroke-linejoin="round"/>
<path d="M276.453 64.4526H56.0235C52.8306 64.4526 50.2422 67.041 50.2422 70.2339V133.279C50.2422 136.472 52.8306 139.06 56.0235 139.06H276.453C279.646 139.06 282.234 136.472 282.234 133.279V70.2339C282.234 67.041 279.646 64.4526 276.453 64.4526Z" fill="#2E353A"/>
<path d="M276.463 64.9607C277.155 64.9607 277.84 65.0972 278.48 65.3623C279.119 65.6275 279.7 66.0161 280.188 66.5059C280.677 66.9957 281.065 67.577 281.329 68.2168C281.592 68.8565 281.728 69.542 281.726 70.234V133.279C281.728 133.971 281.592 134.657 281.329 135.296C281.065 135.936 280.677 136.518 280.188 137.007C279.7 137.497 279.119 137.886 278.48 138.151C277.84 138.416 277.155 138.552 276.463 138.552H55.9826C54.5841 138.552 53.2428 137.997 52.2539 137.008C51.265 136.019 50.7094 134.678 50.7094 133.279V70.234C50.7094 68.8354 51.265 67.4942 52.2539 66.5052C53.2428 65.5163 54.5841 64.9607 55.9826 64.9607H276.463ZM276.463 63.9447H55.9826C54.3154 63.9474 52.7173 64.6109 51.5384 65.7898C50.3595 66.9686 49.696 68.5668 49.6934 70.234V133.279C49.696 134.946 50.3595 136.545 51.5384 137.723C52.7173 138.902 54.3154 139.566 55.9826 139.569H276.463C278.129 139.566 279.727 138.902 280.904 137.723C282.081 136.544 282.742 134.945 282.742 133.279V70.234C282.742 68.5677 282.081 66.9696 280.904 65.7904C279.727 64.6112 278.129 63.9474 276.463 63.9447Z" fill="#2E353A"/>
<path d="M235.365 64.962C234.219 66.1585 232.843 67.1107 231.319 67.7612C229.796 68.4118 228.156 68.7471 226.5 68.7471C224.843 68.7471 223.204 68.4118 221.68 67.7612C220.157 67.1107 218.781 66.1585 217.635 64.962H212.331L212.473 65.2059L210.553 67.1567C210.197 67.5163 209.997 68.0019 209.997 68.508C209.997 69.0141 210.197 69.4998 210.553 69.8593L213.083 72.3893C213.26 72.5681 213.47 72.71 213.702 72.8069C213.934 72.9038 214.183 72.9537 214.434 72.9537C214.686 72.9537 214.935 72.9038 215.167 72.8069C215.398 72.71 215.609 72.5681 215.786 72.3893L217.736 70.4385C219.297 71.4265 221.015 72.1412 222.817 72.5519V75.3155C222.817 75.8221 223.018 76.3079 223.376 76.6662C223.734 77.0244 224.22 77.2256 224.727 77.2256H228.303C228.81 77.2256 229.296 77.0244 229.654 76.6662C230.012 76.3079 230.213 75.8221 230.213 75.3155V72.5519C232.015 72.1412 233.733 71.4265 235.294 70.4385L237.244 72.3893C237.421 72.5681 237.632 72.71 237.863 72.8069C238.095 72.9038 238.344 72.9537 238.596 72.9537C238.847 72.9537 239.096 72.9038 239.328 72.8069C239.56 72.71 239.77 72.5681 239.947 72.3893L242.477 69.8593C242.833 69.4998 243.033 69.0141 243.033 68.508C243.033 68.0019 242.833 67.5163 242.477 67.1567L240.526 65.2059L240.668 64.962H235.365Z" fill="white"/>
<path d="M144.876 137.609H142.113C141.702 135.808 140.987 134.09 139.999 132.529L141.95 130.578C142.129 130.401 142.271 130.191 142.368 129.959C142.465 129.727 142.515 129.478 142.515 129.227C142.515 128.975 142.465 128.726 142.368 128.494C142.271 128.262 142.129 128.052 141.95 127.875L139.43 125.325C139.253 125.146 139.042 125.004 138.809 124.907C138.576 124.81 138.326 124.76 138.074 124.76C137.822 124.76 137.572 124.81 137.339 124.907C137.107 125.004 136.895 125.146 136.718 125.325L134.767 127.276C133.205 126.289 131.487 125.574 129.687 125.162V122.399C129.684 121.891 129.48 121.405 129.121 121.048C128.761 120.69 128.274 120.489 127.766 120.489H124.19C123.682 120.489 123.195 120.69 122.836 121.048C122.476 121.405 122.272 121.891 122.27 122.399V125.162C120.469 125.574 118.751 126.289 117.189 127.276L115.239 125.325C115.062 125.146 114.851 125.004 114.619 124.907C114.388 124.811 114.139 124.761 113.887 124.761C113.636 124.761 113.387 124.811 113.155 124.907C112.923 125.004 112.713 125.146 112.536 125.325L109.965 127.855C109.787 128.032 109.645 128.242 109.548 128.474C109.451 128.706 109.401 128.955 109.401 129.206C109.401 129.458 109.451 129.707 109.548 129.939C109.645 130.17 109.787 130.381 109.965 130.558L111.916 132.508C110.928 134.069 110.213 135.787 109.803 137.589H107.039C106.707 137.588 106.381 137.675 106.094 137.841C105.807 138.007 105.568 138.246 105.403 138.534H113.928C114.55 135.812 116.077 133.383 118.26 131.643C120.443 129.903 123.151 128.955 125.943 128.955C128.734 128.955 131.443 129.903 133.625 131.643C135.808 133.383 137.335 135.812 137.957 138.534H146.543C146.373 138.245 146.128 138.007 145.835 137.844C145.542 137.682 145.211 137.601 144.876 137.609Z" fill="white"/>
<path d="M53.5859 115.652H57.1319C57.6412 115.652 58.1297 115.45 58.4898 115.09C58.8499 114.73 59.0522 114.241 59.0522 113.732V110.978C60.853 110.567 62.5709 109.852 64.1324 108.865L66.0832 110.816C66.2599 110.995 66.4704 111.137 66.7023 111.233C66.9343 111.33 67.1832 111.38 67.4345 111.38C67.6859 111.38 67.9348 111.33 68.1668 111.233C68.3987 111.137 68.6092 110.995 68.7859 110.816L71.3565 108.266C71.5353 108.089 71.6772 107.878 71.7741 107.647C71.871 107.415 71.9208 107.166 71.9208 106.914C71.9208 106.663 71.871 106.414 71.7741 106.182C71.6772 105.95 71.5353 105.74 71.3565 105.563L69.4057 103.612C70.3937 102.051 71.1084 100.333 71.519 98.532H74.2827C74.7893 98.532 75.2751 98.3307 75.6333 97.9725C75.9916 97.6143 76.1928 97.1284 76.1928 96.6218V93.025C76.1928 92.5184 75.9916 92.0326 75.6333 91.6743C75.2751 91.3161 74.7893 91.1149 74.2827 91.1149H71.519C71.1044 89.3149 70.39 87.5976 69.4057 86.0347L71.3565 84.0839C71.5353 83.9072 71.6772 83.6967 71.7741 83.4648C71.871 83.2328 71.9208 82.9839 71.9208 82.7325C71.9208 82.4812 71.871 82.2323 71.7741 82.0003C71.6772 81.7684 71.5353 81.5579 71.3565 81.3812L68.8265 78.8513C68.4669 78.4951 67.9813 78.2953 67.4752 78.2953C66.9691 78.2953 66.4834 78.4951 66.1239 78.8513L64.1731 80.8326C62.6089 79.853 60.8917 79.1421 59.0929 78.7293V75.9657C59.0956 75.7084 59.0467 75.4531 58.9489 75.2151C58.851 74.977 58.7064 74.7611 58.5234 74.58C58.3405 74.399 58.1231 74.2566 57.884 74.1613C57.645 74.0659 57.3892 74.0196 57.1319 74.0251H53.5555C53.0488 74.0251 52.563 74.2263 52.2048 74.5846C51.8465 74.9428 51.6453 75.4286 51.6453 75.9352V78.6989C51.3303 78.77 51.0255 78.8614 50.7207 78.9529V83.4133C51.7974 82.9675 52.9341 82.6834 54.094 82.57C55.9629 82.363 57.8545 82.586 59.624 83.222C61.3936 83.858 62.9943 84.8901 64.3039 86.2396C65.6134 87.589 66.5971 89.22 67.1797 91.0079C67.7623 92.7957 67.9285 94.6931 67.6655 96.555C67.4025 98.4169 66.7172 100.194 65.6622 101.751C64.6071 103.307 63.2102 104.602 61.5781 105.536C59.946 106.47 58.122 107.018 56.2455 107.139C54.369 107.26 52.4897 106.95 50.7512 106.234V110.704C51.056 110.796 51.3608 110.887 51.6758 110.958V113.712C51.6731 113.965 51.7205 114.216 51.8151 114.45C51.9098 114.685 52.0499 114.899 52.2274 115.079C52.4049 115.259 52.6163 115.403 52.8495 115.501C53.0826 115.6 53.3329 115.651 53.5859 115.652Z" fill="white"/>
<path d="M297.789 30.771H137.499V40.5859H297.789V30.771Z" fill="white" stroke="#2E353A" stroke-width="1.50103" stroke-miterlimit="10"/>
<path d="M44.2382 29.2062L39.6152 33.6564L44.4109 38.7976" stroke="#2E353A" stroke-width="1.50103" stroke-linecap="round" stroke-linejoin="round"/>
<path d="M39.6152 33.6577H49.8874" stroke="#2E353A" stroke-width="1.50103" stroke-linecap="round" stroke-linejoin="round"/>
<path d="M70.4403 29.2062L75.0734 33.6564L70.2676 38.7976" stroke="#2E353A" stroke-width="1.50103" stroke-linecap="round" stroke-linejoin="round"/>
<path d="M75.0642 33.6577H64.792" stroke="#2E353A" stroke-width="1.50103" stroke-linecap="round" stroke-linejoin="round"/>
<path d="M97.153 33.0788C96.8571 32.046 96.2413 31.1336 95.3943 30.4727C94.5472 29.8119 93.5124 29.4366 92.4386 29.4008C91.6976 29.4003 90.9673 29.5779 90.3094 29.9187C89.6514 30.2595 89.0849 30.7534 88.6578 31.359C88.2307 31.9645 87.9554 32.6638 87.855 33.398C87.7547 34.1322 87.8324 34.8797 88.0815 35.5776C88.3305 36.2755 88.7437 36.9033 89.2862 37.4081C89.8286 37.9129 90.4845 38.2799 91.1985 38.4781C91.9125 38.6764 92.6636 38.7002 93.3887 38.5474C94.1138 38.3946 94.7915 38.0697 95.3648 37.6002" stroke="#2E353A" stroke-width="1.50103" stroke-linecap="round" stroke-linejoin="round"/>
<path d="M94.0342 33.5744H97.631V29.2969" stroke="#2E353A" stroke-width="1.50103" stroke-linecap="round" stroke-linejoin="round"/>
<path d="M121.65 32.062L117.383 28.6074L113.318 32.062V39.5807H121.65V32.062Z" stroke="#2E353A" stroke-width="1.50103" stroke-linecap="round" stroke-linejoin="round"/>
<path d="M119.007 34.0939H115.756V39.3062H119.007V34.0939Z" fill="#2E353A"/>
<path d="M113.317 32.0621L110.879 34.2974" stroke="#2E353A" stroke-width="1.50103" stroke-linecap="round" stroke-linejoin="round"/>
<path d="M121.649 32.0621L123.946 34.1044" stroke="#2E353A" stroke-width="1.50103" stroke-linecap="round" stroke-linejoin="round"/>
<path d="M342.11 32.5701H354.963" stroke="#2E353A" stroke-width="1.50103" stroke-linecap="round" stroke-linejoin="round"/>
<path d="M342.11 35.4656H354.963" stroke="#2E353A" stroke-width="1.50103" stroke-linecap="round" stroke-linejoin="round"/>
<path d="M342.11 38.3712H354.963" stroke="#2E353A" stroke-width="1.50103" stroke-linecap="round" stroke-linejoin="round"/>
<path d="M342.11 41.2667H354.963" stroke="#2E353A" stroke-width="1.50103" stroke-linecap="round" stroke-linejoin="round"/>
<g style="mix-blend-mode:multiply">
<path d="M365.377 90.799H156.073C155.057 90.799 154.052 90.999 153.114 91.3875C152.176 91.7761 151.323 92.3456 150.605 93.0636C149.887 93.7816 149.318 94.634 148.929 95.5721C148.541 96.5102 148.341 97.5156 148.341 98.531V156.659C148.341 157.674 148.541 158.679 148.929 159.618C149.318 160.556 149.887 161.408 150.605 162.126C151.323 162.844 152.176 163.414 153.114 163.802C154.052 164.191 155.057 164.391 156.073 164.391H365.377V90.799Z" fill="white"/>
</g>
<path d="M352.472 237.142C352.116 223.934 353.143 201.286 341.519 191.979C331.359 183.851 323.373 194.895 320.507 203.836C313.558 225.549 316.829 249.507 316.84 271.911C316.84 272.246 316.84 272.592 316.84 272.927C316.291 289.407 314.31 307.259 316.108 323.729C316.108 323.729 314.34 307.249 301.386 314.31C288.431 321.372 307.868 358.478 307.868 358.478C307.868 358.478 292.556 347.301 285.515 356.71C278.474 366.118 294.344 376.726 294.344 376.726C294.344 376.726 279.622 372.611 279.622 376.726C279.622 380.841 284.336 384.387 297.911 386.144H370.923C370.923 386.144 382.699 379.672 380.342 372.611C377.985 365.549 365.62 369.664 365.62 369.664C365.62 369.664 384.467 346.702 383.289 336.684C382.11 326.665 357.877 338.411 357.877 338.411C357.877 338.411 376.715 290.718 373.189 269.523C370.405 252.83 357.441 264.25 350.389 270.671C352.058 259.577 352.755 248.358 352.472 237.142Z" fill="#779E1C"/>
<path opacity="0.5" d="M352.472 237.142C352.116 223.934 353.143 201.286 341.519 191.979C331.359 183.851 323.373 194.895 320.507 203.836C313.558 225.549 316.829 249.507 316.84 271.911C316.84 272.246 316.84 272.592 316.84 272.927C316.291 289.407 314.31 307.259 316.108 323.729C316.108 323.729 314.34 307.249 301.386 314.31C288.431 321.372 307.868 358.478 307.868 358.478C307.868 358.478 292.556 347.301 285.515 356.71C278.474 366.118 294.344 376.726 294.344 376.726C294.344 376.726 279.622 372.611 279.622 376.726C279.622 380.841 284.336 384.387 297.911 386.144H370.923C370.923 386.144 382.699 379.672 380.342 372.611C377.985 365.549 365.62 369.664 365.62 369.664C365.62 369.664 384.467 346.702 383.289 336.684C382.11 326.665 357.877 338.411 357.877 338.411C357.877 338.411 376.715 290.718 373.189 269.523C370.405 252.83 357.441 264.25 350.389 270.671C352.058 259.577 352.755 248.358 352.472 237.142Z" fill="white"/>
<path d="M329.052 385.514L334.355 223.598" stroke="white" stroke-width="1.72695" stroke-linecap="round" stroke-linejoin="round"/>
<path d="M331.999 317.805L359.676 291.896" stroke="white" stroke-width="1.72695" stroke-linecap="round" stroke-linejoin="round"/>
<path d="M344.953 306.03L350.836 289.539" stroke="white" stroke-width="1.72695" stroke-linecap="round" stroke-linejoin="round"/>
<path d="M309.036 337.822L330.231 360.784" stroke="white" stroke-width="1.72695" stroke-linecap="round" stroke-linejoin="round"/>
<path d="M365.558 350.777L330.23 369.035" stroke="white" stroke-width="1.72695" stroke-linecap="round" stroke-linejoin="round"/>
<path d="M346.721 361.373L359.675 360.783" stroke="white" stroke-width="1.72695" stroke-linecap="round" stroke-linejoin="round"/>
<path d="M216.324 400C314.642 400 394.344 395.919 394.344 390.886C394.344 385.852 314.642 381.772 216.324 381.772C118.006 381.772 38.3037 385.852 38.3037 390.886C38.3037 395.919 118.006 400 216.324 400Z" fill="#779E1C"/>
<path opacity="0.3" d="M216.324 400C314.642 400 394.344 395.919 394.344 390.886C394.344 385.852 314.642 381.772 216.324 381.772C118.006 381.772 38.3037 385.852 38.3037 390.886C38.3037 395.919 118.006 400 216.324 400Z" fill="white"/>
<path d="M221.852 384.626C221.011 384.637 220.185 384.849 219.444 385.246C218.174 385.917 212.687 387.421 209.151 388.67C203.634 390.631 199.326 389.575 199.773 391.017C200.22 392.46 208.826 395.356 213.805 395.427C218.783 395.498 221.181 394.258 223.559 394.309C225.936 394.36 224.189 395.508 228.151 395.955C232.114 396.402 233.404 396.413 234.786 394.248C236.168 392.084 236.95 391.525 236.513 388.782V388.691C236.292 387.511 235.661 386.447 234.731 385.689C233.801 384.93 232.633 384.525 231.433 384.545L221.852 384.626Z" fill="#2E353A"/>
<path d="M252.688 381.985C251.95 381.966 251.224 382.172 250.605 382.575C249.518 383.255 244.793 384.688 241.756 385.917C237.011 387.848 233.231 386.558 233.627 388.122C234.023 389.687 239.144 391.821 243.483 392.064C245.829 392.21 248.185 392.122 250.514 391.8C255.208 391.536 252.221 393.202 253.907 393.883C255.086 394.256 256.319 394.432 257.555 394.401C262.503 394.665 263.102 395.062 264.24 392.776C265.378 390.49 266.029 389.921 265.551 386.954V386.862C265.114 384.231 263.153 382.29 260.999 382.229L252.688 381.985Z" fill="#2E353A"/>
<path d="M208.398 227.243C208.398 227.243 209.252 257.114 209.252 267.143C209.252 277.171 211.812 322.496 215.226 338.926C218.64 355.355 220.56 378.826 220.56 381.386C220.56 383.946 219.707 384.587 221.414 386.294C223.121 388 229.542 391.201 231.879 390.134C234.216 389.067 235.506 385.054 235.506 385.054C235.506 385.054 235.506 362.864 236.146 348.355C236.787 333.846 235.72 314.825 235.72 314.825C235.72 314.825 244.041 353.242 246.388 360.923C248.735 368.604 250.656 382.534 251.082 385.308C251.509 388.082 253.379 388.173 255.766 388.173C258.631 388.173 262.177 387.807 263.458 385.674C264.738 383.54 261.964 361.136 261.964 352.144C261.964 343.152 254.923 287.616 255.563 273.909C256.203 260.203 260.257 236.57 258.977 229.529C258.215 225.387 257.787 221.191 257.697 216.981C257.697 216.981 213.733 211.9 208.398 227.243Z" fill="#2E353A" stroke="#2E353A" stroke-miterlimit="10"/>
<path d="M210.969 230.596C211.68 233.247 212.604 235.836 213.732 238.338C214.549 240.066 215.894 241.49 217.573 242.403" stroke="white" stroke-miterlimit="10"/>
<path d="M224.777 378.957C224.991 381.97 224.933 384.997 224.604 388" stroke="white" stroke-miterlimit="10"/>
<path d="M218.428 261.574C219.027 284.801 220.165 324.314 221.202 333.804C222.36 344.32 223.386 360.414 224.087 370.178" stroke="white" stroke-miterlimit="10"/>
<path d="M217.503 230.92C217.289 231.56 218.001 244.311 218.001 244.311C218.001 244.311 218.102 248.619 218.275 255.366" stroke="white" stroke-miterlimit="10"/>
<path d="M158.471 146.732C158.471 146.732 158.257 141.652 159.324 142.891C160.391 144.131 160.604 146.519 161.031 148.866C161.031 148.866 161.671 144.385 162.311 145.665C163.007 147.262 163.229 149.026 162.951 150.745C162.817 153.183 163.332 155.613 164.445 157.787C165.298 159.067 159.964 155.48 158.471 146.732Z" fill="white" stroke="#2E353A" stroke-miterlimit="10"/>
<path d="M319.066 153.418C319.066 153.418 322.114 149.293 320.509 149.76C318.904 150.227 317.461 152.056 315.754 153.763C315.754 153.763 317.725 149.699 316.475 150.39C314.994 151.334 313.816 152.685 313.082 154.281C311.834 156.378 310.048 158.104 307.91 159.28C306.488 159.87 312.94 159.839 319.066 153.418Z" fill="white" stroke="#2E353A" stroke-linecap="round" stroke-linejoin="round"/>
<path d="M322.318 85.2714V82.7009C322.319 82.5199 322.285 82.3404 322.217 82.1728C322.148 82.0053 322.047 81.8528 321.92 81.7244C321.792 81.5959 321.641 81.494 321.474 81.4244C321.307 81.3549 321.127 81.319 320.946 81.3191H318.914C318.618 80.0204 318.107 78.7805 317.4 77.6512L318.803 76.249C319.061 75.99 319.206 75.6393 319.206 75.2736C319.206 74.908 319.061 74.5572 318.803 74.2982L316.984 72.4795C316.725 72.2214 316.374 72.0765 316.008 72.0765C315.643 72.0765 315.292 72.2214 315.033 72.4795L313.631 73.8817C312.5 73.1712 311.256 72.6592 309.953 72.3678V70.3357C309.954 70.1547 309.92 69.9752 309.851 69.8076C309.783 69.6401 309.682 69.4876 309.555 69.3592C309.427 69.2307 309.276 69.1288 309.108 69.0592C308.941 68.9897 308.762 68.9539 308.581 68.9539H306.061C305.697 68.9565 305.348 69.1033 305.091 69.3622C304.834 69.621 304.69 69.9709 304.69 70.3357V72.3678C303.389 72.6573 302.148 73.1694 301.022 73.8817L299.61 72.4795C299.482 72.352 299.331 72.2509 299.164 72.1819C298.998 72.1129 298.819 72.0774 298.639 72.0774C298.459 72.0774 298.281 72.1129 298.114 72.1819C297.948 72.2509 297.796 72.352 297.669 72.4795L295.901 74.2982C295.643 74.5572 295.498 74.908 295.498 75.2736C295.498 75.6393 295.643 75.99 295.901 76.249L297.303 77.6512C296.594 78.78 296.079 80.0198 295.779 81.3191H293.798C293.431 81.3191 293.08 81.4646 292.821 81.7238C292.562 81.9829 292.416 82.3344 292.416 82.7009V85.2714C292.416 85.4529 292.452 85.6326 292.521 85.8002C292.591 85.9679 292.692 86.1202 292.821 86.2485C292.949 86.3769 293.101 86.4786 293.269 86.5481C293.437 86.6175 293.616 86.6533 293.798 86.6533H295.779C296.079 87.9525 296.594 89.1923 297.303 90.3212L295.901 91.7233C295.643 91.9823 295.498 92.333 295.498 92.6987C295.498 93.0643 295.643 93.4151 295.901 93.6741L297.72 95.4928C297.847 95.6203 297.998 95.7214 298.165 95.7905C298.331 95.8595 298.51 95.895 298.69 95.895C298.87 95.895 299.049 95.8595 299.215 95.7905C299.382 95.7214 299.533 95.6203 299.66 95.4928L301.073 94.0907C302.201 94.8018 303.441 95.3171 304.741 95.6147V97.596C304.741 97.9607 304.885 98.3107 305.142 98.5695C305.399 98.8284 305.747 98.9751 306.112 98.9778H308.693C308.874 98.9778 309.053 98.942 309.22 98.8724C309.387 98.8029 309.539 98.7009 309.666 98.5725C309.794 98.444 309.895 98.2916 309.963 98.124C310.031 97.9565 310.066 97.777 310.065 97.596V95.6147C311.367 95.3153 312.61 94.8001 313.743 94.0907L315.145 95.4928C315.404 95.7509 315.755 95.8958 316.12 95.8958C316.486 95.8958 316.837 95.7509 317.096 95.4928L318.914 93.6741C319.172 93.4151 319.317 93.0643 319.317 92.6987C319.317 92.333 319.172 91.9823 318.914 91.7233L317.512 90.3212C318.218 89.1918 318.73 87.952 319.026 86.6533H321.058C321.404 86.625 321.726 86.4667 321.96 86.2103C322.194 85.9539 322.322 85.6184 322.318 85.2714ZM307.931 89.8436C306.72 89.9715 305.499 89.721 304.436 89.1266C303.373 88.5321 302.52 87.623 301.995 86.5241C301.47 85.4252 301.298 84.1906 301.503 82.9901C301.709 81.7896 302.281 80.6822 303.141 79.8202C304.001 78.9582 305.108 78.3839 306.308 78.1764C307.508 77.9688 308.743 78.1382 309.843 78.6612C310.943 79.1842 311.853 80.0351 312.45 81.0969C313.046 82.1587 313.299 83.3793 313.174 84.5907C313.037 85.9322 312.444 87.186 311.493 88.1423C310.542 89.0986 309.292 89.6992 307.951 89.8436H307.931Z" fill="white" stroke="#2E353A" stroke-linecap="round" stroke-linejoin="round"/>
<path d="M198.675 156.486V153.906C198.675 153.725 198.639 153.546 198.569 153.378C198.5 153.211 198.398 153.06 198.269 152.932C198.141 152.805 197.989 152.704 197.821 152.636C197.653 152.567 197.474 152.533 197.293 152.534H195.261C194.98 151.25 194.481 150.023 193.788 148.907L195.19 147.494C195.317 147.367 195.418 147.216 195.487 147.049C195.556 146.883 195.592 146.704 195.592 146.524C195.592 146.344 195.556 146.165 195.487 145.999C195.418 145.832 195.317 145.681 195.19 145.554L193.371 143.725C193.112 143.467 192.761 143.322 192.396 143.322C192.03 143.322 191.679 143.467 191.42 143.725L190.018 145.137C188.889 144.428 187.649 143.913 186.35 143.613V141.581C186.348 141.216 186.201 140.868 185.942 140.611C185.683 140.354 185.333 140.209 184.968 140.209H182.398C182.033 140.209 181.683 140.354 181.424 140.611C181.165 140.868 181.019 141.216 181.016 141.581V143.613C179.717 143.913 178.477 144.428 177.348 145.137L175.946 143.725C175.687 143.467 175.336 143.322 174.971 143.322C174.605 143.322 174.254 143.467 173.995 143.725L172.176 145.554C172.049 145.681 171.948 145.832 171.879 145.999C171.81 146.165 171.774 146.344 171.774 146.524C171.774 146.704 171.81 146.883 171.879 147.049C171.948 147.216 172.049 147.367 172.176 147.494L173.579 148.907C172.867 150.035 172.352 151.275 172.055 152.575H170.022C169.841 152.573 169.662 152.608 169.494 152.676C169.327 152.744 169.174 152.845 169.046 152.973C168.918 153.1 168.816 153.252 168.746 153.419C168.676 153.586 168.641 153.765 168.641 153.946V156.527C168.641 156.708 168.676 156.887 168.746 157.054C168.816 157.221 168.918 157.373 169.046 157.501C169.174 157.628 169.327 157.729 169.494 157.797C169.662 157.866 169.841 157.9 170.022 157.899H172.055C172.354 159.201 172.869 160.444 173.579 161.577L172.176 162.979C171.918 163.238 171.773 163.589 171.773 163.954C171.773 164.32 171.918 164.671 172.176 164.93L173.995 166.748C174.254 167.007 174.605 167.151 174.971 167.151C175.336 167.151 175.687 167.007 175.946 166.748L177.348 165.336C178.477 166.046 179.717 166.561 181.016 166.86V168.892C181.016 169.073 181.052 169.252 181.121 169.42C181.191 169.587 181.293 169.738 181.421 169.866C181.55 169.993 181.702 170.094 181.87 170.162C182.037 170.231 182.217 170.265 182.398 170.264H184.968C185.149 170.265 185.329 170.231 185.496 170.162C185.664 170.094 185.816 169.993 185.945 169.866C186.073 169.738 186.175 169.587 186.245 169.42C186.314 169.252 186.35 169.073 186.35 168.892V166.86C187.649 166.561 188.889 166.046 190.018 165.336L191.42 166.748C191.679 167.007 192.03 167.151 192.396 167.151C192.761 167.151 193.112 167.007 193.371 166.748L195.19 164.93C195.448 164.671 195.593 164.32 195.593 163.954C195.593 163.589 195.448 163.238 195.19 162.979L193.788 161.577C194.498 160.446 195.01 159.202 195.302 157.899H197.334C197.515 157.895 197.693 157.855 197.859 157.782C198.024 157.709 198.174 157.603 198.298 157.472C198.423 157.341 198.52 157.186 198.585 157.017C198.65 156.848 198.68 156.667 198.675 156.486ZM184.308 161.252C183.055 161.384 181.792 161.124 180.693 160.509C179.594 159.894 178.712 158.953 178.169 157.816C177.626 156.68 177.448 155.403 177.661 154.161C177.873 152.919 178.465 151.774 179.355 150.882C180.245 149.991 181.389 149.397 182.631 149.182C183.872 148.967 185.149 149.142 186.287 149.683C187.425 150.224 188.367 151.104 188.984 152.202C189.601 153.3 189.863 154.563 189.734 155.816C189.59 157.207 188.972 158.506 187.984 159.496C186.997 160.485 185.699 161.105 184.308 161.252Z" fill="white" stroke="#2E353A" stroke-linecap="round" stroke-linejoin="round"/>
<path d="M376.37 82.8121H160.858C156.588 82.8121 153.126 86.2739 153.126 90.5442V148.672C153.126 152.942 156.588 156.404 160.858 156.404H376.37C380.64 156.404 384.102 152.942 384.102 148.672V90.5442C384.102 86.2739 380.64 82.8121 376.37 82.8121Z" fill="white" stroke="#2E353A" stroke-linecap="round" stroke-linejoin="round"/>
<path d="M376.899 102.158H168.407" stroke="#2E353A" stroke-linecap="round" stroke-linejoin="round"/>
<path d="M376.899 118.283H168.407" stroke="#2E353A" stroke-linecap="round" stroke-linejoin="round"/>
<path d="M376.899 134.407H168.407" stroke="#2E353A" stroke-linecap="round" stroke-linejoin="round"/>
<path d="M174.249 168.913C174.249 168.913 171.74 166.769 171.435 165.864C171.156 164.434 170.745 163.032 170.205 161.678C169.332 159.778 166.141 158.082 165.125 155.826C164.109 153.57 162.758 149.618 162.077 148.856C161.396 148.094 160.39 148.439 160.045 150.573C159.7 152.707 163.693 157.939 163.947 158.701C164.201 159.463 159.771 158.143 156.926 156.314C154.081 154.485 152.333 150.675 150.616 148.257C148.899 145.838 147.497 147.535 147.568 148.927C147.639 150.319 152.75 158.173 153.735 161.038C154.721 163.904 158.003 166.982 159.832 168.547C161.66 170.112 165.674 170.741 165.674 170.741L168.366 173.424L174.249 168.913Z" fill="white" stroke="#2E353A" stroke-miterlimit="10"/>
<path d="M166.579 180.017L162.952 172.123C163.665 171.093 164.583 170.22 165.647 169.56C166.712 168.899 167.9 168.464 169.14 168.282C173.621 167.428 174.22 168.282 174.22 168.282L176.567 176.41C176.567 176.41 168.896 177.03 166.579 180.017Z" fill="#779E1C" stroke="#2E353A" stroke-linecap="round" stroke-linejoin="round"/>
<path d="M201.784 152.97C201.784 152.97 190.903 184.122 189.409 188.176C189.023 189.192 188.281 190.919 187.377 192.89C185.477 189.588 181.281 182.303 180.031 179.214C178.324 175.15 175.967 174.134 172.136 174.52C168.306 174.906 164.882 179.001 164.882 181.988C164.882 187.647 169.891 195.196 172.106 200.277C174.483 205.662 176.079 207.673 180.092 212.174C185.172 217.874 190.933 215.903 194.825 210.356C197.812 206.088 205.422 190.553 205.422 190.553C205.422 190.553 203.491 157.827 201.784 152.97Z" fill="#779E1C" stroke="#2E353A" stroke-linecap="round" stroke-linejoin="round"/>
<path d="M187.366 192.841C187.366 192.841 183.16 198.886 182.764 202.087" stroke="#2E353A" stroke-linecap="round" stroke-linejoin="round"/>
<path d="M292.771 164.929C292.771 164.929 295.747 163.507 296.276 162.725C296.91 161.409 297.669 160.157 298.542 158.986C299.873 157.38 303.439 156.578 304.993 154.647C306.548 152.717 308.875 149.262 309.749 148.713C310.622 148.165 311.486 148.713 311.293 150.898C311.1 153.082 305.877 157.075 305.451 157.705C305.024 158.335 310.378 156.476 313.681 157.157C316.983 157.837 320.915 156.354 323.841 155.836C326.767 155.318 326.574 157.502 325.578 158.467C324.583 159.433 315.418 161.444 312.695 162.796C309.972 164.147 307.615 165.204 305.369 166.23C303.757 167.024 302.193 167.913 300.685 168.892L297.393 170.792L292.771 164.929Z" fill="white" stroke="#2E353A" stroke-linecap="round" stroke-linejoin="round"/>
<path d="M299.964 176.827L303.591 168.933C302.878 167.903 301.961 167.031 300.896 166.37C299.832 165.709 298.643 165.274 297.404 165.092C292.923 164.239 292.324 165.092 292.324 165.092L289.977 173.22C289.977 173.22 297.658 173.84 299.964 176.827Z" fill="#779E1C" stroke="#2E353A" stroke-miterlimit="10"/>
<path d="M294.458 171.26C290.617 170.833 288.27 171.9 286.563 175.954C285.263 179.002 281.127 186.328 279.217 189.63C278.303 187.659 277.561 185.972 277.185 184.916C275.692 180.851 264.81 149.71 264.81 149.71C263.103 154.617 261.183 187.303 261.183 187.303C261.183 187.303 269.311 202.828 272.359 207.106C274.117 209.616 275.509 211.942 278.73 212.42C288.199 213.832 291.034 204.921 293.97 198.337C295.809 194.182 297.638 190.016 299.345 185.8C300.178 183.767 301.763 181.034 301.763 178.769C301.712 175.761 298.299 171.707 294.458 171.26Z" fill="#779E1C" stroke="#2E353A" stroke-linecap="round" stroke-linejoin="round"/>
<path d="M279.217 189.649C279.217 189.649 283.484 195.685 284.297 198.885" stroke="#2E353A" stroke-linecap="round" stroke-linejoin="round"/>
<path d="M218.682 95.7271C218.682 95.7271 215.695 106.822 216.335 107.92C216.975 109.017 218.469 108.56 217.615 110.693C216.762 112.827 214.841 116.891 215.268 118.598C215.695 120.305 218.042 121.585 218.042 121.585C218.042 121.585 219.109 129.267 220.176 130.73C221.242 132.193 227.003 131.37 227.003 131.37L227.43 137.131L244.51 136.115L243.87 125.873L243.016 94.2843L218.682 95.7271Z" fill="white"/>
<mask id="mask0_1006_31889" style="mask-type:luminance" maskUnits="userSpaceOnUse" x="215" y="94" width="30" height="44">
<path d="M218.684 95.727C218.684 95.727 215.697 106.822 216.337 107.919C216.977 109.017 218.471 108.56 217.617 110.693C216.764 112.827 214.843 116.891 215.27 118.598C215.697 120.305 218.044 121.585 218.044 121.585C218.044 121.585 219.111 129.266 220.177 130.73C221.244 132.193 227.005 131.37 227.005 131.37L227.432 137.131L244.512 136.115L243.872 125.873L243.018 94.2842L218.684 95.727Z" fill="white"/>
</mask>
<g mask="url(#mask0_1006_31889)">
<g style="mix-blend-mode:multiply" opacity="0.5">
<path d="M226.962 131.367L227.388 137.128L244.468 136.112L243.828 125.87L243.462 112.58C241.237 112.58 239.205 112.672 238.575 112.672C237.02 112.672 233.627 112.407 232.844 112.672C232.062 112.936 231.026 113.19 231.026 113.19L227.124 117.356C227.124 117.356 227.378 122.822 225.559 125.687C224.035 128.085 220.032 129.03 219.809 130.117C219.901 130.345 220.009 130.566 220.134 130.777C220.337 130.93 220.56 131.092 220.804 131.255C222.654 131.997 226.962 131.367 226.962 131.367Z" fill="#779E1C"/>
</g>
</g>
<path d="M218.682 95.7271C218.682 95.7271 215.695 106.822 216.335 107.92C216.975 109.017 218.469 108.56 217.615 110.693C216.762 112.827 214.841 116.891 215.268 118.598C215.695 120.305 218.042 121.585 218.042 121.585C218.042 121.585 219.109 129.267 220.176 130.73C221.242 132.193 227.003 131.37 227.003 131.37L227.43 137.131L244.51 136.115L243.87 125.873L243.016 94.2843L218.682 95.7271Z" stroke="#2E353A" stroke-miterlimit="10"/>
<path d="M220.205 111.099C220.205 111.963 219.89 112.654 219.504 112.654C219.118 112.654 218.793 111.963 218.793 111.099C218.793 110.236 219.108 109.545 219.504 109.545C219.9 109.545 220.205 110.236 220.205 111.099Z" fill="#2E353A"/>
<path d="M239.134 87.1913C238.118 87.3539 229.99 87.1913 223.548 88.2582C217.106 89.325 215.226 89.7518 215.419 92.5255C215.613 95.2993 214.993 96.3662 217.34 97.433C218.339 97.9573 219.422 98.3012 220.54 98.4491C220.54 98.4491 219.9 101.436 219.687 103.529C219.473 105.622 223.314 108.01 223.314 108.01C223.192 109.439 223.264 110.878 223.527 112.288C223.954 113.304 225.021 113.568 225.661 112.714C226.301 111.861 226.728 107.797 227.368 109.504C228.008 111.211 230.569 124.023 232.286 125.516C234.003 127.01 241.674 126.156 243.808 125.73C245.941 125.303 249.995 116.342 251.936 110.997C253.877 105.653 252.952 96.2747 250.229 92.0074C247.506 87.74 241.908 86.7646 239.134 87.1913Z" fill="white" stroke="#2E353A" stroke-miterlimit="10"/>
<path d="M250.88 93.2983C250.118 95.3304 249.336 97.8705 247.172 98.033C243.788 98.2972 243.788 93.8673 241.441 92.3026C239.094 90.7379 243.006 100.116 241.187 97.5149C239.369 94.9138 234.675 92.3026 230.509 92.0486C226.343 91.7946 232.846 99.5977 231.291 99.5977C229.737 99.5977 227.125 94.6496 227.125 93.3491C227.125 92.0486 223.214 92.0079 218.784 92.0079C214.354 92.0079 216.183 94.609 216.183 96.1737C216.184 96.3966 216.247 96.6147 216.366 96.8036C216.679 97.0405 217.02 97.2383 217.382 97.3929C218.38 97.9172 219.464 98.2611 220.582 98.409C220.582 98.409 219.942 101.396 219.729 103.489C219.515 105.582 223.356 107.97 223.356 107.97C223.234 109.399 223.305 110.838 223.569 112.247C223.996 113.263 225.063 113.528 225.703 112.674C226.343 111.821 226.77 107.757 227.41 109.463C228.05 111.17 230.61 123.983 232.328 125.476C234.045 126.97 241.716 126.116 243.849 125.69C245.983 125.263 250.037 116.301 251.978 110.957C253.695 106.232 253.116 97.9314 250.88 93.2983Z" fill="#2E353A"/>
<path d="M223.335 136.49L218.641 145.025C218.641 145.025 230.376 141.611 236.787 141.611C241.294 141.691 245.788 142.119 250.229 142.891L247.242 134.569C247.242 134.569 231.016 132.863 223.335 136.49Z" fill="#779E1C" stroke="#2E353A" stroke-miterlimit="10"/>
<path d="M220.347 143.958C220.347 143.958 212.666 148.023 208.155 150.146C206.072 151.183 203.935 152.109 201.754 152.92C201.754 152.92 207.088 220.842 207.088 224.469C207.088 228.097 206.875 228.31 208.155 229.377C209.435 230.444 216.06 230.931 227.795 230.718C239.53 230.505 254.212 228.097 255.32 228.097C256.182 228.035 257.018 227.771 257.759 227.326C258.5 226.881 259.127 226.268 259.587 225.536C260.867 223.616 264.921 151.213 265.134 150.349C265.348 149.486 251.052 143.308 249.559 142.881C248.065 142.455 239.561 136.714 220.347 143.958Z" fill="#779E1C" stroke="#2E353A" stroke-miterlimit="10"/>
<path d="M246.216 198.337C244.873 199.562 243.436 200.68 241.918 201.68" stroke="#2E353A" stroke-linecap="round" stroke-linejoin="round"/>
<path d="M261.904 170.507C261.904 170.507 258.937 183.603 250.28 194.059" stroke="#2E353A" stroke-linecap="round" stroke-linejoin="round"/>
<path d="M225.56 109.494C225.842 111.481 226.015 113.482 226.078 115.489C226.078 117.826 224.513 119.126 225.56 120.173C226.606 121.219 227.378 120.691 228.161 118.872C229.001 116.717 229.348 114.402 229.177 112.095C228.943 110.297 228.679 106.365 225.56 109.494Z" fill="white" stroke="#2E353A" stroke-miterlimit="10"/>
<path d="M237.051 321.065L242.771 262.581L251.672 251.771" stroke="white" stroke-miterlimit="10"/>
</svg>
