<svg width="380" height="400" viewBox="0 0 380 400" fill="none" xmlns="http://www.w3.org/2000/svg">
<path d="M1.13672 363.481H378.864" stroke="#263238" stroke-linecap="round" stroke-linejoin="round"/>
<path d="M215.147 76.096V61.9195L204.528 61.0165C203.907 58.7994 203.029 56.6628 201.91 54.6507L208.763 46.524L198.74 36.5011L190.614 43.3546C188.618 42.2314 186.496 41.3493 184.293 40.727L183.39 30.1082H169.096L168.193 40.727C165.989 41.3493 163.868 42.2314 161.872 43.3546L153.746 36.5011L143.723 46.524L150.576 54.6507C149.457 56.6628 148.578 58.7994 147.958 61.0165L137.339 61.9195V76.096L147.958 76.999C148.582 79.2005 149.461 81.3218 150.576 83.3197L143.723 91.4463L153.746 101.469L161.872 94.6157C163.868 95.739 165.989 96.621 168.193 97.2434L169.096 107.862H183.273L184.175 97.2434C186.394 96.6219 188.531 95.7399 190.541 94.6157L198.668 101.469L208.691 91.4463L201.837 83.3197C202.953 81.3218 203.832 79.2005 204.456 76.999L215.147 76.096ZM176.229 85.4778C172.972 85.4778 169.788 84.5118 167.079 82.7021C164.371 80.8923 162.26 78.3201 161.013 75.3106C159.767 72.301 159.44 68.9895 160.076 65.7946C160.711 62.5997 162.28 59.6651 164.583 57.3617C166.887 55.0583 169.821 53.4897 173.016 52.8542C176.211 52.2187 179.523 52.5449 182.532 53.7914C185.542 55.038 188.114 57.149 189.924 59.8575C191.733 62.566 192.699 65.7503 192.699 69.0077C192.698 71.1733 192.27 73.3174 191.44 75.3175C190.61 77.3176 189.393 79.1343 187.86 80.6639C186.327 82.1936 184.508 83.406 182.506 84.232C180.504 85.058 178.359 85.4813 176.193 85.4778H176.229Z" stroke="#263238" stroke-linecap="round" stroke-linejoin="round"/>
<path d="M367.468 214.655V207.865L362.375 207.423C362.075 206.361 361.654 205.336 361.12 204.371L364.407 200.461L359.621 195.657L355.72 198.944C354.756 198.406 353.732 197.985 352.668 197.689L352.226 192.596H345.426L344.993 197.689C343.929 197.983 342.904 198.404 341.941 198.944L338.031 195.657L333.227 200.461L336.514 204.371C335.973 205.334 335.549 206.359 335.25 207.423L330.157 207.865V214.655L335.25 215.098C335.549 216.162 335.973 217.186 336.514 218.15L333.2 222.024L338.004 226.827L341.914 223.541C342.877 224.08 343.902 224.502 344.966 224.796L345.399 229.888H352.199L352.641 224.796C353.704 224.5 354.729 224.079 355.693 223.541L359.594 226.827L364.407 222.024L361.12 218.114C361.654 217.148 362.075 216.124 362.375 215.062L367.468 214.655ZM348.803 219.17C347.24 219.172 345.712 218.71 344.411 217.843C343.111 216.976 342.097 215.743 341.497 214.299C340.898 212.856 340.74 211.267 341.044 209.733C341.348 208.2 342.1 206.792 343.204 205.686C344.309 204.58 345.717 203.826 347.25 203.521C348.783 203.215 350.372 203.371 351.816 203.969C353.26 204.567 354.495 205.579 355.363 206.879C356.232 208.178 356.695 209.706 356.695 211.269C356.694 212.307 356.489 213.334 356.09 214.292C355.692 215.25 355.109 216.121 354.375 216.853C353.64 217.586 352.769 218.167 351.81 218.563C350.851 218.959 349.823 219.162 348.785 219.161L348.803 219.17Z" stroke="#263238" stroke-linecap="round" stroke-linejoin="round"/>
<path d="M12.2085 72.9989H261.791C262.908 72.9989 263.978 73.3873 264.767 74.0788C265.557 74.7702 266 75.708 266 76.6859V86.9989H8V76.6859C8 75.708 8.4434 74.7702 9.23265 74.0788C10.0219 73.3873 11.0923 72.9989 12.2085 72.9989Z" fill="#779E1C" stroke="#263238" stroke-linecap="round" stroke-linejoin="round"/>
<path d="M255.176 90.1637H17.959V257.094H255.176V90.1637Z" fill="white" stroke="#263238" stroke-linecap="round" stroke-linejoin="round"/>
<path d="M258.806 80.2041C258.806 80.9185 258.594 81.6168 258.197 82.2108C257.8 82.8047 257.236 83.2677 256.576 83.541C255.916 83.8144 255.19 83.8859 254.489 83.7466C253.789 83.6072 253.145 83.2632 252.64 82.7581C252.135 82.253 251.791 81.6094 251.651 80.9088C251.512 80.2081 251.584 79.4819 251.857 78.8219C252.13 78.162 252.593 77.5979 253.187 77.201C253.781 76.8041 254.48 76.5923 255.194 76.5923C256.152 76.5923 257.071 76.9728 257.748 77.6502C258.425 78.3275 258.806 79.2462 258.806 80.2041Z" fill="white" stroke="#263238" stroke-linecap="round" stroke-linejoin="round"/>
<path d="M246.02 80.2041C246.02 80.9185 245.808 81.6168 245.411 82.2108C245.014 82.8047 244.45 83.2677 243.79 83.541C243.13 83.8144 242.404 83.8859 241.703 83.7466C241.002 83.6072 240.359 83.2632 239.854 82.7581C239.349 82.253 239.005 81.6094 238.865 80.9088C238.726 80.2081 238.797 79.4819 239.071 78.8219C239.344 78.162 239.807 77.5979 240.401 77.201C240.995 76.8041 241.693 76.5923 242.408 76.5923C243.366 76.5923 244.284 76.9728 244.962 77.6502C245.639 78.3275 246.02 79.2462 246.02 80.2041Z" fill="white" stroke="#263238" stroke-linecap="round" stroke-linejoin="round"/>
<path d="M233.207 80.2041C233.207 80.9185 232.995 81.6168 232.598 82.2108C232.201 82.8047 231.637 83.2677 230.977 83.541C230.317 83.8144 229.591 83.8859 228.891 83.7466C228.19 83.6072 227.546 83.2632 227.041 82.7581C226.536 82.253 226.192 81.6094 226.053 80.9088C225.913 80.2081 225.985 79.4819 226.258 78.8219C226.532 78.162 226.995 77.5979 227.589 77.201C228.183 76.8041 228.881 76.5923 229.595 76.5923C230.553 76.5923 231.472 76.9728 232.149 77.6502C232.827 78.3275 233.207 79.2462 233.207 80.2041Z" fill="white" stroke="#263238" stroke-linecap="round" stroke-linejoin="round"/>
<path d="M247.988 97.3242H238.598" stroke="#263238" stroke-width="2" stroke-linecap="round" stroke-linejoin="round"/>
<path d="M247.988 101.135H238.598" stroke="#263238" stroke-width="2" stroke-linecap="round" stroke-linejoin="round"/>
<path d="M247.988 104.945H238.598" stroke="#263238" stroke-width="2" stroke-linecap="round" stroke-linejoin="round"/>
<path d="M34.3838 195.819H105.474" stroke="#263238" stroke-width="2" stroke-linecap="round" stroke-linejoin="round"/>
<path d="M34.3838 201.427H105.474" stroke="#263238" stroke-width="2" stroke-linecap="round" stroke-linejoin="round"/>
<path d="M34.3838 207.133H90.4397" stroke="#263238" stroke-width="2" stroke-linecap="round" stroke-linejoin="round"/>
<path d="M185.133 92.0419V92.4934" stroke="#263238" stroke-linecap="round" stroke-linejoin="round"/>
<path d="M185.133 95.2021V252.525" stroke="#263238" stroke-linecap="round" stroke-linejoin="round" stroke-dasharray="1 3"/>
<path d="M185.133 253.88V254.331" stroke="#263238" stroke-linecap="round" stroke-linejoin="round"/>
<path d="M20.8125 219.657H21.264" stroke="#263238" stroke-linecap="round" stroke-linejoin="round"/>
<path d="M23.9639 219.657H249.74" stroke="#263238" stroke-linecap="round" stroke-linejoin="round" stroke-dasharray="1 2.99"/>
<path d="M251.095 219.657H251.546" stroke="#263238" stroke-linecap="round" stroke-linejoin="round"/>
<path d="M186.695 218.095H183.58V221.211H186.695V218.095Z" fill="white" stroke="#263238" stroke-linecap="round" stroke-linejoin="round"/>
<path d="M172.7 189.733H131.109" stroke="#263238" stroke-linecap="round" stroke-linejoin="round"/>
<path d="M173.503 208.966C173.503 208.966 173.503 189.634 151.905 189.634C130.306 189.634 130.27 208.966 130.27 208.966" stroke="#263238" stroke-linecap="round" stroke-linejoin="round"/>
<path d="M173.503 210.79C174.51 210.79 175.327 209.974 175.327 208.966C175.327 207.959 174.51 207.142 173.503 207.142C172.495 207.142 171.679 207.959 171.679 208.966C171.679 209.974 172.495 210.79 173.503 210.79Z" fill="#779E1C" stroke="#263238" stroke-linecap="round" stroke-linejoin="round"/>
<path d="M128.463 208.966C128.463 208.609 128.569 208.26 128.767 207.963C128.966 207.666 129.248 207.435 129.578 207.298C129.908 207.161 130.271 207.126 130.621 207.195C130.971 207.265 131.293 207.437 131.546 207.689C131.798 207.942 131.97 208.264 132.04 208.614C132.11 208.964 132.074 209.328 131.937 209.658C131.801 209.988 131.569 210.27 131.272 210.468C130.975 210.666 130.626 210.772 130.269 210.772C129.79 210.772 129.331 210.582 128.992 210.243C128.653 209.905 128.463 209.445 128.463 208.966Z" fill="#779E1C" stroke="#263238" stroke-linecap="round" stroke-linejoin="round"/>
<path d="M171.905 191.232H175.102V188.036H171.905V191.232Z" fill="#779E1C" stroke="#263238" stroke-linecap="round" stroke-linejoin="round"/>
<path d="M150.305 191.232H153.502V188.036H150.305V191.232Z" fill="#779E1C" stroke="#263238" stroke-linecap="round" stroke-linejoin="round"/>
<path d="M128.707 191.232H131.903V188.036H128.707V191.232Z" fill="#779E1C" stroke="#263238" stroke-linecap="round" stroke-linejoin="round"/>
<path d="M60.2263 131.61V125.217L55.4496 124.81C55.1661 123.811 54.7692 122.848 54.2668 121.939L57.3549 118.273L52.8401 113.758L49.165 116.846C48.2593 116.337 47.2951 115.94 46.2936 115.663L45.8783 110.878H39.5033L39.088 115.663C38.089 115.939 37.1276 116.336 36.2256 116.846L32.5505 113.758L28.0357 118.273L31.1239 121.939C30.6177 122.846 30.2206 123.81 29.941 124.81L25.1553 125.217V131.61L29.941 132.016C30.2222 133.016 30.6192 133.979 31.1239 134.887L28.0357 138.553L32.5505 143.068L36.2256 139.98C37.1219 140.489 38.0771 140.886 39.0699 141.163L39.4853 145.949H45.8692L46.2846 141.163C47.2829 140.886 48.2441 140.488 49.147 139.98L52.822 143.068L57.3368 138.553L54.2487 134.887C54.7496 133.978 55.1464 133.014 55.4316 132.016L60.2263 131.61ZM42.6818 135.835C41.2138 135.835 39.7787 135.4 38.5581 134.585C37.3375 133.769 36.3862 132.61 35.8244 131.253C35.2626 129.897 35.1156 128.405 35.402 126.965C35.6884 125.525 36.3953 124.203 37.4334 123.165C38.4714 122.127 39.7939 121.42 41.2337 121.133C42.6735 120.847 44.1659 120.994 45.5222 121.556C46.8784 122.118 48.0376 123.069 48.8532 124.289C49.6688 125.51 50.1041 126.945 50.1041 128.413C50.1041 130.382 49.3221 132.27 47.9302 133.661C46.5382 135.053 44.6503 135.835 42.6818 135.835Z" fill="#779E1C" stroke="#263238" stroke-linecap="round" stroke-linejoin="round"/>
<path d="M81.9336 145.931V141.56L78.6558 141.271C78.4673 140.588 78.1975 139.931 77.8522 139.312L79.9651 136.802L76.868 133.714L74.3577 135.826C73.7376 135.482 73.0802 135.209 72.3983 135.014L72.1184 131.727H67.7481L67.4591 135.005C66.7772 135.2 66.1198 135.473 65.4997 135.817L62.9894 133.705L59.8923 136.793L62.0143 139.303C61.6623 139.919 61.3893 140.578 61.2016 141.262L57.9238 141.551V145.922L61.2016 146.202C61.3876 146.887 61.6607 147.545 62.0143 148.161L59.8923 150.689L62.9894 153.777L65.4997 151.664C66.1198 152.009 66.7772 152.282 67.4591 152.477L67.7481 155.746H72.1184L72.3983 152.477C73.0802 152.282 73.7376 152.009 74.3577 151.664L76.868 153.777L79.9651 150.689L77.8973 148.17C78.2442 147.552 78.5141 146.894 78.701 146.211L81.9336 145.931ZM69.9332 148.82C68.927 148.822 67.9429 148.525 67.1055 147.967C66.2681 147.409 65.6151 146.615 65.2292 145.686C64.8433 144.757 64.7419 143.734 64.9378 142.747C65.1336 141.76 65.618 140.853 66.3295 140.142C67.041 139.43 67.9477 138.946 68.9346 138.75C69.9216 138.554 70.9445 138.656 71.8738 139.041C72.8031 139.427 73.597 140.08 74.1549 140.918C74.7128 141.755 75.0097 142.739 75.0079 143.745C75.0055 145.091 74.4701 146.38 73.5189 147.331C72.5677 148.282 71.2784 148.818 69.9332 148.82Z" fill="#779E1C" stroke="#263238" stroke-linecap="round" stroke-linejoin="round"/>
<path d="M194.055 230.276H229.026" stroke="#263238" stroke-width="2" stroke-linecap="round" stroke-linejoin="round"/>
<path d="M194.055 235.884H229.026" stroke="#263238" stroke-width="2" stroke-linecap="round" stroke-linejoin="round"/>
<path d="M194.055 241.59H213.992" stroke="#263238" stroke-width="2" stroke-linecap="round" stroke-linejoin="round"/>
<path d="M147.976 243.92H129.565C128.367 243.92 127.219 243.444 126.372 242.598C125.525 241.751 125.05 240.603 125.05 239.405C125.05 238.208 125.525 237.059 126.372 236.213C127.219 235.366 128.367 234.89 129.565 234.89H147.976C149.173 234.89 150.322 235.366 151.168 236.213C152.015 237.059 152.491 238.208 152.491 239.405C152.491 240.603 152.015 241.751 151.168 242.598C150.322 243.444 149.173 243.92 147.976 243.92Z" fill="#779E1C" stroke="#263238" stroke-linecap="round" stroke-linejoin="round"/>
<path d="M182.289 243.92H163.877C162.68 243.92 161.531 243.444 160.685 242.598C159.838 241.751 159.362 240.603 159.362 239.405C159.362 238.208 159.838 237.059 160.685 236.213C161.531 235.366 162.68 234.89 163.877 234.89H182.289C183.486 234.89 184.634 235.366 185.481 236.213C186.328 237.059 186.803 238.208 186.803 239.405C186.803 240.603 186.328 241.751 185.481 242.598C184.634 243.444 183.486 243.92 182.289 243.92Z" fill="#779E1C" stroke="#263238" stroke-linecap="round" stroke-linejoin="round"/>
<path d="M235.653 147.05H196.609V186.094H235.653V147.05Z" fill="white" stroke="#263238" stroke-linecap="round" stroke-linejoin="round"/>
<path d="M196.609 147.05L235.653 186.094" stroke="#263238" stroke-linecap="round" stroke-linejoin="round"/>
<path d="M235.653 147.05L196.609 186.094" stroke="#263238" stroke-linecap="round" stroke-linejoin="round"/>
<path d="M211.924 102.724V111.835L207.906 115.853H198.795V102.724H211.924Z" fill="white" stroke="#263238" stroke-linecap="round" stroke-linejoin="round"/>
<path d="M211.923 111.835L207.905 115.853V111.835H211.923Z" fill="white" stroke="#263238" stroke-linecap="round" stroke-linejoin="round"/>
<path d="M72.299 173.182V182.293L68.2808 186.32H59.1699V173.182H72.299Z" fill="white" stroke="#263238" stroke-linecap="round" stroke-linejoin="round"/>
<path d="M72.2994 182.293L68.2812 186.32V182.293H72.2994Z" fill="white" stroke="#263238" stroke-linecap="round" stroke-linejoin="round"/>
<path d="M22.6899 229.319V238.43L18.6717 242.448H9.55176V229.319H22.6899Z" fill="white" stroke="#263238" stroke-linecap="round" stroke-linejoin="round"/>
<path d="M22.6901 238.43L18.6719 242.448V238.43H22.6901Z" fill="white" stroke="#263238" stroke-linecap="round" stroke-linejoin="round"/>
<path d="M278.057 123.853H229.604V154.22H278.057V123.853Z" fill="#263238" stroke="#263238" stroke-linecap="round" stroke-linejoin="round"/>
<path d="M278.057 123.853H229.604V128.468H278.057V123.853Z" fill="#779E1C" stroke="#263238" stroke-linecap="round" stroke-linejoin="round"/>
<path d="M234.544 132.359H246.933" stroke="white" stroke-linecap="round" stroke-linejoin="round"/>
<path d="M240.738 135.818H262.175" stroke="white" stroke-linecap="round" stroke-linejoin="round"/>
<path d="M238.002 139.041H244.314" stroke="white" stroke-linecap="round" stroke-linejoin="round"/>
<path d="M240.738 142.843H255.177" stroke="white" stroke-linecap="round" stroke-linejoin="round"/>
<path d="M234.544 146.292H246.933" stroke="white" stroke-linecap="round" stroke-linejoin="round"/>
<path d="M95.8309 246.033H47.3779V276.4H95.8309V246.033Z" fill="#263238" stroke="#263238" stroke-linecap="round" stroke-linejoin="round"/>
<path d="M95.8309 246.033H47.3779V250.647H95.8309V246.033Z" fill="#779E1C" stroke="#263238" stroke-linecap="round" stroke-linejoin="round"/>
<path d="M52.3262 254.548H64.7058" stroke="white" stroke-linecap="round" stroke-linejoin="round"/>
<path d="M58.5117 257.997H79.948" stroke="white" stroke-linecap="round" stroke-linejoin="round"/>
<path d="M55.7754 261.221H62.0871" stroke="white" stroke-linecap="round" stroke-linejoin="round"/>
<path d="M58.5117 265.022H72.9501" stroke="white" stroke-linecap="round" stroke-linejoin="round"/>
<path d="M52.3262 268.481H64.7058" stroke="white" stroke-linecap="round" stroke-linejoin="round"/>
<path d="M114.017 26.0808H69.5007C68.9793 26.0832 68.48 26.2913 68.1114 26.66C67.7428 27.0286 67.5346 27.5279 67.5322 28.0493V48.8174C67.5346 49.3379 67.7431 49.8363 68.112 50.2035C68.4809 50.5707 68.9802 50.7768 69.5007 50.7768H89.4561L91.7316 58.9035L94.0161 50.7768H114.017C114.537 50.7768 115.037 50.5707 115.405 50.2035C115.774 49.8363 115.983 49.3379 115.985 48.8174V28.0493C115.983 27.5279 115.775 27.0286 115.406 26.66C115.037 26.2913 114.538 26.0832 114.017 26.0808Z" fill="#779E1C" stroke="#263238" stroke-linecap="round" stroke-linejoin="round"/>
<path d="M74.918 32.0223H108.553" stroke="#263238" stroke-width="2" stroke-linecap="round" stroke-linejoin="round"/>
<path d="M74.918 36.2843H108.553" stroke="#263238" stroke-width="2" stroke-linecap="round" stroke-linejoin="round"/>
<path d="M74.918 40.5463H108.553" stroke="#263238" stroke-width="2" stroke-linecap="round" stroke-linejoin="round"/>
<path d="M74.918 44.8082H100.264" stroke="#263238" stroke-width="2" stroke-linecap="round" stroke-linejoin="round"/>
<path d="M187.038 173.787C182.262 174.194 176.203 168.487 176.203 168.487C176.087 168.607 175.944 168.698 175.787 168.754C175.629 168.809 175.461 168.827 175.295 168.806C175.13 168.785 174.971 168.725 174.832 168.633C174.694 168.54 174.579 168.416 174.496 168.27C173.72 167.151 170.351 164.559 170.162 162.32C169.972 160.081 173.945 156.451 173.945 156.451C170.884 157.281 170.559 155.484 170.559 155.484C170.559 155.484 175.715 151.232 177.521 151.114C178.225 151.069 181.295 152.839 184.266 155.223C187.372 157.724 193.205 166.528 193.205 166.528C193.205 166.528 212.935 180.858 217.92 184.524C224.502 189.364 232.304 197.951 232.304 197.951C232.304 197.951 258.49 209.761 265.713 216.254L255.943 239.388C255.943 239.388 232.132 223.432 229.757 219.387C227.383 215.342 224.999 217.771 222.615 215.125C220.231 212.479 217.947 209.454 217.947 209.454C213.707 207.407 209.859 204.632 206.578 201.256C201.016 195.54 196.113 186.808 193.034 181.553C191.44 178.676 189.418 176.058 187.038 173.787Z" fill="white" stroke="#263238" stroke-linecap="round" stroke-linejoin="round"/>
<path d="M188.492 170.41C188.492 170.41 181.386 168.686 180.772 163.999C180.5 162.811 179.98 161.694 179.246 160.722C179.246 160.722 172.618 160.396 173.033 157.697L181.882 156.911C185.103 158.148 187.816 160.432 189.585 163.394" fill="white"/>
<path d="M188.492 170.41C188.492 170.41 181.386 168.686 180.772 163.999C180.5 162.811 179.98 161.694 179.246 160.722C179.246 160.722 172.618 160.396 173.033 157.697L181.882 156.911C185.103 158.148 187.816 160.432 189.585 163.394" stroke="#263238" stroke-linecap="round" stroke-linejoin="round"/>
<path d="M176.193 168.487C176.509 167.902 176.614 167.226 176.491 166.573C176.491 166.573 178.442 166.212 178.225 164.487C178.225 164.487 181.115 164.135 179.245 160.722" stroke="#263238" stroke-linecap="round" stroke-linejoin="round"/>
<path d="M178.225 164.487C178.225 164.487 174.333 161.607 173.899 160.288" stroke="#263238" stroke-linecap="round" stroke-linejoin="round"/>
<path d="M176.491 166.573C176.491 166.573 172.347 164.044 172.274 162.573" stroke="#263238" stroke-linecap="round" stroke-linejoin="round"/>
<path d="M177.439 153.588C177.439 153.588 176.121 155.954 173.936 156.451" stroke="#263238" stroke-linecap="round" stroke-linejoin="round"/>
<path d="M176.78 154.509C177.473 154.871 178.127 155.304 178.731 155.8" stroke="#263238" stroke-linecap="round" stroke-linejoin="round"/>
<path d="M328.125 234.484C317.908 230.16 307.368 226.64 296.603 223.956C280.747 220.245 255.067 216.931 255.067 216.931C255.067 216.931 262.128 288.987 260.268 293.321C258.408 297.656 247.247 312.211 247.247 312.211C247.247 312.211 307.646 335.761 318.175 337.765C328.703 339.77 323.213 303.227 323.213 303.227C323.213 303.227 334.338 256.779 328.125 234.484Z" fill="#263238"/>
<path d="M306.446 226.746C306.446 226.746 307.882 229.455 304.107 230.873C294.328 234.484 283.908 231.297 285.019 227.468C285.443 226.006 287.863 227.468 287.728 222.051C287.661 221.216 287.437 220.401 287.068 219.649C286.379 218.184 285.547 216.789 284.585 215.486C283.542 214.036 282.424 212.64 281.235 211.305C281.235 211.305 296.757 201.373 308.27 211.305C308.252 211.26 303.972 213.427 306.446 226.746Z" fill="white" stroke="#263238" stroke-linecap="round" stroke-linejoin="round"/>
<path d="M325.678 355.084C319.565 365.017 288.549 369.721 271.618 369.279C254.688 368.836 205.973 345.802 202.668 340.89C199.607 336.375 192.085 321.413 203.679 312.374C204.663 311.615 205.708 310.938 206.803 310.351C214.741 306.053 267.528 319.607 267.528 319.607C267.528 319.607 270.796 317.539 271.997 317.692C275.681 318.162 278.318 321.142 285.758 323.264C290.969 324.754 305.19 319.029 314.274 323.95C315.282 324.489 316.212 325.163 317.037 325.955C325.525 334.063 331.782 345.124 325.678 355.084Z" fill="#779E1C"/>
<mask id="mask0_1006_31704" style="mask-type:luminance" maskUnits="userSpaceOnUse" x="197" y="309" width="132" height="61">
<path d="M325.678 355.084C319.565 365.017 288.549 369.721 271.618 369.279C254.688 368.836 205.973 345.802 202.668 340.89C199.607 336.375 192.085 321.413 203.679 312.374C204.663 311.615 205.708 310.938 206.803 310.351C214.741 306.053 267.528 319.607 267.528 319.607C267.528 319.607 270.796 317.539 271.997 317.692C275.681 318.162 278.318 321.142 285.758 323.264C290.969 324.754 305.19 319.029 314.274 323.95C315.282 324.489 316.212 325.163 317.037 325.955C325.525 334.063 331.782 345.124 325.678 355.084Z" fill="white"/>
</mask>
<g mask="url(#mask0_1006_31704)">
<path opacity="0.3" d="M314.273 323.95C304.964 323.327 296.666 325.277 290.869 328.7C283.997 332.763 251.545 348.393 251.545 348.393C251.617 346.714 253.423 343.328 253.423 343.328C250.371 340.619 242.389 338.497 242.389 338.497C236.203 333.214 211.688 317.458 203.679 312.374C204.662 311.615 205.707 310.938 206.803 310.351C214.74 306.053 267.527 319.607 267.527 319.607C267.527 319.607 270.796 317.539 271.997 317.692C275.681 318.162 278.318 321.142 285.758 323.264C290.995 324.754 305.19 319.029 314.273 323.95Z" fill="black" fill-opacity="0.7"/>
</g>
<path d="M325.678 355.084C319.565 365.017 288.549 369.721 271.618 369.279C254.688 368.836 205.973 345.802 202.668 340.89C199.607 336.375 192.085 321.413 203.679 312.374C204.663 311.615 205.708 310.938 206.803 310.351C214.741 306.053 267.528 319.607 267.528 319.607C267.528 319.607 270.796 317.539 271.997 317.692C275.681 318.162 278.318 321.142 285.758 323.264C290.969 324.754 305.19 319.029 314.274 323.95C315.282 324.489 316.212 325.163 317.037 325.955C325.525 334.063 331.782 345.124 325.678 355.084Z" stroke="#263238" stroke-linecap="round" stroke-linejoin="round"/>
<path d="M316.161 364.078L316.938 367.482C316.938 367.482 314.861 373.369 305.732 374.335C296.603 375.301 291.194 377.315 286.77 377.577C284.457 377.759 282.132 377.723 279.826 377.468L278.923 376.132L316.161 364.078Z" fill="white" stroke="#263238" stroke-linecap="round" stroke-linejoin="round"/>
<path d="M263.148 363.716L278.968 376.132C286.593 375.48 294.169 374.346 301.651 372.737C309.145 371.003 315.692 368.52 316.044 365.107C316.595 359.924 311.051 358.506 304.468 358.705C303.24 358.705 301.976 358.831 300.703 358.958C290.165 360.086 276.765 354.271 276.765 354.271L263.148 363.716Z" fill="#263238"/>
<mask id="mask1_1006_31704" style="mask-type:luminance" maskUnits="userSpaceOnUse" x="263" y="354" width="54" height="23">
<path d="M263.148 363.716L278.968 376.132C286.593 375.48 294.169 374.346 301.651 372.737C309.145 371.003 315.692 368.52 316.044 365.107C316.595 359.924 311.051 358.506 304.468 358.705C303.24 358.705 301.976 358.831 300.703 358.958C290.165 360.086 276.765 354.271 276.765 354.271L263.148 363.716Z" fill="white"/>
</mask>
<g mask="url(#mask1_1006_31704)">
<path opacity="0.3" d="M316.053 364.98C312.982 366.123 310.035 367.575 307.258 369.315C307.258 369.315 292.567 376.872 269.984 369.089L263.148 363.716L276.765 354.262C276.765 354.262 290.156 360.086 300.703 358.949C301.976 358.813 303.24 358.723 304.468 358.696C311.005 358.497 316.504 359.888 316.053 364.98Z" fill="black" fill-opacity="0.7"/>
</g>
<path d="M263.148 363.716L278.968 376.132C286.593 375.48 294.169 374.346 301.651 372.737C309.145 371.003 315.692 368.52 316.044 365.107C316.595 359.924 311.051 358.506 304.468 358.705C303.24 358.705 301.976 358.831 300.703 358.958C290.165 360.086 276.765 354.271 276.765 354.271L263.148 363.716Z" stroke="#263238" stroke-linecap="round" stroke-linejoin="round"/>
<path d="M277.894 368.61C275.041 369.071 278.174 374.931 282.039 373.125C285.904 371.319 280.748 368.141 277.894 368.61Z" fill="white"/>
<mask id="mask2_1006_31704" style="mask-type:luminance" maskUnits="userSpaceOnUse" x="276" y="368" width="8" height="6">
<path d="M277.894 368.61C275.041 369.071 278.174 374.931 282.039 373.125C285.904 371.319 280.748 368.141 277.894 368.61Z" fill="white"/>
</mask>
<g mask="url(#mask2_1006_31704)">
<path opacity="0.2" d="M283.249 372.195C281.182 371.943 279.13 371.584 277.1 371.121C276.558 369.974 276.685 368.8 277.895 368.61C280.287 368.213 284.315 370.425 283.249 372.195Z" fill="black" fill-opacity="0.7"/>
</g>
<path d="M277.894 368.61C275.041 369.071 278.174 374.931 282.039 373.125C285.904 371.319 280.748 368.141 277.894 368.61Z" stroke="#263238" stroke-linecap="round" stroke-linejoin="round"/>
<path d="M301.651 372.728C309.146 370.994 315.692 368.511 316.044 365.098C316.595 359.915 311.051 358.497 304.468 358.696C304.179 358.976 297.795 365.143 301.651 372.728Z" fill="white"/>
<mask id="mask3_1006_31704" style="mask-type:luminance" maskUnits="userSpaceOnUse" x="300" y="358" width="17" height="15">
<path d="M301.651 372.728C309.146 370.994 315.692 368.511 316.044 365.098C316.595 359.915 311.051 358.497 304.468 358.696C304.179 358.975 297.795 365.143 301.651 372.728Z" fill="white"/>
</mask>
<g mask="url(#mask3_1006_31704)">
<path opacity="0.3" d="M316.053 364.981C312.982 366.123 310.035 367.575 307.258 369.315C305.279 370.23 303.205 370.923 301.073 371.382C298.545 364.43 304.197 358.958 304.468 358.696C311.006 358.497 316.505 359.888 316.053 364.981Z" fill="black" fill-opacity="0.7"/>
</g>
<path d="M301.651 372.728C309.146 370.994 315.692 368.511 316.044 365.098C316.595 359.915 311.051 358.497 304.468 358.696C304.179 358.976 297.795 365.143 301.651 372.728Z" stroke="#263238" stroke-linecap="round" stroke-linejoin="round"/>
<path d="M296.305 366.29H296.35C296.453 366.295 296.556 366.279 296.652 366.244C296.749 366.209 296.838 366.155 296.913 366.085C296.989 366.015 297.05 365.931 297.093 365.838C297.136 365.744 297.159 365.643 297.163 365.54C297.419 363.322 298.367 361.24 299.872 359.59C299.944 359.518 300.002 359.432 300.041 359.337C300.081 359.243 300.101 359.141 300.101 359.039C300.101 358.937 300.081 358.835 300.041 358.741C300.002 358.646 299.944 358.56 299.872 358.488C299.725 358.344 299.527 358.263 299.321 358.263C299.115 358.263 298.917 358.344 298.77 358.488C297 360.408 295.9 362.851 295.637 365.45C295.619 365.649 295.678 365.847 295.803 366.004C295.927 366.16 296.107 366.263 296.305 366.29Z" fill="white" stroke="#263238" stroke-linecap="round" stroke-linejoin="round"/>
<path d="M293.172 366.498H293.235C293.338 366.5 293.44 366.482 293.536 366.445C293.631 366.407 293.719 366.351 293.793 366.28C293.866 366.208 293.925 366.123 293.966 366.029C294.007 365.934 294.028 365.833 294.029 365.73C294.209 363.475 295.044 361.322 296.431 359.536C296.507 359.458 296.566 359.365 296.604 359.263C296.643 359.161 296.659 359.053 296.653 358.944C296.647 358.835 296.619 358.729 296.569 358.632C296.52 358.535 296.451 358.449 296.367 358.38C296.283 358.311 296.186 358.26 296.081 358.231C295.976 358.202 295.866 358.194 295.759 358.21C295.651 358.225 295.548 358.262 295.455 358.32C295.363 358.377 295.283 358.453 295.221 358.542C293.61 360.598 292.651 363.089 292.467 365.694C292.46 365.893 292.528 366.087 292.659 366.236C292.79 366.386 292.974 366.479 293.172 366.498Z" fill="white" stroke="#263238" stroke-linecap="round" stroke-linejoin="round"/>
<path d="M289.425 366.082C289.527 366.092 289.63 366.082 289.728 366.052C289.826 366.022 289.917 365.972 289.996 365.907C290.075 365.841 290.14 365.761 290.188 365.67C290.236 365.579 290.265 365.48 290.274 365.378C290.518 362.669 292.847 359.12 292.874 359.057C292.989 358.883 293.03 358.671 292.99 358.467C292.949 358.262 292.83 358.082 292.658 357.965C292.485 357.851 292.274 357.81 292.071 357.85C291.868 357.891 291.69 358.01 291.574 358.181C291.466 358.335 288.992 362.055 288.712 365.197C288.698 365.303 288.706 365.41 288.734 365.512C288.763 365.614 288.812 365.71 288.879 365.792C288.946 365.875 289.029 365.943 289.122 365.993C289.216 366.043 289.319 366.073 289.425 366.082Z" fill="white" stroke="#263238" stroke-linecap="round" stroke-linejoin="round"/>
<path d="M285.885 365.712C285.954 365.721 286.024 365.721 286.093 365.712C286.194 365.696 286.292 365.659 286.379 365.605C286.467 365.55 286.543 365.479 286.602 365.395C286.662 365.311 286.704 365.216 286.727 365.115C286.749 365.014 286.752 364.91 286.734 364.809C286.183 361.486 289.271 358.642 289.298 358.615C289.4 358.47 289.451 358.296 289.441 358.119C289.432 357.942 289.363 357.774 289.246 357.641C289.129 357.509 288.971 357.419 288.797 357.388C288.622 357.356 288.443 357.385 288.287 357.468C288.133 357.603 284.53 360.908 285.226 365.089C285.259 365.248 285.34 365.392 285.458 365.504C285.575 365.615 285.725 365.688 285.885 365.712Z" fill="white" stroke="#263238" stroke-linecap="round" stroke-linejoin="round"/>
<path d="M282.039 364.782C282.123 364.795 282.208 364.795 282.292 364.782C282.486 364.734 282.655 364.615 282.764 364.447C282.873 364.279 282.914 364.076 282.879 363.879C282.201 360.917 285.118 357.558 285.154 357.558C285.289 357.402 285.358 357.199 285.344 356.993C285.33 356.786 285.236 356.594 285.082 356.457C285.006 356.388 284.916 356.335 284.82 356.301C284.723 356.267 284.62 356.253 284.518 356.258C284.415 356.264 284.315 356.29 284.223 356.335C284.131 356.38 284.048 356.443 283.98 356.52C283.836 356.682 280.495 360.502 281.353 364.258C281.402 364.404 281.494 364.531 281.616 364.624C281.738 364.717 281.885 364.772 282.039 364.782Z" fill="white" stroke="#263238" stroke-linecap="round" stroke-linejoin="round"/>
<path d="M200.7 358.985L199.571 362.29C199.571 362.29 201.016 368.367 209.991 370.281C218.967 372.195 224.132 374.796 228.466 375.5C230.747 375.92 233.063 376.126 235.383 376.114L236.421 374.877L200.7 358.985Z" fill="white" stroke="#263238" stroke-linecap="round" stroke-linejoin="round"/>
<path d="M253.424 364.195L236.394 374.877C228.879 373.429 221.463 371.508 214.19 369.125C206.921 366.615 200.646 363.454 200.646 360.023C200.646 354.804 206.307 353.982 212.835 354.867C214.054 355.03 215.301 355.255 216.556 355.517C226.913 357.748 240.845 353.368 240.845 353.368L253.424 364.195Z" fill="#263238"/>
<mask id="mask4_1006_31704" style="mask-type:luminance" maskUnits="userSpaceOnUse" x="200" y="353" width="54" height="22">
<path d="M253.423 364.195L236.393 374.877C228.878 373.43 221.462 371.509 214.189 369.125C206.92 366.615 200.645 363.455 200.645 360.024C200.645 354.804 206.306 353.983 212.835 354.868C214.054 355.03 215.3 355.256 216.555 355.518C226.912 357.748 240.844 353.369 240.844 353.369L253.423 364.195Z" fill="white"/>
</mask>
<g mask="url(#mask4_1006_31704)">
<path opacity="0.3" d="M253.423 364.195L243.409 370.516C235.289 367.994 228.169 362.98 223.057 356.186C229.093 356.053 235.084 355.115 240.872 353.396L253.423 364.195Z" fill="black" fill-opacity="0.7"/>
</g>
<path d="M253.424 364.195L236.394 374.877C228.879 373.429 221.463 371.508 214.19 369.125C206.921 366.615 200.646 363.454 200.646 360.023C200.646 354.804 206.307 353.982 212.835 354.867C214.054 355.03 215.301 355.255 216.556 355.517C226.913 357.748 240.845 353.368 240.845 353.368L253.424 364.195Z" stroke="#263238" stroke-linecap="round" stroke-linejoin="round"/>
<path d="M214.19 369.116C206.921 366.606 200.646 363.445 200.646 360.014C200.646 354.795 206.307 353.973 212.835 354.858C213.124 355.165 218.822 361.983 214.19 369.116Z" fill="white" stroke="#263238" stroke-linecap="round" stroke-linejoin="round"/>
<path d="M220.186 363.274H220.14C219.933 363.26 219.739 363.165 219.601 363.01C219.462 362.855 219.39 362.651 219.4 362.443C219.386 360.214 218.668 358.047 217.35 356.249C217.274 356.17 217.214 356.076 217.176 355.973C217.138 355.869 217.122 355.759 217.13 355.649C217.137 355.539 217.167 355.432 217.219 355.335C217.27 355.238 217.341 355.152 217.428 355.084C217.514 355.016 217.614 354.967 217.721 354.94C217.828 354.913 217.939 354.908 218.047 354.927C218.156 354.946 218.259 354.987 218.351 355.049C218.442 355.11 218.52 355.19 218.578 355.283C220.136 357.368 220.973 359.904 220.962 362.506C220.96 362.711 220.877 362.906 220.732 363.05C220.586 363.193 220.39 363.274 220.186 363.274Z" fill="white" stroke="#263238" stroke-linecap="round" stroke-linejoin="round"/>
<path d="M223.274 363.789H223.201C222.994 363.77 222.803 363.671 222.669 363.512C222.536 363.352 222.471 363.147 222.488 362.94C222.552 360.683 221.953 358.457 220.763 356.538C220.704 356.452 220.662 356.356 220.64 356.255C220.618 356.153 220.616 356.048 220.635 355.946C220.653 355.844 220.691 355.746 220.748 355.658C220.804 355.571 220.877 355.495 220.962 355.436C221.047 355.377 221.144 355.335 221.245 355.313C221.347 355.291 221.452 355.289 221.554 355.307C221.656 355.326 221.754 355.364 221.841 355.42C221.929 355.477 222.004 355.549 222.064 355.635C223.459 357.846 224.151 360.427 224.05 363.039C224.041 363.24 223.955 363.429 223.811 363.568C223.667 363.708 223.474 363.786 223.274 363.789Z" fill="white" stroke="#263238" stroke-linecap="round" stroke-linejoin="round"/>
<path d="M227.049 363.789C226.841 363.784 226.644 363.698 226.498 363.55C226.353 363.401 226.272 363.202 226.272 362.994C226.326 360.24 224.376 356.511 224.349 356.475C224.253 356.289 224.235 356.073 224.297 355.873C224.36 355.674 224.498 355.507 224.683 355.409C224.867 355.314 225.082 355.296 225.28 355.358C225.478 355.421 225.643 355.559 225.739 355.743C225.83 355.906 227.897 359.861 227.843 363.021C227.839 363.228 227.752 363.424 227.604 363.568C227.455 363.712 227.255 363.791 227.049 363.789Z" fill="white" stroke="#263238" stroke-linecap="round" stroke-linejoin="round"/>
<path d="M230.606 363.789H230.398C230.199 363.732 230.03 363.598 229.928 363.417C229.827 363.236 229.801 363.022 229.857 362.822C230.76 359.581 227.987 356.42 227.96 356.393C227.882 356.319 227.82 356.228 227.778 356.129C227.736 356.029 227.715 355.921 227.717 355.813C227.718 355.705 227.742 355.598 227.787 355.5C227.832 355.401 227.897 355.313 227.977 355.241C228.058 355.168 228.152 355.113 228.255 355.079C228.358 355.045 228.466 355.032 228.574 355.042C228.682 355.052 228.787 355.084 228.881 355.137C228.976 355.189 229.059 355.26 229.125 355.346C229.261 355.499 232.502 359.165 231.365 363.247C231.311 363.405 231.209 363.543 231.073 363.641C230.937 363.738 230.773 363.79 230.606 363.789Z" fill="white" stroke="#263238" stroke-linecap="round" stroke-linejoin="round"/>
<path d="M234.533 363.274C234.447 363.277 234.361 363.262 234.281 363.229C234.182 363.197 234.091 363.146 234.013 363.079C233.935 363.011 233.871 362.929 233.825 362.836C233.78 362.743 233.754 362.642 233.748 362.539C233.742 362.436 233.758 362.332 233.793 362.235C234.777 359.364 232.222 355.725 232.204 355.689C232.13 355.606 232.074 355.509 232.04 355.404C232.007 355.298 231.995 355.187 232.008 355.077C232.02 354.967 232.056 354.861 232.112 354.765C232.168 354.67 232.244 354.588 232.334 354.523C232.424 354.459 232.527 354.415 232.636 354.394C232.744 354.372 232.856 354.374 232.964 354.399C233.072 354.423 233.174 354.471 233.262 354.537C233.35 354.604 233.424 354.689 233.477 354.786C233.603 354.958 236.52 359.111 235.283 362.759C235.226 362.911 235.123 363.042 234.989 363.134C234.855 363.226 234.696 363.275 234.533 363.274Z" fill="white" stroke="#263238" stroke-linecap="round" stroke-linejoin="round"/>
<path d="M238.245 367.509C241.035 368.276 237.342 373.739 233.649 371.572C229.956 369.405 235.464 366.75 238.245 367.509Z" fill="white" stroke="#263238" stroke-linecap="round" stroke-linejoin="round"/>
<path d="M206.045 338.506C210.226 344.366 222.623 350.84 234.94 356.177C237.142 359.825 239.741 363.22 242.687 366.299C250.29 374.118 253.387 369.739 253.387 369.739C253.387 369.739 258.191 369.197 265.279 368.231C265.574 368.919 266.089 369.489 266.742 369.853C267.395 370.218 268.151 370.355 268.891 370.245C269.794 370.1 271.6 368.782 273.595 367.039C291.501 364.33 315.8 359.816 322.355 354.56" fill="#779E1C"/>
<path d="M206.045 338.506C210.226 344.366 222.623 350.84 234.94 356.177C237.142 359.825 239.741 363.22 242.687 366.299C250.29 374.118 253.387 369.739 253.387 369.739C253.387 369.739 258.191 369.197 265.279 368.231C265.574 368.919 266.089 369.489 266.742 369.853C267.395 370.218 268.151 370.355 268.891 370.245C269.794 370.1 271.6 368.782 273.595 367.039C291.501 364.33 315.8 359.816 322.355 354.56" stroke="#263238" stroke-linecap="round" stroke-linejoin="round"/>
<path d="M315.376 327.345C312.279 323.941 309.182 323.787 302.68 324.248C302.68 324.248 285.714 329.666 273.876 336.79C262.038 343.914 244.773 351.472 244.773 351.472C244.773 351.472 239.509 349.946 235.843 351.472C235.843 351.472 233.27 351.671 234.994 356.168" stroke="#263238" stroke-linecap="round" stroke-linejoin="round"/>
<path d="M323.25 347.689C323.25 347.689 323.34 352.935 315.899 356.565" stroke="#263238" stroke-linecap="round" stroke-linejoin="round"/>
<path d="M241.188 325.801C241.188 325.801 252.927 334.289 255.284 339.887C257.591 340.86 259.819 342.01 261.948 343.327" stroke="#263238" stroke-linecap="round" stroke-linejoin="round"/>
<path d="M256.133 332.853C256.994 335.293 257.138 337.928 256.548 340.447" stroke="#263238" stroke-linecap="round" stroke-linejoin="round"/>
<path d="M253.424 327.345C254.063 328.275 254.625 329.257 255.103 330.28" stroke="#263238" stroke-linecap="round" stroke-linejoin="round"/>
<path d="M270.146 326.568C270.146 326.568 274.074 331.824 275.05 336.086" stroke="#263238" stroke-linecap="round" stroke-linejoin="round"/>
<path d="M292.025 358.317C293.486 358.231 294.94 358.05 296.378 357.775" stroke="#263238" stroke-linecap="round" stroke-linejoin="round"/>
<path d="M255.176 354.551C266.306 356.756 277.597 358.052 288.938 358.425" stroke="#263238" stroke-linecap="round" stroke-linejoin="round"/>
<path d="M334.627 274.928C334.627 274.928 332.505 311.95 330.003 314.072C327.502 316.193 323.556 316.853 316.089 317.476C308.621 318.099 275.591 320.121 275.591 320.121L272.033 309.512C272.033 309.512 289.596 307.706 297.388 304.861C303.264 302.853 309.274 301.266 315.375 300.112C315.375 300.112 313.894 290.802 313.894 286.793V267.939" fill="white"/>
<path d="M334.627 274.928C334.627 274.928 332.505 311.95 330.003 314.072C327.502 316.193 323.556 316.853 316.089 317.476C308.621 318.099 275.591 320.121 275.591 320.121L272.033 309.512C272.033 309.512 289.596 307.706 297.388 304.861C303.264 302.853 309.274 301.266 315.375 300.112C315.375 300.112 313.894 290.802 313.894 286.793V267.939" stroke="#263238" stroke-linecap="round" stroke-linejoin="round"/>
<path d="M328.126 234.484C336.172 239.442 338.546 250.9 335.765 275.361C335.765 275.361 338.14 278.251 334.628 279.696C334.628 279.696 321.471 274.775 315.358 278.17C309.245 281.565 310.844 273.483 310.844 273.483C310.844 273.483 308.324 250.981 313.896 246.909" fill="#263238"/>
<path d="M313.155 243.469C313.155 243.469 305.417 251.514 312.252 271.849C311.821 273.509 311.519 275.199 311.349 276.906C311.349 278.269 313.218 278.973 313.218 278.973" stroke="white" stroke-linecap="round" stroke-linejoin="round"/>
<path d="M304.106 257.095C304.106 257.095 304.666 267.027 310.824 271.334" stroke="white" stroke-linecap="round" stroke-linejoin="round"/>
<path d="M306.094 234.033C306.094 234.033 294.093 238.629 284.549 233.536C278.887 230.521 281.217 225.672 281.217 225.672" stroke="white" stroke-linecap="round" stroke-linejoin="round"/>
<path d="M219.797 327.363H285.117C286.593 327.364 288.062 327.172 289.488 326.794L302.373 323.417C302.551 323.371 302.709 323.267 302.822 323.122C302.935 322.976 302.996 322.798 302.996 322.614C302.996 322.391 302.908 322.177 302.75 322.02C302.593 321.862 302.379 321.774 302.156 321.774H217.097C216.876 321.776 216.665 321.866 216.509 322.023C216.354 322.18 216.267 322.392 216.267 322.614V323.833C216.267 324.769 216.639 325.667 217.301 326.329C217.963 326.991 218.861 327.363 219.797 327.363Z" fill="#757575" stroke="#263238" stroke-linecap="round" stroke-linejoin="round"/>
<path d="M213.341 324.112H278.842C279.098 324.124 279.354 324.072 279.585 323.961C279.817 323.85 280.017 323.683 280.168 323.475C280.319 323.268 280.417 323.026 280.451 322.772C280.486 322.517 280.457 322.258 280.368 322.018L268.223 274.766C268.06 274.186 267.72 273.671 267.251 273.294C266.781 272.917 266.206 272.696 265.604 272.662H200.085C199.828 272.652 199.573 272.705 199.342 272.817C199.11 272.93 198.91 273.097 198.76 273.305C198.609 273.514 198.511 273.756 198.476 274.01C198.441 274.265 198.47 274.525 198.559 274.766L210.713 322.018C210.876 322.599 211.217 323.114 211.689 323.49C212.16 323.866 212.738 324.084 213.341 324.112Z" fill="white" stroke="#263238" stroke-linecap="round" stroke-linejoin="round"/>
<path d="M202.397 274.341H201.16" stroke="#263238" stroke-linecap="round" stroke-linejoin="round"/>
<path d="M211.996 274.341H205.603" stroke="#263238" stroke-linecap="round" stroke-linejoin="round"/>
<path d="M277.253 318.144L266.526 276.445C266.364 275.866 266.026 275.352 265.558 274.975C265.09 274.597 264.516 274.376 263.916 274.341H213.44" stroke="#263238" stroke-linecap="round" stroke-linejoin="round"/>
<path d="M278.183 321.774L277.912 320.735" stroke="#263238" stroke-linecap="round" stroke-linejoin="round"/>
<path d="M233.035 299.579C233.08 299.961 233.158 300.339 233.27 300.708C234.101 303.552 236.764 305.286 239.211 304.563C241.658 303.841 242.968 300.951 242.137 298.107C241.306 295.263 238.624 293.529 236.177 294.251C235.892 294.339 235.616 294.457 235.356 294.604C235.49 295.568 235.343 296.552 234.931 297.434C234.519 298.317 233.861 299.062 233.035 299.579Z" fill="white" stroke="#263238" stroke-linecap="round" stroke-linejoin="round"/>
<path d="M261.948 211.026C256.277 210.412 253.189 205.021 249.776 204.181C247.872 203.725 246.006 203.121 244.196 202.375C244.196 202.375 243.022 198.276 241.261 199.666C239.5 201.057 237.189 231.721 239.455 230.755C241.721 229.789 241.73 233.41 241.73 233.41L262.778 251.957L280.422 220.714C280.422 220.714 267.618 211.649 261.948 211.026Z" fill="#263238"/>
<path d="M90.4297 101.83V101.379H90.8812" stroke="#263238" stroke-linecap="round" stroke-linejoin="round"/>
<path d="M93.5361 101.379H169.927" stroke="#263238" stroke-linecap="round" stroke-linejoin="round" stroke-dasharray="0.98 2.93"/>
<path d="M171.245 101.379H171.697V101.83" stroke="#263238" stroke-linecap="round" stroke-linejoin="round"/>
<path d="M171.706 104.539V153.751" stroke="#263238" stroke-linecap="round" stroke-linejoin="round" stroke-dasharray="1 3"/>
<path d="M171.697 155.105V155.557H171.245" stroke="#263238" stroke-linecap="round" stroke-linejoin="round"/>
<path d="M168.6 155.557H92.209" stroke="#263238" stroke-linecap="round" stroke-linejoin="round" stroke-dasharray="0.98 2.93"/>
<path d="M90.8812 155.557H90.4297V155.105" stroke="#263238" stroke-linecap="round" stroke-linejoin="round"/>
<path d="M90.4395 152.396V103.185" stroke="#263238" stroke-linecap="round" stroke-linejoin="round" stroke-dasharray="1 3"/>
<path d="M131.073 102.715C131.811 102.715 132.409 102.117 132.409 101.379C132.409 100.641 131.811 100.042 131.073 100.042C130.335 100.042 129.736 100.641 129.736 101.379C129.736 102.117 130.335 102.715 131.073 102.715Z" fill="#779E1C" stroke="#263238" stroke-linecap="round" stroke-linejoin="round"/>
<path d="M90.4389 129.804C91.177 129.804 91.7753 129.206 91.7753 128.468C91.7753 127.73 91.177 127.131 90.4389 127.131C89.7009 127.131 89.1025 127.73 89.1025 128.468C89.1025 129.206 89.7009 129.804 90.4389 129.804Z" fill="#779E1C" stroke="#263238" stroke-linecap="round" stroke-linejoin="round"/>
<path d="M131.073 156.893C131.811 156.893 132.409 156.295 132.409 155.557C132.409 154.819 131.811 154.22 131.073 154.22C130.335 154.22 129.736 154.819 129.736 155.557C129.736 156.295 130.335 156.893 131.073 156.893Z" fill="#779E1C" stroke="#263238" stroke-linecap="round" stroke-linejoin="round"/>
<path d="M171.706 129.804C172.444 129.804 173.042 129.206 173.042 128.468C173.042 127.73 172.444 127.131 171.706 127.131C170.967 127.131 170.369 127.73 170.369 128.468C170.369 129.206 170.967 129.804 171.706 129.804Z" fill="#779E1C" stroke="#263238" stroke-linecap="round" stroke-linejoin="round"/>
<path d="M173.259 154.004H170.144V157.119H173.259V154.004Z" fill="#779E1C" stroke="#263238" stroke-linecap="round" stroke-linejoin="round"/>
<path d="M173.259 99.8258H170.144V102.941H173.259V99.8258Z" fill="#779E1C" stroke="#263238" stroke-linecap="round" stroke-linejoin="round"/>
<path d="M91.9922 154.004H88.877V157.119H91.9922V154.004Z" fill="#779E1C" stroke="#263238" stroke-linecap="round" stroke-linejoin="round"/>
<path d="M91.9922 99.8258H88.877V102.941H91.9922V99.8258Z" fill="#779E1C" stroke="#263238" stroke-linecap="round" stroke-linejoin="round"/>
<path d="M166.559 106.174H95.8301V151.114H166.559V106.174Z" fill="white" stroke="#263238" stroke-linecap="round" stroke-linejoin="round"/>
<path d="M166.559 137.84L158.694 145.705L137.42 124.431L128.472 133.38L114.205 119.113L95.8301 137.479V151.114H166.559V137.84Z" fill="#779E1C" stroke="#263238" stroke-linecap="round" stroke-linejoin="round"/>
<path d="M151.904 123.926C154.661 123.926 156.897 121.69 156.897 118.932C156.897 116.175 154.661 113.939 151.904 113.939C149.146 113.939 146.91 116.175 146.91 118.932C146.91 121.69 149.146 123.926 151.904 123.926Z" fill="#779E1C" stroke="#263238" stroke-linecap="round" stroke-linejoin="round"/>
<path d="M265.713 219.315C265.713 219.315 260.295 229.401 259.654 244.832" stroke="white" stroke-linecap="round" stroke-linejoin="round"/>
<path d="M249.785 226.295C249.785 226.295 251.401 234.873 256.106 241.085" stroke="white" stroke-linecap="round" stroke-linejoin="round"/>
<path d="M272.033 261.691C272.033 261.691 280.16 288.382 297.813 296.238" stroke="white" stroke-linecap="round" stroke-linejoin="round"/>
<path d="M293.415 213.373C293.415 213.373 292.648 219.197 287.05 219.604C286.36 218.138 285.528 216.744 284.566 215.441C287.473 214.581 290.428 213.89 293.415 213.373Z" fill="#263238"/>
<path d="M305.344 213.779C305.344 213.779 314.708 214.926 318.627 202.357C322.545 189.788 319.466 180.316 303.972 175.756C295.375 173.227 286.815 175.259 283.682 181.769C281.027 187.341 282.282 191.973 281.677 193.842C280.991 195.937 274.652 197.716 274.652 199.151C274.652 200.334 278.165 202.357 278.165 202.357L277.135 205.481L278.102 205.996C278.102 205.996 276.296 213.03 277.135 215.513C277.731 217.319 293.596 218.078 294.834 213.581" fill="white"/>
<path d="M305.344 213.779C305.344 213.779 314.708 214.926 318.627 202.357C322.545 189.788 319.466 180.316 303.972 175.756C295.375 173.227 286.815 175.259 283.682 181.769C281.027 187.341 282.282 191.973 281.677 193.842C280.991 195.937 274.652 197.716 274.652 199.151C274.652 200.334 278.165 202.357 278.165 202.357L277.135 205.481L278.102 205.996C278.102 205.996 276.296 213.03 277.135 215.513C277.731 217.319 293.596 218.078 294.834 213.581" stroke="#263238" stroke-linecap="round" stroke-linejoin="round"/>
<path d="M283.772 186.33C283.772 186.33 286.87 187.106 287.718 188.731" stroke="#263238" stroke-linecap="round" stroke-linejoin="round"/>
<path d="M284.314 193.472C284.178 194.375 284.386 195.16 284.783 195.215C285.181 195.269 285.596 194.583 285.731 193.671C285.867 192.759 285.65 191.982 285.262 191.928C284.874 191.874 284.449 192.56 284.314 193.472Z" fill="#263238"/>
<path d="M278.102 205.996C278.102 205.996 283.14 207.928 285.018 206.764" stroke="#263238" stroke-linecap="round" stroke-linejoin="round"/>
<path d="M279.872 192.75C279.501 194.772 279.953 196.542 280.883 196.714C281.813 196.885 282.878 195.395 283.249 193.382C283.619 191.368 283.176 189.58 282.237 189.409C281.298 189.237 280.251 190.736 279.872 192.75Z" stroke="#263238" stroke-linecap="round" stroke-linejoin="round"/>
<path d="M319.042 182.465C318.288 178.806 316.187 175.564 313.155 173.381C309.775 171.008 305.905 169.425 301.832 168.749C301.832 168.749 304.82 170.058 305.958 171.783C305.958 171.783 298.22 165.968 289.028 169.787C279.835 173.607 280.982 183.53 280.982 183.53L282.319 180.93C282.319 180.93 282.165 184.027 283.79 185.165C284.278 183.647 284.941 182.193 285.768 180.83C285.768 180.83 288.206 188.153 294.915 190.637C294.459 189.482 294.421 188.205 294.807 187.025C294.807 187.025 298.527 195.07 297.443 198.998L298.626 201.057C298.626 201.057 302.897 196.732 306.374 200.334C308.369 202.411 302.554 210.267 301.723 210.267L305.236 215.423C305.236 215.423 314.013 216.678 319.069 207.17C324.126 197.662 322.889 193.625 322.889 193.625C322.889 193.625 324.541 195.937 324.695 197.237C324.713 197.219 326.212 187.007 319.042 182.465Z" fill="#263238"/>
<path d="M298.392 201.969C298.392 201.969 301.1 192.867 306.861 196.073C312.622 199.278 308.514 204.136 306.446 206.005C304.378 207.874 302.834 211.269 301.489 211.269C300.143 211.269 299.845 209.617 299.845 209.617" fill="white"/>
<path d="M298.392 201.969C298.392 201.969 301.1 192.867 306.861 196.073C312.622 199.278 308.514 204.136 306.446 206.005C304.378 207.874 302.834 211.269 301.489 211.269C300.143 211.269 299.845 209.617 299.845 209.617" stroke="#263238" stroke-linecap="round" stroke-linejoin="round"/>
<path d="M283.248 193.382L299.321 196.714" stroke="#263238" stroke-linecap="round" stroke-linejoin="round"/>
</svg>
