<svg width="241" height="206" viewBox="0 0 241 206" fill="none" xmlns="http://www.w3.org/2000/svg">
<rect width="241" height="206" fill="#EFEFEF"/>
<g id="Login &#38; Signup/ONboarding">
<path d="M-6594 -3062H531V-3066H-6594V-3062ZM531 -3062V489H535V-3062H531ZM531 489H-6594V493H531V489ZM-6594 489V-3062H-6598V489H-6594ZM-6594 489H-6594H-6598C-6598 491.209 -6596.21 493 -6594 493V489ZM531 489V493C533.209 493 535 491.209 535 489H531ZM531 -3062H535C535 -3064.21 533.209 -3066 531 -3066V-3062ZM-6594 -3066C-6596.21 -3066 -6598 -3064.21 -6598 -3062H-6594V-3062V-3066Z" fill="black"/>
<g id="Frame 1000002851">
<rect x="-140" y="-22" width="520" height="400.814" rx="8" fill="white"/>
<g id="Frame 1000002850">
<g id="appreciation/bro">
<g id="Shadow">
<path id="Vector" d="M114.386 184.054C138.902 184.054 158.777 181.213 158.777 177.71C158.777 174.206 138.902 171.365 114.386 171.365C89.8687 171.365 69.9939 174.206 69.9939 177.71C69.9939 181.213 89.8687 184.054 114.386 184.054Z" fill="#C3EB42"/>
<path id="Vector_2" opacity="0.5" d="M114.386 184.054C138.902 184.054 158.777 181.213 158.777 177.71C158.777 174.206 138.902 171.365 114.386 171.365C89.8687 171.365 69.9939 174.206 69.9939 177.71C69.9939 181.213 89.8687 184.054 114.386 184.054Z" fill="white"/>
<path id="Vector_3" d="M211.933 198.963C225.705 198.963 236.869 196.122 236.869 192.618C236.869 189.115 225.705 186.274 211.933 186.274C198.161 186.274 186.997 189.115 186.997 192.618C186.997 196.122 198.161 198.963 211.933 198.963Z" fill="#C3EB42"/>
<path id="Vector_4" opacity="0.5" d="M211.933 198.963C225.705 198.963 236.869 196.122 236.869 192.618C236.869 189.115 225.705 186.274 211.933 186.274C198.161 186.274 186.997 189.115 186.997 192.618C186.997 196.122 198.161 198.963 211.933 198.963Z" fill="white"/>
</g>
<g id="Plants">
<path id="Vector_5" d="M0.260864 46.5671C0.135967 46.1156 0.107582 45.6427 0.177554 45.1794C0.247527 44.7162 0.414287 44.2728 0.666982 43.8782C0.919676 43.4837 1.25264 43.1468 1.64418 42.8894C2.03573 42.6321 2.47709 42.4601 2.93952 42.3847C5.73566 42.0029 9.17209 45.7565 10.2588 48.0298C10.3528 48.2237 11.4689 51.4663 11.4337 51.4663C11.3984 51.4663 6.47581 51.5779 4.45507 50.6967C2.71042 49.939 0.748426 48.4998 0.260864 46.5671ZM72.0852 37.9496C71.674 39.8999 69.7355 41.3919 68.0261 42.1908C66.3167 42.9897 62.287 43.1307 61.2942 43.1483C60.7597 43.7886 60.1898 44.47 59.5789 45.2454C58.5098 46.6141 57.3232 48.1826 56.1425 49.9448C55.8253 50.4206 55.5081 50.9376 55.185 51.4369C55.9017 50.7085 56.8944 49.7216 57.0001 49.6335C58.968 48.0651 63.6968 46.1912 66.0465 47.7479C66.4301 48.0173 66.7527 48.3646 66.9932 48.7671C67.2336 49.1696 67.3866 49.6183 67.442 50.0839C67.4974 50.5494 67.4541 51.0215 67.3149 51.4692C67.1756 51.9169 66.9436 52.3302 66.6339 52.6822C65.3709 54.2213 62.9507 54.6501 61.071 54.5737C59.1912 54.4974 55.4317 52.7116 54.6093 52.3121C53.9162 53.4283 53.2347 54.5914 52.5886 55.8367C51.4024 58.0946 50.4195 60.4536 49.6515 62.8858L49.7924 62.9563C50.3799 62.2044 51.6135 60.6477 51.7309 60.5302C53.4932 58.7679 58.0105 56.3712 60.5423 57.6636C60.953 57.8896 61.3115 58.1997 61.5943 58.5735C61.8772 58.9473 62.0781 59.3766 62.1839 59.8333C62.2898 60.29 62.2982 60.7638 62.2087 61.224C62.1192 61.6842 61.9337 62.1203 61.6643 62.504C60.5775 64.1722 58.222 64.8536 56.3775 64.9946C54.2157 65.1474 49.7396 63.4556 49.5751 63.391C48.8707 65.8376 48.3272 68.3277 47.9479 70.8454C47.6542 72.7016 47.4369 74.599 47.2372 76.5081C47.6249 75.9677 49.2579 73.9235 49.393 73.7884C51.1553 72.0261 55.6726 69.6294 58.2044 70.9217C58.6151 71.1478 58.9735 71.4578 59.2564 71.8316C59.5392 72.2055 59.7401 72.6348 59.846 73.0914C59.9519 73.5481 59.9603 74.022 59.8708 74.4822C59.7812 74.9423 59.5957 75.3784 59.3263 75.7621C58.2396 77.4304 55.884 78.1118 54.0395 78.2528C51.9248 78.3996 47.6307 76.8019 47.2724 76.6667C47.1843 77.5303 47.0844 78.3938 47.0022 79.2632C46.7261 82.0945 46.4618 84.9377 46.1152 87.7338C45.9977 88.7031 45.8391 89.6547 45.6922 90.6063C46.2797 89.8133 47.4545 88.3976 47.5485 88.286C49.3108 86.5237 53.828 84.127 56.3598 85.4194C56.7705 85.6454 57.129 85.9554 57.4119 86.3293C57.6947 86.7031 57.8956 87.1324 58.0015 87.5891C58.1074 88.0457 58.1158 88.5196 58.0262 88.9798C57.9367 89.4399 57.7512 89.8761 57.4818 90.2597C56.3951 91.928 54.0395 92.6094 52.1656 92.7445C50.2918 92.8796 46.638 91.6108 45.6217 91.2407C45.3574 92.8268 45.0343 94.3893 44.6995 95.9401C44.5291 96.598 44.3999 97.2736 44.2002 97.8962C44.0004 98.5189 43.8242 99.1475 43.6127 99.7643C43.1839 101.021 42.7962 102.196 42.3674 103.359C42.1559 103.947 41.9445 104.499 41.7271 105.069C42.2264 104.176 43.0371 102.772 43.1311 102.654C44.6231 100.628 48.7057 97.5908 51.355 98.4895C51.795 98.6506 52.1961 98.9025 52.5322 99.2288C52.8684 99.5552 53.1321 99.9486 53.3061 100.384C53.4801 100.819 53.5605 101.285 53.5422 101.754C53.5238 102.222 53.407 102.681 53.1995 103.101C52.3771 104.916 50.1508 105.95 48.318 106.367C46.2973 106.825 41.9562 105.944 41.4217 105.832C40.893 107.225 40.3702 108.576 39.8532 109.833C38.2261 113.804 36.7223 117.058 35.6355 119.314C35.5768 119.443 35.518 119.555 35.4593 119.678H43.3719L40.6404 172.94C40.545 174.906 39.6937 176.76 38.2642 178.114C36.8347 179.468 34.9375 180.217 32.9686 180.206C31.0176 180.201 29.1424 179.45 27.7278 178.107C26.3132 176.763 25.4665 174.929 25.3615 172.981L22.6358 119.701H31.1241C31.083 119.331 31.0419 118.944 30.989 118.527C30.707 116.065 30.2489 112.547 29.5087 108.358C29.3031 107.148 29.0564 105.873 28.7979 104.563C28.2457 104.634 23.8636 105.186 21.8839 104.563C20.0805 104.011 17.9423 102.801 17.2609 100.945C17.0846 100.511 17.0018 100.044 17.0179 99.5757C17.0339 99.1073 17.1485 98.6475 17.3541 98.2263C17.5597 97.8051 17.8517 97.432 18.2112 97.1312C18.5706 96.8304 18.9894 96.6087 19.4403 96.4806C22.1718 95.7815 26.0194 99.1122 27.3587 101.25C27.441 101.386 28.2751 103.113 28.6804 104.005C28.5218 103.212 28.3632 102.425 28.1811 101.603C27.9285 100.428 27.5937 99.1768 27.3352 97.9726C27.159 97.3558 26.9887 96.7273 26.8124 96.0987C26.6362 95.4702 26.413 94.8651 26.225 94.2366C25.9137 93.3261 25.5436 92.398 25.1794 91.4757C24.0045 91.8047 20.48 92.7093 18.6825 92.4508C16.885 92.1924 14.5235 91.3171 13.566 89.5725C13.3264 89.1694 13.1743 88.7204 13.1195 88.2547C13.0648 87.789 13.1087 87.317 13.2483 86.8693C13.3879 86.4217 13.6201 86.0084 13.9299 85.6564C14.2397 85.3044 14.6201 85.0215 15.0463 84.8261C17.6427 83.7276 21.9427 86.4356 23.5933 88.3506C23.6462 88.4094 23.9517 88.8499 24.31 89.3727C23.9282 88.4798 23.5463 87.6105 23.1352 86.7C21.9603 84.174 20.6621 81.6364 19.3815 79.0634C19.1172 78.5348 18.8587 78.0002 18.5944 77.4656C17.5899 77.7476 13.801 78.7638 11.9154 78.4878C10.0297 78.2117 7.75639 77.354 6.79889 75.6094C6.55842 75.207 6.4056 74.7584 6.35042 74.2929C6.29524 73.8274 6.33894 73.3555 6.47867 72.908C6.61839 72.4605 6.851 72.0476 7.16127 71.6962C7.47154 71.3449 7.85249 71.0629 8.2792 70.8689C10.8697 69.7645 15.1756 72.4784 16.8262 74.3934C16.885 74.4639 17.2492 74.9808 17.6545 75.5683C16.9789 74.1702 16.321 72.7721 15.7101 71.3682C14.6552 68.9566 13.7604 66.4782 13.0315 63.949C12.679 64.0548 8.26158 65.3353 6.16448 65.0299C4.30234 64.7597 2.00551 63.8961 1.04801 62.1515C0.811022 61.7511 0.66055 61.3055 0.606295 60.8434C0.55204 60.3813 0.595207 59.9129 0.73301 59.4685C0.870814 59.0241 1.1002 58.6135 1.40638 58.2632C1.71256 57.9129 2.08875 57.6306 2.5107 57.4345C5.10711 56.3301 9.40706 59.044 11.0577 60.959C11.1752 61.0941 12.4793 63.0033 12.9257 63.6964C12.9232 63.6671 12.9232 63.6376 12.9257 63.6083C12.2713 61.1062 11.8427 58.5505 11.6451 55.9718C11.453 53.6705 11.398 51.3598 11.4807 49.0519C11.5277 46.9137 11.7039 44.94 11.8801 43.2306C11.98 42.2907 12.0857 41.4389 12.1973 40.6459L12.1503 40.6753C12.1033 40.6753 11.1576 37.4151 11.1223 37.1977C10.7053 34.7129 11.369 29.667 13.8715 28.3864C14.2932 28.1818 14.7533 28.0685 15.2217 28.054C15.6902 28.0394 16.1564 28.1239 16.59 28.3019C17.0236 28.4798 17.4147 28.7473 17.7378 29.0868C18.061 29.4263 18.3088 29.8302 18.4651 30.272C19.1994 32.1224 18.4005 34.4427 17.4195 36.0523C16.4385 37.6618 13.1548 39.9997 12.3383 40.5578C12.2384 41.3861 12.1445 42.2731 12.0622 43.2599C11.9271 44.987 11.792 46.9372 11.7861 49.0696C11.7861 49.657 11.7861 50.2444 11.8155 50.8318C12.0093 49.8332 12.2913 48.4821 12.3324 48.3294C13.1078 45.9327 16.0156 41.762 18.8411 41.762C19.3094 41.7766 19.7693 41.8895 20.1912 42.0933C20.613 42.2972 20.9873 42.5874 21.2897 42.9452C21.5921 43.303 21.816 43.7205 21.9467 44.1704C22.0774 44.6203 22.112 45.0926 22.0484 45.5568C21.8428 47.5364 20.0629 49.2282 18.4534 50.2033C16.8438 51.1784 12.7201 51.76 11.8331 51.8657C11.8684 53.1815 11.9447 54.5267 12.0975 55.9307C12.3534 58.4786 12.835 60.9987 13.5366 63.4615H13.6952C13.7599 62.5157 13.942 60.5243 13.9713 60.3657C14.4824 57.8986 16.9085 53.4341 19.7222 53.1287C20.1894 53.0914 20.6591 53.1529 21.101 53.309C21.5429 53.4651 21.947 53.7123 22.2871 54.0347C22.6272 54.3571 22.8957 54.7474 23.0752 55.1803C23.2547 55.6132 23.3412 56.079 23.329 56.5475C23.329 58.5388 21.7547 60.4127 20.2626 61.5582C18.518 62.8329 13.8539 63.8961 13.6718 63.9314C14.4339 66.3602 15.3542 68.7365 16.4268 71.0451C17.1963 72.7545 18.0774 74.4698 18.9586 76.1616C18.9586 75.4919 19.217 72.8896 19.2582 72.7016C19.7692 70.2345 22.1953 65.77 25.0032 65.4646C25.47 65.4265 25.9396 65.4871 26.3815 65.6425C26.8234 65.7979 27.2276 66.0446 27.5678 66.3665C27.908 66.6885 28.1767 67.0785 28.3562 67.5111C28.5358 67.9437 28.6222 68.4093 28.6099 68.8775C28.6099 70.8689 27.0415 72.7428 25.5495 73.8882C23.8694 75.1806 19.405 76.2379 19.0291 76.3025C19.4344 77.0721 19.828 77.8475 20.2392 78.617C21.5726 81.1312 22.9178 83.6453 24.169 86.1713C24.6037 87.0465 25.0032 87.9335 25.4026 88.8029C25.4731 87.8043 25.6434 85.995 25.6728 85.8364C26.1839 83.3751 28.6099 78.9048 31.4178 78.5994C31.885 78.5621 32.3547 78.6236 32.7966 78.7797C33.2385 78.9358 33.6426 79.183 33.9827 79.5054C34.3228 79.8278 34.5913 80.2181 34.7708 80.651C34.9503 81.0839 35.0368 81.5497 35.0246 82.0182C35.0246 84.0095 33.4562 85.8834 31.9641 87.0289C30.4721 88.1744 26.7302 89.1319 25.6728 89.3786C26.3307 90.8413 26.9475 92.3157 27.488 93.7843C27.7053 94.4246 27.9696 95.0649 28.1459 95.6934L28.7333 97.5555C29.074 98.842 29.3971 100.034 29.6791 101.245C29.8318 101.832 29.9551 102.419 30.0902 103.007C30.0139 101.991 29.9199 100.369 29.9258 100.222C30.055 97.7083 31.782 92.9208 34.5077 92.1982C34.9658 92.0841 35.4429 92.0686 35.9074 92.1528C36.3719 92.2371 36.8132 92.4191 37.202 92.6868C37.5909 92.9546 37.9183 93.3019 38.1627 93.7058C38.4071 94.1097 38.5629 94.561 38.6196 95.0296C38.6589 95.2723 38.6746 95.5182 38.6666 95.7639C39.7813 97.6827 40.3878 99.8542 40.4289 102.073C40.4289 102.231 40.1646 104.135 40.0118 105.098C40.3173 104.352 40.5993 103.606 40.9165 102.825C41.357 101.697 41.7917 100.475 42.2147 99.3002C42.4085 98.7128 42.6082 98.0666 42.8021 97.4439C42.9959 96.8213 43.1487 96.1927 43.3249 95.5642C43.5716 94.6302 43.7772 93.655 43.9828 92.6799C42.808 92.304 39.3833 91.1232 38.0263 89.9132C36.6694 88.7031 35.1832 86.6706 35.3418 84.6851C35.365 84.2171 35.4864 83.7593 35.698 83.3412C35.9096 82.9232 36.2067 82.5543 36.5701 82.2586C36.9334 81.9628 37.3549 81.7467 37.8072 81.6243C38.2594 81.5019 38.7324 81.476 39.1953 81.5482C41.968 82.0593 44.0592 86.6941 44.3881 89.1847C44.3881 89.2611 44.3881 89.7722 44.3881 90.436C44.5644 89.4785 44.7406 88.5268 44.8816 87.5517C45.2869 84.7908 45.61 81.9594 45.9507 79.1339C46.0153 78.5465 46.0975 77.9591 46.168 77.3717C45.1812 77.0544 41.4686 75.8091 40.0353 74.5403C38.602 73.2714 37.1922 71.2977 37.3567 69.3181C37.3783 68.8499 37.4983 68.3915 37.7089 67.9727C37.9195 67.554 38.216 67.1844 38.579 66.8879C38.942 66.5914 39.3634 66.3747 39.8157 66.2519C40.2681 66.1292 40.7412 66.1031 41.2043 66.1754C43.9828 66.6864 46.0741 71.3271 46.3971 73.8119C46.3971 73.9 46.3971 74.5403 46.4324 75.2569C46.638 73.7179 46.8671 72.1906 47.1314 70.6809C47.5813 68.0973 48.2014 65.5462 48.9877 63.0444C48.6411 62.9328 44.2472 61.5641 42.667 60.1543C41.2631 58.8972 39.8239 56.9117 39.9825 54.9262C40.0057 54.4582 40.127 54.0004 40.3386 53.5824C40.5502 53.1643 40.8473 52.7954 41.2107 52.4997C41.5741 52.2039 41.9956 51.9878 42.4478 51.8654C42.9001 51.743 43.373 51.7171 43.836 51.7893C46.6086 52.3004 48.6998 56.9352 49.0288 59.4259C49.0288 59.6021 49.0875 61.9107 49.0699 62.7389V62.6508C49.9067 60.2137 50.9564 57.8549 52.2068 55.6017C53.3192 53.5737 54.549 51.6123 55.8899 49.7275C57.1117 47.9652 58.3395 46.4379 59.4144 45.0927C60.0019 44.3643 60.5893 43.7123 61.1062 43.1072H61.0416C60.9946 43.1072 62.0226 39.8353 62.1107 39.6355C63.1328 37.3387 66.4635 33.4911 69.2714 33.7965C69.743 33.8547 70.1967 34.013 70.6021 34.2609C71.0074 34.5089 71.355 34.8407 71.6215 35.2341C71.888 35.6274 72.0673 36.0733 72.1473 36.5417C72.2272 37.01 72.2061 37.4901 72.0852 37.9496ZM39.7358 105.633C39.2599 105.398 35.5592 103.565 34.1141 102.002C32.8674 102.692 31.5806 103.305 30.2606 103.841C30.5896 105.292 30.895 106.713 31.1535 108.047C31.9935 112.259 32.5281 115.795 32.8688 118.28C32.9451 118.809 33.0039 119.284 33.0626 119.713H33.2506L33.838 118.509C34.96 116.3 36.5167 113.116 38.2143 109.216C38.7313 108.07 39.2364 106.866 39.7358 105.633ZM54.5153 51.7835C54.5623 51.8128 55.4141 48.4939 55.4493 48.2589C55.7959 45.7624 54.997 40.7399 52.4594 39.5122C52.0288 39.321 51.5626 39.2232 51.0915 39.2252C50.6204 39.2272 50.155 39.329 49.7261 39.5237C49.2971 39.7185 48.9143 40.0019 48.6027 40.3553C48.2912 40.7087 48.058 41.1241 47.9186 41.574C47.2372 43.442 48.1007 45.7389 49.0934 47.319C50.3211 49.1459 54.5153 51.7835 54.5153 51.7835Z" fill="#C3EB42"/>
<path id="Vector_6" opacity="0.3" d="M0.260864 46.5671C0.135967 46.1156 0.107582 45.6427 0.177554 45.1794C0.247527 44.7162 0.414287 44.2728 0.666982 43.8782C0.919676 43.4837 1.25264 43.1468 1.64418 42.8894C2.03573 42.6321 2.47709 42.4601 2.93952 42.3847C5.73566 42.0029 9.17209 45.7565 10.2588 48.0298C10.3528 48.2237 11.4689 51.4663 11.4337 51.4663C11.3984 51.4663 6.47581 51.5779 4.45507 50.6967C2.71042 49.939 0.748426 48.4998 0.260864 46.5671ZM72.0852 37.9496C71.674 39.8999 69.7355 41.3919 68.0261 42.1908C66.3167 42.9897 62.287 43.1307 61.2942 43.1483C60.7597 43.7886 60.1898 44.47 59.5789 45.2454C58.5098 46.6141 57.3232 48.1826 56.1425 49.9448C55.8253 50.4206 55.5081 50.9376 55.185 51.4369C55.9017 50.7085 56.8944 49.7216 57.0001 49.6335C58.968 48.0651 63.6968 46.1912 66.0465 47.7479C66.4301 48.0173 66.7527 48.3646 66.9932 48.7671C67.2336 49.1696 67.3866 49.6183 67.442 50.0839C67.4974 50.5494 67.4541 51.0215 67.3149 51.4692C67.1756 51.9169 66.9436 52.3302 66.6339 52.6822C65.3709 54.2213 62.9507 54.6501 61.071 54.5737C59.1912 54.4974 55.4317 52.7116 54.6093 52.3121C53.9162 53.4283 53.2347 54.5914 52.5886 55.8367C51.4024 58.0946 50.4195 60.4536 49.6515 62.8858L49.7924 62.9563C50.3799 62.2044 51.6135 60.6477 51.7309 60.5302C53.4932 58.7679 58.0105 56.3712 60.5423 57.6636C60.953 57.8896 61.3115 58.1997 61.5943 58.5735C61.8772 58.9473 62.0781 59.3766 62.1839 59.8333C62.2898 60.29 62.2982 60.7638 62.2087 61.224C62.1192 61.6842 61.9337 62.1203 61.6643 62.504C60.5775 64.1722 58.222 64.8536 56.3775 64.9946C54.2157 65.1474 49.7396 63.4556 49.5751 63.391C48.8707 65.8376 48.3272 68.3277 47.9479 70.8454C47.6542 72.7016 47.4369 74.599 47.2372 76.5081C47.6249 75.9677 49.2579 73.9235 49.393 73.7884C51.1553 72.0261 55.6726 69.6294 58.2044 70.9217C58.6151 71.1478 58.9735 71.4578 59.2564 71.8316C59.5392 72.2055 59.7401 72.6348 59.846 73.0914C59.9519 73.5481 59.9603 74.022 59.8708 74.4822C59.7812 74.9423 59.5957 75.3784 59.3263 75.7621C58.2396 77.4304 55.884 78.1118 54.0395 78.2528C51.9248 78.3996 47.6307 76.8019 47.2724 76.6667C47.1843 77.5303 47.0844 78.3938 47.0022 79.2632C46.7261 82.0945 46.4618 84.9377 46.1152 87.7338C45.9977 88.7031 45.8391 89.6547 45.6922 90.6063C46.2797 89.8133 47.4545 88.3976 47.5485 88.286C49.3108 86.5237 53.828 84.127 56.3598 85.4194C56.7705 85.6454 57.129 85.9554 57.4119 86.3293C57.6947 86.7031 57.8956 87.1324 58.0015 87.5891C58.1074 88.0457 58.1158 88.5196 58.0262 88.9798C57.9367 89.4399 57.7512 89.8761 57.4818 90.2597C56.3951 91.928 54.0395 92.6094 52.1656 92.7445C50.2918 92.8796 46.638 91.6108 45.6217 91.2407C45.3574 92.8268 45.0343 94.3893 44.6995 95.9401C44.5291 96.598 44.3999 97.2736 44.2002 97.8962C44.0004 98.5189 43.8242 99.1475 43.6127 99.7643C43.1839 101.021 42.7962 102.196 42.3674 103.359C42.1559 103.947 41.9445 104.499 41.7271 105.069C42.2264 104.176 43.0371 102.772 43.1311 102.654C44.6231 100.628 48.7057 97.5908 51.355 98.4895C51.795 98.6506 52.1961 98.9025 52.5322 99.2288C52.8684 99.5552 53.1321 99.9486 53.3061 100.384C53.4801 100.819 53.5605 101.285 53.5422 101.754C53.5238 102.222 53.407 102.681 53.1995 103.101C52.3771 104.916 50.1508 105.95 48.318 106.367C46.2973 106.825 41.9562 105.944 41.4217 105.832C40.893 107.225 40.3702 108.576 39.8532 109.833C38.2261 113.804 36.7223 117.058 35.6355 119.314C35.5768 119.443 35.518 119.555 35.4593 119.678H43.3719L40.6404 172.94C40.545 174.906 39.6937 176.76 38.2642 178.114C36.8347 179.468 34.9375 180.217 32.9686 180.206C31.0176 180.201 29.1424 179.45 27.7278 178.107C26.3132 176.763 25.4665 174.929 25.3615 172.981L22.6358 119.701H31.1241C31.083 119.331 31.0419 118.944 30.989 118.527C30.707 116.065 30.2489 112.547 29.5087 108.358C29.3031 107.148 29.0564 105.873 28.7979 104.563C28.2457 104.634 23.8636 105.186 21.8839 104.563C20.0805 104.011 17.9423 102.801 17.2609 100.945C17.0846 100.511 17.0018 100.044 17.0179 99.5757C17.0339 99.1073 17.1485 98.6475 17.3541 98.2263C17.5597 97.8051 17.8517 97.432 18.2112 97.1312C18.5706 96.8304 18.9894 96.6087 19.4403 96.4806C22.1718 95.7815 26.0194 99.1122 27.3587 101.25C27.441 101.386 28.2751 103.113 28.6804 104.005C28.5218 103.212 28.3632 102.425 28.1811 101.603C27.9285 100.428 27.5937 99.1768 27.3352 97.9726C27.159 97.3558 26.9887 96.7273 26.8124 96.0987C26.6362 95.4702 26.413 94.8651 26.225 94.2366C25.9137 93.3261 25.5436 92.398 25.1794 91.4757C24.0045 91.8047 20.48 92.7093 18.6825 92.4508C16.885 92.1924 14.5235 91.3171 13.566 89.5725C13.3264 89.1694 13.1743 88.7204 13.1195 88.2547C13.0648 87.789 13.1087 87.317 13.2483 86.8693C13.3879 86.4217 13.6201 86.0084 13.9299 85.6564C14.2397 85.3044 14.6201 85.0215 15.0463 84.8261C17.6427 83.7276 21.9427 86.4356 23.5933 88.3506C23.6462 88.4094 23.9517 88.8499 24.31 89.3727C23.9282 88.4798 23.5463 87.6105 23.1352 86.7C21.9603 84.174 20.6621 81.6364 19.3815 79.0634C19.1172 78.5348 18.8587 78.0002 18.5944 77.4656C17.5899 77.7476 13.801 78.7638 11.9154 78.4878C10.0297 78.2117 7.75639 77.354 6.79889 75.6094C6.55842 75.207 6.4056 74.7584 6.35042 74.2929C6.29524 73.8274 6.33894 73.3555 6.47867 72.908C6.61839 72.4605 6.851 72.0476 7.16127 71.6962C7.47154 71.3449 7.85249 71.0629 8.2792 70.8689C10.8697 69.7645 15.1756 72.4784 16.8262 74.3934C16.885 74.4639 17.2492 74.9808 17.6545 75.5683C16.9789 74.1702 16.321 72.7721 15.7101 71.3682C14.6552 68.9566 13.7604 66.4782 13.0315 63.949C12.679 64.0548 8.26158 65.3353 6.16448 65.0299C4.30234 64.7597 2.00551 63.8961 1.04801 62.1515C0.811022 61.7511 0.66055 61.3055 0.606295 60.8434C0.55204 60.3813 0.595207 59.9129 0.73301 59.4685C0.870814 59.0241 1.1002 58.6135 1.40638 58.2632C1.71256 57.9129 2.08875 57.6306 2.5107 57.4345C5.10711 56.3301 9.40706 59.044 11.0577 60.959C11.1752 61.0941 12.4793 63.0033 12.9257 63.6964C12.9232 63.6671 12.9232 63.6376 12.9257 63.6083C12.2713 61.1062 11.8427 58.5505 11.6451 55.9718C11.453 53.6705 11.398 51.3598 11.4807 49.0519C11.5277 46.9137 11.7039 44.94 11.8801 43.2306C11.98 42.2907 12.0857 41.4389 12.1973 40.6459L12.1503 40.6753C12.1033 40.6753 11.1576 37.4151 11.1223 37.1977C10.7053 34.7129 11.369 29.667 13.8715 28.3864C14.2932 28.1818 14.7533 28.0685 15.2217 28.054C15.6902 28.0394 16.1564 28.1239 16.59 28.3019C17.0236 28.4798 17.4147 28.7473 17.7378 29.0868C18.061 29.4263 18.3088 29.8302 18.4651 30.272C19.1994 32.1224 18.4005 34.4427 17.4195 36.0523C16.4385 37.6618 13.1548 39.9997 12.3383 40.5578C12.2384 41.3861 12.1445 42.2731 12.0622 43.2599C11.9271 44.987 11.792 46.9372 11.7861 49.0696C11.7861 49.657 11.7861 50.2444 11.8155 50.8318C12.0093 49.8332 12.2913 48.4821 12.3324 48.3294C13.1078 45.9327 16.0156 41.762 18.8411 41.762C19.3094 41.7766 19.7693 41.8895 20.1912 42.0933C20.613 42.2972 20.9873 42.5874 21.2897 42.9452C21.5921 43.303 21.816 43.7205 21.9467 44.1704C22.0774 44.6203 22.112 45.0926 22.0484 45.5568C21.8428 47.5364 20.0629 49.2282 18.4534 50.2033C16.8438 51.1784 12.7201 51.76 11.8331 51.8657C11.8684 53.1815 11.9447 54.5267 12.0975 55.9307C12.3534 58.4786 12.835 60.9987 13.5366 63.4615H13.6952C13.7599 62.5157 13.942 60.5243 13.9713 60.3657C14.4824 57.8986 16.9085 53.4341 19.7222 53.1287C20.1894 53.0914 20.6591 53.1529 21.101 53.309C21.5429 53.4651 21.947 53.7123 22.2871 54.0347C22.6272 54.3571 22.8957 54.7474 23.0752 55.1803C23.2547 55.6132 23.3412 56.079 23.329 56.5475C23.329 58.5388 21.7547 60.4127 20.2626 61.5582C18.518 62.8329 13.8539 63.8961 13.6718 63.9314C14.4339 66.3602 15.3542 68.7365 16.4268 71.0451C17.1963 72.7545 18.0774 74.4698 18.9586 76.1616C18.9586 75.4919 19.217 72.8896 19.2582 72.7016C19.7692 70.2345 22.1953 65.77 25.0032 65.4646C25.47 65.4265 25.9396 65.4871 26.3815 65.6425C26.8234 65.7979 27.2276 66.0446 27.5678 66.3665C27.908 66.6885 28.1767 67.0785 28.3562 67.5111C28.5358 67.9437 28.6222 68.4093 28.6099 68.8775C28.6099 70.8689 27.0415 72.7428 25.5495 73.8882C23.8694 75.1806 19.405 76.2379 19.0291 76.3025C19.4344 77.0721 19.828 77.8475 20.2392 78.617C21.5726 81.1312 22.9178 83.6453 24.169 86.1713C24.6037 87.0465 25.0032 87.9335 25.4026 88.8029C25.4731 87.8043 25.6434 85.995 25.6728 85.8364C26.1839 83.3751 28.6099 78.9048 31.4178 78.5994C31.885 78.5621 32.3547 78.6236 32.7966 78.7797C33.2385 78.9358 33.6426 79.183 33.9827 79.5054C34.3228 79.8278 34.5913 80.2181 34.7708 80.651C34.9503 81.0839 35.0368 81.5497 35.0246 82.0182C35.0246 84.0095 33.4562 85.8834 31.9641 87.0289C30.4721 88.1744 26.7302 89.1319 25.6728 89.3786C26.3307 90.8413 26.9475 92.3157 27.488 93.7843C27.7053 94.4246 27.9696 95.0649 28.1459 95.6934L28.7333 97.5555C29.074 98.842 29.3971 100.034 29.6791 101.245C29.8318 101.832 29.9551 102.419 30.0902 103.007C30.0139 101.991 29.9199 100.369 29.9258 100.222C30.055 97.7083 31.782 92.9208 34.5077 92.1982C34.9658 92.0841 35.4429 92.0686 35.9074 92.1528C36.3719 92.2371 36.8132 92.4191 37.202 92.6868C37.5909 92.9546 37.9183 93.3019 38.1627 93.7058C38.4071 94.1097 38.5629 94.561 38.6196 95.0296C38.6589 95.2723 38.6746 95.5182 38.6666 95.7639C39.7813 97.6827 40.3878 99.8542 40.4289 102.073C40.4289 102.231 40.1646 104.135 40.0118 105.098C40.3173 104.352 40.5993 103.606 40.9165 102.825C41.357 101.697 41.7917 100.475 42.2147 99.3002C42.4085 98.7128 42.6082 98.0666 42.8021 97.4439C42.9959 96.8213 43.1487 96.1927 43.3249 95.5642C43.5716 94.6302 43.7772 93.655 43.9828 92.6799C42.808 92.304 39.3833 91.1232 38.0263 89.9132C36.6694 88.7031 35.1832 86.6706 35.3418 84.6851C35.365 84.2171 35.4864 83.7593 35.698 83.3412C35.9096 82.9232 36.2067 82.5543 36.5701 82.2586C36.9334 81.9628 37.3549 81.7467 37.8072 81.6243C38.2594 81.5019 38.7324 81.476 39.1953 81.5482C41.968 82.0593 44.0592 86.6941 44.3881 89.1847C44.3881 89.2611 44.3881 89.7722 44.3881 90.436C44.5644 89.4785 44.7406 88.5268 44.8816 87.5517C45.2869 84.7908 45.61 81.9594 45.9507 79.1339C46.0153 78.5465 46.0975 77.9591 46.168 77.3717C45.1812 77.0544 41.4686 75.8091 40.0353 74.5403C38.602 73.2714 37.1922 71.2977 37.3567 69.3181C37.3783 68.8499 37.4983 68.3915 37.7089 67.9727C37.9195 67.554 38.216 67.1844 38.579 66.8879C38.942 66.5914 39.3634 66.3747 39.8157 66.2519C40.2681 66.1292 40.7412 66.1031 41.2043 66.1754C43.9828 66.6864 46.0741 71.3271 46.3971 73.8119C46.3971 73.9 46.3971 74.5403 46.4324 75.2569C46.638 73.7179 46.8671 72.1906 47.1314 70.6809C47.5813 68.0973 48.2014 65.5462 48.9877 63.0444C48.6411 62.9328 44.2472 61.5641 42.667 60.1543C41.2631 58.8972 39.8239 56.9117 39.9825 54.9262C40.0057 54.4582 40.127 54.0004 40.3386 53.5824C40.5502 53.1643 40.8473 52.7954 41.2107 52.4997C41.5741 52.2039 41.9956 51.9878 42.4478 51.8654C42.9001 51.743 43.373 51.7171 43.836 51.7893C46.6086 52.3004 48.6998 56.9352 49.0288 59.4259C49.0288 59.6021 49.0875 61.9107 49.0699 62.7389V62.6508C49.9067 60.2137 50.9564 57.8549 52.2068 55.6017C53.3192 53.5737 54.549 51.6123 55.8899 49.7275C57.1117 47.9652 58.3395 46.4379 59.4144 45.0927C60.0019 44.3643 60.5893 43.7123 61.1062 43.1072H61.0416C60.9946 43.1072 62.0226 39.8353 62.1107 39.6355C63.1328 37.3387 66.4635 33.4911 69.2714 33.7965C69.743 33.8547 70.1967 34.013 70.6021 34.2609C71.0074 34.5089 71.355 34.8407 71.6215 35.2341C71.888 35.6274 72.0673 36.0733 72.1473 36.5417C72.2272 37.01 72.2061 37.4901 72.0852 37.9496ZM39.7358 105.633C39.2599 105.398 35.5592 103.565 34.1141 102.002C32.8674 102.692 31.5806 103.305 30.2606 103.841C30.5896 105.292 30.895 106.713 31.1535 108.047C31.9935 112.259 32.5281 115.795 32.8688 118.28C32.9451 118.809 33.0039 119.284 33.0626 119.713H33.2506L33.838 118.509C34.96 116.3 36.5167 113.116 38.2143 109.216C38.7313 108.07 39.2364 106.866 39.7358 105.633ZM54.5153 51.7835C54.5623 51.8128 55.4141 48.4939 55.4493 48.2589C55.7959 45.7624 54.997 40.7399 52.4594 39.5122C52.0288 39.321 51.5626 39.2232 51.0915 39.2252C50.6204 39.2272 50.155 39.329 49.7261 39.5237C49.2971 39.7185 48.9143 40.0019 48.6027 40.3553C48.2912 40.7087 48.058 41.1241 47.9186 41.574C47.2372 43.442 48.1007 45.7389 49.0934 47.319C50.3211 49.1459 54.5153 51.7835 54.5153 51.7835Z" fill="white"/>
</g>
<g id="Character">
<path id="Vector_7" d="M204.632 182.708C202.504 184.261 200.262 185.65 197.923 186.862C195.156 188.136 194.622 188.136 194.728 188.882C194.833 189.628 198.029 190.797 203.886 189.417C209.742 188.036 212.509 188.348 213.361 185.581C214.212 182.814 212.832 183.56 211.129 183.56C208.949 183.391 206.781 183.106 204.632 182.708Z" fill="#2E353A" stroke="#2E353A" stroke-linecap="round" stroke-linejoin="round"/>
<path id="Vector_8" d="M213.043 186.315C210.547 186.973 206.047 188.078 202.288 188.665C199.819 189.112 197.282 189 194.863 188.336C194.797 188.408 194.751 188.495 194.727 188.589C194.703 188.684 194.704 188.782 194.728 188.876C194.833 189.623 198.029 190.791 203.886 189.411C209.161 188.172 211.921 188.295 213.043 186.315Z" fill="white" stroke="#2E353A" stroke-linecap="round" stroke-linejoin="round"/>
<path id="Vector_9" d="M233.368 131.867C233.368 131.867 233.586 135.597 231.019 140.708C228.452 145.818 220.921 146.241 218.9 146.241C216.879 146.241 217.514 144.115 217.514 144.115L217.831 142.194L214.424 141.342C214.424 141.342 205.378 153.379 205.378 154.336C205.378 155.294 214.729 177.275 215.264 179.83C215.799 182.386 216.116 183.026 214.941 183.983C214.07 184.597 213.071 185.003 212.018 185.169C210.966 185.335 209.89 185.257 208.873 184.941C207.291 184.446 205.759 183.805 204.297 183.026C204.237 182.069 204.237 181.11 204.297 180.153C204.402 179.196 206 179.942 205.254 178.344C204.508 176.746 204.079 176.317 203.656 175.254C203.234 174.191 193.159 157.402 193.588 153.461C194.017 149.519 203.463 135.838 203.463 135.521C203.861 134.523 204.322 133.552 204.843 132.613C204.843 132.613 205.266 131.227 206.335 131.015C207.404 130.804 223.688 131.015 227.841 130.487C231.994 129.958 234.015 130.164 233.368 131.867Z" fill="#C3EB42" stroke="#2E353A" stroke-linecap="round" stroke-linejoin="round"/>
<path id="Vector_10" d="M206.823 162.096L207.428 163.382" stroke="#2E353A" stroke-width="0.75" stroke-linecap="round" stroke-linejoin="round"/>
<path id="Vector_11" d="M208.726 147.487L204.132 153.49C204.132 153.49 198.258 154.201 200.02 154.318C201.783 154.436 203.545 154.436 203.545 154.436C203.545 154.436 202.012 154.906 202.37 155.141C202.783 155.305 203.224 155.385 203.668 155.376L206.176 160.709" stroke="#2E353A" stroke-width="0.75" stroke-linecap="round" stroke-linejoin="round"/>
<path id="Vector_12" d="M199.75 87.0407C199.75 87.0407 198.264 87.8631 196.026 89.1378C193.788 90.4125 192.501 91.0528 192.196 92.1219C191.89 93.191 185.376 106.526 185.376 106.526C185.376 106.526 187.931 108.018 190.275 109.081C192.056 109.813 193.911 110.349 195.808 110.679L197.941 106.208C197.941 106.208 202.053 113.974 203.815 116.747C206.952 121.699 205.941 124.736 205.519 126.439C205.096 128.143 203.921 131.338 204.238 131.761C204.555 132.184 212.861 135.914 218.189 135.597C223.517 135.28 232.646 134.786 233.286 134.04C233.926 133.294 234.032 128.994 234.032 128.671C234.032 128.348 233.092 120.048 232.135 115.043C231.177 110.038 225.961 96.6216 224.257 93.003C222.554 89.3845 220.956 88.2096 216.621 86.7235C212.286 85.2373 205.865 84.9142 203.204 85.2314C200.543 85.5486 199.75 87.0407 199.75 87.0407Z" fill="#2E353A" stroke="#2E353A" stroke-linecap="round" stroke-linejoin="round"/>
<path id="Vector_13" d="M217.672 101.321L224.269 103.442L218.736 104.029" stroke="white" stroke-width="0.75" stroke-linecap="round" stroke-linejoin="round"/>
<path id="Vector_14" d="M206.84 118.162C206.84 118.162 213.196 123.343 220.974 123.343" stroke="white" stroke-width="0.75" stroke-linecap="round" stroke-linejoin="round"/>
<path id="Vector_15" d="M208.961 122.874C208.961 122.874 214.248 125.347 219.676 124.524" stroke="white" stroke-width="0.75" stroke-linecap="round" stroke-linejoin="round"/>
<path id="Vector_16" d="M195.297 99.6761L197.941 106.208L192.354 98.1429" stroke="white" stroke-width="0.75" stroke-linecap="round" stroke-linejoin="round"/>
<path id="Vector_17" d="M199.298 87.7867C199.154 88.9873 199.119 90.1983 199.192 91.4052C199.298 93.6433 200.044 95.2411 199.403 96.8389C198.763 98.4367 199.515 99.1886 200.149 98.4367C200.784 97.6848 201.853 94.8123 202.07 94.2836C202.288 93.7549 206.77 92.7916 207.392 92.7916C208.015 92.7916 210.053 95.9872 211.011 96.4101C211.968 96.833 211.757 95.9872 211.117 94.2836C210.476 92.5801 209.736 86.6471 208.244 84.8026C206.752 82.9581 200.813 83.4222 199.298 87.7867Z" fill="white" stroke="#2E353A" stroke-linecap="round" stroke-linejoin="round"/>
<path id="Vector_18" d="M200.39 89.7018C199.803 89.4962 203.474 95.1354 204.966 98.008C206.458 100.88 207.839 100.14 208.056 97.9022C208.273 95.6641 207.31 88.2097 207.31 88.2097C207.31 88.2097 203.474 90.7709 200.39 89.7018Z" fill="white" stroke="#2E353A" stroke-linecap="round" stroke-linejoin="round"/>
<path id="Vector_19" d="M208.015 95.2235C206.642 95.8128 205.121 95.9686 203.656 95.6699C204.156 96.5276 204.62 97.3441 204.966 98.0196C206.458 100.892 207.839 100.152 208.056 97.9139C208.102 97.0172 208.088 96.1184 208.015 95.2235Z" fill="#C3EB42" stroke="#2E353A" stroke-linecap="round" stroke-linejoin="round"/>
<path id="Vector_20" d="M211.14 134.886V148.051" stroke="#2E353A" stroke-width="4" stroke-linecap="round" stroke-linejoin="round"/>
<path id="Vector_21" d="M222.431 137.853C222.37 137.859 222.309 137.859 222.248 137.853L202.446 135.503C202.054 135.441 201.701 135.229 201.461 134.912C201.221 134.596 201.113 134.198 201.159 133.804C201.205 133.409 201.403 133.048 201.709 132.795C202.016 132.543 202.408 132.418 202.805 132.449L222.607 134.798C223.006 134.83 223.377 135.018 223.64 135.32C223.903 135.622 224.037 136.015 224.014 136.415C223.991 136.814 223.813 137.189 223.517 137.459C223.221 137.729 222.831 137.873 222.431 137.859V137.853Z" fill="white" stroke="#2E353A" stroke-linecap="round" stroke-linejoin="round"/>
<path id="Vector_22" d="M222.519 137.365C223.047 137.365 223.476 136.86 223.476 136.237C223.476 135.615 223.047 135.11 222.519 135.11C221.99 135.11 221.561 135.615 221.561 136.237C221.561 136.86 221.99 137.365 222.519 137.365Z" fill="white" stroke="#2E353A" stroke-width="0.75" stroke-linecap="round" stroke-linejoin="round"/>
<path id="Vector_23" d="M204.538 192.9L216.409 198.745C216.478 198.776 216.552 198.791 216.627 198.791C216.702 198.791 216.776 198.776 216.844 198.745L223.97 196.108C224.071 196.07 224.159 196.003 224.223 195.915C224.286 195.827 224.322 195.723 224.326 195.614C224.33 195.506 224.301 195.399 224.244 195.307C224.187 195.215 224.104 195.142 224.005 195.097L212.879 189.946C212.765 189.893 212.637 189.88 212.515 189.91L204.655 191.878C204.545 191.904 204.446 191.963 204.371 192.047C204.296 192.131 204.249 192.236 204.236 192.348C204.223 192.46 204.245 192.573 204.299 192.672C204.353 192.771 204.437 192.851 204.538 192.9Z" fill="white" stroke="#2E353A" stroke-linecap="round" stroke-linejoin="round"/>
<path id="Vector_24" d="M213.983 194.845H211.634C211.1 194.843 210.588 194.63 210.211 194.253C209.833 193.875 209.62 193.364 209.619 192.83L208.144 149.772C208.144 149.287 208.337 148.823 208.679 148.48C209.022 148.137 209.487 147.945 209.971 147.945H212.703C213.187 147.945 213.652 148.137 213.995 148.48C214.337 148.823 214.53 149.287 214.53 149.772L216.004 192.83C216.004 193.095 215.952 193.357 215.85 193.602C215.748 193.847 215.6 194.07 215.412 194.257C215.224 194.444 215.001 194.592 214.756 194.693C214.511 194.794 214.248 194.846 213.983 194.845Z" fill="white" stroke="#2E353A" stroke-linecap="round" stroke-linejoin="round"/>
<path id="Vector_25" d="M219.752 193.353C217.966 195.03 216.08 196.6 214.107 198.052C211.757 199.65 211.551 199.438 212.086 200.502C212.621 201.565 214.212 202.205 218.689 201.248C223.165 200.29 224.651 199.544 227.101 198.158C229.55 196.771 230.29 196.771 229.656 195.92C229.021 195.068 219.752 193.353 219.752 193.353Z" fill="#2E353A" stroke="#2E353A" stroke-linecap="round" stroke-linejoin="round"/>
<path id="Vector_26" d="M227.1 198.146C229.544 196.76 230.29 196.76 229.656 195.908C229.487 195.751 229.287 195.633 229.068 195.561C225.822 197.48 222.385 199.055 218.812 200.261C214.23 201.641 211.998 200.043 211.998 200.043L211.945 200.132C211.991 200.248 212.044 200.362 212.103 200.472C212.632 201.535 214.23 202.176 218.706 201.218C223.182 200.261 224.651 199.532 227.1 198.146Z" fill="white" stroke="#2E353A" stroke-linecap="round" stroke-linejoin="round"/>
<path id="Vector_27" d="M236.587 108.229C235.826 106.562 235.151 104.856 234.567 103.119C232.781 103.97 227.324 108.54 227.324 108.54L232.117 115.031C232.117 115.031 227.541 121.634 225.409 125.364C223.842 127.909 221.904 130.206 219.658 132.178L214.424 132.114C214.193 132.26 213.998 132.458 213.855 132.691C213.711 132.924 213.623 133.187 213.596 133.459C213.596 134.281 212.668 137.177 213.079 137.694C213.49 138.211 215.975 138.311 215.975 138.311C215.975 138.311 220.004 138.728 220.727 137.694C220.727 137.694 219.488 136.349 219.587 135.732C219.687 135.116 220.933 134.698 220.933 134.698L222.284 134.599C222.284 134.599 222.748 134.922 223.135 132.836C224.181 132.143 227.982 129.594 229.991 127.585C232.34 125.235 239.254 117.469 239.783 115.977C240.312 114.485 237.974 111.319 236.587 108.229Z" fill="white" stroke="#2E353A" stroke-linecap="round" stroke-linejoin="round"/>
<path id="Vector_28" d="M236.094 107.095C235.054 104.658 234.567 103.119 234.567 103.119C232.781 103.97 227.324 108.54 227.324 108.54L229.603 111.624C232.155 110.766 234.407 109.194 236.094 107.095Z" fill="#C3EB42" stroke="#2E353A" stroke-linecap="round" stroke-linejoin="round"/>
<g id="Vector_29">
<path d="M221.361 100.563L227.007 110.549L230.308 108.311C232.172 106.93 233.823 105.281 235.207 103.418C232.914 99.7864 230.352 96.3324 227.541 93.0853C223.065 87.9748 220.938 87.6575 219.023 87.7633" fill="#2E353A"/>
<path d="M221.361 100.563L227.007 110.549L230.308 108.311C232.172 106.93 233.823 105.281 235.207 103.418C232.914 99.7864 230.352 96.3324 227.541 93.0853C223.065 87.9748 220.938 87.6575 219.023 87.7633" stroke="#2E353A" stroke-linecap="round" stroke-linejoin="round"/>
</g>
<path id="Vector_30" d="M207.604 135.227C207.604 134.81 205.842 130.475 205.842 130.475L200.555 127.567C198.375 123.185 195.027 116.171 194.451 114.937C194.022 114.082 193.664 113.191 193.382 112.276L194.281 110.361C192.917 110.059 191.583 109.63 190.298 109.081C189.306 108.634 188.283 108.112 187.432 107.653C186.962 109.451 186.157 112.547 186.462 114.086C186.768 115.625 193.717 124.424 197.189 128.871C197.189 128.871 198.64 135.021 199.262 135.95L199.885 136.878C199.885 136.878 200.913 138.017 201.43 137.912C201.874 137.772 202.292 137.562 202.669 137.289C203.037 137.409 203.426 137.445 203.809 137.395C204.313 137.178 204.768 136.862 205.148 136.466C205.148 136.466 205.665 137.054 206.911 136.778C208.156 136.502 207.604 135.638 207.604 135.227Z" fill="white" stroke="#2E353A" stroke-linecap="round" stroke-linejoin="round"/>
<path id="Vector_31" d="M186.786 110.209C188.778 111.558 191.072 112.397 193.465 112.652C193.388 112.423 193.359 112.306 193.359 112.306L194.258 110.391C192.893 110.088 191.56 109.66 190.275 109.11C189.282 108.664 188.26 108.141 187.408 107.683C187.22 108.364 186.962 109.269 186.786 110.209Z" fill="#C3EB42" stroke="#2E353A" stroke-linecap="round" stroke-linejoin="round"/>
<path id="Vector_32" d="M110.597 138.405V134.81" stroke="#2E353A" stroke-width="6" stroke-linecap="round" stroke-linejoin="round"/>
<path id="Vector_33" d="M211.299 186.298L206.852 187.038C206.852 187.038 204.138 187.778 203.645 190.245C202.458 196.184 196.314 198.416 191.074 199.591C183.659 201.305 176.136 202.512 168.558 203.204C156.997 204.232 145.255 204.038 133.806 202.029C127.233 200.854 117.211 199.585 112.312 194.58C111.899 194.202 111.587 193.725 111.407 193.194C111.014 191.749 112.353 190.433 113.645 189.67C116.019 188.399 118.549 187.445 121.17 186.832C127.896 184.988 136.296 184.635 142.564 181.71C144.397 180.858 145.501 179.495 143.633 177.851C137.818 172.699 110.597 171.788 110.597 162.102V138.405" stroke="#2E353A" stroke-width="3" stroke-linecap="round" stroke-linejoin="round"/>
<path id="Vector_34" d="M194.998 82.4177C194.788 81.304 194.42 80.2259 193.905 79.2162C193.177 77.9767 191.174 75.9795 190.809 74.088C190.445 72.1965 193.253 69.976 193.253 69.976C193.253 69.976 191.72 69.976 192.078 69.3181C192.437 68.6602 194.193 68.9539 194.193 68.9539C194.074 68.6114 194.045 68.2441 194.109 67.8871C194.172 67.5301 194.327 67.1956 194.557 66.9155C195.356 65.9698 195.65 67.7908 195.65 67.7908C196.511 66.0276 197.847 64.5402 199.509 63.4967C202.129 61.9636 206.793 64.0842 207.304 65.3882C207.815 66.6923 206.582 66.2459 206.582 66.2459C206.582 66.2459 212.844 69.0831 213.278 73.295C213.713 77.5068 210.077 76.7901 210.077 76.7901C210.077 76.7901 210.294 79.2691 209.783 80.1443C209.272 81.0196 209.055 81.3192 206.505 79.2691C203.956 77.219 198.716 77.9591 198.422 79.5628C198.129 81.1665 197.248 83.5631 195.949 83.2753C194.651 82.9875 194.998 82.4177 194.998 82.4177Z" fill="#2E353A" stroke="#2E353A" stroke-linecap="round" stroke-linejoin="round"/>
<path id="Vector_35" d="M198.599 72.8251C198.599 72.8251 196.079 70.6516 198.828 70.1993C201.577 69.7469 202.599 74.6578 205.46 75.6858C207.227 76.2817 209.157 76.1593 210.835 75.3451" stroke="white" stroke-width="0.5" stroke-linecap="round" stroke-linejoin="round"/>
<path id="Vector_36" d="M198.17 72.4432C198.17 72.4432 195.286 70.5634 195.532 69.3063C195.779 68.0493 200.431 66.4162 202.94 67.9259C205.448 69.4356 205.577 72.5724 208.714 73.3243C211.851 74.0762 211.352 72.3198 210.976 71.8146" stroke="white" stroke-width="0.5" stroke-linecap="round" stroke-linejoin="round"/>
<path id="Vector_37" d="M192.648 74.5815C192.143 73.9529 192.019 71.568 194.028 71.192C196.037 70.8161 197.67 72.9543 197.67 72.9543C197.289 73.201 195.033 73.8296 194.657 75.7152C194.281 77.6008 196.161 77.595 195.286 79.2398" stroke="white" stroke-width="0.5" stroke-linecap="round" stroke-linejoin="round"/>
<path id="Vector_38" d="M195.362 82.4646C195.362 82.4646 195.256 82.3295 195.098 82.1651C194.71 81.7656 193.617 81.4778 193.282 82.2767C192.813 83.4104 194.093 85.5604 195.045 85.8423C195.305 85.9292 195.583 85.9505 195.853 85.9044C196.124 85.8583 196.379 85.7462 196.596 85.578C196.596 85.578 199.215 90.8648 202.511 92.1043C205.806 93.3437 207.434 89.4432 208.473 86.8175C209.513 84.1917 209.131 83.24 209.131 83.24C209.131 83.24 210.893 83.6571 211.44 81.5835C211.986 79.5099 211.111 78.7169 210.547 78.8109C210.016 78.9598 209.508 79.1812 209.037 79.4688L208.191 77.2072C208.191 77.2072 206.588 78.1529 203.856 77.1132C201.125 76.0735 199.803 73.5358 199.157 73.7238C198.511 73.9117 198.569 75.6035 198.569 75.6035C198.569 75.6035 197.347 74.9456 196.878 75.5095C196.408 76.0735 197.629 76.7373 197.066 78.8109C196.502 80.8845 195.832 81.5189 195.832 81.5189C195.832 81.5189 196.302 82.4588 195.926 82.4588L195.362 82.4646Z" fill="white" stroke="#2E353A" stroke-linecap="round" stroke-linejoin="round"/>
<path id="Vector_39" d="M200.813 81.0842C200.901 81.4837 200.784 81.842 200.561 81.889C200.338 81.936 200.079 81.6599 199.973 81.2604C199.868 80.861 200.003 80.5027 200.232 80.4557C200.461 80.4087 200.731 80.6906 200.813 81.0842Z" fill="#2E353A"/>
<path id="Vector_40" d="M205.331 80.5673C205.331 80.9726 205.166 81.3134 204.931 81.3192C204.696 81.3251 204.502 81.002 204.491 80.5967C204.479 80.1914 204.649 79.8565 204.884 79.8507C205.119 79.8448 205.313 80.162 205.331 80.5673Z" fill="#2E353A"/>
<path id="Vector_41" d="M198.434 79.8095C198.598 79.417 198.861 79.0739 199.198 78.8143C199.535 78.5547 199.934 78.3875 200.355 78.3292" stroke="#2E353A" stroke-linecap="round" stroke-linejoin="round"/>
<path id="Vector_42" d="M204.085 78.059C204.507 77.9572 204.95 77.9808 205.359 78.1269C205.768 78.2729 206.126 78.5352 206.388 78.8814" stroke="#2E353A" stroke-linecap="round" stroke-linejoin="round"/>
<path id="Vector_43" d="M204.849 86.4473C204.849 86.4473 201.618 87.6516 200.026 85.4017" stroke="#2E353A" stroke-linecap="round" stroke-linejoin="round"/>
<path id="Vector_44" d="M201.06 86.3945C201.06 86.3945 201.172 88.5856 202.323 89.0262C203.474 89.4668 204.021 86.6765 204.021 86.6765C203.026 86.8235 202.01 86.7267 201.06 86.3945Z" fill="#2E353A" stroke="#2E353A" stroke-linecap="round" stroke-linejoin="round"/>
<path id="Vector_45" d="M201.324 87.728C201.389 88.0038 201.512 88.2625 201.685 88.4865C201.858 88.7105 202.078 88.8946 202.329 89.0262C202.916 89.2553 203.368 88.5915 203.65 87.9101C202.909 87.6261 202.101 87.5628 201.324 87.728Z" fill="white" stroke="#2E353A" stroke-linecap="round" stroke-linejoin="round"/>
<g id="Vector_46">
<path d="M203.921 78.8226C203.575 80.0015 203.555 81.2517 203.862 82.4412C204.414 84.1447 205.237 84.2034 204.908 84.4149C204.579 84.6264 203.145 84.9083 202.822 84.6381" fill="white"/>
<path d="M203.921 78.8226C203.575 80.0015 203.555 81.2517 203.862 82.4412C204.414 84.1447 205.237 84.2034 204.908 84.4149C204.579 84.6264 203.145 84.9083 202.822 84.6381" stroke="#2E353A" stroke-linecap="round" stroke-linejoin="round"/>
</g>
<g id="Vector_47">
<path d="M217.302 139.968C217.302 139.968 211.246 154.442 211.046 157.637C210.846 160.833 219.975 188.136 220.187 189.311C220.398 190.486 218.7 190.269 218.7 191.438C218.722 192.248 218.902 193.046 219.229 193.787C219.335 194.105 227.747 196.66 229.133 196.766C230.519 196.871 231.154 196.554 231.154 195.591C231.154 194.627 230.519 191.649 230.519 191.332C230.519 191.015 232.223 188.982 231.583 186.116C230.942 183.249 224.986 165.092 224.24 163.171C223.494 161.25 222.642 159.235 222.642 159.235C222.969 158.756 223.188 158.21 223.282 157.637C223.347 157.142 223.347 156.64 223.282 156.145C223.282 156.145 232.511 141.36 232.522 136.76" fill="#C3EB42"/>
<path d="M217.302 139.968C217.302 139.968 211.246 154.442 211.046 157.637C210.846 160.833 219.975 188.136 220.187 189.311C220.398 190.486 218.7 190.269 218.7 191.438C218.722 192.248 218.902 193.046 219.229 193.787C219.335 194.105 227.747 196.66 229.133 196.766C230.519 196.871 231.154 196.554 231.154 195.591C231.154 194.627 230.519 191.649 230.519 191.332C230.519 191.015 232.223 188.982 231.583 186.116C230.942 183.249 224.986 165.092 224.24 163.171C223.494 161.25 222.642 159.235 222.642 159.235C222.969 158.756 223.188 158.21 223.282 157.637C223.347 157.142 223.347 156.64 223.282 156.145C223.282 156.145 232.511 141.36 232.522 136.76" stroke="#2E353A" stroke-linecap="round" stroke-linejoin="round"/>
</g>
<path id="Vector_48" d="M223.764 170.578C226.172 178.133 229.015 187.126 229.215 188.465C229.568 190.815 228.863 191.297 229.098 192.472C229.333 193.646 229.803 195.297 229.803 195.297" stroke="#2E353A" stroke-width="0.75" stroke-linecap="round" stroke-linejoin="round"/>
<path id="Vector_49" d="M229.092 138.499C227.259 142.969 223.887 151.217 223.218 152.914C222.272 155.264 220.621 157.156 220.98 157.391C221.338 157.626 222.272 157.626 221.567 158.448C220.862 159.27 220.392 159.511 220.392 159.864C220.392 159.987 221.473 163.359 222.871 167.747" stroke="#2E353A" stroke-width="0.75" stroke-linecap="round" stroke-linejoin="round"/>
<path id="Vector_50" d="M230.272 135.591L229.685 137.066" stroke="#2E353A" stroke-width="0.75" stroke-linecap="round" stroke-linejoin="round"/>
<path id="Vector_51" d="M214.441 138.011C214.441 138.011 214.782 134.234 215.129 133.776" stroke="#2E353A" stroke-width="0.75" stroke-linecap="round" stroke-linejoin="round"/>
<path id="Vector_52" d="M217.191 133.8C217.191 133.8 215.675 138.658 215.975 138.346" stroke="#2E353A" stroke-width="0.75" stroke-linecap="round" stroke-linejoin="round"/>
<path id="Vector_53" d="M218.336 134.117L217.649 137.782C217.649 137.782 217.531 138.129 218.565 138.241" stroke="#2E353A" stroke-width="0.75" stroke-linecap="round" stroke-linejoin="round"/>
<path id="Vector_54" d="M205.125 136.466L204.479 135.72" stroke="#2E353A" stroke-width="0.75" stroke-linecap="round" stroke-linejoin="round"/>
<path id="Vector_55" d="M202.646 137.289L202.07 136.866" stroke="#2E353A" stroke-width="0.75" stroke-linecap="round" stroke-linejoin="round"/>
<path id="Vector_56" d="M201.407 137.912L200.584 136.637" stroke="#2E353A" stroke-width="0.75" stroke-linecap="round" stroke-linejoin="round"/>
</g>
<g id="Balloon">
<path id="Vector_57" d="M165.815 123.032C169.499 119.039 172.728 114.65 175.443 109.944" stroke="#2E353A" stroke-linecap="round" stroke-linejoin="round"/>
<path id="Vector_58" d="M118.233 146.253C135.165 144.881 151.079 137.616 163.207 125.723" stroke="#2E353A" stroke-linecap="round" stroke-linejoin="round"/>
<path id="Vector_59" d="M101.457 145.707C103.812 146.061 106.185 146.296 108.564 146.412" stroke="#2E353A" stroke-linecap="round" stroke-linejoin="round"/>
<path id="Vector_60" d="M79.2341 137.324C80.7419 138.107 82.2711 138.838 83.8219 139.515" stroke="#2E353A" stroke-linecap="round" stroke-linejoin="round"/>
<path id="Vector_61" d="M40.4114 79.2396C41.4474 90.6618 45.1584 101.68 51.2438 111.401C57.3292 121.123 65.618 129.275 75.4395 135.198" stroke="#2E353A" stroke-linecap="round" stroke-linejoin="round"/>
<path id="Vector_62" d="M153.291 13.9651C142.92 6.79243 130.868 2.42743 118.309 1.29507C105.75 0.162709 93.1119 2.30158 81.625 7.50344" stroke="#2E353A" stroke-linecap="round" stroke-linejoin="round"/>
<path id="Vector_63" d="M178.996 44.2468C178.272 42.6021 177.489 40.9925 176.647 39.4182" stroke="#2E353A" stroke-linecap="round" stroke-linejoin="round"/>
<path id="Vector_64" d="M150.882 124.283C154.813 121.364 158.405 118.014 161.591 114.297" stroke="#2E353A" stroke-linecap="round" stroke-linejoin="round"/>
<path id="Vector_65" d="M104.828 136.966C120.071 138.563 135.39 134.765 148.122 126.234" stroke="#2E353A" stroke-linecap="round" stroke-linejoin="round"/>
<path id="Vector_66" d="M90.0369 133.694C92.0498 134.387 94.1116 134.988 96.2224 135.497" stroke="#2E353A" stroke-linecap="round" stroke-linejoin="round"/>
<path id="Vector_67" d="M48.5884 90.4418C49.0309 91.9103 49.5224 93.3593 50.0628 94.7887" stroke="#2E353A" stroke-linecap="round" stroke-linejoin="round"/>
<path id="Vector_68" d="M61.635 28.7799C54.9124 36.6453 50.1363 45.983 47.6932 56.0372C45.25 66.0914 45.2085 76.5797 47.5721 86.6529" stroke="#2E353A" stroke-linecap="round" stroke-linejoin="round"/>
<path id="Vector_69" d="M139.316 11.9092C128.993 7.12549 117.606 5.09811 106.267 6.02464C94.9269 6.95118 84.0207 10.8 74.6111 17.196" stroke="#2E353A" stroke-linecap="round" stroke-linejoin="round"/>
<path id="Vector_70" d="M172.811 47.5188C167.418 33.827 157.606 22.3294 144.932 14.8522" stroke="#2E353A" stroke-linecap="round" stroke-linejoin="round"/>
<path id="Vector_71" d="M175.648 56.612C175.284 55.0319 174.855 53.4752 174.373 51.942" stroke="#2E353A" stroke-linecap="round" stroke-linejoin="round"/>
<path id="Vector_72" d="M172.946 72.2434C172.946 71.468 173.639 70.6808 173.61 69.8937C173.58 69.1065 172.829 68.384 172.776 67.6203C172.723 66.8567 173.363 66.0108 173.269 65.2706C173.175 64.5305 172.376 63.8256 172.265 63.0619C172.153 62.2983 172.723 61.4172 172.576 60.6594C172.429 59.9016 171.583 59.2848 171.401 58.5329C171.219 57.781 171.73 56.8587 171.536 56.1127C171.342 55.3667 170.438 54.8204 170.209 54.0802C169.98 53.3401 170.414 52.3826 170.162 51.66C169.909 50.9375 168.987 50.4499 168.687 49.7333C168.388 49.0166 168.764 48.0239 168.458 47.319C168.153 46.6141 167.178 46.2029 166.843 45.5097C166.508 44.8165 166.79 43.8003 166.432 43.1189C166.073 42.4375 165.075 42.1085 164.669 41.4389C164.264 40.7692 164.493 39.7412 164.082 39.0892C163.671 38.4371 162.648 38.1787 162.214 37.5442C161.779 36.9098 161.908 35.8642 161.45 35.2415C160.992 34.6189 159.958 34.4426 159.476 33.8376C158.995 33.2326 159.048 32.1869 158.542 31.5995C158.037 31.0121 156.992 30.9122 156.469 30.3483C155.946 29.7844 155.917 28.7329 155.37 28.1866C154.824 27.6403 153.773 27.5992 153.209 27.0881C152.645 26.577 152.539 25.5197 151.957 25.0145C151.376 24.5093 150.318 24.5622 149.719 24.0805C149.12 23.5988 148.932 22.5649 148.315 22.1067C147.699 21.6486 146.653 21.7778 146.013 21.3431C145.372 20.9084 145.12 19.8863 144.462 19.4751C143.804 19.0639 142.782 19.2754 142.112 18.8877C141.442 18.5 141.114 17.5072 140.432 17.1254C139.751 16.7436 138.734 17.049 138.041 16.7142C137.348 16.3794 136.943 15.4101 136.232 15.0988C135.521 14.7874 134.54 15.1516 133.818 14.8697C133.095 14.5877 132.643 13.6537 131.891 13.3952C131.139 13.1368 130.211 13.5773 129.471 13.3482C128.731 13.1192 128.184 12.2263 127.438 12.0265C126.692 11.8268 125.776 12.332 125.018 12.1558C124.26 11.9796 123.655 11.1337 122.892 10.9809C122.128 10.8282 121.259 11.4097 120.489 11.2923C119.72 11.1748 119.056 10.3759 118.286 10.2878C117.517 10.1997 116.683 10.84 115.937 10.7812C115.191 10.7225 114.433 9.97644 113.657 9.94707C112.882 9.9177 112.107 10.6167 111.308 10.6167C110.509 10.6167 109.751 9.9177 108.958 9.94707C108.165 9.97644 107.448 10.7283 106.679 10.7812C105.909 10.8341 105.075 10.1938 104.329 10.2878C103.583 10.3818 102.884 11.1807 102.126 11.2923C101.368 11.4039 100.481 10.8341 99.7237 10.9809C98.9659 11.1278 98.3491 11.9737 97.5972 12.1558C96.8453 12.3379 95.923 11.8268 95.177 12.0265C94.431 12.2263 93.8788 13.1192 93.1445 13.3482C92.4102 13.5773 91.4469 13.1427 90.7185 13.3952C89.99 13.6478 89.5436 14.5701 88.7976 14.8697C88.0515 15.1693 87.0882 14.7933 86.3833 15.0988C85.6783 15.4042 85.2672 16.3794 84.574 16.7142C83.8808 17.049 82.8646 16.7671 82.1832 17.1254C81.5018 17.4837 81.1669 18.4823 80.5031 18.8877C79.8394 19.293 78.7996 19.0698 78.1535 19.4751C77.5073 19.8804 77.2429 20.9025 76.6085 21.3372C75.9741 21.7719 74.9285 21.6427 74.3058 22.1009C73.6832 22.5591 73.5069 23.5929 72.9019 24.0805C72.2968 24.568 71.2512 24.5034 70.6638 25.0086C70.0764 25.5138 69.9765 26.5594 69.4126 27.0822C68.8487 27.605 67.7972 27.6344 67.2509 28.1807C66.7046 28.727 66.6634 29.7785 66.1524 30.3424C65.6413 30.9063 64.6016 31.0003 64.0964 31.5878C63.5912 32.1752 63.6441 33.2208 63.1624 33.8258C62.6807 34.4309 61.6468 34.6071 61.1886 35.2298C60.7305 35.8525 60.8597 36.8922 60.425 37.5266C59.9903 38.161 58.9682 38.4195 58.557 39.0774C58.1458 39.7353 58.3573 40.7575 57.9696 41.4271C57.5819 42.0968 56.5832 42.4257 56.2073 43.113C55.8313 43.8003 56.1309 44.8048 55.7961 45.498C55.4613 46.1911 54.492 46.6023 54.1807 47.3072C53.8693 48.0121 54.2336 48.999 53.9516 49.7215C53.6696 50.4441 52.7297 50.8964 52.4771 51.6483C52.2246 52.4002 52.6534 53.3283 52.4302 54.0685C52.2069 54.8086 51.3023 55.3549 51.1026 56.101C50.9029 56.847 51.408 57.7692 51.2377 58.5212C51.0673 59.2731 50.2156 59.884 50.0628 60.6476C49.9101 61.4113 50.4975 62.2865 50.38 63.0502C50.2626 63.8138 49.4637 64.4835 49.3756 65.2589C49.2874 66.0343 49.9277 66.8567 49.869 67.6086C49.8102 68.3605 49.0583 69.1065 49.0348 69.8819C49.0113 70.6573 49.6986 71.4386 49.6986 72.2316C49.6986 73.0246 49.0055 73.7883 49.0348 74.5813C49.0642 75.3743 49.8161 76.091 49.869 76.8605C49.9219 77.6301 49.2816 78.4642 49.3756 79.2102C49.4695 79.9563 50.2684 80.6553 50.38 81.4131C50.4917 82.1708 49.9219 83.0637 50.0628 83.8215C50.2038 84.5793 51.0615 85.1902 51.2377 85.9421C51.4139 86.694 50.9029 87.6221 51.1026 88.3623C51.3023 89.1024 52.2011 89.6605 52.4302 90.3948C52.6592 91.129 52.2246 92.0924 52.4771 92.8208C52.7297 93.5492 53.652 94.025 53.9516 94.7476C54.2512 95.4701 53.8752 96.4511 54.1807 97.156C54.4861 97.8609 55.4613 98.2721 55.7961 98.9653C56.1309 99.6584 55.8431 100.675 56.2073 101.356C56.5715 102.038 57.5642 102.372 57.9696 103.042C58.3749 103.712 58.1458 104.74 58.557 105.392C58.9682 106.044 59.9903 106.302 60.425 106.937C60.8597 107.571 60.7305 108.617 61.1886 109.239C61.6468 109.862 62.6807 110.038 63.1624 110.643C63.6441 111.248 63.5912 112.3 64.0964 112.881C64.6016 113.463 65.6472 113.569 66.17 114.138C66.6928 114.708 66.7222 115.754 67.2685 116.3C67.8148 116.846 68.8663 116.888 69.4302 117.393C69.9941 117.898 70.0999 118.967 70.6814 119.466C71.263 119.966 72.3145 119.919 72.9195 120.4C73.5245 120.882 73.7066 121.916 74.3234 122.374C74.9402 122.832 75.9859 122.703 76.6261 123.138C77.2664 123.572 77.519 124.595 78.1769 125.006C78.8349 125.417 79.857 125.206 80.5266 125.593C81.1963 125.981 81.5253 126.98 82.2067 127.355C82.8881 127.731 83.8985 127.432 84.5975 127.767C85.2965 128.102 85.696 129.071 86.4068 129.382C87.1175 129.693 88.0985 129.329 88.8211 129.611C89.5436 129.893 89.9959 130.833 90.7478 131.086C91.4997 131.338 92.4279 130.909 93.168 131.133C93.9082 131.356 94.4545 132.26 95.2005 132.46C95.9465 132.66 96.8629 132.155 97.6207 132.325C98.3785 132.495 98.9835 133.347 99.7472 133.5C100.511 133.653 101.38 133.065 102.15 133.183C102.919 133.3 103.583 134.099 104.353 134.187C105.122 134.275 105.956 133.635 106.702 133.694C107.448 133.753 108.206 134.504 108.981 134.534C109.757 134.563 110.532 133.864 111.331 133.864C112.13 133.864 112.894 134.557 113.681 134.534C114.468 134.51 115.191 133.753 115.954 133.694C116.718 133.635 117.564 134.281 118.304 134.187C119.044 134.093 119.749 133.294 120.513 133.183C121.276 133.071 122.157 133.641 122.915 133.5C123.673 133.359 124.29 132.501 125.042 132.325C125.794 132.149 126.716 132.66 127.462 132.46C128.208 132.26 128.76 131.362 129.494 131.133C130.229 130.904 131.192 131.338 131.92 131.086C132.649 130.833 133.125 129.911 133.841 129.611C134.558 129.312 135.551 129.693 136.256 129.382C136.96 129.071 137.372 128.102 138.065 127.767C138.758 127.432 139.774 127.72 140.456 127.355C141.137 126.991 141.472 125.999 142.136 125.593C142.799 125.188 143.833 125.417 144.485 125.006C145.137 124.595 145.396 123.572 146.03 123.138C146.665 122.703 147.71 122.832 148.333 122.374C148.956 121.916 149.132 120.882 149.737 120.4C150.342 119.919 151.388 119.972 151.975 119.466C152.562 118.961 152.662 117.916 153.226 117.393C153.79 116.87 154.842 116.841 155.388 116.294C155.934 115.748 155.975 114.702 156.486 114.133C156.997 113.563 158.055 113.463 158.56 112.881C159.065 112.3 159.012 111.248 159.494 110.643C159.976 110.038 161.01 109.862 161.468 109.239C161.926 108.617 161.797 107.577 162.231 106.937C162.666 106.296 163.688 106.044 164.099 105.392C164.511 104.74 164.299 103.706 164.687 103.042C165.075 102.378 166.067 102.043 166.449 101.362C166.831 100.681 166.525 99.6702 166.86 98.9712C167.195 98.2721 168.164 97.8727 168.476 97.1619C168.787 96.4511 168.423 95.4701 168.705 94.7476C168.987 94.025 169.921 93.5727 170.179 92.8267C170.438 92.0807 169.997 91.1408 170.226 90.4006C170.455 89.6605 171.354 89.1201 171.554 88.3682C171.754 87.6163 171.248 86.7057 171.419 85.948C171.589 85.1902 172.441 84.5851 172.594 83.8274C172.746 83.0696 172.165 82.1885 172.282 81.4189C172.4 80.6494 173.199 79.9856 173.287 79.2161C173.375 78.4466 172.735 77.6124 172.793 76.8664C172.852 76.1204 173.598 75.3626 173.627 74.5872C173.657 73.8118 172.946 73.0188 172.946 72.2434Z" fill="#C3EB42" stroke="#2E353A" stroke-width="2" stroke-linecap="round" stroke-linejoin="round"/>
<path id="Vector_73" d="M92.8801 13.5891L93.9669 16.632" stroke="#2E353A" stroke-width="2" stroke-linecap="round" stroke-linejoin="round"/>
<path id="Vector_74" d="M88.7446 15.2222L89.7256 17.613" stroke="#2E353A" stroke-width="2" stroke-linecap="round" stroke-linejoin="round"/>
<path id="Vector_75" d="M164.434 41.5388C162.657 43.0629 160.635 44.2763 158.454 45.128" stroke="#2E353A" stroke-width="2" stroke-linecap="round" stroke-linejoin="round"/>
<path id="Vector_76" d="M166.608 45.5626C165.798 46.0749 164.963 46.5454 164.105 46.9724" stroke="#2E353A" stroke-width="2" stroke-linecap="round" stroke-linejoin="round"/>
<path id="Vector_77" d="M76.3499 123.226C76.3499 123.226 78.958 120.289 79.3927 118.115" stroke="#2E353A" stroke-width="2" stroke-linecap="round" stroke-linejoin="round"/>
<path id="Vector_78" d="M69.0601 117.222C69.0601 117.222 71.2394 114.509 71.6741 114.074" stroke="#2E353A" stroke-width="2" stroke-linecap="round" stroke-linejoin="round"/>
<path id="Vector_79" d="M124.959 132.014L124.09 127.232" stroke="#2E353A" stroke-width="2" stroke-linecap="round" stroke-linejoin="round"/>
<path id="Vector_80" d="M129.741 131.039L129.089 128.319" stroke="#2E353A" stroke-width="2" stroke-linecap="round" stroke-linejoin="round"/>
<path id="Vector_81" d="M149.643 120.271L145.948 116.136" stroke="#2E353A" stroke-width="2" stroke-linecap="round" stroke-linejoin="round"/>
<path id="Vector_82" d="M167.042 98.9536L161.497 96.0223" stroke="#2E353A" stroke-width="2" stroke-linecap="round" stroke-linejoin="round"/>
<path id="Vector_83" d="M50.1392 72.314L54.815 72.4197" stroke="#2E353A" stroke-width="2" stroke-linecap="round" stroke-linejoin="round"/>
<path id="Vector_84" d="M56.7712 72.5312L59.0563 72.637" stroke="#2E353A" stroke-width="2" stroke-linecap="round" stroke-linejoin="round"/>
<path id="Vector_85" d="M56.1191 99.2825C56.6654 99.0652 60.2311 98.1077 60.2311 98.1077" stroke="#2E353A" stroke-width="2" stroke-linecap="round" stroke-linejoin="round"/>
<path id="Vector_86" d="M124.994 12.2499C124.665 12.9078 124.008 16.6967 124.008 16.6967" stroke="#2E353A" stroke-width="2" stroke-linecap="round" stroke-linejoin="round"/>
<path id="Vector_87" d="M129.271 13.7301L128.778 16.2032" stroke="#2E353A" stroke-width="2" stroke-linecap="round" stroke-linejoin="round"/>
<path id="Vector_88" d="M146.224 21.7954L144.908 23.4402" stroke="#2E353A" stroke-width="2" stroke-linecap="round" stroke-linejoin="round"/>
<path id="Vector_89" d="M60.3132 37.5972L63.6028 39.4064" stroke="#2E353A" stroke-width="2" stroke-linecap="round" stroke-linejoin="round"/>
<path id="Vector_90" d="M65.5825 40.3933L68.2142 41.8736" stroke="#2E353A" stroke-width="2" stroke-linecap="round" stroke-linejoin="round"/>
<path id="Vector_91" d="M128.742 54.2858C128.742 54.2858 127.738 52.7291 122.663 49.5277C117.587 46.3262 104.452 43.2834 99.2772 40.4872C94.102 37.603 88.3335 32.1634 86.3186 29.5494C84.3038 26.9354 84.6151 24.9616 82.9938 24.803C81.3725 24.6444 79.7512 25.3904 78.6234 28.7857C77.4955 32.1811 78.876 40.687 79.7982 43.301C80.7205 45.915 83.4285 47.5716 85.1496 48.2647C86.8708 48.9579 90.7184 50.7848 90.7125 52.4237C90.7067 54.0626 90.5011 54.3857 89.7903 54.509C89.0795 54.6324 73.454 56.9468 71.0456 57.6459C68.6372 58.3449 67.5974 62.733 68.2847 66.1929C68.972 69.6528 71.6976 70.7396 70.8752 73.195C70.0529 75.6504 68.6372 78.5288 70.0352 81.789C71.4333 85.0492 74.0591 84.544 73.037 87.0758C72.0148 89.6076 72.0031 92.5682 73.3072 94.4715C74.6113 96.3747 76.3324 97.6083 76.3207 99.9169C76.3089 102.225 80.3386 107.307 82.8704 108.029C84.1217 108.405 95.4824 109.651 106.544 109.762C117.599 110.044 128.355 109.175 128.337 109.175C128.47 90.8667 128.605 72.5704 128.742 54.2858Z" fill="white" stroke="#2E353A" stroke-width="3" stroke-linecap="round" stroke-linejoin="round"/>
<path id="Vector_92" d="M150.818 107.459C144.239 108.454 137.636 109.186 131.01 109.656C130.581 109.675 130.154 109.604 129.755 109.447C129.356 109.29 128.994 109.051 128.693 108.745C128.392 108.439 128.159 108.074 128.009 107.672C127.858 107.271 127.794 106.842 127.82 106.414C127.887 89.8837 127.953 73.3615 128.02 56.847C128.003 56.4129 128.074 55.9799 128.228 55.5737C128.382 55.1675 128.616 54.7964 128.917 54.4824C129.217 54.1685 129.577 53.918 129.976 53.746C130.375 53.574 130.804 53.4839 131.239 53.4811C137.865 53.6691 144.468 53.9373 151.047 54.2858C151.904 54.3466 152.707 54.729 153.294 55.3565C153.881 55.9839 154.209 56.8101 154.213 57.6694C154.143 73.0168 154.074 88.376 154.007 103.747C153.981 104.638 153.651 105.492 153.07 106.168C152.489 106.844 151.694 107.3 150.818 107.459Z" fill="#2E353A" stroke="#2E353A" stroke-width="3" stroke-linecap="round" stroke-linejoin="round"/>
<path id="Vector_93" d="M136.109 103.741C136.125 103.419 136.073 103.096 135.956 102.795C135.84 102.494 135.662 102.22 135.433 101.992C135.205 101.764 134.931 101.586 134.629 101.471C134.327 101.355 134.005 101.304 133.682 101.321C133.003 101.394 132.375 101.718 131.922 102.23C131.469 102.742 131.223 103.404 131.233 104.088C131.213 104.412 131.263 104.737 131.377 105.04C131.492 105.344 131.67 105.62 131.899 105.851C132.128 106.081 132.404 106.26 132.707 106.376C133.01 106.493 133.335 106.543 133.659 106.525C134.337 106.442 134.962 106.112 135.413 105.599C135.865 105.086 136.112 104.425 136.109 103.741Z" fill="white" stroke="#2E353A" stroke-width="3" stroke-linecap="round" stroke-linejoin="round"/>
<path id="Vector_94" d="M128.537 48.2355C135.051 48.2355 140.332 42.9545 140.332 36.44C140.332 29.9255 135.051 24.6445 128.537 24.6445C122.022 24.6445 116.741 29.9255 116.741 36.44C116.741 42.9545 122.022 48.2355 128.537 48.2355Z" fill="white"/>
<path id="Vector_95" d="M148.418 53.9023C150.13 52.1909 150.13 49.4163 148.418 47.7049C146.707 45.9936 143.932 45.9936 142.221 47.7049C140.51 49.4163 140.51 52.1909 142.221 53.9023C143.932 55.6136 146.707 55.6136 148.418 53.9023Z" fill="white"/>
<path id="Vector_96" opacity="0.2" d="M106.92 131.832C107.66 131.885 108.365 132.613 109.117 132.642C109.868 132.672 110.62 131.996 111.366 131.996C112.112 131.996 112.876 132.666 113.622 132.642C114.368 132.619 115.079 131.885 115.819 131.832C116.559 131.779 117.37 132.419 118.11 132.308C118.85 132.196 119.508 131.45 120.242 131.338C120.977 131.227 121.834 131.779 122.592 131.644C123.35 131.509 123.92 130.68 124.642 130.516C125.365 130.351 126.263 130.839 126.992 130.645C127.72 130.451 128.243 129.588 128.954 129.365C129.665 129.141 130.593 129.564 131.304 129.318C132.014 129.071 132.478 128.143 133.166 127.896C133.853 127.649 134.816 127.972 135.515 127.673C136.214 127.373 136.59 126.439 137.278 126.11C137.965 125.781 138.928 126.063 139.586 125.717C140.244 125.37 140.567 124.401 141.213 124.031C141.86 123.661 142.858 123.855 143.487 123.443C144.115 123.032 144.368 122.057 144.985 121.64C145.601 121.223 146.606 121.346 147.205 120.9C147.804 120.453 147.981 119.455 148.562 118.991C149.144 118.527 150.16 118.579 150.724 118.092C151.288 117.604 151.388 116.594 151.934 116.089C152.48 115.584 153.496 115.554 154.025 115.026C154.554 114.497 154.577 113.487 155.082 112.94C155.588 112.394 156.604 112.294 157.091 111.724C157.579 111.154 157.526 110.15 157.99 109.563C158.454 108.975 159.453 108.805 159.899 108.206C160.346 107.606 160.217 106.602 160.64 105.985C161.062 105.368 162.043 105.122 162.437 104.487C162.831 103.853 162.637 102.86 163.024 102.214C163.412 101.568 164.364 101.25 164.71 100.593C165.057 99.9347 164.787 98.9536 165.11 98.284C165.433 97.6143 166.373 97.2207 166.672 96.5217C166.972 95.8227 166.619 94.8887 166.896 94.172C167.172 93.4554 168.07 92.9972 168.317 92.3099C168.564 91.6226 168.141 90.6827 168.364 89.9602C168.587 89.2377 169.451 88.7207 169.645 87.9982C169.839 87.2757 169.345 86.3887 169.515 85.6485C169.686 84.9083 170.502 84.3327 170.643 83.5984C170.784 82.8641 170.226 82.0182 170.338 81.2487C170.45 80.4792 171.225 79.8565 171.307 79.1163C171.389 78.3762 170.773 77.5714 170.831 76.8195C170.89 76.0676 171.613 75.3745 171.636 74.6225C171.66 73.8706 170.99 73.1187 170.99 72.3727C170.99 71.6267 171.665 70.863 171.636 70.117C171.607 69.371 170.884 68.6602 170.831 67.92C170.778 67.1799 171.389 66.3692 171.307 65.6291C171.225 64.8889 170.444 64.231 170.338 63.4967C170.232 62.7625 170.778 61.9048 170.643 61.1471C170.508 60.3893 169.68 59.8195 169.515 59.0969C169.482 58.9367 169.472 58.7725 169.486 58.6094C128.131 93.8548 76.6731 91.135 53.2408 87.4871C53.2306 87.6391 53.2445 87.7918 53.2819 87.9394C53.4758 88.662 54.3393 89.1907 54.5625 89.9014C54.7857 90.6122 54.3628 91.5404 54.6095 92.2511C54.8562 92.9619 55.7844 93.426 56.0311 94.1074C56.2778 94.7888 55.9547 95.7581 56.2543 96.4571C56.5539 97.1561 57.4879 97.538 57.8168 98.2194C58.1458 98.9008 57.8638 99.87 58.2104 100.528C58.557 101.186 59.5262 101.509 59.8963 102.155C60.2664 102.801 60.0725 103.794 60.4837 104.423C60.8949 105.051 61.8701 105.304 62.2871 105.92C62.7042 106.537 62.5808 107.542 63.0273 108.147C63.4737 108.752 64.4724 108.916 64.9364 109.504C65.4005 110.091 65.3476 111.096 65.8352 111.666C66.3227 112.235 67.3331 112.329 67.8383 112.876C68.3435 113.422 68.3728 114.438 68.9015 114.967C69.4302 115.496 70.4406 115.513 70.9869 116.024C71.5332 116.535 71.633 117.54 72.2028 118.027C72.7726 118.515 73.7771 118.462 74.3646 118.926C74.952 119.39 75.1223 120.395 75.7215 120.835C76.3207 121.276 77.3252 121.152 77.942 121.575C78.5588 121.998 78.8055 122.979 79.4399 123.379C80.0743 123.778 81.0671 123.573 81.7132 123.966C82.3594 124.36 82.6766 125.3 83.3345 125.652C83.9924 126.005 84.9734 125.723 85.6431 126.052C86.3128 126.38 86.7063 127.309 87.4054 127.608C88.1044 127.908 89.0384 127.555 89.7551 127.831C90.4717 128.107 90.9299 129.006 91.6172 129.253C92.3045 129.5 93.2444 129.083 93.9669 129.3C94.6894 129.517 95.2064 130.387 95.9289 130.581C96.6514 130.774 97.5384 130.287 98.2786 130.451C99.0188 130.616 99.6003 131.438 100.335 131.579C101.069 131.72 101.915 131.162 102.655 131.274C103.395 131.385 104.047 132.161 104.787 132.243C105.527 132.325 106.168 131.779 106.92 131.832Z" fill="black"/>
</g>
</g>
</g>
</g>
</g>
</svg>
