<svg width="16" height="16" viewBox="0 0 16 16" fill="none" xmlns="http://www.w3.org/2000/svg">
<path d="M5.00004 3.73331L3.33337 4.66665L4.26671 2.99998L3.33337 1.33331L5.00004 2.26665L6.66671 1.33331L5.73337 2.99998L6.66671 4.66665L5.00004 3.73331ZM13 10.2666L14.6667 9.33331L13.7334 11L14.6667 12.6666L13 11.7333L11.3334 12.6666L12.2667 11L11.3334 9.33331L13 10.2666ZM14.6667 1.33331L13.7334 2.99998L14.6667 4.66665L13 3.73331L11.3334 4.66665L12.2667 2.99998L11.3334 1.33331L13 2.26665L14.6667 1.33331ZM8.89337 8.51998L10.52 6.89331L9.1067 5.47998L7.48004 7.10665L8.89337 8.51998ZM9.58004 4.85998L11.14 6.41998C11.4 6.66665 11.4 7.09998 11.14 7.35998L3.36004 15.14C3.10004 15.4 2.66671 15.4 2.42004 15.14L0.860039 13.58C0.600039 13.3333 0.600039 12.9 0.860039 12.64L8.64004 4.85998C8.90004 4.59998 9.33337 4.59998 9.58004 4.85998Z" fill="black" fill-opacity="0.88"/>
</svg>
