<svg width="24" height="25" viewBox="0 0 24 25" fill="none" xmlns="http://www.w3.org/2000/svg">
<path d="M6.03755 18.6876C5.85005 18.6501 5.70005 18.6126 5.51255 18.5376C5.32505 18.4626 5.17505 18.4251 5.02505 18.3501C4.68755 18.2001 4.38755 18.0126 4.08755 17.7876C3.48755 17.3751 3.00005 16.8126 2.62505 16.1376C2.25005 15.5001 2.02505 14.7501 1.98755 14.0376C1.95005 13.6626 1.98755 13.3251 2.02505 12.9501C2.06255 12.7626 2.10005 12.6126 2.13755 12.4251C2.17505 12.2376 2.25005 12.0876 2.28755 11.9001L2.32505 12.4251C2.32505 12.6126 2.36255 12.7626 2.40005 12.9501C2.43755 13.2876 2.51255 13.6251 2.58755 13.9251C2.73755 14.5626 2.96255 15.1626 3.30005 15.7251C3.63755 16.2876 4.01255 16.8126 4.50005 17.3001C4.72505 17.5251 4.98755 17.7501 5.25005 17.9751C5.36255 18.0876 5.51255 18.2001 5.66255 18.3126L6.03755 18.6876Z" fill="#66BCE8"/>
<path d="M5.925 20.0376C5.8125 20.1126 5.6625 20.1501 5.5125 20.1876C5.3625 20.2251 5.25 20.2626 5.1 20.2626C4.8375 20.3001 4.5375 20.3376 4.2375 20.3001C3.675 20.2626 3.075 20.1126 2.5875 19.8501C2.0625 19.5876 1.6125 19.1751 1.3125 18.6876C1.1625 18.4626 1.0125 18.2001 0.9 17.9376C0.8625 17.8251 0.825 17.6751 0.7875 17.5251C0.7875 17.4126 0.75 17.3001 0.75 17.1501C0.8625 17.2626 0.9375 17.3751 1.0125 17.4501C1.125 17.5626 1.2 17.6751 1.275 17.7501C1.4625 17.9376 1.6125 18.1251 1.8 18.2751C2.175 18.6126 2.55 18.9126 3 19.1376C3.4125 19.3626 3.9 19.5501 4.35 19.7001C4.575 19.7751 4.8375 19.8126 5.1 19.8876C5.2125 19.9251 5.3625 19.9251 5.475 19.9626C5.6625 20.0001 5.775 20.0001 5.925 20.0376Z" fill="#66BCE8"/>
<path d="M14.4001 1.8125C14.5876 1.85 14.7376 1.925 14.9251 2C15.1126 2.075 15.2626 2.15 15.4126 2.225C15.7501 2.4125 16.0501 2.6 16.3501 2.825C16.9501 3.275 17.4376 3.875 17.7751 4.55C18.1126 5.225 18.3001 5.975 18.3001 6.6875C18.3001 7.0625 18.2626 7.4 18.1876 7.775C18.1501 7.9625 18.1126 8.1125 18.0376 8.3C17.9626 8.4875 17.9251 8.6375 17.8501 8.7875L17.8126 8.2625C17.8126 8.075 17.8126 7.925 17.7751 7.7375L17.6626 6.725C17.5501 6.0875 17.3251 5.45 17.0251 4.85C16.7251 4.25 16.3501 3.725 15.9001 3.2375C15.6751 2.975 15.4126 2.75 15.1876 2.4875C15.0751 2.375 14.9251 2.2625 14.7751 2.15L14.4001 1.8125Z" fill="#66BCE8"/>
<path d="M17.6624 1.6626C17.8124 1.7001 17.9249 1.7376 18.0374 1.8126C18.1499 1.8501 18.2999 1.9251 18.4124 2.0001C18.6374 2.1501 18.8624 2.3001 19.0874 2.4876C19.4999 2.8626 19.8374 3.3126 20.0249 3.8376C20.2499 4.3626 20.3249 4.9251 20.2499 5.4876C20.2124 5.7501 20.1374 6.0126 20.0624 6.2751C20.0249 6.3876 19.9499 6.5376 19.9124 6.6501C19.8374 6.7626 19.7999 6.8751 19.6874 6.9876V6.2376C19.6874 5.9751 19.6499 5.7501 19.6499 5.5251C19.5749 5.0376 19.4999 4.5876 19.3124 4.1751C19.1249 3.7251 18.8999 3.3501 18.6374 2.9376C18.4874 2.7501 18.3374 2.5251 18.1874 2.3376C18.1124 2.2251 18.0374 2.1501 17.9249 2.0376C17.8499 1.8501 17.7374 1.7376 17.6624 1.6626Z" fill="#66BCE8"/>
<path d="M3.75003 7.24995C3.00003 7.58745 2.73753 8.48745 3.07503 9.23745L7.80003 19.1L10.425 17.8625L5.70003 7.96245C5.36253 7.21245 4.50003 6.87495 3.75003 7.24995Z" fill="#FFDD67"/>
<path d="M16.1625 15.0875L18.9375 13.775L13.5374 2.52495C13.1624 1.77495 12.2625 1.43745 11.475 1.81245C10.725 2.18745 10.3875 3.08745 10.7625 3.87495L16.1625 15.0875Z" fill="#FFDD67"/>
<path d="M11.5124 1.77502C11.4374 1.81252 11.3624 1.85002 11.2874 1.92502C11.9999 1.73752 12.7499 2.07502 13.0874 2.75002L18.4874 14L18.9749 13.775L13.5749 2.52502C13.1999 1.73752 12.2999 1.40002 11.5124 1.77502Z" fill="#EBA352"/>
<path d="M10.425 17.825L13.3125 16.4375L7.79999 4.96247C7.42499 4.17497 6.44999 3.79997 5.66249 4.17497C4.87499 4.54997 4.53749 5.52497 4.91249 6.31247L10.425 17.825Z" fill="#FFDD67"/>
<path d="M5.6625 4.21246C5.5875 4.24996 5.5125 4.28746 5.4375 4.36246C6.15 4.17496 6.975 4.51246 7.3125 5.22496L10.725 12.3875L11.55 12.875L7.8 4.99996C7.425 4.17496 6.4875 3.83746 5.6625 4.21246Z" fill="#EBA352"/>
<path d="M12.8625 15.5374L15.75 14.1499L10.2375 2.67488C9.86249 1.88738 8.88749 1.51238 8.09999 1.92488C7.31249 2.29988 6.97499 3.27488 7.34999 4.06238L12.8625 15.5374Z" fill="#FFDD67"/>
<path d="M8.1 1.88751C8.025 1.92501 7.95 2.00001 7.875 2.03751C8.5875 1.85001 9.4125 2.18751 9.75 2.90001L13.6125 11L14.4375 11.4875L10.2375 2.67501C9.8625 1.85001 8.8875 1.51251 8.1 1.88751Z" fill="#EBA352"/>
<path d="M3.75009 7.25012C3.67509 7.28762 3.60009 7.32512 3.52509 7.40012C4.20009 7.21262 4.91259 7.55012 5.21259 8.22512L8.02508 14.1126L8.85009 14.6001L5.70009 8.00012C5.36259 7.21262 4.50009 6.87512 3.75009 7.25012Z" fill="#EBA352"/>
<path d="M22.8 6.12509C21.7875 5.33759 20.1375 6.20009 19.3125 8.90009C18.75 10.7751 18.675 11.3376 17.475 11.9001L16.8 10.5126C16.8 10.5126 6.14998 15.6501 6.56248 16.4751C6.56248 16.4751 7.83748 20.4501 10.0125 22.2876C13.2375 25.0626 20.775 22.1001 21.1125 14.9376C21.3 10.7751 23.8875 6.98759 22.8 6.12509Z" fill="#FFDD67"/>
<path d="M22.8001 6.12505C22.6126 5.97505 22.3876 5.90005 22.1626 5.86255C22.2001 5.90005 22.2751 5.90005 22.3126 5.93755C23.4376 6.80005 22.2751 8.78755 21.6376 10.5875C21.1126 12.0125 20.6626 13.475 20.7376 14.9C21.0376 21.125 14.7751 24.0875 11.0251 22.9625C14.7001 24.5 21.5251 21.575 21.2251 15.0875C21.1501 13.6625 21.5626 12.275 22.1251 10.775C22.7251 8.97505 23.8876 6.98755 22.8001 6.12505Z" fill="#EBA352"/>
<path d="M17.8125 11.75C15.4875 12.0125 12.075 15.35 14.475 18.9875C12.7125 15.3125 15.6 12.8375 17.4375 11.975C17.625 11.825 17.8125 11.75 17.8125 11.75Z" fill="#EBA352"/>
</svg>
