<svg width="24" height="24" viewBox="0 0 24 24" fill="none" xmlns="http://www.w3.org/2000/svg">
<rect width="24" height="24" rx="12" fill="currentColor"/>
<path d="M13.8581 12.7639C15.957 12.0003 17.4586 11.0372 15.9053 9.05213C16.0119 5.05107 9.27373 4.28826 7.5837 8.83388M7.5837 8.83388C7.39273 9.7094 7.45447 11.5976 8.11749 13.1131C8.36051 13.6857 8.17133 16.0229 7.31555 14.9665C6.91243 14.4201 6.54126 14.3975 6.38224 14.456C5.61333 15.874 7.59842 17.0815 8.03241 17.0901C9.11614 18.3494 10.039 18.1925 10.8223 18.2507M7.5837 8.83388C6.89089 8.03194 6.81057 5.76148 9.58612 6.34481C10.233 4.9556 11.1807 4.45879 12.6567 5.74318M7.5837 8.83388C6.37577 9.70725 6.11238 10.5806 7.62794 11.454C7.04462 11.725 6.44514 12.6867 8.11758 13.3752C7.69328 13.7159 7.12323 14.0325 8.07306 14.5978M14.8815 12.3399C16.68 15.1011 15.7624 16.8618 13.502 17.4362M9.90193 12.6185C10.253 12.9462 10.762 12.8819 11.1163 12.6382C11.1849 11.9834 11.7147 12.0064 11.8055 12.6802C12.2338 12.6716 12.6814 12.6203 12.7654 12.9272C12.8142 13.2556 12.5375 13.4473 12.1204 13.3902C12.1397 14.0486 11.8098 14.0263 11.0664 13.9617C10.8216 14.0698 10.5983 14.1139 10.374 14.1624M11.5697 11.0742C13.3685 11.7796 14.9828 11.6317 15.9437 10.1172M10.7517 17.7442C13.2185 22.6693 15.8476 11.2218 10.9405 15.5208M15.7938 13.8774C19.8429 11.3603 16.7551 18.5691 15.1261 16.7815M16.7145 9.08302H17.6586M17.1866 8.54241V9.59239M12.7902 10.1218C12.7902 10.375 12.6108 10.5803 12.3896 10.5803C12.1683 10.5803 11.989 10.375 11.989 10.1218C11.989 9.86868 12.1683 9.66345 12.3896 9.66345C12.6108 9.66345 12.7902 9.86868 12.7902 10.1218ZM15.5047 9.44519C15.5047 9.68627 15.3552 9.8817 15.1708 9.8817C14.9865 9.8817 14.837 9.68627 14.837 9.44519C14.837 9.20412 14.9865 9.00869 15.1708 9.00869C15.3552 9.00869 15.5047 9.20412 15.5047 9.44519Z" stroke="#121212" stroke-width="0.75" stroke-linecap="round" stroke-linejoin="round"/>
</svg>
