<svg width="33" height="32" viewBox="0 0 33 32" fill="currentColor" xmlns="http://www.w3.org/2000/svg">
<path d="M20.8952 17.6369C25.3928 16.0008 28.6104 13.9369 25.282 9.68317C25.5105 1.10947 11.0715 -0.525123 7.45001 9.21548M7.45001 9.21548C7.04079 11.0916 7.17309 15.1377 8.59384 18.3853C9.1146 19.6122 8.70922 24.6206 6.8754 22.3568C6.01157 21.1861 5.2162 21.1376 4.87544 21.263C3.22777 24.3014 7.48155 26.889 8.41153 26.9075C10.7338 29.6059 12.7115 29.2698 14.3899 29.3944M7.45001 9.21548C5.96542 7.49705 5.79311 2.63175 11.7407 3.88173C13.1268 0.904854 15.1576 -0.159744 18.3206 2.59252M7.45001 9.21548C4.86159 11.087 4.29699 12.9585 7.54462 14.83C6.29465 15.4108 5.01005 17.4715 8.59384 18.9469C7.68462 19.6768 6.46311 20.3553 8.49846 21.5668M23.0882 16.7284C26.942 22.6453 24.9759 26.4183 20.1321 27.649M12.4176 17.3253C13.1699 18.0276 14.2607 17.89 15.0199 17.3677C15.1668 15.9646 16.3022 16.0138 16.4968 17.4577C17.4145 17.4392 18.3737 17.3292 18.5537 17.9869C18.6583 18.6907 18.0652 19.1015 17.1714 18.9792C17.2129 20.3899 16.506 20.3422 14.913 20.2038C14.3884 20.4353 13.9099 20.5299 13.4291 20.6338M15.9914 14.0162C19.846 15.5277 23.3051 15.2108 25.3643 11.9654M14.2384 28.309C19.5244 38.8627 25.1582 14.3323 14.643 23.5445M25.0428 20.023C33.7196 14.6292 27.1028 30.0767 23.612 26.246M27.0158 9.74932H29.0389M28.0274 8.59088V10.8408M18.6067 11.9754C18.6067 12.5179 18.2224 12.9577 17.7483 12.9577C17.2742 12.9577 16.8899 12.5179 16.8899 11.9754C16.8899 11.4329 17.2742 10.9931 17.7483 10.9931C18.2224 10.9931 18.6067 11.4329 18.6067 11.9754ZM24.4236 10.5255C24.4236 11.0421 24.1033 11.4608 23.7082 11.4608C23.3131 11.4608 22.9928 11.0421 22.9928 10.5255C22.9928 10.0089 23.3131 9.59009 23.7082 9.59009C24.1033 9.59009 24.4236 10.0089 24.4236 10.5255Z" stroke="currentColor" stroke-opacity="0.85" stroke-linecap="round" stroke-linejoin="round" fill="none"/>
</svg>