<svg width="31" height="31" viewBox="0 0 31 31" fill="currentColor" xmlns="http://www.w3.org/2000/svg">
<path fill-rule="evenodd" clip-rule="evenodd" d="M1.86577 0.265625H29.4658C30.1295 0.265625 30.6658 0.801875 30.6658 1.46563V29.0656C30.6658 29.7294 30.1295 30.2656 29.4658 30.2656H1.86577C1.20202 30.2656 0.665771 29.7294 0.665771 29.0656V1.46563C0.665771 0.801875 1.20202 0.265625 1.86577 0.265625ZM20.1305 7.33936C19.2461 6.565 18.0891 6.08469 16.8575 5.91188C15.789 5.00669 14.7799 4.62112 13.8445 4.87683C13.0151 5.10356 12.4077 5.79378 11.9473 6.66122C11.0746 6.5236 10.3587 6.57782 9.78858 6.79755C9.12264 7.05421 8.69662 7.52185 8.47538 8.06975C8.25957 8.6042 8.24595 9.19281 8.34785 9.71641C8.41323 10.0524 8.52974 10.3802 8.68835 10.6681C8.39994 10.905 8.14956 11.1502 7.95047 11.4046C7.66692 11.7669 7.46822 12.1729 7.44033 12.6172C7.39389 13.3568 7.81777 13.9937 8.55976 14.5484C8.29185 14.8346 8.08829 15.2104 8.07156 15.6496C8.04649 16.3075 8.43769 16.8955 9.21933 17.3688C9.09711 17.4908 8.97181 17.6449 8.89708 17.8321C8.77957 18.1264 8.80916 18.443 8.99726 18.7361C9.12408 18.9337 9.31704 19.1126 9.56173 19.282C9.55105 19.3075 9.54027 19.3309 9.52947 19.3521C9.5249 19.3611 9.52052 19.3693 9.51634 19.3768C9.48169 19.3466 9.43561 19.3005 9.37874 19.2311C8.72348 18.349 7.98238 18.1537 7.47778 18.3394C7.36372 18.3814 7.26884 18.4635 7.21091 18.5703C6.51094 19.8611 7.1065 21.0332 7.82155 21.7888C8.18361 22.1714 8.60123 22.4801 8.97232 22.6957C9.15833 22.8037 9.33922 22.8922 9.50253 22.9556C9.5799 22.9857 9.6643 23.0145 9.75059 23.0359C10.5396 23.9091 11.2996 24.329 12.0311 24.5267C12.5758 24.674 13.12 24.6936 13.56 24.7094H13.56C13.7046 24.7146 13.838 24.7194 13.9564 24.7282C13.9872 24.7305 14.0176 24.7299 14.0473 24.7268C14.3347 25.1112 14.638 25.3946 14.9594 25.5742C15.556 25.9075 16.1568 25.8509 16.6664 25.5418C17.1441 25.252 17.5268 24.7537 17.8164 24.2079C17.9346 23.9852 18.0413 23.7471 18.1353 23.4997C18.829 23.3054 19.4538 23.0282 19.9778 22.6647C20.3202 22.9489 20.7158 23.074 21.1331 23.0361C21.6071 22.993 22.0422 22.7458 22.4087 22.4359C23.142 21.8156 23.7728 20.7989 24.129 19.8396C24.3085 19.3563 24.4288 18.8601 24.4487 18.4099C24.468 17.9733 24.3957 17.496 24.0919 17.1451C23.7619 16.7639 23.2708 16.6539 22.7327 16.7387C22.2935 16.8079 21.7798 17.0099 21.1853 17.3468C21.0099 16.9102 20.7847 16.4582 20.5091 15.992C20.542 15.9743 20.5747 15.9564 20.607 15.9385C21.2248 15.5953 21.7714 15.1919 22.1473 14.6967C22.5335 14.188 22.733 13.5889 22.6522 12.9019C22.6022 12.4766 22.4472 12.0377 22.1902 11.5818C22.2567 11.6145 22.3316 11.6329 22.4107 11.6329H22.5851V11.8606C22.5851 12.1367 22.8089 12.3606 23.0851 12.3606C23.3612 12.3606 23.5851 12.1367 23.5851 11.8606V11.6329H23.7594C24.0355 11.6329 24.2594 11.409 24.2594 11.1329C24.2594 10.8567 24.0355 10.6329 23.7594 10.6329H23.5851V10.3606C23.5851 10.0844 23.3612 9.86059 23.0851 9.86059C22.8089 9.86059 22.5851 10.0844 22.5851 10.3606V10.6329H22.4107C22.1346 10.6329 21.9107 10.8567 21.9107 11.1329L21.9107 11.1365C21.8617 11.0653 21.8103 10.9938 21.7565 10.9218C21.7473 9.42014 21.1166 8.20283 20.1305 7.33936ZM10.1482 7.73064C10.3609 7.64866 10.6323 7.59358 10.9739 7.58663C10.3415 8.1274 9.78533 8.79917 9.34735 9.60945C9.34092 9.58172 9.33494 9.55369 9.32943 9.52538C9.25534 9.14465 9.27524 8.75966 9.40263 8.44418C9.52459 8.14216 9.75144 7.88356 10.1482 7.73064ZM8.78204 13.4207C8.7389 12.9289 8.72467 12.4561 8.73548 12.0241C8.5326 12.2842 8.44959 12.5009 8.43836 12.6798C8.4263 12.872 8.49826 13.1218 8.78204 13.4207ZM9.34009 16.2183C9.25955 15.9721 9.18814 15.7232 9.12521 15.4739C9.09261 15.5458 9.07347 15.6183 9.07083 15.6877C9.06668 15.7967 9.10481 15.9885 9.34009 16.2183ZM9.78829 13.4427C9.68716 12.3954 9.73157 11.4797 9.84811 10.9175C10.9731 7.93793 13.7406 6.69038 16.2408 6.85325C17.4956 6.93499 18.6496 7.37182 19.4717 8.0917C20.2056 8.73433 20.6887 9.61225 20.75 10.7149C20.6036 10.6027 20.419 10.5267 20.2056 10.5267C19.8854 10.5267 19.6303 10.6977 19.4712 10.9056C19.3125 11.1131 19.2287 11.3781 19.2287 11.6503C19.2287 11.9225 19.3125 12.1875 19.4712 12.395C19.6303 12.603 19.8854 12.7739 20.2056 12.7739C20.3917 12.7739 20.5559 12.7161 20.6919 12.6269C20.1064 13.4124 19.3754 13.8379 18.5435 13.9914C17.5972 14.166 16.477 13.9956 15.2436 13.512C14.9865 13.4111 14.6964 13.5378 14.5956 13.7949C14.4948 14.052 14.6215 14.3421 14.8785 14.4429C16.2149 14.967 17.5326 15.1948 18.725 14.9748C19.8964 14.7586 20.9053 14.1171 21.656 12.9946L21.6591 13.0187C21.7064 13.4213 21.5983 13.7661 21.3508 14.0921C21.093 14.4318 20.6798 14.7541 20.1214 15.0643C19.9738 15.1463 19.8182 15.2263 19.6553 15.3046C19.6083 15.318 19.5625 15.3386 19.5194 15.3667L19.5088 15.3737C19.0973 15.5643 18.6435 15.7453 18.1593 15.9214C17.8998 16.0158 17.766 16.3027 17.8604 16.5622C17.9548 16.8217 18.2417 16.9555 18.5012 16.8611C18.8805 16.7231 19.2509 16.5791 19.604 16.4265C20.6476 18.1602 20.8252 19.4893 20.5072 20.4385C20.2324 21.2589 19.5466 21.9125 18.4712 22.3351C18.602 21.692 18.6503 21.0278 18.5835 20.4349C18.5174 19.8487 18.3301 19.2611 17.9205 18.865C17.4777 18.4367 16.8683 18.3188 16.1752 18.5093C15.508 18.6928 14.7325 19.1652 13.8326 19.9536C13.6249 20.1355 13.6041 20.4514 13.786 20.6591C13.968 20.8668 14.2839 20.8877 14.4916 20.7057C15.3442 19.9588 15.9849 19.5988 16.4403 19.4736C16.8699 19.3554 17.0896 19.4526 17.2254 19.5839C17.3944 19.7474 17.5353 20.0638 17.5897 20.5469C17.6428 21.0176 17.6057 21.5806 17.4879 22.1523C17.3703 22.7227 17.1767 23.2801 16.9331 23.7392C16.6849 24.2069 16.4081 24.5288 16.1477 24.6868C15.9191 24.8255 15.7031 24.8442 15.4472 24.7012C15.1495 24.5348 14.7622 24.1261 14.3394 23.2821C14.2158 23.0352 13.9154 22.9353 13.6685 23.059C13.4307 23.178 13.3293 23.4609 13.4325 23.7022C13.0499 23.6881 12.6948 23.6703 12.2921 23.5614C11.7351 23.4109 11.1023 23.0769 10.3868 22.2455C10.2941 22.1378 10.1599 22.0746 10.0178 22.0718C10.0192 22.0718 10.0197 22.0718 10.0193 22.0716C10.0189 22.0715 10.0178 22.0713 10.016 22.0709L10.016 22.0709C10.0033 22.0683 9.95485 22.0585 9.86443 22.0234C9.75828 21.9822 9.62449 21.9181 9.47461 21.831C9.17393 21.6563 8.83499 21.4049 8.5479 21.1015C8.03312 20.5575 7.75991 19.9458 7.9768 19.3044C8.11049 19.3516 8.32119 19.4821 8.58141 19.8347C8.58588 19.8408 8.59049 19.8467 8.59523 19.8526C8.77209 20.0709 8.97288 20.2554 9.20593 20.3525C9.46602 20.4609 9.74204 20.4482 9.98206 20.3061C10.1938 20.1808 10.3307 19.9824 10.4206 19.8059C10.514 19.6225 10.582 19.4125 10.6318 19.2018C10.7316 18.7798 10.7734 18.2912 10.7687 17.8558C10.7642 17.4386 10.7166 16.994 10.5896 16.6949L10.5897 16.6949L10.5875 16.6898C10.1403 15.6677 9.891 14.5064 9.78829 13.4427ZM21.0738 12.1693C21.1218 12.0622 21.1543 11.9469 21.1705 11.8281C21.2339 11.9258 21.2904 12.0201 21.3404 12.1111C21.248 12.1055 21.1555 12.1258 21.0738 12.1693ZM14.1082 5.84144C13.9069 5.89646 13.7077 6.01083 13.5122 6.19096C13.9792 6.04452 14.456 5.94478 14.9326 5.88996C14.6028 5.78108 14.3314 5.78042 14.1082 5.84144ZM21.0427 22.0402C20.9497 22.0486 20.8519 22.037 20.7477 21.9836C21.0594 21.6279 21.3003 21.2193 21.4554 20.7562C21.6989 20.0292 21.7155 19.2131 21.5003 18.3206C22.1258 17.9462 22.5786 17.7753 22.8884 17.7265C23.2073 17.6763 23.3023 17.7609 23.3359 17.7996C23.3956 17.8686 23.4642 18.0365 23.4497 18.3657C23.4357 18.6814 23.3474 19.0719 23.1916 19.4915C22.8772 20.3381 22.3303 21.1924 21.7629 21.6724C21.4789 21.9126 21.2327 22.0229 21.0427 22.0402ZM16.16 12.617C16.16 12.5535 16.1826 12.5076 16.2042 12.4829C16.2146 12.4709 16.2233 12.4656 16.2274 12.4636C16.2306 12.4621 16.2318 12.4621 16.2323 12.4621L16.2323 12.4621H16.2324C16.2329 12.4621 16.2341 12.4621 16.2373 12.4636C16.2414 12.4656 16.25 12.4709 16.2605 12.4829C16.2821 12.5076 16.3046 12.5535 16.3046 12.617C16.3046 12.6804 16.2821 12.7263 16.2605 12.751C16.25 12.763 16.2414 12.7683 16.2373 12.7703C16.2341 12.7719 16.2329 12.7718 16.2324 12.7718H16.2323C16.2319 12.7718 16.2308 12.772 16.2274 12.7703C16.2233 12.7683 16.2146 12.763 16.2042 12.751C16.1826 12.7263 16.16 12.6804 16.16 12.617ZM16.2323 11.4621C15.579 11.4621 15.16 12.0446 15.16 12.617C15.16 13.1894 15.579 13.7718 16.2323 13.7718C16.8857 13.7718 17.3046 13.1894 17.3046 12.617C17.3046 12.0446 16.8857 11.4621 16.2323 11.4621ZM14.6968 16.6237C14.8003 16.5525 14.8725 16.4455 14.9005 16.3245L14.9025 16.3386C14.9364 16.5904 15.1539 16.7768 15.4081 16.7717C15.4918 16.77 15.5695 16.7677 15.6419 16.7655L15.6425 16.7655C15.8711 16.7586 16.048 16.7534 16.1992 16.7744L16.219 16.7773C16.1641 16.7956 16.0669 16.8114 15.9155 16.7907C15.7699 16.7708 15.6228 16.816 15.5135 16.9142C15.4042 17.0125 15.3436 17.1539 15.348 17.3008C15.3538 17.4985 15.3307 17.5865 15.3179 17.6174C15.2843 17.6303 15.2043 17.6473 15.0326 17.6462C14.8635 17.645 14.6562 17.6279 14.3854 17.6044C14.3016 17.5971 14.2172 17.6111 14.1402 17.6451C13.8612 17.7682 13.607 17.823 13.2998 17.8891L13.2473 17.9004C12.9774 17.9587 12.8059 18.2248 12.8642 18.4947C12.9225 18.7647 13.1886 18.9362 13.4585 18.8779L13.5258 18.8634C13.7891 18.807 14.0929 18.7419 14.4217 18.6112C14.6374 18.6295 14.8433 18.6449 15.026 18.6461C15.2384 18.6475 15.4737 18.6314 15.688 18.5463C15.9276 18.4513 16.118 18.2792 16.2303 18.0267C16.2652 17.9483 16.2909 17.8659 16.3093 17.7806C16.5033 17.7502 16.6878 17.6831 16.8476 17.5695C17.1772 17.3354 17.3242 16.9575 17.2638 16.5511C17.2609 16.5314 17.2568 16.5118 17.2515 16.4926C17.1097 15.9743 16.6476 15.8271 16.3369 15.7839C16.1658 15.7601 15.9697 15.7576 15.7839 15.761C15.7375 15.6391 15.6785 15.5275 15.6065 15.4292C15.4544 15.2217 15.2197 15.0467 14.9204 15.0308C14.6117 15.0143 14.3569 15.1733 14.1932 15.3874C14.0826 15.5319 14.0068 15.7065 13.9605 15.8982C13.617 16.0626 13.2524 16.0353 13.0198 15.8181C12.8179 15.6296 12.5015 15.6405 12.3131 15.8424C12.1246 16.0442 12.1355 16.3606 12.3374 16.5491C13.0689 17.232 14.0721 17.0535 14.6968 16.6237ZM15.3179 17.6174C15.3175 17.6183 15.3171 17.6193 15.3167 17.6202C15.3153 17.6233 15.3267 17.6139 15.3191 17.6169C15.3187 17.617 15.3183 17.6172 15.3179 17.6174Z"/>
</svg>
