<svg width="18" height="18" viewBox="0 0 18 18" fill="none" xmlns="http://www.w3.org/2000/svg">
<path d="M16.5 9C16.5 13.14 13.14 16.5 9 16.5C4.86 16.5 2.3325 12.33 2.3325 12.33M2.3325 12.33H5.7225M2.3325 12.33V16.08M1.5 9C1.5 4.86 4.83 1.5 9 1.5C14.0025 1.5 16.5 5.67 16.5 5.67M16.5 5.67V1.92M16.5 5.67H13.17" stroke="currentColor" stroke-width="1.2" stroke-linecap="round" stroke-linejoin="round" fill="none"/>
<path d="M7.24985 10.3999C7.24985 11.1699 7.84985 11.7999 8.57985 11.7999H10.0798C10.7198 11.7999 11.2398 11.2499 11.2398 10.5799C11.2398 9.84994 10.9198 9.58994 10.4498 9.41994L8.04985 8.57994C7.56985 8.40994 7.24985 8.14994 7.24985 7.41994C7.24985 6.74994 7.76985 6.19994 8.40985 6.19994H9.90985C10.6498 6.20994 11.2498 6.82994 11.2498 7.59994" stroke="currentColor" stroke-linecap="round" stroke-linejoin="round" fill="none"/>
<path d="M9.24985 11.8501V12.5901" stroke="currentColor" stroke-linecap="round" stroke-linejoin="round"/>
<path d="M9.24985 5.4099L9.24985 6.19372" stroke="currentColor" stroke-linecap="round" stroke-linejoin="round"/>
</svg>
