<svg width="45" height="45" viewBox="0 0 45 45" fill="none" xmlns="http://www.w3.org/2000/svg">
<path d="M17.1875 34.3594C17.1875 37.7249 14.4593 40.4531 11.0938 40.4531C7.72825 40.4531 5 37.7249 5 34.3594C5 30.9939 7.72825 28.2656 11.0938 28.2656M17.1875 34.3594C17.1875 30.9939 14.4593 28.2656 11.0938 28.2656M17.1875 34.3594L28.7656 34.3594M11.0938 28.2656L11.0938 16.6875M34.8594 28.2656V16.6875M28.7656 10.5938H17.1875M28.7656 16.6875H40.9531V4.5H28.7656V16.6875ZM5 16.6875H17.1875V4.5H5V16.6875ZM28.7656 40.4531H40.9531V28.2656H28.7656V40.4531Z" stroke-opacity="0.45" stroke-width="3.04687" stroke-miterlimit="10" stroke-linecap="round" stroke-linejoin="round" fill="none"/>
</svg>
