<svg width="11" height="9" viewBox="0 0 11 9" fill="none" xmlns="http://www.w3.org/2000/svg">
<path d="M1.91308 3.51123H1.91326C1.99256 3.51133 2.07081 3.52939 2.14213 3.56405C2.21341 3.5987 2.27591 3.64903 2.32497 3.71127L1.91308 3.51123ZM1.91308 3.51123H1.09394C0.890308 3.51123 0.776602 3.74583 0.902321 3.90528L0.902371 3.90534L4.11214 7.97175L4.11218 7.9718C4.32247 8.23795 4.72568 8.23721 4.93667 7.97225L4.93708 7.97173L10.6597 0.720058C10.6598 0.719855 10.66 0.719653 10.6602 0.71945C10.7884 0.559023 10.6699 0.326074 10.4689 0.326074H9.6498C9.48941 0.326074 9.33668 0.399575 9.2376 0.526515C9.23751 0.526625 9.23742 0.526735 9.23734 0.526845L4.52403 6.49764M1.91308 3.51123L4.52403 6.49764M4.52403 6.49764L2.32506 3.71139L4.52403 6.49764Z" fill="white" stroke="white" stroke-width="0.3"/>
</svg>
