<svg width="40" height="22" viewBox="0 0 40 22" fill="none" xmlns="http://www.w3.org/2000/svg">
<path d="M30.2793 0.991189C26.8021 0.991189 23.5358 2.58265 20.8244 5.59394C20.5509 5.90599 20.2774 6.22585 20.0117 6.5613C19.8789 6.38967 19.7382 6.21804 19.5976 6.04642C19.5272 5.9606 19.4569 5.88259 19.3866 5.79678C19.3163 5.71096 19.2459 5.63295 19.1678 5.55494C19.0975 5.47692 19.0271 5.39891 18.949 5.3209C18.8787 5.24289 18.8005 5.16487 18.7302 5.08686C18.6599 5.00885 18.5817 4.93864 18.5114 4.86062C18.5036 4.84502 18.488 4.83722 18.4802 4.82942C18.4724 4.82162 18.4567 4.80601 18.4411 4.79821C17.7925 4.15851 17.1127 3.59682 16.4095 3.10533C14.3465 1.6933 12.1039 0.975586 9.73627 0.975586C4.36804 0.991188 0 5.48472 0 11.008C0 12.0456 0.15628 13.0442 0.437585 13.9881C0.687634 14.7995 1.02364 15.564 1.45341 16.2739C3.17249 19.1214 6.23559 21.0249 9.72846 21.0249C13.2057 21.0249 16.472 19.4334 19.1834 16.4143C19.4569 16.1023 19.7304 15.7824 19.9961 15.447C20.5274 16.1335 21.0979 16.7576 21.6839 17.3271C22.2934 17.9122 22.9342 18.4426 23.5984 18.8951C25.6534 20.3072 27.9039 21.0249 30.2715 21.0249C35.6398 21.0249 40 16.5313 40 11.0158C40.0078 5.48473 35.6476 0.991189 30.2793 0.991189ZM10.2911 16.2427C10.1895 16.2505 10.0957 16.2583 10.0098 16.2661C9.90818 16.2739 9.81441 16.2739 9.73627 16.2739C9.65032 16.2739 9.56437 16.2739 9.47841 16.2661C7.88435 16.1803 6.48564 15.2987 5.63391 13.9803C5.07912 13.13 4.75874 12.108 4.75874 11.0002C4.75874 8.09815 6.99355 5.73437 9.73627 5.73437C10.8381 5.73437 13.2995 6.07762 15.714 8.79247C15.7296 8.80807 15.7453 8.82367 15.7609 8.84708C15.8156 8.90949 15.8625 8.9641 15.9172 9.02651C15.9719 9.09672 16.0344 9.16693 16.0891 9.23714C16.136 9.29175 16.175 9.34636 16.2219 9.40097C16.4094 9.635 16.5892 9.88465 16.7767 10.1577C16.8705 10.2903 16.9564 10.4229 17.0502 10.5634C17.0893 10.6258 17.1283 10.6882 17.1674 10.7506C17.2143 10.8286 17.269 10.9066 17.3159 10.9924C14.7841 15.1895 11.8617 16.0945 10.2911 16.2427ZM30.2793 16.2739C29.1698 16.2739 26.6693 15.915 24.2157 13.091C24.0281 12.8725 23.8328 12.6385 23.6452 12.3889C23.5827 12.303 23.5202 12.225 23.4577 12.1392C23.4186 12.0846 23.3717 12.0222 23.3327 11.9676C23.3092 11.9286 23.2858 11.8896 23.2545 11.8506C23.0748 11.5853 22.8873 11.3045 22.7154 11.008C25.5753 6.26485 28.9431 5.74217 30.2872 5.74217C33.0299 5.74217 35.2647 8.10595 35.2647 11.008C35.2647 13.9101 33.0221 16.2739 30.2793 16.2739Z" fill="#10B346"/>
<path d="M13.7467 12.4504C13.1763 13.878 11.7776 14.8844 10.1444 14.8844C8.00339 14.8844 6.26868 13.1525 6.26868 11.0149C6.26868 8.87739 8.00339 7.14551 10.1444 7.14551C10.4804 7.14551 10.8164 7.19232 11.129 7.27033C10.5273 7.82422 10.1444 8.61215 10.1444 9.49369C10.1444 11.1632 11.4963 12.5128 13.1685 12.5128C13.3638 12.505 13.5592 12.4816 13.7467 12.4504Z" fill="#10B346"/>
<path d="M33.608 12.4504C33.0376 13.878 31.6389 14.8844 30.0058 14.8844C27.8647 14.8844 26.13 13.1525 26.13 11.0149C26.13 8.87739 27.8647 7.14551 30.0058 7.14551C30.3418 7.14551 30.6778 7.19232 30.9903 7.27033C30.3886 7.82422 30.0058 8.61215 30.0058 9.49369C30.0058 11.1632 31.3576 12.5128 33.0298 12.5128C33.233 12.505 33.4205 12.4816 33.608 12.4504Z" fill="#10B346"/>
</svg>
