<svg width="1em" height="1em" viewBox="0 0 20 20" fill="none" xmlns="http://www.w3.org/2000/svg">
<path d="M7.1875 14.1406H4.92188V11.875C4.92188 11.7891 4.85156 11.7187 4.76562 11.7187H3.82812C3.74219 11.7187 3.67188 11.7891 3.67188 11.875V14.1406H1.40625C1.32031 14.1406 1.25 14.2109 1.25 14.2969V15.2344C1.25 15.3203 1.32031 15.3906 1.40625 15.3906H3.67188V17.6562C3.67188 17.7422 3.74219 17.8125 3.82812 17.8125H4.76562C4.85156 17.8125 4.92188 17.7422 4.92188 17.6562V15.3906H7.1875C7.27344 15.3906 7.34375 15.3203 7.34375 15.2344V14.2969C7.34375 14.2109 7.27344 14.1406 7.1875 14.1406Z" fill="currentColor" fill-opacity="1"/>
<path d="M17.8125 5.9043L15.3125 7.34375V4.375C15.3125 3.68555 14.752 3.125 14.0625 3.125H2.5C1.81055 3.125 1.25 3.68555 1.25 4.375V11.25H2.65625V4.53125H13.9062V15.4687H8.75V16.875H14.0625C14.752 16.875 15.3125 16.3145 15.3125 15.625V12.6562L17.8125 14.0957C18.2285 14.3359 18.75 14.0352 18.75 13.5566V6.44531C18.75 5.96484 18.2285 5.66406 17.8125 5.9043ZM17.3438 12.207L15.3125 11.0391V8.96289L17.3438 7.79297V12.207Z" fill="currentColor" fill-opacity="1"/>
<path d="M6.25 7.03125C6.33594 7.03125 6.40625 6.96094 6.40625 6.875V5.9375C6.40625 5.85156 6.33594 5.78125 6.25 5.78125H4.0625C3.97656 5.78125 3.90625 5.85156 3.90625 5.9375V6.875C3.90625 6.96094 3.97656 7.03125 4.0625 7.03125H6.25Z" fill="currentColor" fill-opacity="1"/>
</svg>
