<svg width="1em" height="1em" viewBox="0 0 20 20" fill="none" xmlns="http://www.w3.org/2000/svg">
<path d="M9.00651 11.8783V13.5449C7.68043 13.5449 6.40866 14.0717 5.47098 15.0094C4.53329 15.9471 4.00651 17.2188 4.00651 18.5449H2.33984C2.33984 16.7768 3.04222 15.0811 4.29247 13.8309C5.54271 12.5806 7.2384 11.8783 9.00651 11.8783ZM9.00651 11.0449C6.24401 11.0449 4.00651 8.80742 4.00651 6.04492C4.00651 3.28242 6.24401 1.04492 9.00651 1.04492C11.769 1.04492 14.0065 3.28242 14.0065 6.04492C14.0065 8.80742 11.769 11.0449 9.00651 11.0449ZM9.00651 9.37825C10.8482 9.37825 12.3398 7.88659 12.3398 6.04492C12.3398 4.20326 10.8482 2.71159 9.00651 2.71159C7.16484 2.71159 5.67318 4.20326 5.67318 6.04492C5.67318 7.88659 7.16484 9.37825 9.00651 9.37825ZM11.169 15.8874C11.0632 15.4431 11.0632 14.9801 11.169 14.5358L10.3423 14.0583L11.1757 12.6149L12.0023 13.0924C12.3342 12.7783 12.7353 12.5465 13.1732 12.4158V11.4616H14.8398V12.4158C15.2832 12.5474 15.6832 12.7824 16.0107 13.0924L16.8373 12.6149L17.6707 14.0583L16.8448 14.5358C16.9507 14.9801 16.9507 15.4431 16.8448 15.8874L17.6707 16.3649L16.8373 17.8083L16.0107 17.3308C15.6788 17.6449 15.2777 17.8767 14.8398 18.0074V18.9616H13.1732V18.0074C12.7353 17.8767 12.3342 17.6449 12.0023 17.3308L11.1757 17.8083L10.3423 16.3649L11.169 15.8874ZM14.0065 16.4616C14.338 16.4616 14.656 16.3299 14.8904 16.0955C15.1248 15.8611 15.2565 15.5431 15.2565 15.2116C15.2565 14.8801 15.1248 14.5621 14.8904 14.3277C14.656 14.0933 14.338 13.9616 14.0065 13.9616C13.675 13.9616 13.357 14.0933 13.1226 14.3277C12.8882 14.5621 12.7565 14.8801 12.7565 15.2116C12.7565 15.5431 12.8882 15.8611 13.1226 16.0955C13.357 16.3299 13.675 16.4616 14.0065 16.4616Z" fill="currentColor" fill-opacity="1"/>
</svg>
