<svg width="20" height="20" viewBox="0 0 20 20" fill="none" xmlns="http://www.w3.org/2000/svg">
<path d="M12.5605 9.732L10.5 11.793V6.5C10.5 6.224 10.276 6 10 6C9.724 6 9.5 6.224 9.5 6.5V11.793L7.4395 9.7325C7.244 9.53699 6.9275 9.53699 6.7325 9.7325C6.53699 9.928 6.53699 10.2445 6.7325 10.4395L9.56099 13.268C9.68099 13.388 9.84499 13.425 10.0005 13.3975C10.1555 13.425 10.32 13.3875 10.44 13.268L13.2685 10.4395C13.464 10.244 13.464 9.9275 13.2685 9.7325C13.0725 9.53699 12.756 9.53699 12.5605 9.732ZM10 2C5.58201 2 2 5.58149 2 10C2 14.4185 5.58201 18 10 18C14.418 18 18 14.418 18 10C18 5.58201 14.4185 2 10 2ZM10 17C6.13399 17 3 13.866 3 10C3 6.13399 6.13399 3 10 3C13.866 3 17 6.13399 17 10C17 13.866 13.866 17 10 17Z" fill="currentColor" fill-opacity="1" />
</svg>
