<svg width="1em" height="1em" viewBox="0 0 20 20" fill="none" xmlns="http://www.w3.org/2000/svg">
<path d="M18.4239 15.6901L17.5263 15.0022C17.5431 14.8596 17.5599 14.7254 17.5599 14.5828C17.5599 14.4402 17.5515 14.306 17.5263 14.1634L18.4155 13.4755C18.4532 13.4432 18.4787 13.3989 18.4879 13.3501C18.497 13.3013 18.4892 13.2508 18.4658 13.2071L17.627 11.7558C17.5766 11.6468 17.4676 11.6468 17.3585 11.6468L16.3268 12.0662C16.1003 11.9152 15.8738 11.7726 15.6137 11.672L15.4543 10.5647C15.4491 10.5169 15.4266 10.4727 15.3911 10.4403C15.3556 10.4078 15.3095 10.3894 15.2614 10.3885H13.5837C13.5324 10.3876 13.4825 10.4047 13.4426 10.4369C13.4027 10.4691 13.3755 10.5144 13.3656 10.5647L13.2062 11.672C12.9546 11.781 12.7113 11.9152 12.4932 12.0662L11.453 11.6468C11.3607 11.6468 11.2517 11.6468 11.193 11.7558L10.3541 13.2071C10.3038 13.2993 10.3206 13.4084 10.4045 13.4755L11.2936 14.1634C11.2602 14.442 11.2602 14.7236 11.2936 15.0022L10.4045 15.6901C10.3668 15.7224 10.3412 15.7666 10.3321 15.8154C10.3229 15.8642 10.3307 15.9147 10.3541 15.9585L11.193 17.4097C11.2433 17.5188 11.3524 17.5188 11.453 17.5188L12.4932 17.0993C12.7113 17.2503 12.9462 17.3929 13.2062 17.4936L13.3656 18.6009C13.3824 18.7015 13.4663 18.777 13.5837 18.777H15.2614C15.3537 18.777 15.446 18.7015 15.4627 18.6009L15.6221 17.4936C15.8738 17.3845 16.1003 17.2503 16.3268 17.0993L17.3585 17.5188C17.4676 17.5188 17.5766 17.5188 17.6354 17.4097L18.4742 15.9585C18.4976 15.9147 18.5054 15.8642 18.4963 15.8154C18.4871 15.7666 18.4616 15.7224 18.4239 15.6901ZM14.4226 15.8411C13.7179 15.8411 13.1643 15.279 13.1643 14.5828C13.1643 13.8865 13.7263 13.3245 14.4226 13.3245C15.1188 13.3245 15.6808 13.8865 15.6808 14.5828C15.6808 15.279 15.1188 15.8411 14.4226 15.8411ZM14.1038 2.18455C13.9444 2.06711 13.7683 2 13.5837 2H1.83978C1.65523 2 1.47907 2.06711 1.31969 2.18455C1.14558 2.32174 1.03284 2.52227 1.00612 2.74233C0.979399 2.96238 1.04087 3.18406 1.17709 3.35894L5.19519 8.5011V12.796C5.16163 13.0393 5.24552 13.2993 5.43846 13.4923L8.66763 14.5828C8.66763 14.5828 8.66763 14.5828 8.66763 13.8638C8.66763 12.3287 9.15457 11.5713 10.2283 10.4724V8.5011L14.2464 3.35894C14.3826 3.18406 14.4441 2.96238 14.4174 2.74233C14.3906 2.52227 14.2779 2.32174 14.1038 2.18455ZM8.5506 7.91391V13.1447L6.87289 12.5528V7.92229L3.55104 3.6777H11.8724L8.5506 7.91391Z" fill="currentColor" fill-opacity="1"/>
</svg>
