<svg width="24" height="24" viewBox="0 0 24 24" fill="none" xmlns="http://www.w3.org/2000/svg">
<rect width="24" height="24" rx="12" fill="currentColor"/>
<g clip-path="url(#clip0_4535_9059)">
<path d="M6 12C6 8.6916 8.6916 6 12 6C13.3362 6 14.6009 6.42989 15.6574 7.2432L14.2631 9.0544C13.6098 8.55154 12.8273 8.28571 12 8.28571C9.95194 8.28571 8.28571 9.95194 8.28571 12C8.28571 14.0481 9.95194 15.7143 12 15.7143C13.6495 15.7143 15.0513 14.6335 15.5344 13.1429H12V10.8571H18V12C18 15.3084 15.3084 18 12 18C8.6916 18 6 15.3084 6 12Z" fill="white"/>
</g>
<defs>
<clipPath id="clip0_4535_9059">
<rect width="12" height="12" fill="white" transform="translate(6 6)"/>
</clipPath>
</defs>
</svg>
