<svg width="33" height="32" viewBox="0 0 33 32" fill="none" xmlns="http://www.w3.org/2000/svg">
<path d="M11.4903 0.877594C15.0596 -0.323845 18.9408 -0.290801 22.4883 0.971231C24.4365 1.68644 26.2215 2.77178 27.7409 4.16499C27.2247 4.70657 26.68 5.21271 26.1535 5.7391C25.152 6.71933 24.1514 7.69619 23.1517 8.66967C22.1551 7.73502 20.9495 7.04172 19.6311 6.64509C17.944 6.14564 16.1492 6.11144 14.4436 6.54625C12.738 6.98107 11.1875 7.86809 9.96226 9.11001C8.89274 10.1768 8.08277 11.4667 7.59281 12.8833L2.24219 8.82151C4.15739 5.09772 7.47343 2.2493 11.4903 0.877594Z" fill="#E33629"/>
<path d="M0.820049 12.8417C1.10743 11.4442 1.5849 10.0908 2.23965 8.81787L7.59027 12.8898C6.89051 14.9109 6.89051 17.1019 7.59027 19.1229C5.80759 20.4727 4.02405 21.8291 2.23965 23.1923C0.601044 19.9943 0.101297 16.3506 0.820049 12.8417Z" fill="#F8BD00"/>
<path d="M16.8263 13.0093H32.1891C32.7143 15.8359 32.5721 18.743 31.7735 21.5074C31.0385 24.0495 29.6107 26.347 27.6437 28.1531C25.917 26.832 24.1825 25.5211 22.4557 24.2001C23.3118 23.6339 24.0425 22.9041 24.604 22.0544C25.1655 21.2047 25.5462 20.2525 25.7234 19.2551H16.8263C16.8238 17.1748 16.8263 15.0921 16.8263 13.0093Z" fill="#587DBD"/>
<path d="M2.2373 23.1919C4.02171 21.8422 5.80525 20.4858 7.58793 19.1226C8.27761 21.1071 9.58932 22.8273 11.3357 24.0372C12.4248 24.7923 13.6625 25.3163 14.9699 25.5759C16.258 25.8108 17.5792 25.8108 18.8673 25.5759C20.1518 25.363 21.3765 24.8889 22.4628 24.184C24.1896 25.505 25.9241 26.8159 27.6508 28.137C25.7612 29.8217 23.4576 30.9964 20.9658 31.5458C18.2154 32.1798 15.3491 32.1494 12.6133 31.4573C10.4496 30.8908 8.42853 29.8923 6.6768 28.5242C4.82286 27.0807 3.30855 25.2619 2.2373 23.1919Z" fill="#319F43"/>
</svg>
