<svg width="1em" height="1em" viewBox="0 0 20 20" fill="none" xmlns="http://www.w3.org/2000/svg">
<path d="M17.9233 2.90674L17.0952 2.07861C17.0639 2.04736 17.0249 2.03369 16.9839 2.03369C16.9429 2.03369 16.9038 2.04932 16.8725 2.07861L15.3862 3.56494C14.7401 3.12715 13.9772 2.89374 13.1968 2.89502C12.1968 2.89502 11.1968 3.27588 10.4331 4.03955L8.44285 6.02979C8.41377 6.05915 8.39746 6.09881 8.39746 6.14014C8.39746 6.18146 8.41377 6.22112 8.44285 6.25049L13.7495 11.5571C13.7807 11.5884 13.8198 11.6021 13.8608 11.6021C13.8999 11.6021 13.9409 11.5864 13.9721 11.5571L15.9624 9.56689C17.3081 8.21924 17.4663 6.13525 16.437 4.61572L17.9233 3.12939C17.9839 3.06689 17.9839 2.96729 17.9233 2.90674ZM15.021 8.62744L13.8608 9.7876L10.2124 6.13916L11.3725 4.979C11.8589 4.49268 12.5073 4.22314 13.1968 4.22314C13.8862 4.22314 14.5327 4.49072 15.021 4.979C15.5073 5.46533 15.7768 6.11377 15.7768 6.80322C15.7768 7.49268 15.5073 8.13916 15.021 8.62744ZM11.3061 10.6782C11.2768 10.6491 11.2371 10.6328 11.1958 10.6328C11.1545 10.6328 11.1148 10.6491 11.0854 10.6782L9.78465 11.979L8.02098 10.2153L9.32371 8.9126C9.38426 8.85205 9.38426 8.75244 9.32371 8.69189L8.61277 7.98096C8.58341 7.95188 8.54375 7.93557 8.50242 7.93557C8.46109 7.93557 8.42144 7.95188 8.39207 7.98096L7.08934 9.28369L6.24949 8.44385C6.23491 8.42926 6.21754 8.41776 6.19841 8.41004C6.17928 8.40232 6.15879 8.39854 6.13816 8.39893C6.0991 8.39893 6.05809 8.41455 6.02684 8.44385L4.03855 10.4341C2.69285 11.7817 2.53465 13.8657 3.56395 15.3853L2.07762 16.8716C2.04854 16.9009 2.03223 16.9406 2.03223 16.9819C2.03223 17.0233 2.04854 17.0629 2.07762 17.0923L2.90574 17.9204C2.93699 17.9517 2.97605 17.9653 3.01707 17.9653C3.05809 17.9653 3.09715 17.9497 3.1284 17.9204L4.61473 16.4341C5.27293 16.8813 6.03855 17.104 6.80418 17.104C7.80418 17.104 8.80418 16.7231 9.56785 15.9595L11.5581 13.9692C11.6186 13.9087 11.6186 13.8091 11.5581 13.7485L10.7182 12.9087L12.021 11.606C12.0815 11.5454 12.0815 11.4458 12.021 11.3853L11.3061 10.6782ZM8.62645 15.022C8.3874 15.2622 8.10311 15.4528 7.78999 15.5825C7.47688 15.7122 7.14115 15.7786 6.80223 15.7778C6.11277 15.7778 5.46629 15.5103 4.97801 15.022C4.73774 14.7829 4.54723 14.4986 4.41749 14.1855C4.28775 13.8724 4.22136 13.5367 4.22215 13.1978C4.22215 12.5083 4.48973 11.8618 4.97801 11.3735L6.13816 10.2134L9.7866 13.8618L8.62645 15.022Z" fill="currentColor" fill-opacity="1"/>
</svg>
