<svg width="20" height="20" viewBox="0 0 20 20" fill="none" xmlns="http://www.w3.org/2000/svg">
<path d="M17.6334 10.6412V5.36682C17.6334 3.88331 17.4304 3.23566 17.0973 2.90295C16.7636 2.56984 16.1129 2.36682 14.6246 2.36682H5.36682C3.88305 2.36682 3.23471 2.56925 2.90198 2.90198C2.56925 3.23471 2.36682 3.88305 2.36682 5.36682V10.65C2.36683 12.1341 2.56985 12.7814 2.90198 13.1129C3.23395 13.4441 3.88121 13.6454 5.36487 13.6412H14.6334C16.1183 13.6412 16.7659 13.4407 17.0983 13.109C17.4303 12.7776 17.6334 12.1298 17.6334 10.6412ZM19.0328 10.6412C19.0328 12.1191 18.8656 13.3223 18.0875 14.0992C17.3095 14.8758 16.1066 15.0416 14.6334 15.0416H5.36682V15.0406C3.89328 15.0447 2.6909 14.8807 1.91272 14.1041C1.13445 13.3273 0.966436 12.1242 0.966431 10.65V5.36682C0.966431 3.89226 1.13503 2.69041 1.91272 1.91272C2.69041 1.13503 3.89226 0.966431 5.36682 0.966431H14.6246C16.103 0.966431 17.3078 1.13444 18.0865 1.91174C18.8656 2.68953 19.0328 3.89243 19.0328 5.36682V10.6412Z" fill="currentColor" fill-opacity="1" />
<path d="M9.2998 18.3334V14.35C9.2998 13.9634 9.6134 13.6498 10 13.6498C10.3866 13.6498 10.7002 13.9634 10.7002 14.35V18.3334C10.7002 18.7199 10.3866 19.0336 10 19.0336C9.61342 19.0336 9.29984 18.7199 9.2998 18.3334Z" fill="currentColor" fill-opacity="1" />
<path d="M18.3336 10.1332C18.7201 10.1334 19.0328 10.4469 19.0328 10.8334C19.0328 11.2199 18.7201 11.5334 18.3336 11.5336H1.66663C1.28003 11.5336 0.966431 11.22 0.966431 10.8334C0.966431 10.4468 1.28003 10.1332 1.66663 10.1332H18.3336Z" fill="currentColor" fill-opacity="1" />
<path d="M13.75 17.6332C14.1366 17.6332 14.4502 17.9468 14.4502 18.3334C14.4502 18.72 14.1366 19.0336 13.75 19.0336H6.25C5.8634 19.0336 5.5498 18.72 5.5498 18.3334C5.5498 17.9468 5.8634 17.6332 6.25 17.6332H13.75Z" fill="currentColor" fill-opacity="1" />
</svg>
