<svg width="24" height="24" viewBox="0 0 24 24" fill="none" xmlns="http://www.w3.org/2000/svg">
<rect width="24" height="24" rx="12" fill="currentColor"/>
<g clip-path="url(#clip0_4536_9074)">
<path d="M17.2574 9.00916C16.5725 9.00916 15.9406 8.78228 15.4332 8.39955C14.8513 7.9608 14.4331 7.3172 14.2855 6.57541C14.2484 6.38889 14.229 6.19931 14.2274 6.00916H12.271V11.3548L12.2687 14.2828C12.2687 15.0656 11.7589 15.7294 11.0523 15.9628C10.8406 16.0328 10.6177 16.0624 10.3951 16.05C10.1007 16.0338 9.82486 15.945 9.58509 15.8016C9.07486 15.4964 8.72892 14.9428 8.71955 14.3095C8.70478 13.3198 9.50494 12.5128 10.494 12.5128C10.6892 12.5128 10.8767 12.5447 11.0523 12.6026V10.6163C10.8671 10.5888 10.6787 10.5745 10.4881 10.5745C9.40556 10.5745 8.39306 11.0245 7.66931 11.8352C7.12228 12.4479 6.79416 13.2295 6.74353 14.0492C6.6772 15.1259 7.07119 16.1494 7.83525 16.9045C7.94751 17.0154 8.06541 17.1183 8.18869 17.2132C8.84376 17.7174 9.64462 17.9906 10.4881 17.9906C10.6787 17.9906 10.8671 17.9766 11.0523 17.9492C11.8402 17.8324 12.5673 17.4717 13.141 16.9045C13.846 16.2077 14.2356 15.2827 14.2398 14.2981L14.2297 9.92556C14.5668 10.1856 14.9361 10.401 15.3285 10.5663C15.9423 10.8253 16.5931 10.9566 17.263 10.9563V9.00869C17.2635 9.00916 17.2578 9.00916 17.2574 9.00916Z" fill="white"/>
</g>
<defs>
<clipPath id="clip0_4536_9074">
<rect width="12" height="12" fill="white" transform="translate(6 6)"/>
</clipPath>
</defs>
</svg>
