<svg width="33" height="32" viewBox="0 0 33 32" fill="none" xmlns="http://www.w3.org/2000/svg">
<rect x="0.5" width="32" height="32" rx="16" fill="#F5F5F5"/>
<path d="M20.5781 8.08984H12.4219C11.8014 8.08984 11.2969 8.59434 11.2969 9.21484V22.7148C11.2969 23.3354 11.8014 23.8398 12.4219 23.8398H20.5781C21.1986 23.8398 21.7031 23.3354 21.7031 22.7148V9.21484C21.7031 8.59434 21.1986 8.08984 20.5781 8.08984ZM20.4375 22.5742H12.5625V9.35547H20.4375V22.5742ZM15.7969 20.7812C15.7969 20.9677 15.871 21.1466 16.0028 21.2784C16.1347 21.4103 16.3135 21.4844 16.5 21.4844C16.6865 21.4844 16.8653 21.4103 16.9972 21.2784C17.129 21.1466 17.2031 20.9677 17.2031 20.7812C17.2031 20.5948 17.129 20.4159 16.9972 20.2841C16.8653 20.1522 16.6865 20.0781 16.5 20.0781C16.3135 20.0781 16.1347 20.1522 16.0028 20.2841C15.871 20.4159 15.7969 20.5948 15.7969 20.7812Z" fill="#404040"/>
</svg>
