<svg width="24" height="24" viewBox="0 0 24 24" fill="none" xmlns="http://www.w3.org/2000/svg">
<path d="M9.5 13.7502C9.5 14.7202 10.25 15.5002 11.17 15.5002H13.05C13.85 15.5002 14.5 14.8202 14.5 13.9702C14.5 13.0602 14.1 12.7302 13.51 12.5202L10.5 11.4702C9.91 11.2602 9.51001 10.9402 9.51001 10.0202C9.51001 9.18023 10.16 8.49023 10.96 8.49023H12.84C13.76 8.49023 14.51 9.27023 14.51 10.2402" stroke="currentColor" stroke-width="1.5" stroke-linecap="round" stroke-linejoin="round" fill="none"/>
<path d="M12 7.5V16.5" stroke="currentColor" stroke-width="1.5" stroke-linecap="round" stroke-linejoin="round" fill="none"/>
<path d="M21.9612 12.8804C21.4753 18.3789 16.6183 22.4472 11.1197 21.9613C5.62118 21.4754 1.55292 16.6184 2.03882 11.1199C2.52472 5.6213 7.38168 1.55304 12.8802 2.03894" stroke="currentColor" stroke-width="1.5" stroke-linecap="round" stroke-linejoin="round" fill="none"/>
<path d="M16.6715 5.20703L19.4999 8.03546L22.3284 5.20703" stroke="currentColor" stroke-width="1.5" stroke-linecap="round" stroke-linejoin="round" fill="none"/>
<path d="M19.5 0.964466V8.03553" stroke="currentColor" stroke-width="1.5" stroke-linecap="round" stroke-linejoin="round" fill="none"/>
</svg>
