<svg width="1em" height="1em" viewBox="0 0 20 20" fill="none" xmlns="http://www.w3.org/2000/svg">
<path d="M12.7182 7.15676C12.4577 6.89631 12.1044 6.75 11.736 6.75C11.3677 6.75 11.0143 6.89631 10.7538 7.15676L10.5385 7.37163L11.1933 8.02644L11.4086 7.81156C11.496 7.72721 11.6129 7.68053 11.7344 7.68159C11.8558 7.68264 11.9719 7.73134 12.0578 7.8172C12.1437 7.90306 12.1924 8.01921 12.1934 8.14063C12.1945 8.26205 12.1478 8.37903 12.0634 8.46637L10.5385 9.99132L11.1933 10.6461L12.7182 9.12117C12.9787 8.86065 13.125 8.50735 13.125 8.13897C13.125 7.77058 12.9787 7.41728 12.7182 7.15676ZM8.35874 12.1711C8.2714 12.2554 8.15442 12.3021 8.033 12.301C7.91158 12.3 7.79543 12.2513 7.70957 12.1654C7.62371 12.0796 7.57501 11.9634 7.57395 11.842C7.5729 11.7206 7.61958 11.6036 7.70393 11.5163L9.22888 9.99132L8.57407 9.33651L7.04913 10.8615C6.91644 10.9896 6.8106 11.1429 6.73779 11.3124C6.66498 11.4819 6.62666 11.6642 6.62505 11.8487C6.62345 12.0331 6.6586 12.2161 6.72845 12.3868C6.79831 12.5575 6.90146 12.7127 7.03191 12.8431C7.16235 12.9735 7.31746 13.0767 7.4882 13.1465C7.65893 13.2164 7.84187 13.2515 8.02633 13.2499C8.2108 13.2483 8.3931 13.21 8.56259 13.1372C8.73209 13.0644 8.88539 12.9586 9.01354 12.8259L9.22888 12.611L8.57407 11.9562L8.35874 12.1711ZM9.01354 7.15722C8.75046 6.91029 8.40163 6.77539 8.04086 6.78108C7.68009 6.78677 7.33569 6.93259 7.08052 7.1877C6.82536 7.4428 6.67945 7.78717 6.67368 8.14794C6.66791 8.50871 6.80272 8.85757 7.04959 9.12071L7.26446 9.33605L7.91927 8.68124L7.70439 8.46591C7.62004 8.37857 7.57336 8.26159 7.57442 8.14017C7.57547 8.01875 7.62418 7.9026 7.71004 7.81674C7.7959 7.73088 7.91204 7.68218 8.03346 7.68112C8.15488 7.68007 8.27186 7.72674 8.3592 7.8111L9.88368 9.33651L10.5385 8.6817L9.01354 7.15722Z" fill="currentColor" fill-opacity="1"/>
<path d="M12.7193 10.8623L12.5044 10.6469L11.8496 11.3017L12.0645 11.5171C12.1488 11.6044 12.1955 11.7214 12.1945 11.8428C12.1934 11.9642 12.1447 12.0804 12.0588 12.1662C11.973 12.2521 11.8568 12.3008 11.7354 12.3019C11.614 12.3029 11.497 12.2562 11.4097 12.1719L9.88473 10.6469L9.22992 11.3017L10.7549 12.8267C11.0169 13.0798 11.3678 13.2198 11.7321 13.2166C12.0963 13.2134 12.4448 13.0673 12.7024 12.8098C12.9599 12.5522 13.106 12.2037 13.1092 11.8395C13.1124 11.4752 12.9723 11.1243 12.7193 10.8623Z" fill="currentColor" fill-opacity="1"/>
<path d="M17.475 5.16646L10.6 1.40474C10.4163 1.30324 10.2099 1.25 10 1.25C9.79013 1.25 9.58369 1.30324 9.4 1.40474L2.525 5.16802C2.32866 5.27544 2.16477 5.43361 2.05043 5.62601C1.93609 5.8184 1.87551 6.03797 1.875 6.26177V13.7336C1.87551 13.9574 1.93609 14.177 2.05043 14.3694C2.16477 14.5618 2.32866 14.72 2.525 14.8274L9.4 18.5907C9.58369 18.6922 9.79013 18.7454 10 18.7454C10.2099 18.7454 10.4163 18.6922 10.6 18.5907L17.475 14.8274C17.6713 14.72 17.8352 14.5618 17.9496 14.3694C18.0639 14.177 18.1245 13.9574 18.125 13.7336V6.26255C18.1249 6.03835 18.0645 5.8183 17.9502 5.62545C17.8358 5.43261 17.6717 5.27407 17.475 5.16646ZM16.875 13.7344L10 17.4985L3.125 13.7344V6.26255L10 2.49849L16.875 6.26177V13.7344Z" fill="currentColor" fill-opacity="1"/>
</svg>
