<svg xmlns="http://www.w3.org/2000/svg" width="1em" height="1em" viewBox="0 0 20 20" fill="currentColor">
<path fill-rule="evenodd" clip-rule="evenodd" d="M10.3324 19.2011C10.2316 19.2563 10.1169 19.2854 10.0001 19.2853C9.88338 19.2854 9.76871 19.2563 9.66783 19.2011L1.75574 14.8678C1.6562 14.8133 1.57362 14.7352 1.51624 14.6413C1.47582 14.5752 1.4489 14.5029 1.43652 14.4282C1.43353 14.41 1.43138 14.3918 1.43011 14.3734C1.42917 14.36 1.42871 14.3465 1.42871 14.333V9.38063V5.66638C1.42868 5.55817 1.45885 5.45184 1.51624 5.358C1.57362 5.26415 1.6562 5.18607 1.75574 5.13153L9.66783 0.79824C9.76869 0.742984 9.88337 0.713867 10.0001 0.713867C10.1169 0.713867 10.2316 0.742984 10.3324 0.79824L18.2445 5.13153C18.3441 5.18607 18.4267 5.26415 18.484 5.358C18.5414 5.45184 18.5716 5.55817 18.5716 5.66638V9.38063V14.333C18.5716 14.4412 18.5414 14.5475 18.484 14.6413C18.4267 14.7352 18.3441 14.8133 18.2445 14.8678L10.3324 19.2011ZM17.2529 9.38063L17.2529 6.02212L10.0001 2.04994L2.74739 6.02213L2.74739 13.9776L10.0001 17.95L17.2529 13.9776L17.2529 9.38063Z" fill="currentColor" fill-opacity="0.85"/>
<path d="M13.938 6.26284C13.5864 5.91133 13.1096 5.71387 12.6124 5.71387C12.1152 5.71387 11.6384 5.91133 11.2868 6.26284L10.9961 6.55284L11.8799 7.43659L12.1705 7.14659C12.2884 7.03274 12.4463 6.96975 12.6101 6.97117C12.774 6.97259 12.9308 7.03833 13.0467 7.15421C13.1625 7.27009 13.2283 7.42684 13.2297 7.59072C13.2311 7.75459 13.1681 7.91247 13.0543 8.03034L10.9961 10.0885L11.8799 10.9722L13.938 8.91409C14.2895 8.56248 14.487 8.08565 14.487 7.58847C14.487 7.09128 14.2895 6.61446 13.938 6.26284ZM8.05427 13.0303C7.93639 13.1442 7.77852 13.2072 7.61465 13.2058C7.45077 13.2043 7.29401 13.1386 7.17813 13.0227C7.06225 12.9068 6.99652 12.7501 6.9951 12.5862C6.99368 12.4223 7.05667 12.2645 7.17052 12.1466L9.22865 10.0885L8.3449 9.20472L6.28677 11.2628C6.10769 11.4358 5.96485 11.6427 5.86658 11.8715C5.76831 12.1002 5.71659 12.3463 5.71443 12.5952C5.71226 12.8442 5.7597 13.0911 5.85398 13.3215C5.94826 13.5519 6.08748 13.7613 6.26353 13.9373C6.43958 14.1134 6.64893 14.2526 6.87936 14.3469C7.10979 14.4412 7.35669 14.4886 7.60565 14.4864C7.85461 14.4843 8.10065 14.4325 8.3294 14.3343C8.55816 14.236 8.76506 14.0932 8.93802 13.9141L9.22865 13.6241L8.3449 12.7403L8.05427 13.0303ZM8.93802 6.26347C8.58296 5.9302 8.11216 5.74814 7.62526 5.75582C7.13835 5.76349 6.67353 5.9603 6.32915 6.3046C5.98477 6.6489 5.78785 7.11367 5.78006 7.60058C5.77226 8.08749 5.95421 8.55833 6.2874 8.91347L6.5774 9.20409L7.46115 8.32034L7.17115 8.02972C7.0573 7.91184 6.9943 7.75396 6.99572 7.59009C6.99715 7.42622 7.06288 7.26946 7.17876 7.15358C7.29464 7.0377 7.4514 6.97197 7.61527 6.97055C7.77914 6.96912 7.93702 7.03212 8.0549 7.14597L10.1124 9.20472L10.9961 8.32097L8.93802 6.26347Z" fill="currentColor" fill-opacity="0.85"/>
<path d="M13.9394 11.2643L13.6494 10.9736L12.7656 11.8574L13.0556 12.148C13.1695 12.2659 13.2325 12.4238 13.231 12.5876C13.2296 12.7515 13.1639 12.9083 13.048 13.0241C12.9321 13.14 12.7754 13.2058 12.6115 13.2072C12.4476 13.2086 12.2897 13.1456 12.1719 13.0318L10.1137 10.9736L9.22998 11.8574L11.2881 13.9155C11.6417 14.2571 12.1154 14.446 12.607 14.4418C13.0986 14.4375 13.5689 14.2403 13.9165 13.8927C14.2642 13.545 14.4613 13.0748 14.4656 12.5831C14.4699 12.0915 14.2809 11.6179 13.9394 11.2643Z" fill="currentColor" fill-opacity="0.85"/>
</svg>