<svg xmlns="http://www.w3.org/2000/svg" width="1em" height="1em" viewBox="0 0 17 16" fill="currentColor">
<path d="M13.8496 14.25H2.34961C2.07305 14.25 1.84961 14.0266 1.84961 13.75V2.25C1.84961 1.97344 2.07305 1.75 2.34961 1.75H7.97461C8.04336 1.75 8.09961 1.80625 8.09961 1.875V2.75C8.09961 2.81875 8.04336 2.875 7.97461 2.875H2.97461V13.125H13.2246V8.125C13.2246 8.05625 13.2809 8 13.3496 8H14.2246C14.2934 8 14.3496 8.05625 14.3496 8.125V13.75C14.3496 14.0266 14.1262 14.25 13.8496 14.25Z" fill="currentColor" fill-opacity="0.88"/>
<path d="M12.137 3.35713L11.3214 2.5415C11.3049 2.5249 11.2934 2.50399 11.2881 2.48116C11.2829 2.45832 11.2842 2.43448 11.2918 2.41234C11.2995 2.3902 11.3132 2.37065 11.3314 2.35592C11.3496 2.34119 11.3716 2.33186 11.3948 2.329L14.198 2.00088C14.2777 1.9915 14.3464 2.05869 14.337 2.13994L14.0089 4.94306C13.9964 5.04619 13.8698 5.08994 13.7964 5.0165L12.9777 4.19775L8.97453 8.20088C8.92609 8.24931 8.84641 8.24931 8.79797 8.20088L8.13547 7.53838C8.08703 7.48994 8.08703 7.41025 8.13547 7.36181L12.137 3.35713Z" fill="currentColor" />
</svg>