<svg width="1em" height="1em" viewBox="0 0 20 20" fill="none" xmlns="http://www.w3.org/2000/svg">
<path d="M5.46875 5.3125H7.03125C7.11719 5.3125 7.1875 5.38281 7.1875 5.46875V14.5312C7.1875 14.6172 7.11719 14.6875 7.03125 14.6875H5.46875C5.38281 14.6875 5.3125 14.6172 5.3125 14.5312V5.46875C5.3125 5.38281 5.38281 5.3125 5.46875 5.3125ZM9.21875 10.7812H10.7812C10.8672 10.7812 10.9375 10.8516 10.9375 10.9375V14.5312C10.9375 14.6172 10.8672 14.6875 10.7812 14.6875H9.21875C9.13281 14.6875 9.0625 14.6172 9.0625 14.5312V10.9375C9.0625 10.8516 9.13281 10.7812 9.21875 10.7812ZM12.9688 9.375H14.5312C14.6172 9.375 14.6875 9.44531 14.6875 9.53125V14.5312C14.6875 14.6172 14.6172 14.6875 14.5312 14.6875H12.9688C12.8828 14.6875 12.8125 14.6172 12.8125 14.5312V9.53125C12.8125 9.44531 12.8828 9.375 12.9688 9.375ZM17.1875 17.8125H2.8125C2.4668 17.8125 2.1875 17.5332 2.1875 17.1875V2.8125C2.1875 2.4668 2.4668 2.1875 2.8125 2.1875H17.1875C17.5332 2.1875 17.8125 2.4668 17.8125 2.8125V17.1875C17.8125 17.5332 17.5332 17.8125 17.1875 17.8125ZM16.4062 3.59375H3.59375V16.4062H16.4062V3.59375Z" fill="currentColor" fill-opacity="1"/>
</svg>
