<svg width="32" height="32" viewBox="0 0 32 32" fill="none" xmlns="http://www.w3.org/2000/svg">
<g clip-path="url(#clip0_660_1230)">
<path d="M1.78327 11.8242C9.21911 11.2993 9.99298 21.0366 13.7614 21.0366C18.5661 21.0366 20.208 12.2279 24.1244 12.2279C27.193 12.2279 27.6169 16.6356 30.6249 14.4688C30.6249 14.4688 30.8201 14.3208 30.9479 14.4755C31.096 14.6438 30.8806 14.8322 30.8806 14.8322C27.5496 17.1201 26.8902 12.874 24.1177 12.874C20.706 12.874 18.9227 22.1267 13.7681 22.1267C8.79517 22.12 8.17608 12.201 1.29877 12.3895L1.78327 11.8242Z" fill="#3966B0"/>
<path d="M13.149 22.0664C13.3441 22.1 13.5527 22.1202 13.7681 22.1202C14.1584 22.1202 14.5285 22.0664 14.8851 21.9654C14.5689 21.9318 14.2862 21.3732 14.2122 21.0099C14.0642 21.03 13.9161 21.0368 13.7613 21.0368C13.4585 21.0368 13.1826 20.9762 12.9135 20.8618C13.149 21.131 13.3912 21.8376 13.149 22.0664Z" fill="#1CB0E7"/>
<path d="M1.29879 11.8243C14.5689 7.69926 12.5165 24.186 16.6819 24.186C20.9146 24.186 18.8487 7.94824 24.0101 7.94824C28.0813 7.94824 26.6749 16.4002 30.672 14.4353C30.9076 14.3141 31.2037 14.6506 30.6317 14.9332C26.1432 17.0328 26.5806 9.27391 24.0033 9.27391C20.6051 9.27391 21.6212 24.8252 16.6752 24.8252C11.6619 24.8252 13.7412 10.8418 1.50067 12.3559C1.15075 12.4367 1.05654 12.3223 1.02289 12.1877C0.995972 12.0464 1.02962 11.9185 1.29879 11.8243Z" fill="#4AA447"/>
<path d="M2.30815 11.5485C1.98514 11.6292 1.64868 11.7234 1.29876 11.8311C1.02959 11.9253 0.98921 12.0532 1.02286 12.1878C1.0565 12.3224 1.15071 12.4435 1.50736 12.3627C13.7479 10.8486 11.6686 24.8321 16.6819 24.8321C11.783 24.8321 13.6604 10.7544 2.30815 11.5485Z" fill="url(#paint0_linear_660_1230)"/>
<path d="M15.8475 23.9235C12.9875 22.0057 13.472 10.1554 4.01068 11.2321C13.3576 10.3236 12.9135 22.1739 15.8475 23.9235Z" fill="url(#paint1_linear_660_1230)"/>
<path d="M13.0951 20.9289C10.4842 20.0743 9.25273 14.2938 5.16134 12.4029C4.11157 12.2212 2.9003 12.1876 1.50734 12.3625C1.44005 12.376 1.38622 12.3827 1.33911 12.3827C2.05241 12.3693 2.69842 12.4635 3.2906 12.6452C9.23254 11.878 9.96603 21.3528 13.5662 21.9854C13.4114 21.6557 13.2566 21.299 13.0951 20.9289Z" fill="#2060AD"/>
<path d="M21.0155 11.2526C19.5216 15.9967 19.6898 24.1863 16.6818 24.1863C13.7277 24.1863 13.9026 15.9025 9.52188 12.5513C9.46805 12.511 9.40749 12.4639 9.34692 12.4235C14.1449 16.1919 13.1422 24.6977 16.7222 24.6977C20.282 24.6977 19.6696 15.492 21.0693 11.0776C21.0491 11.1315 21.0357 11.192 21.0155 11.2526Z" fill="#249A48"/>
<path d="M23.9629 8.23779C21.7961 8.23779 21.6144 13.2578 20.9213 17.0666C20.9213 17.0531 20.928 17.0397 20.928 17.0195C21.7153 13.1434 22.3075 9.2741 24.0033 9.2741C26.3989 9.2741 26.1903 16.0707 29.7501 15.243C29.777 15.2362 29.8039 15.2295 29.8308 15.2228C30.1336 14.8796 30.3153 14.6642 30.3153 14.6642C25.7461 16.7099 26.9305 8.23779 23.9629 8.23779Z" fill="#199648"/>
<path d="M30.8941 14.7515C30.847 14.5362 30.7595 14.3949 30.672 14.4352C30.6518 14.4487 30.6249 14.4554 30.6047 14.4689C28.8551 15.6734 27.6304 14.8592 26.9036 13.769C27.6438 15.014 28.6667 15.8618 30.6384 14.9332C30.7595 14.8794 30.8402 14.8121 30.8941 14.7515Z" fill="#DAA300"/>
<path d="M30.9479 14.4756C30.8134 14.3208 30.6249 14.4689 30.6249 14.4689C27.617 16.6357 27.193 12.228 24.1245 12.228C21.7288 12.228 20.1878 15.5254 18.2498 18.0825V19.4014C20.4166 16.6693 21.9375 12.8673 24.1245 12.8673C26.8969 12.8673 27.5564 17.1135 30.8874 14.8255C30.8806 14.8255 31.096 14.6438 30.9479 14.4756Z" fill="#3966B0"/>
<path d="M14.5083 21.9587C16.7424 21.4607 18.3709 18.0423 20.1003 15.4448C20.1003 15.4313 20.1071 15.4246 20.1071 15.4111C18.4247 17.8202 16.7626 20.7542 14.1315 21.0166C14.2526 21.3463 14.3805 21.6626 14.5083 21.9587Z" fill="#2060AD"/>
<path d="M20.5916 15.9693C21.7154 14.2668 22.7988 12.8739 24.1245 12.8739C26.7691 12.8739 27.4891 16.797 30.4433 15.108C27.4285 16.8172 26.399 12.3086 24.212 12.3086C23.1757 12.3086 22.1259 13.466 20.5916 15.9693Z" fill="#1456A5"/>
</g>
<defs>
<linearGradient id="paint0_linear_660_1230" x1="-4.43458" y1="18.1732" x2="11.2317" y2="18.1732" gradientUnits="userSpaceOnUse">
<stop stop-color="#018845"/>
<stop offset="0.5012" stop-color="#1D9848"/>
<stop offset="1" stop-color="#5AAE47"/>
</linearGradient>
<linearGradient id="paint1_linear_660_1230" x1="11.9117" y1="14.4797" x2="8.88355" y2="19.2127" gradientUnits="userSpaceOnUse">
<stop stop-color="white"/>
<stop offset="1" stop-color="#FFC435" stop-opacity="0"/>
</linearGradient>
<clipPath id="clip0_660_1230">
<rect width="32" height="32" fill="white"/>
</clipPath>
</defs>
</svg>
