<svg xmlns="http://www.w3.org/2000/svg" width="33" height="32" viewBox="0 0 33 32" fill="none">
  <g clip-path="url(#clip0_323_29730)">
    <path d="M7.31375 20.1789C7.31375 22.0114 5.81925 23.5081 3.9865 23.5081C2.15375 23.5081 0.657501 22.0114 0.657501 20.1789C0.657501 18.3464 2.15425 16.8496 3.98675 16.8496H7.314L7.31375 20.1789ZM8.991 20.1789C8.991 18.3464 10.4878 16.8496 12.3203 16.8496C14.1528 16.8496 15.6495 18.3461 15.6495 20.1789V28.5126C15.6495 30.3451 14.153 31.8419 12.3203 31.8419C10.4878 31.8419 8.991 30.3451 8.991 28.5126V20.1789Z" fill="#DE1C59"/>
    <path d="M12.3203 6.81445C10.4878 6.81445 8.991 5.31995 8.991 3.4872C8.991 1.65445 10.4878 0.158203 12.3203 0.158203C14.1528 0.158203 15.6495 1.65495 15.6495 3.48745V6.8147L12.3203 6.81445ZM12.3203 8.4917C14.1528 8.4917 15.6495 9.98845 15.6495 11.821C15.6495 13.6535 14.153 15.1502 12.3203 15.1502H3.9865C2.154 15.1502 0.657501 13.6537 0.657501 11.821C0.657501 9.98845 2.15425 8.4917 3.98675 8.4917H12.3203Z" fill="#35C5F0"/>
    <path d="M25.6862 11.821C25.6862 9.98845 27.1807 8.4917 29.0135 8.4917C30.8462 8.4917 32.3427 9.98845 32.3427 11.821C32.3427 13.6535 30.846 15.1502 29.0135 15.1502H25.6862V11.821ZM24.009 11.821C24.009 13.6535 22.5122 15.1502 20.6797 15.1502C18.8472 15.1502 17.3505 13.6537 17.3505 11.821V3.4872C17.3505 1.6547 18.847 0.158203 20.6797 0.158203C22.5122 0.158203 24.009 1.65495 24.009 3.48745V11.821Z" fill="#2EB57D"/>
    <path d="M20.6797 25.1854C22.5122 25.1854 24.009 26.6799 24.009 28.5126C24.009 30.3454 22.5122 31.8419 20.6797 31.8419C18.8472 31.8419 17.3505 30.3451 17.3505 28.5126V25.1854H20.6797ZM20.6797 23.5081C18.8472 23.5081 17.3505 22.0114 17.3505 20.1789C17.3505 18.3464 18.847 16.8496 20.6797 16.8496H29.0135C30.846 16.8496 32.3427 18.3461 32.3427 20.1789C32.3427 22.0114 30.846 23.5081 29.0135 23.5081H20.6797Z" fill="#EBB02E"/>
  </g>
  <defs>
    <clipPath id="clip0_323_29730">
      <rect width="32" height="32" fill="white" transform="translate(0.5)"/>
    </clipPath>
  </defs>
</svg>