
<svg xmlns="http://www.w3.org/2000/svg" width="1em" height="1em" viewBox="0 0 16 16" fill="currentColor">
<path fill-rule="evenodd" clip-rule="evenodd" d="M4.66629 3C4.82049 3 4.96837 3.06125 5.0774 3.17029C5.18643 3.27932 5.24769 3.4272 5.24769 3.58139V11.4884L6.34797 10.3878C6.45703 10.2788 6.60492 10.2175 6.75912 10.2176C6.91332 10.2176 7.0612 10.2789 7.17021 10.3879C7.27923 10.497 7.34046 10.6449 7.34043 10.7991C7.3404 10.9533 7.27912 11.1011 7.17007 11.2102L5.11484 13.2654L5.07937 13.2982L5.04216 13.3273C4.93501 13.4184 4.79843 13.4675 4.65782 13.4654C4.5172 13.4634 4.38211 13.4104 4.27763 13.3163L4.22588 13.2657L2.17036 11.2102C2.11637 11.1562 2.07353 11.0921 2.0443 11.0216C2.01507 10.951 2.00001 10.8754 2 10.7991C1.99999 10.7227 2.01501 10.6471 2.04422 10.5766C2.07342 10.506 2.11624 10.4419 2.17022 10.3879C2.2242 10.3339 2.28828 10.2911 2.35882 10.2619C2.42935 10.2326 2.50496 10.2176 2.58131 10.2176C2.73551 10.2175 2.8834 10.2788 2.99246 10.3878L4.0849 11.4802V3.58139C4.0849 3.4272 4.14615 3.27932 4.25518 3.17029C4.36422 3.06125 4.51209 3 4.66629 3ZM9.26745 8.23255C9.42164 8.23255 9.56952 8.29381 9.67856 8.40284C9.78759 8.51187 9.84884 8.65975 9.84884 8.81395C9.84884 8.96814 9.78759 9.11602 9.67856 9.22506C9.56952 9.33409 9.42164 9.39534 9.26745 9.39534H6.94187C6.78767 9.39534 6.63979 9.33409 6.53076 9.22506C6.42173 9.11602 6.36048 8.96814 6.36048 8.81395C6.36048 8.65975 6.42173 8.51187 6.53076 8.40284C6.63979 8.29381 6.78767 8.23255 6.94187 8.23255H9.26745ZM11.593 5.90697C11.7472 5.90697 11.8951 5.96823 12.0041 6.07726C12.1132 6.18629 12.1744 6.33417 12.1744 6.48837C12.1744 6.64256 12.1132 6.79044 12.0041 6.89948C11.8951 7.00851 11.7472 7.06976 11.593 7.06976H6.94187C6.78767 7.06976 6.63979 7.00851 6.53076 6.89948C6.42173 6.79044 6.36048 6.64256 6.36048 6.48837C6.36048 6.33417 6.42173 6.18629 6.53076 6.07726C6.63979 5.96823 6.78767 5.90697 6.94187 5.90697H11.593ZM13.9186 3.58139C14.0728 3.58139 14.2207 3.64265 14.3297 3.75168C14.4387 3.86071 14.5 4.00859 14.5 4.16279C14.5 4.31699 14.4387 4.46486 14.3297 4.5739C14.2207 4.68293 14.0728 4.74418 13.9186 4.74418H6.94187C6.78767 4.74418 6.63979 4.68293 6.53076 4.5739C6.42173 4.46486 6.36048 4.31699 6.36048 4.16279C6.36048 4.00859 6.42173 3.86071 6.53076 3.75168C6.63979 3.64265 6.78767 3.58139 6.94187 3.58139H13.9186Z" fill="currentColor" />
</svg>