<svg width="46" height="45" viewBox="0 0 46 45" fill="none" xmlns="http://www.w3.org/2000/svg">
<path d="M28.7656 10.5938C28.7656 7.22827 31.4939 4.5 34.8594 4.5C38.2249 4.5 40.9531 7.22827 40.9531 10.5938C40.9531 13.9592 38.2249 16.6875 34.8594 16.6875M28.7656 10.5938C28.7656 13.9592 31.4939 16.6875 34.8594 16.6875M28.7656 10.5938H17.1875M34.8594 16.6875V28.2656M17.1875 10.5938C17.1875 7.22827 14.4592 4.5 11.0938 4.5C7.72827 4.5 5 7.22827 5 10.5938C5 13.9592 7.72827 16.6875 11.0938 16.6875M17.1875 10.5938C17.1875 13.9592 14.4592 16.6875 11.0938 16.6875M11.0938 16.6875V28.2656M34.8594 28.2656C31.4939 28.2656 28.7656 30.9939 28.7656 34.3594M34.8594 28.2656C38.2249 28.2656 40.9531 30.9939 40.9531 34.3594C40.9531 37.7249 38.2249 40.4531 34.8594 40.4531C31.4939 40.4531 28.7656 37.7249 28.7656 34.3594M28.7656 34.3594H17.1875M17.1875 34.3594C17.1875 37.7249 14.4593 40.4531 11.0938 40.4531C7.72825 40.4531 5 37.7249 5 34.3594C5 30.9939 7.72825 28.2656 11.0938 28.2656M17.1875 34.3594C17.1875 30.9939 14.4593 28.2656 11.0938 28.2656" stroke-opacity="0.45" stroke-width="3.04687" stroke-miterlimit="10" stroke-linecap="round" stroke-linejoin="round" fill="none"/>
</svg>
