<svg width="14" height="14" viewBox="0 0 14 14" fill="currentColor" xmlns="http://www.w3.org/2000/svg">
<g id="Group">
<g id="Group_2">
<g id="ngicon">
<path id="Vector" d="M8.12757 12.2971L8.12759 12.2971C8.5399 12.2094 8.94582 12.4744 9.03295 12.889L9.03296 12.889C9.12042 13.3037 8.85615 13.7113 8.44376 13.799C7.97801 13.8981 7.49508 13.95 7.00012 13.95C3.16459 13.95 0.0501221 10.8226 0.0501221 6.9694C0.0501221 6.54585 0.392606 6.20189 0.814076 6.20189C1.23555 6.20189 1.57803 6.54585 1.57803 6.9694C1.57803 9.97484 4.00723 12.415 7.00012 12.415C7.38652 12.415 7.76375 12.3744 8.12757 12.2971ZM9.88283 11.5816L9.88284 11.5815C11.4078 10.6172 12.4222 8.91131 12.4222 6.9694C12.4222 4.22461 10.3959 1.9506 7.76413 1.57761C7.34688 1.5184 7.0554 1.12984 7.11442 0.710291C7.17343 0.290762 7.56048 -0.00157429 7.97765 0.057625L7.97766 0.057626C11.351 0.535838 13.9501 3.4501 13.9501 6.9694C13.9501 9.45808 12.651 11.6445 10.6967 12.8806C10.3403 13.1061 9.86821 12.9985 9.64357 12.6399L9.64354 12.6399C9.41853 12.2815 9.52591 11.8071 9.88283 11.5816ZM1.96809 4.9384L1.96808 4.93842C1.81065 5.33142 1.36509 5.52185 0.974149 5.36356L0.974118 5.36355C0.583101 5.20554 0.393366 4.75792 0.550866 4.36476C1.29569 2.50853 2.8122 1.04651 4.70024 0.380975L4.70025 0.38097C5.09756 0.240796 5.53399 0.451142 5.67371 0.85095C5.81347 1.25088 5.60389 1.68925 5.20615 1.82947C3.73258 2.34899 2.54904 3.48992 1.96809 4.9384Z" />
</g>
</g>
</g>
</svg>
