<svg xmlns="http://www.w3.org/2000/svg" width="42" height="32" viewBox="0 0 42 32" fill="none">
<g clip-path="url(#clip0_2295_37009)">
<path d="M11.485 5.57592C8.58071 5.55786 8.17646 8.38308 8.16404 10.5105C8.15275 12.639 8.52199 15.5071 11.4251 15.5252C14.3283 15.541 14.7336 12.6796 14.7461 10.5489C14.7585 8.41921 14.3881 5.59173 11.485 5.57592ZM11.3935 21.0977C3.8449 21.0548 0.466377 16.0401 0.500252 10.4664C0.532999 4.89051 3.96685 -0.0429066 11.5166 0.00226086C19.0652 0.0440407 22.4437 5.0181 22.411 10.594C22.3782 16.1677 18.9432 21.1417 11.3946 21.0988" fill="#898989"/>
<path d="M30.5053 5.57397C27.6022 5.5559 27.1991 8.38113 27.1866 10.5108C27.1731 12.6393 27.5435 15.5063 30.4477 15.5232C33.3486 15.5402 33.754 12.6777 33.7664 10.5492C33.7788 8.41952 33.4073 5.59091 30.5053 5.5751M30.4138 21.098C22.8664 21.0529 19.489 16.0381 19.5217 10.4645C19.5533 4.89081 22.9895 -0.0448598 30.5369 0.000307598C38.0855 0.0443458 41.4641 5.01841 41.4324 10.5921C41.3997 16.1669 37.9636 21.1409 30.4138 21.098Z" fill="#898989"/>
<path d="M3.37463 21.0977C8.81731 23.5288 14.4644 24.6083 20.6173 24.6433C27.0819 24.6817 31.9837 23.461 38.1886 21.0977L38.1524 27.7937C32.598 30.5478 26.5749 32.0327 20.5733 31.9988C14.0319 31.9604 9.31754 30.6167 3.33398 27.7937L3.37463 21.0977Z" fill="#898989"/>
</g>
<defs>
<clipPath id="clip0_2295_37009">
<rect width="40.933" height="32" fill="white" transform="translate(0.5)"/>
</clipPath>
</defs>
</svg>