<svg width="31" height="31" viewBox="0 0 31 31" fill="currentColor" xmlns="http://www.w3.org/2000/svg">
<path fill-rule="evenodd" clip-rule="evenodd" d="M1.26567 0.265625H28.8657C29.5294 0.265625 30.0657 0.801875 30.0657 1.46563V29.0656C30.0657 29.7294 29.5294 30.2656 28.8657 30.2656H1.26567C0.601924 30.2656 0.0656738 29.7294 0.0656738 29.0656V1.46563C0.0656738 0.801875 0.601924 0.265625 1.26567 0.265625ZM19.761 10.2234C18.3425 10.2146 18.1456 11.595 18.1395 12.6355C18.1329 13.6755 18.3139 15.0764 19.7329 15.0846C21.1502 15.0929 21.3483 13.6943 21.3544 12.6543C21.3604 11.6138 21.1789 10.2312 19.761 10.2234ZM19.7163 17.8085C17.412 17.7947 15.9033 16.8328 15.0995 15.4487C14.2874 16.8525 12.758 17.8216 10.4232 17.8083L10.4227 17.8078C6.73441 17.7868 5.08367 15.3366 5.10022 12.6134C5.11622 9.88898 6.794 7.47852 10.4828 7.50059C12.7875 7.51334 14.2966 8.46709 15.1006 9.84558C15.9126 8.44741 17.4421 7.48618 19.7765 7.50015C23.4647 7.52167 25.1154 9.95199 25.1 12.6753C25.084 15.3991 23.4051 17.8294 19.7163 17.8085ZM10.4673 10.2239C9.04832 10.215 8.8508 11.5954 8.84474 12.6349C8.83922 13.6749 9.01963 15.0762 10.4381 15.0851C11.8566 15.0928 12.0546 13.6947 12.0607 12.6536C12.0668 11.6131 11.8858 10.2316 10.4673 10.2239ZM14.9296 19.5409C11.9233 19.5238 9.16415 18.9963 6.50486 17.8085L6.485 21.0802C9.40856 22.4595 11.712 23.116 14.9081 23.1348C17.8405 23.1513 20.7833 22.4258 23.4972 21.0802L23.5149 17.8085C20.4832 18.9632 18.0882 19.5596 14.9296 19.5409Z"/>
</svg>
