<svg width="24" height="24" viewBox="0 0 24 24" fill="none" xmlns="http://www.w3.org/2000/svg">
<rect width="24" height="24" rx="12" fill="currentColor"/>
<g clip-path="url(#clip0_4535_9049)">
<path d="M9.34984 9.08613C8.53804 9.08108 8.42504 9.87079 8.42157 10.4654C8.41841 11.0604 8.52162 11.8621 9.33311 11.8672C10.1446 11.8716 10.2579 11.0718 10.2614 10.4762C10.2649 9.88089 10.1613 9.09054 9.34984 9.08613ZM9.32428 13.4248C7.21427 13.4128 6.2699 12.0111 6.27937 10.4531C6.28852 8.89454 7.24836 7.51554 9.35868 7.52816C11.4687 7.53984 12.4131 8.9302 12.4039 10.4888C12.3948 12.0468 11.4346 13.4371 9.32459 13.4251" fill="white"/>
<path d="M14.6669 9.08552C13.8554 9.08047 13.7427 9.87018 13.7393 10.4655C13.7355 11.0604 13.839 11.8618 14.6508 11.8666C15.4617 11.8713 15.575 11.0712 15.5785 10.4762C15.5819 9.88091 15.4781 9.09025 14.6669 9.08583M14.6413 13.4248C12.5317 13.4122 11.5876 12.0105 11.5967 10.4525C11.6056 8.89456 12.5661 7.51493 14.6757 7.52755C16.7857 7.53986 17.7301 8.93022 17.7213 10.4882C17.7121 12.0465 16.7517 13.4368 14.6413 13.4248Z" fill="white"/>
<path d="M7.08363 13.4248C8.60498 14.1044 10.1835 14.4061 11.9033 14.4159C13.7103 14.4266 15.0805 14.0854 16.8149 13.4248L16.8048 15.2965C15.2522 16.0663 13.5686 16.4814 11.891 16.4719C10.0626 16.4612 8.7448 16.0856 7.07227 15.2965L7.08363 13.4248Z" fill="white"/>
</g>
<defs>
<clipPath id="clip0_4535_9049">
<rect width="11.4417" height="8.94472" fill="white" transform="translate(6.2793 7.52759)"/>
</clipPath>
</defs>
</svg>
