<svg xmlns="http://www.w3.org/2000/svg" width="33" height="32" viewBox="0 0 33 32" fill="none">
  <g clip-path="url(#clip0_323_29748)">
    <path d="M16.5 0C12.2575 0 8.185 1.68675 5.1875 4.68625C2.18691 7.68694 0.500831 11.7565 0.5 16C0.5 20.2417 2.1875 24.3142 5.1875 27.3137C8.185 30.3132 12.2575 32 16.5 32C20.7425 32 24.815 30.3132 27.8125 27.3137C30.8125 24.3142 32.5 20.2417 32.5 16C32.5 11.7583 30.8125 7.68575 27.8125 4.68625C24.815 1.68675 20.7425 0 16.5 0Z" fill="url(#paint0_linear_323_29748)"/>
    <path d="M7.7425 15.8301C12.4075 13.7981 15.5175 12.4583 17.0725 11.8111C21.5175 9.96283 22.44 9.64183 23.0425 9.63095C23.175 9.62883 23.47 9.66158 23.6625 9.8172C23.8225 9.94845 23.8675 10.126 23.89 10.2506C23.91 10.3751 23.9375 10.6588 23.915 10.8803C23.675 13.4103 22.6325 19.5498 22.1025 22.3836C21.88 23.5826 21.4375 23.9846 21.01 24.0238C20.08 24.1093 19.375 23.4098 18.475 22.8201C17.0675 21.8968 16.2725 21.3223 14.905 20.4216C13.325 19.3806 14.35 18.8083 15.25 17.8733C15.485 17.6286 19.58 13.9048 19.6575 13.5671C19.6675 13.5248 19.6775 13.3673 19.5825 13.2843C19.49 13.2011 19.3525 13.2296 19.2525 13.2521C19.11 13.2841 16.8625 14.7711 12.5025 17.7128C11.865 18.1513 11.2875 18.3651 10.7675 18.3538C10.1975 18.3416 9.0975 18.0308 8.28 17.7653C7.28 17.4396 6.4825 17.2673 6.5525 16.7141C6.5875 16.4261 6.985 16.1313 7.7425 15.8301Z" fill="white"/>
  </g>
  <defs>
    <linearGradient id="paint0_linear_323_29748" x1="1600.5" y1="0" x2="1600.5" y2="3200" gradientUnits="userSpaceOnUse">
      <stop stop-color="#2AABEE"/>
      <stop offset="1" stop-color="#229ED9"/>
    </linearGradient>
    <clipPath id="clip0_323_29748">
      <rect width="32" height="32" fill="white" transform="translate(0.5)"/>
    </clipPath>
  </defs>
</svg>