<svg width="16" height="16" viewBox="0 0 16 16" fill="none" xmlns="http://www.w3.org/2000/svg">
<g id="mingcute:threads-line" clip-path="url(#clip0_800_28572)">
<g id="Group">
<path id="Vector" fill-rule="evenodd" clip-rule="evenodd" d="M3.63308 3.08265C4.66442 1.98332 6.15975 1.33398 8.01108 1.33398C11.0544 1.33398 13.0724 3.08798 13.7111 5.51865C13.756 5.68972 13.7311 5.87161 13.6419 6.02433C13.5527 6.17705 13.4065 6.28807 13.2354 6.33298C13.0644 6.37789 12.8825 6.35301 12.7297 6.2638C12.577 6.1746 12.466 6.02838 12.4211 5.85732C11.9364 4.01532 10.4504 2.66732 8.01042 2.66732C6.48642 2.66732 5.35708 3.19332 4.60642 3.99398C3.84908 4.80198 3.42708 5.94265 3.42708 7.25065V8.75065C3.42708 10.0587 3.84908 11.1993 4.60642 12.0067C5.35708 12.8087 6.48642 13.334 8.01042 13.334C9.11375 13.334 9.98908 13.078 10.6611 12.664C11.3377 12.2473 11.7411 11.6947 11.8544 11.0607C11.9844 10.33 11.8244 9.82865 11.5491 9.46665C11.3978 9.27212 11.2143 9.10502 11.0064 8.97265C10.9164 9.47198 10.7557 9.94332 10.5131 10.3127C9.61842 11.672 7.90775 11.7887 6.77975 11.3387C6.16908 11.0953 5.64575 10.4293 5.48308 9.71532C5.38514 9.30601 5.41802 8.8763 5.57708 8.48665C5.75375 8.06265 6.08108 7.70132 6.54708 7.42665C7.00842 7.15398 7.69375 7.02865 8.37308 7.00998C8.78242 6.99865 9.22642 7.02598 9.67308 7.09865C9.57975 6.66532 9.42175 6.34198 9.24375 6.17598C8.92108 5.87598 8.38642 5.66465 7.85042 5.66798C7.33242 5.67198 6.89308 5.87132 6.63042 6.29132C6.53671 6.44125 6.38727 6.54782 6.21499 6.58758C6.04271 6.62734 5.86169 6.59703 5.71175 6.50332C5.56181 6.40961 5.45525 6.26017 5.41549 6.08789C5.37573 5.91561 5.40604 5.73459 5.49975 5.58465C6.05775 4.69265 6.97708 4.34132 7.84175 4.33465C8.68842 4.32865 9.56042 4.64932 10.1524 5.19998C10.7511 5.75732 11.0084 6.67132 11.0751 7.50265C11.6578 7.75665 12.2084 8.12932 12.6117 8.66065C13.1324 9.34732 13.3564 10.2327 13.1671 11.2947C12.9737 12.3773 12.2904 13.2267 11.3604 13.7993C10.4484 14.3607 9.32308 14.6673 8.01042 14.6673C6.15975 14.6673 4.66375 14.018 3.63375 12.9187C2.60975 11.8267 2.09375 10.3427 2.09375 8.75065V7.25065C2.09375 5.65865 2.60975 4.17465 3.63375 3.08265H3.63308ZM9.73308 8.46732C9.29829 8.37322 8.85379 8.33159 8.40908 8.34332C7.81508 8.35932 7.39842 8.47198 7.22442 8.57465C6.96842 8.72598 6.85775 8.87998 6.80842 8.99932C6.75587 9.13314 6.747 9.28015 6.78308 9.41932C6.86442 9.77665 7.13308 10.0447 7.27375 10.1C8.02442 10.4 8.96375 10.2413 9.39908 9.57998C9.55575 9.34132 9.68042 8.93998 9.73242 8.46732H9.73308Z"/>
</g>
</g>
<defs>
<clipPath id="clip0_800_28572">
<rect width="16" height="16" fill="white"/>
</clipPath>
</defs>
</svg>
