<svg xmlns="http://www.w3.org/2000/svg" width="40" height="39" viewBox="0 0 40 39" fill="currentColor">
<g clip-path="url(#clip0_321_38055)">
<path d="M36.6873 0H3.31272C1.7592 0 0.5 1.2592 0.5 2.81272V36.1873C0.5 37.7408 1.7592 39 3.31272 39H36.6873C38.2408 39 39.5 37.7408 39.5 36.1873V2.81272C39.5 1.2592 38.2408 0 36.6873 0ZM29.7688 14.9266V17.5631C28.5255 17.5636 27.3175 17.32 26.1783 16.8392C25.4458 16.53 24.7633 16.1315 24.139 15.65L24.1578 23.7655C24.1499 25.5929 23.427 27.3099 22.1185 28.6031C21.0536 29.6558 19.7042 30.3253 18.2417 30.542C17.898 30.5928 17.5483 30.619 17.1947 30.619C15.6291 30.619 14.1427 30.1117 12.9268 29.176C12.698 28.9999 12.4792 28.8089 12.2708 28.6031C10.8527 27.2016 10.1215 25.3019 10.2446 23.3035C10.3386 21.7823 10.9476 20.3315 11.9629 19.1944C13.3062 17.6897 15.1854 16.8545 17.1947 16.8545C17.5483 16.8545 17.898 16.881 18.2417 16.9319V17.9068V20.6186C17.9159 20.5111 17.5679 20.452 17.2056 20.452C15.3698 20.452 13.8847 21.9497 13.9121 23.7867C13.9295 24.9621 14.5716 25.9896 15.5186 26.556C15.9636 26.8222 16.4756 26.987 17.022 27.017C17.4501 27.0405 17.8611 26.9809 18.2417 26.8552C19.5533 26.422 20.4994 25.19 20.4994 23.7371L20.5037 18.3026V8.38104H24.1347C24.1382 8.7408 24.1747 9.09188 24.2425 9.43198C24.5166 10.8088 25.2927 12.0033 26.3728 12.8177C27.3146 13.528 28.4873 13.9491 29.7585 13.9491C29.7593 13.9491 29.7697 13.9491 29.7689 13.9483L29.7688 14.9266Z"/>
</g>
<defs>
<clipPath id="clip0_321_38055">
<rect width="39" height="39" fill="white" transform="translate(0.5)"/>
</clipPath>
</defs>
</svg>