<svg width="18" height="18" viewBox="0 0 18 18" fill="none" xmlns="http://www.w3.org/2000/svg">
<path d="M16.515 8.37208C16.4153 8.17248 16.2686 8.00005 16.0875 7.86958L15.09 7.11958C15.0382 7.0838 15.0009 7.03056 14.985 6.96958C14.9626 6.90908 14.9626 6.84257 14.985 6.78208L15.3975 5.55958C15.4637 5.34094 15.4791 5.11007 15.4425 4.88458C15.4082 4.65484 15.3152 4.43785 15.1725 4.25458C15.0353 4.07113 14.855 3.9243 14.6475 3.82708C14.4491 3.73179 14.2299 3.68794 14.01 3.69958H12.885C12.8185 3.69877 12.754 3.6764 12.7013 3.63583C12.6485 3.59526 12.6104 3.53868 12.5925 3.47458L12.27 2.34958C12.2072 2.12159 12.0887 1.91281 11.925 1.74208C11.7613 1.57573 11.561 1.44989 11.34 1.37458C11.1167 1.30604 10.8804 1.29064 10.65 1.32958C10.4218 1.37479 10.208 1.47521 10.0275 1.62208L9.17253 2.29708C9.12514 2.33979 9.06382 2.36379 9.00003 2.36458C8.94244 2.37008 8.88459 2.35693 8.83503 2.32708L7.98753 1.65208C7.81356 1.5099 7.60766 1.41209 7.38753 1.36708C7.17056 1.31543 6.9445 1.31543 6.72753 1.36708C6.50973 1.42671 6.30923 1.53724 6.14253 1.68958C5.97189 1.85562 5.84111 2.0582 5.76003 2.28208L5.43753 3.41458C5.42116 3.48134 5.38121 3.53994 5.32503 3.57958C5.26602 3.62081 5.19415 3.63944 5.12253 3.63208H4.05753C3.82739 3.62247 3.59835 3.66879 3.39003 3.76708C3.17883 3.86159 2.99546 4.0088 2.85753 4.19458C2.71872 4.37731 2.6261 4.59086 2.58753 4.81708C2.55003 5.03683 2.56503 5.26333 2.63253 5.47708L3.00003 6.74383C3.01937 6.80405 3.01966 6.86877 3.00087 6.92917C2.98208 6.98957 2.94512 7.0427 2.89503 7.08133L1.89753 7.83133C1.71603 7.96633 1.56753 8.14033 1.46253 8.34133C1.364 8.54073 1.31274 8.76016 1.31274 8.98258C1.31274 9.205 1.364 9.42442 1.46253 9.62383C1.56721 9.82446 1.71592 9.99882 1.89753 10.1338L2.89503 10.8838C2.94512 10.9225 2.98208 10.9756 3.00087 11.036C3.01966 11.0964 3.01937 11.1611 3.00003 11.2213L2.58753 12.4438C2.51766 12.6642 2.4997 12.8978 2.53503 13.1263C2.57253 13.3498 2.66553 13.5613 2.80503 13.7413C2.94228 13.9288 3.12603 14.0788 3.33753 14.1763C3.53628 14.2708 3.75528 14.3143 3.97503 14.3038H5.09253C5.16018 14.3009 5.22664 14.3222 5.28003 14.3638C5.33394 14.4009 5.37154 14.4573 5.38503 14.5213L5.70753 15.6538C5.77419 15.878 5.89233 16.0835 6.05253 16.2538C6.29712 16.5086 6.62799 16.6628 6.98035 16.6864C7.33271 16.71 7.68118 16.6012 7.95753 16.3813L8.82003 15.6988C8.87206 15.6568 8.93691 15.6339 9.00378 15.6339C9.07065 15.6339 9.1355 15.6568 9.18753 15.6988L10.035 16.3738C10.215 16.5253 10.4325 16.6266 10.665 16.6663C10.75 16.6738 10.835 16.6738 10.92 16.6663C11.0677 16.6665 11.2144 16.6437 11.355 16.5988C11.5777 16.5288 11.7794 16.4044 11.9417 16.2367C12.1041 16.0691 12.2221 15.8636 12.285 15.6388L12.615 14.4988C12.6285 14.4348 12.6661 14.3784 12.72 14.3413C12.778 14.2974 12.85 14.2761 12.9225 14.2813H13.995C14.2244 14.2905 14.4527 14.2468 14.6625 14.1538C14.8694 14.0552 15.0495 13.9083 15.1879 13.7256C15.3262 13.5429 15.4187 13.3297 15.4575 13.1038C15.497 12.873 15.479 12.636 15.405 12.4138L15 11.1988C14.9776 11.1383 14.9776 11.0718 15 11.0113C15.0159 10.9503 15.0532 10.8971 15.105 10.8613L16.1025 10.1113C16.2833 9.97745 16.4298 9.80268 16.53 9.60133C16.6354 9.40279 16.6895 9.18109 16.6875 8.95633C16.6729 8.75116 16.6141 8.55234 16.515 8.37208ZM12.435 7.80133L9.12003 11.1163C8.99169 11.242 8.84181 11.3436 8.67753 11.4163C8.51103 11.4838 8.33253 11.5198 8.15253 11.5213C7.969 11.5226 7.78737 11.4842 7.62003 11.4088C7.45226 11.3385 7.29951 11.2366 7.17003 11.1088L5.53503 9.46633C5.41216 9.32285 5.34796 9.13829 5.35525 8.94954C5.36254 8.76078 5.44079 8.58173 5.57436 8.44815C5.70793 8.31458 5.88699 8.23633 6.07574 8.22904C6.2645 8.22175 6.44906 8.28596 6.59253 8.40883L8.15253 9.96883L11.3775 6.73633C11.5181 6.59664 11.7081 6.51823 11.9063 6.51823C12.1044 6.51823 12.2945 6.59664 12.435 6.73633C12.51 6.80648 12.5697 6.89127 12.6105 6.98545C12.6514 7.07962 12.6724 7.18118 12.6724 7.28383C12.6724 7.38648 12.6514 7.48803 12.6105 7.58221C12.5697 7.67638 12.51 7.76117 12.435 7.83133V7.80133Z" fill="#1890FF"/>
</svg>
