<svg width="24" height="24" viewBox="0 0 24 24" fill="none" xmlns="http://www.w3.org/2000/svg">
<path d="M6.03746 18.1876C5.84996 18.1501 5.69996 18.1126 5.51246 18.0376C5.32496 17.9626 5.17496 17.9251 5.02496 17.8501C4.68746 17.7001 4.38746 17.5126 4.08746 17.2876C3.48746 16.8751 2.99996 16.3126 2.62496 15.6376C2.24996 15.0001 2.02496 14.2501 1.98746 13.5376C1.94996 13.1626 1.98746 12.8251 2.02496 12.4501C2.06246 12.2626 2.09996 12.1126 2.13746 11.9251C2.17496 11.7376 2.24996 11.5876 2.28746 11.4001L2.32496 11.9251C2.32496 12.1126 2.36246 12.2626 2.39996 12.4501C2.43746 12.7876 2.51246 13.1251 2.58746 13.4251C2.73746 14.0626 2.96246 14.6626 3.29996 15.2251C3.63746 15.7876 4.01246 16.3126 4.49996 16.8001C4.72496 17.0251 4.98746 17.2501 5.24996 17.4751C5.36246 17.5876 5.51246 17.7001 5.66246 17.8126L6.03746 18.1876Z" fill="#66BCE8"/>
<path d="M5.925 19.5376C5.8125 19.6126 5.6625 19.6501 5.5125 19.6876C5.3625 19.7251 5.25 19.7626 5.1 19.7626C4.8375 19.8001 4.5375 19.8376 4.2375 19.8001C3.675 19.7626 3.075 19.6126 2.5875 19.3501C2.0625 19.0876 1.6125 18.6751 1.3125 18.1876C1.1625 17.9626 1.0125 17.7001 0.9 17.4376C0.8625 17.3251 0.825 17.1751 0.7875 17.0251C0.7875 16.9126 0.75 16.8001 0.75 16.6501C0.8625 16.7626 0.9375 16.8751 1.0125 16.9501C1.125 17.0626 1.2 17.1751 1.275 17.2501C1.4625 17.4376 1.6125 17.6251 1.8 17.7751C2.175 18.1126 2.55 18.4126 3 18.6376C3.4125 18.8626 3.9 19.0501 4.35 19.2001C4.575 19.2751 4.8375 19.3126 5.1 19.3876C5.2125 19.4251 5.3625 19.4251 5.475 19.4626C5.6625 19.5001 5.775 19.5001 5.925 19.5376Z" fill="#66BCE8"/>
<path d="M14.4001 1.3125C14.5876 1.35 14.7376 1.425 14.9251 1.5C15.1126 1.575 15.2626 1.65 15.4126 1.725C15.7501 1.9125 16.0501 2.1 16.3501 2.325C16.9501 2.775 17.4376 3.375 17.7751 4.05C18.1126 4.725 18.3001 5.475 18.3001 6.1875C18.3001 6.5625 18.2626 6.9 18.1876 7.275C18.1501 7.4625 18.1126 7.6125 18.0376 7.8C17.9626 7.9875 17.9251 8.1375 17.8501 8.2875L17.8126 7.7625C17.8126 7.575 17.8126 7.425 17.7751 7.2375L17.6626 6.225C17.5501 5.5875 17.3251 4.95 17.0251 4.35C16.7251 3.75 16.3501 3.225 15.9001 2.7375C15.6751 2.475 15.4126 2.25 15.1876 1.9875C15.0751 1.875 14.9251 1.7625 14.7751 1.65L14.4001 1.3125Z" fill="#66BCE8"/>
<path d="M17.6624 1.1626C17.8124 1.2001 17.9249 1.2376 18.0374 1.3126C18.1499 1.3501 18.2999 1.4251 18.4124 1.5001C18.6374 1.6501 18.8624 1.8001 19.0874 1.9876C19.4999 2.3626 19.8374 2.8126 20.0249 3.3376C20.2499 3.8626 20.3249 4.4251 20.2499 4.9876C20.2124 5.2501 20.1374 5.5126 20.0624 5.7751C20.0249 5.8876 19.9499 6.0376 19.9124 6.1501C19.8374 6.2626 19.7999 6.3751 19.6874 6.4876V5.7376C19.6874 5.4751 19.6499 5.2501 19.6499 5.0251C19.5749 4.5376 19.4999 4.0876 19.3124 3.6751C19.1249 3.2251 18.8999 2.8501 18.6374 2.4376C18.4874 2.2501 18.3374 2.0251 18.1874 1.8376C18.1124 1.7251 18.0374 1.6501 17.9249 1.5376C17.8499 1.3501 17.7374 1.2376 17.6624 1.1626Z" fill="#66BCE8"/>
<path d="M3.74992 6.74995C2.99992 7.08745 2.73742 7.98745 3.07492 8.73745L7.79992 18.6L10.4249 17.3625L5.69992 7.46245C5.36242 6.71245 4.49992 6.37495 3.74992 6.74995Z" fill="#FFDD67"/>
<path d="M16.1624 14.5875L18.9374 13.275L13.5374 2.02495C13.1624 1.27495 12.2624 0.937453 11.4749 1.31245C10.7249 1.68745 10.3874 2.58745 10.7624 3.37495L16.1624 14.5875Z" fill="#FFDD67"/>
<path d="M11.5124 1.27502C11.4374 1.31252 11.3624 1.35002 11.2874 1.42502C11.9999 1.23752 12.7499 1.57502 13.0874 2.25002L18.4874 13.5L18.9749 13.275L13.5749 2.02502C13.1999 1.23752 12.2999 0.900022 11.5124 1.27502Z" fill="#EBA352"/>
<path d="M10.425 17.325L13.3125 15.9375L7.79997 4.46247C7.42497 3.67497 6.44997 3.29997 5.66247 3.67497C4.87497 4.04997 4.53747 5.02497 4.91247 5.81247L10.425 17.325Z" fill="#FFDD67"/>
<path d="M5.6625 3.71246C5.5875 3.74996 5.5125 3.78746 5.4375 3.86246C6.15 3.67496 6.975 4.01246 7.3125 4.72496L10.725 11.8875L11.55 12.375L7.8 4.49996C7.425 3.67496 6.4875 3.33746 5.6625 3.71246Z" fill="#EBA352"/>
<path d="M12.8625 15.0374L15.75 13.6499L10.2375 2.17488C9.86247 1.38738 8.88747 1.01238 8.09997 1.42488C7.31247 1.79988 6.97497 2.77488 7.34997 3.56238L12.8625 15.0374Z" fill="#FFDD67"/>
<path d="M8.1 1.38751C8.025 1.42501 7.95 1.50001 7.875 1.53751C8.5875 1.35001 9.4125 1.68751 9.75 2.40001L13.6125 10.5L14.4375 10.9875L10.2375 2.17501C9.8625 1.35001 8.8875 1.01251 8.1 1.38751Z" fill="#EBA352"/>
<path d="M3.75015 6.75012C3.67515 6.78762 3.60015 6.82512 3.52515 6.90012C4.20015 6.71262 4.91265 7.05012 5.21265 7.72512L8.02515 13.6126L8.85015 14.1001L5.70015 7.50012C5.36265 6.71262 4.50015 6.37512 3.75015 6.75012Z" fill="#EBA352"/>
<path d="M22.8 5.62509C21.7875 4.83759 20.1375 5.70009 19.3125 8.40009C18.75 10.2751 18.675 10.8376 17.475 11.4001L16.8 10.0126C16.8 10.0126 6.14996 15.1501 6.56246 15.9751C6.56246 15.9751 7.83746 19.9501 10.0125 21.7876C13.2375 24.5626 20.775 21.6001 21.1125 14.4376C21.3 10.2751 23.8875 6.48759 22.8 5.62509Z" fill="#FFDD67"/>
<path d="M22.8001 5.62505C22.6126 5.47505 22.3876 5.40005 22.1626 5.36255C22.2001 5.40005 22.2751 5.40005 22.3126 5.43755C23.4376 6.30005 22.2751 8.28755 21.6376 10.0875C21.1126 11.5125 20.6626 12.975 20.7376 14.4C21.0376 20.625 14.7751 23.5875 11.0251 22.4625C14.7001 24 21.5251 21.075 21.2251 14.5875C21.1501 13.1625 21.5626 11.775 22.1251 10.275C22.7251 8.47505 23.8876 6.48755 22.8001 5.62505Z" fill="#EBA352"/>
<path d="M17.8125 11.25C15.4875 11.5125 12.075 14.85 14.475 18.4875C12.7125 14.8125 15.6 12.3375 17.4375 11.475C17.625 11.325 17.8125 11.25 17.8125 11.25Z" fill="#EBA352"/>
</svg>
